<?xml version="1.0" encoding="utf-8"?>
<svg xmlns="http://www.w3.org/2000/svg" x="0px" y="0px" width="300px" height="65px">
<path fill="#006233" d="M63.89,11l-8.33-10.8H0.5v6.95l3.58,2.35V55.5L0.5,57.84v6.95h55.06l8.33-10.78V39.84l-5.68-7.33l5.68-7.37
	V11z M56.83,22.77l-4.82,6.18h-3.97v-7.18l2.48-1.42v-5.69H34.51c0.85,1.44,1.8,2.82,2.86,4.13l0.32,0.41h-2.57
	c1.01,1.68,2.13,3.29,3.35,4.82l0.4,0.49h-2.83c0.87,1.36,1.81,2.67,2.83,3.93l0.42,0.52H25.95l0.42-0.52
	c1.02-1.26,1.95-2.57,2.83-3.93h-2.83L26.76,24c1.23-1.53,2.35-3.14,3.36-4.82h-2.57l0.32-0.41c1.04-1.31,2-2.69,2.85-4.13H15.11
	v5.69l2.47,1.42v21.48l-2.47,1.42v5.7h15.2v-5.13h-7.27l0.65-0.82c1.36-1.73,2.62-3.51,3.8-5.35h-3.15l0.41-0.47
	c0.74-0.82,1.44-1.67,2.13-2.53h11.48c0.68,0.86,1.39,1.72,2.13,2.53l0.41,0.47h-3.15c1.18,1.84,2.45,3.62,3.79,5.35l0.65,0.82H34.8
	v5.13h15.73v-5.7l-2.48-1.42v-7.17h3.93l4.86,6.19v9.32l-4.77,6.18H11.05V36.07h4.06v-7.12h-4.06V7.26h41.03l4.75,6.14V22.77z"/>
<path d="M103.84,12.88v-1.18h10.37c3.59,0,5.43,2.15,5.43,4.42c0,1.98-1.41,4.05-4.28,4.83c3.5,0.46,5.23,2.81,5.23,5.23
	c0,2.78-2.35,5.63-7.09,5.63h-9.65v-1.09l2.56-0.92V13.34L103.84,12.88z M110.07,13.14v7.24h1.84c2.64,0,3.96-1.98,3.96-3.88
	c0-1.72-1.09-3.36-3.45-3.36H110.07z M110.07,21.99v8.18h2.15c2.93,0,4.34-2.07,4.34-4.13c0-2.04-1.38-4.05-4.19-4.05H110.07z
	 M140.05,25.58h-1.06l-3.22,4.59h-6.09V13.72l2.56-0.95v-1.06h-8.84v1.18l2.56,0.46V29.8l-2.56,0.92v1.09h15.91L140.05,25.58z
	 M148.75,31.81h-6.92v-1.09l2.56-0.92l6.32-15.74l-0.55-1.38v-0.98h3.42l7.7,18.52l2.24,0.37v1.21h-9.02v-1.09l2.53-0.92l-1.64-4.05
	h-7.47l-1.72,4.42l2.56,0.43V31.81z M151.59,16.3l-2.99,7.72h6.12L151.59,16.3z M181.14,13.52c-2.01-1.49-4.39-2.3-6.86-2.3
	c-5.17,0-10.11,3.62-10.11,10.71c0,6.83,4.54,10.4,9.13,10.4c3.82,0,7.32-2.5,8.36-6.86l-0.89-1.03c-1.09,2.81-3.3,4.71-6.32,4.71
	c-3.88,0-7.04-3.1-7.04-8.27c0-5.02,2.99-7.95,6.26-7.95c2.61,0,4.22,1.87,4.22,4.45c0,0.32-0.03,0.66-0.09,1h1.41L181.14,13.52z
	 M184.44,12.88v-1.18h8.82v1.06l-2.53,0.95v16.45l2.53,0.43v1.21h-8.82v-1.09L187,29.8V13.34L184.44,12.88z M196.3,11.71h7.26v1.26
	l-2.13,0.4l-6.86,6.86l9.39,10.48v1.09h-4.05l-8.9-10.25l7.81-8.16l-2.53-0.54V11.71z M221.31,30.6l-2.56-0.43v-7.64h8.82v7.27
	l-2.53,0.92v1.09h8.82V30.6l-2.56-0.43V13.72l2.56-0.95v-1.06h-8.82v1.18l2.53,0.46v7.47h-8.82v-7.09l2.56-0.95v-1.06h-8.84v1.18
	l2.56,0.46V29.8l-2.56,0.92v1.09h8.84V30.6z M245.2,30.6l-2.56-0.43V13.72l2.56-0.95v-1.06h-8.82v1.18l2.53,0.46V29.8l-2.53,0.92
	v1.09h8.82V30.6z M264.35,25.58h-1.06l-3.22,4.59h-6.09V13.72l2.56-0.95v-1.06h-8.84v1.18l2.56,0.46V29.8l-2.56,0.92v1.09h15.91
	L264.35,25.58z M283.36,25.58h-1.06l-3.22,4.59H273V13.72l2.56-0.95v-1.06h-8.84v1.18l2.56,0.46V29.8l-2.56,0.92v1.09h15.91
	L283.36,25.58z M299.07,13.11c-1.69-1.21-4.02-1.89-6.17-1.89c-3.5,0-6.75,1.75-6.75,5.69c0,3.53,2.64,4.88,4.39,5.74l2.38,1.18
	c1.24,0.6,3.02,1.52,3.02,3.76c0,2.07-1.58,3.01-3.39,3.01c-2.58,0-4.39-1.95-4.39-4.31c0-0.2,0-0.4,0.03-0.6h-1.69L286,30.17
	c1.9,1.35,3.99,2.15,6.4,2.15c3.7,0,7.09-1.92,7.09-5.92c0-3.68-2.81-5-4.22-5.69l-2.33-1.09c-1.49-0.72-3.47-1.69-3.47-3.88
	c0-1.92,1.46-2.84,3.13-2.84c1.84,0,3.59,1.12,3.59,3.3c0,0.17,0,0.37-0.03,0.57h1.58L299.07,13.11z M84.04,8.91h-1.47v47.17h1.47
	V8.91z M114.09,48.09c-0.11-2.57-2.18-3.75-4.64-3.75c-2.53,0-4.44,1.22-4.44,3.68c0,2.21,1.49,3.03,4.57,3.75
	c1.43,0.34,2.73,0.65,2.73,1.98c0,1.15-0.96,1.84-2.53,1.84c-1.61,0-2.88-0.8-3.08-2.67h-2.02c0.09,2.8,2.32,4.42,5.08,4.42
	c2.48,0,4.51-1.31,4.51-3.77c0-2.32-1.63-2.97-4.26-3.57c-1.7-0.41-3.04-0.76-3.04-2.11c0-1.22,0.96-1.84,2.44-1.84
	c1.34,0,2.53,0.55,2.67,2.03H114.09z M117.39,44.64v1.82h4.12v10.56h1.95V46.46h4.14v-1.82H117.39z M138.98,57.03l-1.17-3.11h-5.43
	l-1.17,3.11h-2.11l4.92-12.39h2.19l4.94,12.39H138.98z M133.03,52.09h4.12l-2.05-5.43L133.03,52.09z M142.66,44.64v1.82h4.12v10.56
	h1.95V46.46h4.14v-1.82H142.66z M156.85,57.03h8.39v-1.84h-6.44v-3.5h5.57v-1.84h-5.57v-3.38h6.12v-1.82h-8.07V57.03z M183.73,52.57
	c0,1.98-1.17,2.92-2.94,2.92c-1.88,0-3.08-1.03-3.08-3.13v-7.71h-1.95v7.84c0,3.19,2.09,4.87,4.97,4.87c2.9,0,4.92-1.7,4.92-4.87
	v-7.84h-1.93V52.57z M198.82,44.64v9.32l-5.91-9.32h-2.19v12.39h1.91V47.6l6.03,9.43h2.09V44.64H198.82z M208.19,44.64h-1.95v12.39
	h1.95V44.64z M218.06,54.53l-3.61-9.89h-2.11l4.8,12.39h1.79l4.81-12.39h-2.07L218.06,54.53z M227.81,57.03h8.39v-1.84h-6.44v-3.5
	h5.57v-1.84h-5.57v-3.38h6.12v-1.82h-8.07V57.03z M240.62,44.64h5.11c2.69,0,3.91,1.72,3.91,3.59c0,1.59-0.92,2.99-2.58,3.5
	l3.31,5.29h-2.28l-2.92-4.88h-2.6v4.88h-1.95V44.64z M242.57,46.46v3.95h2.88c1.43,0,2.19-0.88,2.19-2.02
	c0-1.06-0.67-1.93-2.05-1.93H242.57z M262.8,48.09c-0.11-2.57-2.18-3.75-4.64-3.75c-2.53,0-4.44,1.22-4.44,3.68
	c0,2.21,1.49,3.03,4.57,3.75c1.43,0.34,2.73,0.65,2.73,1.98c0,1.15-0.96,1.84-2.53,1.84c-1.61,0-2.88-0.8-3.08-2.67h-2.02
	c0.09,2.8,2.32,4.42,5.08,4.42c2.48,0,4.51-1.31,4.51-3.77c0-2.32-1.63-2.97-4.26-3.57c-1.7-0.41-3.04-0.76-3.04-2.11
	c0-1.22,0.96-1.84,2.44-1.84c1.34,0,2.53,0.55,2.67,2.03H262.8z M269.54,44.64h-1.95v12.39h1.95V44.64z M273.61,44.64v1.82h4.12
	v10.56h1.95V46.46h4.14v-1.82H273.61z M292.1,50.36l-3.15-5.72h-2.3l4.44,7.41v4.97h1.96v-4.97l4.44-7.41h-2.25L292.1,50.36z"/>
</svg>
