<svg xmlns="http://www.w3.org/2000/svg" width="270.12079" height="23.05801" viewBox="0 0 270.12079 23.05801">
  <g id="Layer_2" data-name="Layer 2">
    <g id="Layer_1-2" data-name="Layer 1">
      <g>
        <path d="M10.339,0A48.98771,48.98771,0,0,0,0,1.059L.01,14.624c-.025,7.02,8.799,7.169,10.074,8.434,1.275-1.265,10.001-1.414,10.025-8.434l-.01-13.565A40.256,40.256,0,0,0,10.339,0" style="fill: #fff"/>
        <path d="M3.28311,3.80542v10.369c0,4.583,5.981,4.662,6.835,5.515.855-.853,6.836-.932,6.836-5.515V3.80542a29.49041,29.49041,0,0,0-6.836-.524c-5.088-.02-6.835.524-6.835.524" style="fill: #ffc629"/>
        <path d="M10.36171.46542a46.32776,46.32776,0,0,0-9.846,1.016l.009,13.015c-.022,6.737,8.379,6.88,9.594,8.094,1.214-1.214,9.523-1.357,9.546-8.094l-.009-13.015a38.07459,38.07459,0,0,0-9.294-1.016m7.205,14.038c0,4.78-6.518,4.94-7.448,5.87-.931-.93-7.448-1.09-7.448-5.87V3.20444s1.903-.594,7.448-.571c5.545.022,7.448.571,7.448.571Z" style="fill: #003595"/>
        <path d="M16.32471,3.676l-1.555.679-2.091,5.133c-.837-.051-1.695-.085-2.521-.085-.407,0-.822.008-1.241.023l2.576-6.126c-.484-.011-.946-.016-1.374-.019l-1.628.7-3.253,7.784c.545-.056,1.324-.106,1.967-.146l-2.398,1.175-1.238,2.967a4.29725,4.29725,0,0,0,1.849,2.073l2.608-6.269c.666-.027,1.378-.045,2.132-.045,1.178,0,2.247.042,3.196.102l-1.983.952-2.701,6.532a4.40452,4.40452,0,0,1,1.449.584,3.71,3.71,0,0,1,1.245-.523l5.59-13.443V3.805c-.247-.062-.354-.081-.629-.129" style="fill: #003595"/>
        <path d="M188.47479,4.59021l-4.822,11.134c-.611-1.368-3.224-7.381-4.704-11.132-.133-.336-.382-.952.504-.952h-3.814c.665,0,.891.552,1.064.95,1.645,3.786,6.339,14.711,6.339,14.711l6.472-14.711s.431-.95,1.075-.95h-2.579c.998,0,.465.95.465.95m79.006-.95c.981,0,.162.95.162.95l-4.713,6.312c-.286-.43-2.257-3.322-4.227-6.31-.208-.316-.371-.952.25-.952h-3.812c.64,0,1.05.586,1.298.952,1.702,2.522,4.764,7.081,5.096,7.578v5.457a.93133.93133,0,0,1-.953.95h3.998a.93041.93041,0,0,1-.95-.95v-6.279l5.115-6.758s.648-.95,1.376-.95Zm-102.857,0h-.952a.931.931,0,0,1,.952.95v10.56c-.587-.653-9.323-10.375-10.211-11.51h-2.061a.9304.9304,0,0,1,.95.95v13.037a.9304.9304,0,0,1-.95.95h3.011a.93041.93041,0,0,1-.95-.95V6.43222l11.355,12.686V4.59021a.93071.93071,0,0,1,.951-.95h-2.095Zm-16.54,0h-.949a.9301.9301,0,0,1,.949.95v8.28a4.37753,4.37753,0,0,1-4.568,4.566c-2.79,0-4.313-1.903-4.313-4.503v-8.343a.93133.93133,0,0,1,.953-.95h-4.059a.93071.93071,0,0,1,.951.95v8.28c0,3.615,2.284,5.992,6.122,5.992a5.64109,5.64109,0,0,0,5.874-5.793v-8.479a.93133.93133,0,0,1,.953-.95h-1.913Zm25.194,0h-3.743a.93071.93071,0,0,1,.951.95v13.037a.931.931,0,0,1-.952.95h3.744a.931.931,0,0,1-.952-.95V4.59021a.931.931,0,0,1,.952-.95m64.63,0h-3.738a.9304.9304,0,0,1,.95.95v13.037a.931.931,0,0,1-.952.95h3.74a.9301.9301,0,0,1-.949-.95V4.59021a.9301.9301,0,0,1,.949-.95m-198.774,0h-3.997a.93071.93071,0,0,1,.951.95v5.966h-7.866v-5.966a.931.931,0,0,1,.952-.95h-3.935a.931.931,0,0,1,.952.95v13.037a.931.931,0,0,1-.952.95h3.935a.931.931,0,0,1-.952-.95v-6.089h7.866v6.089a.93071.93071,0,0,1-.951.95h3.997a.93163.93163,0,0,1-.954-.95V4.59021a.93163.93163,0,0,1,.954-.95m21.734,0a.93071.93071,0,0,1,.951.95v13.037a.93071.93071,0,0,1-.951.95h3.9a.924.924,0,0,1-.951-.945v-6.033h4.814a.93207.93207,0,0,1,.951.952v-2.94a.93275.93275,0,0,1-.951.953h-4.782v-5.974h5.825a.93207.93207,0,0,1,.951.952v-1.902h-9.757Zm-10.861,14.145a6.13395,6.13395,0,0,1-6.121-6.47c0-3.234,1.869-6.789,6.121-6.789,4.218,0,6.057,3.427,6.057,6.661,0,3.776-2.6,6.63-6.057,6.598m0-14.303c-5.074,0-8.468,3.649-8.468,7.833,0,4.886,3.806,7.485,8.5,7.485,4.692,0,8.373-2.76,8.373-7.613,0-4.185-3.329-7.705-8.405-7.705m34.538,1.108v.952a.93131.93131,0,0,1,.95-.952h4.343v13.037a.93133.93133,0,0,1-.953.95h3.996a.93041.93041,0,0,1-.95-.95V4.59021h4.696a.93207.93207,0,0,1,.951.952v-1.902H84.5448Zm32.875,7.866,2.537-5.964c.382.892,1.555,3.649,2.568,5.964Zm-14.535-7.802h.858c3.265,0,4.281,1.524,4.281,3.172,0,1.935-1.244,3.522-5.139,3.522Zm24.089,12.952-6.458-14.365-6.399,14.352a1.65566,1.65566,0,0,1-.964.932c-2.226-.606-3.236-6.788-6.698-6.788,1.839-.603,3.567-2.071,3.567-4.068,0-2.062-1.776-4.029-5.394-4.029h-4.601a.93164.93164,0,0,1,.954.95v13.037a.93164.93164,0,0,1-.954.95h3.81a.931.931,0,0,1-.952-.95v-5.535c6.909,0,4.918,6.485,8.471,6.485h4.276c-1.016,0-.451-.981-.451-.981l1.794-4.125h5.963c.578,1.356,1.176,2.831,1.683,4.125.134.34.384.981-.714.981h4.379a1.52633,1.52633,0,0,1-1.312-.971m-49.351-8.162c-1.144-.602-2.188-1.333-2.188-2.855,0-1.426,1.269-2.093,2.663-2.093.922,0,3.439.438,3.774,2.681v-2.492a6.11964,6.11964,0,0,0-3.709-1.203c-1.998,0-4.409,1.234-4.409,3.806,0,3.171,2.918,3.899,5.011,5.01,1.141.601,2.188,1.363,2.188,2.884,0,1.493-1.301,2.539-3.142,2.539-1.298,0-3.897-.629-4.597-3.171v2.6a6.8755,6.8755,0,0,0,4.663,1.586c2.505,0,4.853-1.555,4.853-4.344,0-3.173-2.981-3.901-5.107-4.948m148.05,0c-1.14-.602-2.187-1.333-2.187-2.855,0-1.426,1.268-2.093,2.664-2.093.917,0,3.436.438,3.774,2.681v-2.492a6.132,6.132,0,0,0-3.711-1.203c-1.996,0-4.41,1.234-4.41,3.806,0,3.171,2.92,3.899,5.013,5.01,1.14.601,2.187,1.363,2.187,2.884,0,1.493-1.299,2.539-3.14,2.539-1.297,0-3.899-.629-4.599-3.171v2.6a6.87822,6.87822,0,0,0,4.662,1.586c2.506,0,4.854-1.555,4.854-4.344,0-3.173-2.981-3.901-5.107-4.948m-16.372-4.79h.857c3.266,0,4.282,1.524,4.282,3.172,0,1.935-1.241,3.522-5.139,3.522Zm3.568,7.083c1.844-.603,3.568-2.071,3.568-4.068,0-2.062-1.776-4.029-5.391-4.029h-4.604a.93163.93163,0,0,1,.954.95v13.037a.93163.93163,0,0,1-.954.95h3.811a.931.931,0,0,1-.952-.95v-5.535c6.91,0,4.918,6.485,8.47,6.485h2.16c-2.489.011-3.415-6.84-7.062-6.84m27.985-7.147v.952a.93223.93223,0,0,1,.953-.952h4.343v13.037a.931.931,0,0,1-.952.95h3.996a.931.931,0,0,1-.952-.95V4.59021h4.701a.93146.93146,0,0,1,.949.952v-1.902h-13.038Zm-38.597,13.042h-6.419l.001-6.033h4.813a.93238.93238,0,0,1,.952.952v-2.94a.93305.93305,0,0,1-.952.953h-4.782v-5.974h5.826a.93146.93146,0,0,1,.949.952v-1.902h-9.758a.93164.93164,0,0,1,.954.95v13.037a.93164.93164,0,0,1-.954.95h10.321v-1.894a.93.93,0,0,1-.951.949" style="fill: #003595"/>
      </g>
    </g>
  </g>
</svg>
