<?xml version="1.0" encoding="UTF-8" standalone="no"?>
<svg xmlns:rdf="http://www.w3.org/1999/02/22-rdf-syntax-ns#" xmlns="http://www.w3.org/2000/svg" xml:space="preserve" height="108.57" viewBox="0 0 316.83008 108.57041" width="316.83" version="1.1" xmlns:cc="http://creativecommons.org/ns#" xmlns:xlink="http://www.w3.org/1999/xlink" xmlns:dc="http://purl.org/dc/elements/1.1/"><g transform="matrix(1.25 0 0 -1.25 -283.69 642.11)"><g style="" transform="translate(.89270 .59513)"><path d="m17.074 85.746c-0.07375 0-0.12305 0.02477-0.5918 0.19726-1.3075 0.54125-2.3933 0.54297-2.7383 0.54297-0.69125 0-1.1094-0.000078-1.1094 0.41992 0 0.24625 0.0975 0.24453 0.9375 0.26953 0.09875 0 0.76367 0.05125 0.76367 0.59375 0 0.245-0.07359 0.52016-0.24609 1.0352l-2.8379 8.2402c-0.295 0.8125-0.91211 2.8616-0.91211 3.7266 0 0.86125 0.41859 1.3809 1.1836 1.3809 1.7275 0 4.416-3.0613 4.416-3.7988 0-0.14875-0.14898-0.25-0.27148-0.25-0.09875 0-0.14766 0.07758-0.22266 0.17383-0.345 0.54375-1.7509 2.2715-2.3672 2.2715-0.1975 0-0.27148-0.17196-0.27148-0.34571 0-0.5425 0.8143-2.9111 1.0605-3.6523l3.4297-10.162c0.07375-0.2475 0.09766-0.27055 0.09766-0.37305 0-0.1975-0.22156-0.26953-0.32031-0.26953zm6.5527 0c-0.07375 0-0.12305 0.02477-0.5918 0.19726-1.3062 0.54125-2.3933 0.54297-2.7383 0.54297-0.69125 0-1.1094-0.000078-1.1094 0.41992 0 0.24625 0.0975 0.24453 0.9375 0.26953 0.09875 0 0.76367 0.05125 0.76367 0.59375 0 0.245-0.07234 0.52016-0.24609 1.0352l-2.8379 8.2402c-0.295 0.8125-0.91211 2.8616-0.91211 3.7266 0 0.86125 0.41734 1.3809 1.1836 1.3809 1.7262 0 4.418-3.0613 4.418-3.7988 0-0.14875-0.14969-0.25-0.27344-0.25-0.09875 0-0.14695 0.07758-0.2207 0.17383-0.34625 0.54375-1.7509 2.2715-2.3672 2.2715-0.19875 0-0.27344-0.17196-0.27344-0.34571 0-0.5425 0.81305-2.9111 1.0605-3.6523l3.4297-10.162c0.07375-0.2475 0.09766-0.27055 0.09766-0.37305 0-0.1975-0.22156-0.26953-0.32031-0.26953zm72.703 0c-1.5538 0-3.082 0.91078-4.0195 1.8008-1.11 1.01-1.5304 2.2188-1.9004 3.2812h-1.8008c-0.29625 0-0.41992 0.5918-0.41992 0.5918 0 0.09875 0.02508 0.22266 0.17383 0.22266h1.7988c-1.48 4.9075-1.8493 6.2916-3.2793 11.619-0.32125 1.2075-0.91094 3.4316-1.8984 3.4316-0.42 0-0.59422-0.49859-0.66797-0.74609-0.1725-0.49125-0.37016-1.0586-1.1602-1.0586-0.64125 0-1.0586 0.4682-1.0586 1.0332 0 0.79124 0.88766 1.5078 2.0977 1.5078 1.1338 0 2.1198-0.49407 2.9336-1.1328 1.5775-1.2613 1.8765-2.0752 4.4902-11.473l0.88672-3.1816h2.3691c0.2725 0 0.39453-0.4693 0.39453-0.5918 0-0.09875-0.02438-0.22266-0.17188-0.22266h-2.3438c0.34375-1.3062 1.1348-4.2188 2.2461-4.2188 0.27 0 0.41859 0.24547 0.58984 0.54297 0.51875 0.86125 1.2579 0.93945 1.4316 0.93945 0.54 0 1.1348-0.42039 1.1348-1.0879 0-0.79-0.83992-1.2578-1.8262-1.2578zm74.273 0c-0.0987 0-0.22125 0.05125-0.34375 0.125-0.91375 0.47-1.9505 0.76172-3.0117 0.76172-0.73625 0-1.2793 0.000313-1.2793 0.44531 0 0.27125 0.27047 0.27148 0.41797 0.27148 0.025 0 0.66476-0.04883 0.79101-0.04883 0.34375 0 0.54102 0.19633 0.54102 0.51758 0 0.34625-0.27398 1.2565-0.39648 1.6777l-1.7266 5.377c-0.39375 1.3338-0.91211 2.937-0.91211 4.1445 0 2.64 2.3188 3.1348 3.4551 3.1348 4.095 0 8.6074-3.5772 8.6074-7.7734 0-2.2925-1.4044-3.8691-3.0332-3.8691-2.0488 0-3.9959 2.538-5.9434 5.1543l-0.0508-0.05078c0.37125-1.0375 3.1562-9.3223 3.1562-9.5723 0-0.195-0.099-0.29492-0.27148-0.29492zm13.41 0c-0.075 0-0.12429 0.02477-0.59179 0.19726-1.3088 0.54125-2.3958 0.54297-2.7383 0.54297-0.6925 0-1.1113-0.000078-1.1113 0.41992 0 0.24625 0.0994 0.24453 0.93945 0.26953 0.0987 0 0.76367 0.05125 0.76367 0.59375 0 0.245-0.0755 0.52016-0.24805 1.0352l-2.8359 8.2402c-0.29625 0.8125-0.91407 2.8616-0.91407 3.7266 0 0.86125 0.42055 1.3809 1.1856 1.3809 1.7275 0 4.4141-3.0613 4.4141-3.7988 0-0.14875-0.14578-0.25-0.26953-0.25-0.0975 0-0.14695 0.07758-0.2207 0.17383-0.34625 0.54375-1.7529 2.2715-2.3691 2.2715-0.1975 0-0.27344-0.17196-0.27344-0.34571 0-0.5425 0.81625-2.9111 1.0625-3.6523l3.4297-10.162c0.0725-0.2475 0.0976-0.27055 0.0976-0.37305 0-0.1975-0.22281-0.26953-0.32031-0.26953zm-103.34 0.27c-1.2075 0-1.2324 1.0618-1.2324 1.1855 0 0.37 0.17133 0.5675 0.51758 0.8125 0.2475 0.1975 0.3457 0.34961 0.3457 0.56836 0 0.6175-0.69148 1.4338-2.1465 2.125-0.07375 0.02125-0.24805 0.11883-0.24805 0.26758 0 0.1725 0.14984 0.27148 0.37109 0.27148 0.615 0 3.7012-1.7014 3.7012-3.8477 0-0.74125-0.51984-1.3828-1.3086-1.3828zm-74.852 0.275c-0.29625 0-0.59375 0.11976-0.59375 0.41602 0 0.2225 0.12281 0.32031 0.78906 0.32031 0.32125 0 0.83984 0.0012 0.83984 0.54492 0 0.29625-0.074687 0.69125-0.14844 0.9375l-3.4532 11.62c-0.27125 0.96125-0.76484 0.98515-1.1836 1.0352-0.93875 0.0737-1.2832 0.12414-1.2832 0.49414 0 0.29625 0.29422 0.29688 0.41797 0.29688 0.44375 0 1.235-0.19922 2.9375-0.19922 1.9488 0 2.7626 0.19922 3.3301 0.19922 0.1475 0 0.41992-0.0496 0.41992-0.34961 0-0.195-0.099687-0.34219-0.74219-0.36719-0.1725-0.025-1.1582-0.0744-1.1582-0.68945 0-0.15125 0.023516-0.49633 0.19727-0.98633l3.3046-11.179c0.37125-1.2325 0.74-1.2824 1.875-1.3574 0.29625-0.02375 0.59375-0.09836 0.59375-0.44336 0-0.195-0.07562-0.29297-0.29688-0.29297-0.64125 0-0.74102 0.19531-2.666 0.19531-2.6638 0-3.0809-0.19531-3.1797-0.19531zm24.217 0.04883c-0.88875 0-1.5801 1.0336-1.5801 1.8711 0 0.4975 0.22141 1.2598 1.0352 1.2598 0.86375 0 1.5547-0.985 1.5547-1.875 0-0.2225 0.000234-1.2559-1.0098-1.2559zm35.586 0c-0.88875 0-1.5762 1.0336-1.5762 1.8711 0 0.4975 0.2207 1.2598 1.0332 1.2598 0.86375 0 1.5566-0.985 1.5566-1.875 0-0.2225-0.0012-1.2559-1.0137-1.2559zm35.584 0c-0.88875 0-1.5762 1.0336-1.5762 1.8711 0 0.4975 0.22141 1.2598 1.0352 1.2598 0.86375 0 1.5527-0.985 1.5527-1.875 0-0.2225-0.00046-1.2559-1.0117-1.2559zm89.215 0c-0.89 0-1.5801 1.0336-1.5801 1.8711 0 0.4975 0.22336 1.2598 1.0371 1.2598 0.865 0 1.5527-0.985 1.5527-1.875 0-0.2225-0.001-1.2559-1.0098-1.2559zm54.557 0c-0.88875 0-1.5781 1.0336-1.5781 1.8711 0 0.4975 0.22266 1.2598 1.0352 1.2598 0.86375 0 1.5547-0.985 1.5547-1.875 0-0.2225-0.00047-1.2559-1.0117-1.2559zm50.23 0c-0.88875 0-1.5801 1.0336-1.5801 1.8711 0 0.4975 0.22406 1.2598 1.0391 1.2598 0.86375 0 1.5527-0.985 1.5527-1.875 0-0.2225-0.00047-1.2559-1.0117-1.2559zm-167.42 1.4512c-0.3425 0-1.3316 0.0282-1.6016 0.12695-0.2975 0.12375-0.91383 2.4652-1.1113 2.9102h-1.1836c-0.665 0-1.1348-0.000312-1.1348 0.61719 0 0.1975 0.27008 0.19727 0.51758 0.19727h1.5527c-0.8125 2.3688-1.8241 5.3515-2.2441 7.0527-0.12375 0.47-0.32226 1.2613-0.32226 2 0 1.0375 0.49492 1.4316 1.0137 1.4316 2.0225 0 4.7109-3.1103 4.7109-3.8516 0-0.12-0.12399-0.26758-0.27149-0.26758-0.125 0-0.24531 0.12258-0.32031 0.26758-0.74 1.1612-1.9976 2.1719-2.3926 2.1719-0.14875 0-0.29687-0.12016-0.29687-0.44141 0-0.37375 0.34539-1.5314 0.49414-1.9727 1.1338-3.7025 1.158-3.7994 1.998-6.3906h2.3438c0.24375 0 0.66407-0.09836 0.66407-0.56836 0-0.04875 0.00023-0.24609-0.19727-0.24609h-2.5625c0.0487-0.09875 0.0968-0.29594 0.12305-0.36719l0.32031-0.89063c0.0975-0.27125 0.44141-1.281 0.44141-1.4785 0-0.3-0.21977-0.30078-0.54102-0.30078zm174.59 0c-0.34375 0-1.331 0.0282-1.6035 0.12695-0.29375 0.12375-0.90992 2.4652-1.1074 2.9102h-1.1875c-0.66375 0-1.1328-0.000312-1.1328 0.61719 0 0.1975 0.27007 0.19727 0.51758 0.19727h1.5527c-0.81125 2.3688-1.8254 5.3515-2.2441 7.0527-0.125 0.47-0.31836 1.2613-0.31836 2 0 1.0375 0.49101 1.4316 1.0098 1.4316 2.0225 0 4.7129-3.1103 4.7129-3.8516 0-0.12-0.12344-0.26758-0.27344-0.26758-0.1225 0-0.24531 0.12258-0.32031 0.26758-0.74 1.1612-1.9976 2.1719-2.3926 2.1719-0.14875 0-0.29688-0.12016-0.29688-0.44141 0-0.37375 0.34539-1.5314 0.49414-1.9727 1.1338-3.7025 1.158-3.7994 1.998-6.3906h2.3457c0.24375 0 0.66211-0.09836 0.66211-0.56836 0-0.04875 0.00024-0.24609-0.19726-0.24609h-2.5625c0.045-0.09875 0.098-0.29594 0.12304-0.36719l0.31836-0.89063c0.10125-0.27125 0.44336-1.281 0.44336-1.4785 0-0.3-0.22101-0.30078-0.54101-0.30078zm-160.11 0.42c-1.6538 0-1.7052 0.05359-1.8027 0.15234-0.14875 0.12375-0.34484 0.78703-0.71484 2.0195l-0.15039 0.49414c-2.1712 0.37125-2.416 0.39445-2.416 0.81445 0 0.12375 0.0745 0.24414 0.2207 0.24414 0.0512 0 0.12477 0.001 0.19727-0.02148 0.22375-0.07375 1.1594-0.27226 1.752-0.32226l-4.2422 12.951c-0.39626 1.2075-0.69125 1.6526-1.875 1.7539-0.56875 0.0462-1.0606 0.0706-1.0606 0.51562 0 0.0987 0.0248 0.27148 0.24609 0.27148 0.12375 0 1.0615-0.19726 3.084-0.19726 1.7012 0 3.1559 0.19726 3.2559 0.19726 0.22125 0 0.54296-0.0007 0.54296-0.3457 0-0.32125-0.29734-0.34516-1.1836-0.4414-0.445-0.0488-0.88867-0.17477-0.88867-0.66602 0-0.17375 0.0484-0.42094 0.14844-0.74219l1.0371-3.502c0.3675 0.29625 0.95906 0.74023 2.4141 0.74023 5.1825 0 7.4766-5.5245 7.4766-8.3633 0-3.3562-3.1834-3.3555-4.0684-3.3555-1.2112 0-1.6799 0.10102-2.2949 0.19727 0-0.145 0.68945-1.8506 0.68945-2.1719 0-0.17-0.0472-0.22266-0.36719-0.22266zm-99.836 2.2969c-3.01 0-5.2798 3.6478-6.8848 6.2891l-0.04883-0.04883 0.32226-0.9375c0.39375-1.1112 1.0605-3.0598 1.0605-4.0723 0-1.085-0.46953-1.207-0.86328-1.207-2.1712 0-4.4648 3.1105-4.4648 3.4805 0 0.145 0.14734 0.29297 0.24609 0.29297 0.1975 0 1.9477-2.2422 2.4902-2.2422 0.05125 0 0.24805 0.0243 0.24805 0.3418 0 1.4088-2.8359 8.908-2.8359 9.1055 0 0.3175 0.3693 0.31835 0.5918 0.31835 1.5038 0 1.6773-0.00085 1.9961-0.9121 1.68-4.7338 5.1831-9.2481 6.9844-9.2481 0.17125 0 0.56445 0.07133 0.56445 0.64258 0 0.81125-2.7109 7.2262-2.7109 8.6563 0 0.56875 0.14688 1.1855 1.1094 1.1855 2.195 0 4.5879-3.3076 4.5879-3.7988 0-0.14875-0.1243-0.29883-0.24805-0.29883-0.14625 0-0.17297 0.07711-0.54297 0.56836-0.69 0.9875-1.6495 1.8496-2.0195 1.8496-0.175 0-0.29688-0.19782-0.29688-0.44532 0-0.7625 0.81258-2.8104 1.4551-4.4629 0.715-1.7762 1.0352-2.7886 1.0352-3.5273 0-1.5288-1.4541-1.5293-1.7754-1.5293zm192.39 0c-3.0112 0-5.2817 3.6478-6.8867 6.2891l-0.0469-0.04883 0.32032-0.9375c0.395-1.1112 1.0625-3.0598 1.0625-4.0723 0-1.085-0.47024-1.207-0.86524-1.207-2.1712 0-4.4629 3.1105-4.4629 3.4805 0 0.145 0.14539 0.29297 0.24414 0.29297 0.1975 0 1.9497-2.2422 2.4922-2.2422 0.0513 0 0.24805 0.0243 0.24805 0.3418 0 1.4088-2.8379 8.908-2.8379 9.1055 0 0.3175 0.37 0.31835 0.59375 0.31835 1.5038 0 1.6748-0.00085 1.9961-0.9121 1.6775-4.7338 5.1792-9.2481 6.9805-9.2481 0.1725 0 0.56836 0.07133 0.56836 0.64258 0 0.81125-2.7129 7.2262-2.7129 8.6563 0 0.56875 0.14562 1.1855 1.1094 1.1855 2.1962 0 4.5859-3.3076 4.5859-3.7988 0-0.14875-0.12164-0.29883-0.24414-0.29883-0.14875 0-0.17367 0.07711-0.54492 0.56836-0.69125 0.9875-1.649 1.8496-2.0215 1.8496-0.1725 0-0.29492-0.19782-0.29492-0.44532 0-0.7625 0.81258-2.8104 1.4551-4.4629 0.715-1.7762 1.0352-2.7886 1.0352-3.5273 0-1.5288-1.4522-1.5293-1.7734-1.5293zm16.404 0c-2.27 0-4.5879 2.7613-4.5879 3.3301 0 0.095 0.0723 0.22266 0.19727 0.22266 0.1725 0 0.34539-0.22109 0.36914-0.24609 0.765-1.0125 1.9249-1.9746 2.2949-1.9746 0.0987 0 0.2461 0.07336 0.2461 0.31836 0 0.29875-0.66742 1.9026-0.88867 2.3926-1.2338 2.9375-1.7012 4.1203-1.7012 5.4766 0 1.3338 1.0839 2.0996 2.0977 2.0996 4.6888 0 8.9551-6.3648 8.9551-9.916 0-1.0138-0.49555-1.7031-1.1856-1.7031-0.59 0-1.1836 0.49148-1.1836 1.4277 0 0.5675 0.1732 0.81664 0.3457 1.0879 0.41875 0.61875 0.49219 0.74016 0.49219 1.1602 0 1.8012-2.934 6.8809-6.0215 6.8809-0.59 0-1.1562-0.29297-1.1562-1.0117 0-1.43 2.8848-7.4986 2.8848-8.5586 0-0.24625-0.1207-0.98633-1.1582-0.98633zm14.562 0c-2.6375 0-7.3262 2.7131-7.3262 7.5469 0 2.7175 1.8739 4.0723 3.7227 4.0723 2.6912 0 5.1348-2.9374 5.1348-3.3574 0-0.1225-0.051-0.24609-0.19727-0.24609-0.125 0-0.175 0.05375-0.71875 0.59375-1.5525 1.5038-2.7601 1.5781-3.2051 1.5781-0.47 0-2.0703-0.22187-2.0703-2.6406 0-0.145 0.00008-0.31867 0.0488-0.76367l2.959-0.54297c1.0125-0.1725 4.7363-0.98539 4.7363-3.6504 0-1.7262-1.7002-2.5898-3.084-2.5898zm-66.701 0.002c-4.2425 0-7.6465 3.7952-7.6465 7.6465 0 2.0938 1.4066 3.9961 3.7754 3.9961 2.7888 0 5.2773-3.1593 5.2773-3.6543 0-0.145-0.14859-0.22266-0.24609-0.22266-0.0725 0-0.15016 0.07758-0.22266 0.17383-0.5175 0.66625-1.9721 2.2949-3.7246 2.2949-1.3312 0-2.1465-1.0847-2.1465-2.4922 0-2.7612 1.9251-7.1289 4.0488-7.1289 0.46625 0 0.66226 0.29562 0.88476 0.76562 0.17375 0.32125 0.69344 1.3066 1.5547 1.3066 0.51875 0 1.1582-0.37 1.1582-1.0625 0-0.3425-0.29539-1.623-2.7129-1.623zm-170.24 0.01953c-2.22 0-4.7617 2.8398-4.7617 3.3086 0 0.14875 0.1243 0.26953 0.24805 0.26953 0.04875 0 2.0723-2.0449 2.5898-2.0449 0.1975 0 0.19727 0.19805 0.19727 0.24805 0 0.2675-0.17203 0.61406-0.39453 1.1328-0.81375 1.875-2.541 5.9951-2.541 7.5488 0 0.74125 0.2468 1.1602 1.0605 1.1602 1.825 0 4.5898-3.0856 4.5898-3.7031 0-0.1475-0.14969-0.26953-0.27344-0.26953-0.1225 0-0.22148 0.14516-0.27148 0.22266-0.2225 0.3425-1.7017 2.0937-2.293 2.0937-0.1475 0-0.22266-0.14546-0.22266-0.29297 0-1.285 2.8633-7.3523 2.8633-8.6836 0-0.37-0.05102-0.99023-0.79102-0.99023zm35.588 0c-2.22 0-4.7598 2.8398-4.7598 3.3086 0 0.14875 0.12164 0.26953 0.24414 0.26953 0.05125 0 2.075-2.0449 2.5938-2.0449 0.195 0 0.19531 0.19805 0.19531 0.24805 0 0.2675-0.17328 0.61406-0.39453 1.1328-0.81375 1.875-2.5391 5.9951-2.5391 7.5488 0 0.74125 0.24484 1.1602 1.0586 1.1602 1.825 0 4.5879-3.0856 4.5879-3.7031 0-0.1475-0.14703-0.26953-0.26953-0.26953-0.12375 0-0.22469 0.14516-0.27344 0.22266-0.22125 0.3425-1.7005 2.0937-2.293 2.0937-0.1475 0-0.2207-0.14546-0.2207-0.29297 0-1.285 2.8594-7.3523 2.8594-8.6836 0-0.37-0.04906-0.99023-0.78906-0.99023zm35.586 0c-2.2212 0-4.7617 2.8398-4.7617 3.3086 0 0.14875 0.12359 0.26953 0.24609 0.26953 0.05125 0 2.073-2.0449 2.5918-2.0449 0.195 0 0.19531 0.19805 0.19531 0.24805 0 0.2675-0.17078 0.61406-0.39453 1.1328-0.815 1.875-2.5391 5.9951-2.5391 7.5488 0 0.74125 0.24609 1.1602 1.0586 1.1602 1.8275 0 4.5879-3.0856 4.5879-3.7031 0-0.1475-0.14899-0.26953-0.27148-0.26953-0.12251 0-0.22079 0.14516-0.26954 0.22266-0.2225 0.3425-1.7037 2.0937-2.2949 2.0937-0.1475 0-0.2207-0.14546-0.2207-0.29297 0-1.285 2.8594-7.3523 2.8594-8.6836 0-0.37-0.0484-0.99023-0.78711-0.99023zm89.211 0c-2.2188 0-4.7598 2.8398-4.7598 3.3086 0 0.14875 0.12359 0.26953 0.24609 0.26953 0.0488 0 2.0736-2.0449 2.5898-2.0449 0.1975 0 0.19922 0.19805 0.19922 0.24805 0 0.2675-0.17328 0.61406-0.39453 1.1328-0.815 1.875-2.543 5.9951-2.543 7.5488 0 0.74125 0.25 1.1602 1.0625 1.1602 1.825 0 4.5879-3.0856 4.5879-3.7031 0-0.1475-0.14898-0.26953-0.27148-0.26953-0.12375 0-0.22274 0.14516-0.27149 0.22266-0.2225 0.3425-1.7017 2.0937-2.293 2.0937-0.14875 0-0.22461-0.14546-0.22461-0.29297 0-1.285 2.8633-7.3523 2.8633-8.6836 0-0.37-0.0498-0.99023-0.79102-0.99023zm54.559 0c-2.2225 0-4.7617 2.8398-4.7617 3.3086 0 0.14875 0.12359 0.26953 0.24609 0.26953 0.0488 0 2.0723-2.0449 2.5898-2.0449 0.1975 0 0.19727 0.19805 0.19727 0.24805 0 0.2675-0.17078 0.61406-0.39453 1.1328-0.81375 1.875-2.541 5.9951-2.541 7.5488 0 0.74125 0.24805 1.1602 1.0606 1.1602 1.8275 0 4.5898-3.0856 4.5898-3.7031 0-0.1475-0.14898-0.26953-0.27148-0.26953-0.12375 0-0.22469 0.14516-0.27344 0.22266-0.22125 0.3425-1.7012 2.0937-2.2949 2.0937-0.14625 0-0.2207-0.14546-0.2207-0.29297 0-1.285 2.8633-7.3523 2.8633-8.6836 0-0.37-0.0503-0.99023-0.78906-0.99023zm50.23 0c-2.2212 0-4.7598 2.8398-4.7598 3.3086 0 0.14875 0.12359 0.26953 0.24609 0.26953 0.05 0 2.0729-2.0449 2.5879-2.0449 0.1975 0 0.19727 0.19805 0.19727 0.24805 0 0.2675-0.16883 0.61406-0.39258 1.1328-0.81375 1.875-2.5391 5.9951-2.5391 7.5488 0 0.74125 0.24609 1.1602 1.0586 1.1602 1.825 0 4.5879-3.0856 4.5879-3.7031 0-0.1475-0.14773-0.26953-0.27148-0.26953s-0.22078 0.14516-0.26953 0.22266c-0.2225 0.3425-1.7031 2.0937-2.2969 2.0937-0.14625 0-0.2207-0.14546-0.2207-0.29297 0-1.285 2.8613-7.3523 2.8613-8.6836 0-0.37-0.0478-0.99023-0.78907-0.99023zm-240.62 0.002c-3.7 0-7.3027 3.1593-7.3027 6.8105 0 2.64 1.8743 4.7851 4.3418 4.7851 3.0088 0 7.4492-2.6391 7.4492-6.8828 0-2.9838-2.4408-4.7129-4.4883-4.7129zm19.242 0c-2.9838 0-4.5625 2.148-4.5625 3.5293 0 0.83625 0.61555 1.6774 1.998 3.1074 1.3075 1.3062 1.75 1.849 1.75 2.6152 0 0.66374-0.49234 1.6523-1.4023 1.6523-0.445 0-1.0133-0.19821-1.9258-1.4082-0.765-1.01-1.0867-1.4258-1.6055-1.4258-0.59125 0-0.83789 0.96047-0.83789 1.3555 0 2.1225 3.0598 2.1699 3.5273 2.1699 2.5412 0 4.6387-1.6304 4.6387-3.4316 0-0.985-0.5432-1.6509-1.4082-2.5371-1.9962-2.0262-2.7363-2.9627-2.7363-3.7539 0-0.91125 0.96102-1.0098 1.1348-1.0098 1.1338 0 1.9738 0.83992 2.3438 1.2324 0.37 0.37125 0.78945 0.81641 1.2832 0.81641 0.61625 0 0.79102-1.0878 0.79102-1.5078 0-0.88625-1.3095-1.4043-2.9883-1.4043zm34.082 0c-1.8525 0-4.2188 3.3325-4.2188 3.875 0 0.195 0.1736 0.26758 0.2461 0.26758 0.1975 0 0.4939-0.48961 0.6914-0.78711 0.56625-0.86375 1.4566-1.7988 1.7754-1.7988 0.245 0 0.24414 0.31703 0.24414 0.39453 0 1.1338-2.5859 8.6319-2.5859 9.002 0 0.34374 0.0966 0.34374 1.0566 0.34374 0.57 0 0.91781-0.00031 1.0391-0.19531 0.2725-0.42 3.7744-9.3965 5.3281-9.3965 0.0975 0 0.24609 0.07344 0.24609 0.36719l-0.0254 0.41992c0 0.64125 0.61656 0.79102 0.91406 0.79102 0.9875 0 1.3828-1.2116 1.3828-1.9004 0-0.94-0.6182-1.3828-1.2832-1.3828-1.95 0-4.0453 4.1436-4.1953 4.4648l-0.71485 1.4805c-0.125 0.27125-0.34539 0.71594-0.49414 1.0859l-0.0488-0.04883c0.24626-0.6675 1.5039-4.4413 1.5039-5.6738 0-0.9875-0.32008-1.3086-0.86133-1.3086zm11.627 0c-2.9862 0-4.5645 2.148-4.5645 3.5293 0 0.83625 0.61555 1.6774 1.998 3.1074 1.3062 1.3062 1.75 1.849 1.75 2.6152 0 0.66374-0.49125 1.6523-1.4062 1.6523-0.4425 0-1.0113-0.19821-1.9238-1.4082-0.765-1.01-1.0853-1.4258-1.6016-1.4258-0.5925 0-0.83984 0.96047-0.83984 1.3555 0 2.1225 3.0573 2.1699 3.5273 2.1699 2.5425 0 4.6406-1.6304 4.6406-3.4316 0-0.985-0.5457-1.6509-1.4082-2.5371-2.0012-2.0262-2.7383-2.9627-2.7383-3.7539 0-0.91125 0.96031-1.0098 1.1328-1.0098 1.135 0 1.9732 0.83992 2.3457 1.2324 0.37 0.37125 0.78804 0.81641 1.2793 0.81641 0.61875 0 0.79102-1.0878 0.79102-1.5078 0-0.88625-1.3062-1.4043-2.9824-1.4043zm36.234 0c-2.3938 0-4.7598 2.5908-4.7598 3.332 0 0.12375 0.0739 0.26953 0.22265 0.26953 0.12375 0 0.24656-0.12164 0.32031-0.24414 0.71375-1.1612 1.9492-2.0234 2.293-2.0234 0.0987 0 0.24414 0.06984 0.24414 0.24609 0 0.24375-1.6259 4.1207-1.8984 4.9082-0.17 0.47-0.98438 2.7377-0.98438 3.8477 0 0.1475 0.00024 1.2852 1.209 1.2852 3.5525 0 7.375-5.8737 7.375-5.9199l0.0488 0.04492c-0.54375 1.6312-1.4062 4.2189-1.4062 4.9102 0 0.76625 0.64086 0.96484 0.91211 0.96484 1.9988 0 5.0078-2.8128 5.0078-3.8516 0-0.17-0.17235-0.24609-0.2461-0.24609-0.0487 0-0.12219 0.02391-0.27344 0.22266-1.305 1.8525-2.3662 2.2187-2.5137 2.2187-0.1725 0-0.24609-0.1689-0.24609-0.3164 0-1.4588 2.959-8.8835 2.959-9.3535 0-0.24625-0.24703-0.29492-0.39453-0.29492l-1.4805 0.07227c-0.51625 0.025-0.61617 0.37305-0.76367 0.8418-0.81375 2.6875-1.3835 3.5269-2.0723 4.5156-1.875 2.64-4.0938 4.6855-5.1562 4.6855-0.17125 0-0.46875-0.0509-0.46875-0.44336 0-0.88875 2.9863-7.8721 2.9863-8.8809 0-0.56875-0.34781-0.79102-0.91406-0.79102zm59.258 0c-2.3912 0-4.7598 2.5908-4.7598 3.332 0 0.12375 0.0757 0.26953 0.2207 0.26953 0.125 0 0.24781-0.12164 0.32031-0.24414 0.71625-1.1612 1.9537-2.0234 2.2949-2.0234 0.1 0 0.24804 0.06984 0.24804 0.24609 0 0.24375-1.6284 4.1207-1.8984 4.9082-0.17374 0.47-0.98828 2.7377-0.98828 3.8477 0 0.1475 0.00024 1.2852 1.209 1.2852 3.5512 0 7.375-5.8737 7.375-5.9199l0.0488 0.04492c-0.54125 1.6312-1.4043 4.2189-1.4043 4.9102 0 0.76625 0.64016 0.96484 0.91016 0.96484 2.0012 0 5.0098-2.8128 5.0098-3.8516 0-0.17-0.17234-0.24609-0.24609-0.24609-0.0512 0-0.12274 0.02391-0.27149 0.22266-1.3062 1.8525-2.3676 2.2187-2.5176 2.2187-0.17124 0-0.24414-0.1689-0.24414-0.3164 0-1.4588 2.959-8.8835 2.959-9.3535 0-0.24625-0.24703-0.29492-0.39453-0.29492l-1.4805 0.07227c-0.51875 0.025-0.61867 0.37305-0.76367 0.8418-0.81625 2.6875-1.3837 3.5269-2.0762 4.5156-1.87 2.64-4.0923 4.6855-5.1523 4.6855-0.17375 0-0.46875-0.0509-0.46875-0.44336 0-0.88875 2.9844-7.8721 2.9844-8.8809 0-0.56875-0.34532-0.79102-0.91407-0.79102zm60.059 0c-1.85 0-4.2188 3.3325-4.2188 3.875 0 0.195 0.17234 0.26758 0.24609 0.26758 0.1975 0 0.49391-0.48961 0.69141-0.78711 0.565-0.86375 1.4548-1.7988 1.7773-1.7988 0.24625 0 0.24609 0.31703 0.24609 0.39453 0 1.1338-2.5918 8.6319-2.5918 9.002 0 0.34374 0.1 0.34374 1.0625 0.34374 0.565 0 0.9107-0.00031 1.0332-0.19531 0.2725-0.42 3.7756-9.3965 5.3281-9.3965 0.1 0 0.24804 0.07344 0.24804 0.36719l-0.0254 0.41992c0 0.64125 0.61781 0.79102 0.91407 0.79102 0.985 0 1.3808-1.2116 1.3808-1.9004 0-0.94-0.61625-1.3828-1.2812-1.3828-1.9525 0-4.0466 4.1436-4.1953 4.4648l-0.71679 1.4805c-0.12375 0.27125-0.34649 0.71594-0.49024 1.0859l-0.0527-0.04883c0.24875-0.6675 1.5078-4.4413 1.5078-5.6738 0-0.9875-0.32078-1.3086-0.86328-1.3086zm11.379 0c-2.9862 0-4.5644 2.148-4.5644 3.5293 0 0.83625 0.61805 1.6774 1.998 3.1074 1.3088 1.3062 1.75 1.849 1.75 2.6152 0 0.66374-0.49305 1.6523-1.4043 1.6523-0.44625 0-1.0088-0.19821-1.9238-1.4082-0.765-1.01-1.0885-1.4258-1.6035-1.4258-0.59375 0-0.83985 0.96047-0.83985 1.3555 0 2.1225 3.0624 2.1699 3.5274 2.1699 2.5425 0 4.6387-1.6304 4.6387-3.4316 0-0.985-0.54125-1.6509-1.4062-2.5371-1.9975-2.0262-2.7383-2.9627-2.7383-3.7539 0-0.91125 0.96351-1.0098 1.1348-1.0098 1.135 0 1.9738 0.83992 2.3438 1.2324 0.37125 0.37125 0.79016 0.81641 1.2852 0.81641 0.6175 0 0.78711-1.0878 0.78711-1.5078 0-0.88625-1.3069-1.4043-2.9844-1.4043zm22.391 0c-2.3425 0-3.873 3.2815-3.873 3.6777 0 0.26875 0.17055 0.31836 0.24805 0.31836 0.145 0 0.24312-0.12039 0.29687-0.24414 0.7875-1.3838 1.3562-2.4199 2.0449-2.4199 1.1112 0 1.1113 4.4656 1.1113 4.9844 0 4.5638-0.56922 6.3393-1.1367 7.498-0.66376 1.3588-1.727 2.0215-2.3945 2.0215-0.24375 0-0.39156-0.0711-0.66406-0.3711-0.5175-0.515-0.86351-0.88476-1.4785-0.88476-0.47 0-1.1367 0.2957-1.1367 1.0332 0 0.6425 0.57 1.3106 1.875 1.3106 1.5275 0 2.8134-0.17406 7.9922-6.5391 3.4312-4.1938 5.0606-6.9301 5.0606-8.8301 0-0.71625-0.22492-1.5547-1.1387-1.5547-0.86125 0-1.2305 0.86453-1.2305 1.457 0 0.2225 0.0233 0.39305 0.26953 1.0605 0.17375 0.44375 0.24805 0.73977 0.24805 1.1348 0 2.0225-2.8145 5.3284-4.2695 7.0547h-0.0488c0.14875-1.0838 0.37109-2.8346 0.37109-5.0059 0-5.2812-1.1115-5.7012-2.1465-5.7012zm-254.24 0.542c1.7275 0 2.1465 1.5298 2.1465 2.7148 0 1.8012-0.88852 4.6366-2.541 6.5879-0.29625 0.31875-1.061 1.207-2.541 1.207-1.7275 0-2.0703-1.6285-2.0703-2.666 0-2.8375 1.7996-7.8438 5.0059-7.8438zm211.98 0c1.1825 0 1.1816 1.1603 1.1816 1.3828 0 3.305-3.6015 3.9712-5.3027 4.1699 0.58875-2.8138 2.2948-5.5527 4.1211-5.5527zm-122.12 0.02539c1.2088 0 2.666 0.22094 2.666 2.3672 0 2.0725-1.8744 8.0684-5.502 8.0684-0.93625 0-1.627-0.49454-1.627-1.207 0-0.14875 0.0709-0.66882 0.31836-1.3613l2.6406-7.7441c0.4425-0.05 0.91266-0.12305 1.5039-0.12305zm29.65 0.76562c1.0125 0 1.3047 0.98422 1.3047 1.8242 0 2.69-2.9072 7.7715-6.3359 7.7715-0.1975 0-1.3809-0.0749-1.3809-1.3574 0-2.445 3.8721-8.2383 6.4121-8.2383z" fill-rule="evenodd" transform="matrix(.8 0 0 -.8 226.33 512.8)" fill="#ce1126"/><path d="m194.3 0.88477c-5.5575 0-10.582 3.7502-10.582 9.8027 0 6.5412 3.7505 8.4463 9.168 10.33 3.535 1.3862 7.9316 1.982 7.9316 6.9883 0 2.48-1.4859 6.4902-7.3809 6.4902-6.0625 0-7.9461-4.4605-8.5586-9.7168h-2.082v10.932h1.1348l1.6562-2c2.4038 1.6338 5.1809 2.5254 8.0547 2.5254 6.0275 0 11.709-2.5589 11.709-9.5977 0-6.6425-5.7744-9.0434-10.908-10.68-3.2962-1.0412-6.4727-2.0827-6.4727-6.3965 0-4.5125 2.6946-6.8301 6.9434-6.8301 1.94 0 3.915 0.80195 5.2812 2.4395 1.6475 1.93 2.0891 5.0157 2.5566 7.4707h1.4062v-10.387h-0.99609l-1.2793 1.4551c-1.9788-1.8838-4.9445-2.8262-7.582-2.8262zm-192 0.28123v1.6426c2.59 0 3.8496 0.24664 3.8496 2.7754v25.705c0 2.5288-1.2596 2.7773-3.8496 2.7773v1.6465h12.801v-1.6465c-2.685 0-4.0117-0.24859-4.0117-2.7773v-25.705c0-2.5288 1.3267-2.7754 4.0117-2.7754v-1.6426h-12.801zm204.36 8.0625-1.4688 7.0195 0.72265 0.39258c1.085-1.3625 1.7195-2.7757 2.7695-4.0645 0.805-0.9975 1.2219-1.0117 2.5156-1.0117h5.3066v20.707c0 1.585-0.50367 1.955-2.9199 2.0625v1.377h10.312v-1.377c-2.5588-0.1075-2.9883-0.4775-2.9883-2.0625v-20.707h5.2715c1.2962 0 1.7131 0.01422 2.5156 1.0117 1.0525 1.2888 1.683 2.7028 2.5605 4.1016l0.75586-0.38867-1.2949-7.0605c-0.91875 0.2775-2.1962 0.72656-3.3125 0.72656h-17.434c-1.1162 0-2.3938-0.44906-3.3125-0.72656zm43.693 0-1.4707 7.0195 0.72266 0.39258c1.085-1.3625 1.7176-2.7757 2.7676-4.0645 0.80625-0.9975 1.2238-1.0117 2.5176-1.0117h5.3066v20.707c0 1.585-0.50297 1.955-2.918 2.0625v1.377h10.311v-1.377c-2.555-0.1075-2.9844-0.4775-2.9844-2.0625v-20.707h5.2676c1.2962 0 1.7131 0.01422 2.5156 1.0117 1.05 1.2888 1.683 2.7028 2.5606 4.1016l0.75586-0.38867-1.293-7.0605c-0.92 0.2775-2.197 0.72656-3.3144 0.72656h-17.43c-1.1175 0-2.397-0.44906-3.3144-0.72656zm-9.375 0.025391c-0.83875 1.0687-1.9785 2.3417-3.1348 3.043l0.39453 1.1035-7.1426 19.467c-0.35 0.995-1.3555 1.3918-2.373 1.4668v1.3789h7.041v-1.3438c-0.97-0.04625-2.502 0.11859-2.502-1.3164 0-0.96125 1.9957-5.6008 2.3457-6.9258h7.4297c0.45375 1.6212 2.332 5.8668 2.332 6.9355 0 1.4725-1.6726 1.3066-2.7227 1.3066v1.3438h9.6719v-1.3438c-1.89-0.29625-2.2756-0.89008-3.0469-2.9863l-8.3-22.129zm-118.72 0.5098c-4.7288 0.065-12.236 3.0733-12.236 13.332 0 4.5338 2.4353 12.938 12.352 12.938 9.9175 0 12.121-8.4038 12.121-12.938 0-10.259-7.5088-13.267-12.236-13.332zm39.953 0.011719c-4.3462 0-7.8828 2.9125-7.8828 7.4063 0 4.865 2.5418 6.1522 6.7793 7.5547 2.765 1.0312 6.0527 1.4721 6.0527 5.1934 0 1.8437-0.93078 4.5742-5.832 4.5742-4.9112 0-6.0154-3.168-6.4941-7.0742h-1.582v8.1035h0.87891l1.2637-1.3652c1.88 1.2175 4.0565 1.877 6.3027 1.877 4.715 0 8.7695-2.0253 8.7695-7.2578 0-4.935-4.1295-6.5923-8.1445-7.8086-2.5788-0.775-4.9102-1.5477-4.9102-4.7539 0-3.3538 2.0189-4.9375 5.0664-4.9375 1.4788 0 3.3304 0.70367 4.4004 1.9199 1.2875 1.4362 1.6968 3.7334 2.0293 5.5996h1.1602v-7.8887h-0.95508l-0.96875 0.95898c-1.5488-1.4-3.8698-2.1016-5.9336-2.1016zm-142.62 0.17969v1.375c1.435 0 2.4609 0.185 2.4609 2.0625v18.879c0 1.8775-0.60625 2.0625-2.5312 2.0625v1.3789h20.191l2.0273-8.3828-0.90039-0.4043c-0.77 1.4388-1.6108 2.7702-2.5195 4.0977-1.05 1.545-1.865 2.4852-3.7188 2.8164-1.4362 0.25875-2.9048 0.25976-4.3398 0.25976-3.3962 0-3.9023-0.0707-3.9023-2.9082v-17.428c0-1.8075 0.74375-2.4336 3.125-2.4336v-1.375h-9.8926zm22.613 0v1.375c1.4338 0 2.459 0.185 2.459 2.0625v18.879c0 1.8775-0.605 2.0625-2.5312 2.0625v1.3789h20.193l2.0273-8.3828-0.90234-0.4043c-0.77 1.4388-1.6088 2.7702-2.5176 4.0977-1.0525 1.545-1.8657 2.4852-3.7207 2.8164-1.435 0.25875-2.9036 0.25976-4.3398 0.25976-3.3962 0-3.9023-0.0707-3.9023-2.9082v-17.428c0-1.8075 0.745-2.4336 3.125-2.4336v-1.375h-9.8906zm22.504 0v1.375c1.9262 0 2.9844 0.185 2.9844 2.0625v18.879c0 1.8775-1.0581 2.0625-2.9844 2.0625v1.3789h10.311v-1.3789c-1.995 0-3.0215-0.185-3.0215-2.0625v-18.879c0-1.8775 1.0265-2.0625 3.0215-2.0625v-1.375h-10.311zm15.281 0v1.2754c1.3412 0.04125 1.3487 0.23859 2.375 1.4023l-0.002 19.639c-0.13875 1.8775-0.86297 1.8762-2.543 2.0625v1.3789h7.7832v-1.3789c-2.3462-0.075-2.9531-0.80875-2.9531-2.0625v-16.596l17.633 20.332h1.9648v-22.357c0-1.2138 0.20219-1.9128 2.6172-2.3203v-1.375h-7.4785v1.375c2.1337 0.22125 2.5449 0.47812 2.5449 2.3594v15.033l-16.09-18.768h-5.8516zm58.369 0v1.375c1.9238 0 2.9824 0.185 2.9824 2.0625v18.879c0 1.8775-1.0587 2.0625-2.9824 2.0625v1.3789h10.311v-1.3789c-1.995 0-3.0234-0.185-3.0234-2.0625v-18.879c0-1.8775 1.0284-2.0625 3.0234-2.0625v-1.375h-10.311zm139.82 0v1.375c1.5738 0 2.5664 0.185 2.5664 2.0625v18.879c0 1.7012-0.78164 2.0625-2.4629 2.0625v1.3789h19.211l1.3984-6.7637-0.76367-0.28516c-0.9075 1.5475-1.7913 2.547-3.0176 3.8008-1.3988 1.4362-2.3443 1.4688-4.0606 1.4688h-3.918c-1.295 0-1.9805-0.14914-1.9805-1.8066v-8.4414h1.9453c3.395 0 4.6338 0.53195 4.9863 4.6582h1.0273v-10.949h-1.0273c-0.80625 4.1638-1.9077 4.2216-5.4414 4.2578h-1.4902v-9.9199h4.8867c1.9938 0 3.7782 0.2875 5.5644 2.7188 0.55875 0.7375 0.9157 1.0755 1.4082 1.8867l0.90235-0.28711-1.7148-6.0957h-18.02zm-155.73 1.4709c4.0225 0 7.0117 3.9088 7.0117 11.969 0 5.025-2.5046 10.752-7.0684 10.971-4.6125-0.17875-7.334-5.9182-7.334-10.971 0-8.06 3.3694-11.969 7.3906-11.969zm116.83 4.5547 3.1211 8.2109h-6.0918l2.9707-8.2109zm-48.006 32.545-1.3848 7.0391 0.79687 0.44141c1.0175-1.3562 1.5894-2.4849 2.5781-3.7637 0.75625-0.98875 1.1772-1.0352 2.3984-1.0352h4.9492v20.037c0 1.5725-0.72695 1.9395-3.002 2.0508v1.7266h10.4v-1.7266c-2.4038-0.11125-3.0625-0.47828-3.0625-2.0508v-20.037h4.8223c1.2213 0 1.6404 0.04641 2.4004 1.0352 0.99 1.2787 1.5553 2.4069 2.3828 3.7969l0.82617-0.4375-1.2188-7.0762c-0.7575 0.24125-2.0626 0.76562-3.2363 0.76562h-16.416c-1.1725 0-2.4769-0.52438-3.2344-0.76562zm-28.855 0.16016c-4.1888 0-8.0664 2.953-8.0664 7.5117 0 4.935 2.9188 6.2446 7 7.6621 2.6662 1.05 5.9297 1.4952 5.9297 5.2715 0 1.8662-0.99484 4.25-5.7148 4.25-4.0662 0-6.0856-2.8909-6.5469-6.8496h-1.1328v8.5117h0.84766l1.1152-1.6191c1.8112 1.235 3.9066 1.9102 6.0703 1.9102 4.545 0 8.918-2.0551 8.918-7.3613 0-5.01-4.445-6.6888-8.3125-7.9238-2.4862-0.785-4.832-1.5692-4.832-4.8242 0-3.4 2.098-4.5801 5.1856-4.5801 1.0988 0 2.7862 0.21031 3.8125 1.4453 1.2412 1.455 1.6822 4.0141 2.1797 5.8828h1.0117v-8.3633h-0.8711l-0.8789 1.2109c-1.4912-1.4212-3.7261-2.1348-5.7148-2.1348zm-25.006 0.46094c-3.2025 0-6.6316 0.14453-9.7266 0.14453v1.4551c1.6 0 2.2051 0.18453 2.2051 2.0508v18.627c0.0925 1.6238-0.38445 2.0527-2.3457 2.0527v1.5449h9.2773v-1.5449c-2.1238 0-2.6406-0.42898-2.6406-2.0527v-7.1426c1.585-0.1575 2.5138-0.30109 3.5938 0.91016 2.0412 2.22 4.6459 7.1251 6.1484 9.8301h6.416v-1.5449c-1.6 0-2.7116-0.3893-3.3379-1.7793-1.4812-3.2262-3.8712-6.4056-5.9512-8.7344 3.235-1.1362 5.4629-2.2451 5.4629-6.7051 0-5.1975-4.9253-7.1113-9.1016-7.1113zm-135.35 0.14453v1.5508c2.2612 0.10875 2.3711 0.40141 2.3711 2.8164v12.965c0 4.9062 2.601 8.9141 9.666 8.9141 7.27 0 9.6191-4.2264 9.6191-9.3164v-12.562c0-2.0512 1.0202-2.8164 2.8652-2.8164v-1.5508h-8.4316v1.5508c2.4012 0.145 3.0703 0.29016 3.0703 2.8164v12.289c0 4.2862-1.003 7.7207-6.7793 7.7207-5.045 0-5.6738-3.6081-5.6738-6.3281v-13.682c0-1.9775 0.26891-2.8564 2.8789-2.8164v-1.5508h-9.5859zm28.529 0v1.3223c1.2562 0.035 1.5861 0.64594 2.5273 1.7109l0.0078 19.098c-0.13875 1.8712-1.0356 1.8722-2.7031 2.0547v1.543h8.207v-1.543c-2.3312-0.07125-2.9707-0.80719-2.9707-2.0547v-16.613l17.395 20.51h1.8027v-22.352c0-1.2138 0.44766-1.7225 2.8477-2.125v-1.5508h-8.3594v1.5508c2.1225 0.22 3.0156 0.2907 3.0156 2.1582v14.945l-16.078-18.654h-5.6914zm44.475 0v1.5508c0.6625 0 0.9918 0.09609 1.373 0.62109 0.84625 1.17 1.2409 2.013 2.0059 4.0293l7.7129 20.045h1.3672l7.377-20.52c0.56-1.5788 1.3384-3.9878 3.2871-4.1328v-1.5938h-2.8594-4.5098v1.5938c0.97625 0.03625 2.6074-0.19141 2.6074 1.3086 0 0.73875-0.48844 2.0891-1.1484 3.8828l-4.339 11.986-5.389-13.847c-0.07-0.2225-0.67188-1.5452-0.67188-2.0215 0-1.4875 1.7889-1.0112 2.6602-1.125v-1.7773h-9.4707zm141.31 0v1.3652c1.6725 0 2.3252 1.5823 3.1289 2.916l5.6738 9.8633v7.9863c0 1.8712-1.2556 2.0547-2.5781 2.0547v1.543h9.584v-1.4961c-1.4612 0-2.7148-0.23031-2.7148-2.1016l0.006-8.3535 6.502-10.633c0.6425-1.0588 1.1045-1.3188 2.2695-1.5938v-1.5508h-6.8965v1.5508c0.8375 0.07125 1.3105-0.03063 1.3105 1.2969 0 1.835-4.3887 8.2031-4.3887 8.2031l-2.0273-3.6035c-0.385-0.7325-2.6328-4.1013-2.6328-4.5801 0-1.44 1.3924-1.3164 2.2637-1.3164v-1.5508h-9.5zm-154.26 0.002v1.5488c1.9138 0 2.9824 0.17812 2.9824 2.0469v18.535c0 1.8712-1.0687 1.8711-2.9824 1.8711v1.7266h10.375v-1.7266c-1.985 0-3.0547 0.000156-3.0547-1.8711v-18.535c0-1.8688 1.0697-2.0469 3.0547-2.0469v-1.5488h-10.375zm39.361 0v1.5488c1.5662 0 2.4512 0.42562 2.4512 2.0469v18.488c0 1.6275-0.90421 1.8223-2.5742 1.8223v1.8223h19.156l1.3926-6.7793-0.79882-0.33789c-0.8875 1.5762-2.3185 3.4443-2.8223 3.9043-1.0238 0.93375-2.4688 1.2539-4.1738 1.2539h-3.8984c-1.2862 0-1.9414-0.14617-1.9414-1.7949v-8.0566h1.9102c3.3712 0 4.7665 0.15031 5.1152 4.2578h0.92187v-10.549h-0.92187c-0.8 4.1412-2.0571 3.8453-5.5684 3.8828h-1.457v-9.5977h4.8301c1.9825 0 3.7588 0.17445 5.5312 2.5957 0.56 0.72875 0.85093 1.1332 1.3359 1.9395l0.96094-0.32422-1.7051-6.123h-17.744zm74.771 0v1.5488c1.9162 0 2.9844 0.17812 2.9844 2.0469v18.535c0 1.8712-1.0681 1.8711-2.9844 1.8711v1.7266h10.375v-1.7266c-1.9838 0-3.0527 0.000156-3.0527-1.8711v-18.535c0-1.8688 1.069-2.0469 3.0527-2.0469v-1.5488h-10.375zm-39.744 1.8613c3.655 0 5.9844 1.4782 5.9844 5.252 0 3.6162-1.9148 5.0617-5.4961 5.3555-1.045 0.0775-1.7682 0.01367-2.8145 0.01367v-8.75c0-1.9025 0.55368-1.8711 2.3262-1.8711z" transform="matrix(.8 0 0 -.8 226.33 512.8)"/></g></g></svg>
