<svg xmlns="http://www.w3.org/2000/svg" width="247" height="35.4" viewBox="0 0 247 35.4">
<g transform="matrix(1.3333 0 0 -1.3333 -350.15 81.134)">
  <path d="m277.28 59.923-2.2574-9.1063h-9.3808l-2.0433-8.2426c-0.46729-1.8832-0.0675-3.8257 1.0972-5.3299 1.1668-1.5066 2.9448-2.3709 4.8778-2.3709h58.347c3.5758 0 6.8008 2.5362 7.6667 6.0304l4.7141 19.019zm0.85877-1.0976h60.759l-4.3766-17.658c-0.74642-3.0108-3.5222-5.1967-6.601-5.1967h-58.347c-1.5908 0-3.0525 0.70971-4.0099 1.9457-0.95791 1.237-1.2857 2.8376-0.89978 4.3929l1.8364 7.4093h9.3808zm105.7-2.1097c-2.2483 0-3.2111-1.1627-3.2111-2.6731 0-1.3806 0.93463-2.2244 3.0923-2.6967 0.95714-0.20034 1.5118-0.29502 1.5118-0.85535 0-0.6609-0.79268-0.79043-1.5064-0.79043-0.75861 0-1.6309 0.20646-2.3045 0.62529l-1.0308-1.5577c0.75886-0.63135 1.9989-0.9852 3.4488-0.9852 2.1861 0 3.5338 0.84329 3.5338 2.7081 0 1.5693-1.1725 2.2422-3.2392 2.7141-0.90063 0.20656-1.3648 0.32448-1.3648 0.89674 0 0.50176 0.57172 0.69666 1.1834 0.69666 0.60025 0 1.3197-0.08274 2.1921-0.47798l1.0304 1.5577c-0.96284 0.6018-2.0501 0.83789-3.3356 0.83789zm41.899 0c-2.2484 0-3.2115-1.1627-3.2115-2.6731 0-1.3806 0.93463-2.2244 3.0923-2.6967 0.95687-0.20034 1.5122-0.29502 1.5122-0.85535 0-0.6609-0.79283-0.79043-1.5061-0.79043-0.75912 0-1.6311 0.20646-2.3052 0.62529l-1.0308-1.5577c0.75886-0.63135 1.9993-0.9852 3.4491-0.9852 2.1861 0 3.5338 0.84329 3.5338 2.7081 0 1.5693-1.1726 2.2422-3.2396 2.7141-0.90038 0.20656-1.3648 0.32448-1.3648 0.89674 0 0.50176 0.5721 0.69666 1.1838 0.69666 0.60025 0 1.3194-0.08274 2.1917-0.47798l1.0304 1.5577c-0.96283 0.6018-2.0497 0.83789-3.3352 0.83789zm8.4677 0c-2.9958 0-4.4286-2.0475-4.4286-4.4666s1.4328-4.4666 4.4286-4.4666c2.9961 0 4.4286 2.0475 4.4286 4.4666s-1.4326 4.4666-4.4286 4.4666zm-83.186-0.23614v-5.5699c0-0.75524-0.20386-1.2096-1.0418-1.2096-0.6005 0-0.91752 0.39499-1.1158 0.82574l-1.9708-0.55467c0.33407-1.1976 1.1613-2.1887 3.1997-2.1887 1.716 0 3.0695 0.91461 3.0695 3.1272v5.5699zm5.7251 0-3.3242-8.4609h2.3049l0.55543 1.4867h3.1822l0.55505-1.4867h2.3049l-3.3242 8.4609zm5.7931 0v-8.4609h2.1405v4.8618l1.8971-4.8618h1.5858l1.8971 4.8618v-4.8618h2.1405v8.4609h-2.8314l-1.9992-5.1393-1.9989 5.1393zm10.965 0v-8.4609h6.2916v1.9176h-4.1511v1.4396h3.8113v1.8174h-3.8113v1.3686h4.0608v1.9176zm18.14 0v-8.4609h2.1409v4.8618l1.8967-4.8618h1.5862l1.8971 4.8618v-4.8618h2.1409v8.4609h-2.8318l-1.9992-5.1393-1.9989 5.1393zm13.305 0-3.3246-8.4609h2.3052l0.55466 1.4867h3.183l0.55467-1.4867h2.3052l-3.3242 8.4609zm5.9085 0v-8.4609h3.5167c2.6223 0 4.1056 1.6695 4.1056 4.2305 0 2.5549-1.427 4.2305-4.1056 4.2305zm8.5027 0v-8.4609h2.1408v8.4609zm20.133 0v-8.4609h2.1405v5.1093l2.9563-5.1093h2.571v8.4609h-2.1405v-5.1097l-2.9563 5.1097zm-159.45-0.10364-3.396-13.698h-2.9066l1.1382 4.5911h-6.4746l-1.3557-5.47c-0.20553-0.82962-0.0306-1.6829 0.4795-2.3417 0.51031-0.65908 1.2897-1.0368 2.1374-1.0368h9.5847c1.9544 0 3.7168 1.3878 4.1906 3.2992l3.6333 14.656zm48.719 0-3.396-13.698h-2.9066l3.3933 13.688h-7.0311l-3.6101-14.567c-0.20579-0.82962-0.0312-1.6829 0.47912-2.3417 0.51031-0.65908 1.2893-1.0368 2.1371-1.0368h10.141c1.9544 0 3.7166 1.3878 4.1906 3.2992l3.6336 14.656zm-38.768-0.0099-4.4506-17.955h7.0311l2.5152 10.147 0.83561-10.147h5.1302l5.8964 10.199-2.5281-10.199h7.0308l4.4514 17.955h-10.912l-4.9905-8.9662-0.88952 8.9662zm144.22-1.568c1.5234 0 2.2312-1.2096 2.2312-2.549s-0.70778-2.549-2.2312-2.549-2.2312 1.2096-2.2312 2.549 0.70778 2.549 2.2312 2.549zm-21.209-0.23614h1.3762c1.3594 0 1.9085-1.0385 1.9085-2.3128 0-1.2746-0.54913-2.3128-1.9085-2.3128h-1.3762zm-55.125-0.79651 0.91192-2.4488h-1.8292zm48.203 0 0.91192-2.4488h-1.8295zm4.7035-10.14c-1.3967 0-1.9928-0.69478-1.9928-1.5091 0-0.81796 0.55525-1.4246 1.967-1.7278 0.85683-0.18453 1.1917-0.4607 1.1917-0.87927 0-0.54919-0.34232-0.75285-1.0387-0.75285-0.71921 0-1.1591 0.20729-1.1591 0.20729v0.56834h-1.0057v-1.052s0.71547-0.5915 2.1648-0.5915c1.1808 0 2.0524 0.4687 2.0524 1.6207 0 0.9561-0.67041 1.4899-2.0228 1.7817-0.76742 0.16898-1.1363 0.37232-1.1363 0.82536 0 0.44941 0.37614 0.64161 0.9795 0.64161 0.50306 0 0.90927-0.09643 0.90927-0.09643v-0.6139h1.0057v1.2323s-0.8158 0.34548-1.915 0.34548zm-52.471-0.115v-0.86788h0.59605v-2.2156c0-1.5745 0.71537-2.5383 2.336-2.5383 1.624 0 2.3394 0.96386 2.3394 2.5383v2.2156h0.59605v0.86788h-2.1982v-0.86788h0.59605v-2.2156c0-1.025-0.33136-1.6705-1.3333-1.6705-1.0022 0-1.3299 0.64543-1.3299 1.6705v2.2156h0.59605v0.86788zm9.4867 0v-0.86788h0.59643v-3.7707h-0.59643v-0.86788h2.1978v0.86788h-0.59605v3.1986l2.3956-4.0664h1.2813v4.6386h0.59606v0.86788h-2.1978v-0.86788h0.59605v-3.1989l-2.3952 4.0668zm9.4947 0v-0.86788h0.59567v-3.7707h-0.59567v-0.86788h2.1978v0.86788h-0.59643v3.7707h0.59643v0.86788zm5.5562 0v-0.86788h0.59187l1.8705-4.6386h0.8527l1.8702 4.6386h0.59264v0.86788h-2.1982v-0.86788h0.55884l-1.2517-3.2141-1.2479 3.2141h0.55885v0.86788zm9.0976 0v-0.86788h0.59605v-3.7707h-0.59605v-0.86788h4.7198v1.4628h-1.0057v-0.59491h-2.1124v1.5049h2.0752v0.86788h-2.0752v1.3979h2.0752v-0.59491h1.0057v1.4628zm8.2631 0v-0.86788h0.59605v-3.7707h-0.59605v-0.86788h2.1982v0.86788h-0.59605v1.1674h0.95369l1.1363-2.0353h1.2437v0.86788h-0.59947l-0.70387 1.2441c0.67048 0.19956 1.2289 0.68705 1.2289 1.6587 0 1.0634-0.62589 1.7358-2.0042 1.7358zm16.378 0v-0.86788h0.59605v-3.7707h-0.59605v-0.86788h2.1978v0.86788h-0.59605v3.7707h0.59605v0.86788zm5.8941 0v-1.4628h1.0061v0.59491h0.92749v-3.7707h-0.59606v-0.86788h2.1982v0.86788h-0.59643v3.7707h0.92787v-0.59491h1.0057v1.4628zm8.2688 0v-0.86788h0.55922l1.6724-2.5346v-1.2361h-0.59605v-0.86788h2.1978v0.86788h-0.59605v1.2323l1.6728 2.5383h0.55884v0.86788h-2.1982v-0.86788h0.55923l-1.0957-1.7088-1.0987 1.7088h0.56265v0.86788zm-28.939-0.86788h1.2551c0.70029 0 0.99089-0.26115 0.99089-0.86788 0-0.60673-0.2906-0.86788-0.99089-0.86788h-1.2551z" fill="#450084"/>
 </g>
</svg>