<?xml version="1.0" encoding="utf-8"?>
<!-- Generator: Adobe Illustrator 21.0.2, SVG Export Plug-In . SVG Version: 6.00 Build 0)  -->
<svg version="1.1" id="Layer_1" xmlns="http://www.w3.org/2000/svg" xmlns:xlink="http://www.w3.org/1999/xlink" x="0px" y="0px"
	 width="438.5px" height="134.5px" viewBox="0 0 438.5 134.5" enable-background="new 0 0 438.5 134.5" xml:space="preserve">
<g>
	<path fill="#003976" d="M12.1,62c0-12,0-14.2-0.2-16.6c-0.2-2.6-0.8-3.9-3.3-4.4C8,40.8,6.7,40.7,6,40.7c-0.3,0-0.6-0.2-0.6-0.5
		c0-0.5,0.4-0.6,1.2-0.6c3.5,0,8,0.2,8.5,0.2c0.7,0,5.2-0.2,7.5-0.2c0.8,0,1.2,0.2,1.2,0.6c0,0.3-0.3,0.5-0.6,0.5
		c-0.5,0-1,0.1-1.9,0.2c-2.1,0.4-2.7,1.7-2.9,4.4c-0.2,2.5-0.2,4.6-0.2,16.6v4.6h0.3c1.3-1.5,15.3-15.6,18-18.7
		c2.2-2.2,4.2-4.2,4.2-5.6c0-0.9-0.4-1.4-1-1.6c-0.4-0.2-0.7-0.3-0.7-0.6c0-0.4,0.4-0.5,0.9-0.5c1.5,0,3.9,0.2,5.8,0.2
		c0.4,0,5.5-0.2,7.4-0.2c0.8,0,1.2,0.2,1.2,0.5c0,0.4-0.2,0.5-0.8,0.5c-1.2,0-2.8,0.4-4.3,1.1c-3.2,1.4-4.9,3.3-8.3,6.6
		c-1.9,1.9-15.3,15-17,16.9c2,2.2,18,18.8,21.2,21.7c6.5,6,7.8,7.2,11.5,8.8c2,0.8,4.2,1,4.8,1s1,0.2,1,0.5c0,0.4-0.4,0.6-1.7,0.6
		h-3.9c-2.2,0-3.6,0-5.3-0.2c-4.1-0.4-6-2.1-9.3-4.7C38.7,90.2,22.4,72.5,18.7,68h-0.4v7.6c0,7.4,0,13.5,0.4,16.7
		c0.2,2.2,0.7,3.9,3,4.2c1.1,0.2,2.3,0.3,3,0.3c0.5,0,0.6,0.2,0.6,0.5c0,0.4-0.4,0.6-1.2,0.6c-3.8,0-8.2-0.2-8.9-0.2
		c-0.6,0-5.1,0.2-7.4,0.2c-0.8,0-1.2-0.2-1.2-0.6c0-0.2,0.2-0.5,0.6-0.5c0.7,0,1.6-0.2,2.3-0.3c1.5-0.3,1.9-2,2.2-4.2
		c0.4-3.2,0.4-9.3,0.4-16.7V62z"/>
	<path fill="#003976" d="M63.9,62c0-12,0-14.2-0.2-16.6c-0.2-2.6-0.8-3.9-3.3-4.4c-0.6-0.2-1.9-0.2-2.6-0.2c-0.3,0-0.6-0.2-0.6-0.5
		c0-0.5,0.4-0.6,1.2-0.6c1.8,0,3.9,0,5.5,0.1l3.2,0.2c0.5,0,21.6,0,23.3-0.1c1.5-0.1,2.7-0.2,3.3-0.4c0.4-0.1,0.7-0.4,1.1-0.4
		c0.2,0,0.3,0.3,0.3,0.7c0,0.5-0.4,1.5-0.6,3.6c-0.1,0.8-0.2,4.2-0.4,5.1c-0.1,0.4-0.2,0.8-0.5,0.8c-0.5,0-0.6-0.4-0.6-1
		c0-0.5-0.1-2.7-0.5-3.6c-0.5-1.2-2.1-1.3-6.3-1.8c-1.3-0.2-14.6-0.2-15.4-0.2c-0.3,0-0.5,0.2-0.5,0.8v21.3c0,0.5,0.1,0.8,0.5,0.8
		c1,0,16.2,0,17.9-0.2c1.9-0.2,2.9-0.3,3.6-1.1c0.5-0.6,0.8-1,1.2-1c0.2,0,0.4,0.2,0.4,0.6c0,0.5-0.4,1.8-0.6,4.3
		c-0.2,1.5-0.3,4.4-0.3,4.9c0,0.6,0,1.5-0.5,1.5c-0.4,0-0.5-0.3-0.5-0.7c0-0.8,0-1.5-0.3-2.5c-0.3-1.1-1.8-2.4-4.8-2.7
		c-2.1-0.2-14.6-0.4-15.9-0.4c-0.4,0-0.5,0.2-0.5,0.5v6.8c0,2.6-0.1,11.6,0,13.2c0.2,5.3,1.4,6.3,8.9,6.3c2,0,11.1,0,13.1-0.8
		c2-0.8,2.9-2.4,3.5-5.5c0.2-0.8,0.3-1.2,0.7-1.2c0.5,0,0.5,0.6,0.5,1.2c0,0.6-0.6,5.9-1,7.5c-0.5,2-1.2,2-4.2,2
		c-5.8,0-15.7-0.2-18.7-0.2c-3-0.2-4.9-0.2-6-0.2c-0.2,0-1.5,0-3.1,0.1c-1.5,0-3.3,0.2-4.5,0.2c-0.8,0-1.2-0.2-1.2-0.6
		c0-0.2,0.2-0.5,0.6-0.5c0.7,0,1.6-0.2,2.3-0.3c1.5-0.3,1.9-2,2.2-4.2c0.4-3.2,0.4-9.3,0.4-16.7V62z"/>
	<path fill="#003976" d="M396.5,62c0-12,0-14.2-0.2-16.6c-0.2-2.6-0.8-3.9-3.3-4.4c-0.6-0.2-1.9-0.2-2.6-0.2c-0.3,0-0.6-0.2-0.6-0.5
		c0-0.5,0.4-0.6,1.2-0.6c1.8,0,3.9,0,5.6,0.1l3.2,0.2c0.5,0,21.6,0,23.3-0.1c1.5-0.1,2.7-0.2,3.3-0.4c0.4-0.1,0.7-0.4,1.1-0.4
		c0.2,0,0.3,0.3,0.3,0.7c0,0.5-0.4,1.5-0.6,3.6c-0.1,0.8-0.2,4.2-0.4,5.1c-0.1,0.4-0.2,0.8-0.5,0.8c-0.5,0-0.6-0.4-0.6-1
		c0-0.5-0.1-1.9-0.5-2.8c-0.5-1.2-2.1-2.2-6.3-2.6c-1.3-0.2-14.6-0.2-15.4-0.2c-0.3,0-0.5,0.2-0.5,0.8v21.3c0,0.5,0.1,0.8,0.5,0.8
		c1,0,16.2,0,17.9-0.2c1.9-0.2,2.9-0.3,3.6-1.1c0.5-0.6,0.8-1,1.2-1c0.2,0,0.4,0.2,0.4,0.6c0,0.5-0.4,1.8-0.6,4.3
		c-0.2,1.5-0.3,4.4-0.3,4.9c0,0.6,0,1.5-0.5,1.5c-0.4,0-0.5-0.3-0.5-0.7c0-0.8,0-1.5-0.3-2.5c-0.3-1.1-1.8-2.4-4.8-2.7
		c-2.1-0.2-14.6-0.4-15.9-0.4c-0.4,0-0.5,0.2-0.5,0.5v6.8c0,2.6-0.1,11.6,0,13.2c0.2,5.3,1.4,6.3,8.9,6.3c2,0,11.1,0,13.1-0.8
		c2-0.8,2.9-2.4,3.5-5.5c0.2-0.8,0.3-1.2,0.7-1.2c0.5,0,0.5,0.6,0.5,1.2c0,0.6-0.6,5.9-1,7.5c-0.5,2-1.2,2-4.2,2
		c-5.8,0-15.7-0.2-18.7-0.2c-3-0.2-4.9-0.2-6-0.2c-0.2,0-1.5,0-3.1,0.1c-1.5,0-3.3,0.2-4.5,0.2c-0.8,0-1.2-0.2-1.2-0.6
		c0-0.2,0.2-0.5,0.6-0.5c0.7,0,1.6-0.2,2.3-0.3c1.5-0.3,1.9-2,2.2-4.2c0.4-3.2,0.4-9.3,0.4-16.7V62z"/>
	<path fill="#003976" d="M107,87.4c0.2,6.3,0.9,8.3,3,8.9c1.5,0.4,3.2,0.5,3.9,0.5c0.4,0,0.6,0.2,0.6,0.5c0,0.5-0.5,0.6-1.4,0.6
		c-4.4,0-7.5-0.2-8.2-0.2c-0.7,0-3.9,0.2-7.4,0.2c-0.8,0-1.2-0.1-1.2-0.6c0-0.3,0.2-0.5,0.6-0.5c0.6,0,2-0.1,3.2-0.5
		c1.9-0.5,2.3-2.8,2.3-9.8l0.1-44.2c0-3,0.2-3.9,0.8-3.9c0.6,0,1.9,1.7,2.7,2.5c1.2,1.3,12.6,13.7,24.5,26.4
		c7.6,8.2,16,17.6,18.5,20.1l-0.8-39.2c-0.1-5-0.6-6.7-3-7.3c-1.4-0.3-3.2-0.4-3.8-0.4c-0.5,0-0.6-0.2-0.6-0.5
		c0-0.5,0.6-0.5,1.5-0.5c3.5,0,7.2,0.2,8,0.2c0.8,0,3.4-0.2,6.6-0.2c0.8,0,1.4,0.1,1.4,0.5c0,0.3-0.3,0.5-0.8,0.5
		c-0.4,0-0.9,0-1.8,0.2c-2.5,0.5-2.9,2.2-2.9,6.9L152.5,93c0,5.1-0.2,5.5-0.7,5.5c-0.6,0-1.5-0.8-5.6-4.9
		c-0.8-0.8-11.9-12.1-20.1-20.9c-8.9-9.6-17.7-19.3-20.1-22.1L107,87.4z"/>
	<path fill="#003976" d="M185.7,75.5c0,7.4,0,13.5,0.4,16.7c0.2,2.2,0.7,3.9,3,4.2c1.1,0.2,2.8,0.3,3.5,0.3c0.5,0,0.6,0.2,0.6,0.5
		c0,0.4-0.4,0.6-1.2,0.6c-4.2,0-9.1-0.2-9.5-0.2c-0.4,0-5.2,0.2-7.6,0.2c-0.8,0-1.2-0.2-1.2-0.6c0-0.2,0.2-0.5,0.6-0.5
		c0.7,0,1.6-0.2,2.3-0.3c1.5-0.3,1.9-2,2.2-4.2c0.4-3.2,0.4-9.3,0.4-16.7V42.9l-11.4,0.2c-4.8,0.1-6.6,0.6-7.9,2.5
		c-0.8,1.3-1.1,1.9-1.3,2.4c-0.2,0.6-0.5,0.8-0.8,0.8c-0.2,0-0.4-0.2-0.4-0.7c0-0.8,1.5-7.4,1.7-8c0.2-0.5,0.5-1.5,0.8-1.5
		c0.5,0,1.3,0.8,3.4,0.9c2.2,0.2,5.2,0.4,6.1,0.4h28.9c2.5,0,4.2-0.2,5.5-0.4c1.2-0.2,1.9-0.4,2.2-0.4c0.4,0,0.4,0.5,0.4,0.9
		c0,2.3-0.2,7.6-0.2,8.5c0,0.7-0.2,1-0.5,1c-0.4,0-0.5-0.2-0.6-1.3l-0.1-0.8c-0.2-2.3-2.1-4.1-9.5-4.2l-9.7-0.2V75.5z"/>
	<path fill="#003976" d="M226.9,96.8c-1.3-0.6-1.4-0.9-1.4-3c0-4,0.4-7.1,0.5-8.4c0.1-0.9,0.3-1.3,0.7-1.3c0.5,0,0.6,0.2,0.6,0.9
		c0,0.7,0,1.8,0.3,2.9c1.4,5.9,7.4,8.1,13.4,8.1c8.7,0,13-5.5,13-10.5c0-5.5-2.6-9.4-10.4-15.1l-4.1-2.9c-9.6-6.9-11.8-11-11.8-16.4
		c0-8.5,7.3-14.3,18.8-14.3c3.5,0,6.2,0.3,8.4,0.8c1.7,0.3,1.5,0.1,2.2,0.1c0.7,0,0.9,0.2,0.9,0.6c0,0.4,0.9,3.5,1.8,8.7
		c0.2,1.2-0.2,1.8-0.6,1.8c-0.5,0-0.6-0.4-0.7-1c-0.1-0.9-1.8-3.4-2.4-4.3c-0.5-0.9-3-3.9-11.3-3.9c-6.3,0-11.2,3.4-11.2,9.2
		c0,4.5,2.4,6.6,11.1,12.5l2.5,1.7c10.7,7.4,13.3,13.1,13.3,19.4c0,3.2-1.5,9.3-7.7,13.1C248.8,98,243.9,99,239,99
		C234.8,99,230.6,98.4,226.9,96.8z"/>
	<path fill="#003976" d="M286,75.5c0,7.4,0,13.5,0.4,16.7c0.2,2.2,0.7,3.9,3,4.2c1.1,0.2,2.7,0.3,3.4,0.3c0.5,0,0.6,0.2,0.6,0.5
		c0,0.4-0.4,0.6-1.2,0.6c-4.2,0-8.9-0.2-9.3-0.2s-5.2,0.2-7.4,0.2c-0.8,0-1.2-0.2-1.2-0.6c0-0.2,0.2-0.5,0.6-0.5
		c0.7,0,1.6-0.2,2.3-0.3c1.5-0.3,1.9-2,2.2-4.2c0.4-3.2,0.4-9.3,0.4-16.7V42.9l-11.2,0.2c-4.7,0.1-6.1,0.6-7.3,2.5
		c-0.8,1.3-1.1,1.9-1.3,2.4c-0.2,0.6-0.5,0.8-0.8,0.8c-0.2,0-0.4-0.2-0.4-0.7c0-0.8,1.5-7.4,1.7-8c0.2-0.5,0.5-1.5,0.8-1.5
		c0.5,0,1.3,0.8,3.3,0.9c2.2,0.2,4.6,0.4,5.5,0.4h28.4c2.4,0,4.2-0.2,5.4-0.4c1.1-0.2,1.8-0.4,2.1-0.4c0.4,0,0.4,0.5,0.4,0.9
		c0,2.3-0.2,7.6-0.2,8.5c0,0.7-0.2,1-0.5,1c-0.4,0-0.5-0.2-0.6-1.3l-0.1-0.8c-0.2-2.3-2-4.1-9.3-4.2l-9.6-0.2V75.5z"/>
	<path fill="#003976" d="M320.6,41.5c1.1-2.5,1.4-3,2-3c0.5,0,0.9,0.4,2,2.8c1.3,2.9,15.3,34.8,20.7,46.5c3.2,6.9,5.8,8.1,7.6,8.6
		c1.3,0.4,2.7,0.5,3.5,0.5c0.5,0,0.9,0.1,0.9,0.5c0,0.5-0.8,0.6-1.8,0.6c-1.3,0-7.8,0-13.9-0.2c-1.7-0.1-2.7-0.1-2.7-0.5
		c0-0.3,0.3-0.5,0.6-0.5c0.5-0.2,1.1-0.8,0.5-2.1l-8.2-19c-0.2-0.3-0.4-0.5-0.8-0.5h-19.1c-0.4,0-0.7,0.2-0.9,0.6l-5.3,13.6
		c-0.8,1.9-1.2,3.8-1.2,5.2c0,1.5,1.9,2.2,3.4,2.2h0.9c0.6,0,0.9,0.2,0.9,0.5c0,0.5-0.5,0.6-1.3,0.6c-2.1,0-5.9-0.2-6.9-0.2
		c-1,0-5.9,0.2-10,0.2c-1.2,0-1.7-0.2-1.7-0.6c0-0.3,0.4-0.5,0.8-0.5c0.6,0,1.9-0.1,2.6-0.2c4.1-0.5,5.9-3.4,7.5-7.2L320.6,41.5z
		 M329.8,72.4c0.4,0,0.4-0.2,0.4-0.5L321.8,51c-0.4-1.2-0.9-1.2-1.3,0l-7.8,20.8c-0.2,0.4,0,0.5,0.3,0.5H329.8z"/>
	<path fill="#003976" d="M367.7,75.5c0,7.4,0,13.5,0.4,16.7c0.2,2.2,0.7,3.9,3,4.2c1.1,0.2,2.8,0.3,3.5,0.3c0.5,0,0.6,0.2,0.6,0.5
		c0,0.4-0.4,0.6-1.2,0.6c-4.2,0-9.1-0.2-9.5-0.2c-0.4,0-5.2,0.2-7.6,0.2c-0.8,0-1.2-0.2-1.2-0.6c0-0.2,0.2-0.5,0.6-0.5
		c0.7,0,1.6-0.2,2.3-0.3c1.5-0.3,1.9-2,2.2-4.2c0.4-3.2,0.4-9.3,0.4-16.7V42.9l-11.4,0.2c-4.8,0.1-6.6,0.6-7.9,2.5
		c-0.8,1.3-1.1,1.9-1.3,2.4c-0.2,0.6-0.5,0.8-0.8,0.8c-0.2,0-0.4-0.2-0.4-0.7c0-0.8,1.5-7.4,1.7-8c0.2-0.5,0.5-1.5,0.8-1.5
		c0.5,0,1.3,0.8,3.4,0.9c2.2,0.2,5.2,0.4,6.1,0.4h28.9c2.5,0,4.2-0.2,5.5-0.4c1.2-0.2,1.9-0.4,2.2-0.4c0.4,0,0.4,0.5,0.4,0.9
		c0,2.3-0.2,7.6-0.2,8.5c0,0.7-0.2,1-0.5,1c-0.4,0-0.5-0.2-0.6-1.3l-0.1-0.8c-0.2-2.3-2.1-4.1-9.5-4.2l-9.7-0.2V75.5z"/>
	<path fill="#003976" d="M39.1,117c0-3.9,0-4.6,0-5.3c0-0.8-0.2-1.2-1.1-1.4c-0.2,0-0.6-0.1-0.8-0.1c-0.1,0-0.2,0-0.2-0.1
		c0-0.1,0.1-0.2,0.4-0.2c1.1,0,2.6,0.1,2.8,0.1s1.7-0.1,2.4-0.1c0.3,0,0.4,0,0.4,0.2c0,0.1-0.1,0.1-0.2,0.1c-0.2,0-0.3,0-0.6,0.1
		c-0.7,0.1-0.9,0.5-0.9,1.4c0,0.8,0,1.5,0,5.3v3.5c0,3.6,0.8,5.1,1.9,6.1c1.2,1.1,2.3,1.4,3.7,1.4c1.5,0,3-0.7,3.9-1.8
		c1.1-1.4,1.4-3.5,1.4-6.1V117c0-3.9,0-4.6,0-5.3c0-0.8-0.2-1.2-1.1-1.4c-0.2,0-0.6-0.1-0.8-0.1c-0.1,0-0.2,0-0.2-0.1
		c0-0.1,0.1-0.2,0.4-0.2c1.1,0,2.5,0.1,2.6,0.1c0.2,0,1.3-0.1,2.1-0.1c0.3,0,0.4,0,0.4,0.2c0,0.1-0.1,0.1-0.2,0.1
		c-0.2,0-0.3,0-0.6,0.1c-0.7,0.1-0.9,0.5-0.9,1.4c0,0.8,0,1.5,0,5.3v2.6c0,2.7-0.3,5.6-2.3,7.4c-1.8,1.6-3.6,1.8-5.1,1.8
		c-0.8,0-3.3-0.1-5.1-1.8c-1.2-1.2-2.2-2.9-2.2-6.5V117z"/>
	<path fill="#003976" d="M83.7,125.2c0,2,0.3,2.7,1,2.9c0.5,0.1,1,0.1,1.2,0.1c0.1,0,0.2,0,0.2,0.1c0,0.1-0.1,0.2-0.4,0.2
		c-1.4,0-2.4-0.1-2.6-0.1c-0.2,0-1.3,0.1-2.4,0.1c-0.2,0-0.4,0-0.4-0.2c0-0.1,0.1-0.1,0.2-0.1c0.2,0,0.6,0,1-0.1
		c0.6-0.2,0.7-0.9,0.7-3.1l0-14.2c0-1,0.1-1.2,0.3-1.2c0.2,0,0.6,0.5,0.9,0.8c0.4,0.4,4.1,4.4,7.9,8.5c2.4,2.6,5.1,5.6,5.9,6.5
		l-0.3-12.6c0-1.6-0.2-2.2-1-2.4c-0.4-0.1-1-0.1-1.2-0.1c-0.2,0-0.2-0.1-0.2-0.2c0-0.1,0.2-0.2,0.5-0.2c1.1,0,2.3,0.1,2.6,0.1
		c0.3,0,1.1-0.1,2.1-0.1c0.3,0,0.4,0,0.4,0.2c0,0.1-0.1,0.2-0.3,0.2c-0.1,0-0.3,0-0.6,0.1c-0.8,0.2-0.9,0.7-0.9,2.2l0,14.5
		c0,1.6,0,1.8-0.2,1.8c-0.2,0-0.5-0.3-1.8-1.6c-0.3-0.2-3.8-3.9-6.5-6.7c-2.9-3.1-5.7-6.2-6.5-7.1L83.7,125.2z"/>
	<path fill="#003976" d="M130.4,121.3c0,2.4,0,4.3,0.1,5.4c0.1,0.7,0.2,1.3,1,1.4c0.3,0,0.9,0.1,1.1,0.1c0.1,0,0.2,0.1,0.2,0.1
		c0,0.1-0.1,0.2-0.4,0.2c-1.4,0-2.9-0.1-3-0.1c-0.1,0-1.7,0.1-2.4,0.1c-0.3,0-0.4,0-0.4-0.2c0-0.1,0-0.1,0.2-0.1
		c0.2,0,0.5,0,0.7-0.1c0.5-0.1,0.6-0.6,0.7-1.4c0.1-1,0.1-3,0.1-5.4V117c0-3.9,0-4.6,0-5.3c0-0.8-0.3-1.3-0.8-1.4
		c-0.3-0.1-0.6-0.1-0.8-0.1c-0.1,0-0.2,0-0.2-0.1c0-0.1,0.1-0.2,0.4-0.2c0.8,0,2.4,0.1,2.5,0.1c0.1,0,1.7-0.1,2.4-0.1
		c0.3,0,0.4,0,0.4,0.2c0,0.1-0.1,0.1-0.2,0.1c-0.2,0-0.3,0-0.6,0.1c-0.7,0.1-0.9,0.5-0.9,1.4c0,0.8,0,1.5,0,5.3V121.3z"/>
	<path fill="#003976" d="M166.6,125.5c1.4-3.3,4.8-12,5.3-13.7c0.1-0.4,0.2-0.7,0.2-0.9c0-0.2-0.1-0.4-0.3-0.6
		c-0.3-0.1-0.7-0.1-0.9-0.1c-0.1,0-0.3,0-0.3-0.1c0-0.1,0.1-0.2,0.5-0.2c1,0,2.1,0.1,2.4,0.1c0.1,0,1.2-0.1,1.9-0.1
		c0.3,0,0.4,0,0.4,0.2c0,0.1-0.1,0.2-0.3,0.2c-0.2,0-0.7,0-1.2,0.3c-0.3,0.2-0.7,0.6-1.4,2.3c-0.3,0.7-1.5,3.7-2.8,6.7
		c-1.5,3.6-2.6,6.3-3.2,7.5c-0.7,1.5-0.8,1.9-1,1.9c-0.3,0-0.4-0.3-0.9-1.5l-6.1-15.2c-0.5-1.4-0.9-1.7-1.8-1.9
		c-0.4-0.1-0.8-0.1-0.9-0.1c-0.1,0-0.2-0.1-0.2-0.2c0-0.1,0.2-0.2,0.6-0.2c1.2,0,2.6,0.1,2.9,0.1c0.2,0,1.4-0.1,2.3-0.1
		c0.4,0,0.7,0,0.7,0.2c0,0.1-0.1,0.2-0.2,0.2c-0.3,0-0.7,0-0.9,0.1c-0.3,0.1-0.3,0.3-0.3,0.5c0,0.3,0.3,1.1,0.7,2.1L166.6,125.5z"/>
	<path fill="#003976" d="M201.5,117c0-3.9,0-4.6,0-5.3c0-0.8-0.2-1.2-1.1-1.4c-0.2,0-0.6-0.1-0.8-0.1c-0.1,0-0.2,0-0.2-0.1
		c0-0.1,0.1-0.2,0.4-0.2c0.6,0,1.2,0,1.8,0l1,0c0.2,0,5.1,0,5.7,0c0.5,0,0.9-0.1,1.1-0.1c0.1,0,0.2-0.1,0.3-0.1
		c0.1,0,0.1,0.1,0.1,0.2c0,0.2-0.1,0.5-0.2,1.2c0,0.2-0.1,1.3-0.1,1.6c0,0.1-0.1,0.3-0.2,0.3c-0.1,0-0.2-0.1-0.2-0.3
		c0-0.2,0-0.6-0.1-0.9c-0.2-0.4-0.4-0.7-1.8-0.8c-0.4,0-3.1-0.1-3.4-0.1c-0.1,0-0.1,0.1-0.1,0.2v6.8c0,0.2,0,0.2,0.1,0.2
		c0.3,0,3.4,0,3.9,0c0.6,0,0.9-0.1,1.2-0.3c0.2-0.2,0.3-0.3,0.4-0.3c0.1,0,0.1,0,0.1,0.2c0,0.1-0.1,0.6-0.2,1.4
		c0,0.5-0.1,1.4-0.1,1.6c0,0.2,0,0.5-0.2,0.5c-0.1,0-0.2-0.1-0.2-0.2c0-0.2,0-0.5-0.1-0.8c-0.1-0.3-0.3-0.8-1.3-0.9
		c-0.7-0.1-3.1-0.1-3.5-0.1c-0.1,0-0.2,0.1-0.2,0.2v2.2c0,0.8,0,3.7,0,4.2c0.1,1.7,0.4,2,2.9,2c0.6,0,1.7,0,2.4-0.3
		c0.6-0.3,0.9-0.8,1.1-1.8c0-0.3,0.1-0.4,0.2-0.4c0.1,0,0.1,0.2,0.1,0.4c0,0.2-0.2,1.9-0.3,2.4c-0.2,0.6-0.4,0.6-1.3,0.6
		c-1.9,0-3.2,0-4.2-0.1c-1,0-1.6-0.1-1.9-0.1c0,0-0.5,0-1,0c-0.5,0-1.1,0-1.4,0c-0.3,0-0.4,0-0.4-0.2c0-0.1,0-0.1,0.2-0.1
		c0.2,0,0.5,0,0.7-0.1c0.5-0.1,0.6-0.6,0.7-1.4c0.1-1,0.1-3,0.1-5.4V117z"/>
	<path fill="#003976" d="M238.6,117c0-3.9,0-4.6,0-5.3c0-0.8-0.2-1.2-1.1-1.4c-0.2,0-0.6-0.1-0.8-0.1c-0.1,0-0.2,0-0.2-0.1
		c0-0.1,0.1-0.2,0.4-0.2c1.1,0,2.7,0.1,2.8,0.1c0.3,0,2.2-0.1,2.9-0.1c1.6,0,3.2,0.1,4.5,1.1c0.6,0.4,1.7,1.7,1.7,3.4
		c0,1.8-0.8,3.7-3,5.7c2,2.6,3.7,4.8,5.1,6.3c1.3,1.4,2.4,1.7,3,1.8c0.5,0.1,0.8,0.1,1,0.1c0.1,0,0.2,0.1,0.2,0.1
		c0,0.1-0.1,0.2-0.6,0.2h-1.8c-1.4,0-2-0.1-2.6-0.5c-1.1-0.6-1.9-1.8-3.3-3.6c-1-1.4-2.2-3-2.7-3.7c-0.1-0.1-0.2-0.1-0.3-0.1l-3,0
		c-0.1,0-0.2,0.1-0.2,0.2v0.6c0,2.4,0,4.3,0.1,5.4c0.1,0.7,0.2,1.3,1,1.4c0.3,0,0.9,0.1,1.1,0.1c0.1,0,0.2,0.1,0.2,0.1
		c0,0.1-0.1,0.2-0.4,0.2c-1.4,0-2.9-0.1-3-0.1c0,0-1.6,0.1-2.3,0.1c-0.3,0-0.4,0-0.4-0.2c0-0.1,0-0.1,0.2-0.1c0.2,0,0.5,0,0.7-0.1
		c0.5-0.1,0.6-0.6,0.7-1.4c0.1-1,0.1-3,0.1-5.4V117z M240.5,119.1c0,0.1,0,0.2,0.2,0.3c0.4,0.2,1.5,0.4,2.6,0.4
		c0.6,0,1.3-0.1,1.9-0.5c0.9-0.6,1.5-1.9,1.5-3.8c0-3.1-1.6-4.9-4.3-4.9c-0.7,0-1.4,0.1-1.7,0.1c-0.1,0-0.2,0.1-0.2,0.3V119.1z"/>
	<path fill="#003976" d="M277.5,128.2c-0.3-0.2-0.4-0.3-0.4-0.9c0-1.2,0.1-2.2,0.1-2.6c0-0.3,0.1-0.4,0.2-0.4c0.1,0,0.2,0.1,0.2,0.3
		c0,0.2,0,0.6,0.1,0.9c0.4,1.8,2,2.5,3.7,2.5c2.4,0,3.5-1.7,3.5-3.3c0-1.7-0.7-2.7-2.8-4.5l-1.1-0.9c-2.6-2.2-3.2-3.7-3.2-5.4
		c0-2.6,2-4.5,5.1-4.5c1,0,1.7,0.1,2.3,0.2c0.5,0.1,0.7,0.1,0.9,0.1c0.2,0,0.2,0,0.2,0.2c0,0.1-0.1,0.9-0.1,2.6c0,0.4,0,0.6-0.2,0.6
		c-0.1,0-0.2-0.1-0.2-0.3c0-0.3-0.2-1-0.3-1.2c-0.1-0.3-0.8-1.3-3.1-1.3c-1.7,0-3,1.1-3,2.9c0,1.4,0.6,2.3,3,4.2l0.7,0.5
		c2.9,2.3,3.6,3.8,3.6,5.8c0,1-0.4,2.9-2.1,4.1c-1.1,0.7-2.4,1-3.7,1C279.7,128.9,278.5,128.7,277.5,128.2z"/>
	<path fill="#003976" d="M317.3,121.3c0,2.4,0,4.3,0.1,5.4c0.1,0.7,0.2,1.3,1,1.4c0.3,0,0.9,0.1,1.1,0.1c0.1,0,0.2,0.1,0.2,0.1
		c0,0.1-0.1,0.2-0.4,0.2c-1.4,0-2.9-0.1-3-0.1c-0.1,0-1.7,0.1-2.4,0.1c-0.3,0-0.4,0-0.4-0.2c0-0.1,0-0.1,0.2-0.1
		c0.2,0,0.5,0,0.7-0.1c0.5-0.1,0.6-0.6,0.7-1.4c0.1-1,0.1-3,0.1-5.4V117c0-3.9,0-4.6,0-5.3c0-0.8-0.3-1.3-0.8-1.4
		c-0.3-0.1-0.6-0.1-0.8-0.1c-0.1,0-0.2,0-0.2-0.1c0-0.1,0.1-0.2,0.4-0.2c0.8,0,2.4,0.1,2.5,0.1c0.1,0,1.7-0.1,2.4-0.1
		c0.3,0,0.4,0,0.4,0.2c0,0.1-0.1,0.1-0.2,0.1c-0.2,0-0.3,0-0.6,0.1c-0.7,0.1-0.9,0.5-0.9,1.4c0,0.8,0,1.5,0,5.3V121.3z"/>
	<path fill="#003976" d="M353.3,121.3c0,2.4,0,4.3,0.1,5.4c0.1,0.7,0.2,1.3,1,1.4c0.3,0,0.9,0.1,1.1,0.1c0.1,0,0.2,0.1,0.2,0.1
		c0,0.1-0.1,0.2-0.4,0.2c-1.4,0-2.9-0.1-3-0.1c-0.1,0-1.7,0.1-2.4,0.1c-0.3,0-0.4,0-0.4-0.2c0-0.1,0-0.1,0.2-0.1
		c0.2,0,0.5,0,0.7-0.1c0.5-0.1,0.6-0.6,0.7-1.4c0.1-1,0.1-3,0.1-5.4v-10.5l-3.7,0c-1.5,0-2.1,0.2-2.5,0.8c-0.3,0.4-0.3,0.6-0.4,0.8
		c-0.1,0.2-0.1,0.2-0.2,0.2c-0.1,0-0.1-0.1-0.1-0.2c0-0.2,0.5-2.4,0.5-2.6c0-0.1,0.1-0.5,0.2-0.5c0.2,0,0.4,0.2,1.1,0.3
		c0.7,0.1,1.7,0.1,2,0.1h9.3c0.8,0,1.4,0,1.8-0.1c0.4,0,0.6-0.1,0.7-0.1c0.1,0,0.1,0.1,0.1,0.3c0,0.7-0.1,2.4-0.1,2.7
		c0,0.2-0.1,0.3-0.2,0.3c-0.1,0-0.2-0.1-0.2-0.4l0-0.3c-0.1-0.7-0.7-1.3-3-1.4l-3.1,0V121.3z"/>
	<path fill="#003976" d="M389.8,122.1c0-1.3-0.2-1.9-0.6-2.6c-0.2-0.4-3.5-5.8-4.4-7.1c-0.6-0.9-1.2-1.5-1.7-1.8
		c-0.4-0.2-0.8-0.4-1.1-0.4c-0.1,0-0.2,0-0.2-0.2c0-0.1,0.1-0.2,0.3-0.2c0.5,0,2.3,0.1,2.4,0.1c0.2,0,1.1-0.1,2.1-0.1
		c0.3,0,0.3,0.1,0.3,0.2c0,0.1-0.1,0.1-0.4,0.2c-0.2,0.1-0.3,0.2-0.3,0.4c0,0.3,0.1,0.6,0.3,1c0.4,0.7,4.1,7.1,4.6,7.8
		c0.5-1,3.6-6.5,4.1-7.3c0.3-0.5,0.4-0.9,0.4-1.3c0-0.3-0.1-0.6-0.4-0.7c-0.2-0.1-0.4-0.1-0.4-0.2c0-0.1,0.1-0.1,0.4-0.1
		c0.6,0,1.4,0.1,1.6,0.1c0.1,0,1.9-0.1,2.4-0.1c0.2,0,0.3,0,0.3,0.1c0,0.1-0.1,0.2-0.3,0.2c-0.3,0-0.7,0.1-1.1,0.3
		c-0.5,0.3-0.8,0.6-1.3,1.3c-0.8,1-4.3,6.8-4.7,7.9c-0.4,0.9-0.4,1.7-0.4,2.5v2.1c0,0.4,0,1.4,0.1,2.5c0,0.7,0.3,1.3,1,1.4
		c0.3,0,0.9,0.1,1.1,0.1c0.1,0,0.2,0.1,0.2,0.1c0,0.1-0.1,0.2-0.4,0.2c-1.4,0-2.9-0.1-3-0.1c-0.1,0-1.7,0.1-2.4,0.1
		c-0.3,0-0.4,0-0.4-0.2c0-0.1,0-0.1,0.2-0.1c0.2,0,0.5,0,0.7-0.1c0.5-0.1,0.7-0.6,0.8-1.4c0.1-1,0.1-2.1,0.1-2.5V122.1z"/>
	<path fill="#EEB310" d="M230.1,29.7c0,0,0.8-0.7,2.7-0.9c2.1-0.2,4-1.4,4.9-3.3c0.2-0.5,0.4-0.9,0.6-1.4c0.7-1.1,1.7-2.3,3.1-2.3
		c1.1-0.1,1.9,0.2,2.9-0.2c0.9-0.4,0.9-0.5,0.9-0.5s-0.5,0.2-1.5,0.2c-0.8,0.1-2-0.2-2.8-0.2c-0.7,0-2.3,0.3-3.3,1.2
		c-0.9,0.9-1.8,2.2-2.7,2.6c-0.8,0.3-1.7,0.6-2.5,0.5c-0.5,0-1-0.2-1.6-0.3c-0.9-0.2-1.8-0.1-2.7,0.1l10.5-13.5l-14.1,10.1
		c0,0,0-0.6,0.4-1.5c0.4-0.9,1.6-1.8,2.1-3.3c0.3-1.3,0.2-2-0.4-3.5c-0.5-1.3-0.6-2.3-0.4-3.1c0.2-0.9,0.7-1.8,1.2-2.3
		c0.9-0.8,1.1-1.3,1.2-2l0.2-0.6c0,0,0,0.3-0.7,1.1c-0.7,0.8-1.1,0.6-1.9,1.4c-0.9,0.8-1.5,1.7-1.7,2.9c-0.3,1.5,0.2,1.8,0.1,3.2
		c-0.1,1.3-0.4,1.7-1,2.5c-0.5,0.6-1.2,1.1-1.9,1.5c-0.7,0.4-1.3,1-1.7,1.9l-2.6-16.7L215,20c0,0-0.7-0.7-0.9-1.9
		c-0.1-0.7-0.1-2.6-1.3-3.8c-0.9-1-1.6-1.3-3.1-1.8c-0.9-0.4-2-1.3-2.4-2.4c-0.4-1-0.4-2.8-0.5-3.2c-0.2-0.7-0.7-1.4-0.7-1.4
		s0.3,0.8,0.3,1.6c0,0.8-0.4,2.1-0.3,2.8c0,0.7,0.2,1.8,1.4,2.9c1.3,1.2,1.8,1,2.5,2.6c0.8,1.5,0.6,2.3,0.4,3.2
		c-0.3,0.9-0.3,1.8-0.2,2.3c0.1,0.6,0.2,1,0.2,1l-14.1-10.1l10.4,13.5c0,0-1.4,0-2.1-0.6c-1-0.9-1.7-1.3-2.9-1.6
		c0,0-1.1-0.4-2.7,0.1c-1.6,0.5-1.3,0.4-2.3,0.6c-1.1,0.2-2.8-0.1-3.7-0.8c-0.8-0.7-1.5-1.3-2.2-1.5c-0.6-0.2-1.1-0.3-1.1-0.3
		s1,0.3,1.7,1.2c0.8,0.9,0.9,1.7,2,2.3c1.1,0.6,2.1,0.9,3.1,0.8c0.8,0,1.4-0.3,2.4-0.2c0.7,0.1,2,0.5,2.6,1.2
		c0.9,1.1,1.4,2.1,1.9,2.5c0.6,0.5,1.3,0.8,1.3,0.8l-17.4,2.9c0,0,24.4-1.1,30-1.1c5.6,0,30.4,1.1,30.4,1.1L230.1,29.7z"/>
	<g>
		<path fill="#003976" d="M432.9,92.9c1.4,0,2.6,1.1,2.6,2.6c0,1.5-1.2,2.6-2.6,2.6c-1.4,0-2.6-1.1-2.6-2.6
			C430.3,94,431.5,92.9,432.9,92.9z M432.9,97.9c1.3,0,2.4-1,2.4-2.4c0-1.4-1.1-2.4-2.4-2.4c-1.3,0-2.4,1-2.4,2.4
			C430.6,96.9,431.6,97.9,432.9,97.9z M433.6,97c-0.1-0.1-0.1-0.2-0.2-0.3l-0.1-0.4c-0.1-0.3-0.3-0.4-0.6-0.4h-0.2V97h-0.6V94h1.2
			c0.7,0,1.1,0.3,1.1,1c0,0.5-0.4,0.8-0.9,0.8c0.3,0,0.6,0.1,0.7,0.5l0.1,0.5c0,0.1,0.1,0.3,0.2,0.4H433.6z M432.4,95.4h0.4
			c0.5,0,0.7-0.2,0.7-0.5c0-0.3-0.2-0.5-0.6-0.5h-0.5V95.4z"/>
	</g>
</g>
</svg>
