<?xml version="1.0" encoding="utf-8"?>
<!-- Generator: Adobe Illustrator 22.0.1, SVG Export Plug-In . SVG Version: 6.00 Build 0)  -->
<svg version="1.1" id="Layer_1" xmlns="http://www.w3.org/2000/svg" xmlns:xlink="http://www.w3.org/1999/xlink" x="0px" y="0px"
	 width="250.1px" height="250.1px" viewBox="0 0 250.1 250.1" enable-background="new 0 0 250.1 250.1" xml:space="preserve">
<g>
	<path fill="#FFFFFF" d="M123.47,70.04c-0.08,0-0.15,0-0.23,0c-17.99,0.85-35.58,3-53.35,3.63v45.63c0,15.12,1.94,27.64,6.81,38.6
		c9.57,21.51,25.69,34.68,48.81,42.68c22.01-8.85,38.99-21.47,48.81-42.46c5.04-10.77,6.81-23.55,6.81-38.82V73.67
		C162.06,73.03,142.47,70.04,123.47,70.04z"/>
	<path fill="#643861" d="M134.49,11.33c-0.45,1.85-0.29,4.32-0.69,6.22h-1.38c-0.82-0.4-0.51-1.95-0.69-2.99
		c-14.07-10.64-19.05,19.82-1.84,17.27c1.8-0.27,3.29-2.01,4.84-1.38c-0.48,4.71-6.84,4.99-10.59,4.61
		c-8.86-0.91-15.51-13.96-7.6-21.87C119.97,9.74,128.94,8.29,134.49,11.33 M147.15,33.2c-2.67-4.96,0.79-15.43,5.3-16.58
		c12.23-3.1,7.61,16.9,2.3,19.11C151.63,37.04,148.22,35.18,147.15,33.2 M151.3,13.63c-6.78,0.83-10.74,7.16-10.59,14.28
		c0.16,7.64,7.99,11.79,14.51,11.05c6.63-0.75,11.1-8.08,10.82-14.73C165.74,17.25,158.96,12.69,151.3,13.63 M182.38,44.49
		c1.17-5.81,2.34-11.63,3.45-17.5c-2.36-1.56-4.48-3.35-6.91-4.84c-0.06,0.87-0.87,0.97-0.92,1.84c0.24,0.91,1.54,0.76,1.61,1.84
		c-3.31,5.59-7.05,10.76-11.05,15.66c-0.77-0.38-1.53-0.77-2.3-1.15c-0.29,0.71-0.78,1.21-1.15,1.84c2.5,1.34,4.41,3.27,6.91,4.6
		c0.06-0.87,0.87-0.97,0.92-1.84c-0.54-0.61-1.44-0.87-1.61-1.84c2.61-4.14,5.35-8.16,8.29-11.97c-1.38,6.22-2.32,12.88-3.91,18.88
		c0.46,0.23,0.98,0.4,1.15,0.92c5.54-3.06,11.23-7.19,16.58-9.67c-2.99,3.84-5.25,8.41-8.75,11.74c-0.69-0.39-1.24-0.91-2.07-1.15
		c-0.23,0.77-0.92,1.07-1.15,1.84c3.25,1.74,5.72,4.25,8.98,5.98c0.14-0.62,0.46-1.08,0.92-1.38c-0.11-1.11-1.34-1.11-1.61-2.07
		c3.26-5.64,6.94-10.86,11.05-15.66c1.18-0.1,1.26,0.89,2.3,0.92c0.29-0.71,0.78-1.21,1.15-1.84c-2.51-1.17-4.32-3.05-6.68-4.37
		C192.64,38.47,187.58,41.55,182.38,44.49 M206.1,61.75c6.7,4.04-4.67,12.64-7.14,5.53C201.3,65.4,203.77,63.65,206.1,61.75
		 M214.38,56c5,4.06-3.86,9.65-5.99,4.14C210.31,58.68,211.93,56.92,214.38,56 M211.62,65.44c3.76,2.99,9.41-0.15,8.75-4.61
		c-0.73-4.89-8.16-9.88-9.21-13.12c-0.31,0.77-1.35,0.8-1.61,1.61c0.56,0.51,1.11,1.04,1.15,2.07c-4.84,4.21-9.94,8.17-15.43,11.74
		c-1.1-0.48-1.7-0.44-2.53,0.23c2.99,3.45,6.97,13.44,15.2,10.82c2.81-0.9,5.77-5.42,3.45-8.75H211.62z M175.93,78.56
		c-22.68-0.84-45.52-4.72-67.23-2.07v19.34h17.27c2.49-4.19,6.06-8.52,10.13-10.36c-0.88,3.03-1.45,6.38-1.38,10.36h41.21V78.56
		 M96.04,149.93c2.3,4.15,4.63,8.27,8.98,10.36V99.51H75.09c-0.15,9.87,0,19.52,0,28.55c0,24.26,12.08,42.3,26.02,53.19
		c1.34,1.04,2.54,2.89,3.91,2.53v-15.2C99.47,165.08,96.75,157.52,96.04,149.93 M108.93,99.51c-0.27,0.04-0.25,0.36-0.23,0.69v61.24
		c13.42-0.03,7.95-13.91,7.37-24.41c-0.35-6.27,0.41-11.9,2.07-16.35c-1.29,14.52,13.62,21.63,11.28,36.61
		c-1.29,8.28-9.42,14.86-20.72,12.89v16.35c4.83,3.31,10.67,5.6,16.58,7.83c25.39-10.49,46.3-27.5,49.96-59.17
		c1.22-10.59,0.5-22.66,0.69-35.69h-41.21c0.82,15.89,9.91,28.74,11.05,44.67c1.07,14.9-8.85,21.88-17.96,27.4
		c5.53-5.97,10.21-12.97,9.44-23.02c-1.35-17.53-17.71-29.86-12.66-49.04H108.93 M17.53,113.56c-2.54,0.83-5.07,1.68-7.6,2.53
		c0.3,0.7,0.1,1.9,0.69,2.3c1.35-0.26,1.97-1.25,3.45-1.38c-0.14,3.7,0.29,7.96-0.23,11.28c-0.98,0.02-1.61,0.38-2.76,0.23v1.84
		c3.35-0.14,6.38-0.34,9.67,0v-1.84c-1.05-0.02-2.34,0.19-2.76-0.46c0.07-3.57-0.09-8.07,0-11.51
		C18.02,115.53,18.96,114,17.53,113.56 M237.87,113.56c-2.5,0.72-4.65,1.8-7.37,2.3c-0.1,1.09,0.11,1.88,0.46,2.53
		c1.3-0.31,2.06-1.17,3.45-1.38v11.05c-0.79,0.36-1.76,0.54-2.99,0.46v1.84c3.41-0.15,6.55-0.35,9.9,0v-1.61
		c-0.61-0.47-2.11-0.04-2.76-0.46c-0.22-2.59-0.37-5.76-0.23-8.75C238.43,117.46,239.3,114.88,237.87,113.56 M27.66,128.75
		c-2.31,0.21-4.22-4.18-1.61-5.3C28.86,122.26,31.32,128.43,27.66,128.75 M25.59,117.47c0.22-3.6,6.33-0.7,3.22,2.53
		C27.26,119.54,25.49,119.08,25.59,117.47 M24.21,122.31c-1.18,0.86-1.75,1.18-2.07,2.07c-3.13,8.78,14.17,8.22,10.59-1.38
		c-0.05-0.15-0.57-0.79-0.92-1.15c-1.82-1.87,0.12-1.26,0.46-3.45C33.69,109.23,15.96,115.4,24.21,122.31 M223.82,121.85
		c-2.03-0.13-2.56-4.83-0.92-5.76C225.64,114.55,227.19,122.05,223.82,121.85 M219.22,129.21c-0.22,1.15,0.93,0.91,1.15,1.61
		c5.6-0.83,9.37-3.53,9.21-10.36c-0.07-2.86-1.32-5.69-3.45-6.45c-4.79-1.7-8.91,2.57-7.6,7.83c0.7,2.81,4.88,3.42,6.91,2.07
		C225.04,127.36,222.63,128.78,219.22,129.21 M42.63,167.43c-1.27-3.41-3.37-5.99-4.61-9.44c-1.01-0.01-1.42,0.57-2.07,0.92
		c0.06,1.01,0.79,1.35,0.69,2.53c-3.86,3.12-11.39,4.77-14.96,8.29c-5.29,5.21,1.03,15.96,7.37,15.89
		c6.52-0.07,11.05-6.41,16.81-7.37c0.77,0.19,0.78,1.99,1.61,1.38c0.47-0.22,0.91-0.47,1.38-0.69c-0.96-2.58-2.67-4.39-3.45-7.14
		c-0.94,0.05-1.21,0.78-2.07,0.92c0.26,0.89,0.7,1.6,0.92,2.53c-1.94,1.24-4.51,2.74-7.14,4.14c-2.6,1.39-5.42,3.57-8.29,3.22
		c-2.79-0.34-5.35-4.17-4.37-7.37c0.65-2.12,4.84-3.96,6.91-5.06c3.01-1.61,5.35-2.65,8.06-3.91c0.95,0.2,0.62,1.68,1.61,1.84
		C41.59,167.93,41.92,167.49,42.63,167.43 M229.12,174.34c-8.36-2.07-10.92-9.95-15.2-16.12c-1.46,0.15-1.37,1.86-2.07,2.76
		c2.42,3.03,4.67,6.23,6.68,9.67c-4.65,0.23-9.87-1-12.89,1.15c-0.43,1.87-0.97,3.64-1.38,5.53c0.59,0.1,1.06,0.32,1.38,0.69
		c1.11,0.11,0.5-1.49,1.61-1.38c3.58-1.03,8.28-0.93,12.89-0.92c2.1,1.43,4.9,2.16,6.68,3.91c-0.11,0.96-0.8,1.34-0.92,2.3
		c0.85,0.14,1.35,0.65,2.07,0.92c1.32-3.51,3.38-6.29,4.83-9.67c-0.72-0.27-1.22-0.78-2.07-0.92
		C230.41,173.17,230.11,174.11,229.12,174.34 M206.56,183.78c-1.18-1.82-2.88-3.1-4.61-4.37c-4.45,5.06-9.18,9.85-13.35,15.2
		c1.55,1.36,3,2.83,4.84,3.91c0.29-0.48,0.67-0.87,1.15-1.15c-0.33-1.36-1.9-1.48-2.07-2.99c0.35-0.59,0.92-1.04,1.61-1.84
		c1.65-1.92,1.38-1.87,3.22-0.23c4.05,3.6,9.45,7.93,12.2,11.28c-0.3,0.93-1.19,1.27-1.38,2.3c1.62,1.63,1.92,0.61,3.22-0.92
		c1.83-2.15,4.53-4.67,5.53-6.22c-0.52-0.32-0.89-0.8-1.38-1.15c-1.1,0.21-1.24,1.37-2.3,1.61c-4.82-4.01-9.45-8.2-14.04-12.43
		c1.27-1.18,2.01-2.9,3.68-3.68c0.75,0.71,1.51,1.41,2.53,1.84C205.83,184.59,205.98,183.97,206.56,183.78 M55.52,186.31
		c-1.61-1.76-3.28-3.47-5.07-5.07c-0.23,0.61-0.93,0.76-1.38,1.15c0.06,1.24,1.32,1.29,1.38,2.53c-4.56,4.57-8.78,9.48-14.04,13.35
		c-0.87-1.76-2.63-1.8-3.22,0.23c2.4,0.48,5.08,7.65,7.14,4.37c0.04-1.26-1.21-1.25-1.38-2.3c3.12-3.56,6.88-7.7,10.36-10.13
		c-1.08,6.98-2.06,14.06-2.99,21.18c0.76,0.77,0.93,2.14,2.07,2.53c5.74-4.77,10.33-10.69,16.35-15.2c0.44,0.71,1.26,1.04,1.84,1.61
		c0.29-0.78,1.28-0.87,1.38-1.84c-2.34-1.42-3.74-3.78-5.76-5.53c-0.36,0.56-0.82,1.02-1.38,1.38c0.15,1.08,1.37,1.09,1.38,2.3
		c-2.95,3.27-6.62,7.04-9.67,9.44C53.31,199.46,54.43,192.9,55.52,186.31 M184.68,196.9c-2.52,2.39-5.7,4.12-8.29,6.45
		c0.47,0.45,0.76,1.09,1.15,1.61c0.9-0.17,1.25-0.9,2.07-1.15c4.28,4.78,8.1,10.01,11.51,15.66c-0.33,0.66-1.11,0.89-1.61,1.38
		c0.3,0.85,0.76,1.54,1.38,2.07c2.49-2.35,5.42-4.25,8.29-6.22c-0.21-0.87-0.64-1.51-1.38-1.84c-0.63,0.37-1.14,0.86-1.84,1.15
		c-4.25-4.81-8.01-10.1-11.51-15.66c0.26-0.9,1.45-0.85,1.61-1.84C185.57,198.01,185.35,197.24,184.68,196.9 M71.87,201.05
		c-0.17,0.9-0.9,1.25-1.15,2.07c0.66,0.49,1.7,0.61,1.84,1.61c-3.31,5.59-6.36,11.45-10.59,16.12c-0.81-0.19-1.07-0.93-2.07-0.92
		c-0.05,0.95-1.02,0.98-0.92,2.07c3.43,1.33,5.82,3.7,8.98,5.3c0.43-0.57,0.72-1.28,1.15-1.84c-0.78-0.44-1.57-0.89-2.07-1.61
		c3.6-5.38,6.41-11.55,10.82-16.12c0.72,0.27,1.22,0.78,2.07,0.92c0.03-0.97,0.89-1.1,0.92-2.07
		C77.55,205.04,74.76,202.99,71.87,201.05 M170.64,207.73c-5.44,0.39-11.45,2.71-11.74,8.29c-0.18,3.35,1.81,7.44,5.06,8.06
		c3.59,0.68,5.2-1.51,9.21-0.92c4.93,3.06-0.25,10.04-5.76,7.37c-0.77-0.92-1.07-2.31-1.84-3.22c-0.31,0.46-1.02,0.51-1.61,0.69
		c0.12,1.83,1.74,4.08,2.07,6.45c7.02,0.28,12.56-3.36,13.12-8.52c0.39-3.56-1.32-7.54-4.14-8.52c-3.63-1.25-6.02,1.84-9.67,1.15
		c-5.31-1.01-0.95-9.85,3.91-7.14c1.05,0.56,0.87,2.35,2.07,2.76c0.44-0.1,0.58-0.5,1.15-0.46
		C172.66,211.81,171.35,209.49,170.64,207.73 M83.84,209.11c-0.02,0.9-0.41,1.44-0.69,2.07c0.58,0.5,1.76,0.39,2.07,1.15
		c0.71,7.42,0.62,15.65,0.92,23.48c0.95,0.28,1.67,0.78,2.76,0.92c5.03-6.1,9.86-12.4,15.43-17.96c0.68,0.04,1.42,0.62,1.84,0.23
		c0.06-0.78,0.58-1.11,0.46-2.07c-2.72-0.66-5.02-1.74-7.6-2.53c-0.17,0.75-0.42,1.42-0.69,2.07c0.64,0.58,2.08,0.38,2.3,1.38
		c-2.85,3.98-6.37,8.51-9.44,11.51c-0.06-4.86-0.6-10.45,0-15.2c0.79,0.21,1.65,0.35,2.3,0.69c0.14-0.85,0.55-1.45,0.69-2.3
		C90.51,211.65,87.34,210.21,83.84,209.11 M147.61,227.76c3.98-2.05,4.62-10.3-0.23-11.51c-5.43-1.36-10.55,2.84-15.89,2.3
		c-0.18,0.95,0.35,1.18,0.23,2.07c0.91,0.09,2.21-0.21,2.76,0.23c1.22,6.15,2.46,12.27,3.22,18.88c-0.73,0.43-2.11,0.19-2.53,0.92
		c0.36,0.4,0.31,1.23,0.46,1.84c3.58-0.41,6.59-1.4,10.36-1.61c0.14-0.98-0.17-1.52-0.23-2.3c-1.1-0.18-1.48,0.36-2.53,0.23
		c-1.43-6.09-2.47-12.57-3.45-19.11c5.83-2.42,7.87,5.23,4.37,7.6c-0.84,0.57-1.87,0-2.53,1.15c2.98,4.01,6.37,7.59,9.44,11.51
		c1.87-0.58,4.12-0.8,6.22-1.15c-0.01-0.76-0.39-1.15-0.23-2.07C152.81,235.71,150.56,230.84,147.61,227.76 M109.39,219.47
		c1.11,0.04,2.2,0.1,2.53,0.92c-0.31,6.29-0.84,12.36-1.38,18.42c-0.39,1.06-2.32,0.6-1.84,2.53c5.12,0.56,11.13,1.45,16.35,1.15
		c0.34-2.04,0.59-4.17,0.92-6.22c-0.93,0.16-1.31-0.22-2.07-0.23c-0.28,1.25-0.29,2.78-1.15,3.45c-2.02,0.4-5.09,0.09-6.91-0.46
		c0.48-2.52,0.05-5.94,0.92-8.06c1.82,0.02,3.81-0.13,4.84,0.69v2.53c0.92-0.16,1.31,0.22,2.07,0.23c0.13-2.86,0.26-5.73,0.69-8.29
		h-2.07c-0.46,0.61-0.01,2.14-0.69,2.53c-1.3-0.54-3.89,0.21-4.84-0.69c0.19-2.58,0.06-5.47,0.92-7.37
		c2.19,0.26,4.87,0.04,6.22,1.15c0.02,0.94,0.05,1.89-0.23,2.53c0.93-0.16,1.31,0.22,2.07,0.23c0.06-2.09,0.99-4.28,0.69-5.99
		c-5.52-0.55-11.33-0.8-17.04-1.15V219.47z M101.8,13.4c-5.99-0.44-9.64,0.66-11.74,3.22c-2.08,2.53-2.4,10.76,2.99,11.97
		c2.32,0.52,5.49-0.84,8.52,0.23c0.85,0.3,2.44,2.56,1.61,4.84c-0.84,2.3-6.19,3.65-8.29,1.61c-0.89-0.87-0.51-2.41-1.61-3.45
		c-0.34,0.36-0.9,0.48-1.61,0.46c0.32,2.28,0.96,4.25,1.15,6.68c4.77,0.54,9.22,0.31,12.2-2.53c2.77-2.64,4-9.46,0.23-12.43
		c-3.24-2.57-14.08,2.06-12.43-5.07c0.62-2.67,5.3-3.45,7.37-2.07c0.26,1.12,0.41,2.36,1.15,2.99c0.35-0.34,1.01-0.37,1.61-0.46
		C102.64,17.32,102.32,15.26,101.8,13.4 M74.63,34.35c0.66,2.94,4.05,0.83,5.3-0.46c3.51-3.64,2.23-12.14-3.68-12.2
		c-2.74-0.03-5.28,2.23-7.37,3.45c-2.39,1.41-4.64,2.32-6.91,3.91c0.47,0.37,0.58,1.11,0.92,1.61c1.09,0.1,1.21-0.78,2.3-0.69
		c3.65,5.1,6.6,10.9,9.44,16.81c-0.48,0.75-1.51,0.94-2.07,1.61c0.65,0.42,0.67,1.48,1.38,1.84c2.89-2.02,6.2-3.63,9.44-5.3
		c-0.03-0.97-0.89-1.1-0.92-2.07c-1.11,0.2-1.65,0.96-2.76,1.15c-3.33-5.26-6.35-10.84-9.21-16.58
		C74.77,21.97,81.08,32.83,74.63,34.35 M57.36,34.82c-0.81-0.19-0.59-1.41-1.61-1.38c-2.46,2.53-5.32,4.65-8.06,6.91
		c0.67,0.33,0.89,1.11,1.38,1.61c0.97-0.26,1.37-1.09,2.3-1.38c4.16,4.9,8.63,9.48,12.2,14.97c-1.91,0.73-1.48,3.44,0,3.45
		c0.31,0,2.95-2.65,3.91-3.45c1.74-1.45,2.97-2.81,4.14-3.22c-0.37-0.79-0.77-1.53-1.61-1.84c-0.73,0.35-0.99,1.17-2.07,1.15
		c-4.3-4.68-8.43-9.53-12.2-14.74C56.12,36.03,57.18,35.86,57.36,34.82 M38.94,52.77c-0.94-0.13-0.92-1.23-2.07-1.15
		c0.08,1.82-6.64,6.83-6.45,8.29c0.13,0.99,0.55,0.21,1.15,0.69c1.43,1.14,1.3-0.88,2.76-1.15c4.93,4.12,10.38,7.73,14.73,12.43
		c-0.38,1.37-0.07,2.23,1.15,2.53c2.73-4.94,7.26-8.09,9.9-13.12c-1.73-1.42-3.05-3.25-4.83-4.6c-0.39,0.45-0.54,1.15-1.15,1.38
		c0.53,1.32,1.76,1.92,2.3,3.22c-1.24,2.06-2.51,4.09-4.37,5.53c-4.89-3.93-9.98-7.67-14.51-11.97
		C38.01,54.15,38.57,53.55,38.94,52.77 M181.92,72.8v46.28c0,15.49-1.79,28.45-6.91,39.37c-9.97,21.29-27.18,34.08-49.5,43.05
		c-23.45-8.11-39.8-21.47-49.5-43.29c-4.94-11.11-6.91-23.81-6.91-39.14V72.8c18.03-0.64,35.86-2.82,54.11-3.68
		c0.08,0,0.15,0,0.23,0C142.71,69.12,162.58,72.15,181.92,72.8z M179.62,74.88c-9.64-0.96-19.11-1.22-28.78-1.84
		c-9.59-0.62-19.41-2.08-29.24-1.61c-16.51,0.78-33.53,2.85-50.42,3.45c0.29,14.26,0.23,29.73,0.23,44.21
		c0,15.03,1.64,27.49,6.45,38.22c7.88,17.61,21.43,30.61,39.37,38.68c2.2,0.99,6.36,3.05,8.29,3c1.93-0.06,5.72-2.18,7.83-3.22
		c17.51-8.66,32.01-21.23,39.83-38.45c4.94-10.87,6.45-22.42,6.45-38.22C179.62,104.6,180.28,89.13,179.62,74.88z M105.02,76.72
		c-10.12,0.62-20.34,1.15-30.16,2.07V95.6c9.6,0.54,20.18,0.08,30.16,0.23V76.72 M126.01,41.59c46.02,0,83.46,37.44,83.46,83.46
		c0,46.02-37.44,83.46-83.46,83.46c-46.02,0-83.46-37.44-83.46-83.46C42.55,79.03,79.99,41.59,126.01,41.59 M126.01,211.39
		c47.61,0,86.34-38.73,86.34-86.34c0-47.61-38.73-86.34-86.34-86.34c-47.61,0-86.34,38.73-86.34,86.34
		C39.67,172.66,78.4,211.39,126.01,211.39 M125.05,2.93c67.34,0,122.12,54.78,122.12,122.12c0,67.34-54.78,122.12-122.12,122.12
		c-67.34,0-122.12-54.78-122.12-122.12C2.93,57.71,57.71,2.93,125.05,2.93 M125.05,250.05c68.92,0,125-56.08,125-125
		c0-68.93-56.08-125-125-125c-68.93,0-125,56.07-125,125C0.05,193.97,56.12,250.05,125.05,250.05"/>
</g>
</svg>
