<svg width="499.45" height="179.47" xmlns="http://www.w3.org/2000/svg">
 <defs>
  <style>.cls-1,.cls-2{fill:#fff;}.cls-2{fill-rule:evenodd;}</style>
 </defs>
 <title>LTU Stacked</title>
 <g>
  <title>Layer 1</title>
  <rect stroke="#000" id="svg_36" height="245" width="1085" y="-60.36918" x="-292.77501" opacity="undefined" fill="#0066cc"/>
  <g id="svg_72">
   <g id="svg_71">
    <path fill="none" id="svg_37" d="m28.16999,158.69c-11.45,0 -19.17,-7.69 -19.17,-21.54l0,-26.62l9.48,0l0,26.47c0,7.59 3.66,12.4 9.69,12.4s9.75,-4.67 9.75,-12.26l0,-26.61l9.48,0l0,26.47c0.01,13.76 -7.17,21.69 -19.23,21.69z" class="cls-1"/>
    <path fill="none" id="svg_38" d="m87.05999,157.94l0,-35.56l9.35,0l0,35.56l-9.35,0z" class="cls-1"/>
    <path fill="none" id="svg_39" d="m123.42999,157.94l-9.62,0l-12.81,-35.56l10.29,0l5.22,16.46c0.88,2.71 1.83,6.1 2.23,7.79c0.41,-1.76 1.36,-5 2.24,-7.79l5.22,-16.46l10,0l-12.77,35.56z" class="cls-1"/>
    <path fill="none" id="svg_40" d="m168.19999,143.17l-21.27,0c0.34,4.88 3.93,6.71 7.32,6.71a7.93,7.93 0 0 0 6.1,-2.51l6.64,5.55c-2.84,3.66 -8,5.76 -12.73,5.76c-10.23,0 -16.73,-7.25 -16.73,-18.49c0,-10.91 6.84,-18.56 15.85,-18.56c9.48,0 15,8.4 15,18.56a29,29 0 0 1 -0.18,2.98zm-15.31,-13.41c-3.39,0 -5.49,2.78 -5.83,6.37l12.19,0c-0.25,-3.18 -2.16,-6.37 -6.36,-6.37z" class="cls-1"/>
    <path fill="none" id="svg_41" d="m194.61999,133.29a8.06,8.06 0 0 0 -5.42,-2.3c-3.66,0 -6,1.56 -6,7.72l0,19.24l-9.35,0l0,-35.57l9.35,0l0,2.37a9.84,9.84 0 0 1 7.32,-3.12a9.09,9.09 0 0 1 6.57,2.51l-2.47,9.15z" class="cls-1"/>
    <path fill="none" id="svg_42" d="m212.99999,158.69a27.91,27.91 0 0 1 -14.9,-4.13l3.12,-7.11a24.82,24.82 0 0 0 12.33,3.25c3.66,0 4.74,-0.88 4.74,-2.71c0,-1.62 -1.29,-2.44 -5.22,-3.59c-8.54,-2.57 -14,-4.67 -14,-12.19s5.89,-10.57 14.22,-10.57a28.35,28.35 0 0 1 13.14,3.45l-3,7.38a23,23 0 0 0 -10.36,-2.84c-3.79,0 -4.81,0.74 -4.81,2.3s1.08,2.1 7.38,4.13s11.85,4.4 11.85,11.51c0.05,8.2 -6.49,11.12 -14.49,11.12z" class="cls-1"/>
    <path fill="none" id="svg_43" d="m232.99999,157.94l0,-35.56l9.35,0l0,35.56l-9.35,0z" class="cls-1"/>
    <path fill="none" id="svg_44" d="m294.89999,170.47l-9.21,0l4.74,-12.53l-13.82,-35.56l10.29,0l5.83,17.14c0.95,2.71 1.9,6.1 2.3,7.79c0.41,-1.76 1.35,-5 2.3,-7.79l5.83,-17.14l10,0l-18.26,48.09z" class="cls-1"/>
    <path fill="none" id="svg_45" d="m125.80999,71.91l0,38.84l-9.68,0l0,-38.84l-13.89,0l0,-9.54l37.46,0l0,9.54l-13.89,0z" class="cls-1"/>
    <path fill="none" id="svg_46" d="m160.99999,96.14l-21.1,0c0.34,4.83 3.89,6.64 7.25,6.64a7.86,7.86 0 0 0 6,-2.48l6.58,5.51c-2.82,3.63 -7.92,5.71 -12.62,5.71c-10.13,0 -16.58,-7.18 -16.58,-18.32c0,-10.81 6.78,-18.39 15.71,-18.39c9.4,0 14.83,8.32 14.83,18.39a29.27,29.27 0 0 1 -0.07,2.94zm-15.19,-13.29c-3.36,0 -5.44,2.75 -5.77,6.31l12.08,0c-0.27,-3.16 -2.12,-6.31 -6.31,-6.31z" class="cls-1"/>
    <path fill="none" id="svg_47" d="m180.50999,111.51c-9.2,0 -16.51,-7.52 -16.51,-18.32s7.12,-18.39 16.92,-18.39c6.71,0 11,3.29 14,7.79l-6.11,6.17c-2.08,-3 -4.3,-5 -8.05,-5c-4.43,0 -7.32,3.69 -7.32,9.46s2.89,9.4 7.32,9.4c3.62,0 5.91,-1.61 8.32,-4.5l5.91,5.57c-3.47,4.53 -7.5,7.82 -14.48,7.82z" class="cls-1"/>
    <path fill="none" id="svg_48" d="m102.78999,59.27l-7.95,0l-3.59,-14.27c-0.69,-2.83 -1.66,-6.84 -1.94,-8.57c-0.31,1.76 -1.24,5.77 -1.94,8.57l-3.59,14.27l-7.95,0l-10.43,-36.27l9.68,0l3.17,13.4c0.62,2.76 1.45,6.6 1.75,8.29c0.28,-1.8 1.17,-5.46 1.93,-8.29l3.58,-13.4l7.88,0l3.61,13.4c0.76,2.83 1.66,6.5 1.94,8.29c0.25,-1.69 1.06,-5.53 1.7,-8.29l3.18,-13.4l9.4,0l-10.43,36.27z" class="cls-1"/>
    <path fill="none" id="svg_49" d="m138.33999,34.12a8.22,8.22 0 0 0 -5.53,-2.35c-3.73,0 -6.15,1.59 -6.15,7.88l0,19.62l-9.54,0l0,-36.27l9.54,0l0,2.42a10,10 0 0 1 7.46,-3.18a9.27,9.27 0 0 1 6.7,2.56l-2.48,9.32z" class="cls-1"/>
    <path fill="none" id="svg_50" d="m172.29999,44.21l-21.7,0c0.35,5 4,6.84 7.46,6.84a8.09,8.09 0 0 0 6.22,-2.56l6.77,5.67c-2.9,3.73 -8.16,5.87 -13,5.87c-10.43,-0.03 -17.05,-7.39 -17.05,-18.87c0,-11.13 7,-18.94 16.17,-18.94c9.68,0 15.28,8.57 15.28,18.94a29.74,29.74 0 0 1 -0.15,3.05zm-15.62,-13.69c-3.46,0 -5.6,2.83 -5.94,6.5l12.44,0c-0.28,-3.25 -2.18,-6.5 -6.5,-6.5z" class="cls-1"/>
    <path fill="none" id="svg_51" d="m226.54999,60c-9.47,0 -17,-7.74 -17,-18.87s7.32,-18.9 17.45,-18.9c6.91,0 11.33,3.39 14.38,8l-6.38,6.37c-2.14,-3 -4.42,-5.18 -8.29,-5.18c-4.56,0 -7.53,3.8 -7.53,9.75s3,9.67 7.53,9.67c3.73,0 6.08,-1.66 8.57,-4.63l6.08,5.74c-3.48,4.7 -7.62,8.05 -14.81,8.05z" class="cls-1"/>
    <path fill="none" id="svg_52" d="m273.81999,44.21l-21.7,0c0.35,5 4,6.84 7.46,6.84a8.09,8.09 0 0 0 6.22,-2.56l6.77,5.67c-2.9,3.73 -8.16,5.87 -13,5.87c-10.44,0 -17.07,-7.4 -17.07,-18.87c0,-11.13 7,-18.94 16.17,-18.94c9.68,0 15.27,8.57 15.27,18.94a29.77,29.77 0 0 1 -0.12,3.05zm-15.62,-13.69c-3.46,0 -5.6,2.83 -5.94,6.5l12.44,0c-0.28,-3.25 -2.21,-6.5 -6.5,-6.5z" class="cls-1"/>
    <path fill="none" id="svg_53" d="m195.92999,61.27" class="cls-1"/>
    <path fill="none" id="svg_54" d="m208.60999,49.12" class="cls-1"/>
    <path fill="none" id="svg_55" d="m283.57999,111.56c-9.28,0 -16.05,-7.59 -16.05,-18.49s6.77,-18.56 16.05,-18.56s16.12,7.65 16.12,18.56s-6.84,18.49 -16.12,18.49zm0,-28c-4.47,0 -6.57,4.06 -6.57,9.55s2.1,9.48 6.57,9.48s6.64,-4.54 6.64,-9.48c0,-5.46 -2.22,-9.59 -6.64,-9.59l0,0.04z" class="cls-1"/>
    <path fill="none" id="svg_56" d="m305.31999,110.81l0,-44.7l9.35,-4.67l0,49.38l-9.35,-0.01z" class="cls-1"/>
    <path fill="none" id="svg_57" d="m336.33999,111.56c-9.28,0 -16.05,-7.59 -16.05,-18.49s6.77,-18.56 16.05,-18.56s16.12,7.65 16.12,18.56s-6.84,18.49 -16.12,18.49zm0,-28c-4.47,0 -6.57,4.06 -6.57,9.55s2.1,9.48 6.57,9.48s6.66,-4.59 6.66,-9.52c0,-5.42 -2.19,-9.55 -6.66,-9.55l0,0.04z" class="cls-1"/>
    <path fill="none" id="svg_58" d="m371.28999,123.89l-3.32,-7c7.32,-1 9.28,-2.78 9.28,-8.26a11,11 0 0 1 -7.52,3c-7.59,0 -13.82,-5.69 -13.82,-19c0,-10.63 5,-18.08 13.82,-18.08a11.27,11.27 0 0 1 7.52,2.78l0,-2l9.35,0l0,29.46c0,11.71 -2.84,17.74 -15.31,19.1zm6,-37.53a7.44,7.44 0 0 0 -6.3,-3c-3.59,0 -5.55,3.12 -5.55,9.08c0,7.32 2.44,10.36 6.1,10.36a6.55,6.55 0 0 0 5.76,-3l-0.01,-13.44z" class="cls-1"/>
    <path fill="none" id="svg_59" d="m394.18999,110.81l0,-35.56l9.35,0l0,35.56l-9.35,0z" class="cls-1"/>
    <path fill="none" id="svg_60" d="m425.81999,111.56c-9.28,0 -16.66,-7.59 -16.66,-18.49s7.18,-18.56 17.07,-18.56c6.77,0 11.11,3.32 14.09,7.86l-6.16,6.23c-2.1,-3 -4.33,-5.08 -8.13,-5.08c-4.47,0 -7.38,3.73 -7.38,9.55s2.91,9.48 7.38,9.48c3.66,0 6,-1.62 8.4,-4.54l6,5.62c-3.5,4.61 -7.56,7.93 -14.61,7.93z" class="cls-1"/>
    <path fill="none" id="svg_61" d="m464.63999,110.81l0,-2.37a11.36,11.36 0 0 1 -8,3.12c-6.64,0 -13.28,-4.06 -13.28,-12.67c0,-7.86 6.37,-11.79 14.43,-11.79a14.75,14.75 0 0 1 6.84,1.42l0,-1.75c0,-2.51 -1.69,-4.54 -5.08,-4.54a17.55,17.55 0 0 0 -9.75,2.37l-3.59,-6.5a23.92,23.92 0 0 1 13.34,-3.59c8.61,0 14.45,4.49 14.45,12.49l0,23.84l-9.36,-0.03zm0,-14.9c-1.62,-1 -3.18,-1.49 -6.5,-1.49c-3.52,0 -5.42,1.62 -5.42,4.47c0,2.51 1.42,4.74 5.42,4.74a7.65,7.65 0 0 0 6.5,-3.25l0,-4.47z" class="cls-1"/>
    <path fill="none" id="svg_62" d="m481.09999,110.81l0,-44.7l9.35,-4.67l0,49.38l-9.35,-0.01z" class="cls-1"/>
    <path fill="none" id="svg_63" d="m73.31999,157.78l0,-19.23c0,-6.37 -2.17,-8.26 -6,-8.26s-6.1,1.9 -6.1,8.06l0,19.44l-9.37,0l0,-35.57l9.35,0l0,2.37a11.65,11.65 0 0 1 8.33,-3.12c9.08,0 13.14,6.23 13.14,16.26l0,20l-9.35,0.05z" class="cls-1"/>
    <polygon fill="none" id="svg_64" points="32.269996643066406,50.47000156402589 23.29999351501465,50.479999885559096 23.29999351501465,8.999999389648451 12.96999454498291,8.999999389648451 12.96999454498291,60.66000019073488 41.98999786376953,60.66000019073488 32.269996643066406,50.47000156402589 " class="cls-1"/>
    <path fill="none" id="svg_65" d="m50.18999,22.23a24.4,24.4 0 0 0 -13.62,3.66l3.66,6.63a17.9,17.9 0 0 1 10,-2.42c3.46,0 5.18,2.07 5.18,4.63l0,1.8a15,15 0 0 0 -7,-1.45c-8.22,0 -14.72,4 -14.72,12a15.2,15.2 0 0 0 0.22,2.54l0.77,0.81l7.32,7.73l1.33,1.4a16.11,16.11 0 0 0 3.89,0.47a11.58,11.58 0 0 0 8.16,-3.18l0,2.42l9.54,0l0,-24.33c-0.01,-8.15 -5.92,-12.71 -14.73,-12.71zm5.18,26.4a7.8,7.8 0 0 1 -6.63,3.32c-4.08,0 -5.53,-2.28 -5.53,-4.84c0,-2.9 1.94,-4.56 5.53,-4.56c3.39,0 5,0.48 6.63,1.52l0,4.56z" class="cls-1"/>
    <path fill="none" id="svg_66" d="m206.38999,50.13l0.77,-0.81l0.18,-0.19l0,-10.31c0,-10.23 -4.15,-16.59 -13.41,-16.59a11.89,11.89 0 0 0 -8.5,3.18l0,-2.41l-9.54,0l0,36.27l9.54,0l0,-19.83c0,-6.29 2.28,-8.22 6.22,-8.22s6.15,1.94 6.15,8.43l0,19.5l1.25,-1.31l7.34,-7.71z" class="cls-1"/>
    <path fill="none" id="svg_67" d="m215.34999,74.8c-3.69,0 -6.47,1.39 -8.08,1.48l0,-17l0,0l0,-7.63l-8.27,8.68l-1.24,1.3l0,49.14l9.26,0l0,-19.26c0,-6.11 2.22,-8 6,-8s6,1.88 6,8.19l0,19.06l9.26,0l0,-19.85c0.09,-9.91 -3.94,-16.11 -12.93,-16.11z" class="cls-1"/>
    <path fill="none" id="svg_68" d="m267.35999,149.75c-2.24,0 -3.46,-0.88 -3.46,-4.27l0,-14.29l8.54,0l0,-8.81l-8.54,0l0,-11.57l0,0l0,-8.07l-8.16,8.57l-1.22,1.28l0,9.79l-6,0l0,8.81l6,0l0,16.81c0,6.23 3.73,10.7 9.48,10.7a12.45,12.45 0 0 0 7.25,-2.17l1.35,-9.48c-2.26,1.95 -3.6,2.7 -5.24,2.7z" class="cls-1"/>
    <path fill="none" id="svg_69" d="m263.08999,101.11l0.77,-0.81l0.07,-0.07l0,-9.47c0,-10 -4.06,-16.26 -13.14,-16.26a11.65,11.65 0 0 0 -8.33,3.12l0,-2.37l-9.35,0l0,35.56l9.35,0l0,-19.44c0,-6.16 2.23,-8.06 6.1,-8.06s6,1.9 6,8.26l0,12.65l0,0l0,5.83l1.21,-1.26l7.32,-7.68z" class="cls-1"/>
    <path fill="none" id="svg_70" d="m311.14999,151.15a4.8,4.8 0 1 0 4.79,4.78a4.8,4.8 0 0 0 -4.79,-4.78zm0,0.71a4.09,4.09 0 1 1 -4.09,4.08a4.06,4.06 0 0 1 4.09,-4.08zm0.79,4.29c0.93,0 1.69,-0.4 1.69,-1.47a1.32,1.32 0 0 0 -0.61,-1.15a2.05,2.05 0 0 0 -1.3,-0.29l-2.37,0l0,5.4l0.65,0l0,-2.48l1.19,0l1.52,2.48l0.8,0l-1.61,-2.48l0.04,-0.01zm-1.9,-0.51l0,-1.89l1.52,0c0.66,0 1.38,0.1 1.38,0.91c0,1.09 -1.16,1 -1.91,1l-0.99,-0.02z" class="cls-2"/>
   </g>
  </g>
 </g>
</svg>