<svg xmlns="http://www.w3.org/2000/svg" height="250" width="250" viewBox="0 0 200.00001 200.00001">
 <g>
  <path d="m99.924 198.84c-54.549 0-98.768-44.22-98.768-98.768 0-54.544 44.22-98.764 98.768-98.764 54.544 0 98.764 44.22 98.764 98.764 0 54.549-44.22 98.768-98.764 98.768z" stroke="#480059" stroke-width=".86739" fill="#fff"/>
  <path d="m99.924 196.6c-53.387 0-96.664-43.281-96.664-96.664 0-53.387 43.277-96.664 96.664-96.664s96.664 43.277 96.664 96.664c0 53.383-43.277 96.664-96.664 96.664" fill="#480059"/>
  <path d="m33.51 100.08c0 36.681 29.732 66.414 66.414 66.414 36.681 0 66.414-29.732 66.414-66.414 0-36.677-29.732-66.414-66.414-66.414-36.681 0-66.414 29.737-66.414 66.414z" stroke="#8f7fb0" stroke-width="1.7326" fill="#fff"/>
  <g fill="#fff" transform="matrix(1.0775 0 0 1.0775 181.97 125.19)">
   <path d="m25.65 148.49c-1.157 0-1.957 0.78-1.957 1.92 0 0.73 0.273 1.37 0.905 2.04l0.8 0.88c0.548 0.64 0.569 0.68 0.569 1.29s0.062 0.67-0.401 0.67c-0.505 0-0.4 0-0.4-0.69v-0.72h-1.494v0.23 0.61c0 1.18 0.695 1.83 1.832 1.83 1.199 0 1.957-0.73 1.957-1.97 0-0.87-0.19-1.29-0.885-2.09l-0.715-0.84c-0.694-0.76-0.695-0.78-0.695-1.35 0-0.52-0.02-0.54 0.422-0.54 0.4 0 0.314 0 0.314 0.5v0.72h1.475v-0.78c0-1.07-0.653-1.71-1.727-1.71zm194.96 0c-1.2 0-1.77 0.63-1.77 2.13 0 0.91 0.23 1.45 0.62 1.75-0.44 0.27-0.71 0.87-0.71 1.89 0 0.8 0.13 1.37 0.21 1.54 0.17 0.33 0.89 0.75 1.69 0.75 0.67 0 1.41-0.44 1.6-0.82 0.12-0.25 0.17-0.69 0.17-1.47 0-1.02-0.25-1.61-0.68-1.89 0.39-0.3 0.61-0.84 0.61-1.75 0-1.5-0.57-2.13-1.74-2.13zm4.58 0c-0.57 0-1.24 0.23-1.5 0.53-0.25 0.29-0.38 0.76-0.38 1.75v3.51c0 0.78 0.13 1.41 0.26 1.64 0.19 0.38 0.84 0.63 1.6 0.63 0.67 0 1.32-0.29 1.62-0.84 0.12-0.27 0.14-0.65 0.14-1.81 0-1.24-0.02-1.58-0.16-1.93-0.15-0.36-0.78-0.8-1.25-0.8-0.26 0-0.5 0.06-0.71 0.17v-0.7c0-0.95-0.15-0.95 0.36-0.95 0.4 0 0.27-0.02 0.27 0.63v0.53h1.45v-0.21-0.36c0-1.15-0.63-1.79-1.7-1.79zm4.27 0c-1.2 0-1.77 0.63-1.77 2.13 0 0.9 0.23 1.45 0.62 1.75-0.44 0.27-0.7 0.87-0.7 1.89 0 0.8 0.12 1.37 0.21 1.54 0.16 0.33 0.88 0.75 1.68 0.75 0.67 0 1.41-0.44 1.6-0.82 0.13-0.25 0.17-0.69 0.17-1.47 0-1.02-0.25-1.61-0.68-1.89 0.39-0.3 0.62-0.84 0.62-1.75 0-1.5-0.57-2.13-1.75-2.13zm-209.69 0.07v7.93h0.274 3.137v-1.26h-1.873v-2.19h1.746v-1.28h-1.746v-1.94h1.787v-1.26h-3.325zm7.809 0v1.26h1.305v6.67h0.273 1.264v-6.67h1.305v-1.26h-4.147zm189.05 0c-0.36 0.56-0.61 0.88-1.05 1.32v1.45c0.4-0.26 0.64-0.44 0.82-0.61v5.77h0.25 1.24v-7.93h-1.26zm3.75 1.13h0.23c0.37 0 0.23-0.04 0.23 0.57v0.84c0 0.72 0.17 0.66-0.23 0.66-0.43 0-0.28 0.06-0.28-0.66v-0.84c0-0.47-0.08-0.55 0.05-0.57zm8.86 0h0.22c0.38 0 0.23-0.04 0.23 0.57v0.84c0 0.72 0.17 0.66-0.23 0.66-0.42 0-0.27 0.06-0.27-0.66v-0.84c0-0.47-0.09-0.55 0.05-0.57zm-4.12 2.7c0.44 0 0.32 0 0.32 0.82v1.3c0 0.82 0.15 0.82-0.3 0.82-0.48 0-0.33 0.04-0.33-0.82v-1.3c0-0.82-0.13-0.82 0.31-0.82zm-4.51 0.65c0.46 0 0.31-0.04 0.31 0.78v0.88c0 0.65 0.13 0.63-0.31 0.63-0.45 0-0.34 0.02-0.34-0.63v-0.88c0-0.8-0.13-0.78 0.34-0.78zm8.85 0c0.46 0 0.31-0.04 0.31 0.78v0.88c0 0.65 0.13 0.63-0.31 0.63s-0.34 0.02-0.34-0.63v-0.88c0-0.8-0.12-0.78 0.34-0.78zm-197.9 1.83v1.62h0.251 1.389v-1.62h-1.64z" transform="matrix(.74246 0 0 .74246 -168.88 -116.19)"/>
  </g>
 </g>
 <path d="m97.426 74.91c-6.412 29.4-7.857 58.03-5.47 90.38m3.844-91.079c-18.184 32.259-23.911 51.549-22.082 86.449m-17.829-11.46c2.251-33.73 15.162-57.702 38.375-76.113m-59.127 27.593c19.018-24.019 34.32-26.722 57.273-31.145m1.6722-3.4346c-12.668-7.917-25.174-12.059-38.028-14.892m39.403 13.692c-5.834-8.742-11.664-16.903-22.779-24.867m24.786 24.072c-1.805-9.483-4.621-19.577-7.061-29.043m9.2406 28.984c1.9324-9.5799 5.0992-19.707 8.5965-29.329m-6.3875 30.541c7.4775-12.274 15.137-17.56 24.596-25.436m-23.316 26.673c14.674-11.192 26.462-13.414 41.397-14.45m-40.414 16.331c19.183-5.5981 36.801-6.3221 55.815 5.8801m-67.357-6.797c-18.456-4.331-35.282-4.356-52.648 6.941m64.75-4.1334c28.044-0.11365 42.066 7.7742 60.163 32.705m-60.69-31.099c30.818 10.615 53.775 40.82 53.61 58.616m-64.665-59.625c-30.228 12.248-51.603 43.635-50.522 61.395m60.267-58.874c22.994 21.631 39.819 39.713 39.522 76.576m-41.26-75.572c16.227 24.981 26.859 48.632 24.41 86.826m-26.527-86.343c6.9986 29.678 9.0093 59.487 10.12 90.597m-5.19-101.09c-3.1132-2.6644-8.0391-2.5297-11.012 0.29043-2.9687 2.8243-2.8531 7.2649 0.25599 9.9251 3.1091 2.6559 8.039 2.5255 11.012-0.29464 2.9687-2.8243 2.8531-7.2649-0.25598-9.9209zm12.168-10.136c-9.9507-8.4224-25.723-8.0015-35.236 0.93864-9.5048 8.9402-9.1456 23.011 0.80514 31.434 9.959 8.414 25.736 7.9973 35.24-0.94284 9.5089-8.936 9.1497-23.011-0.80928-31.429zm9.5626-9.3106c-16.32-14.701-40.175-12.79-55.716 2.758-15.542 15.549-16.475 35.588-0.153 50.286 16.326 14.699 42.159 14.009 57.699-1.54s14.5-36.805-1.83-51.503zm-80.172 18.807c-6.132 89.126 130.86 73.886 103.55-6.722m-114.04 45.048c33.68 61.38 119.09 42.51 129.82-8.104m-120.32 40.614c36.954 31.295 92.166 23.163 113.64-4.731" stroke="#c7bdd9" stroke-width=".75239" fill="none"/>
 <g>
  <g>
   <path d="m94.781 60.019c-0.45457 2.3486 0.23992 4.209 2.0624 5.7537 2.0666 0.06734 5.0045-0.79971 5.8631 1.6752 1.2711 1.2669 2.5422-0.35355 4.0364-0.04213 2.1466 0.33251 4.6846 0.15573 6.2251 1.8646 3.0178-0.42511 7.1595-0.81654 9.4282 1.5321 1.8267-1.4268 4.0575-0.6566 5.8042 0.45036 1.0228 0.29463 0.72394 0.90073 1.0733 1.6962 5.0129-1.2374 9.3945 2.4917 15.051 1.7173 0.08 0.43774 0.81655 0.90073 0.14732 1.3132-3.1862 2.698-8.78 1.5531-10.691 5.5138-0.91756 2.1592-3.8049 1.5405-5.0803 3.1568-1.0312 5.7411-9.3314 7.1343-10.354 12.526-0.82497 2.3318 1.7509 6.8775-2.6643 6.9953-0.7955 1.288-2.7864 2.0119-2.3739 3.6871 0.81656 0.90073 2.6938 0.87547 2.6433 2.4496-1.6036 3.0936-1.4479 6.9491-0.61451 10.211 3.3335 1.4226 6.4566 3.363 8.3296 6.3977 2.6054 0.69448 5.8295 2.7232 6.2083 5.4464 0.0631 0.87967 0.50929 1.6794 0.28201 2.7232-19.134-0.27359-33.874-0.0547-53.77-0.0884l0.2357-21.596c-2.4538-2.4412-5.8589-4.4784-4.7099-8.115 0.5135-1.3806 2.6012-2.0161 2.8369-3.4935-0.879-4.749-2.12-9.863-2.705-14.956-0.375-2.811-2.799-6.212-0.089-8.839-1.473-3.804-4.053-8.178-1.856-12.218l-0.1431-4.2048 20.258 0.39985 0.54296-2.256 4.0238 0.30305" fill="#594582"/>
   <path d="m91.414 56.849c-0.45457 2.3444 0.2357 4.2048 2.0666 5.7537 2.0582 0.06734 4.9961-0.80392 5.8589 1.6752 1.2669 1.2669 2.5422-0.35356 4.0322-0.04213 2.1508 0.32829 4.6888 0.15152 6.2293 1.8646 3.0136-0.42931 7.1553-0.81654 9.4282 1.5321 1.8267-1.4311 4.0533-0.65661 5.8042 0.45036 1.0228 0.29463 0.71974 0.89652 1.0691 1.6962 5.0129-1.2332 9.3945 2.4917 15.056 1.7131 0.0799 0.44195 0.81234 0.90073 0.14311 1.3174-3.1862 2.698-8.78 1.5489-10.691 5.5096-0.91336 2.1592-3.8049 1.5405-5.0761 3.161-1.0312 5.7453-9.3356 7.1343-10.354 12.522-0.82497 2.336 1.7467 6.8817-2.6685 6.9954-0.79128 1.2922-2.7864 2.0161-2.3739 3.6913 0.81654 0.90073 2.6938 0.87547 2.6475 2.4454-1.6036 3.0978-1.4479 6.949-0.61451 10.215 3.3293 1.4184 6.4566 3.3588 8.3296 6.3935 2.6054 0.6987 5.8253 2.7232 6.2041 5.4507 0.0673 0.87547 0.50928 1.6794 0.2862 2.719-19.134-0.26937-33.874-0.0505-53.77-0.0841l0.23149-21.601c-2.4538-2.437-5.8589-4.4742-4.7099-8.1107 0.51771-1.3806 2.6012-2.0119 2.8411-3.4935-0.88389-4.752-2.1256-9.8701-2.7106-14.963-0.37039-2.8074-2.799-6.2125-0.08836-8.8347-1.4689-3.8092-4.0491-8.1781-1.852-12.219l-0.14732-4.2048 20.262 0.39565 0.54296-2.256z" stroke="#480059" stroke-miterlimit="3.864" stroke-width="1.9136" fill="#fff"/>
   <path d="m125.64 99.035s1.43 8.895-9.68 12.805c-9.62 3.37-5.36 12.39-5.29 12.53 0-0.01-0.05-0.36-0.02-0.95 0.11-1.93 1.22-6.38 8.53-9.04 6.33-2.3 7.93-6.15 7.96-9.42 0.02-1.54-0.32-2.95-0.68-4.01-0.4-1.172-0.82-1.915-0.82-1.915zm2.8 8.035s0.03 0.23 0.04 0.64c0.09 2.11-0.41 8.88-9.74 12.16-5.76 2.02-6.54 6.07-6.22 9.02 0 0.04 0.01 0.08 0.02 0.12 0.23 1.95 0.92 3.4 0.92 3.4s-0.06-0.36-0.02-0.96c0.12-1.93 1.22-6.38 8.53-9.04 6.33-2.29 7.93-6.14 7.97-9.41 0.02-3.05-1.32-5.58-1.49-5.9-0.01-0.02-0.01-0.03-0.01-0.03zm-25.14 27.06v2.22h3.47v2.16h14.6v-2.16h3.48v-2.22h-21.55zm7.19 5.88v1.86h7.13v-1.86h-7.13zm42.36 37.78c-1.35 0-2.4 0.65-2.82 1.55-0.23 0.53-0.32 1.31-0.32 3.1 0 1.53 0.09 2.33 0.22 2.82 0.35 1.09 1.45 1.83 2.92 1.83 1.24 0 2.21-0.44 2.65-1.24 0.28-0.53 0.42-1.46 0.42-3.41 0-1.58-0.08-2.49-0.23-2.95-0.33-0.99-1.43-1.7-2.84-1.7zm-58.868 0.12v9.05h1.854v-6.09l0.019 0.09 0.106 0.59c0.063 0.34 0.106 0.57 0.148 0.7l1.073 4.71h2.041l1.027-4.61 0.13-0.63c0.15-0.8 0.13-0.7 0.15-0.79v6.03h2.12v-9.05h-0.17-3.025l-0.674 3.07c-0.158 0.8-0.312 1.76-0.47 2.86-0.033-0.32-0.067-0.62-0.12-0.98-0.105-0.8-0.21-1.54-0.295-1.88l-0.714-3.07h-3.2zm13.758 0l-2.42 9.05h2l0.49-1.93h2.14l0.49 1.93h2.25l-2.32-9.05h-0.14-2.49zm7.6 0v9.05h1.96v-4.17c0-0.25-0.04-0.75-0.08-1.27 0.1 0.36 0.17 0.64 0.18 0.73l1.43 4.71h2.84v-9.05h-0.16-1.79v4.15 0.44c0 0.15 0-0.06 0.04 0.76v0.16c-0.02-0.09-0.04-0.19-0.06-0.29-0.21-0.84-0.42-1.64-0.57-2.02l-1.05-3.2h-2.74zm9.44 0v9.05h2.19v-4.5l1.87 4.5h2.38l-2.32-5.18 2.03-3.87h-0.28-1.94l-1.74 3.61v-3.61h-0.17-2.02zm10.58 0l-2.42 9.05h2l0.48-1.93h2.15l0.48 1.93h2.25l-2.31-9.05h-0.15-2.48zm6.23 0v1.73h1.97v7.32h2.21v-7.32h1.96v-1.73h-0.17-5.97zm11.26 1.56c0.74 0 0.78 0.13 0.84 1.26 0.05 0.91 0.04 0.86 0.04 1.41 0 0.23-0.02 0.65-0.02 1.16-0.02 0.8-0.04 0.95-0.04 1.07-0.06 0.87-0.17 1.03-0.82 1.03s-0.78-0.1-0.86-0.8c-0.04-0.31-0.06-1.2-0.06-2.02v-1.28c0.04-0.4 0.06-0.91 0.06-1.03 0.08-0.72 0.21-0.8 0.86-0.8zm-43.9 0.83c0.06 0.38 0.11 0.77 0.18 1.08l0.42 1.92h-1.3l0.48-1.92c0.02-0.14 0.15-0.69 0.21-1.07 0 0 0-0.01 0.01-0.01zm27.61 0c0.06 0.38 0.12 0.77 0.19 1.08l0.42 1.92h-1.31l0.49-1.92c0.02-0.14 0.15-0.69 0.21-1.07v-0.01z" transform="scale(.8)" fill="#480059"/>
  </g>
  <path d="m122.34 15.986c-6.69 0.169-9.16 5.326-9.07 9.135 0.1 3.914 2.86 8.817 9.26 8.67 5.66-0.147 9.2-4.44 9.07-9.512-0.13-5.093-3.73-8.419-9.26-8.293zm17.28 0.77c-0.15-0.042-0.34 0.254-0.47 0.527-0.06 0.148-0.86 2.041-0.92 2.399-0.06 0.252 0 0.547 0.15 0.589 0.12 0.021 0.27-0.211 0.35-0.4 0.07-0.147 0.19-0.252 0.49-0.525 0.42-0.442 0.92-0.4 2.21-0.19l3.19 0.569-1.74 8.732c-0.4 2.02-0.74 3.747-1.03 4.631-0.19 0.61-0.32 0.926-0.76 0.926-0.21 0-0.51-0.021-0.84-0.084-0.23-0.042-0.44 0.146-0.46 0.252-0.03 0.168 0.14 0.442 0.42 0.506 0.86 0.168 2.27 0.377 2.77 0.482 0.61 0.126 1.96 0.463 3.39 0.758 0.26 0.042 0.55-0.146 0.57-0.315 0.02-0.105-0.1-0.358-0.34-0.422-0.31-0.063-0.8-0.189-1.11-0.295-0.61-0.21-0.65-0.546-0.59-1.177 0.08-0.947 0.42-2.673 0.82-4.694l1.75-8.734 2.71 0.59c1.94 0.421 2.36 0.969 2.29 1.558l-0.04 0.231c-0.04 0.337 0.05 0.632 0.21 0.674 0.13 0.021 0.3-0.253 0.34-0.463 0.13-0.589 0.49-2.063 0.59-2.526 0.06-0.315 0.04-0.631-0.13-0.673-0.16-0.021-0.73 0.084-2.12-0.19l-8.67-1.746c-0.72-0.126-1.52-0.338-2.17-0.527-0.5-0.148-0.69-0.442-0.86-0.463zm-17.89 0.683c3.66-0.084 6.52 2.757 6.65 7.745 0.15 6.418-3.37 7.07-4.92 7.091-4.3 0.106-6.89-3.324-6.99-7.933-0.15-5.535 2.69-6.839 5.26-6.903zm-18.85 1.071c-0.62 0-1.56-0.001-2.972 0.336-2.988 0.736-4.587 3.135-3.998 5.513 0.421 1.768 1.663 3.178 4.5 4.461l1.2 0.506c2.13 0.926 2.68 1.747 2.93 2.799 0.29 1.136-0.34 2.504-2.27 2.988-1.35 0.337-2.698 0.233-3.54-1.261-0.231-0.316-0.421-0.758-0.484-1.032-0.042-0.168-0.211-0.505-0.4-0.463-0.169 0.042-0.21 0.484-0.147 0.821 0.063 0.336 0.293 1.642 0.588 2.842 0.126 0.463 0.317 0.713 0.717 0.755 1.036 0.211 2.046 0.107 3.286-0.209 1.13-0.273 2.33-0.822 3.24-1.748 1.32-1.431 1.41-3.134 1.09-4.418-0.5-2.041-1.85-3.368-4.97-4.714l-0.69-0.317c-2.125-0.905-2.777-1.431-3.009-2.441-0.316-1.284 0.42-2.272 2.02-2.651 1.409-0.357 2.149 0.084 2.569 0.42 0.59 0.463 0.8 0.97 0.86 1.18 0.07 0.252 0.27 0.505 0.4 0.484 0.17-0.042 0.21-0.422 0.11-0.906-0.42-1.662-0.49-2.315-0.57-2.609-0.02-0.148-0.23-0.336-0.46-0.336zm-18.767 5.39c-0.105 0.064-0.189 0.191-0.273 0.233-0.169 0.126-0.463 0.315-0.82 0.525-0.379 0.211-4.42 2.063-5.051 2.358-0.568 0.252-1.874 0.777-2.948 1.261-0.315 0.148-0.42 0.421-0.335 0.569 0.063 0.147 0.315 0.294 0.546 0.189 0.295-0.147 0.652-0.272 0.821-0.314 0.715-0.169 0.906-0.043 1.263 0.631 0.316 0.631 0.569 1.177 2 4.25l1.62 3.537c0.862 1.894 1.578 3.471 1.894 4.355 0.189 0.631 0.274 0.946-0.084 1.178-0.189 0.147-0.401 0.295-0.695 0.422-0.253 0.126-0.294 0.421-0.252 0.506 0.084 0.168 0.379 0.273 0.652 0.168 0.8-0.379 2.062-1.032 2.504-1.243 1.221-0.547 2.631-1.072 5.703-2.482 0.758-0.337 0.885-0.59 0.78-1.18-0.064-0.442-0.526-1.893-0.737-2.377-0.105-0.189-0.294-0.484-0.463-0.4-0.126 0.042-0.147 0.337-0.084 0.59 0.253 0.884 0.189 1.219-0.211 1.703-0.421 0.484-1.263 0.863-1.81 1.115-2.063 0.947-2.399 0.948-3.094-0.42-0.274-0.589-1.114-2.462-1.43-3.156l-0.736-1.578c-0.042-0.105-0.043-0.044 0.041-0.086 0.505-0.211 2.526-1.114 2.947-1.262 0.758-0.252 1.072-0.211 1.346 0.147 0.168 0.252 0.295 0.484 0.4 0.673 0.043 0.106 0.294 0.316 0.42 0.252 0.169-0.084 0.044-0.482-0.019-0.671-0.063-0.127-0.402-0.949-0.549-1.37-0.421-1.052-0.462-1.43-0.525-1.556-0.064-0.105-0.254-0.275-0.317-0.233-0.126 0.042-0.146 0.274-0.23 0.485-0.106 0.294-0.358 0.421-0.821 0.674-0.442 0.252-2.778 1.326-3.22 1.537-0.127 0.042-0.064 0.104-0.127-0.022l-2.356-5.113c-0.042-0.126 0.001-0.044 0.106-0.086 0.4-0.189 2.525-1.135 2.904-1.24 1.073-0.337 1.241-0.316 1.557-0.022 0.21 0.169 0.378 0.527 0.463 0.674 0.063 0.168 0.273 0.399 0.441 0.336 0.126-0.063 0.085-0.4 0.064-0.484-0.084-0.295-0.442-1.179-0.505-1.411-0.358-0.947-0.4-1.22-0.463-1.388-0.042-0.084-0.211-0.316-0.317-0.274zm82.597 0.217c-0.19-0.084-0.53 0.231-1.03 0.694l-10.52 10.755c-0.85 0.842-1.41 1.241-2.4 0.989-0.19-0.063-0.47-0.17-0.65-0.233-0.17-0.084-0.43 0.084-0.47 0.19-0.06 0.189 0.06 0.463 0.32 0.568 1.05 0.442 2.23 0.842 2.44 0.947 0.65 0.253 1.51 0.696 2.17 0.969 0.23 0.084 0.48-0.021 0.54-0.211 0.05-0.105 0.03-0.379-0.21-0.463l-0.31-0.127c-0.63-0.273-0.72-0.441-0.57-0.82 0.1-0.253 0.4-0.694 0.8-1.115l2.36-2.463c0.08-0.126 0.04 0.022 0.12 0.064l4.59 1.914c0.11 0.042 0.15-0.104 0.17 0.022l-0.19 5.029c0.02 0.316-0.08 0.295-0.23 0.274-0.23-0.064-0.47 0.084-0.51 0.189-0.06 0.168 0.19 0.443 0.55 0.633 1.64 0.715 3.14 1.346 3.87 1.64 0.76 0.316 1.08 0.233 1.14 0.043 0.06-0.126 0-0.38-0.17-0.443-0.25-0.105-0.57-0.252-0.82-0.441-0.42-0.295-0.88-0.653-0.93-2.821 0-3.661 0.19-13.404 0.17-14.73-0.02-0.547-0.04-0.99-0.23-1.053zm-2.43 4.264c0.01 0.008 0.02 0.03 0.05 0.051 0.07 0.021 0.04-0.042 0.02 0.021l-0.25 5.826c0-0.014 0-0.027-0.02-0.039l-3.79-1.578c-0.08-0.021-0.1 0.084-0.06 0l4-4.252c0.03-0.031 0.04-0.037 0.05-0.029zm-98.561 5.15c-0.127 0.008-0.269 0.06-0.385 0.155-0.863 0.673-1.494 1.241-1.684 1.388-0.378 0.295-1.261 0.884-2.166 1.6-0.273 0.21-0.4 0.548-0.295 0.717 0.085 0.084 0.357 0.188 0.588 0.019 0.232-0.189 0.654-0.525 1.012-0.609 0.568-0.169 0.799-0.043 1.641 1.01l6.187 7.597-0.062 0.041c-0.421-0.021-4.758-0.693-6.883-0.967-4.567-0.526-9.449-1.325-9.828-1.388-0.526-0.084-0.946-0.255-1.156-0.086-0.169 0.126 0.04 0.589 0.314 0.947l7.893 10.524c1.178 1.515 1.451 1.935 1.093 2.419-0.189 0.253-0.504 0.527-0.715 0.696-0.189 0.147-0.19 0.441-0.127 0.525 0.127 0.169 0.464 0.168 0.696-0.021 0.905-0.695 1.704-1.39 1.851-1.516 0.337-0.253 1.094-0.757 2.231-1.641 0.252-0.21 0.316-0.505 0.189-0.652-0.063-0.084-0.357-0.19-0.547-0.021-0.294 0.21-0.631 0.463-1.031 0.589-0.421 0.127-0.884-0.022-1.957-1.369l-5.82-7.058 0.033-0.034c0.484 0.085 4.166 0.759 7.555 1.18 3.241 0.379 7.261 0.926 9.197 1.115 0.337 0.064 0.756 0.104 0.967-0.064 0.147-0.105 0.042-0.504-0.252-0.883l-8.44-11.238c-0.715-0.989-0.798-1.325-0.42-1.83 0.169-0.211 0.316-0.317 0.485-0.444 0.21-0.168 0.209-0.503 0.125-0.587-0.053-0.085-0.163-0.122-0.289-0.114zm131.07 3.379c-1.63-0.008-3.14 0.651-4.24 1.924-1.64 1.873-2.26 4.314-1.43 8.523l0.35 1.747c0.61 3.135 0.09 4.439-0.9 5.576-1.05 1.22-3.2 1.62-5.28-0.19-1.43-1.262-2.36-2.966-1.37-5.113 0.23-0.484 0.54-1.032 0.82-1.348 0.15-0.189 0.42-0.525 0.23-0.693-0.21-0.168-0.61 0.147-0.93 0.463-0.33 0.337-1.62 1.641-2.73 2.904-0.44 0.505-0.59 0.821-0.34 1.305 0.59 1.284 1.5 2.378 2.84 3.535 1.22 1.073 2.7 1.957 4.51 2.23 2.61 0.379 4.61-0.861 5.76-2.187 1.92-2.189 2.3-4.736 1.39-9.303l-0.19-1.053c-0.69-3.093-0.57-4.27 0.36-5.343 1.2-1.368 3.01-1.369 4.71 0.125 1.5 1.305 1.58 2.589 1.56 3.304-0.06 1.032-0.48 1.747-0.65 1.957-0.25 0.295-0.4 0.611-0.23 0.758 0.19 0.169 0.5-0.106 0.94-0.611 1.58-1.81 2.26-2.378 2.51-2.693 0.15-0.148 0.19-0.421 0.02-0.653-0.46-0.673-1.22-1.768-2.74-3.094-1.6-1.389-3.35-2.062-4.97-2.07zm-152.78 15.326c-0.159-0.007-0.368 0.108-0.494 0.282-0.653 0.862-1.136 1.578-1.284 1.789-0.273 0.357-0.967 1.177-1.662 2.103-0.21 0.274-0.253 0.632-0.105 0.758 0.105 0.063 0.421 0.064 0.59-0.147 0.189-0.231 0.504-0.673 0.798-0.863 0.506-0.273 0.758-0.231 1.873 0.569l7.956 5.724-0.041 0.041c-0.421 0.105-4.8 0.569-6.905 0.885-4.545 0.673-9.49 1.179-9.869 1.221-0.547 0.042-0.947 0.021-1.115 0.211-0.126 0.168 0.189 0.567 0.547 0.82l10.375 8.101c1.515 1.179 1.894 1.495 1.683 2.063-0.126 0.295-0.357 0.632-0.525 0.863-0.126 0.169-0.086 0.463 0.019 0.526 0.169 0.126 0.484 0.063 0.653-0.168 0.694-0.926 1.284-1.81 1.41-1.957 0.253-0.358 0.842-1.032 1.705-2.19 0.189-0.252 0.169-0.545 0.022-0.672-0.106-0.063-0.379-0.085-0.526 0.125-0.21 0.274-0.485 0.611-0.822 0.842-0.4 0.232-0.862 0.211-2.272-0.82l-7.464-5.299 0.035-0.047c0.484-0.021 4.209-0.336 7.597-0.82 3.22-0.484 7.261-1.011 9.155-1.326 0.357-0.042 0.778-0.106 0.925-0.295 0.106-0.169-0.105-0.505-0.484-0.799l-11.068-8.651c-0.947-0.778-1.138-1.051-0.885-1.662 0.105-0.252 0.231-0.4 0.357-0.568 0.169-0.21 0.065-0.525-0.041-0.588-0.036-0.031-0.085-0.048-0.138-0.051zm163.07 0.953c-0.14-0.017-0.38 0.064-0.57 0.159-0.19 0.063-2.04 0.969-2.31 1.201-0.21 0.147-0.36 0.399-0.25 0.504 0.08 0.126 0.33 0.043 0.5-0.041 0.17-0.063 0.34-0.084 0.72-0.084 0.61-0.063 0.99 0.293 1.79 1.324l2.04 2.525-7.07 5.411c-1.65 1.262-3.03 2.314-3.83 2.798-0.57 0.358-0.85 0.483-1.18 0.209-0.17-0.147-0.36-0.357-0.57-0.609-0.15-0.211-0.44-0.19-0.53-0.127-0.15 0.105-0.19 0.421 0 0.674 0.53 0.694 1.43 1.768 1.75 2.168 0.38 0.505 1.18 1.642 2.08 2.82 0.15 0.211 0.47 0.23 0.61 0.125 0.09-0.063 0.17-0.336 0.02-0.525-0.21-0.274-0.46-0.695-0.63-0.948-0.31-0.589-0.14-0.862 0.32-1.283 0.69-0.673 2.08-1.725 3.72-2.988l7.07-5.408 1.62 2.23c1.2 1.6 1.16 2.293 0.74 2.672l-0.19 0.149c-0.25 0.231-0.42 0.504-0.31 0.63 0.08 0.106 0.4 0 0.59-0.105 0.46-0.358 1.7-1.242 2.08-1.516 0.25-0.21 0.46-0.44 0.36-0.588-0.11-0.126-0.61-0.443-1.48-1.558l-5.36-7.008c-0.45-0.589-0.91-1.283-1.27-1.852-0.29-0.442-0.25-0.778-0.35-0.904-0.02-0.031-0.06-0.049-0.11-0.055zm-3.63 22.823c-0.09-0.024-0.19-0.018-0.25 0.013-0.17 0.085-0.28 0.359-0.15 0.612 0.5 1.031 1.11 2.125 1.22 2.336 0.31 0.631 0.67 1.515 0.99 2.146 0.1 0.211 0.38 0.293 0.54 0.209 0.13-0.063 0.28-0.272 0.17-0.504l-0.14-0.295c-0.32-0.631-0.3-0.8 0.06-0.968 0.25-0.127 0.76-0.252 1.37-0.315l3.36-0.295c0.15-0.042 0.03 0.022 0.07 0.127l2.21 4.461c0.04 0.084 0.17 0.02 0.1 0.125l-3.45 3.662c-0.19 0.253-0.25 0.148-0.36 0.043-0.1-0.21-0.38-0.231-0.5-0.168-0.15 0.063-0.15 0.441 0 0.799 0.73 1.62 1.45 3.074 1.81 3.789 0.36 0.737 0.67 0.883 0.84 0.799 0.15-0.063 0.25-0.316 0.19-0.463-0.13-0.253-0.25-0.548-0.36-0.863-0.11-0.484-0.23-1.074 1.18-2.737 2.4-2.735 8.96-9.952 9.83-10.963 0.33-0.441 0.61-0.757 0.5-0.947-0.08-0.189-0.57-0.19-1.24-0.148l-14.98 1.158c-1.2 0.084-1.9 0-2.47-0.842-0.08-0.168-0.23-0.441-0.31-0.609-0.04-0.084-0.13-0.139-0.23-0.162zm-175.3 0.058c-0.136 0.016-0.313 0.125-0.408 0.33-0.358 0.758-0.862 1.98-1.094 2.485-0.273 0.589-0.927 1.852-1.285 2.609-0.147 0.316-0.062 0.63 0.065 0.694 0.168 0.063 0.462-0.02 0.547-0.209 0.105-0.253 0.253-0.506 0.4-0.696 0.316-0.4 0.568-0.441 1.283-0.168 0.653 0.274 1.221 0.526 4.293 1.957l3.514 1.641c1.978 0.926 3.558 1.664 4.379 2.148 0.526 0.316 0.694 0.484 0.568 0.905-0.042 0.21-0.106 0.484-0.254 0.757-0.105 0.253 0.043 0.505 0.127 0.547 0.169 0.084 0.483-0.042 0.61-0.295 0.378-0.799 0.904-2.103 1.115-2.566 0.252-0.547 0.927-1.81 1.537-3.115 0.105-0.232 0-0.527-0.168-0.612-0.084-0.042-0.4 0.001-0.484 0.211-0.148 0.316-0.4 0.738-0.569 0.991-0.358 0.589-0.61 0.587-1.199 0.398-0.884-0.316-2.463-1.053-4.441-1.978l-3.514-1.641c-3.073-1.431-3.642-1.683-4.252-2.041-0.716-0.358-0.841-0.591-0.693-1.18 0.105-0.252 0.146-0.42 0.252-0.631 0.084-0.21-0.043-0.462-0.211-0.525-0.032-0.016-0.072-0.021-0.118-0.016zm189.89 2.162c0 0.008-0.01 0.024 0.01 0.045 0.02 0.063 0.07 0 0 0.063l-4.02 4.195c0-0.01 0.01-0.01 0-0.027l-1.81-3.684c-0.04-0.084-0.14-0.02-0.04-0.041l5.81-0.547c0.04-0.01 0.05-0.011 0.05-0.004zm9.43 11.237c-0.19 0-2.23 0.127-2.59 0.211-0.23 0.084-0.48 0.231-0.44 0.379 0.04 0.147 0.32 0.189 0.51 0.168 0.16 0 0.33 0.042 0.69 0.189 0.61 0.189 0.78 0.674 1.16 1.895l0.92 3.113-8.58 2.336c-1.98 0.547-3.69 1.01-4.61 1.136-0.66 0.106-0.95 0.127-1.16-0.273-0.08-0.168-0.21-0.442-0.29-0.758-0.07-0.252-0.36-0.356-0.47-0.314-0.14 0.042-0.31 0.336-0.25 0.609 0.23 0.863 0.67 2.21 0.8 2.69 0.17 0.61 0.46 1.96 0.86 3.39 0.07 0.25 0.36 0.4 0.51 0.36 0.1-0.04 0.31-0.27 0.25-0.48-0.08-0.34-0.19-0.82-0.23-1.14-0.09-0.65 0.19-0.84 0.78-1.07 0.88-0.34 2.59-0.8 4.56-1.35l8.59-2.337 0.67 2.697c0.49 1.91 0.22 2.54-0.35 2.73l-0.24 0.09c-0.29 0.1-0.54 0.31-0.5 0.48 0.04 0.13 0.36 0.13 0.57 0.08 0.57-0.14 2.06-0.48 2.5-0.6 0.34-0.09 0.59-0.24 0.55-0.38-0.04-0.17-0.38-0.64-0.74-2l-2.31-8.527c-0.19-0.716-0.38-1.535-0.51-2.188-0.1-0.526 0.07-0.821 0.02-0.99-0.04-0.147-0.35-0.167-0.67-0.146zm-190.4 4.019c-0.189-0.042-0.38 0.147-0.422 0.42-0.063 0.4-0.21 0.989-0.63 1.852-0.421 0.821-1.222 1.032-3.137 0.969l-19.108-0.379c-0.652-0.021-1.137 0.083-1.179 0.357-0.042 0.253 0.316 0.506 0.758 0.801l15.847 11.132-18.414 5.37-0.127-0.03c-0.8416 0.28-1.0515 0.43-1.0936 0.66-0.042 0.23 0.3578 0.5 0.8416 0.67l19.172 6.29c0.968 0.36 1.999 0.76 2.02 1.62 0.021 0.49-0.021 0.7-0.063 0.95-0.042 0.28 0.126 0.51 0.274 0.53 0.273 0.04 0.505-0.15 0.568-0.44 0.168-0.99 0.315-2.47 0.42-3.01 0.084-0.55 0.401-1.9 0.611-3.16 0.084-0.46-0.084-0.78-0.357-0.82-0.148-0.02-0.359 0.15-0.401 0.4-0.063 0.29-0.169 0.74-0.4 1.24-0.189 0.51-0.378 0.88-0.967 0.78-0.484-0.09-0.864-0.19-1.39-0.34l-11.596-3.53 0.043-0.21c2.294-0.66 6.397-1.84 7.07-2 0.905-0.21 6.042-1.79 7.557-2.3 0.947-0.31 1.661-0.52 1.703-0.8 0.042-0.27-0.357-0.48-1.662-1.41l-12.438-8.79 0.043-0.21 13.405 0.37c0.883 0.05 1.115 0.17 1.136 0.38 0.063 0.21 0.253 0.38 0.401 0.4 0.189 0.05 0.484-0.1 0.652-0.78 0.295-1.216 1.094-5.362 1.221-6.099 0.063-0.421-0.105-0.841-0.358-0.883zm89.378 7.662l-0.01 0.01 0.01 0.01v-0.02zm0 0.02c0.35 1.03 0.69 2.41 0.67 3.92-0.03 3.2-1.61 6.98-7.87 9.23-7.24 2.61-8.33 6.96-8.45 8.86-0.04 0.58 0.02 0.93 0.02 0.93 0.12 1.8 1.03 3.44 1.85 4.54-0.01-0.04-0.02-0.07-0.02-0.11-0.31-2.89 0.46-6.86 6.16-8.85 9.22-3.21 9.72-9.85 9.64-11.91-0.02-0.4-0.06-0.63-0.06-0.63s0.01 0.01 0.02 0.04v-0.01c-0.59-3.78-1.87-5.86-1.96-6.01zm105.92 10.13c-0.14 0.02-0.38 0.23-0.35 0.48 0.02 0.32 0.02 0.7 0 0.86-0.11 0.74-0.28 0.87-1.04 0.97-0.71 0.09-1.32 0.13-4.69 0.38l-3.89 0.28c-2.06 0.14-3.79 0.27-4.72 0.23-0.67-0.05-0.98-0.07-1.09-0.51-0.06-0.19-0.13-0.46-0.15-0.78-0.02-0.27-0.27-0.42-0.38-0.42-0.16 0-0.4 0.26-0.37 0.55 0.06 0.88 0.23 2.27 0.27 2.78 0.08 1.32 0.06 2.82 0.31 6.18 0.07 0.85 0.23 1.08 0.85 1.18 0.44 0.07 1.95 0.15 2.48 0.13 0.21-0.02 0.57-0.08 0.55-0.27 0-0.13-0.28-0.26-0.53-0.28-0.9-0.08-1.22-0.27-1.54-0.82-0.29-0.57-0.35-1.49-0.4-2.08-0.16-2.27-0.04-2.59 1.5-2.76 0.63-0.06 2.67-0.19 3.43-0.23l1.75-0.13c0.12-0.02 0.04-0.02 0.04 0.09 0.04 0.54 0.19 2.75 0.17 3.17-0.02 0.83-0.17 1.1-0.61 1.23-0.3 0.08-0.57 0.1-0.8 0.14-0.11 0-0.36 0.15-0.36 0.3 0.02 0.19 0.44 0.23 0.63 0.21 0.15 0 1.03-0.02 1.47-0.02 1.16-0.02 1.52 0.06 1.66 0.06 0.13-0.02 0.34-0.13 0.32-0.21 0-0.13-0.19-0.25-0.36-0.38-0.25-0.21-0.27-0.5-0.35-1.01-0.07-0.5-0.26-3.07-0.3-3.56 0-0.14-0.08-0.12 0.06-0.12l5.6-0.4c0.15-0.02 0.04-0.02 0.04 0.1 0.05 0.45 0.17 2.8 0.15 3.18-0.04 1.12-0.15 1.26-0.52 1.47-0.26 0.13-0.64 0.17-0.81 0.19-0.18 0-0.46 0.13-0.46 0.3 0.02 0.15 0.34 0.21 0.45 0.23 0.27 0.04 1.26 0.02 1.49 0.02 1.01-0.02 1.28 0.06 1.45 0.06 0.11-0.02 0.38-0.08 0.38-0.19-0.02-0.12-0.11-0.25-0.15-0.35-0.04-0.19-0.1-0.55-0.19-0.97-0.04-0.42-0.36-4.86-0.42-5.56-0.04-0.63-0.08-2.02-0.17-3.2-0.02-0.33-0.23-0.52-0.4-0.52zm-181.65 65.42c-0.132-0.02-0.241 0.02-0.315 0.09-0.168 0.13-0.19 0.42 0.041 0.67 0.274 0.32 0.61 0.72 0.737 0.95 0.505 0.89 0.422 1.28-0.293 2.02-0.674 0.72-1.306 1.31-4.737 4.44l-3.283 3.03c-3.283 2.99-4.23 5.47-4.209 7.58 0 3.01 1.915 5.26 3.01 6.46 1.347 1.47 3.114 2.82 5.955 3.18 3.346 0.4 6.335-1.85 8.84-4.17l2.398-2.21c3.431-3.14 4.063-3.72 4.821-4.33 0.841-0.68 1.262-0.74 1.957-0.24 0.273 0.21 0.42 0.34 0.652 0.57 0.252 0.3 0.527 0.28 0.695 0.15 0.148-0.15 0.168-0.48-0.127-0.78-0.799-0.88-2.167-2.23-2.42-2.5-0.021-0.02-1.262-1.52-2.314-2.7-0.295-0.29-0.611-0.29-0.758-0.14-0.168 0.12-0.169 0.42 0.041 0.67 0.232 0.25 0.548 0.63 0.674 0.86 0.526 0.89 0.442 1.31-0.274 2.04-0.694 0.7-1.325 1.29-4.755 4.42l-2.821 2.59c-2.315 2.13-4.294 3.85-6.672 3.75-1.746-0.09-3.155-1.04-4.06-2.02-0.695-0.76-1.6-1.88-1.684-3.64-0.105-1.96 0.567-3.77 3.85-6.76l3.137-2.9c3.43-3.14 4.06-3.73 4.818-4.36 0.842-0.67 1.264-0.74 1.937-0.23 0.295 0.23 0.441 0.36 0.672 0.59 0.211 0.23 0.486 0.21 0.655 0.08 0.147-0.15 0.167-0.46-0.149-0.8-0.757-0.82-2.104-2.14-2.609-2.69-0.632-0.7-1.873-2.19-2.967-3.39-0.158-0.17-0.312-0.25-0.443-0.28zm154.07 2.13c-0.14-0.02-0.33 0.04-0.44 0.16-0.28 0.34-1.16 1.52-1.47 1.92-0.4 0.48-0.89 0.99-1.37 1.58-0.17 0.21-0.11 0.46 0.02 0.57 0.1 0.08 0.44 0.04 0.61-0.11 0.29-0.23 0.36-0.23 0.55-0.08 0.23 0.19 0.48 0.5 0.71 0.99 0.3 0.65 2.34 5.93 2.53 6.29-0.64-0.11-6.68-0.99-7.39-1.2l-0.08-0.06c-0.36-0.07-0.53-0.07-0.66-0.17-0.14-0.13-0.1-0.19 0-0.38 0.13-0.3 0.11-0.59 0-0.67-0.1-0.09-0.4-0.13-0.54 0.06-0.64 0.78-1.16 1.53-1.46 1.89-0.46 0.57-1.55 1.83-1.81 2.15-0.16 0.19-0.12 0.52-0.02 0.61 0.13 0.08 0.44 0.04 0.55-0.09 0.19-0.21 0.46-0.42 0.76-0.54 0.44-0.15 1.22-0.25 2.23-0.15 1.37 0.11 6.94 0.8 7.32 0.88 0.7 0.19 1.2 0.32 2.13 1.08l1.43 1.15c0.27 0.24 0.99 0.83 1.66 1.46 0.48 0.44 0.63 0.75 0.42 1.15-0.06 0.17-0.23 0.4-0.42 0.66-0.15 0.16-0.06 0.48 0.02 0.54 0.15 0.13 0.47 0.07 0.65-0.18 0.53-0.64 1.35-1.75 1.71-2.19 0.4-0.49 1.3-1.52 2.19-2.61 0.19-0.23 0.17-0.55 0.04-0.66-0.08-0.06-0.4-0.1-0.55 0.09-0.21 0.25-0.52 0.61-0.78 0.82-0.46 0.44-0.82 0.4-1.37 0-0.75-0.53-1.47-1.12-1.74-1.35l-1.43-1.16c-0.57-0.46-1.1-0.88-1.48-1.64-0.5-0.92-2.52-6.52-2.75-7.66-0.13-0.73-0.17-1.07-0.07-1.55l-0.02-0.05c0.09-0.38 0.3-0.73 0.45-0.9 0.14-0.19 0.1-0.51-0.03-0.61-0.02-0.02-0.06-0.04-0.1-0.04zm-13.14 15.05c-0.04-0.01-0.09 0-0.12 0.03-0.06 0.06-0.17 0.21-0.38 0.46-0.23 0.26-0.56 0.63-1.09 1.08l-6.8 5.66c-0.56 0.48-1.24 0.97-1.79 1.34-0.44 0.34-0.75 0.3-0.9 0.41-0.1 0.08 0 0.42 0.15 0.67 0.08 0.17 1.03 1.98 1.26 2.25 0.17 0.21 0.42 0.36 0.53 0.27 0.12-0.1 0.04-0.38-0.05-0.54-0.06-0.17-0.08-0.3-0.14-0.72-0.05-0.61 0.29-0.97 1.28-1.85l2.44-2.11 5.7 6.84c1.33 1.58 2.45 2.91 2.95 3.69 0.38 0.54 0.53 0.84 0.23 1.17-0.12 0.17-0.29 0.38-0.57 0.59-0.19 0.17-0.14 0.47-0.08 0.55 0.1 0.13 0.42 0.15 0.65-0.04 0.68-0.57 1.73-1.52 2.11-1.83 0.48-0.4 1.6-1.26 2.73-2.21 0.19-0.15 0.21-0.46 0.11-0.59-0.07-0.08-0.36-0.17-0.53-0.02-0.27 0.21-0.67 0.48-0.97 0.67-0.52 0.36-0.82 0.17-1.28-0.27-0.67-0.68-1.79-2-3.12-3.58l-5.7-6.84 2.13-1.75c1.58-1.24 2.25-1.24 2.67-0.82l0.17 0.17c0.21 0.25 0.5 0.4 0.63 0.3 0.1-0.09 0-0.4-0.15-0.57-0.38-0.46-1.3-1.68-1.6-2.04-0.15-0.19-0.34-0.35-0.47-0.37zm-124.37 7.58c-0.192 0.07-0.439 0.34-0.629 0.61l-7.302 10.92c-1.074 1.62-1.37 2-1.938 1.83-0.316-0.1-0.673-0.31-0.904-0.46-0.19-0.13-0.484 0-0.547 0.1-0.126 0.17-0.001 0.47 0.23 0.64 0.968 0.63 1.894 1.13 2.063 1.24 0.379 0.23 1.074 0.78 2.295 1.56 0.252 0.19 0.588 0.12 0.693-0.03 0.063-0.1 0.043-0.42-0.168-0.54-0.294-0.21-0.651-0.44-0.883-0.76-0.294-0.38-0.295-0.84 0.61-2.32l4.756-7.82-0.022-0.03 0.065 0.05c0.084 0.5 0.652 4.19 1.388 7.51 0.716 3.2 1.516 7.18 1.979 9.07 0.063 0.34 0.147 0.74 0.379 0.86 0.147 0.11 0.484-0.12 0.757-0.52l7.807-11.66c0.716-1.01 0.989-1.2 1.6-0.99 0.252 0.08 0.421 0.19 0.59 0.31 0.231 0.15 0.525 0.05 0.609-0.06 0.084-0.17-0.042-0.5-0.295-0.65-0.926-0.59-1.641-0.99-1.852-1.14-0.399-0.25-1.283-0.88-2.252-1.51-0.273-0.19-0.652-0.19-0.736-0.02-0.084 0.1-0.063 0.4 0.168 0.54 0.253 0.17 0.696 0.47 0.906 0.76 0.337 0.46 0.315 0.74-0.421 1.9l-5.135 8.33-0.063-0.04c-0.105-0.4-0.906-4.72-1.369-6.82-0.989-4.46-1.85-9.37-1.892-9.72-0.106-0.55-0.106-0.99-0.317-1.14-0.047-0.03-0.106-0.03-0.17 0zm108.05 5.1c-0.07 0.01-0.13 0.03-0.2 0.07-0.73 0.42-1.85 1.15-2.33 1.43-0.57 0.31-1.81 0.97-2.53 1.39-0.31 0.17-0.42 0.48-0.35 0.61 0.08 0.14 0.37 0.25 0.56 0.14 0.24-0.12 0.49-0.27 0.76-0.33 0.47-0.17 0.7-0.04 1.1 0.59 0.42 0.61 0.71 1.13 2.42 4.06l1.95 3.37c1.08 1.87 1.96 3.38 2.34 4.25 0.25 0.59 0.32 0.8-0.04 1.09-0.15 0.15-0.38 0.3-0.63 0.46-0.26 0.13-0.28 0.45-0.21 0.53 0.08 0.15 0.42 0.25 0.67 0.11 0.76-0.45 1.93-1.22 2.38-1.48 0.52-0.29 1.79-0.94 3.05-1.68 0.21-0.13 0.29-0.44 0.21-0.59-0.06-0.08-0.34-0.23-0.55-0.13-0.29 0.17-0.73 0.4-1.01 0.53-0.63 0.27-0.82 0.1-1.2-0.36-0.54-0.8-1.43-2.31-2.5-4.19l-1.96-3.36c-1.7-2.93-2-3.46-2.36-4.11-0.33-0.69-0.31-0.92 0.13-1.32 0.23-0.19 0.38-0.28 0.57-0.4 0.21-0.11 0.21-0.4 0.12-0.55-0.04-0.1-0.21-0.17-0.39-0.13zm-88.486 6.46c-0.233-0.01-0.418 0.08-0.449 0.16-0.064 0.19 0.043 0.46 0.232 0.55 0.252 0.1 0.504 0.23 0.715 0.38 0.421 0.29 0.483 0.52 0.252 1.24-0.232 0.69-0.464 1.26-1.705 4.4l-1.451 3.64c-0.8 2.02-1.432 3.64-1.895 4.48-0.274 0.57-0.421 0.74-0.863 0.65-0.211-0.06-0.483-0.12-0.778-0.23-0.252-0.1-0.504 0.06-0.547 0.17-0.063 0.17 0.084 0.46 0.358 0.57 0.821 0.33 2.146 0.8 2.609 0.97 0.568 0.23 1.851 0.82 3.219 1.34 0.232 0.11 0.527-0.02 0.59-0.19 0.042-0.1-0.021-0.4-0.252-0.48-0.316-0.13-0.757-0.36-1.01-0.48-0.61-0.34-0.61-0.59-0.463-1.16 0.274-0.95 0.904-2.57 1.703-4.59l1.453-3.64c1.242-3.14 1.474-3.7 1.79-4.36 0.315-0.69 0.547-0.84 1.136-0.71 0.253 0.06 0.421 0.08 0.631 0.19 0.232 0.08 0.462-0.05 0.526-0.23 0.042-0.11-0.063-0.43-0.336-0.53-0.8-0.32-2.042-0.74-2.547-0.95-0.611-0.23-1.893-0.82-2.672-1.13-0.084-0.04-0.169-0.05-0.246-0.06zm76.216 0.04c-0.61 0.08-1.56 0.18-2.9 0.71-2.89 1.12-4.19 3.68-3.31 5.98 0.66 1.68 2.11 2.94 5.07 3.83l1.25 0.4c2.25 0.65 2.86 1.39 3.26 2.42 0.42 1.09-0.02 2.5-1.9 3.24-1.3 0.48-2.63 0.57-3.66-0.8-0.27-0.32-0.5-0.7-0.61-0.97-0.04-0.17-0.25-0.5-0.46-0.44-0.15 0.06-0.15 0.53-0.02 0.84 0.1 0.34 0.5 1.6 0.94 2.76 0.17 0.44 0.38 0.67 0.76 0.69 1.08 0.04 2.06-0.17 3.26-0.63 1.1-0.42 2.21-1.11 2.99-2.17 1.14-1.55 1.01-3.3 0.55-4.5-0.76-1.98-2.29-3.11-5.51-4.08l-0.74-0.24c-2.25-0.61-2.92-1.07-3.3-2.04-0.49-1.24 0.12-2.29 1.66-2.88 1.35-0.52 2.15-0.17 2.61 0.13 0.65 0.36 0.9 0.84 0.99 1.03 0.08 0.27 0.33 0.48 0.46 0.44 0.17-0.06 0.19-0.42 0-0.9-0.61-1.6-0.8-2.26-0.91-2.53-0.04-0.15-0.25-0.31-0.48-0.29zm-66.414 4c-0.238 0.02-0.437 0.15-0.468 0.27-0.021 0.11 0.064 0.38 0.254 0.42 0.189 0.02 0.526 0.11 0.841 0.26 0.737 0.4 1.031 0.52 1.262 1.83l2.755 14.43c0.21 1.12 0.3 1.64 0.57 1.71 0.32 0.06 0.61-0.42 1.43-1.6 0.7-0.97 2.21-3.14 4.27-6.02 1.75-2.44 2.57-3.49 3.86-5.39 0.88-1.24 1.24-1.43 1.53-1.56 0.46-0.19 0.91-0.06 1.12-0.02 0.23 0.07 0.44-0.12 0.46-0.27 0.04-0.15-0.13-0.42-0.42-0.48-0.65-0.13-1.71-0.28-2.08-0.36-0.26-0.07-1.16-0.32-2.26-0.53-0.42-0.1-0.73 0.09-0.78 0.25-0.04 0.15 0.19 0.38 0.38 0.43 0.3 0.06 0.59 0.14 0.87 0.29 0.16 0.13 0.19 0.13 0.14 0.3-0.04 0.21-0.19 0.48-0.35 0.75-0.83 1.35-5.12 7.75-6.46 9.79l-0.11-0.02-1.66-10.46c-0.17-0.84-0.19-1.52-0.15-1.79 0.04-0.19 0.08-0.21 0.25-0.3 0.21-0.08 0.53 0 0.89 0.07 0.17 0.04 0.4-0.13 0.42-0.28 0.04-0.14-0.21-0.44-0.47-0.5-1.09-0.21-2.16-0.38-2.71-0.49-0.758-0.16-1.999-0.48-3.135-0.71-0.085-0.02-0.169-0.03-0.249-0.02zm47.304 2.09c-0.72-0.03-1.45 0.05-2.15 0.18-0.67 0.12-2.31 0.48-3.07 0.63-0.44 0.08-1.85 0.27-3.01 0.48-0.33 0.07-0.5 0.34-0.46 0.49 0.02 0.16 0.25 0.33 0.5 0.29 0.3-0.06 0.68-0.11 0.85-0.11 0.75 0.03 0.88 0.17 1.07 0.93 0.17 0.7 0.27 1.31 0.88 4.63l0.7 3.85c0.36 2 0.69 3.75 0.73 4.65 0.05 0.68 0.07 1.01-0.35 1.16-0.19 0.09-0.47 0.17-0.78 0.23-0.26 0.04-0.38 0.32-0.36 0.42 0.04 0.17 0.32 0.36 0.59 0.3 0.88-0.15 2.25-0.46 2.65-0.55 0.34-0.06 1.98-0.29 3.26-0.53 0.26-0.04 0.42-0.31 0.38-0.48-0.02-0.11-0.19-0.32-0.36-0.27-0.27 0.04-0.75 0.08-1.11 0.1-0.65 0.04-0.8-0.25-0.99-0.9-0.25-0.89-0.59-2.63-0.95-4.65l-0.06-0.32c-0.02-0.13 0.02 0 0.13-0.02l1.93-0.3c0.15-0.04 0.21-0.08 0.36 0.07 0.36 0.27 1.62 1.55 2.74 2.63 1.51 1.45 2.54 2.33 3.57 2.65 0.63 0.21 1.25 0.25 2.49 0.02l2.08-0.38c0.27-0.04 0.4-0.29 0.36-0.48-0.02-0.11-0.19-0.32-0.34-0.27-0.19 0.02-0.38 0.04-0.63 0.04-0.36 0-1.24 0.06-2.72-0.99-1.51-1.12-3.38-2.8-5.61-4.76 1.76-2.1 2.14-3.83 1.85-5.45-0.28-1.47-1.37-2.52-2.07-2.84-0.66-0.29-1.37-0.43-2.1-0.45zm-15.41 1.57c-0.12-0.02-0.25 0.06-0.35 0.08-0.19 0.05-0.55 0.09-0.97 0.13-0.42 0-4.86-0.04-5.56-0.06-0.63 0-2.04-0.09-3.22-0.11-0.34 0-0.55 0.21-0.55 0.38-0.02 0.15 0.17 0.38 0.42 0.38 0.32 0 0.7 0.04 0.87 0.08 0.73 0.15 0.84 0.34 0.88 1.1 0.02 0.71 0.02 1.33-0.02 4.71l-0.06 3.9c-0.02 2.06-0.05 3.81-0.17 4.73-0.09 0.65-0.13 0.97-0.59 1.05-0.21 0.05-0.48 0.09-0.8 0.07-0.27 0-0.44 0.25-0.44 0.36 0 0.16 0.23 0.4 0.52 0.4 0.89 0.02 2.3-0.03 2.8-0.03 1.33 0.03 2.82 0.17 6.19 0.21 0.84 0.02 1.07-0.14 1.24-0.73 0.13-0.45 0.34-1.94 0.34-2.46 0-0.21-0.04-0.57-0.23-0.57-0.15 0-0.28 0.25-0.32 0.5-0.17 0.91-0.38 1.18-0.95 1.45-0.59 0.26-1.51 0.23-2.1 0.23-2.27-0.04-2.59-0.18-2.61-1.72-0.02-0.63 0.04-2.69 0.04-3.45l0.02-1.75c0-0.13-0.02-0.04 0.09-0.04 0.54 0.02 2.75 0.06 3.18 0.11 0.82 0.1 1.07 0.27 1.18 0.71 0.06 0.3 0.04 0.57 0.06 0.8 0 0.1 0.12 0.38 0.27 0.38 0.19 0 0.25-0.42 0.25-0.61 0.02-0.15 0.07-1.03 0.11-1.47 0.08-1.14 0.19-1.5 0.19-1.65 0-0.12-0.09-0.33-0.17-0.33-0.13 0-0.25 0.17-0.42 0.33-0.21 0.23-0.51 0.24-1.03 0.26-0.51 0.04-3.08 0-3.56 0-0.15 0-0.12 0.08-0.12-0.07l0.08-5.62c0-0.14 0-0.04 0.13-0.04 0.44 0 2.77 0.09 3.15 0.13 1.12 0.15 1.27 0.25 1.41 0.65 0.11 0.25 0.13 0.63 0.13 0.8 0 0.19 0.1 0.49 0.27 0.49 0.15 0 0.23-0.32 0.26-0.43 0.06-0.25 0.12-1.22 0.14-1.45 0.06-1.01 0.19-1.28 0.19-1.45 0-0.11-0.06-0.38-0.17-0.38zm13.62 0.02c1.29-0.04 3 0.55 3.5 3.28 0.31 1.79-0.15 2.82-0.7 3.41-0.36 0.36-0.59 0.42-1.45 0.57-0.57 0.1-1.24 0.17-1.73 0.1-0.17-0.04-0.14 0.05-0.19-0.19l-1.22-6.67c-0.02-0.17-0.02-0.08 0.13-0.14 0.23-0.11 0.61-0.22 1.14-0.3 0.16-0.03 0.34-0.05 0.52-0.06z" transform="scale(.8)" fill="#f7e400"/>
 </g>
</svg>
