<svg xmlns="http://www.w3.org/2000/svg" width="248.4" height="248.4" viewBox="0 0 248.4 248.4">
 <g transform="matrix(1.3333 0 0 -1.3333 -713.35 417.98)">
  <path d="m628.29 312.24c-50.824 0-92.024-41.201-92.024-92.023 0-50.825 41.2-92.026 92.024-92.026s92.024 41.201 92.024 92.026c0 50.822-41.2 92.023-92.024 92.023zm0-1.0869c24.292 0 47.129-9.4578 64.304-26.634 17.176-17.175 26.634-40.011 26.634-64.302 0-24.292-9.4578-47.129-26.634-64.304-17.175-17.176-40.012-26.634-64.304-26.634-24.292 0-47.128 9.4578-64.304 26.634-17.175 17.175-26.634 40.012-26.634 64.304 0 24.291 9.4588 47.127 26.634 64.302 17.176 17.176 40.012 26.634 64.304 26.634zm0-4.0371c-47.996 0-86.9-38.906-86.9-86.9 0-47.997 38.904-86.9 86.9-86.9 47.993 0 86.9 38.903 86.9 86.9 0 47.994-38.907 86.9-86.9 86.9zm0-1.6289c22.778 0 44.192-8.8711 60.294-24.977 16.105-16.103 24.977-37.516 24.977-60.294 0-22.777-8.8721-44.192-24.977-60.299-16.102-16.101-37.516-24.973-60.294-24.973-22.778 0-44.192 8.8717-60.297 24.973-16.104 16.107-24.974 37.522-24.974 60.299 0 22.778 8.8701 44.191 24.974 60.294 16.105 16.106 37.519 24.977 60.297 24.977zm3.7852-6.4102c-0.368-3e-3 -2.0577-0.10606-5.3877-0.16406-2.373-0.042-3.7911 7e-3 -5.2251-0.019-0.331-8e-3 -0.30434-0.50557-0.31934-0.72657l-0.16992-1.7871c2e-3 -0.092 0.0775-0.2188 0.1875-0.2168 0.238 4e-3 0.25269 0.24273 0.30469 0.42773 0.313 1.017 0.34682 1.295 1.4868 1.314l2.9971 0.0527c0.258-0.014 0.19621-0.71475 0.19921-0.84375l0.16846-9.564c0.019-1.104-1.4367-0.94521-1.4297-1.3872 4e-3 -0.184 0.0591-0.23884 0.22413-0.23584 0.111 2e-3 0.45999 0.0822 2.521 0.11719 0.533 0.01 1.0478-0.0544 1.4898-0.0454 0.184 2e-3 0.1626 0.16765 0.1626 0.22265-0.01 0.57-1.4906-0.0626-1.5176 1.4824l-0.16407 9.3823c-0.017 0.974-0.10876 0.8986 0.71924 0.9126l2.6309 0.0469c1.877 0.033 0.90689-1.3816 1.5879-1.3696 0.239 4e-3 0.21783 0.22323 0.19483 0.40723l-0.11719 1.4707c-0.026 0.423-0.12046 0.53095-0.54346 0.52295zm5.852-0.42773c-0.06-0.0179-0.10508-0.0606-0.12158-0.14209-0.083-0.396 1.5411-0.35678 1.2861-1.6758l-1.916-9.2227c-0.37-1.784-1.6503-0.89743-1.7593-1.4194-0.037-0.18-9.1e-4 -0.28201 0.14209-0.31201 0.073-0.015 0.28499 0.016 1.563-0.24903 0.955-0.199 2.2562-0.5438 2.4902-0.5918 0.162-0.034 0.29888-7e-3 0.31788 0.0835 0.116 0.558-1.6788 0.5177-1.4238 1.7417l0.93164 4.4854c0.041 0.199 0.0638 0.30721 0.27978 0.26221l6.646-1.3799c0.218-0.045 0.11273-0.19247 0.0527-0.48047l-0.89941-4.3228c-0.236-1.135-1.4437-0.62222-1.5337-1.0532-0.06-0.289 0.22179-0.29073 0.38379-0.32373 0.343-0.071 0.86116-0.10377 2.0142-0.34277 0.649-0.135 1.1932-0.32381 1.6802-0.42481 0.125-0.026 0.2317 0.12178 0.2417 0.17578 0.094 0.451-1.6133 0.46625-1.3403 1.7812l1.9834 9.5464c0.257 1.243 1.3998 0.68674 1.4678 1.0107 0.022 0.108 0.0237 0.29605-0.44531 0.39405-0.359 0.074-0.6455 0.0578-1.3125 0.19482-0.341 0.072-1.2629 0.33843-1.8589 0.46143-0.269 0.057-0.3237-0.0253-0.3457-0.13331-0.086-0.41399 1.3298-0.38783 1.0708-1.6318l-0.76611-3.6929c-0.015-0.072-0.0739-0.52919-0.25489-0.49219l-6.5918 1.3682c-0.27 0.057-0.25315 0.12886-0.20215 0.38086l0.80713 3.8906c0.281 1.351 1.507 0.7391 1.582 1.1001 0.015 0.072 8.5e-4 0.18748-0.30615 0.25048-0.558 0.116-1.1314 0.16086-1.6904 0.27686-0.666 0.138-1.2988 0.34293-1.9658 0.48193-0.0725 0.015-0.14655 0.0223-0.20655 4e-3zm-22.301-0.41602c-0.322-0.077-0.6278-0.22608-0.96679-0.30908-0.697-0.17-1.4109-0.26899-2.1079-0.43799-0.054-0.016-0.15676-0.13512-0.13476-0.22412 0.166-0.678 1.6449 0.47581 2.0889-1.3462l1.4106-5.7891c0.514-2.109 0.28676-4.513-3.0732-5.332-2.412-0.587-4.5896 0.26405-5.2866 3.123l-1.563 6.416c-0.314 1.287 1.0068 1.0776 0.88476 1.5776-0.053 0.215-0.52769 0.0616-0.61669 0.0396-0.554-0.133-1.1082-0.3434-1.6802-0.4834-0.483-0.118-0.94665-0.15507-1.4106-0.26807-0.09-0.024-0.3801-0.15185-0.3501-0.27685 0.139-0.572 1.4828 0.21024 1.7388-0.84375l1.4692-6.022c0.67099-2.752 2.2038-5.1611 6.9038-4.0151 5.2 1.266 3.9113 5.6279 3.6973 6.5039l-1.3506 5.54c-0.402 1.643 0.74896 1.5068 0.62696 2.0068-0.026 0.108-0.19079 0.16262-0.27979 0.14062zm41.719-4.6831c-0.10112 7e-3 -0.14917-0.0311-0.18017-0.0981-0.093-0.2 0.257-0.40597 0.375-0.50097 0.838-0.553 0.46572-1.354 0.11572-2.105l-3.5435-7.6025c-0.366-0.784-0.61704-1.2344-1.144-1.2334-0.658-0.017-0.81004 0.0927-0.93604-0.0923-0.062-0.133 0.0239-0.21271 0.17286-0.28271 0.667-0.311 1.3904-0.58784 2.0654-0.88184 1.283-0.557 2.5025-1.2474 3.7705-1.8384 0.734-0.342 1.0854-0.54582 1.8984-0.19482 0.603 0.247 1.3079 0.629 1.5879 1.229 0.016 0.033 0.0765 0.20721-0.0395 0.26221-0.217 0.101-1.584-1.3512-5.436 0.44385-1.402 0.653-1.0816 0.99061-0.62256 1.9746l1.4312 3.0674c0.116 0.25 0.19685 0.55704 0.54785 0.39404l2.4668-1.1514c1.401-0.653 0.15097-1.8547 0.66797-2.0947 0.117-0.055 0.21418-0.0196 0.28418 0.13037 0.209 0.45 0.37854 0.90001 0.58154 1.333 0.248 0.533 0.54538 1.0845 0.81738 1.6684 0.062 0.133 0.0978 0.33937-0.0352 0.40137-0.401 0.187-0.57167-1.3573-2.3057-0.54931l-1.8018 0.84082c-0.667 0.311-0.63414 0.29432-0.36914 0.86132l1.4458 3.1025c0.522 1.117 0.45711 1.0663 2.0581 0.31934 0.667-0.31 2.4472-1.0181 2.6162-1.7871 0.088-0.509-0.55334-1.1851-0.15234-1.3711 0.1-0.047 0.3963-0.0229 1.2583 1.8281 0.094 0.2 0.13786 0.38331 6e-3 0.44531-0.519 0.241-2.083 0.8909-2.417 1.0459-0.7 0.327-1.5355 0.79612-4.6875 2.2661-0.2415 0.112-0.39546 0.16342-0.49659 0.16992zm-61.156-2.2456c-1.2492 0.11963-2.5678-0.12742-3.8203-0.76904-3.355-1.72-4.7401-5.5511-2.9941-8.9561 1.77-3.453 5.2371-4.8591 8.7891-3.0381 3.651 1.87 4.973 5.544 3.085 9.227-1.0856 2.1175-2.9776 3.3368-5.0596 3.5361zm-1.6172-0.95361c2.4022 0.0256 4.6563-1.5824 5.8008-3.8174 1.552-3.028 0.61754-5.9259-1.7725-7.1499-3.241-1.661-6.7229 0.25519-8.2749 3.2842-1.325 2.586-0.92041 5.6652 1.8296 7.0752 0.798 0.40875 1.6162 0.59939 2.417 0.60791zm-12.681-6.769c-0.0569 4e-3 -0.10684-0.0187-0.15234-0.0557-0.151-0.123-0.0534-0.30455-0.19043-0.41455-0.212-0.173-1.1308-0.0637-2.9648-1.5527-1.743-1.414-2.6575-3.603-1.1865-5.417 3.025-3.729 7.9286 2.8097 10.165 0.0527 1.216-1.5 0.42047-3.4023-1.0195-4.5703-2.092-1.697-4.2079-0.94992-4.9219-0.44092-0.319 0.239-0.4589 0.4093-0.6709 0.2373-0.15099-0.122-0.0996-0.34115 0.19336-0.57715l1.8735-1.5366c0.269-0.207 2.0782 0.38493 3.1992 1.2949 3.442 2.792 2.8768 5.3171 1.9028 6.5171-3.198 3.942-8.0778-2.623-10.257 0.063-1.066 1.314-0.23413 2.8908 0.96387 3.8628 1.334 1.082 2.9509 1.3522 4.4019 0.49218 0.151-0.091 0.4995-0.30492 0.6665-0.16992 0.152 0.123 0.10068 0.24763-7e-3 0.34863l-1.8032 1.7593c-0.071 0.072-0.13502 0.10269-0.19189 0.10694zm93.81-0.18311c-0.24867-0.0523-0.7967-0.39053-2.4917-1.2905l-9.1553-4.856c-1.013-0.549-1.5156 0.21964-1.7476-0.0894-0.066-0.088-0.0773-0.19474 0.0117-0.26074 0.381-0.288 0.82321-0.52817 1.2202-0.82617 0.411-0.31 0.77846-0.67731 1.1895-0.98731 0.192-0.143 0.3635-0.3441 0.5625-0.0791 0.288 0.382-1.0865 0.72635-0.31348 1.7564 0.144 0.191 0.36872 0.36652 0.49072 0.43652l2.4888 1.3506c0.379 0.198 0.64485-9.4e-4 0.92285-0.21094l3.2344-2.4331c0.412-0.309 0.33405-0.59643 0.22705-1.0444l-0.43652-1.5601c-0.151-0.507-0.35073-1.4158-0.59473-1.7388-0.42-0.558-1.1911 0.25046-1.4561-0.10254-0.111-0.146 0.12441-0.32365 0.21241-0.38965 0.397-0.299 0.83786-0.53842 1.2349-0.83642 0.603-0.454 1.1621-0.96544 1.7651-1.4194 0.103-0.077 0.20422-0.15397 0.30322-0.022 0.277 0.367-0.81947 0.6839-0.75147 1.6919 0.049 0.77 0.33688 1.52 0.52588 2.231l2.6382 9.8716c0.044 0.15 0.26161 0.65436 0.0996 0.77636-0.0477 0.036-0.0973 0.0497-0.18018 0.0322zm-1.6523-1.7153c0.0386-0.029 0.0412-0.1008 0.0117-0.2168l-1.2246-4.6274c-0.07-0.246-0.13257-0.36019-0.45557-0.11719l-2.9106 2.1899c-0.191 0.143-0.25068 0.28069 7e-3 0.40869l4.3491 2.3232c0.11 0.055 0.18403 0.0686 0.22266 0.0396zm-45.759-1.2583c-33.253 0-60.209-26.958-60.209-60.209 0-33.252 26.957-60.209 60.209-60.209 33.253 0 60.209 26.958 60.209 60.209 0 33.252-26.957 60.209-60.209 60.209zm0-1.7886c32.214 0 58.421-26.208 58.421-58.421 0-32.214-26.207-58.421-58.421-58.421-32.214 0-58.421 26.207-58.421 58.421 0 32.213 26.207 58.421 58.421 58.421zm56.128-4.7095c-0.72556 0.0105-1.4498-0.23293-2.1094-0.81006-3.616-3.16 3.0934-7.8188 0.42041-10.156-1.454-1.272-3.3825-0.54639-4.6025 0.84961-1.773 2.028-1.1022 4.1688-0.61816 4.9028 0.227 0.327 0.3914 0.47222 0.2124 0.67822-0.129 0.147-0.34529 0.0861-0.57129-0.21386l-1.4648-1.9292c-0.198-0.277 0.45671-2.0629 1.4077-3.1509 2.916-3.336 5.4186-2.6777 6.5816-1.6597 3.824 3.342-2.9146 7.9769-0.31055 10.254 1.274 1.113 2.881 0.33922 3.895-0.82178 1.13-1.293 1.4578-2.8994 0.65185-4.3814-0.086-0.154-0.28748-0.51036-0.14648-0.67236 0.129-0.146 0.25063-0.0905 0.34863 0.0205l1.6919 1.8677c0.14 0.148 0.11755 0.2577 0.0395 0.3457-0.128 0.147-0.30588 0.0423-0.42188 0.17432-0.18 0.207-0.10467 1.1282-1.6597 2.9062-0.92249 1.0562-2.135 1.7785-3.3442 1.7959zm-56.128-2.4507s-0.77491-16.408-0.77491-17.172 0.34491-1.3828 0.77491-1.3828c0.429 0 0.77636 0.61881 0.77636 1.3828s-0.77636 17.172-0.77636 17.172zm-7.125-0.93604s3.4959-16.05 3.6929-16.787c0.198-0.737 0.69742-1.2477 1.1074-1.1367 0.418 0.112 0.58958 0.79962 0.39258 1.5366-0.197 0.736-5.1929 16.387-5.1929 16.387zm14.249 0s-4.9939-15.651-5.1899-16.387c-0.198-0.737-0.0234-1.4246 0.38965-1.5366 0.415-0.111 0.90996 0.39972 1.106 1.1367 0.197 0.737 3.6943 16.787 3.6943 16.787zm-20.889-2.751s7.5345-14.599 7.9175-15.259c0.381-0.661 0.99031-1.0231 1.3623-0.80713 0.37 0.211 0.36496 0.92049-0.019 1.5835-0.38 0.659-9.2607 14.483-9.2607 14.483zm27.526 0s-8.8768-13.824-9.2578-14.483c-0.381-0.663-0.38851-1.3725-0.0205-1.5835 0.375-0.216 0.98423 0.14613 1.3652 0.80713 0.384 0.66 7.9131 15.259 7.9131 15.259zm51.727-3.5654c-0.19743 0.0429-0.47181-0.12361-0.62256-0.19335l-1.648-0.71338c-0.079-0.046-0.1546-0.175-0.0996-0.271 0.119-0.207 0.33594-0.10406 0.52294-0.0601 1.042 0.217 1.2992 0.32396 1.8662-0.66504l1.4941-2.6001c0.113-0.232-0.52961-0.51754-0.64161-0.58154l-8.2925-4.7637c-0.95699-0.551-1.5203 0.80154-1.9043 0.58154-0.159-0.091-0.17868-0.16754-0.0967-0.31054 0.055-0.096 0.29236-0.36293 1.3184-2.1489 0.266-0.462 0.45822-0.94561 0.67822-1.3286 0.092-0.159 0.22639-0.0602 0.27539-0.0322 0.494 0.284-0.77503 1.273 0.56397 2.042l8.1328 4.6743c0.846 0.485 0.7369 0.52903 1.1499-0.18897l1.3096-2.2808c0.934-1.628-0.77259-1.4622-0.43359-2.0522 0.118-0.206 0.30163-0.0816 0.45263 0.0264l1.229 0.81153c0.358 0.227 0.40775 0.36249 0.19775 0.72949-0.183 0.318-1.091 1.7478-2.748 4.6348-1.183 2.058-1.826 3.3229-2.54 4.5659-0.0412 0.072-0.0983 0.11022-0.16407 0.12451zm-84.949-0.80859s11.055-12.152 11.594-12.691c0.54-0.539 1.2224-0.73419 1.5264-0.4292 0.302 0.304 0.1108 0.98537-0.4292 1.5264-0.54 0.539-12.691 11.594-12.691 11.594zm38.924 0s-12.155-11.055-12.694-11.594c-0.53599-0.541-0.72926-1.2224-0.42626-1.5264 0.30399-0.30499 0.98683-0.1088 1.5278 0.4292 0.539 0.54 11.593 12.691 11.593 12.691zm-86.191-0.89502c-0.0663-7e-3 -0.11948-0.0276-0.14648-0.0703-0.128-0.202 0.0921-0.40655 1.4751-2.5606l5.5913-8.7231c0.631-0.964-0.0931-1.5284 0.23291-1.7344 0.094-0.059 0.20175-0.0618 0.26075 0.0322 0.255 0.404 0.45717 0.86467 0.72217 1.2847 0.27499 0.436 0.61223 0.83255 0.88623 1.2686 0.128 0.202 0.31222 0.3909 0.0322 0.5669-0.405 0.255-0.63512-1.143-1.7241-0.45704-0.203 0.127-0.39607 0.33618-0.47607 0.45118l-1.5513 2.3701c-0.228 0.361-0.0527 0.6425 0.1333 0.9375l2.1592 3.4233c0.275 0.436 0.56646 0.38202 1.0225 0.31202l1.5908-0.30616c0.518-0.109 1.4397-0.2337 1.7827-0.4497 0.591-0.373-0.15327-1.2093 0.21973-1.4443 0.156-0.098 0.31307 0.15309 0.37207 0.24609 0.265 0.422 0.46742 0.87979 0.73242 1.3008 0.402 0.639 0.86656 1.237 1.2686 1.875 0.069 0.108 0.13707 0.21623-3e-3 0.30323-0.389 0.246-0.61598-0.87316-1.626-0.88916-0.77-0.014-1.5416 0.21131-2.2646 0.34131l-10.055 1.8149c-0.1155 0.024-0.43671 0.12835-0.63574 0.10693zm1.897-1.727 4.7109-0.83936c0.251-0.05 0.37128-0.10377 0.15528-0.44677l-1.9424-3.0806c-0.127-0.202-0.25869-0.27237-0.40869-0.0264l-2.6719 4.1426c-0.128 0.211-0.0793 0.28949 0.15674 0.25049zm40.994-3.0762s13.823-8.8788 14.486-9.2578c0.663-0.382 1.372-0.39351 1.585-0.0205 0.215 0.372-0.14559 0.9813-0.80859 1.3623-0.658 0.384-15.262 7.916-15.262 7.916zm47.673 0s-14.597-7.532-15.258-7.916c-0.662-0.381-1.0221-0.9903-0.80713-1.3623 0.212-0.373 0.92196-0.36149 1.585 0.0205 0.659 0.379 14.48 9.2578 14.48 9.2578zm-95.498-4.6597c-0.155 0.056-0.26252-0.0224-0.33252-0.2124-0.088-0.242-0.11255-0.52645-0.41455-1.3564-0.138-0.38-0.34587-0.73521-0.48486-1.1162-0.062-0.172-0.0412-0.27784 0.13183-0.33984 0.397-0.145 0.47063 1.08 1.2656 0.79101 0.389-0.064 0.86638-0.47143 1.0884-0.66943l6.3208-5.7056c0.176-0.162 0.4336-0.31333 0.3706-0.48632-0.069-0.19-0.50945-0.16787-1.5644-0.21387l-8.2207-0.43506c-0.18099-0.013-0.48942 1e-3 -0.73242 0.0893-0.622 0.227-0.37456 0.95779-0.62256 1.0298-0.104 0.038-0.2242-0.0757-0.2622-0.17871-0.088-0.243-0.25727-0.9246-0.42627-1.3916-0.19-0.517-0.45393-1.0285-0.64893-1.5645-0.057-0.155-1e-3 -0.27259 0.15381-0.32959 0.381-0.139 0.37824 0.87957 1.5732 0.93457l11.647 0.59766c0.42 0.023 1.2218-0.0338 1.3228 0.24317 0.095 0.25899-0.43241 0.58903-0.79541 0.93603l-8.6162 8.0068c-0.982 0.906-0.37293 1.2321-0.75293 1.3711zm71.663-1.2686c-4.328 0-7.8402-3.7349-7.8472-8.0669h15.691c-6e-3 4.332-3.5162 8.0669-7.8442 8.0669zm-26.587-0.71045s15.649-5.0003 16.387-5.1943c0.737-0.196 1.4227-0.0219 1.5337 0.39111 0.111 0.415-0.39679 0.91043-1.1338 1.1074-0.733 0.198-16.787 3.6958-16.787 3.6958zm53.172 0s-16.05-3.4978-16.787-3.6958c-0.737-0.197-1.2453-0.69243-1.1353-1.1074 0.112-0.413 0.79962-0.58711 1.5366-0.39111 0.738 0.194 16.386 5.1943 16.386 5.1943zm46.315-1.1543c-0.209-0.07-0.11308-0.46716-0.10108-0.61816 0.179-0.988-0.6584-1.2706-1.4414-1.5366l-7.9468-2.6909c-0.819-0.277-1.3176-0.40691-1.6816-0.0249-0.467 0.464-0.49092 0.65077-0.71192 0.61377-0.14-0.047-0.13842-0.1638-0.0864-0.3208 0.237-0.697 0.53655-1.411 0.78955-2.102 0.483-1.313 0.82788-2.6726 1.2759-3.9976 0.26-0.767 0.35341-1.1619 1.1704-1.5059 0.594-0.265 1.3583-0.51229 1.9863-0.30029 0.035 0.013 0.20213 0.0889 0.16113 0.21094-0.076 0.226-2.0721 0.21133-3.4351 4.2363-0.495 1.464-0.0304 1.4669 0.99756 1.8149l3.208 1.0854c0.261 0.089 0.53811 0.24148 0.66211-0.12451l0.87304-2.5796c0.497-1.464-1.2372-1.3911-1.0532-1.9321 0.041-0.122 0.13304-0.16826 0.29004-0.11426 0.471 0.159 0.91123 0.34698 1.3652 0.50098 0.557 0.189 1.161 0.35403 1.771 0.56103 0.14 0.047 0.3136 0.16469 0.2666 0.30469-0.141 0.419-1.3757-0.5254-1.9907 1.2876l-0.63721 1.8823c-0.236 0.697-0.22386 0.66179 0.36914 0.86279l3.2417 1.0972c1.168 0.395 1.0864 0.40737 1.6524-1.2656 0.236-0.698 0.95362-2.4754 0.51562-3.1274-0.306-0.416-1.2382-0.41989-1.0972-0.83789 0.037-0.105 0.25788-0.30197 2.1929 0.35303 0.209 0.071 0.37073 0.16469 0.32373 0.30469-0.183 0.54-0.79459 2.1207-0.91259 2.4697-0.248 0.73099-0.48461 1.6611-1.5996 4.9541-0.172 0.506-0.27748 0.58706-0.41748 0.53906zm-83.25-5.1958c-0.763 0-17.172-0.7749-17.172-0.7749s16.409-0.77491 17.172-0.77491c0.76299 0 1.3813 0.34591 1.3813 0.77491s-0.61835 0.7749-1.3813 0.7749zm20.701 0c-0.765 0-1.3843-0.3459-1.3843-0.7749s0.61928-0.77491 1.3843-0.77491c0.758 0 17.171 0.77491 17.171 0.77491s-16.413 0.7749-17.171 0.7749zm-52.469-4.1074v-3.1904h84.236v3.1904zm-30.309-4.6333c-3.1198-0.2181-5.5006-2.5622-5.9092-5.8198-0.469-3.742 1.9169-7.043 5.7129-7.519 3.851-0.483 6.9659 1.5922 7.4619 5.5532 0.511 4.069-1.7812 7.2311-5.8872 7.7461-0.47225 0.0591-0.93273 0.0707-1.3784 0.0396zm149.79-0.82618c-0.622-0.071 0.30966-1.5578-1.4443-1.7578l-9.3032-1.0737c-1.389-0.161-1.2862 1.2029-1.7432 1.1499-0.11-0.013-0.19417-0.0961-0.18017-0.20508 0.08-0.69499 0.23347-1.3817 0.31347-2.0757 0.175-1.518 0.14846-1.9444 0.16846-2.1094 0.017-0.148-3.6e-4 -0.3169 0.18164-0.2959 0.622 0.071-0.16328 1.9079 1.4077 2.0889l3.8569 0.44532c0.183 0.02 0.49889 0.16898 0.56689-0.41602 0.237-2.047 0.25853-1.767-0.68847-2.543l-2.9648-2.398c-0.96099-0.815-1.8107-1.6342-1.6567-2.9692 0.019-0.164 0.13595-1.1886 0.35595-1.1616 0.438 0.049-0.33995 0.86753 1.519 2.4155l4.27 3.5859c0.659-1.221 2.0027-2.1024 3.4277-1.9394 3.527 0.407 2.6971 4.4058 2.6631 4.6978-0.11 0.951-0.30427 1.984-0.42627 3.044-0.107 0.93099-0.0245 0.84873-0.0615 1.1777-0.027 0.219-0.1522 0.35184-0.2622 0.33984zm-149.13-0.583c0.41476 0.0173 0.83292 8.5e-4 1.248-0.0513 3.377-0.424 5.2427-2.8252 4.9087-5.4902-0.453-3.615-3.997-5.4137-7.374-4.9907-2.884 0.362-5.2004 2.4335-4.8164 5.5005 0.39112 3.1132 3.1304 4.9103 6.0337 5.0317zm70.715-1.2803c-4.978 0-9.5083-4.2654-9.5083-8.9824 0-12.513 17.625-8.8928 17.625-16.364 0-3.344-3.3952-5.3144-6.3442-5.3144-3.965 0-7.9946 3.2051-9.5566 6.8291-0.291 0.689-0.50419 1.9204-1.3462 1.9204-0.717 0-0.88623-0.36401-0.88623-0.68701 0-0.412 0.21337-1.0499 0.29737-1.4619l1.4736-6.3721c0.171-0.644 0.84316-0.68869 1.2642-0.78369 2.573-0.548 5.926-1.5088 8.625-1.5088 6.282 0 10.482 5.6815 10.482 10.126 0 12.649-17.631 8.5273-17.631 16.321 0 2.608 3.2259 4.2158 5.7978 4.2158 3.206 0 7.7795-3.0241 8.7495-6.3721 0.338-1.146 0.5101-1.8779 1.2671-1.8779 0.59 0 0.84082 0.41227 0.84082 1.0093 0 0.501-0.67386 4.6732-0.58886 7.2832 0 0.597-0.12437 0.87304-0.67237 0.87304-0.379 0-1.3085-0.64306-1.7725-0.64306-1.392 0-4.5347 1.7886-8.1167 1.7886zm-40.556-0.41162c-0.272 0-0.5083 1.1e-4 -0.5083-0.73389 0-0.73399 0.54659-0.872 1.8296-1.604 1.443-0.822 2.0259-3.3453 2.0259-5.0903v-17.275c0-2.52-0.62291-3.8528-2.6499-5.1358-0.581-0.367-1.0459-0.59615-1.0459-1.3272 0-0.73799 0.42691-0.73681 0.81591-0.73681 1.362 0 2.7249 0.36767 4.0869 0.36767 1.364 0 2.7254-0.36767 4.0884-0.36767 0.704 0 1.6348-1e-3 1.6348 0.91699 0 0.872-1.2863 0.77997-2.2573 1.147-1.869 0.689-2.5298 2.3864-2.5298 4.6304v16.362c0 1.1 0.11355 1.2378 0.31055 1.2378 0.193 0 1.0116-0.86945 1.8296-1.8354l16.704-20.121c0.972-1.144 1.9861-2.291 2.4141-2.291 0.465 0 0.62109 0.55088 0.62109 2.5679v22.094c0 2.52 0.58689 3.8468 2.6089 5.1328 0.586 0.363 1.0532 0.59315 1.0532 1.3271 0 0.734-0.42878 0.73389-0.82178 0.73389-1.36 0-2.7214-0.36914-4.0854-0.36914-1.362 0-2.7259 0.36914-4.0869 0.36914-0.7 0-1.4429 1.1e-4 -1.4429-0.73389 0-0.73399 1.0534-1.0551 2.0654-1.3271 2.412-0.646 2.5708-3.4398 2.5708-6.4658v-10.403c0-0.643-0.0396-1.2817-0.35156-1.2817-0.235 0-0.78169 0.59186-1.3257 1.2349l-15.066 18.381c-0.351 0.457-0.62502 0.59619-1.478 0.59619-1.169 0-2.3384-0.1831-3.5054-0.1831-1.167 0-2.3349 0.1831-3.5039 0.1831zm54.472 0c-1.929 0-2.2837-0.23012-2.2837-0.87012 0-0.598 0.31317-0.96533 0.82617-0.96533 1.655 0 2.9971-0.96266 2.9971-3.8057v-14.433c0-8.711 4.2141-12.239 11.433-12.239 8.908 0 13.444 5.1805 13.444 15.354v9.7646c0 3.985 0.31152 4.8094 1.4575 5.3584 0.669 0.324 1.3799 0.36757 1.3799 1.1016 0 0.55-0.12067 0.73389-0.90967 0.73389-1.183 0-2.3634-0.18457-3.5464-0.18457-1.185 0-2.3633 0.18457-3.5493 0.18457-0.982 0-1.459-0.18389-1.459-0.73389 0-0.73399 0.59063-1.0556 1.2656-1.1016 2.165-0.136 3.1919-1.602 3.1919-3.939v-11.689c0-5.086-1.7345-11.643-8.7935-11.643-4.849 0-7.9248 3.8523-7.9248 9.2153v14.25c0 1.653 0.59104 3.0727 1.894 3.8057 0.631 0.367 1.1821 0.55157 1.1821 1.1016 0 0.457-0.19812 0.73389-1.1411 0.73389-1.578 0-3.1559-0.36914-4.7329-0.36914-1.578 0-3.1524 0.36914-4.7314 0.36914zm63.79-0.86279c0.713 0.081 0.72188-0.30687 0.79688-0.96387 0.206-1.791-0.34667-3.5775-2.5767-3.8335-2.266-0.26299-2.7977 1.4528-2.8887 2.2398-0.099 0.858-0.32064 1.9815 0.0264 2.0215zm-10.368-12.684c-0.091 0.01-0.20305 5e-3 -0.22705-0.21534-0.015-0.128-0.0496-1.0866-0.12158-1.7256-0.101-0.896-0.23226-1.4004-0.28125-1.8384-0.021-0.184 0.12333-0.21852 0.21533-0.22852 0.493-0.056 0.0356 1.6245 1.6816 1.4385l7.478-0.84229c0.36499-0.043 0.41376-0.10378 0.40576-0.17578-0.015-0.129-0.35058-0.3137-0.39258-0.3457l-9.7354-6.8613c-0.465-0.337-0.5778-0.51021-0.5918-0.6372-0.016-0.147 0.23658-0.19342 0.76758-0.25342l10.586-1.1953c1.335-0.151 0.88438-1.194 1.3594-1.248 0.109-0.012 0.17257 0.0555 0.18457 0.16552 0.05 0.44 0.0662 1.235 0.13623 1.856 0.066 0.586 0.19874 1.1073 0.26074 1.6553 0.012 0.108-0.0317 0.20619-0.15967 0.22119-0.604 0.068-0.13771-2.0391-2.5327-1.7681l-7.6421 0.86133c-0.147 0.018-0.20029 0.0426-0.19629 0.0776 5e-3 0.037 0.0861 0.10421 0.22705 0.19921l10.693 7.6216c0.14 0.096 0.45015 0.22673 0.47315 0.42773 0.031 0.275-9e-3 0.57608 0.022 0.85107 0.033 0.292 0.13592 0.55708 0.16992 0.85108 0.011 0.091-0.0409 0.28243-0.15088 0.29443-0.677 0.076 0.13403-2.2557-3.668-1.8267l-6.7471 0.76172c-2.56 0.29-1.5738 1.8074-2.2148 1.8794zm-132.33-1.4033c-0.13275 9e-3 -0.32972-8e-3 -0.59472-0.0366l-10.588-1.1587c-1.334-0.147-1.1236 0.969-1.5996 0.917-0.109-0.012-0.15602-0.0922-0.14502-0.20215 0.048-0.441 0.20885-1.2188 0.27685-1.8398 0.065-0.585 0.0484-1.1224 0.1084-1.6714 0.012-0.109 0.0781-0.19418 0.20508-0.18018 0.604 0.066-0.31345 2.0192 2.0815 2.2822l7.6436 0.83642c0.147 0.015 0.20254 8.5e-4 0.20654-0.0352 4e-3 -0.036-0.0612-0.11624-0.17724-0.24024l-8.7539-9.7837c-0.117-0.125-0.39114-0.32002-0.36914-0.52002 0.03-0.275 0.13553-0.56096 0.16553-0.83496 0.032-0.292-0.0115-0.57419 0.0205-0.86719 0.01-0.091 0.10387-0.26642 0.21387-0.25342 0.676 0.073-0.62675 2.1694 3.1772 2.5854l6.7471 0.73975c2.56 0.28 1.9308-1.4187 2.5708-1.3477 0.091 0.01 0.19878 0.0408 0.17578 0.26075-0.014 0.127-0.19221 1.0705-0.26221 1.7095-0.097 0.896-0.0799 1.4165-0.1289 1.8545-0.02 0.184-0.16828 0.18578-0.25928 0.17578-0.494-0.055 0.32178-1.5935-1.3242-1.7725l-7.478-0.81885c-0.366-0.04-0.42706 7e-3 -0.43506 0.082-0.014 0.127 0.27416 0.38188 0.30616 0.42188l7.9892 8.8301c0.379 0.431 0.45053 0.62346 0.43653 0.75146-8e-3 0.073-0.0767 0.1071-0.20948 0.11573zm23.928-21.508v-6.9858h84.236v6.9858zm-25.399-1.437c-1.101 0-1.9922-0.89072-1.9922-1.9907 0-1.104 0.89119-1.9922 1.9922-1.9922 1.098 0 1.9936 0.88819 1.9936 1.9922 0 1.1-0.89565 1.9907-1.9936 1.9907zm135.03 0c-1.101 0-1.9907-0.89072-1.9907-1.9907 0-1.104 0.88973-1.9922 1.9907-1.9922 1.098 0 1.9922 0.88819 1.9922 1.9922 0 1.1-0.89418 1.9907-1.9922 1.9907zm-125.28-7.5073c-0.478-0.343 0.74969-1.2962-0.1333-1.9292l-5.0361-3.6152c-2.302-1.652-3.964-3.9738-1.144-7.9058 3.121-4.35 6.6835-1.5211 7.4165-0.99609l4.6348 3.3237c1.376 0.987 1.6787-0.13154 2.0977 0.16846 0.089 0.064 0.0789 0.23847 0.0249 0.31347-0.193 0.269-0.44593 0.4943-0.64893 0.7793-0.419 0.583-0.77778 1.2085-1.1968 1.7915-0.031 0.045-0.17989 0.0965-0.25489 0.0425-0.568-0.408 1.0567-1.3479-0.46728-2.4419l-4.8442-3.4746c-1.764-1.266-4.0792-1.9526-6.0952 0.8584-1.448 2.017-1.4711 4.3558 0.91993 6.0718l5.3672 3.8496c1.076 0.77199 1.3769-0.52998 1.7959-0.22998 0.179 0.12899-0.14182 0.51093-0.19482 0.58593-0.332 0.463-0.73513 0.89896-1.0781 1.377-0.29 0.404-0.49783 0.82096-0.77783 1.21-0.053 0.075-0.28025 0.29619-0.38525 0.22119zm115.05-0.32373c-0.057-6e-3 -0.11302-0.0292-0.14502-0.0747-0.303-0.439-0.54561-0.92037-0.84961-1.3594-0.25-0.363-0.57224-0.69948-0.82324-1.0635-0.114-0.165-0.19067-0.33715 7e-3 -0.47315 0.36299-0.251 0.82977 1.1033 1.5718 0.59034 0.409-0.283 0.51831-0.67109 0.61231-0.89209l1.4502-3.3062c0.114-0.257 0.15747-0.42204 0.10547-0.49804-0.063-0.09-0.21693-0.1168-0.48193-0.1128l-4.188 0.18604c-0.199 4e-3 -0.56659-0.0113-0.80859 0.15674-0.438 0.302 0.0383 1.0256-0.21973 1.2026-0.135 0.095-0.2761-0.0771-0.3501-0.1831-0.103-0.152-0.32636-0.60256-0.67236-1.1016-0.71-1.03-0.96944-1.2741-1.2524-1.6831-0.072-0.106-0.0137-0.28049 0.0923-0.35449 0.258-0.177 0.58726 0.68881 1.5103 0.63281l5.7876-0.26367c0.265-4e-3 0.72568 0.0144 1.0137-0.18457l3.6636-2.5327c1.075-0.742-0.12617-1.6347 0.29883-1.9277 0.166-0.116 0.24438-0.0349 0.33838 0.10107 0.094 0.137 0.41083 0.72333 0.88183 1.4033 0.386 0.561 1.053 1.397 1.21 1.623 0.147 0.213 0.22636 0.3601 0.0894 0.4541-0.469 0.325-0.90371-1.2103-2.2207-0.30029l-3.7075 2.5635c-0.227 0.157-0.2182 0.32949-0.4292 0.83349l-1.8369 4.3989c-0.211 0.504-0.49803 0.99331-0.45703 1.5703 0.012 0.147 0.12792 0.44604-0.0381 0.56104-0.038 0.0265-0.0953 0.0392-0.15235 0.0337zm-8.6191-11.793c-0.11212 7e-3 -0.22632-0.0597-0.38232-0.20215-0.271-0.249-1.4702-1.4453-3.9272-3.6943-1.751-1.603-2.8448-2.5056-3.9038-3.4746-0.245-0.223 0.1057-0.57693 0.2417-0.75293l1.0547-1.4531c0.062-0.067 0.20364-0.11355 0.28564-0.0395 0.177 0.161 0.0273 0.35142-0.0557 0.52441-0.439 0.97-0.59784 1.1988 0.24316 1.9688l2.2134 2.0244c0.202 0.161 0.61906-0.40451 0.70606-0.49951l6.4614-7.0576c0.745-0.814-0.45181-1.6603-0.15381-1.9863 0.124-0.135 0.2032-0.13837 0.3252-0.0264 0.081 0.074 0.28908 0.36535 1.8091 1.7564 0.394 0.361 0.82244 0.65415 1.1484 0.95215 0.136 0.125 0.0106 0.23293-0.0264 0.27393-0.386 0.421-1.0752-1.0331-2.1182 0.10693l-6.3369 6.9214c-0.658 0.72-0.67545 0.60308-0.0644 1.1631l1.9394 1.7754c1.384 1.267 1.5971-0.43509 2.0991 0.0249 0.17699 0.161 0.0135 0.31205-0.12452 0.43505l-1.062 1.0239c-0.1495 0.15-0.25994 0.22922-0.37207 0.23584zm-96.031-1.4941c-0.065 0.0114-0.13003 4e-3 -0.16553-0.0381-0.431-0.526 1.9652-1.1148-0.46582-4.0708l-4.314-5.2427c-1.637-1.989-2.3717-0.3355-2.7817-0.8335-0.058-0.07-0.11387-0.16762 0.0571-0.30762 0.099-0.081 0.88581-0.6335 1.3828-1.0415 0.696-0.573 1.0467-0.95826 1.3887-1.2393 0.141-0.116 0.24862-0.0139 0.30762 0.0571 0.315 0.384-1.3435 0.91487-0.29151 2.1929l4.7798 5.811c0.234 0.285 0.31114 0.29209 0.36914 0.24609 0.099-0.083 0.0712-0.46216 0.0762-0.51416l0.45117-11.903c0.03-0.573 0.11487-0.76075 0.21387-0.84375 0.114-0.092 0.29188 0.0948 0.62988 0.50684l6.7661 8.2251c0.854 1.038 1.4831 0.0939 1.7871 0.46289 0.069 0.085 0.0469 0.17463-0.0381 0.24463-0.341 0.282-0.99796 0.72847-1.481 1.1265-0.455 0.373-0.82058 0.76814-1.2466 1.1191-0.085 0.068-0.19046 0.0844-0.27246-0.0146-0.386-0.47 1.634-1.2269 0.104-3.0879l-4.8867-5.9385c-0.093-0.114-0.14238-0.14604-0.17138-0.12304-0.028 0.025-0.037 0.12882-0.041 0.29882l-0.56982 13.119c-4e-3 0.17 0.0549 0.50088-0.10108 0.62988-0.213 0.177-0.48719 0.3084-0.70019 0.4834-0.228 0.187-0.3941 0.41944-0.6211 0.60644-0.0355 0.028-0.10052 0.0575-0.16552 0.0688zm83.448-8.8081c-0.0575-3e-3 -0.1367-0.0412-0.2622-0.11865-0.486-0.297-0.93197-0.65901-1.418-0.95801-0.579-0.356-1.1822-0.63909-1.7622-0.99609-0.125-0.078-0.13727-0.13-0.0513-0.271 0.212-0.345 1.2722 0.73996 1.9922-0.39404l4.9321-8.023c0.954-1.551-0.58515-1.7872-0.30616-2.2412 0.096-0.157 0.19215-0.20476 0.47315-0.0308 0.22 0.135 0.51031 0.39784 1.4663 0.98584 0.674 0.414 1.3846 0.76677 1.7446 0.98877 0.267 0.162 0.28626 0.23817 0.21826 0.34717-0.288 0.471-1.4632-0.74667-2.1182 0.31933l-5.1724 8.4141c-0.723 1.175 0.62751 1.5093 0.39551 1.8853-0.0385 0.063-0.0743 0.0954-0.13184 0.0923zm-68.681-2.1431c-0.0383-0.0131-0.0689-0.0539-0.10694-0.12744-0.189-0.358 1.2848-0.71656 0.67676-1.9146l-4.3828-8.3394c-0.847-1.613-1.835-0.40691-2.083-0.87891-0.086-0.163-0.0806-0.2698 0.2124-0.4248 0.228-0.12 0.60461-0.23533 1.5996-0.75733 0.7-0.368 1.3648-0.80155 1.7388-0.99755 0.277-0.146 0.35309-0.12133 0.41309-7e-3 0.257 0.488-1.3906 0.87394-0.8086 1.9819l4.5967 8.7466c0.642 1.222 1.6173 0.23109 1.8223 0.62109 0.069 0.132 0.0383 0.18966-0.22266 0.32666-0.505 0.262-1.0448 0.46156-1.5498 0.72656-0.603 0.317-1.1548 0.69035-1.7578 1.0064-0.065 0.036-0.1097 0.0512-0.14795 0.0381zm60.1-3.044c-0.0526 0.0216-0.10713 0.0156-0.16113-6e-3 -0.183-0.071-0.14655-0.27291-0.31055-0.33691-0.255-0.098-1.0939 0.28564-3.2959-0.56836-2.092-0.811-3.6345-2.612-2.7905-4.79 1.734-4.476 8.405 0.23968 9.687-3.0703 0.698-1.801-0.64358-3.3666-2.3716-4.0356-2.513-0.974-4.2939 0.38731-4.8179 1.0913-0.231 0.325-0.31043 0.53013-0.56543 0.43213-0.182-0.07-0.20014-0.29537 6e-3 -0.60937l1.3125-2.0376c0.192-0.28 2.0939-0.27251 3.4409 0.25049 4.131 1.6 4.3676 4.1781 3.8086 5.6191-1.833 4.733-8.4917-0.0185-9.7397 3.2065-0.612 1.578 0.66458 2.8224 2.1006 3.3794 1.603 0.622 3.2228 0.38117 4.3418-0.88183 0.113-0.133 0.38008-0.44421 0.58008-0.36621 0.183 0.07 0.17207 0.20545 0.10107 0.33545l-1.1763 2.2251c-0.0455 0.091-0.0968 0.14098-0.14941 0.1626zm-52.022-1.0898c-0.159 0.043-0.27234-0.0187-0.31934-0.17871-0.114-0.389 0.90318-0.32026 1.0342-1.5103l1.3418-11.588c0.05-0.417 0.0461-1.2217 0.32812-1.3037 0.265-0.078 0.55884 0.46901 0.88184 0.85401l7.4414 9.1113c0.841 1.039 1.2058 0.45282 1.3198 0.84082 0.046 0.16-0.0389 0.26087-0.23291 0.31787-0.247 0.075-0.53289 0.0826-1.3799 0.32959-0.389 0.115-0.75505 0.29862-1.144 0.41162-0.176 0.05-0.28052 0.0232-0.33252-0.15381-0.119-0.406 1.1086-0.40136 0.87158-1.2144-0.038-0.391-0.41612-0.89393-0.59912-1.1279l-5.2896-6.6753c-0.151-0.186-0.28589-0.45237-0.46289-0.40137-0.194 0.057-0.19947 0.49834-0.31347 1.5483l-0.96094 8.1812c-0.023 0.179-0.0305 0.48588 0.0425 0.73388 0.186 0.635 0.93377 0.43648 0.98877 0.68848 0.031 0.106-0.0898 0.21756-0.19483 0.24756-0.248 0.076-0.9395 0.20277-1.4165 0.34277-0.53 0.154-1.057 0.38539-1.604 0.54639zm35.254-3.6035c-0.76748 1e-3 -1.3923-0.15083-1.5015-0.16845-0.945-0.151-1.968-0.39011-3.022-0.55811-0.926-0.149-0.8478-0.0608-1.1748-0.11279-0.218-0.036-0.34613-0.16832-0.32813-0.27832 0.098-0.617 1.5428 0.37776 1.8208-1.3652l1.481-9.2476c0.221-1.38-1.1443-1.339-1.0723-1.793 0.017-0.109 0.1044-0.18792 0.2124-0.16992 0.69 0.109 1.3696 0.29384 2.0596 0.40283 1.508 0.242 1.9376 0.23521 2.1006 0.26221 0.14599 0.023 0.3171 0.0138 0.2871 0.19483-0.098 0.618-1.8989-0.24704-2.1489 1.314l-0.61377 3.8335c-0.029 0.181-0.18989 0.49047 0.39111 0.58447 2.034 0.326 1.7523 0.33732 2.5693-0.57568l2.5268-2.8564c0.856-0.925 1.7121-1.7384 3.0381-1.5264 0.163 0.027 1.182 0.18923 1.147 0.40723-0.069 0.436-0.85344-0.37735-2.4814 1.4106l-3.769 4.1118c1.19 0.712 2.0126 2.0903 1.7856 3.5083-0.35125 2.1912-2.0285 2.6201-3.3076 2.6221zm-18.735-0.44385c-0.532 0.028-0.64579-0.039-0.65479-0.18603-0.013-0.22 0.38921-0.2792 0.53321-0.3252 0.984-0.204 0.9313-1.0871 0.8833-1.9131l-0.48926-8.373c-0.05-0.863-0.11645-1.3739-0.60644-1.5659-0.604-0.26-0.78643-0.21366-0.83643-0.43066-8e-3 -0.147 0.1006-0.18922 0.2666-0.19922 0.733-0.043 1.5081-0.0336 2.2441-0.0586 1.397-0.044 2.7861-0.23541 4.1821-0.31641 0.808-0.047 1.209-0.10744 1.834 0.51856 0.469 0.45199 0.98493 1.0675 1.0239 1.7285 2e-3 0.036-7e-3 0.21905-0.13623 0.22705-0.238 0.014-0.97238-1.8403-5.2134-1.5923-1.543 0.09-1.3696 0.52147-1.3066 1.6055l0.19629 3.3794c0.016 0.274-0.0213 0.58989 0.36475 0.56689l2.7188-0.1582c1.542-0.09 0.82406-1.6706 1.3931-1.7036 0.128-7e-3 0.20533 0.062 0.21533 0.22705 0.029 0.497 0.0189 0.97659 0.0469 1.4546 0.035 0.588 0.10702 1.21 0.14502 1.853 8e-3 0.145-0.0332 0.34988-0.18018 0.35888-0.441 0.025-0.0309-1.4728-1.9409-1.3608l-1.9834 0.11573c-0.734 0.043-0.69665 0.041-0.66065 0.66503l0.19922 3.4146c0.072 1.23 0.03 1.1592 1.793 1.0562 0.734-0.042 2.6513-0.0438 3.0923-0.6958 0.269-0.439-0.0762-1.3041 0.36475-1.3301 0.11-6e-3 0.37465 0.12704 0.49365 2.165 0.013 0.22-0.0127 0.40555-0.15966 0.41455-0.568 0.036-2.2629 0.061-2.6309 0.082-0.771 0.045-1.7204 0.17447-5.1914 0.37646zm18.122-0.35302c1.2765-0.11681 2.3602-0.79894 2.6265-2.4609 0.36-2.253-1.3313-2.8589-2.1123-2.9839-0.854-0.137-1.9665-0.40898-2.0215-0.063l-0.73828 4.6143c-0.113 0.708 0.27224 0.73289 0.92724 0.83789 0.44525 0.0715 0.89286 0.0946 1.3184 0.0557z" fill="#002a84"/>
 </g>
</svg>