<svg xmlns="http://www.w3.org/2000/svg" width="247" height="80.24" viewBox="0 0 247 80.24">
 <g transform="matrix(1.0267 0 0 1.0267 -1.2222 -.73515)">
  <path fill="#fff" d="m60.6 28c-0.3-2.3-1-4.5-2-6.5-0.7-1.4-1.6-2.7-2.8-3.7-1.5-1.3-3.4-2-5.4-2-0.9 0-1.8 0.1-2.7 0.4l2.6-5.6 0.3-0.7-0.6-0.3-5.1-3.6-0.2-0.2h-4.3c-0.9-0.2-1.8-0.6-2.5-1.2-2.4-1.9-5.3-2.9-8.4-2.9-3.1-0.1-6.1 0.9-8.5 3l-8.8 8.6-0.2 0.2-5.1 5c-0.9 0.9-1.6 1.9-2.1 3.1-1 2.1-1.7 4.2-2 6.5-1 5.3-0.8 10.7 0.5 15.9 1.5 5.5 4.1 10.6 7.6 15.1 4.9 6.2 11.1 11.4 18.1 15.4l2.2 1.3 0.5 0.3 0.5-0.3 2.2-1.3c7-4 13.1-9.3 18.2-15.5 3.5-4.5 6.1-9.6 7.6-15.1 1.1-5.2 1.3-10.6 0.4-15.9z"/>
  <path d="m179.9 18.801c-3.5 0-6.9004 1.7992-6.9004 6.1992-0.2 2.8 1.6008 5.4008 4.3008 6.3008l2.5996 1.0996c2.4 1 3.4004 1.9004 3.4004 3.9004 0 0.2-2e-3 0.39961-0.10156 0.59961-0.2 1.5-1.5996 2.6-3.0996 2.5-2 0-3.3996-0.90078-4.5996-2.8008l-1.8008-2.5996-1.0996 0.19922 0.59961 6.9004 2-1.1992c1.5 0.8 3.3 1.1992 5 1.1992 3.9 0 7.2012-2.1 7.2012-6.5 0-3.4-1.5004-5.2992-4.9004-6.6992l-2.6992-1.0996c-2.2-0.8-3-1.8-3-3.5v-0.30078c0.1-1.5 1.3984-2.6 2.8984-2.5 1.7-0.1 3.3016 0.80078 4.1016 2.3008l1.7988 2.2988 1-0.19922-0.29883-6.0996-1.8008 0.79883c-1.5-0.5-2.9996-0.79883-4.5996-0.79883zm-102.3 0.09961c-6.6 0-10.299 4.1996-10.299 11.1 0 6.8 3.5992 11.1 10.199 11.1s10.301-4.1996 10.301-11.1-3.6012-11.1-10.201-11.1zm116 1.5996-5.7988 5v1.0996h2.1992v9.2012c0 3.8 1.9008 5.1992 4.8008 5.1992 2.1 0.1 4.0988-0.89922 5.2988-2.6992l-0.40039-0.90039c-0.8 0.5-1.6992 0.79883-2.6992 0.79883-1.5 0-2.3008-0.79844-2.3008-2.8984v-8.6016h4.5l0.30078-1.8984h-4.8008v-4.3008zm26.801 0-5.8008 5v1.0996h2.2012v9.2012c0 3.8 1.8988 5.1992 4.7988 5.1992 2.1 0.1 4.1008-0.89922 5.3008-2.6992l-0.40039-0.90039c-0.8 0.5-1.6992 0.79883-2.6992 0.79883-1.5 0-2.3008-0.79844-2.3008-2.8984v-8.6016h4.5l0.30078-1.8984h-4.8008v-4.3008zm-142.8 0.09961c3.3 0 4.8008 2.6004 4.8008 9.4004 0 6.7-1.5008 9.3008-4.8008 9.3008-3.3 0-4.7988-2.5008-4.7988-9.3008s1.4988-9.4004 4.7988-9.4004zm54.6 2.3008c-1 0-1.7988 0.90039-1.7988 1.9004 0 0.3-7.8e-4 0.59844 0.19922 0.89844-1.8-0.8-3.7988-1.1992-5.7988-1.1992-4.6 0-7 2.4992-7 5.6992-0.1 2.2 1.2984 4.1016 3.3984 4.6016-2 0.4-3.3984 1.4984-3.3984 3.3984s1.1988 3.1008 3.2988 3.3008v0.09961c-2.5 0.4-4.0996 1.3004-4.0996 3.4004 0 2.8 3.1992 3.8008 7.6992 3.8008 4.8 0 9.2012-1.6016 9.2012-6.1016 0-3.5-2.2012-5.1992-5.7012-5.1992l-5.5996 0.19922c-0.9 0-1.2988-0.29961-1.2988-1.0996 0-0.8 0.49883-1.2 1.2988-1.5 0.7 0.2 1.4012 0.30078 2.2012 0.30078 3.2 0 6.6992-1.5996 6.6992-5.0996 0-1.5-0.79922-2.9-2.1992-3.5v-0.40039c0.9 0.5 1.8984 0.69883 2.8984 0.79883h0.40039c1.1-0.1 1.9008-1.0992 1.8008-2.1992v-0.19922c0-1.1-0.9-1.9004-2-1.9004zm-32.043 1.4844c-0.18223-0.01406-0.36914-0.0094-0.55664 0.01563-2.4 0-3.8996 1.7992-4.5996 3.6992h-0.09961l0.09961-3.6992h-0.69922l-5.5 1.7988v0.40039l1.5 2.4004v10l-1.5 0.69922v1h8.8984l0.5-1.0996-3.1992-0.69922v-9.0996c0.7-1 1.5992-1.8008 2.6992-2.3008v0.30078c0.1 1.3 1.2 2.2992 2.5 2.1992h0.20117c1.4-0.1 2.3988-1.2992 2.2988-2.6992v-0.40039c-0.175-1.4-1.2674-2.4172-2.543-2.5156zm106.71 0.0059c-2.3967 0.12578-4.573 1.284-6.0606 3.209l0.39844 1.0996c1.4-0.7 2.9004-1.0996 4.4004-1.0996 2.1 0 3.5 1.1012 3.5 3.2012v1.3984c-0.7-0.2-1.4992-0.29883-2.1992-0.29883-4 0-6.5996 1.5988-6.5996 4.7988 0 3.1 2.1 4.4004 4.5 4.4004 2 0 3.5984-0.80039 4.3984-2.4004h0.10156c0.3 1.6 1.5992 2.3007 3.1992 2.3007 1.4 0.1 2.8008-0.40078 3.8008-1.3008l-0.10156-0.69922c-1.7 0.2-2.2988-0.20078-2.2988-1.8008v-7c0-4.4-3-5.7988-6-5.7988-0.35-0.025-0.69668-0.02773-1.0391-0.0098zm-51.561 0.0098-5.5 1.7988v0.40039l1.5 2.4004v10l-1.5 0.69922v1h8l0.5-1.0996-2.2012-0.69922v-9.9005c0.8-0.7 1.8004-1.1992 2.9004-1.1992 1.4 0 2.5996 0.79922 2.5996 3.1992v8l-1.5 0.69922v1h8l0.5-1.0996-2.1992-0.69922v-8.9004c0-3.7-2.0012-5.5996-4.7012-5.5996-2.3 0-4.4996 1.1992-5.5996 3.1992h-0.09961l0.0996-3.1992zm-44.701 0.099533c-4.5 0-8.1992 3.1-8.1992 8.5s3.2004 8.0996 7.4004 8.0996c3.1 0 5.3-1.0992 6.5-3.6992l-0.70117-0.80078c-1 0.9-2.5004 1.4004-3.9004 1.4004-3.1 0-4.5992-2.3-4.6992-5.5h9.5c0.1-0.7 0.19922-1.3996 0.19922-2.0996 0-3.8-2.4996-5.9004-6.0996-5.9004zm30.6 0c-5 0-8.1992 2.8008-8.1992 8.3008 0 5.5 3.2992 8.2988 8.1992 8.2988 5 0 8.2012-2.7988 8.2012-8.2988 0-5.5-3.2012-8.3008-8.2012-8.3008zm93.5 0c-4.4 0-8.0996 3.1-8.0996 8.5s3.2004 8.0996 7.4004 8.0996c3.1 0 5.3-1.0992 6.5-3.6992l-0.69922-0.80078c-1 0.9-2.5004 1.4004-3.9004 1.4004-3.1 0-4.6012-2.3-4.7012-5.5h9.4004c0.1-0.7 0.20117-1.3996 0.20117-2.0996 0-3.8-2.5016-5.9004-6.1016-5.9004zm-110 1.5c1.9 0 2.2012 1.4008 2.2012 3.8008 0 2.4-0.30117 3.7988-2.2012 3.7988s-2.1992-1.3988-2.1992-3.7988c0-2.4 0.29922-3.8008 2.1992-3.8008zm-14.5 0.09961c1.7 0 2.2012 1.5012 2.2012 3.2012 0 0.5 3.9e-4 0.99844-0.0996 1.3984h-5.2012c0.3-3.1 1.3996-4.5996 3.0996-4.5996zm31 0c2.4 0 3.1016 2.2996 3.1016 6.5996 0 4.3-0.70156 6.7012-3.1016 6.7012s-3.0996-2.5012-3.0996-6.7012 0.69961-6.5996 3.0996-6.5996zm93.102 0c1.7 0 2.1992 1.5012 2.1992 3.2012 0 0.5 3.9e-4 0.99844-0.0996 1.3984h-5.0996c0.3-3.1 1.3-4.5996 3-4.5996zm-26 7.5h0.79883v4c-0.6 0.6-1.2996 0.80078-2.0996 0.80078h-0.40039c-1.1-0.2-1.7992-1.2008-1.6992-2.3008 0-2 1.2004-2.5 3.4004-2.5zm-85.9 8.2012h4.5996c2.2 0 2.9004 0.79922 2.9004 2.1992 0 2.3-2.1996 3.0996-5.0996 3.0996-2.5 0-3.9004-0.89883-3.9004-2.7988 0-1 0.6-2 1.5-2.5z" fill="#d73f09"/>
  <path d="m28.418 2.4805c-2.5088 0.083398-4.8934 1.0563-6.8184 2.7188l-9.0996 8.9004-5.0996 5c-0.8 0.8-1.5 1.8008-2 2.8008-0.9 2-1.6004 4.0988-1.9004 6.2988-1 5.1-0.8 10.4 0.5 15.5 1.5 5.4 4 10.401 7.5 14.801 5 6.2 11.1 11.401 18 15.301l2.1992 1.2988 2.2012-1.2988c6.9-4 13-9.2008 18-15.301 3.4-4.4 5.9004-9.4008 7.4004-14.801 1.2-5.1 1.3984-10.4 0.39844-15.5-0.3-2.2-0.99844-4.2988-1.8984-6.2988-0.6-1.3-1.5016-2.5004-2.6016-3.4004-1.3-1.1-3.0988-1.8008-4.7988-1.8008-2.3 0-4.4996 0.9-6.0996 2.5l-2.6016-2.7988 0.40039-0.90039h3.5996l-0.39844 0.90039h1.3984l2.8008-6.0996-5.0996-3.6016h-4c-1.1-0.2-2.2-0.69844-3-1.3984-2.2-1.8-5.0004-2.8008-7.9004-2.8008-0.3625-0.025-0.72363-0.031445-1.082-0.019531zm0.98242 1.2188c2.6 0 5.1992 0.90156 7.1992 2.6016 1.3 0.9 2.4008 1.5996 3.8008 1.5996h3.5996l4 2.7988-1.5996 3.5h-3.5996c-0.5 0-1.0004-0.19961-1.4004-0.59961-0.5-0.5-0.80039-1.0988-0.90039-1.7988h-0.59961c0 0.4-7.81e-4 0.89883 0.19922 1.2988 0.1 0.4 0.40117 0.80117 0.70117 1.2012 0.1 0.2 0.3 0.29844 0.5 0.39844l-0.90039 1.9004 2.4004 2.5996h-1.8008l-3.1992-2.6992h-0.70117l2.3008 2.6992h-4.7012l-2.6992-2.6992h-1.5996c0.3-0.7 0.5-1.5008 0.5-2.3008v-1.1992l-0.09961-0.40039c-0.1-0.6-0.30156-1.0996-0.60156-1.5996-0.3-0.5-0.6-1.0004-1-1.4004l-0.09961-0.099609-0.19922-0.099609-0.30078-0.30078c-0.2-0.2-0.49922-0.3-0.69922-0.5-1-0.6-1.9008-0.9-2.8008-1h-0.79883v0.59961c1 0 1.9988 0.30039 2.7988 0.90039 0.2 0.1 0.39961 0.30039 0.59961 0.40039l0.5 0.5c0.3 0.4 0.60078 0.79922 0.80078 1.1992 0.2 0.4 0.4 0.90039 0.5 1.4004v1.5996c-0.1 1-0.4 1.9016-1 2.6016l-0.69922 1h3.3984l1.5 1.5h-14v-5.2012h-4.5l8.2012-8c0.6-0.6 2.6-2.4004 7-2.4004zm0.23633 1.3262c-0.3625 0-0.73672 0.024219-1.1367 0.074219h-0.09961v0.59961h0.09961c0.6-0.1 1.3 0.00156 2 0.10156 0.7 0.1 1.3004 0.39922 1.9004 0.69922 0.6 0.3 1.1992 0.69961 1.6992 1.0996 0.8 0.7 1.6996 1.3008 2.5996 1.8008v-1.5c-0.7-0.4-1.3-0.80117-2-1.2012-0.6-0.4-1.2984-0.7-1.8984-1-0.7-0.3-1.4016-0.49961-2.1016-0.59961-0.35-0.05-0.7-0.074219-1.0625-0.074219zm10.164 4.0742v1.7012h0.59961c0.1-0.5 0.5-0.9 1-1v-0.70117zm4.3984 0.59961a0.7 0.7 0 0 0-0.69922 0.70117 0.7 0.7 0 0 0 0.69922 0.69922 0.7 0.7 0 0 0 0.70117-0.69922 0.7 0.7 0 0 0-0.70117-0.70117zm-31.299 5.6016h4.5v4.3984l-1.3008 4.5c-0.5 1.9-2.1 3.3-4 3.5h-0.5c-2.4 0-4.4992-1.8988-4.6992-4.2988v-0.30078c0-1.3 0.5-2.5004 1.5-3.4004zm2.2988 1.3984-4.7988 7.5 0.5 0.40039 5.0996-7v-0.90039zm35.201 1.3008c1.5 0 2.9 0.5 4 1.5 1 0.8 1.6988 1.9 2.2988 3 0.9 1.9 1.5008 3.9004 1.8008 5.9004 0.9 5 0.7 10.1-0.5 15-0.9 3.1-2.0992 6.2-3.6992 9l-0.30078 0.40039-0.19922 0.29883-0.30078 0.40039-0.19922 0.5-0.20117 0.40039-0.5 0.69922-0.19922 0.30078-0.40039 0.5-0.19922 0.29883-0.40039 0.5-0.20117 0.20117-0.59961 0.79883-0.5 0.70117c-2.1 2.6-4.4996 5.0988-7.0996 7.2988-2.1 1.8-4.2 3.4004-6.5 4.9004-1.1 0.7-2.3 1.5012-3.5 2.2012l-1.5 0.89844-1.5-0.89844c-6.7-3.9-12.7-9-17.6-15l-0.40039-0.5-0.19922-0.30078-0.40039-0.59961-0.20117-0.40039-0.5-0.69922-0.09961-0.10156-0.5-0.79883c-2.2-3.4-3.9004-7.1-4.9004-11-1.2-4.9-1.4-10-0.5-15 0.2-1.5 0.60156-3.0004 1.1016-4.4004 0.1 0.9 0.5 1.8 1 2.5-0.2 0.7-0.3 1.3992-0.5 2.1992-0.2 1.2-0.40039 2.5012-0.40039 3.7012l8.1992 3.7988c0.1-0.2 0.3-0.39961 0.5-0.59961l0.40039-0.40039-5-6.5c0.9 0.2 1.7992 0.30156 2.6992 0.10156l3.4004 5.5996c0.4-0.2 0.80078-0.30039 1.3008-0.40039l-0.5-8.4004c0.2-0.4 0.30039-0.69961 0.40039-1.0996l1.1992-4v-0.09961h26.4l0.19922-0.20117c1.4-1.5 3.3008-2.2992 5.3008-2.1992zm0 1.6992c-1.9-0.1-3.6996 0.9-4.5996 2.5h-14.602l-10 13c0.1 0.1 0.20039 0.20078 0.40039 0.30078 0.2 0.2 0.4 0.49922 0.5 0.69922l7.2012-3.2988-0.60156 2.5996-6 1.9004c0.1 0.4 0.20117 0.90039 0.20117 1.4004-0.2 0-0.39961-0.10117-0.59961-0.20117s-0.40156-0.19922-0.60156-0.19922l-0.29883-0.09961-0.59961-0.30078c-0.5-0.2-1-0.40039-1.5-0.40039h-2.4004c-0.5 0.1-1 0.20039-1.5 0.40039l-0.59961 0.30078-0.30078 0.09961c-0.2 0.1-0.39961 0.19922-0.59961 0.19922-0.2 0.1-0.39961 0.10117-0.59961 0.20117 0-0.5 0.09922-1.0004 0.19922-1.4004l-7.6992-2.5c0 0.9-3.905e-4 1.7992 0.099609 2.6992v1.3008h0.79883l0.5 0.09961c0.5 0.1 1.1 0.29961 1.5 0.59961 1 0.5 2.1012 0.80078 3.2012 0.80078s2.1992-0.20078 3.1992-0.80078c0.2-0.1 0.50117-0.19883 0.70117-0.29883 0.5-0.2 1.0992-0.30078 1.6992-0.30078h0.69922c0.5 0 1.1016 0.10078 1.6016 0.30078 0.3 0.1 0.49883 0.19883 0.79883 0.29883 1 0.5 2.1012 0.80078 3.2012 0.80078s2.1992-0.20078 3.1992-0.80078l0.5-0.19922-0.30078 1.1992 1.1016-0.19922-0.30078 1.2988c-0.6 0.1-1.0996 0.30156-1.5996 0.60156-0.9 0.5-1.8008 0.69922-2.8008 0.69922s-1.8988-0.19922-2.7988-0.69922c-1-0.5-2.1012-0.80078-3.2012-0.80078s-2.1992 0.20078-3.1992 0.80078c-0.9 0.5-1.8008 0.69922-2.8008 0.69922s-1.8988-0.19922-2.7988-0.69922c-0.5-0.3-1.0016-0.50156-1.6016-0.60156-0.3 0-0.49883-0.09961-0.79883-0.09961 0.1 0.3 0.099219 0.60039 0.19922 0.90039h0.80078l0.29883 0.099609 0.30078 0.09961c0.3 0.1 0.7 0.30039 1 0.40039 1 0.5 2.0992 0.80078 3.1992 0.80078s2.2012-0.20078 3.2012-0.80078c0.9-0.5 1.7988-0.69922 2.7988-0.69922s1.9008 0.19922 2.8008 0.69922c1 0.5 2.0992 0.80078 3.1992 0.80078s2.2012-0.20078 3.2012-0.80078c0.3-0.2 0.7-0.30039 1-0.40039l-0.59961 2.6016c-0.3 0.1-0.60039 0.29844-0.90039 0.39844-0.8 0.5-1.8012 0.70117-2.7012 0.70117s-1.8992-0.20117-2.6992-0.70117c-1-0.5-2.0992-0.79883-3.1992-0.79883s-2.2012 0.19883-3.2012 0.79883c-1.1 0.3-2.1 0.5-3 0.5s-1.8992-0.19922-2.6992-0.69922l-0.59961-0.30078c-0.4-0.2-0.90078-0.29844-1.3008-0.39844 0.2 0.5 0.3 0.89844 0.5 1.3984 0.8 2 1.7008 3.9008 2.8008 5.8008l0.09961 0.30078 0.19922 0.39844 0.20117 0.30078 0.19922 0.40039 0.19922 0.29883 0.20117 0.40039 0.19922 0.30078 0.20117 0.29883 0.29883 0.40039 0.20117 0.30078 0.29883 0.40039 0.20117 0.19922 0.5 0.69922c4.8 5.8 10.599 10.8 17.199 14.5l0.59961 0.40039 0.59961-0.40039c6.6-3.8 12.402-8.6996 17.102-14.6 0.3-0.3 0.49883-0.7 0.79883-1l0.09961-0.099609c0.2-0.3 0.50117-0.7 0.70117-1l0.099609-0.099609c0.5-0.7 1.0004-1.5012 1.4004-2.2012 1.2-2 2.1004-3.9996 2.9004-6.0996 0.2-0.4 0.29844-0.79922 0.39844-1.1992-0.5 0.1-0.89883 0.20039-1.2988 0.40039h-0.09961l-0.60156 0.29883c-1.7 0.9-3.6984 0.9-5.3984 0-2-1-4.4-1-6.5 0-1.7 0.9-3.7004 0.9-5.4004 0-0.3-0.1-0.60039-0.30039-0.90039-0.40039l-1-4.7988 1.1992 0.19922-0.69922-3.1992 3.8008-3.7012 2.5 1.8008 3.8984-3.9004 3.8008 4 2.5-1.7988 5.5996 5.5996c0-0.4 0.09961-0.80117 0.09961-1.2012v-0.39844c0.2-3.1 0.10156-6.1016-0.39844-9.1016-0.7-4.1-2.4004-9-6.4004-9zm-30.9 2.5-0.69922 11.9c0.4 0.1 0.89883 0.20039 1.2988 0.40039l7.3008-12.301zm25.5 3.1016h0.19922l0.40039 1.3984h1.4004l0.09961 0.20117-1.0996 0.90039 0.5 1.2988-0.19922 0.09961-1.2012-0.79883-1.0996 0.79883-0.19922-0.09961 0.39844-1.4004-1.1992-0.79883 0.099609-0.20117h1.4004zm-13.6 1.3984h0.19922l2.4004 12.201-1.0996-0.20117 1.9004 8.8008-1.4004-0.30078 1.9004 9.2012-3.7012-1.5-3.6992 1.5 1.9004-9.2012-1.4004 0.30078 1.7988-8.8008-1.0996 0.20117zm6.9004 1h0.19922l0.40039 1.3008h1.4004l0.09961 0.19922-1.2012 0.80078 0.80078 1.5-0.19922 0.099609-1.2012-0.79883-1.1992 0.79883-0.20117-0.099609 0.40039-1.4004-1.1992-0.79883 0.099609-0.20117h1.4004zm13.1 0h0.19922l0.40039 1.3008h1.4004l0.099609 0.19922-1.1992 0.80078 0.39844 1.4004-0.19922 0.099609-1.1992-0.80078-1.2012 0.80078-0.19922-0.099609 0.40039-1.4004-0.80078-0.69922 0.099609-0.20117h1.4004zm-8.5996 10.9c-0.4 0.1-0.80039 0.40039-0.90039 0.90039 0 0.3 0.20039 0.49922 0.40039 0.69922-0.3 0.2-0.6 0.50078-0.5 0.80078 0.2 0.6 0.79844 1.0004 1.3984 0.90039 0.4-0.1 0.80039-0.40039 0.90039-0.90039 0-0.3-0.2-0.60078-0.5-0.80078 0.2-0.1 0.40039-0.39922 0.40039-0.69922-0.1-0.6-0.59922-1.0004-1.1992-0.90039zm5.5 0-1 0.20117-0.60156 0.79883c-0.3 0.3-0.5 0.80117-0.5 1.2012 0 0.3 0.20039 0.59883 0.40039 0.79883 0.3 0.2 0.60039 0.30078 0.90039 0.30078 0.6 0.1 1.2008-0.39961 1.3008-1.0996v-0.10156c0-0.6-0.40039-0.99961-0.90039-1.0996h-0.40039zm3.3984 0c-0.4 0.1-0.79844 0.40039-0.89844 0.90039 0 0.3 0.19844 0.49922 0.39844 0.69922-0.3 0.1-0.5 0.50078-0.5 0.80078 0.1 0.6 0.80039 1.0004 1.4004 0.90039 0.4-0.1 0.80039-0.40039 0.90039-0.90039 0-0.3-0.2-0.60078-0.5-0.80078 0.2-0.1 0.40039-0.39922 0.40039-0.69922-0.1-0.6-0.60117-1.0004-1.2012-0.90039zm-13.6 0.20117v0.79883h0.40039v2.2012h0.80078v-3zm4.8008 0.5c0.2 0 0.29883 0.09883 0.29883 0.29883 0 0.1-0.09883 0.30078-0.29883 0.30078-0.2 0-0.30078-0.10078-0.30078-0.30078 0-0.2 0.10078-0.29883 0.30078-0.29883zm8.9004 0c0.2 0 0.29883 0.09883 0.29883 0.29883 0 0.1-0.09883 0.30078-0.29883 0.30078-0.2 0-0.30078-0.10078-0.30078-0.30078 0-0.2 0.10078-0.29883 0.30078-0.29883zm-4.5 1.0996h0.09961c0.2 0 0.40039 0.3 0.40039 0.5 0 0.2-0.20039 0.30039-0.40039 0.40039-0.2 0-0.5-0.10039-0.5-0.40039 0-0.2 0.10039-0.5 0.40039-0.5zm-4.4004 0.19922c0.2 0 0.29883 0.10078 0.29883 0.30078 0 0.2-0.09883 0.29883-0.29883 0.29883-0.2 0-0.30078-0.09883-0.30078-0.29883 0-0.2 0.10078-0.30078 0.30078-0.30078zm8.9004 0c0.2 0 0.29883 0.10078 0.29883 0.30078 0.1 0.2 0.0012 0.29883-0.29883 0.29883-0.2 0-0.30078-0.09883-0.30078-0.29883 0-0.2 0.10078-0.30078 0.30078-0.30078zm-31.602 5.7012h0.10156l0.29883 0.09961 0.09961 0.09961c0.2 0.1 0.50078 0.20078 0.80078 0.30078 0.8 0.3 1.6 0.39844 2.5 0.39844 1.2 0.2 2.3008-0.09961 3.3008-0.59961l-0.5 2.4004 1.5-0.30078-2.1016 9.8008 3.9004-1.9004-0.099609 1.3008-0.099609 1.0996c-1.1 0-2.1 0.20078-3 0.80078-0.9 0.4-1.9004 0.59961-2.9004 0.59961-0.9 0-1.7996-0.19961-2.5996-0.59961l-0.20117-0.10156c-0.3-0.1-0.59844-0.29844-0.89844-0.39844v-12l-0.80078 0.69922v11.6l-0.80078 0.70117v-12.801zm22.602 0.19922h0.09961l1.5 1.1992v12.701l-0.80078-0.70117v-11.699l-0.90039-0.69922v12.1c-0.3 0.1-0.59844 0.20039-0.89844 0.40039l-0.20117 0.09961c-0.8 0.4-1.6996 0.59961-2.5996 0.59961-1 0-1.9008-0.19922-2.8008-0.69922-0.9-0.5-2-0.80078-3-0.80078l-0.09961-1.0996-0.099609-1.3008 3.9004 1.9004-0.30078-1.3008-1.7988-8.5 1.5 0.30078-0.40039-2.4004c1 0.5 2.0992 0.80078 3.1992 0.80078 0.8 0 1.7-0.10039 2.5-0.40039 0.3-0.1 0.50078-0.20078 0.80078-0.30078zm65.898 0.09961c-1.3 0.1-2.2988 1.1008-2.2988 2.3008 0 1.3 1.0988 2.2988 2.2988 2.2988 1.3 0 2.3008-1.0988 2.3008-2.2988 0-1.3-1.1008-2.3008-2.3008-2.3008zm59.602 0c-1.3 0.1-2.3008 1.1008-2.3008 2.3008 0 1.2 0.99922 2.1992 2.1992 2.1992 1.3 0.1 2.3008-0.99922 2.3008-2.1992 0.1-1.3-0.99922-2.3008-2.1992-2.3008zm-101.3 1.9004-0.30078 1.1992 2.7012 0.80078v12.199c0 5.6 3.3988 7.6016 8.2988 7.6016 4.7 0 8.2012-2.7 8.2012-8v-11.801l2.6992-0.80078-0.29883-1.1992h-7l-0.30078 1.1992 2.8008 0.80078v11.4c0 4.5-2.2012 6.4004-5.7012 6.4004-3.5 0-5.2988-1.9016-5.2988-6.1016v-11.699l2.6992-0.80078-0.30078-1.1992zm-25.1 0.59961-0.30078 0.20117c-0.8 0.4-1.6 0.5-2.5 0.5s-1.7996-0.20156-2.5996-0.60156v1c1.6 0.6 3.3996 0.70156 5.0996 0.10156l0.40039-0.20117v-1zm-20.6 0.09961-0.10156 1 0.40039 0.20117c0.8 0.3 1.6 0.50039 2.5 0.40039 0.9 0 1.7996-0.1 2.5996-0.5v-1c-0.8 0.4-1.6996 0.59961-2.5996 0.59961-0.8 0-1.7-0.2-2.5-0.5zm154.7 0.60156-4.5996 5-0.0996 1h2.0996v10c0 3.2 1.6 4.5 4 4.5 1.9 0.1 3.7-0.6 5-2l-0.4004-0.90039c-0.9 0.5-2 0.79883-3 0.79883-1.5 0-2.4004-0.89844-2.4004-2.8984v-9.5h5.082l0.31836 0.19922 5.9004 14.6c-1 3.1-2.9004 5.8008-4.4004 5.8008 0.3-0.3 0.40039-0.80117 0.40039-1.2012v-0.19922c-0.1-1-0.90039-1.6992-1.9004-1.6992h-0.19922c-1.1 0-2.0004 0.99961-1.9004 2.0996 0 1.4 1.0004 2.5 2.9004 2.5 3 0 4.8992-2.0012 7.1992-8.2012l5.0996-14 1.7012-0.69922-0.20117-1.0996h-5.7988l-0.20117 1.0996 2.4004 0.80078-2.1992 6.6992c-0.8 2.4-1.4004 4.6992-1.4004 4.6992h-0.0996c-0.2-1.5-0.60117-3.0996-1.2012-4.5996l-2.5996-6.9004 2.3008-0.59961-0.30078-1.0996h-6.8008l-0.0293 0.09961h-3.9707v-4.2988zm-154.8 2.8984v1l0.40039 0.20117c0.8 0.3 1.6 0.50039 2.5 0.40039 0.7 0 1.4-0.10078 2-0.30078v-0.90039c-0.6 0.2-1.3 0.30078-2 0.30078-0.9 0.1-1.8-0.1-2.5-0.5l-0.29883-0.20117zm20.701 0-0.30078 0.20117c-0.8 0.4-1.6 0.5-2.5 0.5-0.7 0-1.4-0.10078-2-0.30078v0.90039c0.6 0.2 1.3 0.30078 2 0.30078 0.8 0 1.7-0.10039 2.5-0.40039l0.40039-0.20117v-1zm92.4 0.90039c-4.1 0-7.5 3-7.5 8.5 0 5.5 3.1 8.2012 7 8.2012 2.4 0.2 4.7-1 6-3l-0.5-0.80078c-1.3 1-2.9 1.5-4.5 1.5-3 0-4.9004-2.5008-4.9004-6.8008h9.9004c0.1-0.6 0.19922-1.2984 0.19922-1.8984 0-3.7-2.3992-5.7012-5.6992-5.7012zm-42.102 0.09961-4.3984 1.7012v0.40039l1.7988 2v10.6l-1.6992 0.59961v1h7l0.5-1.0996-2.5996-0.70117v-10.199c1.1-0.9 2.3988-1.4004 3.7988-1.4004 1.2 0 2.7012 0.50078 2.7012 2.8008v9l-1.7012 0.59961v1h7l0.40039-1.0996-2.5-0.70117v-9.5c0-3.7-2.2008-5-4.3008-5-2.2 0-4.1988 1.2016-5.2988 3.1016h-0.20117l0.10156-3.1016zm17.5 0-4.3984 1.7012v0.40039l1.7988 2v10.6l-1.6992 0.59961v1h7l0.5-1.0996-2.5996-0.59961v-14.602zm35.201 0-4.4004 1.7012v0.40039l1.8008 2v10.6l-1.7012 0.59961v1h7.7012l0.5-1.0996-3.3008-0.5v-9.3008c0.7-1.3 1.7996-2.3 3.0996-3v0.30078c0.1 1.1 0.99961 2.0004 2.0996 1.9004h0.20117c1.2-0.1 2.0004-1.1012 1.9004-2.2012 0-1.4-1.0012-2.4004-2.7012-2.4004-2 0-3.6996 1.8008-4.5996 3.8008h-0.0996l0.0996-3.8008zm13.5 0c-3 0-5.3008 1.5016-5.3008 4.6016 0 2.7 1.3996 3.9988 3.5996 4.7988l2.1016 0.70117c1.8 0.6 2.5996 1.3988 2.5996 2.7988 0 1.7-1.1012 2.3008-2.7012 2.3008-1.9 0-3.3984-0.79961-4.8984-4.0996l-0.90039 0.39844 0.29883 5.3008 1.6016-0.80078c1.1 0.5 2.2996 0.80078 3.5996 0.80078 3.3 0 5.6992-1.3996 5.6992-4.5996 0-2.8-1.5004-4.1004-3.9004-4.9004l-2.0996-0.69922c-1.7-0.6-2.4004-1.5008-2.4004-2.8008v-0.30078c0.2-1.2 1.3-2.0984 2.5-1.8984 1.5 0 2.8004 0.8 4.4004 3.5l0.80078-0.30078-0.30078-4.6992-1.7988 0.59961c-0.9-0.4-1.9004-0.70117-2.9004-0.70117zm10.9 0-4.4004 1.7012v0.40039l1.7988 2v10.6l-1.6992 0.59961v1h7l0.5-1.0996-2.5996-0.59961v-14.602zm-57.5 0.30078-0.30078 1 1.5996 1 5.8008 14h1.7988l5.5-14.199 1.7012-0.70117-0.20117-1.0996h-5.8984l-0.20117 1.0996 2.4004 0.80078-2.0996 6.0996c-0.5 1.5-1.0008 3-1.3008 4.5h-0.19922c-0.3-1.5-0.70078-3.0004-1.3008-4.4004l-2.5996-6.4004 2.3008-0.59961-0.30078-1.0996zm22.1 1.3008c1.9 0 2.7988 1.2 2.7988 3.5v1h-6.6992c0.5-3.1 2.0004-4.5 3.9004-4.5zm-102.4 0.59961 0.69922 0.29883 0.10156 1.4004 0.29883 8.7012h-2.0996l0.30078-8.7012v-1.4004zm-10.301 0.29883v1l0.40039 0.20117c0.8 0.3 1.6004 0.40039 2.4004 0.40039 0.4 0 0.79922-0.0016 1.1992-0.10156v-0.89844c-0.4 0.1-0.79922 0.09961-1.1992 0.09961-0.8 0.1-1.7004-0.1-2.4004-0.5l-0.29883-0.20117zm20.701 0-0.30078 0.20117c-0.8 0.4-1.6 0.5-2.5 0.5-0.4 0-0.79922 3.9e-4 -1.1992-0.09961v0.89844c0.4 0.1 0.79922 0.10156 1.1992 0.10156 0.8 0 1.7-0.10039 2.5-0.40039l0.40039-0.20117v-1zm-12.201 3.7012 0.10156 0.19922v0.59961c-0.7 0-1.4 0.2-2 0.5-1.1 0.6-2.4012 0.90039-3.7012 0.90039-1.2 0-2.5-0.19883-3.5-0.79883l-0.099609-0.10156-0.5-0.19922h-0.09961c-0.2-0.1-0.3-0.09922-0.5-0.19922l0.5-0.40039 0.09961-0.09961c0.3 0.1 0.50078 0.19883 0.80078 0.29883l0.29883 0.20117c0.9 0.4 1.9008 0.59961 2.8008 0.59961 1.1 0 2.1992-0.20078 3.1992-0.80078 0.8-0.4 1.6996-0.69922 2.5996-0.69922zm4 0c0.9 0 1.8016 0.19922 2.6016 0.69922 1 0.5 2.0992 0.80078 3.1992 0.80078 0.7-0.1 1.6-0.30117 2.5-0.70117l0.30078-0.19922c0.2-0.1 0.49883-0.20078 0.79883-0.30078l0.70117 0.60156c-0.2 0.1-0.4 0.09922-0.5 0.19922l-0.30078 0.19922-0.09961 0.10156c-1.1 0.6-2.3 0.79883-3.5 0.79883-1.3 0-2.6012-0.30039-3.7012-0.90039-0.6-0.3-1.3-0.5-2-0.5v-0.59961z"/>
 </g>
</svg>