<svg xmlns="http://www.w3.org/2000/svg" xmlns:svg="http://www.w3.org/2000/svg" viewBox="0 0 1693.5484 743.73936" width="477.6367679830329" height="209.36411663256274" version="1.1">
  <defs id="defs1">
    <style id="style1">
      .cls-1 {
        fill: #002b49;
      }
    </style>
  </defs>
  <g transform="matrix(2.4204783,0,0,2.4204783,-0.17377582,-0.09464823)">
    <g id="g23">
      <path class="cls-1" d="m 370.06,23.66 h 18.77 c 9.76,0 16.08,6.8 16.08,15.68 0,8.88 -6.32,15.81 -16.08,15.81 h -8.81 v 15.61 h -9.96 z m 16.82,22.81 c 4.44,0 7.4,-2.56 7.4,-7.13 0,-4.57 -2.96,-7 -7.4,-7 h -6.86 v 14.13 z" id="path1"/>
      <path class="cls-1" d="m 407.74,54.2 c 0,-9.82 7.27,-17.43 17.9,-17.43 10.63,0 17.96,7.6 17.96,17.43 0,9.83 -7.33,17.56 -17.96,17.56 -10.63,0 -17.9,-7.67 -17.9,-17.56 z m 26.11,0 c 0,-5.32 -3.63,-8.61 -8.21,-8.61 -4.58,0 -8.14,3.3 -8.14,8.61 0,5.31 3.63,8.68 8.14,8.68 4.51,0 8.21,-3.23 8.21,-8.68 z" id="path2"/>
      <path class="cls-1" d="M 485.78,61.07 V 45.66 h -5.58 v -7.8 h 5.92 v -8.95 l 9.08,-3.37 v 12.31 h 7.33 v 7.8 h -7.33 v 13.19 c 0,2.96 1.48,4.44 4.64,4.44 1.01,0 1.95,-0.2 2.69,-0.4 v 8.14 c -0.87,0.27 -3.3,0.74 -5.65,0.74 -5.99,0 -11.1,-3.03 -11.1,-10.7 z" id="path3"/>
      <path class="cls-1" d="m 506.57,54.07 c 0,-10.36 7.47,-17.29 16.89,-17.29 10.43,0 16.35,7.27 16.35,17.43 0,0.81 -0.07,2.22 -0.13,2.76 H 516.4 c 0.2,4.51 4.37,7 8.48,7 4.44,0 8.21,-1.21 12.51,-4.04 v 8.14 c -3.03,1.95 -6.93,3.7 -13.52,3.7 -9.49,0 -17.29,-6.32 -17.29,-17.69 z m 23.75,-3.43 c -0.2,-3.1 -2.35,-6.06 -6.86,-6.06 -4.1,0 -6.66,3.1 -6.86,6.06 h 13.73 z" id="path4"/>
      <path class="cls-1" d="m 553.46,54.2 c 0,5.78 4.04,8.61 8.68,8.61 3.5,0 6.32,-0.88 9.62,-3.1 v 9.76 c -2.42,1.14 -5.72,2.29 -10.09,2.29 -10.36,0 -17.97,-7.13 -17.97,-17.56 0,-10.43 7.6,-17.43 17.97,-17.43 4.37,0 7.67,1.14 10.09,2.29 v 9.69 c -3.3,-2.15 -6.12,-3.1 -9.62,-3.1 -4.64,0 -8.68,2.96 -8.68,8.55 z" id="path5"/>
      <path class="cls-1" d="m 578.56,37.85 h 9.28 v 2.62 c 2.09,-2.09 5.05,-3.7 9.22,-3.7 6.19,0 12.04,4.24 12.04,12.04 v 21.93 h -9.42 V 51.16 c 0,-3.57 -2.35,-5.79 -5.52,-5.79 -2.56,0 -4.64,1.35 -6.19,3.43 v 21.93 h -9.42 v -32.9 z" id="path6"/>
      <path class="cls-1" d="m 641.06,54.2 c 0,5.78 4.04,8.61 8.68,8.61 3.5,0 6.32,-0.88 9.62,-3.1 v 9.76 c -2.42,1.14 -5.72,2.29 -10.09,2.29 -10.36,0 -17.97,-7.13 -17.97,-17.56 0,-10.43 7.6,-17.43 17.97,-17.43 4.37,0 7.67,1.14 10.09,2.29 v 9.69 c -3.3,-2.15 -6.12,-3.1 -9.62,-3.1 -4.64,0 -8.68,2.96 -8.68,8.55 z" id="path7"/>
      <path class="cls-1" d="m 664.14,54.2 c 0,-9.82 7.27,-17.43 17.9,-17.43 10.63,0 17.96,7.6 17.96,17.43 0,9.83 -7.33,17.56 -17.96,17.56 -10.63,0 -17.9,-7.67 -17.9,-17.56 z m 26.11,0 c 0,-5.32 -3.63,-8.61 -8.21,-8.61 -4.58,0 -8.14,3.3 -8.14,8.61 0,5.31 3.63,8.68 8.14,8.68 4.51,0 8.21,-3.23 8.21,-8.68 z" id="path8"/>
      <path class="cls-1" d="m 455.84,94.43 h -15 v -9.22 h 40.23 v 9.22 L 466,94.5 v 37.88 l -10.16,-0.07 z" id="path9"/>
      <path class="cls-1" d="m 475.96,115.76 c 0,-9.82 7.27,-17.42 17.9,-17.42 10.63,0 17.96,7.6 17.96,17.42 0,9.82 -7.33,17.56 -17.96,17.56 -10.63,0 -17.9,-7.67 -17.9,-17.56 z m 26.11,0 c 0,-5.31 -3.63,-8.61 -8.21,-8.61 -4.58,0 -8.14,3.3 -8.14,8.61 0,5.31 3.63,8.68 8.14,8.68 4.51,0 8.21,-3.23 8.21,-8.68 z" id="path10"/>
      <path class="cls-1" d="m 517.74,99.41 h 9.28 v 4.78 c 1.62,-3.63 4.64,-5.85 8.81,-5.85 0.67,0 2.02,0.13 2.42,0.2 v 9.55 c -1.08,-0.27 -2.15,-0.34 -3.43,-0.34 -3.57,0 -6.86,2.36 -7.67,5.52 v 19.04 h -9.42 v -32.9 z" id="path11"/>
      <path class="cls-1" d="m 561.13,99.41 h 9.28 v 2.62 c 2.09,-2.08 5.05,-3.7 9.22,-3.7 6.19,0 12.04,4.24 12.04,12.04 v 21.93 h -9.42 v -19.58 c 0,-3.57 -2.35,-5.79 -5.52,-5.79 -2.56,0 -4.64,1.35 -6.19,3.43 v 21.93 h -9.42 v -32.9 z" id="path12"/>
      <path class="cls-1" d="m 596.92,115.76 c 0,-9.82 7.27,-17.42 17.9,-17.42 10.63,0 17.96,7.6 17.96,17.42 0,9.82 -7.33,17.56 -17.96,17.56 -10.63,0 -17.9,-7.67 -17.9,-17.56 z m 26.11,0 c 0,-5.31 -3.63,-8.61 -8.21,-8.61 -4.58,0 -8.14,3.3 -8.14,8.61 0,5.31 3.63,8.68 8.14,8.68 4.51,0 8.21,-3.23 8.21,-8.68 z" id="path13"/>
      <g id="g17">
        <path class="cls-1" d="m 137.2,234.41 -4.73,2.38 v -3.43 l 5.02,-2.61 h 3.12 v 19.83 h -3.4 V 234.4 Z" id="path14"/>
        <path class="cls-1" d="m 159.81,245.35 c 0,3.17 -2.69,5.67 -7.05,5.67 -4.62,0 -7.17,-2.49 -7.17,-6.03 0,-2.15 1.19,-3.85 3.09,-4.93 -1.39,-0.88 -2.41,-2.18 -2.41,-4.28 0,-3.2 2.44,-5.44 6.37,-5.44 3.93,0 6.49,2.38 6.49,5.58 0,1.9 -1.19,3.48 -2.8,4.5 2.27,1.13 3.48,2.72 3.48,4.93 z m -3.43,-0.11 c 0,-1.13 -0.65,-2.1 -2.58,-2.89 l -2.18,-0.91 c -1.61,0.65 -2.66,1.78 -2.66,3.34 0,2.01 1.47,3.2 3.8,3.2 2.33,0 3.63,-1.3 3.63,-2.75 z m -6.91,-9.38 c 0,1.16 0.91,2.07 2.1,2.58 l 1.9,0.76 c 1.47,-0.76 2.47,-1.81 2.47,-3.14 0,-1.53 -1.08,-2.81 -3.29,-2.81 -2.21,0 -3.17,1.22 -3.17,2.61 z" id="path15"/>
        <path class="cls-1" d="m 177.29,244.5 c 0,3.51 -2.72,6.52 -7.14,6.52 -2.66,0 -4.53,-0.77 -6.03,-1.45 v -3.46 c 1.73,0.99 3.8,1.7 5.92,1.7 2.12,0 3.63,-1.3 3.63,-3.31 0,-2.01 -1.47,-3.34 -3.82,-3.34 -1.3,0 -2.35,0.45 -3,0.91 l -2.44,-1.78 0.42,-9.52 h 11.62 v 3.17 h -8.59 l -0.26,4.82 c 0.71,-0.37 1.73,-0.68 3.29,-0.68 3.51,0 6.4,2.52 6.4,6.43 z" id="path16"/>
        <path class="cls-1" d="m 181.73,249.99 v -3.37 c 1.36,0.71 3.29,1.22 4.82,1.22 3.26,0 4.84,-1.78 4.84,-6.03 -0.85,0.77 -2.32,1.62 -4.56,1.62 -3.63,0 -6.26,-2.55 -6.26,-6.54 0,-3.99 3.12,-6.54 6.91,-6.54 4.65,0 7.37,3.57 7.37,9.63 0,8.25 -3.03,11.05 -8.3,11.05 -1.76,0 -3.85,-0.54 -4.82,-1.02 z m 9.52,-11.25 c 0,-3.46 -1.28,-5.35 -3.8,-5.35 -2.01,0 -3.48,1.44 -3.48,3.51 0,2.07 1.42,3.54 3.48,3.54 1.64,0 3,-0.85 3.8,-1.7 z" id="path17"/>
      </g>
      <polygon class="cls-1" points="458.73,21.98 458.72,21.98 449.32,25.54 449.32,70.75 458.73,70.75 " id="polygon17"/>
      <path class="cls-1" d="m 466.2,70.75 h 9.42 v -32.9 h -9.42 z m 4.71,-39.43 c 3.19,0 5.78,-2.59 5.78,-5.78 0,-3.19 -2.59,-5.78 -5.78,-5.78 -3.19,0 -5.78,2.59 -5.78,5.78 0,3.19 2.59,5.78 5.78,5.78 z" id="path18"/>
      <path class="cls-1" d="m 616.14,70.75 h 9.42 v -32.9 h -9.42 z m 4.71,-39.43 c 3.19,0 5.78,-2.59 5.78,-5.78 0,-3.19 -2.59,-5.78 -5.78,-5.78 -3.19,0 -5.78,2.59 -5.78,5.78 0,3.19 2.59,5.78 5.78,5.78 z" id="path19"/>
      <path class="cls-1" d="m 408.95,132.31 h 9.42 v -32.9 h -9.42 z m 4.71,-39.43 c 3.19,0 5.78,-2.59 5.78,-5.78 0,-3.19 -2.59,-5.78 -5.78,-5.78 -3.19,0 -5.78,2.59 -5.78,5.78 0,3.19 2.59,5.78 5.78,5.78 z" id="path20"/>
      <path class="cls-1" d="m 543.91,132.31 h 9.42 v -32.9 h -9.42 z m 4.71,-39.43 c 3.19,0 5.78,-2.59 5.78,-5.78 0,-3.19 -2.59,-5.78 -5.78,-5.78 -3.19,0 -5.78,2.59 -5.78,5.78 0,3.19 2.59,5.78 5.78,5.78 z" id="path21"/>
      <path class="cls-1" d="m 401.43,83.12 -9.41,3.56 v 14.78 c -2.58,-2.31 -5.92,-3.68 -9.78,-3.68 -9.12,0 -15.36,7.6 -15.36,17.42 0,9.82 6.24,17.56 15.36,17.56 3.85,0 7.19,-1.38 9.78,-3.71 v 2.83 h 9.42 V 83.1 h -0.01 z m -17.04,40.77 c -4.22,0 -7.62,-3.23 -7.62,-8.68 0,-5.45 3.4,-8.61 7.62,-8.61 4.22,0 7.4,3.08 7.64,8.05 v 1.15 c -0.24,5.09 -3.52,8.1 -7.64,8.1 z" id="path22"/>
      <path class="cls-1" d="m 101.37,180.55 1.05,-1.01 1.33,2.63 -1.18,-3.06 h -1.02 l -1.18,1.44 z m 0.15,0.36 0.71,-0.11 0.34,0.85 0.5,0.24 -0.73,-1.62 z m 2.98,-5.15 c 0.28,0.04 0.41,0.3 0.5,0.82 0.15,1.28 0.94,1.77 1.18,0.29 0.09,-0.47 0.24,-0.65 0.5,-0.55 0,0 0,-0.27 0,-0.27 -0.87,-0.23 -1.31,-0.34 -2.18,-0.57 z m 2.18,-9.87 -2.18,-0.95 v 9.68 l 2.18,0.6 z m -0.52,-2.2 -0.73,0.57 0.64,-0.1 0.3,0.76 0.45,0.22 -0.65,-1.45 z m 136.18,8.68 h 1.24 v -0.18 h -1.25 l -0.83,0.26 0.04,0.17 z m -137.17,8.78 1,-0.95 1.25,2.49 -1.12,-2.89 h -0.97 l -1.12,1.36 h 0.95 z m 0.14,0.34 0.67,-0.11 0.32,0.8 0.47,0.23 -0.69,-1.53 -0.78,0.6 z m 4.86,-14.08 -2.18,-0.95 v 9.12 l 2.18,0.6 v -8.76 z m -3.81,-4.76 h -0.91 l -1.06,1.29 h 0.9 l 0.94,-0.9 1.19,2.35 z m 135.96,12.81 h 1.25 v -0.18 h -1.27 c 0,0 -0.81,0.22 -0.81,0.22 l 0.04,0.18 z m 0,1.55 h 1.25 v -0.18 h -1.27 c 0,0 -0.81,0.2 -0.81,0.2 l 0.03,0.18 0.79,-0.19 z m -141.94,-2.3 c 0.34,0.05 0.52,0.34 0.64,0.9 0.18,1.36 1.19,1.95 1.52,0.37 0.11,-0.5 0.33,-0.67 0.64,-0.55 0,0 0,-0.29 0,-0.29 -1.12,-0.29 -1.68,-0.43 -2.79,-0.72 v 0.3 z m 141.11,-0.79 0.03,0.18 0.8,-0.18 h 1.25 v -0.18 c -0.7,0 -1.37,-0.03 -2.08,0.18 z m -152.98,-19.81 -1.53,1.86 h 1.3 l 1.37,-1.3 1.72,3.41 -1.53,-3.96 h -1.32 z m 4.15,25.21 0.8,-0.13 0.38,0.96 0.57,0.27 -0.82,-1.83 -0.93,0.72 z m 1.27,-22.68 h -1.08 l -1.25,1.52 h 1.06 l 1.12,-1.07 1.4,2.78 -1.25,-3.24 z m 147.57,34.32 h 2.06 v -0.18 h -2.06 z m -149.01,-12.04 1.19,-1.14 1.5,2.97 -1.33,-3.46 h -1.16 l -1.33,1.62 h 1.13 z m -2.59,-2.38 h -1.32 l -1.53,1.86 h 1.3 l 1.37,-1.3 1.72,3.41 -1.53,-3.96 z m -2.09,-6.48 2.76,0.76 v -11.93 l -2.76,-1.2 v 12.38 z m 0.73,8.81 0.92,-0.14 0.44,1.1 0.65,0.31 -0.94,-2.1 -1.06,0.83 z m 5.15,-21 -0.87,0.68 0.75,-0.12 0.36,0.9 0.53,0.26 z m -3.21,-0.16 -0.94,-2.1 -1.06,0.83 0.92,-0.14 0.44,1.1 0.65,0.31 z m -4.66,34.81 0.78,-0.02 v -0.18 c -0.47,0.03 -1.58,0.01 -2.06,0 0,0 0,0.18 0,0.18 l 1.29,0.02 z m 14.56,-19.03 2.79,0.76 v -9.89 l -2.79,-1.22 z m -15.85,17.46 h 2.06 c 0,0 0,-0.18 0,-0.18 h -2.06 z m 9.75,-30.45 -2.41,-1.05 v 11.72 l 2.41,0.66 z m -2.41,12.04 c 0.31,0.05 0.45,0.36 0.55,0.97 0.16,1.56 1.04,2.12 1.31,0.32 0.1,-0.56 0.26,-0.79 0.55,-0.68 0,0 0,-0.33 0,-0.33 -0.96,-0.25 -1.45,-0.37 -2.41,-0.63 v 0.34 z m -7.34,16.86 c 0.49,0 1.58,0 2.06,0 0,0 0,-0.18 0,-0.18 h -2.06 z m 12.14,-9.66 1.21,-1.15 1.52,3 -1.35,-3.5 h -1.17 l -1.35,1.64 h 1.15 z m -1.07,-6.25 c 0.31,0.05 0.45,0.34 0.55,0.93 0.16,1.48 1.04,2.03 1.31,0.32 0.1,-0.54 0.26,-0.75 0.55,-0.64 0,0 0,-0.31 0,-0.31 -0.96,-0.25 -1.45,-0.37 -2.41,-0.63 v 0.32 z m 1.83,-13.88 -0.79,0.61 0.68,-0.11 0.33,0.82 0.48,0.23 -0.7,-1.56 z m 0.22,-1.12 h -0.98 l -1.14,1.38 h 0.97 l 1.01,-0.97 1.28,2.53 z m 3.93,4.03 0.74,-0.12 0.35,0.88 0.52,0.25 -0.76,-1.68 -0.85,0.66 z m -4.73,17.62 0.81,-0.13 0.39,0.97 0.57,0.28 -0.83,-1.85 z m 5.82,-19.49 h -1.06 l -1.22,1.49 h 1.04 l 1.09,-1.04 1.37,2.73 -1.22,-3.17 z m 139.65,19.44 h 1.25 v -0.18 h -1.26 c 0,0 -0.81,0.12 -0.81,0.12 l 0.02,0.18 z m 0,1.55 h 1.25 v -0.18 h -1.26 l -0.81,0.1 0.02,0.18 z M 87.81,171.49 c 0.35,0.05 0.52,0.38 0.63,1.04 0.18,1.64 1.19,2.27 1.5,0.36 0.11,-0.6 0.3,-0.83 0.63,-0.7 0,0 0,-0.35 0,-0.35 l -2.76,-0.72 v 0.36 z m 155.76,17.72 h -2.06 v 0.18 h 2.06 z m -145.55,-27.1 -2.41,-1.05 v 11.12 l 2.41,0.66 z m 9.97,14.53 c 0.27,0.04 0.41,0.29 0.5,0.77 0.14,1.21 0.94,1.69 1.19,0.29 0.09,-0.44 0.25,-0.61 0.5,-0.51 0,0 0,-0.25 0,-0.25 -0.87,-0.23 -1.31,-0.34 -2.18,-0.57 v 0.26 z m 134.34,1.92 h 1.25 v -0.18 c -0.52,-0.02 -1.57,0 -2.07,0.13 0,0 0.02,0.18 0.02,0.18 z M 67.41,201.98 c -0.03,-0.93 0,-2.43 0.16,-3.32 0,0 0,-15.16 0,-15.16 -0.05,-8.92 -5.72,-10.45 -5.88,-0.45 0.02,0.39 -0.09,17.69 0.13,17.48 0,0 0,2.08 0,2.08 2.24,-0.25 3.35,-0.38 5.59,-0.63 z m 174.08,-43.36 0.06,0.17 0.8,-0.37 h 1.24 v -0.18 h -1.25 l -0.84,0.38 z m 2.09,-1.93 h -1.25 l -0.84,0.42 0.06,0.17 0.8,-0.4 h 1.24 v -0.18 z m -1.24,-1.37 h 1.24 v -0.18 h -1.25 l -0.84,0.43 0.07,0.16 0.79,-0.42 z m -132.73,10.12 -0.73,0.57 0.63,-0.1 0.3,0.76 0.45,0.22 z m 131.94,-11.24 0.79,-0.43 h 1.23 v -0.18 h -1.25 l -0.84,0.45 z m 0.79,5.76 h 1.24 v -0.18 h -1.25 l -0.84,0.42 0.06,0.17 z m 0,6.2 h 1.24 v -0.18 h -1.25 l -0.84,0.32 0.05,0.17 z m -0.85,-1.46 0.04,0.17 0.8,-0.27 h 1.24 v -0.18 h -1.25 l -0.83,0.27 z m 0.85,-3.19 h 1.24 v -0.18 h -1.25 l -0.84,0.37 0.06,0.17 0.8,-0.36 z m 0,1.55 h 1.24 v -0.18 h -1.25 l -0.84,0.33 0.05,0.17 z m -0.85,-10.62 0.06,0.17 0.8,-0.39 h 1.24 v -0.18 h -1.25 l -0.84,0.41 z M 83.14,200.2 v -26.68 c 0,0 0,-0.57 0,-0.57 0,0 -2.62,-0.51 -2.62,-0.51 v -2.92 l -2.73,-0.68 v -10.15 h -0.31 v 1.36 h -0.45 c -0.05,-0.79 -0.36,-1.51 -0.83,-2.06 h 3.4 l -5.76,-4.09 -5.76,4.09 h 3.4 c -0.47,0.55 -0.78,1.27 -0.83,2.06 h -0.6 v 0.46 h 1 c -0.19,-4 5.5,-4.26 5.6,-0.23 0,0 0,0.23 0,0.23 h 0.84 c 0,0 0,8.25 0,8.25 -0.32,-0.08 -1.01,-0.25 -1.34,-0.34 0,0 0,-1.02 0,-1.02 h -2.11 v 0.5 l -0.45,-0.11 V 167.4 H 72.04 L 60.2,164.45 v -5.75 h -0.31 v 1.36 h -0.45 c -0.05,-0.79 -0.36,-1.51 -0.83,-2.06 h 3.4 l -5.76,-4.09 -5.76,4.09 h 3.4 c -0.47,0.55 -0.78,1.27 -0.83,2.06 h -0.6 v 0.46 h 1 c -0.11,-1.69 1.17,-3.19 2.8,-3.18 1.63,-0.01 2.91,1.49 2.8,3.18 0,0 0.84,0 0.84,0 v 3.86 l -1.34,-0.34 v -2.74 h -2.11 v 2.21 L 56,163.4 v -2.1 h -2.11 v 1.57 c 0,0 -6.43,-1.6 -6.44,-1.61 0,0 -5.45,-1.36 -5.45,-1.36 v 0.28 l 4.63,1.16 v 0.42 l -4.7,-1.15 v 0.14 l 4.7,1.15 v 3.96 l -4.7,-0.91 v 0.57 L 83,173.48 c 0.08,-0.03 -0.23,27.05 0.16,26.71 z m -33.45,-33.73 -2.23,-0.43 v -4.48 l 2.23,0.56 v 4.36 z m 4.2,0.81 -3.94,-0.76 v -3.8 l 3.94,0.99 z m 0,-3.71 -3.94,-0.99 v -0.4 l 3.94,0.99 z m 2.63,4.22 -1.96,-0.38 v -4.08 l 1.96,0.49 z m 4.16,0.81 -3.91,-0.76 v -3.42 l 3.91,0.92 v 3.25 z m 0,-3.4 -3.91,-0.92 v -0.39 l 3.91,0.98 v 0.34 z m 2.27,3.84 -1.62,-0.31 v -3.7 l 1.62,0.4 z m 3.45,0.67 -3.26,-0.63 v -3.13 l 3.26,0.8 v 2.97 z m 0,-3.11 -3.26,-0.8 v -0.32 l 3.26,0.82 z m 2.1,3.52 -1.68,-0.33 v -3.39 l 1.68,0.42 z m 3.23,0.63 -3.02,-0.58 v -2.85 l 3.02,0.74 v 2.7 z m 0,-2.85 -3.02,-0.74 v -0.29 l 3.02,0.75 v 0.27 z m 1.7,3.17 -1.27,-0.25 v -3.09 l 1.27,0.32 z m 3.08,0.6 -2.87,-0.56 v -2.6 l 2.87,0.7 z m 0,-2.61 -2.87,-0.7 v -0.26 l 2.87,0.72 z m 1.15,2.83 -0.72,-0.14 v -2.82 l 0.72,0.18 z m 2.56,0.49 -2.34,-0.45 v -2.39 l 2.34,0.57 z m 0,-2.42 -2.34,-0.57 v -0.23 l 2.34,0.59 v 0.22 z m -21.3,30.84 c 0.33,-0.27 0.12,-17.13 0.17,-17.95 0,-4.18 -1.39,-7.78 -3.1,-8.03 -1.71,-0.25 -3.1,3.13 -3.1,7.56 -0.03,2.79 0,18.83 0.13,21.23 2.36,-0.27 3.54,-0.4 5.9,-0.67 v -2.13 z m -0.36,-40.36 c -0.06,-3.67 -4.59,-3.65 -4.63,0.02 0,-0.02 4.66,0.03 4.63,-0.02 z m 17.58,6.5 v -5.65 h -2.11 v 5.65 z m 0.02,-6.5 c -0.06,-3.67 -4.59,-3.65 -4.63,0.02 0,-0.02 4.66,0.03 4.63,-0.02 z m 167.43,-9.96 h -1.25 l -0.84,0.42 0.06,0.17 0.79,-0.41 h 1.24 z M 49.83,203.96 c -0.04,-1.1 0,-2.87 0.21,-3.92 0,0 0,-17.88 0,-17.88 -0.07,-10.51 -7.42,-12.46 -7.63,-0.58 -0.04,3.05 0,20.58 0.16,23.21 2.9,-0.33 4.35,-0.49 7.25,-0.82 z m 30.63,-3.48 c 0.19,-5.94 0.11,-10.08 0.13,-16.01 -0.03,-7.74 -4.12,-8.88 -4.23,-0.32 0,0 0,13.81 0,13.81 0.09,0.79 0.11,2.17 0.09,2.97 1.6,-0.18 2.41,-0.27 4.01,-0.45 z m -25.43,40.78 c 1.97,3.6 3.27,7.78 3.61,11.92 0.25,-0.25 0.42,-0.65 0.44,-1.16 0.77,-11.32 -4.51,-21.55 -12.43,-25.57 -0.92,7.16 0.68,20.57 10.77,26.83 0.4,0.27 0.81,0.25 1.12,0.02 h -0.12 c -0.73,-6.13 -3.4,-11.72 -6.76,-16.77 -1.04,-1.67 -2.09,-3.37 -2.88,-5.28 1.87,3.59 4.36,6.45 6.27,10.03 z M 242.35,167.7 h 1.24 v -0.18 h -1.25 l -0.83,0.3 0.05,0.17 0.8,-0.29 z M 74.94,201.11 c -0.03,-0.86 0,-2.24 0.15,-3.07 0,0 0,-13.99 0,-13.99 -0.05,-8.23 -5.31,-9.65 -5.46,-0.41 0.02,0.33 -0.08,16.37 0.12,16.14 0,0 0,1.92 0,1.92 2.07,-0.23 3.11,-0.35 5.19,-0.59 z m -3.46,-34.17 h 2.11 v -5.65 h -2.11 z m 172.11,-18.01 h -1.25 l -0.84,0.44 0.07,0.16 0.79,-0.43 h 1.23 v -0.18 z m -1.24,20.32 h 1.24 v -0.18 h -1.25 l -0.83,0.29 0.05,0.17 0.8,-0.28 z m -130.85,8.27 c 0.27,0.04 0.41,0.27 0.5,0.73 0.14,1.13 0.93,1.6 1.19,0.29 0.09,-0.42 0.25,-0.56 0.5,-0.47 v -0.24 c -0.87,-0.23 -1.31,-0.34 -2.18,-0.57 v 0.25 z m 1.63,-10.39 -0.73,0.57 0.64,-0.1 0.3,0.76 0.45,0.22 -0.65,-1.45 z m 0.2,-1.04 h -0.91 l -1.06,1.28 h 0.9 l 0.94,-0.9 1.19,2.35 -1.06,-2.74 z m -1.14,16.28 0.87,-0.83 1.1,2.17 -0.97,-2.53 h -0.84 l -0.98,1.19 h 0.83 z m 129.31,-11.52 0.04,0.18 0.79,-0.23 h 1.25 v -0.18 h -1.27 c 0,0 -0.81,0.23 -0.81,0.23 z m -129.19,11.82 0.59,-0.09 0.28,0.7 0.41,0.2 -0.6,-1.34 z m -3.57,-0.93 0.94,-0.9 1.19,2.35 -1.06,-2.74 h -0.91 l -1.06,1.29 z m 1.07,-17.34 h -0.91 l -1.06,1.28 h 0.9 l 0.94,-0.9 1.19,2.35 -1.06,-2.74 z m 3.85,4.52 -2.18,-0.95 v 8.55 l 2.18,0.6 z m 5.24,0.57 -0.8,0.97 h 0.68 l 0.71,-0.68 0.89,1.77 -0.79,-2.06 z m -10.03,12.58 0.63,-0.1 0.3,0.76 0.45,0.22 -0.65,-1.45 z m 10.1,1.53 0.48,-0.07 0.23,0.57 0.34,0.16 -0.49,-1.09 -0.55,0.43 z m -0.5,-5.16 1.39,0.38 v -7.2 l -1.39,-0.6 z m 1.46,-7.07 -0.49,-1.09 -0.55,0.43 0.48,-0.07 0.23,0.57 0.34,0.16 z m -0.25,11.02 h -0.69 l -0.8,0.97 h 0.68 l 0.71,-0.68 0.89,1.77 -0.8,-2.06 z m -1.2,-3.08 c 0.4,0.03 0.34,1.56 0.69,1.52 0.39,0.15 0.28,-1.34 0.69,-1.17 0,0 0,-0.21 0,-0.21 -0.56,-0.14 -0.83,-0.22 -1.39,-0.36 v 0.21 z m -1.76,2.47 h -0.8 l -0.93,1.13 h 0.79 l 0.83,-0.79 1.04,2.07 -0.93,-2.4 z m -0.82,1.41 0.56,-0.09 0.27,0.67 0.39,0.19 -0.57,-1.27 -0.64,0.5 z m -0.1,-15.32 -0.93,1.13 h 0.79 l 0.83,-0.79 1.04,2.06 -0.93,-2.4 z m 1.2,2.19 -0.57,-1.27 -0.64,0.5 0.56,-0.09 0.27,0.67 0.39,0.19 z m -2.01,8.36 c 0.26,0.04 0.41,0.26 0.5,0.69 0.14,1.05 0.93,1.51 1.19,0.29 0.08,-0.39 0.26,-0.52 0.5,-0.42 v -0.22 c -0.87,-0.23 -1.31,-0.34 -2.18,-0.57 v 0.23 z m 81.27,-8.44 -2.47,1.28 h 1.46 v -0.06 c 0,0 -0.99,0 -0.99,0 l 2.04,-0.89 2.04,0.89 h -0.99 v 0.06 c 0,0 1.46,0 1.46,0 -0.02,0 -2.53,-1.32 -2.55,-1.28 z m -53.76,23.26 c 1.16,-0.15 0.89,1.52 2.09,1.48 1.2,0.04 0.93,-1.62 2.09,-1.48 0,0 0,-0.23 0,-0.23 h -4.18 z m -57.94,-5.4 h 1.25 c 0,0 0.81,0.07 0.81,0.07 v -0.18 c 0,0 -0.81,-0.07 -0.81,-0.07 h -1.25 z m 53.68,-17.87 -2.53,1.29 h 1.46 c 0.09,-0.12 -0.9,-0.03 -0.99,-0.06 l 2.04,-0.89 2.04,0.89 h -0.99 c -0.1,0.13 1.46,0.03 1.46,0.06 -0.03,0 -2.46,-1.28 -2.49,-1.29 z m 7.48,22.32 v -5.74 h -2.26 v 5.74 z m 0,-13.03 v -5.74 h -2.26 v 5.74 z m -1.11,3.74 -2.53,1.29 h 1.46 c 0.09,-0.12 -0.91,-0.03 -0.99,-0.06 l 2.04,-0.89 2.04,0.89 h -0.99 c -0.1,0.13 1.46,0.03 1.46,0.06 -0.03,-0.01 -2.46,-1.28 -2.49,-1.29 z m -8.49,-2.79 c 1.16,-0.15 0.89,1.52 2.09,1.48 1.2,0.04 0.93,-1.62 2.09,-1.48 0,0 0,-0.23 0,-0.23 h -4.18 z m 10.19,-7.07 h -3.46 v 0.23 h 3.46 z m -10.19,20.1 c 1.16,-0.15 0.89,1.52 2.09,1.48 1.2,0.04 0.93,-1.62 2.09,-1.48 0,0 0,-0.23 0,-0.23 h -4.18 z m 49.16,-20.1 h -3.46 v 0.23 h 3.46 z m -45.34,13.03 h -3.46 v 0.23 h 3.46 z m -0.6,-6.91 v -5.74 h -2.26 v 5.74 z m 0,13.03 v -5.74 h -2.26 v 5.74 z m 0.6,-19.15 h -3.46 v 0.23 h 3.46 z m -1.7,9.86 -2.53,1.29 h 1.46 c 0.09,-0.12 -0.9,-0.03 -0.99,-0.06 l 2.04,-0.89 2.04,0.89 h -0.99 c -0.1,0.13 1.46,0.03 1.46,0.06 -0.03,-0.01 -2.46,-1.28 -2.49,-1.29 z m 20.01,-13.21 c -1.53,0 -2.77,1.49 -2.77,3.33 0,0.92 0.02,15.92 0.12,5.19 -0.41,-7.93 5.04,-6.19 5.33,-1.46 0,0 0.06,5.32 0.06,5.32 l 0.03,-9.06 c 0,-1.84 -1.24,-3.33 -2.77,-3.33 z m 5.87,0 c -1.51,-0.01 -2.78,1.48 -2.77,3.32 v 6.98 c 0,0 0.45,0 0.45,0 v 1.97 h 0.29 v -2.15 h -0.62 v -5.03 h 0.37 l 0.68,1.94 c 0,0 1.57,0.02 1.55,-0.01 -0.03,0.03 1.55,0 1.55,0.01 0,0 0.68,-1.94 0.68,-1.94 h 0.37 v 5.03 h -0.62 v 2.15 h 0.29 v -1.97 h 0.45 v -6.98 c 0,-1.8 -1.19,-3.26 -2.68,-3.32 z m 5.78,0 c -1.53,0 -2.77,1.49 -2.77,3.33 l 0.03,9.06 0.06,-5.32 c 0.29,-4.73 5.74,-6.48 5.33,1.46 0.1,10.73 0.12,-4.29 0.12,-5.19 0,-1.84 -1.24,-3.33 -2.77,-3.33 z m -27.4,10.42 c 1.16,-0.15 0.89,1.52 2.09,1.48 1.2,0.04 0.93,-1.62 2.09,-1.48 0,0 0,-0.23 0,-0.23 h -4.18 z m 35.66,6.38 h -1.7 v -15.55 c 0,-0.38 0.26,-1.54 0.73,-1.14 0.43,0.55 0.79,-0.11 0.94,-0.5 0,0 -2.08,0 -1.96,0 v -0.82 h -0.53 v 0.82 h -1.86 c 0.12,0.39 0.44,0.93 0.85,0.52 0.56,-0.42 0.85,0.66 0.84,1.1 0,0 0,15.46 0,15.46 h -1.14 v 0.58 h -0.95 v 0.59 h 5.33 v -0.5 h -0.56 v -0.56 z m 7.13,-0.43 h -3.46 v 0.23 h 3.46 z m -1.77,-3.16 -2.47,1.28 h 1.46 v -0.06 c 0,0 -0.99,0 -0.99,0 l 2.04,-0.89 2.04,0.89 h -0.99 v 0.06 c 0,0 1.46,0 1.46,0 -0.02,0 -2.54,-1.32 -2.55,-1.28 z m 1.17,9.28 v -5.74 h -2.26 v 5.74 z m -3.22,0.95 c 1.16,-0.15 0.89,1.52 2.09,1.48 1.2,0.04 0.93,-1.62 2.09,-1.48 0,0 0,-0.23 0,-0.23 h -4.18 z m -26.88,-24.26 c 0,0 9.47,0 9.48,0 v -0.12 h -9.45 c 0,0 -0.46,-0.32 -0.47,-0.34 0,0 -1.22,0 -1.22,0 v 0.12 h 1.19 l 0.46,0.33 z m 18.97,0 0.46,-0.33 h 1.19 v -0.12 h -1.22 c 0,0 -0.46,0.33 -0.47,0.34 0,0 -9.45,0 -9.45,0 v 0.12 c 0,0 9.48,0.02 9.48,0 z m -28.94,0.99 -2.53,1.29 h 1.46 c 0.09,-0.12 -0.91,-0.03 -0.99,-0.06 l 2.04,-0.89 2.04,0.89 h -0.99 c -0.1,0.13 1.46,0.03 1.46,0.06 -0.03,0 -2.46,-1.28 -2.49,-1.29 z m 17.91,10.12 h 3.11 v -2.99 h -3.11 z m -32.77,0.12 c 1.16,-0.15 0.89,1.52 2.09,1.48 1.2,0.04 0.93,-1.62 2.09,-1.48 0,0 0,-0.23 0,-0.23 h -4.18 z m 24.06,6.27 h -1.14 v -15.46 c 0,-0.45 0.28,-1.51 0.84,-1.1 0.22,0.24 0.56,0.16 0.7,-0.15 l 0.16,-0.37 h -1.86 v -0.82 h -0.53 v 0.82 c 0.12,0 -1.96,0 -1.96,0 l 0.22,0.45 c 0.16,0.31 0.53,0.34 0.72,0.05 0.47,-0.42 0.74,0.77 0.73,1.14 0,0 0,15.55 0,15.55 H 150 v 0.56 h -0.56 v 0.5 h 5.33 v -0.59 h -0.95 z m -21.94,-16.51 -2.53,1.29 h 1.46 c 0.09,-0.12 -0.91,-0.03 -0.99,-0.06 l 2.04,-0.89 2.04,0.89 h -0.99 c -0.1,0.13 1.46,0.03 1.46,0.06 -0.03,0 -2.46,-1.28 -2.49,-1.29 z m 161.76,49.22 c 0.32,-0.8 -0.11,-3.23 -1.19,-2.45 -0.23,0.18 -0.47,0.43 -0.74,0.43 -0.17,0 0,-1.08 -0.09,-2.3 -0.15,-2.21 -0.79,-5.02 -2.37,-4.72 -1.6,0.55 -2.08,2.95 -2.61,4.36 -0.25,0.72 -0.51,2.39 -1.1,1.44 -0.69,-1.04 -1.52,-0.11 -1.73,0.95 -0.5,1.43 -0.21,4.31 -0.54,5.42 -0.15,0.22 -0.34,0.02 -0.61,-0.14 -0.37,-0.22 -0.7,-0.17 -1.1,0.15 -0.98,0.78 -0.67,2.74 -0.56,3.21 0.11,0.47 0.79,1.11 0.73,1.44 -0.2,0.28 -1.23,-0.59 -1.63,-0.09 -0.58,0.59 -0.45,1.86 -0.26,2.57 0.18,0.71 1.12,1.52 1.05,1.84 -0.07,0.33 -0.32,0.19 -0.62,0.41 -0.29,0.22 -0.44,1.44 -0.58,1.9 -0.1,0.38 -0.61,0.94 -0.77,1.22 -0.16,0.22 -0.47,1.97 0.39,1.71 0.86,-0.65 1.42,-1.92 2.16,-2.88 2.47,-3.9 4.86,-8.12 5.81,-12.67 -0.66,4.71 -4.18,11.35 -7.3,15.91 1.46,-0.21 5.33,-3.54 6.1,-4.79 0.1,-0.86 -0.79,0 -0.69,-0.58 1.24,-0.81 3.68,-1.27 4.86,-2.63 0.77,-0.58 1.91,-2.92 0.47,-3.1 -0.42,-0.03 -0.91,0.02 -1.08,-0.23 0,-0.48 3.94,-4.61 4.01,-6.4 z M 290.49,72.34 c -0.47,0.48 0.09,0.98 -0.03,1.53 -0.04,0.18 -0.73,-0.03 -1.56,0.01 -4.12,0.05 -5.1,3.39 -1.33,5.31 0.61,0.33 1.43,0.71 0.75,1.25 -0.54,0.49 -0.76,1.49 0.3,1.95 1.25,0.63 3.23,0.22 3.44,0.55 0.14,0.37 -0.35,0.69 -0.41,1.04 -0.21,1.08 1.26,1.41 1.94,1.08 0.33,-0.12 0.9,-0.89 1.1,-0.82 0.12,0.26 -0.69,1.5 -0.44,1.88 0.26,0.67 1.1,0.51 1.6,0.29 0.5,-0.21 1.22,-1.25 1.41,-1.17 0.19,0.08 0.05,0.35 0.13,0.67 0.08,0.32 0.83,0.45 1.09,0.6 0.26,0.15 0.5,0.71 0.62,0.8 0.58,0.46 1.4,0.03 1.12,-0.74 -0.77,-1.28 -1.82,-2.68 -2.76,-3.95 -1.6,-1.61 -3.39,-3.31 -5.56,-4.07 0.05,0.03 0.2,0.04 0.3,0.08 3.23,1.17 5.8,3.77 7.74,6.52 0.25,0.35 0.49,0.67 0.71,0.98 0.08,-0.35 0.08,-0.98 -0.2,-2.08 -0.44,-1.39 -0.54,-3.15 -1.41,-4.24 -0.53,-0.09 -0.17,0.82 -0.53,0.72 -0.27,-1.22 0.02,-3.65 -0.62,-5 -0.24,-0.6 -0.6,-1.04 -1.1,-1.17 -0.99,-0.24 -0.83,1.43 -1.23,1.79 -0.1,0.09 -0.3,-0.27 -0.59,-0.81 -0.81,-1.54 -2.59,-4.87 -4.48,-2.99 z m -5.04,132.44 c 0.16,-2.52 0.2,-20.26 0.16,-23.21 0,-4.84 -1.71,-8.51 -3.81,-8.2 -2.11,0.31 -3.81,4.24 -3.81,8.78 v 17.88 c 0.2,1.05 0.25,2.84 0.21,3.92 2.9,0.33 4.35,0.49 7.25,0.82 z M 132.99,179.25 v -5.74 h -2.26 v 5.74 z m 133.22,23.35 c 0.12,-2.13 0.16,-17.07 0.13,-19.56 -0.16,-9.99 -5.83,-8.49 -5.88,0.45 0,0 0,15.16 0,15.16 0.16,0.89 0.19,2.41 0.16,3.32 2.24,0.25 3.35,0.38 5.59,0.63 z m -7.93,-0.9 c 0.11,-1.96 0.15,-15.76 0.12,-18.06 -0.14,-9.22 -5.41,-7.83 -5.46,0.41 0,0 0,13.99 0,13.99 0.14,0.82 0.18,2.22 0.15,3.07 2.07,0.24 3.11,0.35 5.19,0.59 z m 16.73,1.9 c 0.13,-2.31 0.17,-18.53 0.13,-21.23 -0.16,-10.84 -6.16,-9.24 -6.21,0.47 0,0 0,16.48 0,16.48 0.16,0.96 0.2,2.62 0.17,3.61 2.36,0.27 3.54,0.4 5.9,0.67 z m 11.17,-38.64 -4.7,0.91 v -3.96 l 4.7,-1.15 v -0.14 l -4.7,1.15 v -0.42 l 4.63,-1.16 v -0.28 c -2.93,0.73 -8.94,2.23 -11.89,2.97 0,0 0,-1.57 0,-1.57 h -2.11 v 2.1 l -0.45,0.11 v -2.21 h -2.11 v 2.74 l -1.34,0.34 v -3.86 h 0.84 v -0.23 c 0.06,-3.87 5.53,-3.87 5.6,0 0,0 0,0.23 0,0.23 h 1 v -0.46 h -0.6 c -0.05,-0.79 -0.36,-1.51 -0.83,-2.06 h 3.4 l -5.76,-4.09 -5.76,4.09 h 3.4 c -0.47,0.55 -0.78,1.27 -0.83,2.06 h -0.45 v -1.36 h -0.31 v 5.75 l -11.84,2.95 h -1.55 v 0.39 l -0.45,0.11 v -0.5 h -2.11 v 1.02 l -0.77,0.19 h -0.03 c 0,0 -0.55,0.14 -0.55,0.14 v -8.25 h 0.84 v -0.23 c 0.07,-3.87 5.53,-3.87 5.6,0 0,0 0,0.23 0,0.23 h 1 v -0.46 h -0.6 c -0.05,-0.79 -0.36,-1.51 -0.83,-2.06 h 3.4 l -5.76,-4.09 -5.76,4.09 h 3.4 c -0.47,0.55 -0.78,1.27 -0.83,2.06 h -0.45 v -1.36 h -0.31 v 10.15 l -2.73,0.68 v 2.92 l -2.62,0.51 v 0.57 c 0,0 0,26.68 0,26.68 h 0.16 v -26.71 l 41.07,-7.96 v -0.57 z m -35.95,6.96 -2.34,0.45 v -2.27 l 2.34,-0.57 z m 0,-2.54 -2.34,0.57 v -0.22 l 2.34,-0.59 v 0.23 z m 0.93,2.36 -0.72,0.14 v -2.78 l 0.72,-0.18 z m 3.29,-0.64 -2.87,0.56 v -2.46 l 2.87,-0.7 z m 0,-2.75 -2.87,0.7 v -0.24 l 2.87,-0.72 z m 1.48,2.46 -1.27,0.25 v -3.02 l 1.27,-0.32 z m 3.44,-0.67 -3.02,0.58 v -2.7 l 3.02,-0.74 v 2.85 z m 0,-3 -3.02,0.74 v -0.27 l 3.02,-0.75 v 0.29 z m 1.89,2.63 -1.68,0.33 v -3.3 l 1.68,-0.42 z m 3.69,-0.71 -3.26,0.63 v -2.97 l 3.26,-0.8 v 3.13 z m 0,-3.28 -3.26,0.8 v -0.3 l 3.26,-0.82 z m 1.81,2.93 -1.62,0.31 v -3.61 l 1.62,-0.4 z m 4.56,-0.88 -3.91,0.76 v -3.25 l 3.91,-0.92 v 3.42 z m 0,-3.56 -3.91,0.92 v -0.34 l 3.91,-0.98 v 0.39 z m 2.21,3.13 -1.96,0.38 v -3.97 l 1.96,-0.49 z m 4.62,-0.89 -3.94,0.76 v -3.57 l 3.94,-0.99 z m 0,-3.94 -3.94,0.99 v -0.4 l 3.94,-0.99 z m 2.48,3.46 -2.23,0.43 v -4.36 l 2.23,-0.56 v 4.48 z m 30.96,-1.68 c 0.99,-1.63 2.37,-3.86 1.73,-5.77 -0.51,-1.27 -1.51,0.47 -2.01,0.38 -0.26,-0.05 0.42,-2.19 0.64,-4.38 0.13,-1.52 0.38,-4.21 -1.57,-4.45 -0.63,-0.04 -0.57,0.98 -1.01,1.36 -0.14,0.12 -0.48,-0.78 -1.07,-1.59 -1.07,-1.49 -2.8,-3.09 -4.03,-1.7 -1.21,1.37 -0.31,5.01 -0.13,6.22 0.19,1.51 -0.71,0.42 -1.38,1.18 -0.93,0.96 0.28,3.5 0.93,4.47 0.55,1.04 1.37,1.67 0.24,1.97 -0.29,0.12 -0.64,0.32 -0.87,0.98 -0.45,1.32 0.72,2.37 1.03,2.59 0.31,0.22 1.17,0.11 1.27,0.37 0.05,0.13 -0.25,0.26 -0.59,0.45 -1.46,0.57 -0.71,2.15 0.2,2.66 0.48,0.32 1.62,0.12 1.72,0.39 0.1,0.27 -0.17,0.37 -0.31,0.75 -0.13,0.37 0.32,1.28 0.42,1.69 0.1,0.41 -0.08,1.18 -0.06,1.38 0,0.42 0.6,1.58 1.12,0.82 0.71,-3.71 0.55,-7.95 0.31,-11.83 -0.16,-1.65 -0.39,-3.41 -0.92,-4.95 1.44,4.13 1.5,8.72 1.48,13.06 -0.04,1.16 -0.08,2.34 -0.16,3.45 1.05,-1.27 2.57,-5.9 2.74,-7.76 -0.31,-0.66 -0.64,0.6 -0.83,0.14 -0.04,-0.32 0.8,-1.36 1.11,-1.87 z M 307.3,91.89 c 0.59,1.1 1.45,2.42 1.56,3.63 -0.23,0.47 -0.41,-1.1 -0.73,-0.15 0.08,1.9 0.12,6.35 0.71,7.81 1.09,-4.32 1.93,-9.04 2.44,-13.35 0.02,2.24 -0.3,4.51 -0.66,6.72 -0.4,2.23 -0.9,4.7 -1.3,6.82 0.04,0.27 -0.08,0.66 0.45,0.71 0.94,-0.36 0.69,-1.24 1.06,-2.08 0.18,-0.34 0.79,-1.08 0.77,-1.5 -0.47,-1.61 0.45,-0.51 1.47,-0.67 0.49,-0.16 1.26,-0.65 1.27,-1.62 0,-0.84 -1.1,-1.51 -0.96,-1.75 0.14,-0.25 0.86,0.12 1.18,-0.01 0.98,-0.38 1.68,-1.97 1.23,-3.09 -0.14,-0.81 -0.89,-1.23 -1.1,-1.86 -0.07,-0.53 0.33,-1.12 0.75,-2.19 0.51,-0.81 0.27,-2.43 1.33,-2.82 0.03,-0.22 0.04,-0.46 0.02,-0.64 0.01,-0.61 -0.5,-1.31 -0.97,-1.17 -0.32,0.15 -0.6,-0.26 -0.56,-1.32 0.02,-2.54 0.56,-6.15 -0.95,-8.47 -1.36,-1.6 -2.58,0.83 -3.34,2.75 -0.42,1.06 -0.62,2.18 -0.76,2.05 -0.43,-0.38 -0.5,-1.54 -1.04,-1.36 -0.7,0.24 -1.02,0.97 -1.14,1.91 -0.4,1.67 1.04,7.78 0.76,8.15 -0.23,0.04 -0.56,-0.42 -0.88,-0.7 -0.33,-0.29 -0.66,-0.39 -0.89,0.31 -0.39,1.23 -0.1,2.67 0.3,3.91 z m 7.65,23.22 c -1,2.55 1.12,5.87 1.51,8.19 -0.26,0.4 -0.32,-0.91 -0.72,-0.34 -0.23,1.14 0.12,4.23 0.14,5.75 0.04,1.36 0.14,2.3 0.33,2.39 1.62,-5.39 2.52,-11.12 4.36,-16.44 0.22,-0.59 -0.15,0.44 -0.19,0.6 -1.46,5.23 -2.35,10.93 -3.68,16.11 0.03,0.3 -0.09,0.67 0.45,0.81 1,-0.21 0.76,-1.17 1.17,-1.97 0.21,-0.34 0.87,-0.99 0.86,-1.43 -0.41,-1.76 0.5,-0.46 1.56,-0.44 0.51,-0.07 1.35,-0.46 1.39,-1.49 0.02,-0.88 -1.14,-1.78 -0.99,-2.01 0.15,-0.24 0.91,0.28 1.24,0.19 0.33,-0.09 1.62,-0.69 1.45,-2.52 -0.04,-0.58 -0.24,-1.19 -0.64,-1.55 -0.98,-0.74 -0.21,-1.15 0.5,-2.25 1.3,-1.4 2.42,-5.63 0.49,-5.95 -0.36,0.04 -0.6,-0.31 -0.48,-1.24 0.3,-1.48 0.87,-6.7 -0.38,-8.27 -1.33,-1.91 -2.74,0.34 -3.64,2.15 -0.5,1.01 -0.79,2.08 -0.92,1.93 -0.39,-0.33 -0.35,-1.59 -1,-1.58 -2.26,0.77 -1.24,4.87 -1.2,6.86 0.04,0.74 0.41,2.81 0.19,3.03 -0.47,0.03 -1.25,-1.87 -1.81,-0.57 z m -1.4,25.23 c 0.55,-1.5 0.37,-6.15 -0.07,-7.67 -0.48,-0.35 -0.37,0.83 -0.69,0.57 0.07,-1.52 0.99,-4.09 0.78,-5.84 -0.05,-0.78 -0.27,-1.44 -0.7,-1.82 -0.86,-0.75 -1.17,1.19 -1.64,1.39 -0.61,-1.46 -0.6,-4.89 -1.83,-6.26 -0.46,-0.55 -1.04,-0.76 -1.77,-0.38 -0.57,0.33 -0.19,1.14 -0.47,1.64 -0.09,0.18 -0.66,-0.38 -1.44,-0.72 -3.3,-1.61 -5.39,0.63 -3.55,3.85 0.49,0.99 1.12,1.85 1.29,2.12 0.34,0.55 0.19,0.89 -0.18,1.01 -0.37,0.13 -1.31,1.04 -0.29,2.4 0.65,1.07 2.51,1.62 3.07,2.32 -0.01,0.59 -0.91,0.85 -0.81,1.95 0.02,1.29 1.39,1.46 1.73,1.46 0.34,0 1.06,-0.56 1.24,-0.42 0.17,0.15 -0.91,1.08 -0.8,1.74 0.09,0.78 0.94,0.96 1.47,0.94 0.93,-0.09 2.04,-1.51 1.6,0.11 0,0.37 0.68,0.83 0.89,1.11 0.21,0.27 0.31,0.98 0.4,1.13 0.27,0.51 1.08,0.78 1.24,0.01 -0.15,-1.73 -0.99,-3.6 -1.6,-5.32 -1.06,-2.62 -2.22,-5.35 -4.05,-7.52 -0.07,-0.08 -0.21,-0.22 -0.24,-0.26 0.04,0.05 0.17,0.15 0.25,0.24 3.02,3.42 4.78,7.94 6.17,12.24 z m -7.76,47.57 c 0.79,-1.93 2.48,-5.14 0.33,-6.57 -0.58,-0.31 -0.79,0.72 -1.3,0.91 -0.16,0.06 -0.25,-0.97 -0.6,-2.02 -0.63,-1.92 -1.86,-4.19 -3.35,-3.38 -1.36,0.95 -1.37,3.33 -1.58,4.83 -0.09,0.78 -0.01,2.37 -0.8,1.77 -0.9,-0.51 -1.51,0.16 -1.57,1.61 -0.13,2.1 0.88,4.54 0.68,5.05 -0.2,0.51 -0.94,-0.41 -1.71,0.7 -0.66,0.85 -0.21,2.41 0.21,3.05 0.22,0.36 1.05,0.66 1.07,0.97 0.02,0.31 -1.28,-0.07 -1.63,0.57 -0.41,0.77 0.02,1.81 0.38,2.35 0.65,0.9 2.26,0.86 0.98,1.79 -0.23,0.31 -0.08,1.42 -0.11,1.88 -0.03,0.45 -0.41,1.16 -0.45,1.38 -0.03,0.22 -0.08,0.92 0.2,1.27 0.43,0.43 0.65,-0.02 0.81,-0.2 2.04,-5.17 3.97,-11.07 3.97,-16.77 0.08,0.93 0.04,1.98 -0.04,2.97 -0.43,4.78 -1.77,9.57 -3.39,14.06 1.01,-0.33 1.95,-2.12 2.75,-3.1 0.42,-0.63 3,-4.08 1.59,-3.59 -0.19,0.11 -0.37,0.24 -0.39,-0.03 1.01,-1.2 3.27,-2.51 4.14,-4.14 0.44,-0.73 0.7,-1.51 0.64,-2.27 -0.13,-1.49 -1.54,-0.18 -1.98,-0.49 -0.15,-0.31 0.88,-1.92 1.14,-2.59 z M 304.5,97.57 c -0.85,-1.01 -1.5,-4.31 -3.11,-5.26 -0.58,-0.37 -1.21,-0.36 -1.87,0.29 -0.51,0.5 0.05,1.15 -0.12,1.77 -0.06,0.2 -0.74,-0.11 -1.61,-0.15 -1.57,-0.09 -3.72,0.28 -3.97,2.3 -0.18,1.76 1.51,3.18 2.87,3.91 0.3,0.2 0.37,0.39 0.2,0.63 -0.72,0.51 -1.15,1.77 1.22,2.48 -1.48,0.2 -1.77,1.73 -1.11,2.12 0.3,0.18 0.39,0.16 0.71,0.15 0.77,0 2.55,-0.49 2.99,-0.19 0.06,0.21 -0.48,0.61 -0.54,0.92 -0.15,0.74 0.21,1.74 1.01,1.85 0.43,0.09 0.87,0 1.04,-0.07 0.35,-0.12 0.97,-0.94 1.18,-0.85 0.2,0.1 -0.73,1.43 -0.51,2.09 0.25,0.77 1.15,0.66 1.68,0.46 0.53,-0.2 1.31,-1.33 1.51,-1.23 0.2,0.1 0.05,0.41 0.12,0.79 0.08,0.38 0.86,0.61 1.12,0.81 0.26,0.2 0.5,0.89 0.61,1 0.11,0.11 0.53,0.41 0.89,0.23 0.36,-0.18 0.36,-0.65 0.36,-0.65 -0.78,-2.2 -2.49,-4.78 -3.98,-6.7 -0.7,-0.86 -4.04,-5.15 -4.06,-5.16 -0.05,-0.03 2.37,2.78 2.68,3.15 0.84,1.02 1.9,2.17 2.66,3.25 1.01,1.44 2.28,3.16 3.12,4.67 0.15,-0.76 0.04,-1.5 -0.15,-2.48 -0.32,-1.57 -0.59,-3.19 -1.08,-4.64 -0.16,-0.42 -0.22,-0.64 -0.51,-0.47 -0.21,0.19 -0.07,0.85 -0.36,0.74 -0.2,-1 0.21,-2.19 -0.22,-3.68 -0.1,-0.91 -0.17,-1.98 -0.45,-2.76 -0.28,-1 -1.48,-1.83 -1.85,-0.51 -0.17,0.47 -0.27,1.02 -0.49,1.19 z m -7.85,-36.83 c 0.28,0.64 1.19,2.26 1.06,2.54 -0.38,0.28 -1.57,-0.99 -1.64,0.45 -0.15,2.53 2.59,4.54 3.62,6.41 -0.1,0.49 -0.51,-0.64 -0.69,0.07 0.38,1.45 1.76,6.14 2.5,7.09 0.09,-5.33 -0.94,-12.42 -0.99,-16.91 0.17,4.59 1.18,9.22 1.28,13.83 0.12,1.13 0,2.34 0.28,3.32 0,0 0.18,0.35 0.48,0.18 0.75,-0.65 0.33,-1.36 0.45,-2.29 0.08,-0.39 0.46,-1.29 0.35,-1.65 -0.12,-0.36 -0.34,-0.45 -0.27,-0.72 0.07,-0.27 1.03,-0.11 1.44,-0.43 0.73,-0.46 1.35,-2.18 0.07,-2.71 -1.22,-0.6 0,-0.53 0.54,-0.86 0.13,-0.12 0.42,-0.46 0.63,-0.94 0.55,-1.15 -0.13,-2.86 -1.21,-3.43 -0.3,-0.12 -0.51,-0.09 -0.59,-0.39 -0.16,-0.6 0.85,-2.73 0.61,-5.17 -0.18,-1.46 -0.7,-2.65 -1.7,-2.3 -0.28,0.23 -0.59,0.04 -0.77,-0.84 -0.16,-0.87 -0.46,-2.35 -0.8,-3.44 -1.18,-4.23 -3.82,-5.54 -4.28,0.33 -0.11,1.12 -0.03,2.18 -0.18,2.13 -0.47,-0.15 -0.82,-1.17 -1.26,-0.79 -1.47,1.23 0.15,4.63 1.06,6.54 z M 133.58,186.16 h -3.46 v 0.23 h 3.46 z m -3.82,7.07 c 1.16,-0.15 0.89,1.52 2.09,1.48 1.2,0.04 0.93,-1.62 2.09,-1.48 0,0 0,-0.23 0,-0.23 h -4.18 z m -4.26,-23.27 -2.53,1.29 h 1.46 c 0.09,-0.12 -0.9,-0.03 -0.99,-0.06 l 2.04,-0.89 2.04,0.89 h -0.99 c -0.1,0.13 1.46,0.03 1.46,0.06 -0.03,0 -2.46,-1.28 -2.49,-1.29 z m 8.08,3.17 h -3.46 v 0.23 h 3.46 z m -10.19,7.07 c 1.16,-0.15 0.89,1.52 2.09,1.48 1.2,0.04 0.93,-1.62 2.09,-1.48 0,0 0,-0.23 0,-0.23 h -4.18 z m 8.49,2.79 -2.53,1.29 h 1.46 c 0.09,-0.12 -0.91,-0.03 -0.99,-0.06 l 2.04,-0.89 2.04,0.89 h -0.99 c -0.1,0.13 1.46,0.03 1.46,0.06 -0.03,-0.01 -2.46,-1.28 -2.49,-1.29 z m 1.11,9.29 v -5.74 h -2.26 v 5.74 z m -6.37,0 v -5.74 h -2.26 v 5.74 z m 0.6,-6.12 h -3.46 v 0.23 h 3.46 z m -3.82,7.07 c 1.16,-0.15 0.89,1.52 2.09,1.48 1.2,0.04 0.93,-1.62 2.09,-1.48 0,0 0,-0.23 0,-0.23 h -4.18 z m 125.67,72.24 c 1.35,-1.21 2.21,-2.9 1.42,-4.76 -0.29,-0.74 -0.74,-0.04 -1.18,-0.3 0,-0.93 0.5,-4.39 0.08,-5.82 -1.04,-4.99 -3.02,-0.86 -4,1.43 -0.31,0.6 -0.55,0.43 -0.66,-0.1 -1.49,-3.62 -2.55,4.56 -2.91,5.05 -0.25,0.21 -0.4,-0.66 -0.89,-0.89 -0.78,0.23 -2.6,0.37 -3.34,0.8 -1.35,0.52 -1.7,2.53 -1.31,3.52 0.31,0.67 2.14,1.83 0.06,1.38 -2.06,-0.49 -2.39,1.84 -1.69,3.01 0.19,0.53 1.5,1.11 1.55,1.6 -0.06,0.35 -0.39,0.26 -0.74,0.56 -0.37,0.34 -0.36,1.59 -0.44,2.04 -0.22,0.89 -0.79,1.23 -0.7,2.04 0.15,1.43 1.05,1.14 1.43,0.03 1.09,-2.19 2.55,-4.31 4.11,-6.23 0,0 1.07,-0.21 1.07,-0.21 1.81,-2.06 3.5,-4.4 4.41,-6.99 -0.06,0.19 -0.16,0.51 -0.25,0.74 -0.94,2.48 -2.48,4.77 -4.16,6.82 0,0 -0.99,0.2 -0.99,0.2 -1.56,2.1 -2.96,4.34 -4,6.73 1.14,-0.36 2.1,-1.51 3.21,-2.22 0.62,-0.35 1.1,-0.88 1.78,-0.96 1,-0.35 2,-0.85 1.23,-1.37 -0.17,-0.07 -0.34,-0.11 -0.25,-0.37 0.49,-0.25 1.81,0.31 2.53,0.26 1.29,0.06 2.72,-0.26 3.18,-1.74 0.22,-0.72 -0.04,-1.09 -0.37,-1.36 -0.33,-0.27 -0.74,-0.45 -0.84,-0.79 -0.1,-0.32 1.4,-0.94 2.66,-2.09 z m -123.56,-82.48 -2.53,1.29 h 1.46 c 0.09,-0.12 -0.9,-0.03 -0.99,-0.06 l 2.04,-0.89 2.04,0.89 h -0.99 c -0.1,0.13 1.46,0.03 1.46,0.06 -0.03,-0.01 -2.46,-1.28 -2.49,-1.29 z m 1.11,-3.74 v -5.74 h -2.26 v 5.74 z m 0.6,-6.12 h -3.46 v 0.23 h 3.46 z m 19.12,13.03 h -3.46 v 0.23 h 3.46 z M 84.58,164.6 h 1.24 l 0.8,0.27 0.04,-0.17 -0.81,-0.27 h -1.27 c 0,0 0,0.18 0,0.18 z m 0,-1.55 h 1.24 l 0.8,0.32 0.05,-0.17 -0.81,-0.32 h -1.28 c 0,0 0,0.18 0,0.18 z m 0,-1.55 h 1.24 l 0.8,0.36 0.06,-0.17 -0.81,-0.36 h -1.28 c 0,0 0,0.17 0,0.17 z m 0,7.74 h 1.24 l 0.8,0.28 0.05,-0.17 -0.81,-0.28 h -1.27 c 0,0 0,0.18 0,0.18 z m 0,-9.29 h 1.24 l 0.8,0.41 0.06,-0.17 -0.81,-0.41 h -1.28 c 0,0 0,0.17 0,0.17 z m 0,7.74 h 1.24 l 0.8,0.29 0.05,-0.17 -0.81,-0.3 h -1.28 c 0,0 0,0.18 0,0.18 z m 0,-1.55 h 1.24 l 0.8,0.31 0.05,-0.17 -0.81,-0.31 h -1.28 c 0,0 0,0.18 0,0.18 z m 0,-7.74 h 1.24 l 0.8,0.37 0.06,-0.17 -0.81,-0.37 h -1.28 c 0,0 0,0.17 0,0.17 z m 2.1,-9.03 -0.81,-0.44 h -1.28 c 0,0 0,0.17 0,0.17 h 1.23 l 0.79,0.43 z m -2.1,1.28 h 1.24 l 0.8,0.41 0.06,-0.17 -0.81,-0.42 h -1.28 c 0,0 0,0.17 0,0.17 z m 0,1.55 h 1.24 l 0.8,0.39 0.06,-0.17 -0.81,-0.4 h -1.28 c 0,0 0,0.17 0,0.17 z m 0,3.1 h 1.23 l 0.79,0.42 0.07,-0.16 -0.81,-0.43 h -1.28 c 0,0 0,0.17 0,0.17 z m 0,-1.55 h 1.23 l 0.79,0.43 0.07,-0.16 -0.81,-0.44 h -1.29 c 0,0 0,0.17 0,0.17 z m 0,3.1 h 1.24 l 0.8,0.4 0.06,-0.17 -0.81,-0.41 h -1.28 c 0,0 0,0.17 0,0.17 z m 0,13.94 h 1.23 c 0,0 0.81,0.23 0.81,0.23 l 0.04,-0.18 -0.83,-0.23 h -1.25 z m 0,26.33 c 0.49,0 1.58,0 2.07,-0.06 v -0.18 c -0.49,0.06 -1.58,0.07 -2.07,0.06 z M 86.64,194 v -0.18 c -0.48,0.02 -1.58,0.03 -2.06,0.02 0,0 0,0.18 0,0.18 0.49,0 1.58,0 2.06,-0.02 z m -2.06,4.67 c 0.5,0.01 1.59,0 2.07,-0.09 0,0 -0.02,-0.18 -0.02,-0.18 -0.47,0.09 -1.57,0.1 -2.05,0.09 z m 0,-12.39 h 1.25 l 0.81,0.05 v -0.18 c 0,0 -0.81,-0.05 -0.81,-0.05 h -1.25 z m 0,-3.1 h 1.25 l 0.81,0.08 v -0.18 C 86.17,183 85.08,182.99 84.58,183 Z m 0,12.39 c 0.49,0 1.58,0 2.07,-0.04 v -0.18 c -0.48,0.04 -1.58,0.05 -2.07,0.04 z m 0,-10.84 h 1.25 c 0,0 0.81,0.06 0.81,0.06 v -0.18 c 0,0 -0.81,-0.07 -0.81,-0.07 h -1.25 v 0.18 z m 0,-10.84 c 0.7,-0.01 1.34,-0.04 2.05,0.18 0,0 0.03,-0.18 0.03,-0.18 l -0.83,-0.18 h -1.25 z m 0,1.55 c 0.81,0 1.22,-0.06 2.04,0.22 0,0 0.04,-0.18 0.04,-0.18 l -0.83,-0.22 h -1.25 z m 0,1.55 c 0.74,0 1.29,-0.04 2.05,0.19 0,0 0.03,-0.18 0.03,-0.18 l -0.83,-0.2 h -1.25 v 0.18 z m 0,-4.65 h 1.24 l 0.8,0.25 0.04,-0.17 -0.81,-0.25 h -1.27 c 0,0 0,0.18 0,0.18 z m 0,9.29 h 1.24 l 0.81,0.1 0.02,-0.18 c -0.48,-0.1 -1.57,-0.11 -2.07,-0.1 z m 0,-3.1 h 1.24 c 0,0 0.81,0.13 0.81,0.13 l 0.02,-0.18 c -0.49,-0.13 -1.56,-0.15 -2.07,-0.13 z m 0,1.55 h 1.24 c 0,0 0.81,0.12 0.81,0.12 l 0.02,-0.18 c -0.48,-0.12 -1.57,-0.14 -2.07,-0.12 z m 103.28,0.11 c 1.16,-0.15 0.89,1.52 2.09,1.48 1.2,0.04 0.93,-1.62 2.09,-1.48 0,0 0,-0.23 0,-0.23 h -4.18 z m 3.22,-0.95 v -5.74 h -2.26 v 5.74 z m -1.17,-9.28 -2.47,1.28 h 1.46 v -0.06 c 0,0 -0.99,0 -0.99,0 l 2.04,-0.89 2.04,0.89 H 191 v 0.06 c 0,0 1.46,0 1.46,0 -0.02,0 -2.53,-1.32 -2.55,-1.28 z m 1.77,3.16 h -3.46 v 0.23 h 3.46 z m 4.6,9.87 -2.47,1.28 h 1.46 v -0.06 c 0,0 -0.99,0 -0.99,0 l 2.04,-0.89 2.04,0.89 h -0.99 v 0.06 c 0,0 1.46,0 1.46,0 -0.02,0 -2.54,-1.32 -2.55,-1.28 z m 1.77,3.16 h -3.46 v 0.23 h 3.46 z m -0.6,6.12 v -5.74 h -2.26 v 5.74 z m -13.92,-22.31 -2.47,1.28 h 1.46 v -0.06 c 0,0 -0.99,0 -0.99,0 l 2.04,-0.89 2.04,0.89 h -0.99 c -0.13,0.13 1.46,0.03 1.46,0.06 -0.02,0 -2.53,-1.32 -2.55,-1.28 z m -2.05,10.23 c 1.16,-0.15 0.89,1.52 2.09,1.48 1.2,0.04 0.93,-1.62 2.09,-1.48 0,0 0,-0.23 0,-0.23 h -4.18 z m 6.37,13.03 c 1.16,-0.15 0.89,1.52 2.09,1.48 1.2,0.04 0.93,-1.62 2.09,-1.48 0,0 0,-0.23 0,-0.23 h -4.18 z m 2.05,-10.23 -2.47,1.28 h 1.46 v -0.06 c 0,0 -0.99,0 -0.99,0 l 2.04,-0.89 2.04,0.89 h -0.99 c -0.13,0.13 1.46,0.03 1.46,0.06 -0.02,0 -2.54,-1.32 -2.55,-1.28 z m 1.77,3.16 h -3.46 v 0.23 h 3.46 z m -0.6,6.12 v -5.74 h -2.26 v 5.74 z m 3.15,0.95 c 1.16,-0.15 0.89,1.52 2.09,1.48 1.2,0.04 0.93,-1.62 2.09,-1.48 0,0 0,-0.23 0,-0.23 h -4.18 z m 3.82,-20.1 h -3.46 v 0.23 h 3.46 z m 5.78,6.12 v -5.74 h -2.26 v 5.74 z m -1.17,3.75 -2.47,1.28 h 1.46 v -0.06 c 0,0 -0.99,0 -0.99,0 l 2.04,-0.89 2.04,0.89 h -0.99 v 0.06 c 0,0 1.46,0 1.46,0 -0.02,0 -2.54,-1.32 -2.55,-1.28 z m 1.77,-9.87 h -3.46 v 0.23 h 3.46 z m -1.77,-3.16 -2.47,1.28 h 1.46 v -0.06 c 0,0 -0.99,0 -0.99,0 l 2.04,-0.89 2.04,0.89 h -0.99 v 0.06 c 0,0 1.46,0 1.46,0 -0.02,0 -2.53,-1.32 -2.55,-1.28 z m -17.94,9.28 v -5.74 h -2.26 v 5.74 z m 52.9,20.43 c 1.54,0.15 4.41,0.65 6.01,0.55 0,0 0,-0.18 0,-0.18 h -1.25 c 0,0 -1.97,-0.22 -1.97,-0.22 v -18.59 l -2.78,0.35 v 17.91 l -1.3,-0.15 v -17.59 l -2.41,0.31 v 17 l -1.3,-0.15 v -16.68 l -2.54,0.32 v 16.05 l -2.25,-0.27 v -15.5 l -2.69,0.34 v 14.84 l -1.31,-0.16 v -14.52 l -2.37,0.3 v 13.93 l -1.31,-0.16 v -13.61 l -2.11,0.27 v 13.09 l -1.31,-0.16 v -12.77 l -2.06,0.26 v 12.26 l -1.31,-0.16 v -11.94 l -2.3,0.29 v 11.38 l -1.31,-0.16 V 185.1 l -1.39,0.18 v 10.71 c 0,0 -1.57,-0.19 -1.58,-0.19 0,0 -0.14,-27.64 -0.14,-27.64 -0.01,-0.38 0.16,-0.73 0.45,-0.89 8.48,-4.63 26.9,-14.79 35.29,-19.32 0,0 41.39,0 41.39,0 l 2.78,-3.38 -44.12,-0.02 -15.13,9.1 -21.02,12.65 c 0,0 -84.31,0.03 -84.32,0 -8.7,-5.24 -27.55,-16.57 -36.15,-21.75 0,0 -44.12,0.02 -44.12,0.02 l 2.78,3.38 h 41.39 c 8.37,4.52 26.78,14.68 35.29,19.32 0.29,0.16 0.46,0.51 0.45,0.89 l -0.14,27.64 c 0,0 -1.57,0.19 -1.58,0.19 0,0 0,-10.71 0,-10.71 l -1.39,-0.18 v 11.05 l -1.31,0.16 v -11.38 l -2.3,-0.29 v 11.94 l -1.31,0.16 v -12.26 l -2.06,-0.26 v 12.77 l -1.31,0.16 v -13.09 l -2.11,-0.27 v 13.61 l -1.31,0.16 v -13.93 l -2.37,-0.3 v 14.52 l -1.31,0.16 v -14.84 l -2.69,-0.34 v 15.5 l -2.25,0.27 v -16.05 l -2.54,-0.32 v 16.68 l -1.3,0.15 v -17 l -2.41,-0.31 v 17.59 l -1.3,0.15 v -17.91 l -2.78,-0.35 v 18.59 l -1.97,0.22 H 84.6 v 0.18 h 1.25 c 1.78,-0.17 32.77,-3.92 35.6,-4.24 0,0 85.32,0 85.32,0 l 30.85,3.69 z m -88.72,-6.71 h -0.84 v 2.83 h -26.23 l 0.13,-26.58 c 0.02,-0.51 0.37,-0.91 0.79,-0.91 h 25.9 l 0.25,1.87 v 22.78 z m 30.23,0 h -0.54 v 2.83 h -6.11 v -9.56 c -0.01,-2.7 -4.12,-2.7 -4.13,0 0,0 0,8.01 0,8.01 l 0.46,0.44 v 1.11 h -3.09 v -1.11 l 0.41,-0.44 v -8 c 0,-1.14 -0.92,-2.06 -2.07,-2.06 -1.15,0 -2.06,0.92 -2.06,2.06 v 8.01 l 0.45,0.43 v 1.11 h -3.09 v -1.11 l 0.41,-0.45 v -8 c 0,-2.7 -4.12,-2.7 -4.13,0 0,0 0,9.56 0,9.56 h -6 v -2.83 h -0.54 v -22.8 c 0,0 -0.24,-1.85 -0.24,-1.85 h 30.52 l -0.24,1.85 v 22.8 z m 1.03,2.83 v -2.83 h -0.84 v -22.78 l 0.25,-1.87 h 25.9 c 0.42,0 0.77,0.4 0.79,0.91 l 0.13,26.58 h -26.23 z m 20.46,-15.6 c 1.16,-0.15 0.9,1.52 2.09,1.48 1.2,0.04 0.93,-1.62 2.09,-1.48 0,0 0,-0.23 0,-0.23 h -4.18 z m -6.37,0 c 1.16,-0.15 0.89,1.52 2.09,1.48 1.2,0.04 0.93,-1.62 2.09,-1.48 0,0 0,-0.23 0,-0.23 h -4.18 z m 3.22,-0.95 v -5.74 h -2.26 v 5.74 z m 46.16,8.4 c -0.49,0 -1.59,0 -2.07,0.07 0,0 0.01,0.18 0.01,0.18 0.48,-0.06 1.57,-0.07 2.06,-0.07 z m -39.19,-1.5 h -3.46 v 0.23 h 3.46 z m -3.82,7.07 c 1.16,-0.15 0.9,1.52 2.09,1.48 1.2,0.04 0.93,-1.62 2.09,-1.48 0,0 0,-0.23 0,-0.23 h -4.18 z m 3.22,-0.95 v -5.74 h -2.26 v 5.74 z m -88.81,-14.81 2.18,0.6 v -7.63 l -2.18,-0.95 v 7.99 z m -7.63,-35.55 c 0.28,-0.01 0.27,0.08 0.26,-0.24 0,0 -2.53,0 -2.53,0 v 0.24 h 0.26 v 1.29 h 0.83 v -1.29 h 0.35 v 1.29 h 0.83 z m -0.83,2.85 h 0.83 v -1.29 h -0.83 z m 8.13,0 h 0.83 v -1.29 h -0.83 z m -9.31,0 h 0.83 v -1.29 h -0.83 z m 8.13,0 h 0.83 v -1.29 h -0.83 z m 101.17,-2.85 c 0.29,-0.02 0.27,0.09 0.26,-0.24 0,0 -2.53,0 -2.53,0 v 0.24 h 0.26 v 1.29 h 0.83 v -1.29 h 0.35 v 1.29 h 0.83 z m -0.83,2.85 h 0.83 v -1.29 h -0.83 z M 58.82,129.28 h -2.11 v 5.65 h 2.11 z m 148.2,19.21 c 0.28,0.22 0.05,-2.88 0.12,-4.53 0,-1.65 -0.57,-0.89 -0.57,0.06 0,0 0.45,-0.41 0.45,4.47 z m -91,-17.96 h -1.51 v 2.12 h 1.51 z m -0.5,11.37 c 0.29,-0.02 0.27,0.09 0.26,-0.24 0,0 -2.53,0 -2.53,0 v 0.24 h 0.26 v 1.29 h 0.83 v -1.29 h 0.35 v 1.29 h 0.83 z m 100.2,12.31 0.37,-1.03 h -3.3 l 0.37,1.03 h 2.55 z M 106.56,132.64 h 1.51 v -2.12 h -1.51 z m 108.19,18.82 c -0.93,-0.17 -1.97,0.46 -1.95,1.28 0,0 0.5,0 0.5,0 0.22,-0.68 0.77,-1.18 1.44,-1.28 z m -107.44,-23.6 -2.22,2 2.22,-1.62 1.58,1.15 h -3.13 l -3.64,4.64 -1.73,1 v 1.63 c 0,0 19.26,-0.07 19.26,0.03 0,0 7.78,8.69 7.78,8.69 l -7.9,-8.13 -19.13,-0.36 v 14.86 l -14.72,-8.59 h -8.05 l 0.02,-13.5 0.69,-0.82 v -0.73 c 0,0 0.41,-1.11 0.41,-1.11 h -9.74 l 0.39,1.15 h 7.86 v 15.01 H 60.28 l 0.02,-13.5 0.69,-0.82 v -0.73 c 0,0 0.41,-1.11 0.41,-1.11 h -9.74 l 0.39,1.15 h 7.86 v 15.01 H 42.48 l -0.81,0.93 44.15,0.02 c 8.49,5.09 27.52,16.78 36.16,22.02 0,0 84.21,0 84.21,0 8.59,-5.25 27.61,-16.83 36.07,-22 0.07,-0.07 44.15,-0.01 44.24,-0.04 0,0 -0.81,-0.93 -0.81,-0.93 h -17.43 v -15.01 h 7.86 l 0.39,-1.15 h -9.74 l 0.41,1.11 v 0.73 c 0,0 0.69,0.82 0.69,0.82 l 0.02,13.5 h -16.98 v -15.01 h 7.86 l 0.39,-1.15 h -9.74 l 0.41,1.11 v 0.73 c 0,0 0.69,0.82 0.69,0.82 l 0.02,13.5 h -8.05 l -14.71,8.59 v -14.86 l -19.13,0.36 -7.9,8.13 7.78,-8.69 c 0,-0.1 19.23,0 19.26,-0.04 0,0 0,-1.63 0,-1.63 l -1.73,-1 -3.64,-4.64 h -3.13 l 1.58,-1.15 2.22,1.62 -2.22,-2 -1.7,1.53 h -0.59 l 2.62,-2.3 -5.47,-10.09 -7.19,16.81 -5.88,8.46 -3.52,0.71 -21.91,0.05 c -1.23,0 -1.2,1.86 -1.42,2.05 -0.89,0.73 -1.35,-0.25 -2.13,-0.33 0,0 -2.52,0 -2.52,0 l 0.67,2.75 c 0.21,0.93 0.98,1.21 1.77,1.12 0.17,-0.57 0.33,-1.8 1.11,-1.76 0,0 1.38,0 1.38,0 l -0.03,2.55 26.72,0.06 -0.89,-3.14 6.89,-7.87 h 18.37 l 0.49,-0.37 v 8.46 c 0,0 -3.91,2.74 -3.91,2.74 H 208.16 L 205.3,152 h -38.59 c 0.15,-0.18 0.25,-0.42 0.25,-0.74 l -0.76,0.03 h -4.25 l -0.76,-0.03 c 0,0.33 0.1,0.57 0.25,0.74 h -38.59 l -2.86,-2.72 h -15.57 l -3.93,-2.74 0.02,-8.46 0.49,0.37 h 18.37 l 6.89,7.87 -0.89,3.14 26.72,-0.06 -0.03,-2.55 c 0.7,0.06 1.97,-0.3 2.19,0.7 0,0 0.3,1.06 0.3,1.06 0.79,0.09 1.55,-0.19 1.77,-1.12 0,0 0.67,-2.75 0.67,-2.75 h -2.52 c -0.27,0 -0.53,0.14 -0.75,0.33 -0.34,0.33 -1.04,0.33 -1.38,0 -0.22,-0.2 -0.19,-2.05 -1.42,-2.05 l -21.91,-0.05 -3.52,-0.71 -5.88,-8.46 -7.19,-16.81 -5.47,10.09 2.62,2.3 h -0.58 l -1.7,-1.53 z m 112.22,3.48 v -0.82 c 0,-1.01 1.38,-0.56 2.17,-0.66 0.68,0 0.54,1.02 0.55,1.48 0,0 0.88,2.05 0.88,2.05 0.17,0.54 -0.31,0.56 -0.68,0.53 -0.58,0.07 -0.95,0.62 -1.64,0.54 -0.78,0.08 -1.16,-0.62 -1.86,-0.54 -0.23,0 -0.37,-0.29 -0.26,-0.53 l 0.86,-2.05 z m -4.63,2.58 c -0.3,0 -0.68,-0.04 -0.93,0.19 -0.57,0.47 -1.7,0.47 -2.27,0 -0.36,-0.36 -1.2,0.08 -0.99,-0.72 0,0 0.86,-2.05 0.86,-2.05 v -0.82 c 0,-1.01 1.37,-0.56 2.17,-0.66 0.3,0 0.55,0.29 0.55,0.66 v 0.82 l 0.87,2.05 c 0.11,0.24 -0.04,0.53 -0.26,0.53 z m -3.55,-4.53 1.58,-1.15 1.58,1.15 z m 1.49,-2.3 2.28,2.3 h -0.49 l -1.7,-1.53 -1.7,1.53 h -0.66 l 2.28,-2.3 z m -38.66,19.35 c -0.02,-1.07 1.95,-1.07 1.93,0 z m 41.49,8.69 v -0.31 h -2.68 v 2.23 l -2.98,2.14 v -5.16 c 0,-1.15 -0.82,-1.26 -0.82,0.67 0,1.22 0.13,6.06 0.13,6.06 0.69,-0.52 1.95,-1.48 2.61,-1.95 0,0 0,1.67 0,1.67 l -5.64,3.86 h -0.19 c 0,0 -6.24,0 -6.24,0 l 0.09,-7.41 h 3.72 l 0.17,-0.5 h -4.26 l 0.18,0.48 v 7.42 h -6.17 l 0.09,-7.41 h 3.72 l 0.17,-0.5 h -4.26 l 0.18,0.48 v 7.42 h -6.17 l 0.09,-7.41 h 3.72 l 0.17,-0.5 h -4.26 l 0.18,0.48 v 7.42 h -6.17 l 0.09,-7.41 h 3.72 l 0.17,-0.5 h -4.26 l 0.18,0.48 v 7.42 h -3.65 v -0.43 h -3.38 v 0.43 h -5.23 l 0.09,-7.41 h 3.72 l 0.17,-0.5 h -4.26 l 0.18,0.48 v 7.42 h -9.02 v -7.42 l 0.18,-0.48 h -4.26 l 0.17,0.5 h 3.72 l 0.09,7.41 h -5.23 v -0.43 h -3.38 v 0.43 h -3.65 v -7.42 l 0.18,-0.48 h -4.26 l 0.17,0.5 h 3.72 l 0.09,7.41 h -6.17 v -7.42 l 0.18,-0.48 h -4.26 l 0.17,0.5 h 3.72 l 0.09,7.41 h -6.17 v -7.42 l 0.18,-0.48 h -4.26 l 0.17,0.5 h 3.72 l 0.09,7.41 h -6.17 v -7.42 l 0.18,-0.48 h -4.26 l 0.17,0.5 h 3.72 l 0.09,7.41 h -6.43 c 0,0 -5.64,-3.87 -5.64,-3.87 v -1.67 c 0.61,0.4 2.08,1.56 2.61,1.95 0,0 0.13,-4.84 0.13,-6.06 0,-1.93 -0.82,-1.82 -0.82,-0.67 v 5.16 l -2.98,-2.14 v -2.23 h -2.68 v 0.31 L 106.73,151 h 13.12 c 0,0 2.62,2.32 2.63,2.33 0,0 27.84,0 27.84,0 l 0.27,0.41 h 0.11 l -0.12,-0.41 h 4.02 l -0.12,0.41 h 0.11 l 0.27,-0.41 h 18.38 l 0.27,0.41 h 0.11 l -0.12,-0.41 h 4.02 l -0.12,0.41 h 0.11 l 0.27,-0.41 c 0,0 27.85,0.02 27.85,-0.01 0,0 2.62,-2.32 2.62,-2.32 h 13.12 l -5.76,4.12 z m -65.17,-2.21 h 4.27 l -0.06,0.2 -4.17,-0.05 -0.05,-0.15 z m 22.93,0 h 4.27 l -0.05,0.15 -4.17,0.05 -0.06,-0.2 z m -8.58,-0.95 c -0.37,0.03 -1.13,0.03 -1.5,0 z m -44.97,-2.22 2.86,2.72 h 82.72 l 2.86,-2.72 h 14.86 l -0.78,0.56 h -14.14 l -2.8,2.46 -27.45,0.3 0.28,-0.43 h -5.46 l 0.31,0.48 -9.05,0.1 -9.05,-0.1 0.31,-0.48 h -5.45 l 0.28,0.43 -27.45,-0.3 -2.8,-2.46 h -14.14 l -0.78,-0.56 h 14.86 z m 33.17,-4.13 c 0.53,0 0.97,0.37 0.97,0.82 h -1.93 c 0,-0.46 0.43,-0.82 0.97,-0.82 z m -37.69,-18.52 2.28,2.3 h -0.66 l -1.7,-1.53 -1.7,1.53 h -0.49 l 2.28,-2.3 z m 1.49,2.3 h -3.16 l 1.58,-1.15 z m -2.94,1.95 v -0.82 c 0,-1.01 1.38,-0.56 2.17,-0.66 0.68,0 0.54,1.02 0.55,1.48 0,0 0.86,2.05 0.86,2.05 0.15,0.37 -0.16,0.6 -0.48,0.53 -0.58,0.07 -0.95,0.62 -1.64,0.54 -0.7,0.07 -1.06,-0.47 -1.64,-0.54 -0.37,0.03 -0.85,0.01 -0.68,-0.53 0,0 0.88,-2.05 0.88,-2.05 z m -4.65,2.58 c -0.7,-0.07 -1.09,0.62 -1.86,0.54 -0.7,0.07 -1.06,-0.47 -1.64,-0.54 -0.37,0.03 -0.85,0.01 -0.68,-0.53 0,0 0.88,-2.05 0.88,-2.05 v -0.82 c 0,-1.01 1.38,-0.56 2.17,-0.66 0.3,0 0.55,0.29 0.55,0.66 v 0.82 l 0.86,2.05 c 0.11,0.24 -0.04,0.53 -0.26,0.53 z m 13.69,11.45 c 0.07,1.66 -0.16,4.74 0.12,4.53 0,-4.88 0.45,-4.47 0.45,-4.47 0,-0.95 -0.57,-1.71 -0.57,-0.06 z m -1.9,-1.42 c 0.07,1.66 -0.16,4.74 0.12,4.53 0,-4.88 0.45,-4.47 0.45,-4.47 0,-0.95 -0.57,-1.71 -0.57,-0.06 z m 152.98,-14.68 h -2.11 v 5.65 h 2.11 z m -61.36,15.47 h 0.83 v -1.29 h -0.83 z m 59.25,-3.72 h 2.11 v -5.65 h -2.11 z m -0.45,-11.75 h -2.11 v 5.65 h 2.11 z M 56.71,141.03 h 2.11 v -5.65 h -2.11 z m -2.56,0 h 2.11 v -5.65 h -2.11 z m 2.11,-11.75 h -2.11 v 5.65 h 2.11 z m 213.1,11.75 h 2.11 v -5.65 h -2.11 z m -47.39,3.72 h 0.83 v -1.29 h -0.83 z m -1.18,0 h 0.83 v -1.29 h -0.83 z m 31.23,-3.72 h 2.11 v -5.65 h -2.11 z m -29.22,0.87 c 0.29,-0.01 0.27,0.09 0.26,-0.24 0,0 -2.53,0 -2.53,0 v 0.24 h 0.26 v 1.29 h 0.83 v -1.29 h 0.35 v 1.29 h 0.83 z m 31.32,-12.62 h -2.11 v 5.65 h 2.11 z m 2.56,0 h -2.11 v 5.65 h 2.11 z m -2.11,11.75 h 2.11 v -5.65 h -2.11 z m -49.47,8.89 c 0.28,0.22 0.05,-2.88 0.12,-4.53 0,-1.65 -0.57,-0.89 -0.57,0.06 0,0 0.45,-0.41 0.45,4.47 z m -59.2,4.87 c 0,1.07 -1.2,1.11 -1.2,-0.02 0,-1 -1.56,1.31 -1.56,1.31 h 4.26 c 0,0 -1.5,-2.34 -1.5,-1.29 z m -6.27,0 c 0,1.07 -1.2,1.11 -1.2,-0.02 0,-1 -1.56,1.31 -1.56,1.31 h 4.26 c 0,0 -1.5,-2.34 -1.5,-1.29 z m 14.87,-0.91 h -3.79 v 0.21 h 3.79 z m -2.98,2.06 c 0.55,0 0.6,-1.34 1.14,-1.34 0.54,0 0.55,1.34 1.14,1.34 0.51,0 0.71,-1.67 0.71,-1.67 h -3.87 c 0,0 0.32,1.67 0.87,1.67 z m -0.12,7.03 h 2.19 v -0.14 h -2.19 z m 7.38,-4.9 h -2.26 v 4.86 h 2.26 z m -12.35,0 h -2.26 v 4.86 h 2.26 z m -12.53,0 h -2.26 v 4.86 h 2.26 z m -13.56,-3.78 h 0.79 c 0,-0.92 0.82,-0.83 0.82,-0.83 -1.22,-0.3 -1.61,0.11 -1.61,0.83 z m -6.61,-2.86 c -0.11,0 -0.21,0 -0.31,0.02 0.67,0.09 1.22,0.59 1.44,1.28 h 0.5 c 0,-0.72 -0.73,-1.3 -1.64,-1.3 z m 13.91,6.63 h -2.26 v 4.86 h 2.26 z m 30.61,-3.29 c 0,1.07 -1.2,1.11 -1.2,-0.02 0,-1 -1.56,1.31 -1.56,1.31 h 4.26 c 0,0 -1.5,-2.34 -1.5,-1.29 z m -24.88,0 c 0,1.07 -1.2,1.11 -1.2,-0.02 0,-1 -1.56,1.31 -1.56,1.31 h 4.26 c 0,0 -1.5,-2.34 -1.5,-1.29 z m 6.8,3.29 h -2.26 v 4.86 h 2.26 z m -13.07,-3.29 c 0,1.07 -1.2,1.11 -1.2,-0.02 0,-1 -1.56,1.31 -1.56,1.31 h 4.26 c 0,0 -1.5,-2.34 -1.5,-1.29 z m 75.15,-0.02 c 0,1.13 -1.2,1.09 -1.2,0.02 0,-1.07 -1.5,1.29 -1.5,1.29 h 4.26 c 0,0 -1.56,-2.31 -1.56,-1.31 z m -8.01,8.17 h 2.26 v -4.86 h -2.26 z m -4.52,-8.17 c 0,1.13 -1.2,1.09 -1.2,0.02 0,-1.07 -1.5,1.29 -1.5,1.29 h 4.26 c 0,0 -1.56,-2.31 -1.56,-1.31 z m 6.27,0 c 0,1.13 -1.2,1.09 -1.2,0.02 0,-1.07 -1.5,1.29 -1.5,1.29 h 4.26 c 0,0 -1.56,-2.31 -1.56,-1.31 z m 4.52,8.17 h 2.26 v -4.86 h -2.26 z m 6.35,-6.44 c 0,0 0.67,-0.41 0.67,4.47 h 0.18 v -4.53 c 0,-1.65 -0.85,-0.89 -0.85,0.06 z m -42.78,-0.62 3.74,-0.25 h -7.48 z m 23.9,7.06 h 2.26 v -4.86 h -2.26 z m 18.22,-9.47 c 0,0 0.82,-0.09 0.82,0.83 h 0.79 c 0,-0.72 -0.39,-1.13 -1.61,-0.83 z m -28.75,0.41 h -3.79 v 0.21 h 3.79 z m -6.34,0.89 c 0,1.13 -1.2,1.09 -1.2,0.02 0,-1.07 -1.5,1.29 -1.5,1.29 h 4.26 c 0,0 -1.56,-2.31 -1.56,-1.31 z m -1.74,8.17 h 2.26 v -4.86 h -2.26 z m 4.98,-6.99 c 0.59,0 0.6,-1.34 1.14,-1.34 0.54,0 0.59,1.34 1.14,1.34 0.55,0 0.87,-1.67 0.87,-1.67 h -3.87 c 0,0 0.2,1.67 0.71,1.67 z m 7.38,6.99 h 2.26 v -4.86 h -2.26 z m -7.17,0.03 h 2.19 v -0.14 h -2.19 z m 8.91,-8.2 c 0,1.13 -1.2,1.09 -1.2,0.02 0,-1.07 -1.5,1.29 -1.5,1.29 h 4.26 c 0,0 -1.56,-2.31 -1.56,-1.31 z m -63.01,1.66 v 4.53 h 0.18 c 0,-4.88 0.67,-4.47 0.67,-4.47 0,-0.95 -0.85,-1.71 -0.85,-0.06 z M 9.79,124.78 c 0.28,0.4 0.64,0.57 1,0.55 -0.88,-1.87 -1.59,-3.92 -2.04,-6.1 -1.53,-6.79 0.09,-13.82 0.05,-20.67 0.44,8.87 -1.57,18.28 2.26,26.66 0,0 -0.11,0.1 -0.11,0.1 0.41,-0.09 0.79,-0.44 1.03,-1.03 5.19,-11.78 2.69,-24.32 -3.64,-31.54 -3.93,7.6 -6.44,21.45 1.45,32.04 z m 7.37,11.58 c -1.19,3.76 -3.13,7.38 -5.97,9.96 0.31,0.19 0.68,0.21 1.04,0 2.21,-1.33 6.23,-4.37 8.49,-9.78 3.21,-7.71 1.6,-17.33 1.6,-17.33 -8.66,3.88 -13.15,14.25 -11.9,25.66 0.05,0.62 0.3,1.1 0.63,1.37 2.18,-2.9 4.6,-6.31 5.66,-10.16 1.35,-3.87 1.95,-8.29 3.59,-12.04 -1.35,3.96 -1.84,8.33 -3.15,12.33 z M 54.43,37.15 c 8.07,-1.86 13.14,-9.28 19.37,-14.12 -4.67,4.06 -8.51,9.69 -14.1,12.57 -0.88,0.96 -7.12,1.87 -4.32,2.43 12.3,0.73 20.29,-11.9 22.63,-18.1 0,0 -7.26,-1.22 -13.99,3.74 -4.72,3.48 -7.92,9.07 -9.42,12.1 -0.34,0.38 -0.23,1.94 -0.17,1.38 z M 9.41,172.12 c 0.38,0.29 0.8,0.3 1.18,0.13 -1.32,-1.52 -2.48,-3.28 -3.4,-5.3 -3.05,-6.43 -2.64,-14.07 -4.04,-20.92 2.26,8.64 1.76,18.75 7.71,25.99 0,0 -0.1,0.15 -0.1,0.15 0.42,-0.26 0.76,-0.78 0.9,-1.48 2.89,-12.82 -0.8,-24.9 -10.15,-30.35 -2.22,7.7 -3.58,23.61 7.91,31.77 z m 76.21,102.69 c 0.44,0.13 0.84,-0.03 1.11,-0.37 l -0.12,0.05 c -1.91,-8.04 -8.25,-12.88 -13.09,-19.03 5.36,5.65 11.73,10.66 13.29,18.83 0.21,-0.34 0.32,-0.8 0.25,-1.33 -1.02,-11.14 -7.19,-20.05 -16.41,-21.62 0.19,6.62 3.31,20.39 14.96,23.47 z M 64.11,259.78 c -7.6,-3.92 -16.29,-1.77 -16.29,-1.77 0,0 3.64,8.5 11.24,12.42 5.33,2.75 11.19,2.51 14.22,2.13 3.45,-0.92 -3.86,-0.93 -4.94,-1.78 -6.15,-1.9 -10.5,-6.93 -15.77,-10.31 3.76,1.84 6.82,4.89 10.39,7.04 3.39,2.4 7.78,3.42 11.5,4.25 0.2,-0.42 0.19,-0.96 -0.1,-1.47 -1.55,-2.74 -4.93,-7.74 -10.25,-10.49 z M 45.68,244.85 c -8.52,-1.54 -12.73,-9.97 -18.05,-15.84 5.79,5.38 9.94,13.49 18.18,15.52 0,0 -0.02,0.18 -0.02,0.18 0.25,-0.45 0.32,-1.05 0.14,-1.66 -0.99,-3.28 -3.29,-9.34 -7.71,-13.16 -6.31,-5.45 -14.52,-4.27 -14.52,-4.27 0,0 2.01,10.01 8.31,15.46 4.42,3.82 9.78,4.39 12.59,4.38 0.46,0 0.83,-0.23 1.09,-0.59 z M 24.93,212.98 c -8.84,-3.4 -11.53,-13.63 -16.05,-21.03 5.1,6.98 7.82,16.8 16.25,20.67 0,0 -0.05,0.2 -0.05,0.2 0.33,-0.47 0.5,-1.14 0.41,-1.87 -0.48,-3.9 -1.87,-11.19 -5.81,-16.27 -5.62,-7.25 -14.31,-7.26 -14.31,-7.26 0,0 0.43,11.74 6.06,18.99 3.94,5.08 9.39,6.61 12.29,7.06 0.47,0.08 0.9,-0.13 1.22,-0.49 z M 16.58,105.75 c 6.42,-4.39 8.44,-12.51 12.29,-18.86 -3.4,6.61 -5.39,15.01 -12.13,19.09 0.26,0.22 0.6,0.31 0.96,0.17 2.26,-0.87 6.49,-3.01 9.47,-7.63 4.25,-6.6 4.36,-15.76 4.36,-15.76 0,0 -6.79,1.54 -11.04,8.14 -2.98,4.63 -3.92,10.51 -4.22,13.61 -0.06,0.58 0.09,1.07 0.36,1.37 l -0.05,-0.14 z M 62,100.06 h -5.48 l -6.38,8.13 -9.19,6.95 h 4.34 c 0,0 40.49,0.14 40.49,0.14 l 16.19,15.84 h -1.27 c 0,0 0,-0.21 0,-0.21 h 0.74 l -15.67,-14.65 -40.28,-0.05 -3.64,-0.62 3.43,2.3 40.49,0.04 14.55,12.98 v 1.03 l 1.94,-0.28 1.53,-0.24 -16.08,-15.89 -3.95,-5 -11,-32.75 -13.3,18.5 3.75,3.78 h -1.02 l -2.98,-2.68 -3.88,3.5 3.88,-2.83 2.76,2.01 z m 11.33,-4.02 3.99,4.02 h -1.16 l -2.98,-2.68 -2.98,2.68 h -0.85 z m 2.61,4.02 h -5.53 l 2.76,-2.01 2.76,2.01 z m -6.67,7 1.53,-3.59 c 0.01,-0.81 -0.24,-2.58 0.96,-2.59 0,0 2.83,0 2.83,0 1.19,0 0.94,1.77 0.96,2.59 0,0 1.5,3.59 1.5,3.59 0.19,0.42 -0.06,0.93 -0.46,0.93 -1.23,-0.13 -1.9,1.09 -3.26,0.95 -1.22,0.12 -1.85,-0.82 -2.87,-0.95 -0.67,0.02 -1.46,0.09 -1.19,-0.93 z m -6.14,0 c 0.25,0.69 -0.26,1.02 -0.84,0.93 -1.02,0.13 -1.66,1.08 -2.87,0.95 -1.22,0.12 -1.85,-0.82 -2.87,-0.95 -0.67,0.02 -1.46,0.09 -1.19,-0.93 0,0 1.53,-3.59 1.53,-3.59 0.01,-0.81 -0.24,-2.58 0.96,-2.59 0,0 2.83,0 2.83,0 1.19,0 0.94,1.77 0.96,2.59 0,0 1.5,3.59 1.5,3.59 z m -5.19,-1.33 h 2.64 v -3.7 h -2.64 z m 16.56,-3.7 h -2.64 v 3.7 H 74.5 Z M 21.32,86.69 c -3,-8.16 1.16,-16.72 2.82,-24.73 -1.09,8.09 -5.02,16.45 -2.51,24.63 0,0 -0.14,0.09 -0.14,0.09 0.44,-0.08 0.92,-0.4 1.27,-0.93 6.88,-9.76 7.96,-21.39 1.96,-29.16 0,0 -6.31,7.95 -7.23,16.53 -0.65,6.02 1.53,10.76 2.88,13.05 0.22,0.37 0.57,0.53 0.95,0.52 z m 13.85,125.64 c 0.98,4.2 1.13,8.79 0.29,13.05 0.32,-0.16 0.61,-0.49 0.78,-0.99 1.02,-3.07 2.58,-9.14 1.68,-15.29 -1.28,-8.78 -7.08,-14.42 -7.08,-14.42 -3.23,7.35 -4.87,20.86 3.35,30.34 0.33,0.41 0.75,0.54 1.13,0.42 L 35.2,225.4 c 0.6,-4.27 0.46,-8.69 -0.49,-12.88 -0.85,-4.21 -2.51,-8.06 -3.06,-12.36 0.88,4.22 2.6,7.94 3.53,12.15 z m 22.75,-88.9 c 0,2.46 -2.77,2.56 -2.77,-0.04 0,-2.31 -3.59,3.02 -3.59,3.02 h 9.81 c 0,0 -3.45,-5.4 -3.45,-2.98 z M 37.74,52.5 c 0.31,-8.18 6.08,-14.65 10.02,-21.4 -2.52,5.42 -6.72,10.13 -8.5,15.89 -0.74,1.79 -0.84,3.97 -1.4,5.57 0.35,0.1 0.8,0 1.23,-0.35 9.06,-6.8 12.56,-17.5 10.82,-25.78 0,0 -7.18,4.73 -10.61,12.18 -2.41,5.22 -2.34,10.4 -2.09,13.03 0.04,0.43 0.25,0.71 0.53,0.85 z M 18.59,189.44 c 0.36,0 0.7,-0.2 0.96,-0.62 1.56,-2.57 4.2,-7.84 4.35,-14.34 0.22,-9.27 -4.7,-17.54 -4.7,-17.54 0,0 -5.27,6.77 -5.48,16.04 -0.15,6.5 2.22,12.5 3.65,15.51 0.27,0.56 0.67,0.88 1.08,0.94 0.23,-1.91 1.21,-4.18 1.35,-6.37 1.05,-6.73 -0.87,-13.58 -0.73,-20.33 0.65,8.81 3.27,18.23 -0.47,26.69 z m 251.83,58.57 c 1.17,-1.63 2.27,-3.72 1.02,-5.54 -0.46,-0.65 -0.92,0.33 -1.42,0.21 -0.17,-0.03 0.03,-1.16 -0.02,-2.46 -0.61,-8.39 -3.74,-6.2 -5.31,-0.16 -0.26,0.76 -0.55,0.7 -0.77,0.22 -1.58,-2.46 -1.75,3 -1.83,3.94 -0.14,1.25 0.12,2.99 -0.78,1.89 -0.88,-0.89 -1.74,0.52 -1.71,1.54 -0.06,0.68 0,1.36 0.04,1.63 0.08,0.54 0.66,1.4 0.6,1.73 -0.18,0.27 -1.1,-0.98 -1.49,-0.52 -0.56,0.48 -0.53,1.89 -0.4,2.7 0.12,0.81 0.94,1.93 0.86,2.26 -0.09,0.34 -0.31,0.12 -0.6,0.28 -0.29,0.16 -0.51,1.44 -0.68,1.9 -0.59,1.05 -1.23,1.17 -1.07,2.56 0.12,0.56 0.48,0.49 0.48,0.49 3.78,-3.74 7.19,-9.5 8.22,-14.9 -0.04,0.21 -0.09,0.6 -0.16,0.87 -0.99,5.38 -4.1,10.29 -7.41,14.55 -0.12,0.16 0.44,0.07 0.67,0.01 1.63,-0.52 5.38,-3.06 5.44,-3.64 0.14,-0.9 -0.76,-0.16 -0.64,-0.77 0.06,-0.31 1.36,-0.29 2.78,-0.72 1.35,-0.38 2.88,-1.43 3.15,-3.09 0.14,-0.85 -0.21,-1.09 -0.63,-1.23 -0.41,-0.14 -0.9,-0.15 -1.06,-0.44 0.31,-0.92 1.97,-2.15 2.72,-3.32 z m -26.84,-61.87 c -0.49,0 -1.58,0 -2.07,0.05 0,0 0,0.18 0,0.18 0.48,-0.05 1.57,-0.06 2.06,-0.05 0,0 0,-0.18 0,-0.18 z M 93.14,279.61 c -8.6,-2.3 -16.78,1.08 -16.78,1.08 0,0 5.75,7.11 14.35,9.41 6.03,1.61 11.85,0.43 14.8,-0.41 3.19,-1.39 -4.26,-0.22 -5.4,-0.8 -6.62,-0.71 -12.24,-4.55 -18.37,-6.76 4.23,1.05 8.05,3.31 12.17,4.67 3.97,1.61 8.6,1.82 12.59,1.96 0.1,-0.42 -0.05,-0.9 -0.46,-1.32 -2.23,-2.23 -6.86,-6.21 -12.89,-7.82 z m 199.53,-39.49 c -0.91,-0.3 -2.03,-0.2 -2.98,-0.03 -1.06,0.17 -1.93,0.62 -1.97,0.37 -0.15,-0.73 0.58,-1.61 -0.03,-2.24 -2.56,-2.17 -4.66,3.18 -5.76,4.77 -0.44,0.74 -0.75,1.21 -0.86,1.08 -0.44,-0.49 -0.03,-2.68 -1.32,-2.41 -2.6,0.97 -2.38,5.48 -3.59,7.39 -0.47,-0.04 0.29,-0.98 -0.4,-1.08 -0.1,-0.02 -0.27,0.12 -0.5,0.36 -1.27,1.64 -3.46,3.43 -4.3,5.3 3.31,-0.99 6.6,-2.39 9.73,-3.89 1.56,-0.66 3.03,-1.64 4.63,-2.11 -4.29,2.03 -8.47,4.72 -12.98,6.32 -0.5,0.24 -1.04,0.26 -1.34,0.65 0,0 -0.23,0.36 0.05,0.82 0.27,0.46 0.85,0.58 1.03,0.58 0.18,0 0.79,-0.37 1.17,-0.33 0.38,0.04 1.33,0.45 1.61,0.16 0.86,-1.76 0.79,0.68 1.52,1.65 1.05,1.41 2.54,1.37 2.49,-0.71 0.03,-2.3 0.51,-0.14 1.02,0.61 1.58,1.74 3.53,0.37 3.36,-1.74 -0.04,-0.5 -0.15,-0.85 0.08,-1.07 0.23,-0.21 0.93,-0.04 1.83,0.06 1.22,0.17 2.72,0 3.7,-0.88 0.72,-0.71 1.16,-1.79 0.91,-2.74 -0.3,-0.81 -0.96,-1.17 0.06,-2.02 0.65,-0.5 1.88,-1.47 2.54,-2.21 1.81,-1.53 3.1,-5.79 0.3,-6.67 z m 15.79,-29.46 c -0.97,0.34 -1.74,0.93 -1.83,0.67 -0.27,-0.75 0.24,-1.79 -0.45,-2.36 -0.87,-0.68 -1.58,-0.5 -2.17,0.11 -1.3,0.95 -2.7,7.19 -3.16,7.05 -0.63,-0.94 -0.76,-3.77 -2.45,-1.76 -1.36,2.01 -0.69,5.63 -1.32,7.6 -0.46,0.03 0.09,-1.06 -0.6,-1.06 -0.43,0.14 -1.33,2.29 -1.79,3.07 -0.51,1.03 -1.7,3.01 -1.58,3.73 3.33,-1.93 6.52,-4.28 9.62,-6.56 0.92,-0.63 1.88,-1.35 2.86,-1.81 -1.84,1.1 -3.5,2.65 -5.2,3.99 -2.15,1.8 -4.63,3.58 -6.85,5.13 -0.17,0.33 -0.38,0.45 0.07,1.11 1.09,0.95 1.32,0.04 2.15,-0.17 0.37,-0.03 1.37,0.21 1.56,-0.14 0.19,-0.35 0.09,-0.75 0.36,-0.75 0.27,0 0.9,1.64 1.47,2.17 0.57,0.53 1.61,1.17 2.15,0.42 0.47,-0.54 -0.27,-2.34 -0.05,-2.67 0.27,-0.02 0.81,1.24 1.2,1.55 0.39,0.3 2.02,1.31 2.73,-0.32 0.66,-1.27 -0.3,-2.27 -0.08,-3.09 0.99,-0.48 3.24,0.19 4.58,-1.05 1.25,-0.79 1.32,-2.91 0.48,-3.74 -0.63,-0.46 -0.27,-1.4 0.4,-2.01 0.61,-0.71 1.16,-1.4 1.73,-2.36 2.41,-3.82 1.16,-8.72 -3.83,-6.76 z m 18.36,-61.67 c 1.65,-3.35 1.65,-12.27 -3.69,-6.86 -0.73,0.75 -1.23,1.67 -1.35,1.46 -0.38,-0.65 -0.15,-1.85 -0.79,-2.05 -0.82,-0.26 -1.37,0.23 -1.74,1.08 -0.86,1.41 -0.85,8.13 -1.23,8.21 -0.52,-0.21 -0.97,-2.47 -1.84,-1.47 -0.44,0.5 -0.62,1.28 -0.66,2.17 -0.18,2.03 0.73,4.81 0.69,6.66 -0.36,0.26 -0.16,-1.06 -0.71,-0.71 -0.53,1.3 -0.59,3.28 -0.87,4.79 -0.2,1.03 -0.52,3.29 -0.24,3.42 2.84,-4.54 5.01,-9.67 8.07,-14.06 -1.8,2.69 -3.07,5.81 -4.56,8.7 -0.94,1.95 -2.09,4.06 -3.04,5.89 -0.04,0.36 -0.23,0.6 0.31,1.03 1.08,0.33 1.06,-0.7 1.66,-1.31 0.28,-0.22 1.12,-0.52 1.19,-0.95 -0.14,-2.02 0.77,-0.03 1.76,0.39 0.57,0.2 1.53,0.26 1.78,-0.72 0.27,-0.59 -0.72,-2.09 -0.63,-2.48 0.21,-0.15 0.92,0.75 1.3,0.84 1.77,0.45 2.68,-1.86 1.71,-3.55 -0.23,-0.39 -0.45,-0.63 -0.37,-0.94 0.72,-0.95 2.76,-1.57 3.42,-3.17 0.75,-1.4 0.61,-2.97 -0.37,-3.59 -0.92,-0.38 -0.16,-1.72 0.21,-2.76 z m -5.58,30.15 c -0.93,0.44 -1.65,1.13 -1.73,0.87 -0.23,-0.8 0.29,-1.88 -0.31,-2.34 -0.78,-0.59 -1.45,-0.34 -2.03,0.33 -1.49,1.62 -2.14,5.79 -3.25,7.43 -0.47,-0.43 -0.38,-2.81 -1.51,-2.21 -2.27,1.66 -1.45,6.26 -2.17,8.47 -0.42,0.09 0.1,-1.08 -0.54,-1 -1.03,1.25 -1.66,3.43 -2.5,4.94 -0.31,0.69 -0.87,1.81 -0.75,2.34 4.03,-2.98 7.52,-6.85 11.6,-9.75 -3.25,2.55 -7.52,7.38 -11.28,10.46 0.06,0.1 -0.44,0.47 0.08,1.13 1.01,0.81 1.23,-0.2 1.99,-0.49 0.35,-0.08 1.27,0.03 1.46,-0.35 0.19,-0.38 0.09,-0.78 0.34,-0.81 0.25,-0.04 0.82,1.53 1.33,1.98 0.52,0.44 1.48,0.95 1.98,0.12 0.43,-0.72 -0.24,-2.6 0,-2.65 0.25,-0.05 0.73,1.13 1.08,1.38 0.18,0.13 0.64,0.38 1.15,0.4 0.5,0.02 1.06,-0.21 1.38,-1.07 0.65,-1.72 -0.33,-2.5 0,-3.03 0.32,-0.54 2.61,-0.03 4.27,-1.55 1.19,-1.06 1.3,-2.8 0.54,-3.67 -0.37,-0.31 -0.44,-0.87 0.1,-1.58 0.57,-0.72 1.48,-1.86 2.03,-2.93 2.13,-3.44 1.9,-9.07 -3.28,-6.42 z m -76.73,104.64 c -0.86,-0.58 -2.11,-0.88 -3.19,-1.08 -1.2,-0.22 -2.32,-0.14 -2.26,-0.37 0.12,-0.67 1.25,-1.18 0.85,-1.94 -0.53,-0.9 -1.36,-1.1 -2.3,-0.94 -1.7,0.02 -6.65,3.75 -7.1,3.43 -0.23,-0.65 1,-2.27 -0.43,-2.51 -2.56,-0.5 -4.72,3.46 -6.51,4.58 -0.24,-0.11 -0.07,-0.28 0.07,-0.47 0.14,-0.19 0.25,-0.4 -0.1,-0.57 -0.2,-0.1 -1.01,0.2 -2.03,0.62 0.13,-0.11 0.26,-0.22 0.4,-0.33 -1.16,0.87 -2.98,1.82 -3.33,3.31 4.23,-1.7 8.47,-0.77 12.96,-0.87 0.67,0.03 1.23,0.09 1.81,0.17 -2.41,-0.19 -4.95,0.02 -7.39,0.07 -2.09,0.04 -3.82,-0.04 -5.9,0.77 -0.45,0.18 -0.98,0.28 -1.22,0.65 -0.27,0.67 1.08,1.01 1.44,0.92 0.18,-0.02 0.68,-0.33 1.05,-0.31 0.37,0.01 1.4,0.34 1.6,0.17 0.2,-0.17 0.1,-0.44 0.36,-0.38 0.13,0.03 0.35,0.34 0.61,0.68 0.58,0.87 2.06,1.9 2.92,1.76 0.35,-0.06 -0.32,-1.28 -0.1,-1.27 0.88,0.94 1.54,1.79 2.95,2.34 0.86,0.66 2.73,1.67 4.54,1.62 1.38,0.1 2.95,-1.07 2.55,-2.31 -0.21,-0.46 0.01,-0.91 0.95,-1.09 2.48,-0.44 6.32,-1.32 7.57,-3.92 0.51,-1.17 0.19,-2.09 -0.77,-2.74 z m -116.66,15.66 c 6.77,1.77 14.18,1.99 20.7,0.29 0,-0.5 -0.26,-1.01 -0.79,-1.37 -2.87,-1.96 -8.69,-5.29 -15.44,-5.6 -9.63,-0.44 -17.51,5.43 -17.51,5.43 0,0 7.73,6.58 17.35,7.02 6.75,0.31 12.64,-2.48 15.56,-4.18 0.48,-0.28 0.73,-0.68 0.8,-1.11 -2.12,0.79 -4.37,1.34 -6.69,1.56 -7.18,0.86 -14.01,-2.06 -21,-3.02 2.36,0.04 4.71,0.51 7.02,0.98 z m -5.31,-9.77 c -2.24,-2.97 -4.88,-6.57 -8.19,-8.69 -3.1,-2.3 -6.5,-3.67 -9.44,-6.26 4.78,3.29 10.22,5.08 14.09,9.68 1.03,0.57 4.53,7.39 3.49,3.76 -3.85,-10.51 -12.09,-17.53 -21.41,-16.69 0,0 2.79,9.24 8.91,14.44 4.29,3.64 9.08,4.33 11.56,4.41 0.46,0.02 0.81,-0.24 0.98,-0.64 z m 29.43,-4.16 c -5.8,-3.47 -12.44,-1.83 -12.44,-1.83 0,0 2.78,7.27 8.58,10.73 4.07,2.43 8.55,2.35 10.86,2.09 0.43,-0.05 0.75,-0.31 0.9,-0.66 l -0.09,0.08 c -4.01,-5.7 -10.83,-7.03 -16.62,-10.06 6.04,2.47 12.99,3.88 16.75,9.84 0.1,-0.33 0.08,-0.72 -0.12,-1.11 -1.18,-2.35 -3.76,-6.65 -7.83,-9.08 z m 66.84,0.77 c 0.85,-1.22 -0.67,-1.63 -0.87,-2.47 -0.04,-0.35 1.84,-0.58 3.58,-1.42 1.77,-0.84 3.26,-2.27 2.79,-4.42 -0.09,-0.42 -0.3,-0.47 -0.55,-0.46 -1.45,0.11 -0.38,-0.71 0.06,-2.37 1.69,-5.53 0.42,-9.21 -4.25,-3.17 -0.51,0.52 -0.74,0.29 -0.73,-0.27 -0.07,-0.99 -0.71,-1.69 -1.78,-0.39 -1.02,0.99 -2.08,3.94 -2.81,4.73 -0.34,0.15 -0.29,-0.77 -0.81,-1.12 -0.96,0.04 -3.09,-0.29 -4.05,-0.05 -1.58,0.15 -2.58,2 -2.36,3.2 0.03,0.26 0.3,0.59 0.53,0.9 0.71,0.95 0.26,0.97 -0.8,0.5 -0.56,-0.2 -1.26,-0.4 -1.77,-0.11 -1.2,0.62 -1.13,1.96 -0.91,2.7 0.08,0.58 1.45,1.49 1.39,2 -0.16,0.33 -0.51,0.16 -0.98,0.37 -0.5,0.23 -0.8,1.49 -1.01,1.93 -0.23,0.47 -0.98,1.06 -1.09,1.27 -0.28,0.43 -0.43,1.64 0.31,1.74 0.28,0.06 0.4,-0.11 0.6,-0.19 1.74,-1.87 3.97,-3.85 6.22,-5.37 0.59,-0.55 0.98,-0.36 1.85,-0.34 2.53,-1.58 5.05,-3.47 6.78,-5.89 -1.73,2.64 -4.31,4.71 -6.92,6.48 0,0 -1.18,-0.05 -1.18,-0.05 -2.27,1.68 -4.4,3.55 -6.21,5.69 -0.13,0.12 0.22,0.03 0.32,0.03 1.73,-0.41 3.81,-1.51 5.64,-1.93 0.77,0.08 2.31,-0.19 2.37,-0.42 0.48,-0.7 -0.61,-0.54 -0.31,-1.06 0.25,-0.19 1.31,0.42 1.81,0.56 1.65,0.63 4.01,1.11 5.13,-0.6 z m -11.19,10.91 c -0.95,-0.72 -2.36,-1.17 -3.59,-1.5 -1.37,-0.36 -2.65,-0.38 -2.57,-0.63 0.12,-0.39 0.5,-0.7 0.8,-1.01 1.25,-1.31 -1.1,-2.57 -2.28,-2.3 -1.94,-0.14 -7.85,3.5 -8.35,3.1 -0.22,-0.76 1.27,-2.42 -0.34,-2.81 -2.88,-0.81 -5.61,3.33 -7.74,4.43 -0.27,-0.14 -0.06,-0.31 0.11,-0.51 0.67,-1.11 -1.1,-0.57 -2.44,-0.16 1.07,-0.7 -0.41,0.18 -0.86,0.43 -0.9,0.64 -2.61,1.54 -2.63,2.57 4.99,-1.45 9.73,-0.01 14.85,0.3 0.77,0.1 1.4,0.22 2.06,0.36 -2.74,-0.45 -5.67,-0.46 -8.48,-0.63 -2.75,-0.24 -5.27,-0.38 -8.07,0.65 0.13,0.03 -0.63,0.3 0.06,0.93 1.23,0.82 1.48,0.22 2.58,0.2 0.43,0.05 1.59,0.51 1.82,0.34 0.24,-0.17 0.14,-0.48 0.44,-0.38 0.42,0.28 1.07,1.57 1.59,1.91 0.72,0.58 2.89,2.07 2.34,0.34 -0.1,-0.36 -0.21,-0.7 -0.07,-0.63 0.99,1.16 1.58,2.08 3.24,2.86 1.27,1.16 5.69,3.59 7.8,1.33 1.08,-1.23 -0.69,-2.24 1.52,-2.52 2.82,-0.25 7.27,-0.8 8.92,-3.59 0.67,-1.26 0.32,-2.31 -0.72,-3.1 z m -27.03,-2.37 c 0.8,-0.96 -0.5,-1.52 -0.61,-2.25 -0.01,-0.31 1.61,-0.27 3.15,-0.78 0.77,-0.25 1.51,-0.64 2.01,-1.2 0.48,-0.4 1.19,-2.5 0.18,-2.76 -1.24,-0.08 -0.3,-0.65 0.18,-2.05 1.7,-4.35 0.98,-8.04 -3.47,-3.29 -0.46,0.39 -0.65,0.16 -0.61,-0.33 -0.23,-2.74 -2.64,0.65 -3.17,1.7 -0.46,0.77 -0.82,1.43 -1.01,1.47 -0.3,0.08 -0.21,-0.7 -0.63,-1.07 l -2.41,-0.47 c -1.72,-0.52 -3.41,0.68 -3.27,2.38 -0.02,0.37 0.81,1.22 0.64,1.56 -0.44,0.11 -1.79,-1.08 -2.46,-0.7 -1.06,0.39 -1.08,1.55 -0.93,2.23 0.04,0.51 1.17,1.48 1.09,1.91 -0.15,0.27 -0.45,0.08 -0.87,0.2 -0.45,0.14 -0.77,1.2 -0.97,1.55 -0.63,0.81 -1.52,1.01 -1.2,2.16 0.59,0.98 1.32,-0.22 1.9,-0.6 1.53,-1.24 3.33,-2.36 5.12,-3.27 0,0 1.1,0.21 1.1,0.21 2.05,-0.94 4.1,-2.13 5.68,-3.74 0.16,-0.15 0.35,-0.39 0.46,-0.51 -1.16,1.5 -2.78,2.69 -4.4,3.69 -0.62,0.38 -1.24,0.71 -1.89,1.05 l -1.01,-0.2 c -2.05,1.17 -4,2.53 -5.68,4.18 1.62,0.06 3.56,-0.83 5.26,-0.92 0.85,0.19 2.76,0.24 2,-0.61 -0.15,-0.12 -0.31,-0.22 -0.15,-0.4 1.53,0.39 4.21,2.86 5.95,0.85 z M 31.75,68.31 c 7.32,-2.63 11.32,-9.98 16.65,-15.15 -3.94,4.26 -6.95,9.84 -11.87,13.1 -0.75,1 -6.53,2.57 -3.79,2.73 11.55,-0.87 17.63,-12.9 19.28,-19.15 0,0 -6.96,-0.22 -12.74,5.09 -4.05,3.72 -6.45,9.18 -7.52,12.11 -0.2,0.55 -0.18,1.06 0,1.42 v -0.15 z m 52.8,57.12 h 1.22 l 0.73,0.66 0.1,-0.14 -0.77,-0.7 h -1.28 z m 0,-3.1 h 1.22 l 0.73,0.67 0.1,-0.14 -0.77,-0.71 h -1.28 z m 0,1.55 h 1.22 l 0.73,0.67 0.1,-0.14 -0.77,-0.71 h -1.28 z m 0,3.1 h 1.23 l 0.79,0.58 0.08,-0.15 -0.83,-0.61 h -1.27 z m 0,4.65 h 1.23 l 0.73,0.56 0.09,-0.15 -0.77,-0.58 h -1.28 v 0.18 z m 0,-3.1 h 1.23 l 0.79,0.59 0.08,-0.15 -0.83,-0.61 h -1.27 v 0.18 z m 0,1.55 h 1.23 l 0.73,0.51 0.08,-0.15 -0.77,-0.54 h -1.27 z m -13.08,11.01 h 2.11 v -5.65 h -2.11 z m 15.13,-21.32 -0.77,-0.71 h -1.28 v 0.18 h 1.22 l 0.73,0.67 z m -2.05,13.41 h 1.23 l 0.73,0.54 0.08,-0.15 -0.77,-0.57 h -1.27 z m -10.52,7.91 h 2.11 v -5.65 h -2.11 z m -0.45,-11.75 h -2.11 v 5.65 h 2.11 z m 2.56,0 h -2.11 v 5.65 h 2.11 z m 8.42,-8.55 h 1.22 l 0.73,0.67 0.1,-0.14 -0.77,-0.71 h -1.28 z m -9.29,2.64 c 0,2.46 -2.77,2.56 -2.77,-0.04 0,-2.31 -3.59,3.02 -3.59,3.02 h 9.81 c 0,0 -3.45,-5.4 -3.45,-2.98 z m 14.58,18.19 v -9.42 c -0.51,-0.4 -0.76,-0.6 -1.27,-1 v 9.58 c 0.51,0.34 0.76,0.5 1.27,0.84 z m 4,2.65 v -8.91 C 93.39,135 93.16,134.82 92.7,134.45 v 9.06 c 0.46,0.3 0.69,0.46 1.15,0.76 z m -0.22,-13.58 c 0,1.87 -0.68,1.38 -0.68,-0.61 0,-1.78 -0.88,1.6 -0.88,1.6 0.97,0.79 1.45,1.19 2.41,1.98 0,0 -0.85,-4.8 -0.85,-2.96 z m 0.57,15.86 c 0.09,-3.87 -0.2,-7.81 0.18,-11.63 0.04,-0.3 0.06,-0.45 0.1,-0.75 -0.96,-0.78 -1.44,-1.17 -2.4,-1.95 -0.07,1.42 0.99,1.52 2.03,2.52 0.09,0.06 -0.17,11.86 0.09,11.81 z m 3.12,-12.71 c 0,1.78 -0.57,1.37 -0.58,-0.52 0,-1.69 -0.75,1.58 -0.75,1.58 0.82,0.67 1.23,1.01 2.05,1.68 0,0 -0.74,-4.49 -0.73,-2.75 z m -7.71,-6.58 c 0,1.98 -0.75,1.43 -0.75,-0.68 0,-1.88 -0.98,1.65 -0.98,1.65 1.07,0.87 1.6,1.31 2.66,2.19 0,0 -0.94,-5.11 -0.94,-3.17 z m 6.41,8.16 c -0.07,1.32 0.85,1.37 1.74,2.23 0.03,4.29 0.05,6.92 0.07,11.19 0.21,-3.64 -0.04,-6.12 0.02,-10.04 0.22,-0.57 0.11,-1.14 0.22,-1.73 -0.82,-0.66 -1.22,-0.99 -2.04,-1.66 z m 0.54,10.65 c 0.41,0.27 0.61,0.4 1.01,0.67 -0.02,-3.39 -0.03,-5.09 -0.05,-8.48 -0.39,-0.31 -0.59,-0.46 -0.98,-0.77 0,3.43 0.01,5.15 0.02,8.58 z m -12.01,-8.24 h 1.23 l 0.79,0.54 0.08,-0.16 -0.83,-0.56 h -1.27 z m 0,-3.1 h 1.23 l 0.79,0.57 0.08,-0.15 -0.83,-0.59 h -1.27 v 0.18 z m 0,4.65 h 1.23 l 0.79,0.52 0.08,-0.16 -0.83,-0.55 h -1.27 v 0.18 z m 0,-3.1 h 1.23 l 0.73,0.52 0.08,-0.15 -0.77,-0.54 h -1.27 v 0.18 z m 5.69,7.77 v -11.2 c 0.08,-0.2 0.12,-0.31 0.19,-0.51 -0.02,-0.49 0.04,-0.89 0.11,-1.37 -1.06,-0.86 -1.59,-1.29 -2.64,-2.15 -0.06,1.52 1.06,1.61 2.24,2.74 0,0 0,12.43 0,12.43 0.04,0.03 0.06,0.04 0.1,0.06 z m -6.14,-34.31 15.11,16.29 -2.31,-4.92 v -3.46 l 0.52,0.25 -0.98,-2.19 -1.11,0.86 0.96,-0.15 0.3,0.75 c 0,1.12 0,3.89 0,4.96 0,0 -1.57,-1.93 -1.57,-1.93 v -3.13 l -0.47,-1 h 0.58 l 1.42,-1.36 1.79,3.55 -1.59,-4.13 h -1.38 l -0.36,0.44 -1.58,-4.11 h -1.38 l -0.08,0.1 -1.93,-4.11 0.19,-0.18 1.79,3.55 -1.59,-4.13 h -0.74 l -8.78,-18.7 -7.26,-9.23 10.46,31.96 z m 9.13,1.33 1.78,3.53 -0.74,0.9 -0.71,-1.52 0.54,0.26 -0.98,-2.19 -0.34,0.26 -0.27,-0.57 0.72,-0.68 z m -0.84,1.79 0.58,-0.09 0.46,1.15 c 0.09,-0.03 0,5.02 0.03,5.03 0,0 -1.07,-1.47 -1.07,-1.47 z m -2.77,-4.81 0.14,-0.02 1.33,3.08 v 5.31 l -1.47,-1.8 v -6.56 z m -5.06,32.89 h 1.23 l 0.79,0.51 0.08,-0.16 -0.83,-0.53 h -1.27 z m 0,1.55 h 1.23 l 0.79,0.49 0.07,-0.16 -0.81,-0.5 h -1.29 c 0,0 0,0.17 0,0.17 z m 183.79,126.48 c -0.82,-0.52 -1.94,-0.77 -2.91,-0.93 -1.07,-0.17 -2.03,-0.07 -2.01,-0.29 0.03,-0.66 0.94,-1.16 0.5,-1.85 -1.29,-1.77 -3.13,-0.52 -4.58,0.43 -2.34,1.48 -3.75,3.58 -3.24,0.87 0.03,-0.49 -0.08,-0.94 -0.72,-1.05 -2.3,-0.4 -3.68,3.4 -5.07,4.49 -0.22,-0.1 -0.09,-0.26 0,-0.44 0.1,-0.18 0.17,-0.38 -0.15,-0.54 0,-0.3 -2.41,1.16 -1.38,0.32 -0.92,0.85 -2.4,1.87 -2.48,3.21 3.02,-1.57 6.1,-0.97 9.37,-1.16 1.11,-0.02 2.31,-0.03 3.37,0.11 -2.37,-0.12 -4.83,0.2 -7.22,0.32 -1.57,-0.04 -4.39,0.49 -5.19,1.47 0,0 -0.09,0.31 0.29,0.58 0.38,0.27 0.92,0.26 1.07,0.24 0.16,-0.02 0.55,-0.33 0.88,-0.32 0.33,0 1.26,0.28 1.41,0.12 0.15,-0.16 0.03,-0.42 0.27,-0.36 0.33,0.17 1.85,2.38 3.37,2.2 0.3,-0.07 -0.44,-1.2 -0.25,-1.19 0.79,0.78 1.65,1.71 2.85,2.12 1.07,0.82 4.74,2.53 6.01,0.38 0.63,-1.1 -0.88,-1.82 0.74,-2.28 1.51,-0.32 3.69,-0.98 4.95,-2.16 1.37,-1.09 1.79,-3.36 0.11,-4.28 z m -14.3,-101.98 v -5.65 h -2.11 v 5.65 z m -30.13,14.18 -1.12,-1.36 h -0.97 l -1.12,2.89 1.25,-2.49 1,0.95 h 0.95 z m -4.68,-16.73 h -0.91 l -1.06,2.74 1.19,-2.35 0.94,0.9 h 0.9 l -1.06,-1.28 z m -4.87,4.18 0.45,-0.22 0.3,-0.76 0.64,0.1 -0.73,-0.57 -0.65,1.45 z m 2.42,13.79 -0.97,-1.19 h -0.84 l -0.97,2.53 1.09,-2.17 0.87,0.83 h 0.83 z m -1.82,0.91 0.28,-0.7 0.59,0.09 -0.68,-0.53 -0.6,1.34 z m -0.49,-5.2 c 0.25,-0.1 0.41,0.05 0.5,0.47 0.25,1.31 1.04,0.84 1.19,-0.29 0.09,-0.46 0.23,-0.69 0.5,-0.73 0,0 0,-0.25 0,-0.25 -0.87,0.23 -1.31,0.34 -2.18,0.57 v 0.24 z m 2.18,-10.11 -2.18,0.95 v 8.2 l 2.18,-0.6 z m 1.31,9.22 c 0.65,-0.26 0.46,1.55 1.09,1.37 0.57,0 0.47,-1.88 1.09,-1.92 0,0 0,-0.26 0,-0.26 -0.87,0.23 -1.31,0.34 -2.18,0.57 v 0.25 z m 3.99,-0.34 c 0.25,1.48 1.04,1 1.19,-0.29 0.07,-0.45 0.23,-0.75 0.41,-0.79 0.16,0 0.07,-0.17 0.09,-0.3 -0.87,0.23 -1.31,0.34 -2.18,0.57 v 0.27 c 0.26,-0.1 0.41,0.08 0.5,0.55 z m -3.63,5.88 0.3,-0.76 0.64,0.1 -0.73,-0.57 -0.65,1.45 0.45,-0.22 z m 3.51,-0.56 0.32,-0.8 0.67,0.11 -0.78,-0.6 -0.69,1.53 0.47,-0.23 z m 0.24,-18.02 0.63,0.1 -0.73,-0.57 -0.65,1.45 0.45,-0.22 z m 1.56,0.78 -2.18,0.95 v 9.33 l 2.18,-0.6 z m -3.35,16.82 -1.06,-1.29 h -0.91 l -1.06,2.74 1.19,-2.35 0.94,0.9 z m 2.39,-19.1 h -0.91 l -1.06,2.74 1.19,-2.35 0.94,0.9 h 0.9 z m -4.81,4.25 0.45,-0.22 0.3,-0.76 0.64,0.1 -0.73,-0.57 -0.65,1.45 z m -9.67,4.47 0.34,-0.16 0.23,-0.57 0.48,0.07 -0.55,-0.43 -0.49,1.09 z m 0.07,8.3 c 0.41,-0.17 0.31,1.32 0.69,1.17 0.36,0.03 0.29,-1.49 0.69,-1.52 0,0 0,-0.21 0,-0.21 -0.56,0.14 -0.83,0.22 -1.39,0.36 v 0.21 z m 0.18,4.44 0.23,-0.57 0.48,0.07 -0.55,-0.43 -0.49,1.09 0.34,-0.16 z m 7.27,-18 h -0.91 l -1.06,2.74 1.19,-2.35 0.94,0.9 h 0.9 l -1.06,-1.28 z m 40.83,-5.66 c -0.06,-3.67 -4.59,-3.65 -4.63,0.02 0,-0.02 4.66,0.03 4.63,-0.02 z m -47.33,9.05 h -0.69 l -0.79,2.06 0.89,-1.77 0.71,0.68 h 0.68 l -0.79,-0.97 z m 42.34,29.68 c 0.16,0.33 0.07,-14.77 0.09,-15 0,-3.5 -0.95,-6.2 -2.12,-6.03 -1.17,0.17 -2.11,3.01 -2.11,6.35 0.02,5.92 -0.06,10.07 0.13,16.01 1.6,0.18 2.41,0.27 4.01,0.45 z m -41.9,-28.15 -1.39,0.6 v 7.2 l 1.39,-0.38 z m 3.5,7.17 c -0.87,0.23 -1.31,0.34 -2.18,0.57 0.02,0.14 -0.06,0.26 0.09,0.2 0.52,-0.09 0.4,1.36 1,1.18 0.52,0 0.52,-1.56 1,-1.69 0.16,0 0.08,-0.13 0.09,-0.25 z m -1.74,5.58 0.27,-0.67 0.56,0.09 -0.64,-0.5 -0.57,1.27 0.39,-0.19 z m 1.73,-0.87 -0.93,-1.13 h -0.8 l -0.93,2.4 1.04,-2.07 0.83,0.79 h 0.79 z m 0,-13.41 -2.18,0.95 v 7.63 l 2.18,-0.6 v -7.99 z m -3.22,13.86 -0.8,-0.97 h -0.69 l -0.79,2.06 0.89,-1.77 0.71,0.68 z m 2.4,-15.49 h -0.8 l -0.93,2.4 1.04,-2.06 0.83,0.79 h 0.79 z m 0.02,1.41 -0.64,-0.5 -0.57,1.27 0.39,-0.19 0.27,-0.67 0.56,0.09 z m 7.78,-2.83 -2.18,0.95 v 8.76 l 2.18,-0.6 v -9.12 z m 16.62,12.45 -1.33,-1.62 h -1.16 l -1.33,3.46 1.5,-2.97 1.19,1.14 h 1.13 z M 226.5,160.7 h -1.06 l -1.22,3.17 1.37,-2.73 1.09,1.04 h 1.04 l -1.22,-1.49 z m 7.76,19.49 0.38,-0.96 0.8,0.13 -0.93,-0.72 -0.82,1.83 0.57,-0.27 z m 3.95,-0.34 0.44,-1.1 0.92,0.14 -1.06,-0.83 -0.94,2.1 0.65,-0.31 z m -3.84,-5.99 c 0.27,1.8 1.15,1.25 1.31,-0.32 0.07,-0.54 0.26,-0.9 0.45,-0.95 0.17,0 0.08,-0.17 0.1,-0.36 -0.96,0.25 -1.45,0.38 -2.41,0.63 v 0.33 c 0.29,-0.12 0.45,0.11 0.55,0.68 z m 1.86,-14.39 -2.41,1.05 v 11.33 l 2.41,-0.66 z m -1.69,-1.02 0.75,0.12 -0.87,-0.68 -0.77,1.72 0.53,-0.26 z m 9.04,36.99 h -1.25 l -0.81,-0.04 v 0.18 c 0,0 0.81,0.04 0.81,0.04 h 1.25 z m 0,3.28 v -0.18 c -0.49,0.01 -1.58,0 -2.06,-0.09 0,0 -0.02,0.18 -0.02,0.18 0.48,0.09 1.58,0.1 2.07,0.09 z m 0,-15.67 c -0.5,-0.01 -1.59,0 -2.07,0.08 0,0 0.01,0.18 0.01,0.18 0.48,-0.08 1.57,-0.09 2.06,-0.08 z m 0,9.29 -1.28,0.02 -0.78,-0.02 v 0.18 c 0.47,0.03 1.58,0.01 2.06,0 z m 0,-7.75 c -0.49,0 -1.59,0 -2.07,0.07 0,0 0.01,0.18 0.01,0.18 0.48,-0.06 1.57,-0.07 2.06,-0.06 0,0 0,-0.18 0,-0.18 z m 0,9.29 c -0.49,0 -1.58,0 -2.06,-0.02 0,0 0,0.18 0,0.18 l 0.81,0.02 h 1.25 z m -8.32,-37.23 h -1.08 l -1.25,3.24 1.4,-2.78 1.12,1.07 h 1.06 l -1.25,-1.52 z m 8.32,40.33 h -1.25 l -0.81,-0.06 v 0.18 c 0,0 0.81,0.06 0.81,0.06 h 1.25 z m -2.51,-18.57 -1.53,-1.86 h -1.32 l -1.53,3.96 1.72,-3.41 1.37,1.3 h 1.3 z m -13.31,2.15 -1.18,-1.44 h -1.02 l -1.18,3.06 1.33,-2.63 1.05,1.01 z m -2.2,1.1 0.34,-0.85 0.71,0.11 -0.82,-0.64 -0.73,1.62 z m 4.43,-20.47 0.48,-0.23 0.33,-0.82 0.68,0.11 -0.79,-0.61 -0.7,1.56 z m 1.46,-2.68 h -0.98 l -1.14,2.94 1.28,-2.53 1.01,0.97 h 0.97 z m -3.71,4.65 -2.79,1.22 v 9.89 l 2.79,-0.76 z m -1.93,-0.73 0.74,0.12 -0.85,-0.66 -0.75,1.68 0.52,-0.25 0.35,-0.88 z m -0.22,13.56 c 0.32,1.58 1.33,0.99 1.52,-0.37 0.11,-0.56 0.3,-0.85 0.64,-0.9 0,0 0,-0.3 0,-0.3 -1.12,0.29 -1.68,0.43 -2.79,0.72 v 0.29 c 0.31,-0.12 0.53,0.05 0.64,0.55 z m 14.06,-19.54 -1.06,-0.83 -0.94,2.1 0.65,-0.31 0.44,-1.1 0.92,0.14 z m -0.03,-2.33 h -1.32 l -1.53,3.96 1.72,-3.41 1.37,1.3 h 1.3 l -1.53,-1.86 z m -2.06,18.1 c 0.33,-0.13 0.52,0.1 0.63,0.7 0.12,0.77 0.41,1.26 0.75,1.19 0.77,-0.06 0.57,-2.51 1.38,-2.59 0,0 0,-0.36 0,-0.36 l -2.76,0.72 v 0.35 z m -7.45,1.9 c 0.29,-0.11 0.45,0.1 0.55,0.64 0.27,1.71 1.15,1.16 1.31,-0.32 0.1,-0.59 0.24,-0.88 0.55,-0.93 0,0 0,-0.32 0,-0.32 -0.96,0.25 -1.45,0.38 -2.41,0.63 v 0.31 z m 7.45,-3.3 2.76,-0.76 v -12.38 l -2.76,1.2 v 11.93 z m -4.96,8.93 -1.35,-1.64 h -1.17 l -1.35,3.5 1.52,-3 1.2,1.15 h 1.15 z m -0.07,-18.67 -2.41,1.05 v 10.73 l 2.41,-0.66 z m -2.44,19.93 0.39,-0.97 0.81,0.13 -0.94,-0.73 -0.83,1.85 z m -2.29,-49.09 v -1.03 l 14.55,-12.98 40.49,-0.04 3.43,-2.3 -3.64,0.62 -40.28,0.05 -15.67,14.65 h 0.74 v 0.2 c 0,0 -1.27,0.01 -1.27,0.01 l 16.19,-15.84 c 1.97,0 44.38,-0.18 44.83,-0.14 0,0 -9.19,-6.95 -9.19,-6.95 l -6.38,-8.13 h -5.48 l 2.76,-2.01 3.88,2.83 -3.88,-3.5 -2.98,2.68 h -1.02 l 3.75,-3.78 -13.3,-18.5 -10.99,32.75 -3.96,5 -16.08,15.89 c 0.83,0.15 2.63,0.39 3.47,0.52 z m 37.21,-24.87 1.5,-3.59 c 0.01,-0.81 -0.24,-2.58 0.96,-2.59 0,0 2.83,0 2.83,0 1.19,0 0.94,1.77 0.96,2.59 0,0 1.53,3.59 1.53,3.59 0.28,1.01 -0.51,0.95 -1.19,0.93 -1.02,0.13 -1.66,1.08 -2.87,0.95 -1.22,0.12 -1.85,-0.82 -2.87,-0.95 -0.58,0.09 -1.1,-0.23 -0.85,-0.93 z m -6.6,0.93 c -0.53,0 -1.18,-0.06 -1.62,0.32 -0.99,0.82 -2.97,0.82 -3.96,0 -0.37,-0.31 -0.83,-0.35 -1.28,-0.32 -0.4,0 -0.65,-0.51 -0.46,-0.93 l 1.5,-3.59 v -1.44 c 0,-0.63 0.43,-1.15 0.96,-1.15 h 2.83 c 0.53,0 0.96,0.51 0.96,1.15 v 1.44 l 1.53,3.59 c 0.19,0.42 -0.06,0.93 -0.46,0.93 z m -6.21,-7.92 2.76,-2.01 2.76,2.01 h -5.53 z m 2.61,-4.02 3.99,4.02 h -0.85 l -2.98,-2.68 -2.98,2.68 h -1.16 l 3.99,-4.02 z M 191.95,63.23 c 0,0 -1.11,-0.9 -1.3,-0.86 -0.19,0.04 -0.65,0.32 -0.61,1.46 0.04,1.11 0.2,1.88 0.2,1.88 0,0 0.17,-1.99 1.7,-2.48 z m -28.7,-40.1 c 4.64,1.23 7.04,3.69 12.13,7.23 -0.34,-0.45 6.81,6.3 6.78,6.26 1.61,1.48 -0.34,0.95 -2.76,1.26 -0.57,0.01 -1.11,0 -1.59,-0.07 1.1,1.01 1.05,2.02 1.05,2.02 -0.51,-0.47 -1.6,-1.07 -2.07,-1.18 0.61,0.68 1.22,2.23 0.82,3.29 -0.03,0.24 -0.53,1.58 -0.35,1.36 -0.02,0.58 0.11,1.18 0.4,1.73 0.03,-0.55 0.22,-1.46 0.55,-2.05 4.81,-0.26 7.34,-5.38 7.34,-5.38 0,0 -1.1,-1.24 -3.98,-3.27 l 2.1,-1.92 c 0.21,-0.2 0.11,-0.55 -0.17,-0.6 -1.63,-0.3 -6.07,-1.67 -14.66,-8.01 -1.58,-1.17 -3.51,-1.8 -5.47,-1.78 -1.04,0.01 -2.17,0.15 -3.23,0.55 l 3.11,0.57 z m 30.41,10.88 -0.73,7.19 c -0.02,0.28 0.47,0.22 0.48,0.21 -0.01,0.02 0.14,19.05 0.19,19.08 -0.01,0 0.86,-0.22 0.93,-0.23 0,0 -0.32,-16.44 0.34,-17.81 0.55,0.1 1.81,0.86 2.15,1.88 0,0 -0.14,-2.62 -0.14,-2.62 l -0.02,-0.33 c 0.21,0.05 0.69,0.2 0.64,-0.19 0,0 -1.4,-7.28 -1.4,-7.28 0.2,-1.03 0.68,-1.78 1.21,-2.3 0.43,-0.51 1.62,-1.12 1.96,-1.17 0.17,-8.78 -1.07,-18.42 -3.96,-26.6 0,0 -0.5,-1.04 -0.5,-1.04 -0.81,1.77 -1.48,4.4 -2.16,7.17 -1.59,5.86 -2.38,14.68 -2.2,20.39 0,0 2.75,0.7 3.21,3.66 z M 193.65,10.2 c 0.4,-1.67 0.78,-3.09 1.14,-4.28 l 0.2,26.34 c 0.07,1.98 0.02,4.88 0.04,6.9 -0.05,-0.58 -0.02,1.24 -0.03,1.19 -0.3,-0.06 -1.02,0.33 -1.08,-0.16 0,0 0.43,-5.17 0.43,-5.17 -0.03,-0.08 0.08,-2.64 -0.52,-3.32 -0.57,-1.12 -1.74,-1.75 -2.37,-2.06 -0.09,-5.29 0.62,-13.63 2.19,-19.44 z m -17.47,48.33 c 0.09,0 0.18,0.13 0.24,0.07 0.8,-0.7 0.56,-2 -0.66,-1.63 -1.03,0.48 -1.9,1.65 -3.28,1.28 0.08,0.12 0.25,0.46 0.48,0.57 1.04,-0.25 2.17,-0.41 3.22,-0.29 z m 0.04,-20.93 c -0.96,-0.28 -2.05,-1.29 -2.98,-1.1 -1.4,1.01 -2.05,2.77 -5.9,2.45 0,0 2.22,0.91 6.2,-0.52 1.17,-0.42 2.04,-0.67 2.69,-0.82 z m -1.48,22.34 c 0.66,0.08 0.81,-0.29 1.15,-0.44 -0.72,-0.46 -2.8,0.1 -2.8,0.1 z m 4.55,-7.03 c -2.25,-2.61 -3.74,-5.18 -4.47,-7.7 -0.57,0.39 -1.04,1.02 -1.04,1.02 l 0.66,-1.61 c -4.17,-1.24 -4.12,-1.07 -7.17,0.49 0.67,-0.09 2.14,-0.37 3.34,-0.32 0.56,0.13 1.19,0.38 0.2,0.31 -1.46,-0.11 -2.63,1.17 -3.96,0.87 -0.17,0 -0.51,-0.26 -0.21,0.08 0.58,0.77 1.95,1.14 2.99,0.64 -0.31,0.57 0.28,1.16 0.86,1.01 0.35,0.01 0.94,-0.41 1.09,-0.98 0.18,0.32 0.1,0.67 0,1 -0.06,0.16 0,0.08 0.25,0.03 -0.1,0.8 0.46,1.29 1.62,1.84 1.75,1.01 2.19,1.74 1.35,2.18 -1.31,0.55 -1.46,1.34 -0.44,2.35 1.26,-0.33 2.12,0.04 2.58,1.11 1.07,-0.4 1.85,-1.18 2.36,-2.32 z m 52.3,93.17 c 0,-3.43 0.01,-5.15 0.02,-8.58 -0.39,0.31 -0.59,0.46 -0.98,0.77 -0.02,3.39 -0.03,5.09 -0.05,8.48 0.41,-0.27 0.61,-0.4 1.01,-0.67 z m -0.19,-12.75 c 0,1.89 -0.58,2.3 -0.58,0.52 0,-1.75 -0.73,2.75 -0.73,2.75 0.82,-0.67 1.23,-1.01 2.05,-1.68 0,0 -0.74,-3.27 -0.75,-1.58 z M 197.91,62.05 c -0.21,-0.2 -1.5,-0.95 -1.9,-1.04 -0.29,-0.08 -1.71,-0.01 -1.87,0 -0.81,0.07 -1.63,0.06 -2.32,-0.41 -0.07,0 -0.17,-0.02 -0.21,0.05 -0.27,0.39 0.01,0.83 0.28,1.14 0.63,0.65 1.21,1.06 2.25,1.01 1.04,0.02 2.08,-0.5 2.89,0.12 0.54,0.49 1.5,1.37 1.69,1.62 0.26,0.35 0.3,1.26 0.3,1.26 0,0 0.89,-0.52 0.34,-2.47 -0.25,-0.53 -0.95,-0.91 -1.44,-1.27 z m 34.22,73.38 c -1.21,1.15 -2.29,1.3 -1.96,2.38 0.3,4.22 0.02,6.85 0.07,11.09 0.03,-0.02 0.05,-0.03 0.08,-0.05 0.03,-4.27 0.04,-6.91 0.07,-11.19 0.89,-0.86 1.8,-0.91 1.74,-2.23 z M 126.84,28.71 c -1.4,1.26 -0.31,3.48 -0.22,5.11 2.03,-2.82 4.35,-5.18 9.02,-7.4 0,0 -5.33,2.67 -7.7,7.19 0,0 -0.56,1.04 -0.76,1.87 0.01,-0.02 0.03,-0.04 0.04,-0.06 1.36,-2.09 3.78,-4.22 6.73,-5.71 -2.01,1.69 -4.08,4.02 -5.1,8.26 0.78,1.87 1.66,3.42 2.42,4.6 0.55,0.75 1.29,1.73 1.93,2.54 0,0 1.47,-1.09 1.47,-1.09 -0.61,-12.29 0.97,-17.49 7.59,-17.5 -5.75,7.27 -7.73,14.17 -1.89,22.43 1.3,1.69 2.54,3.53 2.67,5.69 -0.12,2.76 -0.8,4.8 -3.22,7.53 1.29,-0.6 4.07,-2.63 5.23,-4.33 0,0 0.36,2.39 -1.87,4.86 -0.54,0.6 -1.12,1.01 -1.74,1.46 -3.07,2.14 -3.82,4.81 -3.88,6.77 -0.06,0.63 -0.02,1.35 -0.02,2.14 -0.02,2.92 -3.56,3.99 -3.56,3.99 0,0 -0.47,0.14 -0.75,0.21 1.09,-0.08 2.18,-0.27 3.2,-0.6 2.68,-0.91 3.27,-2.26 3.68,-3.22 0,0 0,0.14 0.02,0.37 0.08,3.31 2.33,11.68 7.55,12.42 -1.87,-2.49 -3.6,-8.71 -0.66,-11.88 2.05,-2.43 5.19,-4.03 6.41,-7.12 1.38,1.73 2.64,2.86 6.22,3.8 -1.79,-1.57 -2.88,-3.43 -3.53,-5.31 -0.5,-1.47 -0.77,-2.99 -0.84,-4.53 0.39,-0.55 0.52,-2.49 0.57,-3.51 0.26,-2.65 1.12,-4.85 2.46,-6.31 -0.22,0.56 -1.22,3.22 -0.94,5.97 l 0.87,-1.38 c 0.02,0.91 -0.02,2.58 0.25,3.44 0.38,1.47 1.36,2.73 2.65,3.52 0.48,0.33 1,0.6 1.54,0.83 -0.02,0.06 -0.01,0.81 0,1.06 0.31,3.42 1.47,5.94 1.47,5.94 l 0.2,-0.96 c -0.06,-3.24 0.54,-4.61 1.02,-5.18 1.08,-0.14 2.77,0.93 3.85,0.98 3.75,0.65 4.75,0.54 6.22,-0.58 -0.51,0.17 -1.05,0.27 -1.62,0.28 -6.06,0.1 -14.13,-6.64 -10.67,-12.32 0.62,-1.19 1.15,-2.39 0.78,-3.54 -0.23,-0.73 -0.31,-1.54 -0.3,-2.32 0.07,-1.73 0.18,-3.45 1.35,-4.68 0.4,-0.62 2.26,-1.57 2.32,-1.48 -1.18,0.13 -2.17,0.45 -3.11,1.07 -1.69,1.19 -2.31,3.79 -4.13,4.72 -1.81,1.2 -4.01,1.61 -6.08,1.58 0.19,-0.03 0.58,-0.11 1.07,-0.25 1.95,-0.56 3.99,-1.63 5.06,-3.54 2.67,-4.23 3.63,-5.37 5.67,-6.61 1.82,-1.11 3.53,-1.36 3.53,-1.36 0.58,-0.13 1.31,-0.21 2.17,-0.14 0,0 0.24,-0.25 0.72,-0.49 -1.24,-0.39 -2.53,-0.66 -3.82,-0.8 -6.74,-0.2 -10.26,1.6 -17.06,6.75 6.64,-4.05 12.36,-4.85 12.36,-4.85 -8.75,2.89 -12.31,5.45 -15.51,9.85 -1.03,1.32 -2.42,4.34 -3.17,6.53 -1.46,-14.8 17.49,-19.52 19.42,-20.58 0.83,-0.65 -0.49,-1.04 -2.93,-1.77 -2.58,-0.85 -11.47,-2.13 -7.47,-5.6 1.31,-1.13 3.36,-1.99 3.36,-1.99 -8.63,0.51 -12.04,7.62 -12.04,7.62 -0.94,-1.75 -0.7,-3.71 -0.14,-5.34 0.98,-1.11 3.93,-3.7 11.03,-5.19 -0.2,0.06 -6.07,0.32 -9.92,2.82 2.57,-3.43 8.2,-4.12 9.1,-4.22 -0.54,-3.59 -2.23,-9.79 6.21,-14.88 0,0 -0.95,-3.87 -0.95,-3.87 -9.94,5.36 -9.46,12.35 -8.26,16.09 -2.38,-3.2 -3.48,-7.68 -3.48,-7.68 -0.9,3.09 1.94,7.75 1.94,7.75 -5,-3.33 -8.03,-8.79 -6.41,-13.88 1.81,-0.78 3.77,-1.41 5.87,-1.87 -0.73,1.83 0.05,4.32 0.05,4.32 -0.53,-3.03 1.81,-4.43 2.52,-4.78 1.06,-0.15 2.15,-0.26 3.28,-0.33 -5.95,-0.04 -11.04,1.26 -15.24,3.49 -0.01,0.29 0,0.62 0.02,0.98 0.17,2.49 1.4,6.57 6.49,11.46 0,0 -6.16,-3.87 -8.73,-9.98 -0.31,-1.92 -2,0.56 -2.93,1.07 0.18,0.29 0.37,0.58 0.58,0.87 1.47,2.11 4.18,5.22 9.09,8.9 0,0 -6.01,-2.87 -10.17,-7.77 -0.91,-1.85 -1.98,0.75 -2.89,1.54 2.01,2.75 4.72,5.63 9.3,7.55 -2.81,-0.89 -5.89,-2.3 -9.5,-5.37 -1.36,-1.86 -2.2,1.87 -3.03,2.9 2.28,0.87 5.16,1.92 7.44,2.53 -2.33,-0.45 -5.58,-1.11 -8.01,-1.31 -0.33,1.35 -2.91,5.53 -0.34,4.39 4.54,-1.25 12.63,-0.66 12.19,-0.57 -4.72,-0.11 -8.52,0.66 -12.5,1.81 -2.23,0.23 -1.43,3.24 -1.79,4.9 2.51,-1.45 6.07,-3.34 8.58,-3.65 0.13,-0.15 -5.41,2.19 -7.9,4.97 z m 27.3,16.31 c 0.26,-0.14 0.54,-0.28 0.84,-0.4 2.6,-1.08 4.1,-2.77 4.1,-2.77 0,0 -0.53,2.69 -3.69,4.04 -1.04,0.44 -1.79,0.79 -2.37,1.1 -1.19,0.64 -1.66,1.1 -2.38,1.82 0,0 0.64,-2.25 3.49,-3.78 z m -5.17,13.13 c 1.27,-4.11 4.31,-6.47 7.07,-7.58 0,0 -3.13,3.43 -4.13,7.04 -0.27,0.97 -0.64,1.93 -1.06,2.76 -2.38,4.73 -6.5,6.61 -6.5,6.61 0,0 2.55,-2.02 4.62,-8.82 z m 45.65,7.76 c 1.2,0.03 4.05,1.88 4.25,2.02 0.2,0.14 0.21,-0.88 0.18,-0.96 -0.03,-0.08 -0.19,-0.78 -0.67,-0.84 -0.48,-0.06 -1.44,-0.82 -1.77,-1.21 -0.32,-0.39 -0.72,-0.57 -0.78,-0.47 -0.05,0.11 -0.27,0.26 -1.24,0.23 -0.97,-0.03 -2.1,0.34 -2.38,0.71 -0.29,0.36 -0.77,0.44 -0.77,0.44 -0.88,1.19 -0.44,2.52 -0.44,2.52 0.44,-1.02 2.42,-2.45 3.63,-2.43 z m -3.72,6.15 c 0.14,0.58 0.68,1.61 1.3,2.39 0.35,0.63 0.78,1.25 1.5,1.58 0,1.06 0.02,2.6 0.03,3.68 0,0 0.06,7.59 0.06,7.59 l 0.72,-1.99 c 0.07,-2.08 -0.01,-11.17 0,-11.45 0.45,0.44 2,1.1 2.43,1.1 0.07,-0.01 0.17,12.8 0.17,13.25 1.35,-1.19 2.65,-2.45 3.87,-3.78 -0.38,-3.11 -1.14,-7.13 -1.48,-7.85 -0.49,-1.06 -1.37,-2.74 -1.85,-3.52 -0.49,-0.78 -1.29,-1.11 -1.29,-1.11 -1.36,-0.12 -2.17,-1.26 -2.45,-1.46 -0.28,-0.2 -0.57,0.13 -1.44,0.26 -0.87,0.13 -0.71,-0.66 -0.71,-0.66 0.35,0.09 1.94,-1.28 2.35,-1.35 0.41,-0.07 2.75,0.66 2.85,0.74 0.1,0.08 0.62,-0.1 0.62,-0.1 -0.51,-0.59 -3.92,-1.92 -4.15,-2.05 -0.23,-0.14 -1.37,1.02 -1.7,1.55 -0.33,0.53 -0.77,0.14 -0.77,0.14 0,0 -0.34,0.62 -0.05,3.04 z m 24.26,45.89 -4.79,7.87 -7.86,16.3 5.61,-8.1 z m -51.1,22.82 v 0.28 c 1.04,0 2.53,0.2 3.35,0.76 -0.84,-0.62 -2.26,-1.04 -3.35,-1.04 z m -11.1,1.96 c 0.48,0.08 0.85,0.56 0.85,1.16 h 0.25 c 0,-0.69 -0.51,-1.26 -1.11,-1.16 z m 5.38,-2.16 c 0,-0.64 -0.83,-0.64 -0.82,0 0,0.64 0.83,0.64 0.82,0 z m 76.83,-10.5 c 0,2 -0.68,2.49 -0.68,0.61 0,-1.88 -0.85,2.96 -0.85,2.96 0.97,-0.79 1.45,-1.19 2.41,-1.98 0,0 -0.88,-3.37 -0.88,-1.6 z m -79.58,13.02 h 3.58 v -0.35 h -3.85 z m -5.77,-68.54 c -0.73,0.58 -1.35,1.23 -1.77,1.81 1.67,2.19 3.6,2.81 5.3,3.18 0.14,0.02 0.29,0.04 0.45,0.05 -2.42,-1.29 -3.51,-3.28 -3.97,-5.04 z m -24.22,67.57 -7.86,-16.3 -4.79,-7.87 7.05,16.07 5.61,8.1 z m 95.99,-11.54 h -1.51 v 2.12 h 1.51 z m -9.46,2.12 h 1.51 v -2.12 h -1.51 z M 143.4,96.62 c 22.21,4.59 27.61,-13.24 26.42,-19.3 1.39,7.3 -0.04,19.02 -13.42,23.01 1.94,0.07 4.33,0.97 6.14,0.12 6.41,-3.55 10.77,-13.06 9.49,-23.03 0,0 0.82,3.21 0.73,7.71 -0.06,4.77 -1.67,8.24 -5.75,15.61 2.2,-0.14 4.37,-0.42 6.49,-0.84 1.86,-4.35 3.25,-11.84 1.86,-19.65 1.95,3.24 3.96,10.5 1.85,18.77 1.19,-0.33 2.36,-0.7 3.51,-1.11 1.23,-4.68 0.82,-9.72 -1.02,-14.1 2.04,3.68 2.97,6 3.13,13.29 0.66,-0.27 1.31,-0.56 1.95,-0.85 0.03,-0.79 0.05,-1.91 0.05,-3.52 0,-6.65 -2.06,-10.62 -4.48,-12.21 -0.76,-0.69 -1.55,-1.19 -2.24,-1.25 -0.28,-0.76 -1.88,-2.06 -3.06,-1.45 -0.88,-1.14 -3.1,-0.79 -3.11,-0.79 -0.64,-1.29 -4.11,-1.69 -4.39,-1.44 2.11,4.98 1.69,9.43 -5.77,14.88 -6.17,4.38 -30.3,1.41 -38.5,-9.71 5.2,6.88 12.12,12.38 20.12,15.88 z M 128.57,39.85 c 0.99,2.09 2.27,4.03 3.86,5.74 -1.61,-2.07 -2.85,-4.4 -3.72,-6.89 -0.06,0.37 -0.11,0.76 -0.14,1.15 z m 45.47,104.04 h 0.25 c 0,-0.6 0.37,-1.08 0.85,-1.16 -0.6,-0.1 -1.11,0.47 -1.11,1.16 z m -9.58,-5.79 c 0,-0.64 -0.83,-0.64 -0.82,0 0,0.64 0.83,0.64 0.82,0 z m -0.41,2.96 v -0.28 c -1.1,0 -2.51,0.42 -3.35,1.04 0.83,-0.56 2.31,-0.76 3.35,-0.76 z m 6.53,-0.48 c 0,-0.64 -0.83,-0.64 -0.82,0 0,0.64 0.83,0.64 0.82,0 z m -1.66,2.52 h 3.58 l 0.27,-0.35 h -3.85 z m 74.64,-3.9 h -1.27 l -0.83,0.55 0.08,0.16 0.79,-0.52 h 1.23 v -0.18 z m -131.14,15.08 h 2.55 l 0.37,-1.03 h -3.3 l 0.37,1.03 z M 272.96,123.4 c 0,2.6 -2.77,2.5 -2.77,0.04 0,-2.46 -3.45,2.98 -3.45,2.98 h 9.81 c 0,0 -3.59,-5.34 -3.59,-3.02 z m -29.4,17.35 h -1.25 l -0.85,0.53 0.08,0.16 0.79,-0.51 h 1.23 z m 12.06,-17.35 c 0,2.6 -2.77,2.5 -2.77,0.04 0,-2.46 -3.45,2.98 -3.45,2.98 h 9.81 c 0,0 -3.59,-5.34 -3.59,-3.02 z m -14.16,19.42 0.07,0.16 0.79,-0.49 h 1.23 v -0.18 h -1.25 l -0.85,0.51 z m 2.1,-5.16 h -1.27 l -0.83,0.56 0.08,0.16 0.79,-0.54 h 1.23 z m 13.02,23.68 h -2.11 v 5.65 h 2.11 z m -2.97,-55.6 h 2.64 v -3.7 h -2.64 z m 24.42,-69.39 c 0.43,0.69 1.1,1.57 1.5,2.07 0.4,0.54 0.2,0.84 -0.2,0.91 -0.86,0.28 -1.12,1.19 -0.29,2.19 0.7,1.06 2.78,1.82 3.36,2.56 -0.01,0.57 -0.97,0.58 -0.93,1.75 -0.02,1.28 1.46,1.66 1.84,1.71 0.37,0.05 1.17,-0.4 1.36,-0.23 0.09,0.09 -0.16,0.32 -0.43,0.62 -1.2,1.01 -0.12,2.08 1.02,2.14 0.98,0.06 2.25,-1.19 1.73,0.36 0,0.37 0.69,0.94 0.91,1.25 0.21,0.3 0.27,1.03 0.36,1.2 0.19,0.47 1.1,1.02 1.34,0.22 -0.06,-1.79 -0.87,-3.78 -1.44,-5.57 -1.05,-2.84 -2.34,-5.78 -4.44,-7.99 -0.3,-0.29 0.04,0.03 0.16,0.13 3.33,3.48 5.1,8.33 6.33,12.9 0.68,-1.38 0.75,-6.16 0.3,-7.66 -0.52,-0.42 -0.43,0.76 -0.77,0.45 -0.08,-0.08 0.01,-0.46 0.18,-1.04 0.5,-1.92 1.53,-4.79 0,-6.45 -0.93,-0.83 -1.27,0.98 -1.82,1.15 -0.54,-0.64 -0.91,-7.94 -4.15,-6.69 -0.62,0.23 -0.18,1.01 -0.45,1.5 -0.09,0.16 -0.76,-0.41 -1.65,-0.79 -3.34,-1.61 -6.11,-0.15 -3.81,3.28 z m -6.21,121.35 c -1.28,0 -2.32,1.26 -2.31,2.8 h 4.62 c 0.01,-1.54 -1.03,-2.8 -2.31,-2.8 z m 2.09,-103.36 c 0.01,1.3 1.41,2.09 2.43,2.59 0.6,0.27 1.38,0.55 0.79,1.1 -0.46,0.49 -0.6,1.44 0.42,1.78 1.25,0.61 3.45,-0.31 3.25,0.52 -0.14,0.39 -0.48,0.73 -0.27,1.17 0.31,0.67 1.36,0.7 1.83,0.42 0.29,-0.14 0.77,-0.89 0.96,-0.84 0.09,0.03 -0.03,0.35 -0.15,0.72 -0.54,1.27 0.34,1.8 1.4,1.21 0.7,-0.39 1.34,-2.05 1.39,-0.58 0.1,0.29 0.8,0.36 1.05,0.48 0.25,0.12 0.52,0.62 0.63,0.7 0.65,0.38 1.24,-0.07 1,-0.77 -2.12,-2.83 -4.73,-5.72 -8.21,-6.79 -0.08,-0.02 -0.13,-0.03 -0.13,-0.03 0.34,0.06 0.66,0.14 1.04,0.27 3.13,1.15 5.6,3.57 7.65,6.11 0.05,-1.34 -1,-4.03 -1.66,-5.39 -0.13,-0.22 -0.24,-0.36 -0.31,-0.36 -0.5,-0.05 -0.1,0.77 -0.44,0.71 -0.49,-1.46 -0.05,-4.95 -2.05,-5.61 -0.94,-0.15 -0.67,1.39 -1.01,1.75 -0.25,0.07 -0.83,-1.17 -1.14,-1.53 -0.85,-1.28 -2.55,-3.25 -3.85,-1.63 -0.4,0.48 0.16,0.9 0.09,1.42 -0.02,0.17 -0.68,0.03 -1.45,0.13 -1.4,0.17 -3.27,0.78 -3.27,2.44 z M 255.23,26.73 c -0.39,0.27 -1.33,-0.16 -1.32,0.45 0.24,2.97 5.93,3.41 7.84,4.58 -0.02,0.49 -1.64,0.56 -0.63,1.61 0.51,0.53 1.15,0.85 1.85,1.04 1.49,0.53 3.62,0.13 4.94,0.51 0.3,0.41 -0.77,-0.03 -0.36,0.59 1.28,0.7 5.5,2.83 6.63,2.91 -4.09,-3.98 -8.84,-7.21 -13.03,-11.03 3.47,3.1 7.5,5.52 10.96,8.67 0.89,0.68 1.7,1.6 2.57,2.07 0,0 0.36,0.1 0.41,-0.26 -0.03,-1.04 -0.79,-1.2 -1.4,-1.94 -0.24,-0.34 -0.67,-1.26 -1,-1.41 -0.33,-0.16 -0.53,-0.04 -0.68,-0.28 -0.15,-0.24 0.52,-0.9 0.53,-1.44 0.09,-0.9 -0.8,-2.58 -1.92,-1.93 -1.15,0.55 -0.38,-0.37 -0.31,-1.02 -0.03,-1.77 -2.04,-3.21 -3.52,-2.56 -0.26,0.16 -0.36,0.34 -0.63,0.2 -0.53,-0.29 -1.48,-2.56 -3.4,-4.05 -1.16,-0.86 -2.33,-1.27 -2.67,-0.24 0,0.39 -0.31,0.5 -1.07,0.03 -1.32,-0.86 -3.4,-2.12 -5.01,-2.53 -3.46,-0.8 -2.47,2.05 -0.24,4.42 0.75,0.86 1.57,1.52 1.44,1.61 z m 14.94,75.31 h -2.64 v 3.7 h 2.64 z m -41.26,24 15.11,-16.29 10.46,-31.96 -7.26,9.23 -8.78,18.7 h -0.74 l -1.59,4.13 1.79,-3.55 0.19,0.18 -1.93,4.11 -0.08,-0.1 h -1.38 l -1.58,4.11 -0.36,-0.44 h -1.38 l -1.59,4.13 1.79,-3.55 1.42,1.36 h 0.58 l -0.47,1 v 3.13 l -1.57,1.93 v -1.71 c -0.01,0.06 0,-3.26 0,-3.25 0,0 0.3,-0.75 0.3,-0.75 l 0.96,0.15 -1.11,-0.86 -0.98,2.19 0.52,-0.25 v 3.46 l -2.31,4.92 z m 8.12,-14.93 1.33,-3.08 0.14,0.02 v 6.56 l -1.47,1.8 v -5.31 z m -1.3,6.38 -1.07,1.47 v -5.01 l 0.03,-0.02 0.46,-1.15 0.58,0.09 z m -2.62,-2.88 1.78,-3.53 0.72,0.68 -0.27,0.57 -0.34,-0.26 -0.98,2.19 0.54,-0.26 -0.71,1.52 -0.74,-0.9 z m 10.45,21.51 h -1.27 l -0.77,0.54 0.08,0.15 0.73,-0.52 h 1.23 v -0.18 z m 0,-15.49 h -1.28 l -0.77,0.71 0.1,0.14 0.73,-0.67 h 1.23 v -0.18 z m 0,-1.55 h -1.28 l -0.77,0.71 0.1,0.14 0.73,-0.67 h 1.23 v -0.18 z m 0,15.49 h -1.27 l -0.83,0.59 0.08,0.15 0.79,-0.57 h 1.23 v -0.18 z m 0,-12.39 h -1.28 l -0.77,0.71 0.1,0.14 0.73,-0.67 h 1.23 v -0.18 z m -8.15,21.36 v -9.06 c -0.46,0.36 -0.69,0.54 -1.15,0.91 v 8.91 c 0.46,-0.3 0.69,-0.46 1.15,-0.76 z m 0.62,-11.29 c -0.96,0.78 -1.44,1.17 -2.4,1.95 0.07,0.45 0.12,0.84 0.1,1.3 0.07,0.19 0.1,0.29 0.17,0.49 v 10.6 c 0,0 0.06,-0.03 0.09,-0.06 v -11.76 c 1.04,-1.01 2.09,-1.09 2.03,-2.52 z m 3.23,-5.63 c 0,2.11 -0.75,2.65 -0.75,0.68 0,-1.97 -0.94,3.17 -0.94,3.17 1.07,-0.87 1.6,-1.31 2.66,-2.19 0,0 -0.98,-3.53 -0.98,-1.65 z m 0.28,14.2 v -9.58 c -0.51,0.4 -0.76,0.6 -1.27,1 v 9.42 c 0.51,-0.34 0.76,-0.5 1.27,-0.84 z m 0.68,-11.97 c -1.06,0.86 -1.59,1.29 -2.64,2.15 0.07,0.43 0.14,0.92 0.11,1.37 0.08,0.2 0.11,0.3 0.19,0.51 v 11.2 c 0,0 0.07,-0.04 0.1,-0.06 v -12.43 c 1.19,-1.13 2.3,-1.22 2.24,-2.74 z m 3.35,2.63 h -1.28 l -0.77,0.58 0.09,0.15 0.73,-0.56 h 1.23 v -0.18 z m 0,1.55 h -1.28 l -0.77,0.57 0.08,0.15 0.73,-0.54 h 1.23 v -0.18 z m 0,-3.1 h -1.27 l -0.77,0.54 0.08,0.15 0.73,-0.51 h 1.23 z m 0,-6.2 h -1.28 l -0.77,0.71 0.1,0.14 0.73,-0.67 h 1.23 v -0.18 z m 0,1.55 h -1.28 l -0.77,0.7 0.1,0.14 0.73,-0.66 h 1.23 v -0.18 z m 0,1.55 h -1.28 l -0.83,0.61 0.08,0.15 0.79,-0.58 h 1.23 v -0.18 z m 0,1.55 h -1.28 l -0.83,0.61 0.08,0.15 0.79,-0.59 h 1.23 v -0.18 z" id="path23"/>
    </g>
    <g id="g46">
      <path class="cls-1" d="m 367.18,176.23 h 5.62 v 41.81 h -5.62 z" id="path24"/>
      <path class="cls-1" d="m 382.95,189.38 h 5.26 v 2.75 c 1.97,-2.03 4.84,-3.7 8.66,-3.7 5.5,0 10.81,3.7 10.81,10.69 v 18.94 H 402.3 V 200.5 c 0,-4.36 -3.11,-6.93 -6.69,-6.93 -3.05,0 -5.44,1.49 -7.29,3.82 v 20.67 h -5.38 v -28.67 z" id="path25"/>
      <path class="cls-1" d="m 418.25,211 v -16.85 h -5.2 v -4.78 h 5.56 v -8.48 l 5.02,-2.99 v 11.47 h 6.99 v 4.78 h -6.99 v 16.01 c 0,2.63 1.43,3.94 4.3,3.94 0.96,0 2.03,-0.18 2.69,-0.42 v 4.66 c -0.48,0.18 -2.39,0.6 -4.3,0.6 -4.9,0 -8.06,-2.75 -8.06,-7.94 z" id="path26"/>
      <path class="cls-1" d="m 435.69,203.59 c 0,-9.2 6.51,-15.17 14.1,-15.17 8.9,0 14.04,6.45 14.04,15.47 0,0.72 -0.06,1.55 -0.12,1.91 h -22.22 c 0.24,4.78 4.12,8.18 8.96,8.18 4.84,0 8.12,-1.31 12.01,-4.36 v 5.32 c -2.45,1.91 -6.15,4 -12.01,4 -8,0 -14.75,-5.2 -14.75,-15.35 z m 22.28,-2.45 c -0.12,-4.54 -2.99,-7.77 -8.18,-7.77 -4.72,0 -7.89,3.64 -8.12,7.77 h 16.31 z" id="path27"/>
      <path class="cls-1" d="m 470.99,189.38 h 5.26 v 4.96 c 1.49,-3.82 5.02,-5.91 8.78,-5.91 0.9,0 1.55,0.12 1.97,0.18 v 5.97 c -0.84,-0.12 -1.79,-0.18 -2.57,-0.18 -4.72,0 -7.29,3.11 -8.06,5.85 v 17.8 h -5.38 z" id="path28"/>
      <path class="cls-1" d="m 493.57,189.38 h 5.26 v 2.75 c 1.97,-2.03 4.84,-3.7 8.66,-3.7 5.5,0 10.81,3.7 10.81,10.69 v 18.94 h -5.38 V 200.5 c 0,-4.36 -3.11,-6.93 -6.69,-6.93 -3.05,0 -5.44,1.49 -7.29,3.82 v 20.67 h -5.38 v -28.67 z" id="path29"/>
      <path class="cls-1" d="m 525.47,208.91 c 0,-5.91 5.2,-9.32 11.05,-9.32 3.23,0 6.27,0.78 8.12,1.79 v -3.05 c 0,-2.81 -2.15,-5.14 -6.57,-5.14 -4.18,0 -8.3,1.61 -10.93,3.29 v -5.44 c 3.11,-1.55 6.63,-2.63 10.93,-2.63 8.54,0 11.95,4.9 11.95,10.51 v 19.12 h -5.2 v -2.33 c -1.73,1.67 -4.66,3.23 -8.3,3.23 -6.45,0 -11.05,-3.64 -11.05,-10.04 z m 19.17,2.57 v -5.26 c -1.08,-0.84 -3.88,-2.15 -7.17,-2.15 -3.64,0 -6.39,1.73 -6.39,4.84 0,3.34 2.75,5.44 6.39,5.44 3.4,0 6.09,-1.79 7.17,-2.87 z" id="path30"/>
      <path class="cls-1" d="m 559.99,211 v -16.85 h -5.2 v -4.78 h 5.56 v -8.48 l 5.02,-2.99 v 11.47 h 6.99 v 4.78 h -6.99 v 16.01 c 0,2.63 1.43,3.94 4.3,3.94 0.96,0 2.03,-0.18 2.69,-0.42 v 4.66 c -0.48,0.18 -2.39,0.6 -4.3,0.6 -4.9,0 -8.06,-2.75 -8.06,-7.94 z" id="path31"/>
      <path class="cls-1" d="m 578.63,178.44 c 0,-2.27 1.67,-4 3.88,-4 2.21,0 3.94,1.73 3.94,4 0,2.27 -1.67,3.94 -3.94,3.94 -2.27,0 -3.88,-1.73 -3.88,-3.94 z m 1.25,10.93 h 5.38 v 28.67 h -5.38 z" id="path32"/>
      <path class="cls-1" d="m 592.42,203.65 c 0,-8.72 6.39,-15.23 15.11,-15.23 8.72,0 15.11,6.51 15.11,15.23 0,8.72 -6.39,15.29 -15.11,15.29 -8.72,0 -15.11,-6.51 -15.11,-15.29 z m 24.55,0 c 0,-6.63 -4.54,-10.16 -9.44,-10.16 -4.9,0 -9.44,3.53 -9.44,10.16 0,6.63 4.54,10.21 9.44,10.21 4.9,0 9.44,-3.53 9.44,-10.21 z" id="path33"/>
      <path class="cls-1" d="m 629.81,189.38 h 5.26 v 2.75 c 1.97,-2.03 4.84,-3.7 8.66,-3.7 5.5,0 10.81,3.7 10.81,10.69 v 18.94 h -5.38 V 200.5 c 0,-4.36 -3.11,-6.93 -6.69,-6.93 -3.05,0 -5.44,1.49 -7.29,3.82 v 20.67 h -5.38 v -28.67 z" id="path34"/>
      <path class="cls-1" d="m 661.71,208.91 c 0,-5.91 5.2,-9.32 11.05,-9.32 3.23,0 6.27,0.78 8.12,1.79 v -3.05 c 0,-2.81 -2.15,-5.14 -6.57,-5.14 -4.18,0 -8.3,1.61 -10.93,3.29 v -5.44 c 3.11,-1.55 6.63,-2.63 10.93,-2.63 8.54,0 11.95,4.9 11.95,10.51 v 19.12 h -5.2 v -2.33 c -1.73,1.67 -4.66,3.23 -8.3,3.23 -6.45,0 -11.05,-3.64 -11.05,-10.04 z m 19.17,2.57 v -5.26 c -1.07,-0.84 -3.88,-2.15 -7.17,-2.15 -3.64,0 -6.39,1.73 -6.39,4.84 0,3.34 2.75,5.44 6.39,5.44 3.4,0 6.09,-1.79 7.17,-2.87 z" id="path35"/>
      <path class="cls-1" d="M 694.62,174.74 H 700 v 43.31 h -5.38 z" id="path36"/>
      <path class="cls-1" d="m 366.88,258.51 v -27.6 h 5.62 v 27.42 c 0,6.27 3.88,9.92 9.74,9.92 5.86,0 9.68,-3.64 9.68,-9.92 v -27.42 h 5.61 v 27.6 c 0,9.98 -6.69,15.11 -15.29,15.11 -8.6,0 -15.35,-5.14 -15.35,-15.11 z" id="path37"/>
      <path class="cls-1" d="m 407.38,244.05 h 5.26 v 2.75 c 1.97,-2.03 4.84,-3.7 8.66,-3.7 5.5,0 10.81,3.7 10.81,10.69 v 18.94 h -5.38 v -17.56 c 0,-4.36 -3.11,-6.93 -6.69,-6.93 -3.05,0 -5.44,1.49 -7.29,3.82 v 20.67 h -5.38 v -28.67 z" id="path38"/>
      <path class="cls-1" d="m 439.87,233.12 c 0,-2.27 1.67,-4 3.88,-4 2.21,0 3.94,1.73 3.94,4 0,2.27 -1.67,3.94 -3.94,3.94 -2.27,0 -3.88,-1.73 -3.88,-3.94 z m 1.25,10.93 h 5.38 v 28.67 h -5.38 z" id="path39"/>
      <path class="cls-1" d="m 451.88,244.05 h 6.15 l 8.66,22.22 8.72,-22.22 h 5.85 l -11.77,28.67 h -5.67 l -11.95,-28.67 z" id="path40"/>
      <path class="cls-1" d="m 483.66,258.27 c 0,-9.2 6.51,-15.17 14.1,-15.17 8.9,0 14.04,6.45 14.04,15.47 0,0.72 -0.06,1.55 -0.12,1.91 h -22.22 c 0.24,4.78 4.12,8.18 8.96,8.18 4.84,0 8.12,-1.31 12.01,-4.36 v 5.32 c -2.45,1.91 -6.15,4 -12.01,4 -8,0 -14.75,-5.2 -14.75,-15.35 z m 22.28,-2.45 c -0.12,-4.54 -2.99,-7.77 -8.18,-7.77 -4.72,0 -7.88,3.64 -8.12,7.77 h 16.31 z" id="path41"/>
      <path class="cls-1" d="m 518.96,244.05 h 5.26 v 4.96 c 1.49,-3.82 5.02,-5.91 8.78,-5.91 0.9,0 1.55,0.12 1.97,0.18 v 5.97 c -0.84,-0.12 -1.79,-0.18 -2.57,-0.18 -4.72,0 -7.29,3.11 -8.06,5.85 v 17.8 h -5.38 z" id="path42"/>
      <path class="cls-1" d="m 539.8,271.29 v -5.2 c 3.29,1.73 6.69,2.75 9.74,2.75 3.88,0 6.03,-1.43 6.03,-4.12 0,-1.85 -1.37,-3.11 -3.76,-3.64 l -4.9,-1.07 c -4.6,-1.02 -7.17,-3.88 -7.17,-8.18 0,-5.26 4.54,-8.72 10.81,-8.72 3.94,0 6.87,0.96 9.14,1.97 v 5.26 c -2.99,-1.55 -6.33,-2.45 -9.14,-2.45 -3.76,0 -5.44,1.73 -5.44,3.94 0,1.49 1.08,2.87 3.46,3.4 l 4.54,1.01 c 5.2,1.13 7.94,4.12 7.94,8.48 0,5.73 -5.14,8.9 -11.53,8.9 -3.58,0 -7.35,-1.08 -9.74,-2.33 z" id="path43"/>
      <path class="cls-1" d="m 567.34,233.12 c 0,-2.27 1.67,-4 3.88,-4 2.21,0 3.94,1.73 3.94,4 0,2.27 -1.67,3.94 -3.94,3.94 -2.27,0 -3.88,-1.73 -3.88,-3.94 z m 1.25,10.93 h 5.38 v 28.67 h -5.38 z" id="path44"/>
      <path class="cls-1" d="m 585.14,265.68 v -16.85 h -5.2 v -4.78 h 5.55 v -8.48 l 5.02,-2.99 v 11.47 h 6.99 v 4.78 h -6.99 v 16.01 c 0,2.63 1.43,3.94 4.3,3.94 0.96,0 2.03,-0.18 2.69,-0.42 v 4.66 c -0.48,0.18 -2.39,0.6 -4.3,0.6 -4.9,0 -8.06,-2.75 -8.06,-7.94 z" id="path45"/>
      <path class="cls-1" d="M 613.45,269.56 600.79,244.05 H 607 l 9.26,19.77 8.9,-19.77 h 6.33 l -19.18,40.68 h -6.33 z" id="path46"/>
    </g>
  </g>
</svg>