<?xml version="1.0" encoding="utf-8"?>
<!-- Generator: Adobe Illustrator 28.3.0, SVG Export Plug-In . SVG Version: 6.00 Build 0)  -->
<svg version="1.1" id="Layer_1" xmlns="http://www.w3.org/2000/svg" xmlns:xlink="http://www.w3.org/1999/xlink" x="0px" y="0px"
	 viewBox="0 0 360 360" style="enable-background:new 0 0 360 360;" xml:space="preserve">
<g>
	<g>
		<path d="M40.84,222.2c0.16-1.07,0.42-2.9,0.11-3.98c-0.72-2.53-4.71-5.42-9-4.2c-6.43,1.84-6.23,7.91-5.76,9.54
			c0.85,2.96,5.27,4.62,7.05,4.2c1.04-0.25,2.51-0.62,4.27-1.13l12.56-3.6c0.18,0.64,2,3.93,2.64,4.67
			c-1.54,0.44-3.71,0.83-7.01,1.77l-12.99,3.72c-3.73,1.07-3.97,1.83-2.91,5.56l-0.69,0.2c-1.15-4.03-2.34-6.57-2.9-8.5
			c-0.15-0.51-0.04-0.78,0.48-0.92c0.6-0.17,1.39-0.35,2-0.48c-1.64-2.17-4.73-5.51-5.43-7.96c-0.54-1.89-1.55-9.62,5.87-11.75
			c1.8-0.52,4.67-0.22,7.21,1.18c2.04,1.13,5.39,5.55,6.52,9.5c0.64,2.23,0.73,3.04,0.87,3.51L40.84,222.2z"/>
		<path d="M35.7,182.17c1.89,3.54,3.78,7.12,4.03,10.77c0.2,3.07-2.01,10.06-9.58,10.56c-3.16,0.21-6.69-1.16-8.97-4.46l-0.08,0.1
			l0.63,6.8l-1.9-2.96c0-0.67,0.04-1.43,0.03-2.28c-0.01-0.85-0.03-1.79-0.09-2.68c-0.09-1.38-0.39-3.1-0.53-3.9l0.7-0.18
			c1.19,2.47,4.56,4.66,8.25,4.41c8.99-0.6,9.22-7.86,9.12-9.37c-0.18-2.67-3.49-6.7-6.91-6.47L23.28,183
			c-3.6,0.24-4,0.94-3.76,4.68l-0.71,0.05c-0.67-6.71-1-8.34-1.03-8.78c-0.03-0.4,0.08-0.85,0.39-0.88c1.02-0.07,2.82,0.08,8.7-0.31
			c6.99-0.46,9.7-0.74,11.33-1.02c0.04,0.62,0.66,3.85,1.06,5.2L35.7,182.17z"/>
		<path d="M41.5,146.29c0.07,2.08,0.26,5.3,0.13,6.23c-0.24,1.77-0.48,2.5-1.57,3.21l-10.69,7.04c0.42-3.05,0.06-8.28-3.97-8.83
			c-1.72-0.24-3.39,1.07-3.64,2.88c-0.41,2.96,2.92,5.94,5.32,6.81c0.35,0.09,5.61,1.09,7.96,1.41l4.33,0.6
			c-0.04,0.94-0.14,3.94-0.03,5.49c-4.14-1.02-12.76-2.2-15.81-2.62c-3.58-0.49-4.11,0.11-4.64,3.96l-0.71-0.1
			c0.57-4.15,0.51-6.95,0.78-8.94c0.07-0.53,0.28-0.73,0.81-0.65c0.57,0.08,1.61,0.4,3.07,0.6c-2.22-3.82-3.08-7.72-2.8-9.79
			c0.14-1.02,1.21-5.24,4.93-4.73c3.18,0.44,4.39,3.12,5.03,7.67l8.5-5.81c1.94-1.31,2.09-2.46,2.37-4.49L41.5,146.29z"/>
		<path d="M19.6,132.51l9.25-9.86c4.36-4.64,8.71-4.81,11.71-3.79c1.98,0.68,4.16,2.17,4.71,4.15c2.05,7.53,1.3,11.94,0.83,13.34
			c-0.78,2.28-5.38,9.57-12.48,7.15c-5.66-1.93-6.19-4.79-6.57-10.72l0.54-0.05c0.26,1.88,1.78,4.05,5.62,5.36
			c7.69,2.62,11.55-6.1,12.03-7.5c0.82-2.41-1.35-5.31-4.77-6.48c-7.1-2.42-11.92,4.56-19.95,14.69L19.6,132.51z"/>
		<path d="M59.61,100.44c-0.44,3.99-0.91,8.01-2.77,11.16c-1.57,2.65-7.34,7.16-13.87,3.3c-2.73-1.61-4.86-4.74-4.88-8.74
			l-0.12,0.03l-3.32,5.96l0.11-3.51c0.38-0.55,0.84-1.16,1.31-1.87c0.47-0.71,0.98-1.49,1.44-2.26c0.7-1.19,1.44-2.78,1.77-3.51
			l0.68,0.25c-0.41,2.71,1.12,6.42,4.31,8.3c7.75,4.59,12.05-1.27,12.82-2.57c1.36-2.3,0.91-7.49-2.04-9.24l-6.14-3.63
			c-3.11-1.84-3.83-1.49-5.74,1.73l-0.61-0.36c3.24-5.91,3.89-7.44,4.11-7.83c0.2-0.35,0.55-0.66,0.82-0.5
			c0.88,0.52,2.28,1.66,7.35,4.66c6.03,3.57,8.41,4.87,9.92,5.56c-0.32,0.54-1.63,3.54-2.07,4.89L59.61,100.44z"/>
		<path d="M73.28,70.42c0.24-0.27,0.48-0.41,0.58-0.32c0.13,0.12,0.26,0.71,0.35,1.21l0.15,1.1l-3.45,4.64
			c-0.12-0.47-0.22-1.09-0.32-1.18c-0.23-0.21-0.38-0.04-0.5,0.09c-2.06,2.29-5.71,6.62-6.42,7.54c4.13,2.28,8.83,1.52,12.74-2.83
			c1.67-1.86,2.65-3.62,3.21-5.03l0.64,0.22c-1.49,4.6-2.28,7.07-4.63,9.69c-4.71,5.24-11.11,6.15-16.05,1.71
			c-2.29-2.06-3.56-5.72-3-8.27c0.15-0.7,2.04-6.27,6.03-10.71c1.01-1.13,4.81-4.49,6.11-3.33c0.53,0.48,0.33,1.97,0.08,3.31
			l-0.54,3.41c-0.5-1.11-0.97-1.65-1.17-1.83c-1.66-1.49-4.38,0.74-5.34,1.8c-1.34,1.49-2.8,3.84-2.72,5.23
			c0.14,2.58,1.55,4.21,3.28,5.76L73.28,70.42z"/>
		<path d="M109.25,54.46c-2.22,3.34-4.48,6.71-7.57,8.66c-2.61,1.64-9.81,3-13.84-3.42c-1.69-2.68-2.15-6.44-0.34-10.01l-0.12-0.03
			l-5.68,3.78l1.7-3.07c0.59-0.32,1.28-0.65,2.02-1.06c0.74-0.41,1.56-0.87,2.31-1.35c1.17-0.74,2.55-1.81,3.18-2.31l0.49,0.53
			c-1.61,2.22-1.94,6.22,0.03,9.36c4.79,7.63,11.29,4.39,12.58,3.58c2.27-1.42,4.24-6.25,2.41-9.15l-3.8-6.04
			c-1.92-3.06-2.73-3.08-5.9-1.09l-0.38-0.6c5.58-3.77,6.86-4.84,7.24-5.08c0.34-0.21,0.79-0.34,0.96-0.07
			c0.55,0.87,1.27,2.52,4.4,7.51c3.73,5.93,5.25,8.19,6.28,9.49c-0.53,0.33-3.07,2.4-4.08,3.4L109.25,54.46z"/>
		<path d="M125.25,49.81c-1.01,0.36-4.07,1.86-4.89,2.49c-1.12-4.24-2.69-9.74-3.53-12.14l-1.46-4.12l-2.55-1.6
			c-0.54-0.33-0.79-0.48-2.17,0.01l-0.24-0.67c5.69-2.25,7.17-3.01,7.59-3.15c0.46-0.16,0.75-0.03,0.88,0.35
			c0.15,0.42,0.34,1.11,0.7,2.26c5.46,4.74,11.59,7.11,19.9,9.19c-1.08-3.07-2.9-8.62-4.23-12.36c-1.2-3.41-1.98-3.6-5.52-2.36
			l-0.24-0.67c6.27-2.45,7.76-3.21,8.18-3.36c0.46-0.16,0.75-0.03,0.88,0.35c1.62,4.58,3.16,9.34,4.85,14.13l1.65,4.67
			c-0.97,0.34-3.82,1.77-4.6,2.38l-0.79-2.23c-3.49,1.23-11.91-0.1-18.05-3.41L125.25,49.81z"/>
		<path d="M143.64,22.97c6.72-1.44,8.17-1.93,8.61-2.01c0.53-0.1,0.91,0.29,1.01,0.81c0.8,4.43,1.56,9.37,2.46,14.38
			c0.53,2.94,1.12,3.92,4.15,3.37l1.76-0.32l0.13,0.7c-0.89,0.34-4.63,1.47-6.03,1.73c-3.78,0.68-4.3-0.45-4.65-2.42
			c-0.48-2.68-1.39-8.45-2.1-12.36c-0.64-3.56-1.38-3.88-5.2-3.18L143.64,22.97z"/>
		<path d="M173.85,36.03l1.15-2.15c2.3-4.3,4.45-9.13,4.37-11c-0.06-1.29-0.78-2.47-2.07-2.41c-0.67,0.03-1.33,0.24-1.81,0.35
			l-0.18-0.97c2.69-0.7,4.81-1.2,6.28-1.27c0.85-0.04,1.62,0.37,1.69,1.8c0.13,2.9-7.96,16.44-9.05,18.9
			c-1.33,0.19-2.75,0.48-4.02,0.9c-5.38-11.19-8.5-18.99-10.24-18.91c-0.62,0.03-1.33,0.28-1.68,0.34l-0.18-0.97l1.94-0.45
			c1.77-0.44,3.22-0.77,4.56-0.83c1.16-0.05,1.68,0.64,3.31,4.09L173.85,36.03z"/>
		<path d="M209.34,30.4c0.35,0.05,0.61,0.17,0.59,0.3c-0.02,0.18-0.44,0.62-0.8,0.98l-0.82,0.75l-5.78-0.21
			c0.32-0.36,0.78-0.8,0.8-0.93c0.04-0.31-0.18-0.34-0.36-0.36c-3.05-0.4-8.69-0.95-9.85-1.01c0.47,4.69,3.75,8.14,9.55,8.89
			c2.48,0.32,4.48,0.13,5.96-0.21l0.19,0.65c-4.63,1.38-7.12,2.13-10.61,1.68c-6.99-0.91-11.37-5.66-10.51-12.25
			c0.4-3.05,2.69-6.17,5.12-7.16c0.67-0.27,6.32-1.88,12.24-1.11c1.5,0.2,6.43,1.42,6.2,3.15c-0.09,0.71-1.44,1.39-2.68,1.95
			l-3.12,1.48c0.63-1.04,0.81-1.74,0.85-2c0.29-2.21-3.09-3.19-4.51-3.38c-1.99-0.26-4.75-0.12-5.85,0.72
			c-2.05,1.58-2.59,3.67-2.89,5.97L209.34,30.4z"/>
		<path d="M236.55,49.91c-2.06-0.29-5.27-0.66-6.16-0.94c-1.7-0.54-2.38-0.9-2.89-2.1l-5.09-11.75c2.93,0.94,8.14,1.48,9.38-2.38
			c0.53-1.66-0.47-3.52-2.21-4.08c-2.85-0.91-6.35,1.85-7.63,4.07c-0.15,0.33-2.04,5.34-2.76,7.59l-1.33,4.16
			c-0.92-0.2-3.86-0.81-5.4-0.98c1.72-3.9,4.37-12.18,5.31-15.12c1.1-3.44,0.6-4.07-3.1-5.25l0.22-0.68
			c3.99,1.28,6.76,1.7,8.67,2.31c0.51,0.16,0.67,0.4,0.5,0.91c-0.18,0.55-0.67,1.52-1.12,2.92c4.14-1.53,8.13-1.7,10.13-1.07
			c0.98,0.31,4.95,2.1,3.81,5.67c-0.98,3.06-3.84,3.78-8.42,3.63l4.26,9.37c0.96,2.13,2.06,2.49,4.02,3.11L236.55,49.91z"/>
		<path d="M240.48,47.42c0.86,3.47,4,6.12,6.77,7.56c1.46,0.76,3.98,0.37,5.02-1.61c1.22-2.33-0.81-3.75-2.9-5.14L244.42,45
			c-2.84-1.89-3.96-4.18-2.68-6.63c2.64-5.06,11.04-2.34,14.44-0.56c1.7,0.89,6.97,4,5.98,5.89c-0.33,0.63-1.05,0.66-2.95,0.82
			l-3.12,0.28c0.3-0.19,0.89-0.84,1.14-1.32c0.95-1.82-0.09-3.67-2.9-5.14c-1.38-0.72-4.07-1.37-4.53-1.26
			c-0.58,0.15-2.02,0.5-2.91,2.2c-0.76,1.46-0.34,2.49,2.63,4.5l5.01,3.32c2.88,1.91,4.68,3.66,3.32,6.36
			c-1.16,2.31-3.55,3.23-4.93,3.17c-5.62-0.22-7.38-0.43-9.87-1.73c-4.71-2.46-6.18-3.88-8.12-6.81L240.48,47.42z"/>
		<path d="M265.71,44.04c5.75,3.77,7.12,4.45,7.48,4.71c0.44,0.31,0.44,0.85,0.13,1.29c-2.59,3.69-5.57,7.7-8.49,11.86
			c-1.72,2.45-2,3.55,0.51,5.32l1.46,1.03l-0.41,0.58c-0.87-0.39-4.3-2.26-5.47-3.08c-3.14-2.2-2.7-3.37-1.55-5.01
			c1.56-2.23,5.03-6.93,7.31-10.18c2.08-2.96,1.79-3.71-1.39-5.94L265.71,44.04z"/>
		<path d="M281.94,54.93c0.54,0.73,1.38,1.73,2.29,2.73c0.9,1,1.84,1.96,2.6,2.64c2.52,2.27,6.27,5.3,8.96,7.12l-0.38,0.62
			c-2.76-1.47-5.85-3.17-7.98-4.67c-3.05,3.25-6.08,6.41-9.04,9.69c-2,2.22-2.42,3.28-0.13,5.34l1.33,1.19l-0.48,0.53
			c-0.81-0.49-4-2.76-5.06-3.72c-2.85-2.57-2.27-3.67-0.93-5.16c1.82-2.02,5.83-6.27,8.49-9.22l0.78-0.86l3.72,1.61l0.18-0.2
			c-2.75-1.88-4.58-3.17-7.63-5.92c-1.82-1.64-2.21-2.35-1.49-3.15L281.94,54.93z"/>
		<path d="M293.82,89.6c5.12-0.39,9.92-1.04,11.86-2.61c1.67-1.34,1.28-2.68,0.75-3.35c-0.36-0.45-0.84-0.69-1.19-1.05l0.68-0.72
			c2.13,1.95,4.73,4.32,5.04,4.71c0.64,0.8,1.39,1.8,0.14,2.81c-1.91,1.54-8.59,1.98-16.6,2.06c-1.3,0.02-1.96,0.2-2.55,0.67
			c-1.46,1.17-3.24,2.66-5.05,4.11c-1.3-1.19-2.76-2.36-4.3-3.36c1.9-1.41,4.62-3.37,5.59-4.15c0.63-0.5,0.99-0.97,1.33-1.76
			l3.1-6.9c3.22-7.11,3.76-8.92,3.12-9.72c-0.42-0.52-0.82-0.66-1.1-0.94l0.68-0.72c1.99,1.55,3.87,3.24,4.57,4.11
			c0.7,0.87,0.73,1.41,0.39,2.2L293.82,89.6z"/>
	</g>
	<g>
		<path d="M223.01,336.22c-1.02,0.33-4.11,1.78-4.95,2.38c-1.03-4.26-2.47-9.8-3.27-12.21l-1.37-4.15l-2.52-1.66
			c-0.54-0.34-0.77-0.5-2.17-0.04l-0.22-0.68c5.73-2.12,7.23-2.85,7.66-2.99c0.47-0.15,0.75-0.01,0.87,0.37
			c0.14,0.42,0.32,1.12,0.65,2.27c5.36,4.86,11.44,7.36,19.7,9.62c-1.02-3.09-2.72-8.69-3.96-12.46c-1.13-3.43-1.91-3.65-5.46-2.47
			l-0.22-0.68c6.33-2.32,7.83-3.05,8.25-3.19c0.47-0.15,0.75-0.01,0.87,0.37c1.52,4.62,2.96,9.41,4.55,14.24l1.55,4.7
			c-0.97,0.32-3.86,1.69-4.65,2.28l-0.74-2.25c-3.52,1.16-11.9-0.35-17.97-3.8L223.01,336.22z"/>
		<path d="M262.02,320.05c-7.97,4.74-13.24,1.12-15.36-2.44c-4.67-7.86,2.44-14.58,7.12-17.36c5.87-3.49,12.03-2.64,15.2,2.69
			C272.85,309.46,268.46,316.22,262.02,320.05z M264.25,317.16c1.65-0.98,3.98-5.17,0.84-10.46c-2.17-3.64-7.9-6.92-12.85-3.98
			c-2.34,1.39-4.67,5.58-1.53,10.87C253.42,318.15,259.04,320.26,264.25,317.16z"/>
		<path d="M299.6,289.46c-1.28,1.64-3.21,4.23-3.91,4.86c-1.32,1.2-1.97,1.61-3.26,1.45l-12.72-1.49c2.28-2.07,5.37-6.3,2.64-9.31
			c-1.17-1.29-3.28-1.36-4.64-0.14c-2.22,2-1.58,6.43-0.3,8.64c0.21,0.29,3.6,4.44,5.19,6.2l2.93,3.24
			c-0.64,0.7-2.64,2.93-3.56,4.18c-2.51-3.44-8.35-9.89-10.42-12.17c-2.42-2.68-3.22-2.56-6.1,0.04l-0.48-0.53
			c3.11-2.81,4.86-5,6.35-6.35c0.4-0.36,0.68-0.38,1.04,0.02c0.39,0.43,0.98,1.34,1.96,2.44c0.75-4.35,2.6-7.89,4.16-9.3
			c0.76-0.69,4.3-3.23,6.81-0.45c2.15,2.38,1.35,5.22-1.09,9.1l10.25,1.02c2.32,0.24,3.19-0.54,4.71-1.91L299.6,289.46z"/>
		<path d="M287.24,272.22c0.69-0.59,1.63-1.5,2.56-2.48c0.93-0.97,1.82-1.97,2.46-2.78c2.09-2.67,4.84-6.63,6.47-9.44l0.64,0.33
			c-1.27,2.86-2.75,6.06-4.1,8.29c3.46,2.82,6.82,5.61,10.3,8.33c2.36,1.84,3.45,2.18,5.34-0.24l1.1-1.41l0.56,0.44
			c-0.44,0.85-2.47,4.18-3.35,5.31c-2.36,3.02-3.5,2.53-5.08,1.29c-2.15-1.67-6.67-5.38-9.8-7.82l-0.91-0.71l1.34-3.82l-0.21-0.17
			c-1.68,2.88-2.84,4.8-5.37,8.03c-1.51,1.93-2.19,2.37-3.03,1.71L287.24,272.22z"/>
		<path d="M294.27,256.6c2.72-5.98,3.12-7.79,3.39-8.3c0.21-0.39,0.57-0.51,1.2-0.17c0.83,0.44,2.21,1.27,3.27,1.83l4.25,2.26
			c-0.62-2.25-1.01-6.85,0.89-10.43c3.01-5.67,8.71-4.72,11.75-3.11c8.08,4.28,8.75,13.88,6.9,21.83l-0.57-0.15
			c0.61-6.39-0.63-12.7-7.29-16.24c-4.49-2.38-8.34-1.79-10.15,1.63c-0.92,1.73-0.85,3.99-0.37,5.36c0.2,0.66,1.73,2.63,3.11,3.37
			l10.48,5.56c-0.56,1.06-1.61,3.89-1.81,4.94c-1.36-0.87-3.01-1.85-7.22-4.08l-10.05-5.33c-5-2.65-5.19-2.3-7.14,1.37L294.27,256.6
			z"/>
		<path d="M335.68,226.21c-0.41,1.46-0.71,3.88-0.67,5.05c-4.77-0.17-12.51,0.21-17.59,0.33c-2.19,0.04-2.79,0.7-2.98,1.39
			c-0.16,0.56-0.13,1.12-0.16,1.58l-0.98-0.13c0.2-2.86,0.53-5.55,0.91-6.92c0.31-1.12,1.26-1.04,4.04-1.05
			c-1.45-3.27-1.92-6.56-1.12-9.43c0.43-1.55,1.05-2.25,5.58-2.24l13.09,0.04c-4.31-3.79-7.85-7.05-11.46-8.06
			c-1.55-0.43-2.59-0.03-2.93,1.22c-0.18,0.64-0.19,1.34-0.23,1.83l-0.98-0.13c0.17-2.78,0.22-4.43,0.72-6.23
			c0.32-1.16,1.03-1.52,2.27-1.17c3.14,0.87,13.21,11.41,15.53,13.04c-0.36,1.29-0.49,3.1-0.5,4.45
			c-18.67-0.11-19.3-0.19-20.02,2.38c-0.66,2.36,2.3,3.7,3.16,3.94c0.69,0.19,1.38,0.2,3.7,0.2L335.68,226.21z"/>
		<path d="M331.67,177.31c0.02-0.36,0.13-0.62,0.26-0.61c0.18,0.01,0.65,0.4,1.03,0.73l0.8,0.76l0.19,5.78
			c-0.38-0.29-0.85-0.72-0.98-0.73c-0.31-0.02-0.33,0.2-0.34,0.38c-0.18,3.07-0.35,8.74-0.33,9.9c4.65-0.79,7.86-4.31,8.21-10.14
			c0.15-2.49-0.18-4.48-0.62-5.94l0.64-0.23c1.69,4.53,2.62,6.95,2.4,10.47c-0.43,7.04-4.87,11.73-11.5,11.33
			c-3.07-0.19-6.34-2.26-7.5-4.61c-0.32-0.64-2.31-6.17-1.95-12.14c0.09-1.51,0.97-6.51,2.71-6.4c0.71,0.04,1.48,1.34,2.12,2.54
			l1.7,3.01c-1.08-0.56-1.79-0.69-2.06-0.7c-2.23-0.13-2.97,3.31-3.06,4.73c-0.12,2,0.2,4.75,1.12,5.79
			c1.71,1.94,3.84,2.33,6.15,2.47L331.67,177.31z"/>
		<path d="M337.53,168.02c2.39-2.65,2.82-6.75,2.46-9.85c-0.19-1.64-1.93-3.5-4.14-3.25c-2.62,0.3-2.65,2.77-2.63,5.29l0.1,5.92
			c0.03,3.41-1.24,5.62-3.99,5.94c-5.67,0.65-8.13-7.82-8.57-11.63c-0.22-1.91-0.61-8.01,1.52-8.26c0.71-0.08,1.13,0.5,2.34,1.98
			l1.99,2.42c-0.33-0.14-1.2-0.27-1.73-0.21c-2.04,0.23-2.99,2.14-2.63,5.29c0.18,1.55,1.15,4.13,1.5,4.45
			c0.45,0.4,1.55,1.39,3.46,1.17c1.64-0.19,2.25-1.11,2.24-4.7l-0.06-6.01c-0.04-3.45,0.4-5.93,3.4-6.32
			c2.56-0.34,4.67,1.13,5.38,2.3c2.97,4.78,3.78,6.35,4.1,9.14c0.61,5.27,0.25,7.29-1.08,10.54L337.53,168.02z"/>
		<path d="M318.61,147.36c-0.07-0.91-0.25-2.2-0.48-3.52c-0.23-1.32-0.51-2.64-0.79-3.62c-0.92-3.26-2.48-7.83-3.78-10.8l0.65-0.32
			c1.55,2.71,3.25,5.8,4.25,8.21c4.32-1.12,8.56-2.18,12.81-3.37c2.88-0.81,3.8-1.49,2.96-4.45l-0.48-1.72l0.69-0.19
			c0.43,0.85,1.91,4.47,2.29,5.84c1.04,3.69-0.04,4.32-1.97,4.86c-2.62,0.74-8.28,2.19-12.1,3.27l-1.12,0.31l-2.28-3.34l-0.26,0.07
			c1.32,3.06,2.19,5.13,3.3,9.08c0.66,2.36,0.61,3.16-0.42,3.45L318.61,147.36z"/>
	</g>
	<path d="M182.6,120.56l-7.96,14.86l-16.45,1.59c0,0,15.92-23.35,3.18-29.71l-13.79,13.26l-32.37,2.65c0,0-9.02,14.86-35.02,15.92
		l-6.37,7.96c0,0,1.59-1.59,6.9-1.59c5.3,0,36.61-1.59,39.26-4.78c0,0-2.65,8.49-9.55,11.14c0,0-35.02,0-36.61,1.59
		c-1.59,1.59-8.49,5.83-8.49,5.83s13.26-34.48,22.28-33.43c9.02,1.06,15.39,5.31,32.37-15.92c0,0,24.41,1.59,29.18-1.06
		c4.78-2.65,15.39-9.02,16.98-14.33c0,0,10.08,2.65,3.18,28.65c0,0,5.84,1.06,7.43,0.53C178.36,123.21,182.6,120.56,182.6,120.56z"
		/>
	<path d="M240.44,100.93c0,0-5.31,17.51-7.96,18.04c-2.65,0.53-32.36,0-33.96,2.65c-1.59,2.65-13.26,28.65-2.12,58.89
		c11.14,30.24,28.65,93.92-20.17,160.24c0,0-80.11,10.08-136.36-80.65l73.22-52l75.34-20.16c0,0-11.67-38.74,12.74-78l32.89-2.12
		C234.07,107.82,238.31,101.99,240.44,100.93z M48.36,262.23c35.02,48.81,65.8,56.77,65.8,56.77c1.59-10.08-3.19-99.22-3.19-99.22
		C95.05,229.86,48.36,262.23,48.36,262.23z M118.4,224.02l4.78,98.16c0,0,26,13.27,50.4,10.61c0,0,20.69-27.59,25.2-53.85
		L118.4,224.02z M119.99,215l80.65,55.71c0,0,7.43-44.04-9.55-75.87L119.99,215z"/>
	<path d="M113.1,201.74c0,0,9.02-23.35,7.43-31.31c-1.59-7.96-10.08-17.51-20.69-15.39c-10.62,2.12-24.41,12.21-24.41,12.21
		l-4.24,8.49l6.36-4.24l-3.71,8.49c0,0,6.9-3.72,10.61-10.08c3.72-6.37,8.49-9.55,18.05-6.37c9.55,3.18,15.38,11.14,14.32,18.04
		C115.75,188.47,113.1,201.74,113.1,201.74z"/>
	<path d="M261.65,141.25c0,0-3.71,14.86-7.96,14.86c-4.24,0-40.85-1.59-40.85-1.59s-7.96,1.59-9.02,4.24c0,0,2.66-13.26,11.14-13.8
		c8.49-0.53,27.06,1.59,31.84,1.59C251.58,146.56,256.88,149.74,261.65,141.25z"/>
	<path d="M271.08,207.89c0,0-6.79,13.6-10.33,12.69c-3.54-0.91-33.73-10.28-33.73-10.28s-7.04-0.16-8.59,2.18
		c0,0,5.51-12.28,12.73-10.98c7.22,1.3,22.2,7.33,26.19,8.35C261.34,210.87,264.99,215.09,271.08,207.89z"/>
	<path d="M261.81,241.97c0,0-9.83,11.41-12.26,9.93c-2.43-1.47-22.57-15.55-22.57-15.55s-5.38-1.4-7.36,0.5
		c0,0,8.4-10.42,13.54-7.92c5.13,2.5,14.67,10.76,17.4,12.42C253.28,243,254.67,247.56,261.81,241.97z"/>
	<path d="M276.92,171.9c0,0-4.76,14.67-9.52,14.48c-4.75-0.19-45.68-3.45-45.68-3.45s-8.98,1.23-10.27,3.83
		c0,0,3.51-13.13,13.04-13.28c9.53-0.14,30.23,2.82,35.58,3.04C265.42,176.74,271.23,180.17,276.92,171.9z"/>
	<path d="M320.81,110.88c0.11,2.98-2.22,5.48-5.2,5.59c-2.98,0.11-5.48-2.22-5.58-5.19c-0.11-2.98,2.21-5.48,5.19-5.59
		C318.2,105.58,320.7,107.91,320.81,110.88z"/>
</g>
</svg>
