<svg xmlns="http://www.w3.org/2000/svg" x="0px" y="0px" width="250px" height="250px">
<path fill="#800000" d="M128.64,166.25h-6.73v-0.55h6.73V166.25z M134.21,163.79h-17.95v-0.55h17.95V163.79z M138.52,161.34h-26.91
	v-0.55h26.91V161.34z M142.45,158.71h-35.13v-0.55h35.13V158.71z M145.88,156.15H103.7v-0.55h42.18V156.15z M148.87,153.67h-48.33
	v-0.55h48.33V153.67z M151.65,151.14h-53.9v-0.55h53.9V151.14z M154.21,148.63H95.2v-0.55h59.01V148.63z M156.53,146.17H93.01v-0.55
	h63.51V146.17z M158.63,143.74H91v-0.55h67.63V143.74z M160.52,141.33h-71.2v-0.55h71.2V141.33z M162.34,138.94H87.71v-0.55h74.63
	V138.94z M164.02,136.64H86.04v-0.55h77.98V136.64z M165.4,134.3H84.75v-0.55h80.65V134.3z M171.2,119.56H79.05v-0.55h92.16V119.56z
	 M171.76,117.21H78.45v-0.55h93.31V117.21z M172.14,114.73H77.9v-0.55h94.24V114.73z M172.34,112.28H77.47v-0.55h94.87V112.28z
	 M172.56,109.89H77.14v-0.55h95.42V109.89z M172.64,107.44h-95.7v-0.55h95.7V107.44z M172.78,105.04H76.81v-0.55h95.97V105.04z
	 M172.87,102.6h-96.2v-0.55h96.2V102.6z M172.87,100.14H76.66v-0.55h96.21V100.14z M172.87,97.63h-96.2v-0.55h96.2V97.63z
	 M172.59,92.83h-9.31v-0.55h9.31V92.83z M129.85,92.8h-11.28v-0.55h11.28V92.8z M87.07,92.72h-9.99v-0.55h9.99V92.72z M172.32,90.42
	h-4.73v-0.55h4.73V90.42z M82.8,90.28h-5.19v-0.55h5.19V90.28z M136.71,95.29H107.4l2.59-0.55h26.72V95.29z M172.71,95.19h-17.63
	l1.97-0.55h15.65V95.19z M94.94,95.19H76.83v-0.55h18.11V95.19z"/>
<path fill="#800000" d="M188.3,134.29c0.01-0.12-0.03-0.24-0.12-0.32s-0.2-0.12-0.32-0.12c-1.13,0.05-11.2-4.68-12.01-5.94
	c-0.06-0.1-0.17-0.15-0.28-0.17c0,0,0-0.02,0-0.02c-0.85-0.75-3.23-2.81-5.82-2.71c0.36-1.01,0.69-2.02,0.98-3.05
	c3.36-9.4,3.29-33.97,0.61-35.03c-0.17-0.05-0.24,0.03-0.46,0.24c-2.58,2.49-10,8.28-23.15,8.28c-1.1-0.04-2.14-0.05-3.14-0.05
	c-5.47-0.03-10.2-0.06-19.55-5.88c-0.01-0.01-0.02-0.02-0.04-0.03c-0.16-0.09-0.23-0.06-0.8,0.24c-5.58,2.95-12.19,4.82-19.62,5.57
	c-8.37,0-16.66-0.68-25.96-8.91c-0.07-0.06-0.17-0.08-0.26-0.06c-0.09,0.03-0.16,0.09-0.19,0.18c-2.72,8.61-2.97,23.83,2.44,38.73
	c-1.49-0.76-3.62-0.88-6.34,1.51c0,0.01,0,0.01,0,0.01c-0.11,0.02-0.2,0.06-0.27,0.16c-0.79,1.14-10.91,3.77-12.13,3.64
	c-0.12-0.01-0.23,0.03-0.32,0.1c-0.09,0.08-0.14,0.19-0.14,0.31C61,154.61,83.14,181.74,107.06,187c-0.01,0.03-0.02,0.06-0.03,0.08
	c-0.1,0.55-0.14,0.95-0.12,1.14c0.79,2.41,14.65,3.68,17.05,3.68c0.03,0,0.06,0,0.09,0c4.83,0,11.41-0.75,15.21-2.41
	c0.14-0.06,0.24-0.2,0.25-0.35c0.03-0.39,0-0.9-0.05-1.44C164.5,183.08,186.38,159.19,188.3,134.29z M78.58,87.11
	c9.3,8.08,17.6,8.77,26.01,8.77c0.01,0,0.02,0,0.03,0c7.53-0.76,14.21-2.66,19.85-5.64c0.16-0.09,0.28-0.15,0.36-0.19
	c9.43,5.85,14.22,5.88,19.77,5.91c1,0.01,2.04,0.01,3.14,0.06c13.36,0,20.91-5.9,23.54-8.44c0.01-0.01,0.02-0.02,0.02-0.02
	c1.71,1.75,2.42,24.41-1.09,34.24c-6.77,24.1-33.23,42.78-45.46,44.98c-26.63-9.66-38.23-27.49-43.27-40.75
	C75.83,111.18,75.95,95.88,78.58,87.11z M79.78,143.12c3.35-1,5.77-1.72,6.51-3.62c0.23-0.59,0.28-1.28,0.16-2.11
	c6.74,11.02,18.31,22.73,38.18,29.93c0.03,0.01,0.06,0.02,0.09,0.02c0.02,0,0.03,0,0.05,0c9.37-1.64,27.12-12.97,38.09-29.01
	c0.42,3.98,3.85,5.17,9,6.82c-1.92,4.42-4.63,8.82-8.04,12.9c-8.37,10.04-19.31,16.35-30.02,17.32c-0.02,0-0.04,0.01-0.06,0.01
	c-0.24-0.06-0.59-0.04-1.01,0.34c-0.55,0.51-1.12,1.6-1.07,2.38c-0.44,0.05-0.85,0.09-1.19,0.12c-4.11,0.33-8.57,0.21-12.55-0.33
	c-1.08-0.19-2.32-0.37-3.58-0.55c0.12-0.94-0.21-2.42-0.75-2.92c-0.21-0.19-0.45-0.21-0.69-0.15
	c-16.16-2.03-29.66-15.85-35.34-30.46C78.33,143.56,79.09,143.33,79.78,143.12z M107.16,186.18c-23.42-5.2-45.08-31.63-44.91-54.79
	c2.05-0.21,9.1-1.92,11.63-3.34c-0.94,18.98,16.27,43.92,38.52,46.99c-0.25,0.4-1.04,0.89-1.52,1.19c-0.31,0.19-0.59,0.36-0.78,0.51
	c-0.03,0.03-0.07,0.07-0.09,0.1c-0.9,1.43-1.65,4.5-2.25,6.98C107.53,184.77,107.33,185.61,107.16,186.18z M124.04,191.08
	c-3.53,0.05-15.85-1.62-16.32-3.03c-0.11-0.81,2.09-8.94,2.79-10.44c1.07,0.18,2.29,0.36,3.5,0.53c1.32,0.19,2.63,0.37,3.78,0.58
	c4.05,0.55,8.58,0.67,12.74,0.34c0.91-0.07,2.27-0.23,3.62-0.53c0.83-0.15,1.66-0.34,2.23-0.54c0.08,0.19,0.16,0.41,0.25,0.64
	c0.34,1.12,0.83,2.92,1.25,4.78c0.17,0.79,0.32,1.55,0.45,2.22c0.22,1.25,0.37,2.4,0.35,3.21
	C134.96,190.38,128.69,191.08,124.04,191.08z M139.42,186.86l-0.05-0.27c-0.08-0.42-0.18-0.92-0.28-1.43
	c-0.1-0.55-0.22-1.12-0.34-1.69c-0.47-2.21-1.04-4.62-1.65-5.93c0.04-0.12,0.03-0.25-0.04-0.36c-0.02-0.04-0.06-0.08-0.09-0.1
	c-0.36-0.29-0.89-0.51-1.45-0.75c-0.19-0.08-0.38-0.16-0.56-0.25c10.58-1.29,21.28-7.62,29.51-17.5c7.74-9.28,12-20.21,11.52-29.46
	c2.49,1.8,9.34,5,11.45,5.49C185.36,158.98,163.94,182.28,139.42,186.86z M71.62,151.9c-0.14,0.03-0.7,0.22-1.04,0.33
	c-0.5,0.16-0.65,0.22-0.73,0.22c-0.03,0-0.05-0.01-0.08-0.02l0.01-0.02c-0.42-0.52-2.1-6.14-2.11-6.2c-0.02-0.09,0.02-0.18,0.1-0.23
	c0.02-0.01,0.05-0.02,0.08-0.03c0.38-0.11,6.34-2.18,6.49-2.23c0.01-0.01,0.03-0.01,0.05-0.01c0.1-0.02,0.21,0.04,0.25,0.14
	l0.61,1.57c0.01,0.04,0.02,0.07,0.01,0.11c-0.02,0.16-0.02,0.16-3.57,1.45c-0.5,0.18-0.92,0.33-1.14,0.42
	c0.23,0.8,1.22,3.98,1.3,4.2c0.01,0.03,0.02,0.06,0.02,0.09c0,0.08-0.04,0.15-0.11,0.19C71.71,151.89,71.67,151.9,71.62,151.9z
	 M77.79,158.34c-1.99,2.73-2.09,2.86-2.1,2.88c-0.04,0.05-0.1,0.07-0.16,0.07c-0.01,0-0.02,0-0.03,0c-0.07-0.01-0.13-0.05-0.17-0.12
	c-0.07-0.11-1.13-1.56-1.25-1.71c-0.04-0.04-0.07-0.1-0.07-0.16c0-0.07,0.03-0.13,0.08-0.17c0.05-0.05,0.17-0.21,0.31-0.38
	c0.16-0.2,0.27-0.34,0.35-0.43c-0.22-0.3-0.62-0.93-1.44-2.24c-0.11,0.02-0.26,0.04-0.47,0.07c-0.24,0.03-0.48,0.06-0.55,0.08
	c-0.11,0.04-0.25-0.04-0.28-0.16c-0.12-0.23-1.07-1.69-1.17-1.82c-0.01-0.01-0.01-0.02-0.02-0.03c-0.02-0.03-0.04-0.08-0.04-0.12
	c0-0.09,0.05-0.17,0.14-0.21c0.03-0.01,0.06-0.02,0.1-0.02c0.43-0.03,7.21-0.97,7.26-0.98l0.04,0.22l0.2-0.09
	c0.07,0.14,1.29,1.99,1.4,2.12c0.09,0.07,0.09,0.19,0.03,0.29c-0.02,0.03-0.04,0.05-0.07,0.06
	C79.64,155.79,78.66,157.14,77.79,158.34z M77.32,155.08l-2.31,0.24l1.12,1.87L77.32,155.08z M84.54,166.08
	c-0.06,0-0.12,0.01-0.17,0.01c0.08,1.08-0.46,1.82-1.69,2.3c-0.02,0.01-0.04,0.01-0.06,0.01c-0.03,0-0.07,0-0.1,0
	c-0.58,0-1.44-0.38-1.76-0.8l0.02-0.01c-0.76-0.66-3.71-4.23-3.71-4.27c0-0.09,0.05-0.17,0.13-0.2c0.21-0.14,1.66-1.46,2.72-2.43
	c0.87-0.79,1.68-1.53,1.96-1.76c0.09-0.08,0.23-0.07,0.31,0.02c0.01,0.01,0.02,0.02,0.02,0.03c0.2,0.23,2.9,2.97,3.17,3.2
	c0.01,0.01,0.02,0.02,0.03,0.03c0.36,0.36,1.34,1.34,0.73,2.99C85.71,166.01,85,166.05,84.54,166.08z M82.27,164.95
	c-0.12-0.16-1-1.3-1.7-1.83l-0.78,0.78c0.17,0.25,0.99,1.1,1.74,1.84c0.02,0.02,0.31,0.24,0.55,0
	C82.39,165.44,82.29,165.04,82.27,164.95z M84.04,163.18c0,0-0.96-1.26-1.7-1.82c-0.22,0.21-0.59,0.56-0.74,0.71
	c0.17,0.25,0.98,1.1,1.74,1.84c0.02,0.02,0.32,0.25,0.56,0C84.23,163.57,84.04,163.18,84.04,163.18z M93.44,170.47
	c0.06,1.1-0.63,2.28-2.18,3.7c-0.02,0.02-0.04,0.03-0.06,0.04c-0.41,0.18-0.85,0.28-1.32,0.28c-0.55,0-1.13-0.13-1.73-0.39
	c-1.48-0.64-2.67-1.91-2.97-2.78c-0.52-1.48,0-2.86,1.66-4.35c1.11-0.78,2.94-0.56,4.46,0.52c0,0,0,0,0,0
	C92.7,168.52,93.38,169.47,93.44,170.47z M88.62,168.76c-1.53,1.12-1.67,2.45-0.55,3.13c0.23,0.14,1.02,1.03,1.91,0.24
	c0.36-0.11,0.92-1.02,1.05-1.46C91.35,169.57,89.64,168.18,88.62,168.76z M101.75,176.81c-0.38,0.66-1.11,1.02-1.85,0.94
	c0.06,0.75,0.16,2.39,0.13,2.99c0.02,0.07,0.01,0.15-0.03,0.21c-0.04,0.06-0.06,0.09-0.15,0.09c-0.14,0-0.45-0.09-1.26-0.34
	c-0.35-0.1-0.69-0.21-0.93-0.28c-0.02,0-0.04-0.01-0.06-0.02c-0.15-0.08-0.15-0.08-0.2-2.04c-0.01-0.56-0.03-1.19-0.04-1.3
	c0,0,0,0,0,0c-0.09-0.09-0.82-0.42-1.18-0.57c-0.15-0.06-0.26-0.11-0.35-0.16c-0.14,0.28-0.41,0.76-0.62,1.15
	c-0.63,1.14-0.63,1.14-0.82,1.11c-0.03-0.01-0.05-0.02-0.08-0.03c-1.89-1.03-1.89-1.04-1.89-1.21c0-0.05,0.01-0.09,0.04-0.13
	c0.02-0.03,3.16-5.45,3.36-5.88c0.02-0.08,0.08-0.14,0.16-0.16c0.07-0.02,0.15,0,0.21,0.05c0.28,0.18,3.08,1.66,4.93,2.63
	c0.5,0.29,0.83,0.8,0.93,1.43C102.15,175.88,102.03,176.49,101.75,176.81z M99.34,174.76c0.03,0-2.25-1.23-2.28-1.26
	c0.03,0-0.61,1.09-0.61,1.13c0.07,0,2.1,1.12,2.18,1.12C99.51,176.25,99.88,175.1,99.34,174.76z M181.61,146.85
	c-0.18-0.08-4.15-2.06-5.67-2.82c-0.05-0.03-0.12-0.03-0.17-0.01c-0.06,0.02-0.1,0.06-0.13,0.11c-0.87,1.82-0.87,1.82-0.75,1.95
	c0.02,0.02,0.04,0.04,0.07,0.05c2.13,1.06,5.34,2.68,5.64,2.86c0.04,0.04,0.09,0.05,0.14,0.05c0.03,0,0.07-0.01,0.1-0.02
	c0.06-0.03,0.1-0.08,0.12-0.15c0.07-0.18,0.69-1.56,0.76-1.71c0.05-0.09,0.03-0.22-0.06-0.29
	C181.64,146.86,181.63,146.86,181.61,146.85z M184.73,136.94c-0.02,0.1-0.41,1.98-0.44,2.13c-0.01,0.1-0.08,0.18-0.19,0.2
	c-0.02,0-0.05,0-0.07,0c-0.07,0-0.26,0.02-0.47,0.03c-0.27,0.02-0.45,0.03-0.58,0.04c-0.08,0.36-0.28,1.09-0.71,2.61
	c0.08,0.06,0.18,0.15,0.31,0.25c0.21,0.17,0.43,0.36,0.5,0.41c0.02,0.01,0.04,0.03,0.06,0.05c0.07,0.08,0.07,0.19,0.02,0.27
	c-0.09,0.25-0.54,1.95-0.56,2.11c0,0.06-0.03,0.11-0.08,0.15c-0.04,0.03-0.09,0.05-0.14,0.05c-0.03,0-0.07-0.01-0.1-0.02
	c-0.03-0.01-0.05-0.03-0.07-0.06c-0.3-0.28-5.68-4.72-5.72-4.75l0.14-0.18l0,0l-0.2-0.09c0.06-0.17,0.62-2.36,0.64-2.5
	c0-0.11,0.08-0.19,0.2-0.21c0.03,0,0.05,0,0.08,0.01c0.26-0.03,1.22-0.14,2.36-0.26c4.8-0.54,4.81-0.54,4.87-0.53
	c0.06,0.01,0.12,0.05,0.15,0.11C184.74,136.81,184.75,136.88,184.73,136.94z M181.18,139.06l-2.41,0.55l1.77,1.57L181.18,139.06z
	 M179.44,152.89c-0.17-0.08-3.36-1.83-4.13-2.26l1.07-2.07c0.05-0.1,0.02-0.23-0.08-0.29c-1.48-0.92-1.52-0.9-1.64-0.85
	c-0.06,0.02-0.11,0.08-0.13,0.14c-0.16,0.36-2.99,5.78-3.02,5.83c-0.06,0.11-0.02,0.24,0.09,0.3l1.39,0.78
	c0.03,0.02,0.07,0.03,0.11,0.03c0.26,0,1.04-1.5,1.33-2.07l4.15,2.22c0.03,0.02,0.07,0.03,0.1,0.03c0.05,0,0.11-0.02,0.15-0.06
	c0.05-0.04,0.06-0.05,0.38-0.75c0.12-0.25,0.28-0.6,0.3-0.63l-0.17-0.15L179.44,152.89z M143.92,178.81
	c-0.67,0.33-1.23,0.41-1.51,0.22c-0.15-0.1-0.17-0.26-0.16-0.38c0.03-0.36,0.38-0.87,1.09-1.2c0.94-0.3,1.71-0.22,2.28,0.27
	c0.07,0.06,0.16,0.07,0.24,0.03c1.32-0.68,1.32-0.68,1.27-0.86c-0.01-0.04-0.03-0.07-0.06-0.1c-1.06-1.12-2.78-1.52-4.39-1.01
	c-1.98,0.73-2.96,2.39-2.37,4.07c0.57,1.34,2.33,0.87,3.73,0.5c0.81-0.21,1.72-0.45,2-0.21c0.16,0.34-0.14,0.66-0.42,0.88
	c-0.81,0.61-2.35,0.91-2.89,0.4c-0.07-0.07-0.17-0.08-0.26-0.04c-0.05,0.02-0.23,0.09-0.45,0.16c-0.94,0.34-1,0.36-1.05,0.41
	c-0.08,0.07-0.1,0.18-0.06,0.27c0.46,0.94,1.47,1.35,2.61,1.35c0.83,0,1.72-0.22,2.52-0.6c1.51-0.72,2.96-2.21,2.09-4.08
	C147.65,178.17,146.24,178.14,143.92,178.81z M116.08,181l-0.25-0.15l-0.03,0.35c-0.18,1.9-0.65,6.88-0.68,7.06l0.2,0.03l0.01,0.23
	c4.37,0.19,5.85,0.26,6.37,0.26c0.27,0,0.29-0.02,0.32-0.04l0.06-0.06l0.01-0.08c0.08-0.65,0.17-1.39,0.2-1.48l-0.16-0.06
	l-0.04-0.24c-1.36-0.04-3.32-0.1-3.98-0.12l0.09-0.76h3.6l0.03-0.19c0,0,0.19-1.25,0.21-1.32l-0.21-0.04l0.01-0.22
	c-0.04,0-0.06,0-0.09,0c-1.15,0.01-2.87,0.02-3.48,0.01l0.17-0.98c0.49,0.05,1.56,0.07,3.9,0.13c0.4,0,0.42-1.91,0.42-1.92v-0.22
	l-0.22,0C120.44,181.12,116.58,181.02,116.08,181z M131.48,181.28L131.48,181.28c-0.24,0.02-2.57,0.08-6.29,0.15
	c-0.16,0-0.35,0.01-0.36,0.22l-0.06,1.7c0,0.23,0,0.23,1.78,0.23l0.63,0c0.02,0,0.03,0,0.05,0l0.18,4.79c0,0.09,0.06,0.17,0.15,0.2
	c0.02,0.01,0.04,0.01,0.12,0.01c0.11,0,0.35-0.01,0.9-0.04c0.3-0.02,0.67-0.04,0.69-0.04c0.07,0.02,0.14,0,0.2-0.04
	c0.06-0.04,0.09-0.11,0.08-0.18l-0.17-4.75c0.22-0.01,0.63-0.04,1.35-0.08c0.42-0.02,0.77-0.04,0.79-0.05c0.12,0,0.22-0.1,0.22-0.22
	c0.05-1.74,0.01-1.78-0.06-1.86C131.64,181.28,131.56,181.26,131.48,181.28z M171.09,155.46c-0.32-0.26-0.53-0.42-0.55-0.44
	c-0.07-0.06-0.16-0.07-0.24-0.03c-0.06,0.03-0.07,0.03-0.65,0.7c-0.22,0.26-0.53,0.61-0.6,0.68c-0.05,0.03-0.08,0.09-0.09,0.15
	c-0.02,0.16-0.03,0.17,2.74,2.49c-1.3,0.05-4.39,0.16-4.66,0.14c-0.01,0-0.03,0-0.04,0c-0.06,0-0.12,0.03-0.17,0.08
	c-0.43,0.5-1.15,1.33-1.26,1.43c-0.03,0.02-0.06,0.06-0.07,0.1c-0.03,0.09-0.01,0.18,0.06,0.24c1.27,1.15,2.52,2.17,3.53,2.99
	c0.6,0.48,1.11,0.9,1.44,1.2c0.04,0.04,0.1,0.06,0.16,0.06c0.03,0,0.06-0.01,0.09-0.02c0.01-0.01,1.42-1.46,1.42-1.7
	c0-0.14,0-0.14-1.5-1.37c-0.35-0.29-0.75-0.61-1.03-0.86c1.39,0.03,4.24-0.07,4.26-0.08c0.05-0.02,0.08-0.05,0.11-0.09
	c0.06-0.08,0.43-0.5,0.73-0.84c0.87-0.98,0.87-0.98,0.87-1.11C175.61,159.05,175.61,159.05,171.09,155.46z M156.44,173.44
	c-0.1,0-0.11,0-0.81,0.56c-0.24,0.19-0.6,0.49-0.7,0.54c-0.04,0.01-0.08,0.04-0.1,0.08c-0.04,0.06-0.05,0.13-0.03,0.2
	c0.34,1.11-0.27,1.9-0.89,2.24c-0.73,0.4-1.81,0.38-2.57-0.54c0,0-0.01-0.01-0.01-0.01c-0.71-0.77-0.45-1.74,0.13-2.36
	c0.66-0.7,1.78-1.03,2.8-0.2c0.08,0.07,0.2,0.07,0.28,0c0.48-0.38,1.37-1.13,1.37-1.13c0.05-0.04,0.08-0.1,0.08-0.16
	c0-0.06-0.02-0.12-0.07-0.17c-1.44-1.39-3.21-1.38-5.44,0.07c-1.65,1.5-1.98,3.56-0.86,5.39c0.01,0.02,0.02,0.03,0.04,0.04
	c0.96,0.92,2.02,1.23,2.99,1.23c1.36,0,2.53-0.6,3.01-0.97c1.28-0.97,1.78-3.37,0.98-4.68
	C156.59,173.48,156.52,173.44,156.44,173.44z M157.99,168.2c-0.04-0.05-0.1-0.08-0.16-0.09c-0.07,0-0.13,0.02-0.17,0.07
	c-1.44,1.46-1.44,1.46-1.37,1.62c0.01,0.02,0.02,0.03,0.03,0.05c1.44,1.92,3.63,4.83,3.74,5.01l0.19-0.11l0.16,0.15
	c0.09-0.09,1.32-1.11,1.44-1.21c0.07-0.04,0.11-0.12,0.1-0.2c0-0.05-0.02-0.1-0.06-0.13C161.77,173.2,159.3,169.92,157.99,168.2z
	 M169.35,167.17l-0.06-0.06c-0.33-0.33-0.7-0.7-0.83-0.85l0.14-0.64l-0.54,0.54c-1.01,1.02-2.47,2.49-2.94,2.94l-0.61-0.61
	l2.75-2.75l-0.14-0.16c0,0-0.89-1.02-0.92-1.06l-0.16,0.14l-0.15-0.16c-0.02,0.02-0.04,0.04-0.06,0.06
	c-0.89,0.9-2.24,2.24-2.68,2.66l-0.67-0.69c0.34-0.32,1.11-1.09,2.96-2.93l0.09-0.09l-0.04-0.13c0-0.01-1.06-1.24-1.27-1.24h-0.09
	l-0.07,0.06c-1.14,1.12-4.01,3.93-4.46,4.36h-0.44l0.37,0.38c1.86,1.91,4.67,4.81,4.78,4.95l0.14-0.11l0.19,0.13
	c4.7-4.54,4.7-4.54,4.69-4.67L169.35,167.17z M145.79,87.45c-0.06,0.09-0.18,0.14-0.28,0.13c-0.24-0.04-0.99,0.21-1.65,0.43
	c-1,0.33-2.11,0.7-2.85,0.63c-0.68-0.12-1.32-0.57-1.84-0.94c-0.21-0.15-0.42-0.3-0.59-0.39c-1.01,1.17-2.26,1.36-2.64,1.34
	c-0.93,0.29-1.66-0.39-2.19-0.89c-0.19-0.18-0.49-0.46-0.6-0.46c0,0,0,0,0,0c-0.17,0.05-0.54,0.35-0.87,0.61
	c-0.42,0.34-0.81,0.66-1.16,0.74c-1.06,0.28-2-0.37-2.7-0.85c-0.35-0.24-0.75-0.51-0.92-0.47c-0.02,0.02-0.17,0.13-0.33,0.25
	c-0.56,0.41-1.5,1.08-2.48,1.08c-0.03,0-0.06,0-0.08,0c-1.61-0.13-2.17-0.77-2.5-1.15c-0.04-0.05-0.1-0.11-0.14-0.15
	c-0.16,0.07-0.36,0.27-0.57,0.47c-0.47,0.47-1.11,1.11-2.14,1.01c-0.67,0.08-1.75-0.7-2.8-1.55c-0.02-0.02-0.04-0.03-0.06-0.05
	c-1.1,1.2-2.11,1.79-3.07,1.79c-0.04,0-0.08,0-0.12,0c-1.46-0.07-2.47-1.48-3.36-2.73c-0.66-0.91-1.27-1.78-1.86-1.78
	c-0.08,0-0.15-0.03-0.21-0.09c-0.05-0.06-0.08-0.14-0.07-0.21c0.05-0.49,0.97-0.94,2.74-1.63c0.23-0.09,0.41-0.16,0.49-0.19
	c0.02-0.02,0.05-0.04,0.08-0.05c0.61-0.23,1.56,0.28,2.83,1.03c0.34,0.2,0.79,0.46,1.02,0.55c0.25-0.54,0.82-0.92,1.21-1.15
	c-2.48-1.78-3.79-3.08-3.88-3.85c-0.17-0.93,2.31-3.92,6.38-8.44l0.61-0.68c1.08-1.21,3.08-3.45,2.98-4.91c0-0.03,0-0.05,0.01-0.08
	c0.02-0.07,0.02-0.18,0.02-0.31c0.02-0.59,0.06-1.66,0.86-2.66c-0.04-0.08-0.09-0.18-0.17-0.32c-0.13-0.24-0.34-0.64-0.41-0.74
	c-0.05-0.05-0.08-0.12-0.08-0.2c0-0.09,0.04-0.17,0.11-0.22c0.03-0.04,0.06-0.09,0.11-0.16c0.43-0.65,1.35-2.07,2.26-2.01
	c0.19-0.64,0.72-0.66,0.91-0.66c0,0,0.32,0.02,0.53,0.15c0,0,0.01,0,0.02,0c0.55,0,0.77,0.18,0.95,0.37
	c0.01,0.01,0.01,0.01,0.02,0.02c0.46-0.13,0.93-0.22,1.29,0.02c0.2,0.14,0.34,0.36,0.4,0.66c0.07,0,0.15,0,0.23,0
	c0.38,0,0.96,0.05,1.63,0.76c0.48,0.5,0.5,1.3,0.52,1.99c0.01,0.52,0.03,1.06,0.25,1.26c0.02,0.02,0.04,0.05,0.06,0.08
	c0.3,0.29,2.62,1.72,6.9,4.24c0.22,0.13,0.39,0.23,0.51,0.3c0.22-0.26,0.69-0.87,1.11-1.42c0.03-0.04,0.07-0.07,0.12-0.09
	c0.12-0.05,0.12-0.05,0.73,0.28c0.57,0.31,1.87,1.03,2.13,1.13c0.03,0,0.07,0.01,0.1,0.03c0.13,0.07,0.18,0.24,0.11,0.37
	c0,0,0,0,0,0.01c-0.74,1.33-0.76,2.02-0.78,2.63c-0.01,0.39-0.02,0.76-0.23,1.19c-0.92,1.93-2.48,2.57-3.63,2.77
	c-1.14,0.2-2.26-0.01-2.57-0.31c-0.14-0.16-0.14-0.16,0.43-1.47c0.31-0.7,0.79-1.8,0.94-2.23c-0.21-0.13-0.57-0.36-1.25-0.8
	c-1.47-0.95-4.44-2.86-5.07-3.15c-0.17,0.14-0.35,0.34-0.55,0.56c-0.45,0.51-1.02,1.15-2.04,1.69c-0.04,0.02-0.1,0.04-0.14,0.03
	c-0.08,0-0.15-0.01-0.23-0.01c-2.66,0-3.26,2.17-3.27,2.19c0,0.08-0.04,0.15-0.1,0.18c-0.32,0.56-2.1,4.29-2.38,6.01
	c-0.05,0.32,0.05,0.45,0.09,0.49c0.32,0.36,1.37,0.35,2.3,0.33c1.17-0.03,2.38-0.04,2.98,0.55c1.16,0.62,1.59,1.3,1.98,1.91
	c0.29,0.45,0.53,0.84,1.05,1.14c0.04,0.02,0.21,0.13,0.42,0.27c0.32,0.22,1.18,0.8,1.4,0.81c0.03,0,0.05,0.01,0.08,0.02
	c0.28,0.11,0.53-0.02,0.93-0.23c0.36-0.19,0.76-0.41,1.25-0.36c0.48,0.07,0.9,0.39,1.3,0.7c0.33,0.25,0.68,0.52,0.99,0.58
	c0.23-0.06,0.77-0.35,1.21-0.58c0.69-0.37,1.12-0.59,1.39-0.64c1.59-0.26,5.63,4.73,5.85,5.07
	C145.79,87.13,145.9,87.28,145.79,87.45z M13.26,150.63c-0.97-0.49-2.28-7.67-1.6-8.75c0.23-0.37,0.96-0.43,1.4-0.44
	c0.29-0.01,1.4-0.13,1.4,0.15c0.33,0.52,0.54,1.02,1.23,1.14c1.01,0.17,2.62,0.09,3.64,0.01c1.45-0.11,12.55-1.07,14.84-1.39
	c8.67-0.77,9.39-1.68,9.44-1.68c0.73-0.11,1.04-1.51,0.92-2.08c-0.4-2.06-5.63-1.42-7.55-1.42c-2.62,0.03-17.46,0.73-20.25,0.76
	c-0.58,0.08-1.55,0.23-2,0.57c-0.35,0.26-0.63,1.29-0.97,1.29c-0.7,0.31-2.11,0.46-2.61-0.31c-0.48-0.73-0.67-5.43-0.67-6.55
	c0.23-0.17,0.52-0.3,0.85-0.41c0.28-0.09,0.91-0.13,1.55,0.01c0.31,0.05,0.54,0.16,0.75,0.39c0.39,0.44,0.66,0.95,1.23,1.14
	c1.38,0.42,23.15-0.38,24.74-0.38c4.68,0,9.57,1.03,8.98,6.83c-0.15,1.41-1.38,3.11-2.58,3.88c-1.01,0.65-4.37,1.41-6.77,1.76
	c-0.62,0.06-21.87,3.32-22.13,3.45C15.87,149.24,15.14,151.6,13.26,150.63z M52.61,158.76c1.09-0.82,0.51-2.19,0.18-3.22
	c-0.4-1.29-1.47-4.57-3.56-2.92c-1.01,0.79-1.25,1.64-2.63,2.08c0,0.06-9.3,3.18-9.28,3.18c-1.67,0.44-2.41-3.33-2.42-3.36
	c0-0.05,9.32-3.03,11-3.25c1.51-0.2,3.24,0.93,4.45,0c1.13-0.88-0.28-5.34-1.18-6.14c-0.33-0.3-0.84-0.35-1.35-0.38
	c-1.15,1.02-2.28,2-3.73,2.48c-1.17,0.37-23.65,5.14-24.21,5.18c-0.62,0.04-1.63,0.06-2.16-0.17c-1.04-0.45-1.3-1.25-2.72-0.84
	c-0.7,0.21-1.09,0.83-1.09,1.56c0,1.47,1.25,6.35,2.28,7.19c0.33,0.28,1.13,0.29,1.57,0.18c1.08-0.29,1.12-1.66,2.07-2.12
	c1.61-0.82,8.73-2.44,9.52-2.71c0.52-0.09,1.57-0.18,1.91,0.15c0.26,0.27,1.45,3.54,1.45,3.5c0,0.1-8.82,3.75-11.92,3.35
	c-0.68-0.09-1.06-0.61-1.66-0.77c-0.65-0.18-1.51,0.29-1.9,0.77c-0.72,0.84,0.66,3.66,0.94,4.45c0.27,0.79,1.3,3.13,2.02,3.44
	c2.14,0.9,2.15-1.76,3.14-2.43c1.08-0.49,19.37-7.31,24.74-8.9C49.53,158.6,51.43,159.63,52.61,158.76z M38.32,164.51
	c-0.71,0.28-2.12,0.77-2.42,1.63c-0.1,0.28-0.23,0.63-0.03,1.23c0.23,0.94,2.36,5.13,3.04,5.7c0.23,0.19,0.56,0.31,0.86,0.28
	c0.62-0.09,1.33-0.46,1.84-0.73c2.4-1.3,0.79-3.57-0.02-5.25c-0.54-0.92-1.16-2.01-1.73-2.59C39.54,164.47,39.03,164.3,38.32,164.51
	z M36.31,191.74c0-0.34,0.95-0.93,1.22-1.07c1.4-0.74,2.66-1.76,4-2.64c3.67-2.39,7.49-4.62,11.12-7.06
	c1.71-1.13,6.54-4.03,7.24-4.35c1.03-0.2,2.23,0.08,2.99-0.6c0.4-0.36,0.66-0.97,0.6-1.54c-0.08-0.8-4.14-7.06-5.36-8.24
	c-0.46-0.44-0.9-0.76-1.56-0.89c-2.07,0.82-9.01,4.57-10.34,5.39c-0.5,0.39-0.69,1.54-0.34,2.03c0.38,0.55,1.74,0.48,2.88-0.15
	c1.44-0.6,5.13-2.42,6.73-2.08c1.09,0.23,2.01,1.97,1.94,1.97c-0.59,0.44-9.64,6.05-10.64,6.64c-0.26,0-0.53-0.17-0.7-0.35
	c-0.16,0,0.41-0.77,0.66-1.09c0.78-0.68,3.09-1.87,2.43-3.27c-0.13-0.28-0.4-0.59-0.72-0.67c-0.27-0.08-0.84,0.01-1.08,0.11
	c-2.72,1.45-8.91,4.75-10.12,5.53c-0.26,0.24-0.49,0.93-0.34,1.29c0.79,1.8,3.16,0.2,4.32,0c0.42-0.07,1.35-0.23,1.37,0.72
	c-0.42,0.51-5.07,3.5-6.67,4.31c-0.73,0.42-2.37,1.37-2.94,1.45c-0.25,0.02-0.72-0.52-0.9-0.81c-0.56-0.91-1.06-2.15-0.73-3.36
	c0.64-2.32,4.35-3.1,5.63-4.91c0.66-0.93-0.47-2.47-1.56-2.13c-1.36,0.47-7.89,3.4-9.77,4.92c-0.37,0.38-0.14,0.99-0.12,1.21
	c0.09,0.8,0.47,1.23,0.82,1.84c0.84,1.42,6.51,10.82,7.9,11.07c1.09,0.19,2.05-0.62,2.13-1.72L36.31,191.74z M56.44,195.01
	c0.44-2.06-0.25-4.23-0.46-6.1c-0.35-3.11,1.92-5.2,4.24-6.63c0.76-0.36,1.53-0.73,2.31-1.09c2-0.44,3.52,0.51,2.93,2.63
	c-0.41,1.48-2.71,3.98-3.9,5.06c-0.64,0.58-1.59,1.15-2.06,1.91c-0.61,0.96-0.2,2.26,1.08,2.26c0.34,0,0.72-0.07,0.97-0.22
	c1.35-0.85,9.29-7.7,9.51-8.82c0.21-1.14-0.92-1.38-1.4-2.18c-0.46-0.75-0.65-1.72-1.12-2.49c-1.04-1.63-3.59-2.28-5.52-2.28
	c-1.11,0.08-1.79,0.48-3.31,1.07c-3.39,1.65-7.05,4.16-8.94,7.57c-0.81,1.45-0.61,3.61-0.24,5.19c0.94,3.98,0.21,6.19-2.93,8.46
	c-1.1,0.79-2.36,1.65-3.94,1.36c-0.71-0.13-1.55-0.84-1.94-1.46c-2.01-3.13,4.67-6.16,5.85-8.09c0.32-0.54-0.09-1.51-0.44-1.97
	c-0.2-0.27-0.99-0.42-1.05-0.42c-1.33-0.19-10.52,6.95-10.23,7.99c0.12,0.7,0.99,1.03,1.36,1.55c0.55,0.77,0.79,1.83,1.24,2.64
	c0.85,1.49,3.31,3.79,5.01,3.98C48.73,205.53,55.4,199.9,56.44,195.01z M58.62,216.58c-2.41,0.79-4.69-0.35-6.49-1.55
	c-1.38-0.92-4.04-5.02-2.57-7.51c0.75-2.23,3.42-4.55,5.13-6.31c2.04-2.11,8.49-8,9.54-8.97c0.42-0.28,5.92-4.84,7.16-5.26
	c1.75-1.14,3.66-0.87,4.34-0.67c1.73,0.51,3.29,2.36,3.93,4.07c0.42,2.95-1.77,5.47-2.45,6.62c-1.99,3.38-4.63,6.38-7.25,9.35
	C66.72,210.03,63.39,215.03,58.62,216.58z M68.71,200.28c1.43-1.64,6.72-7.3,6.72-9.05c-0.86-4.02-8.28,5.17-13.86,10.2
	c-1.59,1.68-3.32,3.38-4.9,5.07c-1.29,1.2-4.21,3.72-1.83,5.85c1.42,1.27,2.71-0.05,3.77-1.1
	C59.72,210.49,68.59,200.28,68.71,200.28z M92.01,200.94c-0.6,0.37-1.29,0.24-1.78,0.84c-0.78,0.94-13.84,22.26-14.06,23.55
	c-0.11,0.65,0.5,1.27,0.57,1.88c0.12,1.09-0.62,2.23-1.79,2.1c-1.11-0.14-5.83-3.23-7.34-4.23c-3.73-2.41-5.34-5.63-3.17-9.84
	c1.21-2.02,3.93-4.89,5.32-5.94c0.58-0.33,1.16-0.66,1.74-1c0.79-0.27,1.53-0.35,2.18-0.82c0.03-0.13,0.07-0.26,0.1-0.39
	c0.35-4.42,7.04-11.86,7.09-11.86c-0.38-0.93-0.44-1.82-0.35-1.92c0.39-0.98,1.17-1.46,1.88-1.67c1.4,0.38,3.88,1.63,3.41,3.57
	c-0.11,0.57-0.48,1.26-0.9,2.01c-1.22,1.76-6.73,8.95-6.99,10.12c-0.13,0.6,0.24,1.29,0.72,1.6c0.39,0.25,1.22,0.19,1.58-0.06
	c0.68-0.49,4.38-6.68,5.92-9c0.54-1.32-0.48-2.83,0.73-3.86c1.23-1.39,1.98-0.92,3.55,0.1c0.07,0.07,1.7,0.96,2.67,1.99
	C93.82,199.03,92.87,200.4,92.01,200.94z M77.22,213.07c-0.21-0.77-2.11-2.52-3.64-0.67c-1.62,1.95-7.12,7.3-4.45,9.59
	c0.4,0.33,1.29,1.22,1.96,1.01C71.91,222.19,77.53,214.22,77.22,213.07z M11.88,130.04c1.56,0.07,1.64-1.35,2.62-1.61
	c1.04-0.29,2.52-0.16,3.63-0.16c1.4-0.04,11.57,0.35,12.74,0.38c3.08,0.03,11.58,0.63,12.12,0.72c0.78,0.36,1.27,1.15,2.21,1.25
	c0.75,0.08,1.42-0.35,1.74-1.01c0.36-0.73,0.64-8.79,0.31-9.58c-0.19-0.46-0.71-0.68-1.2-0.79c0-0.06-8.73-1.52-10.36-2.13
	c-0.35-0.14-1.5-0.82-1.57-0.82c-0.54,0-0.62,2.27-0.42,2.84c0.42,1.18,3.79,1.3,4.99,1.59c1.18,0.28,3.94,1.31,4.49,2.38
	c0.23,0.46,0.06,1.1-0.1,1.54c-1.57-0.04-9.85-0.37-12.04-0.57c-0.71-0.07-15.57-0.9-16.56-1.91c-0.4-0.41-0.54-0.94-0.91-1.36
	c-1.36-1.58-2.82-0.2-2.93,0.13c-0.38,1.03-0.36,2.5-0.4,3.71C10.21,126.24,10.16,130.04,11.88,130.04z M11.88,112.85
	c2.02,1.24,2.34-0.64,3.5-1.07c0.67-0.27,1.66-0.21,2.4-0.28c1.31,0.16,19.75,3.2,20.13,3.34c1.67,0.33,4.94,0.69,5.82,1.44
	c0.13,0.11,1.74,1.03,1.91,1.09c0.55,0.2,1.74,0.09,1.98-0.27c0.82-0.96,0.54-4.29,0.04-4.89c-0.51-0.59-1.68-0.55-4.27-0.08
	c-1.01,0.18-19.94-3.48-19.94-3.54c2.5,0.02,22.82,1.82,23.48,1.83c0.91,0.03,1.16,0.21,1.73-0.57c0.51-0.67,0-1.6-0.71-1.97
	c-2.08-1.11-20.75-9.71-20.75-9.77c0.02-0.06,15.6,4.96,17.35,5.78c1.42,0.67,2.23,2.05,3.79,2.5c0.16,0.01,0.31,0.01,0.47,0.01
	c0.98-0.13,2.88-4.62,1.32-5.44c-0.28-0.28-1.4-0.54-1.7-0.54c-0.25,0-1.44-0.23-1.64-0.21c-1.68,0.16-25.87-9.21-26.73-10.04
	c-0.16-0.45-0.32-0.9-0.48-1.34c-0.38-0.96-1.83-1.58-2.76-0.96c-1.11,0.74-1.88,3.84-1.88,3.84s-1.16,3.66-0.69,4.91
	c0.62,1.63,14.5,6.8,14.5,7c0.06,0.02-14.79-0.54-15.71-0.1c-0.88,0.41-2.1,7.23-1.88,8.46C11.23,112.37,11.6,112.68,11.88,112.85z
	 M20.6,79.08c-0.55-1.65,0.17-2.82,0.74-3.69c0.86-1.36,2.98-1.09,4.3-0.88c1.96,0.32,24.65,9.61,26.22,10.18
	c1.47,0.56,1.98,0.37,2.63,0.02c0.96-0.34,2.76,0.95,2.66,1.77c0.06,0.88-1.56,6.32-3.74,6.05c-0.62-0.14-1.36-0.63-1.77-1.23
	c-0.37-0.57-0.38-0.98-0.75-1.55c-0.72-0.64-6.05-3.15-6.79-2.42c-0.56,0.53-1.52,2.2-1.18,2.68c0.46,0.65,5.59,3.68,6.33,3.82
	c0.67,0.11,1.09-0.35,1.7-0.48c0-0.06,1.97,0.28,1.88,1.3c0.36,0.96-0.58,4.87-1.88,5.29c-1.29,0.42-2.18-1.01-2.44-1.01
	c-0.14-0.46-0.23-1.15-0.59-1.49C47.03,96.57,21.12,80.61,20.6,79.08z M30.7,81.99c0.85,0.89,7.76,5.59,8.73,5.59
	c0.45-0.69,0.73-0.86,1.05-2.27C39.15,84.85,31.89,82.26,30.7,81.99z M30.33,66.8c0.42-0.24,0.84-0.48,1.26-0.73
	c1.11,0.06,22.96,14.69,24.09,15.73c0,0.49,0.26,0.47,0.13,0.84c-0.24,0.68,2.05,2.79,3.07,1.53c0.84-1.03,2.44-2.77,2.41-3.85
	c-0.01-0.05-0.41-0.41-0.95-0.93c-2.21-1.45-1.56,0.52-3.85-0.98c-0.79-0.67-14.77-10.37-14.77-10.42
	c0.59-0.5,19.79,8.95,20.98,9.09c0.74,0.08,1.49-0.65,1.91-1.2c0.67-0.85,0.46-2.03-0.26-2.78c-1.94-1.67-19.81-17.04-20.8-17.8
	c-0.69-0.61-1.92-1.5-2.18-2.4c-0.15-0.52-0.11-1.19,0.08-1.69c0.24-0.61-0.85-2.72-2.55-2.24c-1.27,0.99-5.24,5.11-4.29,6.4
	c2.31,2.25,2.8-0.26,4.56,1.09c0.74,0.57,12.32,9.72,12.32,9.95c-1.68,0-18.99-8.32-19.9-7.51c-0.25,0.28-4.15,5.17-4.15,6.46
	C27.44,66.72,29.28,67.09,30.33,66.8z M136.83,212.49c0.4-1.85,0.55-3.78,0.72-5.73c0.04-0.54,0.52-2.94-0.91-3.21
	c-0.72,0.3-1.57,0.94-2.5,0.76c-0.37-0.08-1.04-0.62-3.16-0.28c-0.42,0.12-0.83,0.24-1.25,0.35c-0.78,0.06-1.45-0.45-2.19-0.22
	c-1.45,0.41-0.91,2.92-0.98,4.16c-0.05,0.64-0.74,6.13,0.35,7.05c0.28,0.23,0.66,0.5,1.02,0.39c1.42-0.43,1.13-3.22,1.38-4.45
	c0.1-0.48,0.27-1.19,0.52-1.62c0.41-0.68,4.7-0.89,4.7,0.27c0.09,0.85-0.53,2.18-0.74,2.92c-0.57,1.98-1.14,3.96-1.71,5.94
	c-1.23,3.66-2.78,13.46-3,18.33c-0.13,1.11-0.37,2.79,1.03,3.04c1.21,0.22,4.11,0.45,4.76-0.67c0.53-0.95-0.12-3.9-0.13-5.18
	C134.12,229.95,134.8,218.66,136.83,212.49z M108.03,233.99c0.06-1.87,5.09-26.4,5.45-28.15c0.45-1.23-0.18-2.09-1.36-2.24
	c-0.52,0.64-1.88,1.86-2.26,2.27c0.05,0-1.25,0.75-2.45,0.88c0,0.6-0.36,1.11-0.17,1.74c0.24,0.84,1.18,1.44,1.1,2.43
	c-1.63,7.1-3.27,14.18-4.9,21.27c-0.41,1.17-1.27,1.69-1.27,1.63c-0.58,0.15-1.4,0.06-1.8,0.34c-0.81,0.57-1.06,2.08-0.23,2.72
	c0.96,0.76,6.29,1.78,7.28,1.83c0.55,0.02,1.29-0.33,1.73-0.53c0.61-0.88,0.75-2.03,0.18-2.62
	C108.53,235.13,108,234.71,108.03,233.99z M125.42,225.39c1.3,3.9,0.99,11.53-2.46,14.03c-1.02,0.81-3.33,1.28-3.86,1.28
	c-2.46,0-5.33-0.47-6.95-2.21c-2.81-3.02-0.91-10.37,0.75-13.36c0.67-1.31,3.19-3.37,3.23-3.37c-0.52-1.17-1.09-2.38-1.44-3.66
	c-0.88-3.29,0.07-9.44,1.72-11.99c1.38-2.09,3.89-3.59,7.29-1.5c2.51,1.51,2.09,8.35,1.32,10.85c-0.5,1.58-2.37,4.55-2.6,4.55
	C123.37,221.85,124.75,223.4,125.42,225.39z M119.07,215.38c0.26,0.5,1.36,1.74,1.36,1.67c1.7-1.22,3.32-7.46,1.38-9.2
	c-0.42-0.37-1.93-1.14-2.98,0.86C117.97,210.58,118.15,213.65,119.07,215.38z M117.7,224.73c-0.72,0.75-1.46,1.54-1.91,2.45
	c-1.13,2.3-2.49,8.18,0.52,9.56c0.32,0.22,1.03,0.49,1.73,0.57c2.06,0.06,3.12-2.05,3.34-2.85
	C122.25,231.24,120.68,225.94,117.7,224.73z M153.71,234.48c0.2,0.46,0.29,1.05,0.29,1.61c-2.44,1.17-8.88,2.54-9.38,2.43
	c-0.41-0.09-0.83-0.52-0.98-0.9c-0.88-2.43,1.3-2.48,2.05-3.37c0.2-0.55-0.27-3.54-0.68-4.03c-0.85-1.02-6.28,1.45-7.89,0.56
	c-1.53-0.62,0.65-9.58,1.02-11.85c0.09-0.57,2.45-14.56,2.79-15.85c0.22-0.42,0.69-0.73,1.03-1.06c0.93,0,1.55-0.37,2.38,0.74
	c0.33,1.13,4.28,20.39,4.48,21.48c1.02-0.04,2.76-0.28,3.23,0.76c0.3,0.65,0.35,2.27-0.24,2.75c-0.71,0.55-1.79,0.6-1.7,1.86
	c0.06,0.89,0.34,3.01,0.75,3.28C152.15,233.49,152.92,232.68,153.71,234.48z M144.46,225.53c0.07-1.77-2.04-10.75-2.32-12.33
	c-0.67,2.19-2.03,11.04-2.3,12.94C141.35,226.09,143.51,225.73,144.46,225.53z M95.87,213.23c-1.94,0-3.52,1.58-3.52,3.52
	c0,1.94,1.58,3.53,3.52,3.53c1.94,0,3.53-1.58,3.53-3.53C99.39,214.81,97.81,213.23,95.87,213.23z M159.03,211.04
	c-1.95,0-3.53,1.59-3.53,3.53c0,1.94,1.59,3.53,3.53,3.53c1.94,0,3.52-1.58,3.52-3.53C162.55,212.63,160.97,211.04,159.03,211.04z
	 M214.15,76.31c-0.39,0.53-0.14,1.67,0.17,2.12c0.26,0.38,0.82,0.52,1.27,0.45c0.57-0.09,0.99-0.55,1.49-0.75
	c1.55-0.61,7.2-3.36,8.31-0.84c-0.42,0.74-24.72,11.17-25.49,11.27c-1.3,0.17-2.7-0.66-2.96-0.97c-0.26-0.31-1.84,0.38-2.05,0.86
	c-0.26,1.41,2.34,7.62,3.92,7.32c1.98-0.38,1.36-1.43,2.36-2.36c0.58-0.54,26.25-11.21,26.67-10.71c0.14,0.59-0.02,1.01-0.09,1.19
	c-0.74,1.74-4.08,2.92-5.72,3.57c-0.68,0.26-1.62,0.42-2.16,0.9c-0.91,0.78-0.34,2.57,0.69,2.92c0.47,0.16,11.9-3.99,12.17-4.3
	c0.2-0.47,0.2-1.11,0.1-1.64c-0.29-1.48-5.5-13.09-6.35-14.06c-0.42-0.48-0.89-0.87-1.61-0.81
	C223.62,70.96,214.97,74.98,214.15,76.31z M229.53,91.47c-3.86,1.39-24.08,7.43-26.13,7.47c-0.89,0.03-1.44-0.66-2.44-0.62
	c-3.14,0.1-0.8,4.54-0.44,5.92c0.43,1.64,0.6,4.28,1.48,5.61c0.53,0.8,2.06,0.66,2.97,0.59c2.86-1.23,6.94-1.09,9.19-1.83
	c0.58-0.32,1.33-0.87,1.33-1.62c-0.06-2.99-10.57,1.71-11.1-2.63c-0.07-0.5,0.35-0.8,0.78-0.96c2.39-0.85,11.98-2.9,11.92-2.9
	c0.17,1.6-4.67,1.31-4.47,3.68c0.05,0.58,0.46,0.98,0.91,1.24c0,0.26,11.89-2.3,12.33-2.55c0.39-0.23,0.6-0.67,0.62-1.13
	c0.12-2.35-4.45-0.8-5.38-2.47c0.23,0,9.45-2.58,10.42-2.61c1.02-0.25,1.16,1.26,1.31,1.73c1.34,4.23-5.65,4.77-7.95,5.98
	c0,0.76,0.42,2,1.11,2.26c1.02,0.37,9.96-1.2,10.83-1.72c0.38-0.24,0.63-0.62,0.69-1.08c0.26-1.22-3.24-14.05-3.88-15.1
	c-0.25-0.4-1.07-0.67-1.07-0.62C229.96,88.12,230.91,90.96,229.53,91.47z M239.71,111.28c-2.91-5-7.89-3.77-13.71-3.77
	c0,0.05-9.46,1.29-11.51,1.7c-1.17,0.24-7.08,1.84-7.86,2.18c-1.14,0.49-2.28,0.92-3.14,1.97c-1.78,2.14-0.91,5.78,1.2,7.35
	c1.82,1.35,7.08,1.45,7.56,1.57c1.33,0.15,4.89,0.11,6.19-0.09c0.35-0.19,0.25-0.57,0.35-1c0.05-0.91,0.17-1.61-0.41-1.98
	c-0.54-0.34-1.85-0.17-2.58-0.17c-2.19,0-8.07,0.4-9.12-1.31c-0.26-0.43-0.33-0.97-0.02-1.42c1.03-2.2,8.79-3.23,11.04-3.36
	c1.5-0.27,13.27-0.89,15.38-0.68c1.2,0.11,3.31,0.63,3.77,1.73c0.28,0.68,0.12,1.53-0.26,2.08c-1.26,1.82-2.99,2.04-5.2,2.25
	c-0.59,0.15-3.72,0.11-4.3,0.41c-0.81,0.42-0.81,2.52,0.07,2.87c0.89,0.27,10.43,0,10.52,0c0.78-0.02,1.6-0.17,2.01-0.82
	c0.49-0.8-0.14-1.51-0.1-2.42c0.27-0.9,0.55-1.81,0.83-2.72C240.73,114.39,240.29,112.26,239.71,111.28z M235.52,142.45
	c-0.73,0.38-0.67,2.36-1.39,2.28c-0.05,0-26.6-5.1-27.38-5.49c-2.12-0.55-0.83-1.75-3.35-2.25c-1.97,0-2.45,5.71-1.29,5.92
	c0.97,0.28,1.09,0.2,1.9,0.07c0.48-0.34,0.99-0.93,1.98-0.61c0.42,0.13,17.68,4.04,17.7,4.08c-0.75,0.96-20.01-0.54-22.02-0.61
	c-1.59,0.06-2.14,2.38-1.42,3.8c1.32,0.69,27.38,9.84,29.23,10.29c1.97,0.48-0.07,2.38,2.85,2.99h0.76c1.12-0.2,2.89-5.98,2.32-7
	c-0.16-0.28-0.99-0.7-1.31-0.76c-1.43-0.27-1.84,0.68-2.6,1.44c0,0.07-16.29-5.06-16.05-5.06c0.03-0.08,18.45,0.01,20.49-0.26
	c0.44-0.18,0.91-0.57,1.1-1c0.42-0.92,1.68-6.58,0.85-7.41C237.42,142.39,235.73,142.29,235.52,142.45z M230.3,164.04
	c2.22,3.24,0.2,7.6-1.81,10.15c-2.22,1.92-5.42,1.31-7.44,0.65c-1.93-0.5-22.7-12.19-23.98-13.97c-0.43-0.57-1.03-1.54-1.16-2.31
	c-0.34-2.06,0.61-4.9,2.72-5.99c1.38-0.8,2.58-0.68,3.89-0.51C205.58,152.64,227.77,160.33,230.3,164.04z M226.05,166.63
	c-1.34-1.13-23.87-11.61-25.62-10.03c-0.98,0.67-0.84,1.69,0.58,2.53c1.58,1.2,21.31,10.93,23.19,11.14
	c1.17,0.31,2.49,0.11,2.99-0.99C227.68,168.2,226.94,167.21,226.05,166.63z M195.31,195.04c-1.23-1.31-8.5-8.5-9.33-9.13
	c-1.23-1.1-4.9-3.88-6.63-3.62c-1.16,0.17-2.46,1.27-3.22,2.18c-0.44,0.5-1.1,1.31-1.1,2.06c-0.55-0.07-1.49,1.02-1.82,1.16
	c-0.7,0.26,1.43,2.94,2.23,4.04c1.82,2.52,3.91,4.98,5.44,7.67c0.49,0.87,0.12,1.57-0.19,2.44c-0.28,0.75,0.88,1.97,1.77,1.9
	c1.09-0.27,4.91-3.21,5.62-4.62c0.25-0.52,0.71-1.02,0.16-2c-1.08-1.27-1.54-0.68-1.77-0.59c-0.45,0.17-1.41,0.27-1.86,0
	c-0.71-0.4-4.57-5.08-5.53-6.97c-0.35-0.68-1.04-2.08-0.22-2.65c0.59-0.25,1.48-0.12,1.98,0.2c4.28,2.62,14.75,15.24,15.51,16.58
	c1.09,1.49,2.79,3.95,1.36,5.75c-2.47,3.08-6.95-1.74-8.95-4.97c-1.13-0.38-2.39-0.32-2.62,1.08c-0.07,0.39,0.18,0.79,0.34,1.07
	c2.54,3.18,5.42,8.28,7,9.12c1,0.14,1.78-0.16,2.46-1.43c2.18-0.02,2.81-0.84,3.37-1.23c2.18-1.58,4.15-4.55,3.46-7.52
	C202.11,203.21,198.39,198.51,195.31,195.04z M213.48,198.1c-1.15,1.97-3.34,4.22-5.92,4.28c-0.96,0.03-2.61-0.28-3.38-0.82
	c-1.86-1.28-10.64-9.8-11.87-11.02c-2.93-3.2-12.45-11.1-7.89-15.4c1.77-2.09,2.79-2.37,5.24-1.89c1.69,0.07,13.17,8.47,14.9,9.87
	C208.9,186.6,217.21,191.69,213.48,198.1z M209.54,194.32c-1.16-2.21-18.73-16.3-19.82-16.71c-0.74-0.55-1.36-0.47-2.2-0.22
	c-0.52,0.49-0.25,1.23-0.05,1.68c0.89,2.15,17.7,17.67,19.71,18.31c0.65,0.45,1.66,0.45,2.42-0.23
	C210.45,196.2,210.21,194.97,209.54,194.32z M221.94,177.73c-0.98,0.02-20.05-10.9-22.89-12.88c-0.35-0.26-0.89-0.62-1.1-1.06
	c-0.35-0.73-0.47-1.51-1.29-1.97c-0.5-0.29-1.49-0.48-2.17-0.14c-1.37,0.74-6.07,8.03-4.9,9.12c0.86,1.02,9.33,7.02,10.29,7.3
	c1.08-0.01,1.57-1.17,1.21-1.86c-0.62-1.21-8.53-6.04-6.18-8.01c0.8-0.84,2.26,0.41,2.83,0.71c0.86,0.63,15.51,9.66,18.73,11.93
	c1.7,1.08,2.8,2.56,2.8,2.62c-0.16,1.17,0.08,2.89,1.59,2.93c1.46,0.02,4.87-5.94,5.2-7.31c0.11-0.48,0-1.16-0.36-1.5
	C224.11,176.09,223.43,178.05,221.94,177.73z M189.93,215.05c-2.65,0.27-4.53-2.56-6.81-4.56c-1.46-1.29-2.8-2.99-4.27-4.34
	c-1.85-1.58-7.98-10.02-8.1-11.52c-0.14-0.5-0.1-1.18-0.01-1.63c0.27-1.3-1.15-2.32-1.37-2.33c-1.35-0.53-5.7,2.47-5.57,4.1
	c0,0.31,0.7,1.48,0.89,1.7c0.47,0.62,1.69,0.11,2.29,0.78c0.61,0.67,3.44,5.59,4.41,7.28c1.42,2.46,1.87,5.12,2.62,7.94
	c0.84,3.14,2.58,10.76,2.18,11.53c-0.12,0.52-0.59,0.63-0.9,1.13c-0.37,0.63,0.11,1.53,0.48,1.97c0.3,0.37,0.6,0.8,1.09,0.75
	c0.87-0.09,5.31-2.18,5.71-3.4c0.29-0.87-0.63-2.05-1.19-2.28c-0.67-0.11-0.95-0.04-1.39,0.17c-0.45-0.17-3-11.09-2.95-11.05
	c0.12,0,7.3,5.47,7.82,7.25c0.22,0.82-0.33,1.27-0.1,2.1c0.11,0.42,0.73,1.44,1.12,1.59c1.73,0.45,6.57-3.15,6.71-4.85
	C192.31,216.2,191.15,214.78,189.93,215.05z M236.5,122.82c-0.32,0.46-0.47,0.9-1.17,1.02c-1.51,0.04-27.17-0.03-27.76-0.62
	c-0.57-0.56-1.18-1.29-2.2-1.29c-0.48,0-1.37,0.27-1.62,0.71c-0.46,0.8-0.46,4.79-0.05,5.57c0.14,0.28,0.48,0.49,0.79,0.63
	l1.08,0.19c0.45-0.19,0.79-0.56,1.22-0.76c0.49-0.17,1.07-0.32,1.57-0.49c0-0.06,11.23,0.07,11.44,1.08c0.2,0.48,0.27,2.8-0.21,3.07
	c-0.81,0.61-11.23-0.6-11.95-0.85c-1.66-0.51-0.92-1.32-2.62-1.71c-2.79-0.22-2.47,4.82-1.99,6c0.22,0.54,0.49,0.92,1.46,1.1
	c1.55,0,1.14-0.54,1.82-0.71c1.52-0.15,28.93,4.28,28.93,4.41c0.14,0.89,0,1.5,2.86,1.5c0.51-0.22,0.8-0.84,0.9-1.37
	c0.16-0.93,0.65-5.68,0.37-6.55c-0.14-0.44,0.02-1.06-0.93-1.03c-2.79-0.24-2.39,1.33-3.13,1.26c-0.88,0.12-11.3,0-11.5-1.36
	c-0.29-0.34-0.23-1.53-0.2-2.04c0.03-0.66,0.34-1.4,0.96-1.62c1.22,0.06,8.71-0.17,11.06,0.73c0.97,0.37,0.48,1.64,1.74,1.71
	c0.26-0.04,1.38,0.03,1.63,0c0.5-0.21,0.57-0.73,0.73-1.24c0.37-1.19,0.52-7.02-0.35-7.81C238.05,122.07,236.89,122.01,236.5,122.82
	z M118.43,24.61c0.74,0.38,1.57-0.35,1.76-1c0.75-2.53-0.82-7.71,1.61-9.28c0.28-0.19,0.93-0.27,1.16,0.08
	c0.4,1.36,0.36,24.22,0.27,26.82c0,2.79-1.71,0.99-1.63,4.96c0.55,1.77,7.74,1.49,7.96,0.07c0.34-4.15-1.58-2.25-1.7-4.9
	c-0.08-3.88,0.14-23.89,0.14-24.03c0.03-1.33-0.14-3.2,0.41-3.33c0.61,0.06,1.36,0,1.86,0.98c0.45,1.06,0.43,7.88,0.81,8.79
	c0.25,0.63,1.17,0.94,1.82,0.77c0.53-0.14,1.03-1.36,1.09-1.36c0.14-0.96,0.41-9.33,0.21-11.78c-0.28-2.66-16.88-1.64-17.25-0.55
	c-0.42,0.36-0.55,1.04-0.57,1.6l0.92,10.5C117.49,23.64,117.78,24.29,118.43,24.61z M134.55,44.24c0.37,1.73,1.25,3.54,2.93,4.25
	c2.07,0.87,4.69,0.97,6.28-0.83c2.88-3.37,7.51-30.2,8.5-30.31c1.53,0.05,2.28-1.85,1.94-3.42c-0.45-0.84-5.24-2.04-6.26-1.63
	c-1.08,0-1.32,1.88-1.23,2.72c0.13,1.22,1.23,0.48,1.27,2.19c0.09,0.88-3.88,21.11-5.55,26.54c-0.26,0.83-1.1,1.4-2.03,1.31
	c-2.87-0.29-1.09-6.5-0.92-8.3c0.11-1.26,2.42-19.43,2.96-20.73c0.28-0.67,1.01-0.65,1.49-1.07c0.53-0.47,0.94-1.84,0.66-2.54
	c0.15-1.62-8.83-2.7-8.98-1.07c-0.74,4.15,1.36,1.98,1.21,4.81C136.6,22.75,134.1,42.16,134.55,44.24z M108.72,16.78
	c0.18,1.32,3.75,26.18,3.59,26.97c-0.11,1.48-1.13,1.21-0.83,3.1c-0.04,2.33,7.11,1.45,6.98-0.52c0.25-1.67-0.53-1.72-1.26-2.81
	c-0.51-0.6-3.17-25.99-2.88-27.72c0.18-0.99,1.17-1.07,1.41-1.95c0.07-1.7-0.27-3.26-1.54-3.14c-1.32-0.32-7.65,0.15-7.71,1.58
	C106.35,16.31,107.78,14.19,108.72,16.78z M93.14,29.47c0.6-0.26,0.95-0.57,1.04-1.32c0.25-1.57-3.15-9.54-0.05-9.51
	c0.23-0.01,0.45,0.16,0.56,0.34c0.62,0.6,7.2,26.08,7.02,27.14c-0.5,0.57-0.64,0.72-0.95,1.36c0,0.72,0.08,1.77,0.64,2.19
	c1.09,0.84,6.17-0.77,6.98-1.64c0.32-0.35,0.21-0.88,0.07-1.5c-0.42-1.86-1.64-0.63-2.11-2.18c-1.5-5.72-6.6-26.47-6.19-27.02
	c0.4-0.34,0.74-0.26,0.93-0.23c2.34,0.45,2.46,6.48,3.37,8.25c0.47,0.92,1.62,1.29,2.44,0.54c0.37-0.33,0.44-0.87,0.44-1.4
	c-0.72-4.52-1.94-11.37-2.28-11.59c-0.6-0.69-1.63-0.88-2.66-0.54c-1.22,0.16-14.39,3.23-14.7,4.7c-0.47,0.61,2.59,9.46,3.56,11.57
	C91.58,29.05,91.85,29.92,93.14,29.47z M156.46,49.43c-0.11-0.36-0.52-0.54-0.55-0.99c-0.09-1.64,8.96-27.64,9.78-27.23
	c1.9,0.75,0.57,5.48-0.05,7.15c-0.32,0.86-0.73,1.59-0.79,2.63c-0.03,0.55,0.6,1.39,1.11,1.57c0.44,0.15,1.19,0.14,1.38-0.25
	c0.81-1.7,4.76-10.35,4.69-11.91c-0.27-1.97-15.32-7.28-15.92-5.72c-1.7,2.38-3.82,10.61-4.22,11.97c-0.14,0.61,0.2,1.36,1.13,1.56
	c0.84,0.14,1.59-0.68,2.45-2.26c0.78-2.56,2.95-7.94,5.07-6.65c0.41,0.41-8.51,26-9.32,27.95c-1.1-0.44-1.61,0.45-1.81,0.77
	c-1.59,2.48,1.68,2.97,3.14,3.57c0.73,0.29,2.81,1.34,3.48,0.49C156.55,51.42,156.65,50,156.46,49.43z M81.09,38.19
	c3.27,1.9,8.32,0.4,10.5,4c0.81,0.93,3.19,7.94-0.28,8.04c-2.28,0.07-4.64-4.16-5.51-5.87c-0.43-0.84-1.03-1.84-1.57-2.65
	c-0.58-0.57-2.93-0.76-2.25,1.9c1.16,2.34,4.97,10.21,5.77,11.56c0.5,1.03,1.31,1.85,3.25-0.83c0.96-0.29,2.28,0.03,3.1-0.51
	c5.44-3.57,1.76-14.85-1.98-18.26c-1.43-1.76-6.68-2.06-7.43-2.11c-0.95-0.17-1.93-0.59-2.77-1c-1.34-0.65-2.83-3.89-3.08-5.36
	c-0.55-3.06,2.71-4.83,4.85-2.82c1.73,1.62,2.36,4.18,3.47,6.15c0.28,0.51,0.72,0.95,1.35,0.91c0.55-0.04,1.37-0.46,1.37-1.75
	c-0.27-2.11-2.38-6.74-3.74-10.62c-0.36-0.49-0.86-0.96-1.45-1.1c-0.72,0.02-1.16,1.05-1.74,1.57c-4.22-0.67-7.37,2.2-8.1,4.41
	c-0.76,2.32-0.04,5.27,0.71,7.24C76.6,33.92,78.41,36.64,81.09,38.19z M173.07,26.3c-0.77,1.58-11.53,24.05-11.87,24.45
	c-0.89,0.2-2.79,0.61-2.48,2.57c0.1,1.31,1.33,1.86,2.42,1.98c2.24,1.28,4.63,2.73,7,3.65c0.89,0.44,6.26-8.4,7.47-10.32
	c0.12-0.31,0.15-1.03-0.06-1.33c-0.41-0.64-1.34-0.73-1.93-0.3c-0.99,0.89-3.23,4.57-4.38,5.56c-0.63,0.5-1.99,2.62-4.1,0.57
	c0.13-0.55,5.9-11.52,6.33-11.85c0.39,0.12,0.61,0.62,0.41,1.22c-0.41,1.16-1.63,4.56-0.05,4.85c0.86,0.06,5.81-8.67,6.72-10.28
	c0.75-1.78-0.27-2.59-1.45-2.28c-0.86,0.71-2.83,4.05-3.92,2.76c0.14-0.41,4.66-9.26,5.32-9.5c1.53-0.57,3.34,1.2,3.46,2.61
	c0.55,1.23-1.77,5.6-2.3,6.33c-0.15,0.63,0.19,1.46,0.78,1.67c0.39,0.13,1.03,0.07,1.37-0.14c0.76-0.63,6-8.12,5.88-9.43
	c0-1.22-13.22-9.37-14.24-8.14C170.53,24.82,174.27,23.86,173.07,26.3z M47.73,44.01c0.47,0.17,1.58-0.04,1.99-0.14
	c0-0.25,16.3,18.09,18.64,21.37c1.05,1.47-0.67,1.8,1.92,3.68c1.56-0.04,4.85-3.59,4.97-4.4c-0.21-1.7-1.69-2.12-1.77-2.11
	c-0.82,0.14-1.4-0.29-1.83-0.63c-1.16-1.21-17.49-20.7-17.29-21.24c0.07-0.85,0.6-1.6,0.27-2.59c-0.56-0.91-1.76-1.58-2.73-1.22
	c-1.51,0.56-4.08,2.85-5.17,4.44C46.16,42.09,46.8,43.67,47.73,44.01z M58.21,37.2c0.64,0.46,15.34,20.31,15.95,21.84
	c0.14,0.61,0.28,1.02,0.14,2.25c0.27,2.11,1.7,2.23,1.7,2.18c1.44-0.19,5.03-2.31,4.01-4.28c-0.77-1.54-2.24-1.08-3.16-2.18
	c-1.26-1.49-11.47-15.94-11.47-16c1.23,0.27,15.89,16.69,17.28,17.38c0.96,0.52,3.62-0.78,3.21-2.68
	c-0.21-1.15-13.95-26-14.33-27.05c-0.11-0.82,0.54-1.31,0.72-1.96c0.4-1.47-0.66-2.59-2.08-2.73c-1.94,0.09-5.55,3.09-5.61,4.04
	c-0.33,2.25,2.87,1.52,3.74,2.69c2.01,2.72,8.09,13.31,8.37,14.94c0.19,0-13.48-13.21-15.27-14.79c-1.88-1.41-4.07,1.11-4.88,1.71
	c-0.75,0.49-2.84,2.39-2.18,3.6C55.25,37.82,57,36.34,58.21,37.2z M176.23,61.42c1.05-3.39,13.99-18.33,17.38-20.4
	c2.04-1.9,6.8-5.31,11.52,0.18c1.68,1.86,2.78,3.81,1.87,6.57c-1.22,4.35-20.41,20.2-25.26,20.84
	C178.97,68.71,175.02,67.49,176.23,61.42z M180.4,64.97c2.86,0.68,22.55-18.27,22.46-20.01c0.21-1.47-1.04-2.76-2.18-2.72
	c-1.99-0.86-20.55,18.78-21.1,20.82C179.17,64.08,179.24,64.36,180.4,64.97z M182.85,70.49c-0.28,1.29,2.72,5.1,3.74,5.3
	c0.66,0.2,1.53-0.4,1.96-0.79c1.51-1.05,0.22-1.94,1.31-2.82c0.95-1.02,8.18-6.01,9.32-6.81c0.21,0.34,0.43,0.87,0.23,1.38
	c-0.47,1.24-3.5,2.08-2.93,3.82c0.22,0.65,0.98,1.03,1.6,0.85c0.72-0.11,10.89-6.88,11.03-7.49c-0.41-3.26-2.92-0.95-4.02-0.46
	c-1.96,0.8-2.65-0.36-2.72-0.36c1.02-0.95,8.14-6.68,9.6-7.28c0.61,0.34,1.34,1.23,1.83,1.9c2.51,3.68-4.97,6.81-5.11,7.69
	c0.05,0.62,0.23,1.49,0.99,1.91c0.92,0.13,9.4-5.15,9.82-5.85c0.28-0.47,0.23-1.3,0.02-1.79c-0.49-1.16-6.83-9.96-7.81-10.8
	c-0.68-0.58-1.36-0.74-2.38-0.78c-0.39,0.54-0.97,1.07-1.16,1.75c-0.22,0.8,0.3,1.29-0.36,1.97c-0.48,0.86-19.54,16.59-20.81,16.72
	C185.51,68.71,184.35,67.96,182.85,70.49z M125,249.5C56.35,249.5,0.5,193.65,0.5,125C0.5,56.35,56.35,0.5,125,0.5
	c68.65,0,124.5,55.85,124.5,124.5C249.5,193.65,193.65,249.5,125,249.5z M125,3.38C57.94,3.38,3.38,57.94,3.38,125
	c0,67.06,54.56,121.62,121.61,121.62c67.06,0,121.62-54.56,121.62-121.62C246.61,57.94,192.06,3.38,125,3.38z M124.91,197.93
	c-40.51,0-73.47-32.73-73.47-72.96c0-40.23,32.96-72.95,73.47-72.95c40.51,0,73.46,32.73,73.46,72.95
	C198.37,165.2,165.42,197.93,124.91,197.93z M124.91,53.57C85.26,53.57,53,85.6,53,124.97c0,39.37,32.26,71.41,71.91,71.41
	c39.65,0,71.9-32.03,71.9-71.41C196.82,85.6,164.56,53.57,124.91,53.57z M125,194.05c-38.38,0-69.6-30.98-69.6-69.05
	c0-38.22,31.34-69.32,69.86-69.32c38.23,0,69.33,31.1,69.33,69.32C194.59,163.07,163.37,194.05,125,194.05z M125.27,56.56
	c-38.03,0-68.98,30.7-68.98,68.43c0,37.59,30.82,68.17,68.71,68.17c37.88,0,68.71-30.58,68.71-68.17
	C193.7,87.26,163,56.56,125.27,56.56z M143.22,142.97v0.54c0,0.35-0.23,0.64-0.54,0.75c-0.92,2.8-3.2,4.55-5.67,5.44
	c0.41,0.36,0.77,0.92,0.79,1.84c0.06,2.6-1.24,3.49-1.63,3.7c-0.05,0.03-0.08,0.02-0.12,0.04c-0.06,0.16-0.18,0.29-0.36,0.29h-25.93
	c-0.22,0-0.4-0.17-0.41-0.39c-0.16-2.09,1.81-2.69,3.54-3.21c0.83-0.25,1.69-0.51,2.3-0.91c0.1-0.05,1.63-0.61,1.39-1.59
	c-0.19-0.75-1.96-1.15-3.52-1.51c-1.73-0.39-3.51-0.8-4.33-1.77c0,0-0.01-0.01-0.01-0.01c-0.15-0.15-0.17-0.26-0.11-1.33l0-0.12
	c0-0.13,0.08-0.24,0.17-0.31c0.17-0.28,0.6-0.72,1.63-1.75c0.42-0.42,0.95-0.95,1.04-1.07c0.07-0.14,0.21-0.21,0.36-0.21h4.99
	c0.49-0.47,1.01-1.01,1.14-1.19c0.08-0.11,0.2-0.17,0.33-0.17h14.1c0.23,0,0.42,0.19,0.42,0.42v0.47l2.69-0.01c0,0,0,0,0,0
	c0.11,0,0.22,0.05,0.3,0.13c0.08,0.08,0.12,0.19,0.12,0.3l-0.02,0.85c0.01,0,0.02-0.01,0.03-0.01h6.53
	C142.86,142.17,143.22,142.53,143.22,142.97z M124.11,120.51c0-0.88,1.02-1.84,1.7-0.14c2.11-1.16,5.37,2.19,5.65,3.55
	c2.04,0.2,1.29,1.29,0.47,1.77c0.13,0.41,1.02,3.88-1.5,5.78c-0.54,0.41,0.82,0.82-0.2,1.7c-0.43-0.09-0.89-0.67-1.36-0.55
	c-1.43,1.36-5.52,1.02-6.81-0.06c-0.29-0.11-1.97,0.61-1.36-1.3c-2.18-2.11-2.31-4.76-1.29-6.13c-1.3-0.54-0.75-1.9,0.27-1.63
	C120.37,122.07,121.8,120.85,124.11,120.51 M101.79,120.51c0-0.88,1.02-1.84,1.7-0.14c2.11-1.16,5.38,2.19,5.65,3.55
	c2.04,0.2,1.29,1.29,0.47,1.77c0.14,0.41,1.02,3.88-1.49,5.78c-0.55,0.41,0.82,0.82-0.21,1.7c-0.43-0.09-0.89-0.67-1.36-0.55
	c-1.43,1.36-5.51,1.02-6.81-0.06c-0.29-0.11-1.97,0.61-1.36-1.3c-2.18-2.11-2.31-4.76-1.29-6.13c-1.29-0.54-0.75-1.9,0.27-1.63
	C98.04,122.07,99.47,120.85,101.79,120.51 M145.35,120.51c0-0.88,1.02-1.84,1.7-0.14c2.11-1.16,5.38,2.19,5.65,3.55
	c2.05,0.2,1.29,1.29,0.48,1.77c0.14,0.41,1.02,3.88-1.5,5.78c-0.54,0.41,0.82,0.82-0.2,1.7c-0.43-0.09-0.89-0.67-1.36-0.55
	c-1.43,1.36-5.51,1.02-6.81-0.06c-0.28-0.11-1.97,0.61-1.36-1.3c-2.18-2.11-2.31-4.76-1.29-6.13c-1.3-0.54-0.75-1.9,0.27-1.63
	C141.6,122.07,143.03,120.85,145.35,120.51 M115.07,100.61v14.48c0,1.2-1.48,2.16-2.71,2.16H92.98c-1.19,0-2.16-0.97-2.16-2.16
	v-14.48c0-0.35,0.21-0.67,0.63-0.93c1.92-1.22,8.7-1.6,11.59-0.37c4.18-1.34,9.91-0.72,11.49,0.41
	C114.89,99.98,115.07,100.28,115.07,100.61z M159.72,100.61v14.48c0,1.2-1.48,2.16-2.7,2.16h-19.38c-1.19,0-2.16-0.97-2.16-2.16
	v-14.48c0-0.35,0.21-0.67,0.63-0.93c1.91-1.22,8.69-1.6,11.59-0.37c4.18-1.34,9.91-0.73,11.48,0.41
	C159.53,99.98,159.72,100.28,159.72,100.61z"/>
<path fill="#FFFFFF" d="M123.67,62.15c1.7-0.07,1.29,0.81,2.18,2.31c1.77,1.22,4.42-0.82,4.49-0.82c0.75,1.29,0.48,2.99-1.63,4.22
	c-0.06,0-1.36,0.34-1.97,0.41c-2.68,0.44-4.66,7.79-5.68,8.88c1.77,3.82,5.99-1.29,8.78,4.5c-0.22,0-3.25,1.82-3.54,1.84
	c0,0.08-2.15-1.14-2.86-1.49c-1.26,0-1.37,0.5-2.32,1.41c-0.07,0-0.39,0.08-0.47,0.08c-1.63-1.43-4.05-1.33-4.28-1.49
	c-1.3-0.89-3.06-2.87-3.07-2.93c0.27-2.65,7.54-9.77,9.15-12.35C123.5,65,122.58,63.3,123.67,62.15 M131.63,63.44
	c-0.16,0.16,0,1.39,0,1.63c0.62,0.46,6.25,4.16,6.53,4.16c0-0.25,0.8-1.29,0.48-1.29C136.94,66.78,133.34,64.59,131.63,63.44
	 M140.55,66.64c-0.7,1.3-2.86,5.04-3.41,6.67c0.21,0,2.59,0.95,4.36-1.97C141.77,69.9,143.68,67.18,140.55,66.64 M139.94,82.97
	c-0.36,0.24-1.73,0.55-1.87,0.99c-0.38,1.15,1.94,3.56,2.96,3.74c0.74,0.13,2.92-1.14,2.92-1.29
	C142.72,85.3,141.53,83.65,139.94,82.97 M117.38,82.97c-0.48,0.36-1.57,0.95-1.57,1.67c0.91,0.77,2.18,3.38,3.5,3.38
	c0.75-0.15,1.81-1.3,2.04-2.49c1.32,0.58,2.2,2.32,3.06,2.32c1.19-0.07,1.7-0.68,2.15-1.19c0.69-0.81-1.43-2.98-2.45-3.44
	c-2.08-0.92-3.13,1.36-3.13,1.36c-0.07,0-0.64-0.03-0.71-0.03C119.18,83.99,119.69,83.11,117.38,82.97 M129.63,82.97
	c-0.82-0.04-2.05,1.02-2.42,1.33c0.85,2.83,2.21,3.61,3.44,3.78c0,0.08,2.01-1.19,1.84-1.97C132.66,85.01,129.7,83.05,129.63,82.97
	 M134.53,82.74c-0.29,0.18-1.71,0.84-1.87,1.22c-0.45,0.96,1.92,3.95,2.82,4.02c1.3,0.1,2.68-1.12,2.51-1.83
	C137.29,85.12,136.33,83.18,134.53,82.74 M111.39,83.01c-0.58,0.07-2.28,1.13-2.28,1.19c1.2,0.66,2.89,3.33,3.88,3.74
	c0.82,0.34,2.25-1.26,2.18-1.26C115.22,84.67,113.1,83.23,111.39,83.01 M128.98,59.62c-0.41-0.13-1.46,1.95-1.63,2.11
	c-0.17,0.17,0.78,0.17,0.78,0.17s0.31,0.65,0.34,0.89c0.04,0.23,1.06-0.72,1.47-1.6C130.34,60.31,129.39,59.77,128.98,59.62
	 M128.29,59.56c0-0.41-0.27-0.58-0.54-0.55c-0.27,0.04-1.57,1.33-1.63,1.63c-0.06,0.31-0.04,0.78,0.55,0.55
	C127.25,60.96,128.29,59.96,128.29,59.56 M126.42,59.39c0-0.41-0.27-0.58-0.54-0.55c-0.27,0.04-0.79,0.41-0.85,0.72
	c-0.07,0.31,0.17,0.61,0.54,0.54C126.19,59.99,126.42,59.79,126.42,59.39 M124.52,60.24c0-0.41,0.06-0.89-0.21-0.85
	c-0.27,0.04-0.92,0.82-0.98,1.12c-0.07,0.3,0.2,0.44,0.61,0.82C124.52,61.13,124.52,60.65,124.52,60.24 M93.08,114.31l0-13.09
	c0.33-0.17,1.7-0.4,2.62-0.56c0.97-0.16,1.81-0.31,2.21-0.45c0.07-0.01,0.17-0.03,0.29-0.07c0.8-0.21,2.64-0.68,4.14,0.77
	c0.02,0.74,0.02,5.8-0.01,13.47c-2.15-1.12-3.53-1.13-6.77-0.15C94.67,114.51,93.23,114.5,93.08,114.31z M107.57,113.57
	c0.04-0.01,0.09-0.01,0.15-0.01c0.36,0,0.93,0.17,1.84,0.43c0.99,0.29,3.01,0.9,3.38,0.57c0-0.53,0-3.44,0-6.26
	c0-4.91,0-6.38,0-6.83c-1.93-1.08-7.14-2.27-9.39-0.43c0.03,0.55,0.03,2.13,0,6.91c-0.01,2.75-0.03,5.83-0.01,6.62
	c0.55,0.06,1.77-0.33,2.71-0.62C106.73,113.81,107.19,113.67,107.57,113.57z M137.73,114.31l0-13.09c0.33-0.17,1.7-0.4,2.63-0.56
	c0.93-0.16,1.8-0.3,2.21-0.45c0.07-0.01,0.16-0.03,0.29-0.07c0.79-0.21,2.63-0.68,4.14,0.77c0.02,0.74,0.02,5.8-0.01,13.47
	c-2.13-1.11-3.57-1.12-6.76-0.15C139.32,114.51,137.88,114.5,137.73,114.31z M148.21,101.04c0.03,0.55,0.03,2.1,0,6.79
	c-0.01,2.81-0.03,5.95-0.01,6.74c0.55,0.03,1.77-0.33,2.69-0.61c0.48-0.15,0.94-0.29,1.33-0.38c0.05-0.01,0.1-0.01,0.15-0.01
	c0.36,0,0.94,0.17,1.86,0.44c0.99,0.29,3,0.89,3.37,0.56c-0.01-9.97-0.01-12.45,0-13.09C155.67,100.39,150.45,99.2,148.21,101.04z
	 M81.48,141.71c-1.04,0.36-3.04,0.97-4.13,1.29c-1.07-2.86-1.83-5.71-2.26-8.49c0.66-0.31,1.27-0.76,1.83-1.22
	c0.08,0.2,0.17,0.45,0.26,0.7C78.02,136.25,79.5,140.24,81.48,141.71z M82.21,133.85c-0.45-1.12-1.16-2-1.87-2.29
	c-0.33-0.14-0.65-0.15-0.94-0.02c-0.91,0.39-1.07,1.97-0.38,3.67c0.45,1.13,1.17,2.01,1.87,2.3c0.17,0.07,0.34,0.11,0.51,0.11
	c0.15,0,0.29-0.03,0.43-0.09C82.74,137.13,82.9,135.55,82.21,133.85z M173.12,133.06c0.05-0.19,0.09-0.38,0.13-0.54
	c0.47,0.39,0.93,0.76,1.53,1.04c-0.38,3.38-0.99,6.99-2.77,10.67c-1.94-0.6-3.4-1.24-4.13-1.61
	C171.28,140.67,172.56,135.4,173.12,133.06z M171.28,131.12c-0.3-0.31-0.7-0.43-1.17-0.35c-1.32,0.23-2.95,2.08-3.41,3.22
	c-0.47,1.17-0.65,3.44-0.19,4.31c0.12,0.22,0.28,0.36,0.51,0.4c0.03,0,0.06,0,0.09,0c0.84,0,1.26-0.91,1.66-1.79
	c0.34-0.74,0.7-1.51,1.24-1.64c0.35-0.08,0.8,0.09,1.34,0.51c0.07,0.05,0.16,0.07,0.24,0.05c0.08-0.02,0.15-0.08,0.18-0.16
	C172.34,134.27,172.69,131.81,171.28,131.12z M118.44,140.87h13.49v0.28c-0.53,0.81-1.12,1.68-1.35,2.02l-14.38-0.07
	c0-0.06,0-0.13,0-0.18C116.93,142.51,118.04,141.31,118.44,140.87z M115.62,142.36c0.07-0.03,0.14-0.08,0.21-0.13h-3.83
	c-0.17,0.2-0.48,0.5-1.02,1.04c-0.3,0.3-0.72,0.72-1.05,1.06c2.14,0,4.2-0.01,4.92-0.02c0.09-0.33,0.23-0.74,0.52-1.01
	c-0.01-0.24-0.02-0.58,0.06-0.73C115.47,142.47,115.54,142.4,115.62,142.36z M133.3,153.09c-1.11-0.26-3.03-1.01-3.79-1.97
	c-0.53-0.67-0.75-1.33-0.67-1.95c0.13-0.96,0.95-1.56,1.39-1.89c0.05-0.04,0.1-0.07,0.14-0.1c0-0.23,0.01-0.57,0.02-0.96
	c0.01-0.67,0.03-1.69,0.03-2.22c-9.73-0.01-13.15-0.01-14.35-0.15c-0.31,0.33-0.45,0.6-0.45,0.89c0,0.23-0.19,0.42-0.42,0.42h-5.79
	c-0.01,0.3-0.01,0.46-0.01,0.55c0.67,0.72,2.35,1.1,3.84,1.44c1.97,0.45,3.84,0.87,4.14,2.12c0.42,1.71-1.74,2.5-1.83,2.54
	c-0.63,0.42-1.54,0.7-2.43,0.97c-1.7,0.52-2.8,0.93-2.94,1.97h25.13C135.36,154.3,135.25,153.55,133.3,153.09z M133.83,147.01v-2
	h-2.31v2H133.83z M135.89,144.31c-0.31,0-0.57-0.18-0.71-0.44c-0.11,0.19-0.22,0.4-0.31,0.57c0,0.01,0.01,0.02,0.01,0.03v3.07
	c0,0.29-0.24,0.53-0.53,0.53h-3.37c-0.11,0-0.19-0.06-0.27-0.11l-0.03,0.02c-0.24,0.19-0.62,0.49-0.85,0.83
	c0.71,0.56,1.84,0.74,2.04,0.75c2.62,0.29,8.21-0.72,9.91-5.24H135.89z M131.23,144.09h2.88l0.9-1.56l0.02-0.79l-2.48,0.01
	c-0.3,0.44-1.08,1.61-1.32,1.97V144.09z M126.23,121.19c0.95-0.14,1.7,0.41,2.24,1.29c1.03,0.54,2.04,0.81,1.98,1.49
	c0,0.68-1.84,1.5-1.84,1.43c-0.82-0.54-1.5-1.77-2.79-1.84C125.75,123.57,125.54,121.94,126.23,121.19 M126.83,125.28
	c-0.55,0.34-1.09,1.97,0.61,1.63C127.93,125.81,126.98,125.49,126.83,125.28 M130.92,125.28c-0.95,0-2.36,0.82-2.31,0.88
	c0.27,1.23-0.56,1.55-0.62,2.66c-0.07,0.05,1.48,1.89,2.04,1.43c0.57-0.39,0.9-1.08,0.81-2.25
	C131.25,127.08,131.47,126,130.92,125.28 M128.7,131.75c-0.32-0.96-1.59-2.18-1.63-2.12c-1.11,0.53-1.97-0.09-3.07,0.1
	c-0.07-0.06-1.34,1.89-0.7,2.36c0.57,0.48,1.34,0.54,2.45,0.2C126.77,132.49,128.18,132.46,128.7,131.75 M121.41,130.69
	c0.84-0.47,1.81-1.79,1.76-1.82c-0.74-0.75-0.21-2.09-0.58-3.14c0.07-0.11-2.28-0.6-2.63,0.01c-0.33,0.75-0.16,1.88,0.39,2.68
	C120.35,129.27,120.7,130.51,121.41,130.69 M120.5,124.32c1.23,0.34,2.52,0.68,2.52,0.62c0.37-1,0.96-0.82,1.91-1.36
	c0.11,0.01,0.3-2.3-0.34-2.38c-0.79-0.03-2.01,0.52-2.51,1.34C121.24,122.93,120.34,123.56,120.5,124.32 M123.7,126.02
	c-0.54,0.34-0.68,1.09,0.55,1.02C124.66,125.55,123.85,126.24,123.7,126.02 M124.45,127.45c-0.54,0.34-0.95,1.42,0.68,1.29
	C125.88,127.25,124.6,127.66,124.45,127.45 M126.29,127.45c-0.55,0.34-0.61,1.77,0.75,1.42
	C127.79,127.38,126.44,127.66,126.29,127.45 M125.13,124.45c-0.75,0.14-1.09,1.43,0.41,1.43
	C126.36,124.79,125.28,124.67,125.13,124.45 M103.9,121.19c0.95-0.14,1.7,0.41,2.25,1.29c1.02,0.54,2.04,0.81,1.97,1.49
	c0,0.68-1.84,1.5-1.84,1.43c-0.82-0.54-1.5-1.77-2.8-1.84C103.42,123.57,103.22,121.94,103.9,121.19 M104.51,125.28
	c-0.55,0.34-1.09,1.97,0.61,1.63C105.6,125.81,104.66,125.49,104.51,125.28 M108.59,125.28c-0.95,0-2.35,0.82-2.31,0.88
	c0.27,1.23-0.56,1.55-0.62,2.66c-0.07,0.05,1.48,1.89,2.04,1.43c0.57-0.39,0.9-1.08,0.82-2.25
	C108.92,127.08,109.14,126,108.59,125.28 M106.37,131.75c-0.32-0.96-1.59-2.18-1.63-2.12c-1.1,0.53-1.97-0.09-3.06,0.1
	c-0.08-0.06-1.36,1.89-0.71,2.36c0.57,0.48,1.35,0.54,2.45,0.2C104.45,132.49,105.86,132.46,106.37,131.75 M99.08,130.69
	c0.84-0.47,1.81-1.79,1.76-1.82c-0.74-0.75-0.2-2.09-0.57-3.14c0.06-0.11-2.28-0.6-2.62,0.01c-0.33,0.75-0.16,1.88,0.38,2.68
	C98.03,129.27,98.38,130.51,99.08,130.69 M98.18,124.32c1.22,0.34,2.53,0.68,2.52,0.62c0.36-1,0.95-0.82,1.9-1.36
	c0.11,0.01,0.31-2.3-0.34-2.38c-0.79-0.03-2.01,0.52-2.52,1.34C98.92,122.93,98.01,123.56,98.18,124.32 M101.38,126.02
	c-0.55,0.34-0.68,1.09,0.54,1.02C102.33,125.55,101.53,126.24,101.38,126.02 M102.13,127.45c-0.55,0.34-0.95,1.42,0.68,1.29
	C103.56,127.25,102.28,127.66,102.13,127.45 M103.96,127.45c-0.54,0.34-0.61,1.77,0.75,1.42
	C105.47,127.38,104.11,127.66,103.96,127.45 M102.81,124.45c-0.74,0.14-1.08,1.43,0.41,1.43
	C104.03,124.79,102.96,124.67,102.81,124.45 M147.46,121.19c0.95-0.14,1.7,0.41,2.25,1.29c1.02,0.54,2.04,0.81,1.97,1.49
	c0,0.68-1.83,1.5-1.83,1.43c-0.81-0.54-1.5-1.77-2.79-1.84C146.98,123.57,146.78,121.94,147.46,121.19 M148.07,125.28
	c-0.54,0.34-1.08,1.97,0.62,1.63C149.16,125.81,148.22,125.49,148.07,125.28 M152.15,125.28c-0.95,0-2.35,0.82-2.31,0.88
	c0.27,1.23-0.56,1.55-0.62,2.66c-0.07,0.05,1.48,1.89,2.04,1.43c0.57-0.39,0.9-1.08,0.82-2.25
	C152.49,127.08,152.7,126,152.15,125.28 M149.93,131.75c-0.32-0.96-1.59-2.18-1.63-2.12c-1.1,0.53-1.97-0.09-3.06,0.1
	c-0.08-0.06-1.36,1.89-0.71,2.36c0.57,0.48,1.35,0.54,2.45,0.2C148,132.49,149.41,132.46,149.93,131.75 M142.64,130.69
	c0.84-0.47,1.82-1.79,1.76-1.82c-0.74-0.75-0.2-2.09-0.57-3.14c0.05-0.11-2.29-0.6-2.62,0.01c-0.33,0.75-0.16,1.88,0.37,2.68
	C141.59,129.27,141.93,130.51,142.64,130.69 M141.74,124.32c1.23,0.34,2.53,0.68,2.52,0.62c0.36-1,0.95-0.82,1.9-1.36
	c0.11,0.01,0.3-2.3-0.34-2.38c-0.79-0.03-2.01,0.52-2.52,1.34C142.48,122.93,141.57,123.56,141.74,124.32 M144.94,126.02
	c-0.55,0.34-0.68,1.09,0.54,1.02C145.89,125.55,145.08,126.24,144.94,126.02 M145.69,127.45c-0.55,0.34-0.95,1.42,0.68,1.29
	C147.12,127.25,145.83,127.66,145.69,127.45 M147.52,127.45c-0.54,0.34-0.61,1.77,0.75,1.42
	C149.03,127.38,147.67,127.66,147.52,127.45 M146.37,124.45c-0.74,0.14-1.08,1.43,0.41,1.43
	C147.6,124.79,146.51,124.67,146.37,124.45"/>
</svg>
