<?xml version="1.0" encoding="utf-8"?>
<!-- Generator: Adobe Illustrator 22.0.1, SVG Export Plug-In . SVG Version: 6.00 Build 0)  -->
<svg version="1.1" id="Layer_1" xmlns="http://www.w3.org/2000/svg" xmlns:xlink="http://www.w3.org/1999/xlink" x="0px" y="0px"
	 width="250.1px" height="250.1px" viewBox="0 0 250.1 250.1" enable-background="new 0 0 250.1 250.1" xml:space="preserve">
<g>
	<g>
		<path fill="#FFFFFF" d="M2.1,125.05C2.1,57.15,57.15,2.1,125.05,2.1S248,57.15,248,125.05C248,192.96,192.95,248,125.05,248
			S2.1,192.96,2.1,125.05"/>
		<path fill="#143B87" d="M126.31,114.35l15.12-0.21l2.17-7.76l-16.87-0.41v-3.11l12.73-0.21l1.76-7.14l-14.8-0.21v-3.41l10.76-0.31
			l2.07-7.04l-12.84-0.1l-0.1-3.1l7.14-0.1l1.76-6.73l-9.52-0.1l-0.62-3.42l4.45-0.31l1.97-7.45h-6.73l-0.62-3.31l3.62-0.21
			l-6.93-10.87l-6.73,10.77l3.52,0.31l-0.31,3.1l-6.83,0.51l1.87,7.35l4.34-0.1l-0.1,3.73l-9.73,0.31l2.17,6.52l6.83-0.1l0.1,2.9
			l-12.94,0.62l2.28,6.93L115.86,92l0.21,3.52l-14.91,0.41l2.28,7.04l12.53,0.11l0.1,2.79L99.4,106.7l2.17,7.66l14.91,0.1
			l-2.19,91.05c5.25,0.7,10.64,0.9,16.12,0.53l0,0L126.31,114.35z"/>
		<path fill="#143B87" d="M185.19,103.94l-9.27,0.12c-0.24-0.17-0.55-0.35-0.94-0.58c-2.53-1.45-7.23-4.16-6.02-10.61
			c0.52-2.76,3.95-4.84,6.98-6.68c1.26-0.77,2.44-1.48,3.32-2.2c3.24-2.67,6.05-9.7,1.31-18.12c-0.75-0.7-1.51-1.39-2.28-2.06
			l-0.52,0.38c-0.11-0.39-0.23-0.75-0.35-1.12c-1.56-1.32-3.17-2.58-4.83-3.78l-0.03,0.01c0.15,0.66,0.46,1.53,0.83,2.54
			c1.11,3.03,2.8,7.61,0.86,11.16c-1.32,2.4-4.2,4.88-9.95,8.54c-8.6,5.48-9.32,11.05-8.4,14.76c0.81,3.26,3.09,6,5.5,7.94
			l-4.88,0.06c-1.87-0.91-7.12-5.05-5.77-12.99c0.67-3.93,5.35-6.85,10.31-9.94c5.64-3.51,11.46-7.15,12.14-12.86
			c0.45-3.76-1.46-7.93-5.76-12.68c-1.66-1.02-3.37-1.97-5.11-2.87l-0.56,0.65c4.63,3.94,6.79,7.41,6.61,10.58
			c-0.27,4.82-6.12,8.76-11.78,12.56c-5.02,3.37-10.2,6.86-12.14,11.26c-1.59,3.61-1.72,6.96-0.38,9.95
			c1.38,3.08,4.01,5.14,6.19,6.41l-3.38,0.04l4.95,43.68l0.3,53.47c0.57-0.2,1.14-0.41,1.7-0.63l-0.3-52.94l-4.75-41.9l12.77-0.16
			l0.5,91.32c0.57-0.29,1.14-0.57,1.7-0.87l-0.49-90.47l5-0.06l0.9,87.29c1.15-0.75,2.28-1.52,3.39-2.32l-0.88-85.01l11.64-0.14
			l-3.39,42.3c-0.01,1.17-0.14,25.25,0.27,36.59c0.56-0.52,1.11-1.05,1.66-1.58c-0.35-11.95-0.22-34.71-0.22-34.93L185.19,103.94z
			 M145.64,97.27c-1.13-2.53-1-5.41,0.39-8.55c1.74-3.95,6.72-7.3,11.53-10.53c6-4.04,12.21-8.22,12.53-13.89
			c0.04-0.79-0.05-1.58-0.23-2.38c1.32,2.32,1.88,4.45,1.64,6.4c-0.58,4.9-6.06,8.31-11.35,11.61c-5.29,3.3-10.29,6.42-11.09,11.1
			c-1.08,6.39,1.59,10.59,4.07,12.92C151.19,103.08,147.28,100.95,145.64,97.27z M167.78,104.16l0.02-0.22
			c-1.37-0.11-7.36-3.52-8.58-8.46c-0.94-3.81,1.39-7.53,6.92-11.05c5.3-3.38,9.22-6.34,11.11-9.79c1.75-3.19,1.47-6.7,0.72-9.71
			c6.39,9.3,2.22,16.07,0.2,17.74c-0.78,0.64-1.92,1.33-3.12,2.06c-3.17,1.92-7.11,4.32-7.77,7.82c-1.21,6.41,2.68,9.77,5.43,11.54
			L167.78,104.16z"/>
		<path fill="#FFFFFF" d="M74.88,78.52c1.38-1.47,23.63-7.07,26.88-7.53C94.48,84.5,87.05,98.35,85.63,110.2
			c-1.43,11.95,4.54,27.35,15.02,33.3c3.75-0.58,17-17.54,19.67-19.86c3.38,6.49,3.24,10.52,16.88,15.39
			c-4.14,2.26-23.24,14.1-30.45,18.31c9.73,11.34,34.09,13.59,67.26,7.4c-2.2,5.07-14.04,21.26-15.91,22.91
			c-6.81,6.04-52.26,15.32-62.84-0.33c-3.42-7.56-0.97-19.41-0.65-23.04c-6.49,4.67-19.48,3.11-31.3,3.7
			c0.1-0.06,0.32-2.54,2.97-8.12c2.66-5.59,5.87-8.07,15.47-6.35c0.76-0.76,1.23-1.37,2.27-3.25c-6.53-1.38-15.28-4.06-19.3-6.4
			c-4.03-2.34-7.44-8.21-7.58-18.46C56.94,108.67,63.59,90.47,74.88,78.52"/>
		<path fill="none" stroke="#143B87" stroke-width="1.7082" d="M74.88,78.52c1.38-1.47,23.63-7.07,26.88-7.53
			C94.48,84.5,87.05,98.35,85.63,110.2c-1.43,11.95,4.54,27.35,15.02,33.3c3.75-0.58,17-17.54,19.67-19.86
			c3.38,6.49,3.24,10.52,16.88,15.39c-4.14,2.26-23.24,14.1-30.45,18.31c9.73,11.34,34.09,13.59,67.26,7.4
			c-2.2,5.07-14.04,21.26-15.91,22.91c-6.81,6.04-52.26,15.32-62.84-0.33c-3.42-7.56-0.97-19.41-0.65-23.04
			c-6.49,4.67-19.48,3.11-31.3,3.7c0.1-0.06,0.32-2.54,2.97-8.12c2.66-5.59,5.87-8.07,15.47-6.35c0.76-0.76,1.23-1.37,2.27-3.25
			c-6.53-1.38-15.28-4.06-19.3-6.4c-4.03-2.34-7.44-8.21-7.58-18.46C56.94,108.67,63.59,90.47,74.88,78.52z"/>
	</g>
	<path fill="none" stroke="#143B87" stroke-width="4.0991" d="M2.1,125.05C2.1,57.15,57.15,2.1,125.05,2.1S248,57.15,248,125.05
		C248,192.96,192.95,248,125.05,248S2.1,192.96,2.1,125.05z"/>
	<path fill="none" stroke="#143B87" stroke-width="1.7082" d="M8.83,125.05C8.83,60.87,60.86,8.83,125.05,8.83
		c64.18,0,116.22,52.04,116.22,116.22c0,64.19-52.03,116.22-116.22,116.22S8.83,189.24,8.83,125.05z M125.05,206.22
		c44.83,0,81.17-36.34,81.17-81.17c0-44.82-36.34-81.16-81.17-81.16s-81.17,36.34-81.17,81.16
		C43.88,169.87,80.22,206.22,125.05,206.22z"/>
	<path fill="#143B87" d="M21.86,123.59c-2.5,0.34-3.55,2.04-3.49,4.45c0.05,1.97,0.81,3.92,3.1,3.87c2.17-0.06,2.42-2.88,2.99-5.72
		c0.57-2.82,1.49-5.66,4.93-5.74c3.74-0.09,5.34,3.54,5.42,6.74c0.1,3.94-1.74,7.31-6.02,7.42l-0.06-2.22
		c2.96-0.07,4.17-2.57,4.11-5.23c-0.05-2.12-0.78-4.45-3.31-4.38c-2.41,0.06-2.76,2.88-3.31,5.7c-0.54,2.82-1.28,5.68-4.51,5.76
		c-3.57,0.09-5.23-3.05-5.31-6.25c-0.09-3.6,1.54-6.38,5.4-6.62L21.86,123.59z M25.78,116.18c3.51,0.53,7.42-0.7,8.06-4.94
		c0.64-4.24-2.75-6.57-6.26-7.1s-7.43,0.7-8.07,4.94C18.89,113.32,22.27,115.65,25.78,116.18 M25.43,118.49
		c-4.73-0.71-8.69-4.17-7.86-9.7c0.83-5.52,5.64-7.67,10.36-6.96c4.73,0.71,8.7,4.17,7.86,9.7
		C34.96,117.06,30.16,119.2,25.43,118.49 M37.1,101.79l0.73-2.09L24.5,95.05L24.52,95l16.36-4.03l0.84-2.42l-16.61-5.79l-0.73,2.09
		l13.47,4.69l-0.02,0.05l-16.52,4.05L20.49,96L37.1,101.79z M35.72,80.82c3.07,1.77,7.18,2.05,9.31-1.67
		c2.14-3.71-0.17-7.11-3.25-8.88c-3.08-1.77-7.18-2.05-9.31,1.66C30.34,75.65,32.64,79.05,35.72,80.82 M34.55,82.85
		c-4.14-2.38-6.58-7.05-3.79-11.89c2.78-4.85,8.04-5.1,12.18-2.72c4.15,2.38,6.58,7.05,3.79,11.9
		C43.96,84.98,38.7,85.23,34.55,82.85 M51.39,71.44l1.47-1.65l-10.95-9.71l0.03-0.04l14.59,5.61l1.33-1.5l-7.3-13.82l0.03-0.03
		L61.54,60l1.47-1.65L49.85,46.67l-2.13,2.39l7.36,13.98l-14.74-5.67l-2.13,2.4L51.39,71.44z M62.93,49.26l4.72-3.64l-7.33-4.71
		l-0.04,0.03L62.93,49.26z M58.01,40.01l2.05-1.57l16.18,9.74l-2.05,1.58l-4.75-3.03l-5.89,4.54l1.67,5.4l-1.91,1.48L58.01,40.01z
		 M87.92,28.61c-1.74-3.46-4.93-3.87-8.21-2.37c-2.92,1.33-5.15,4.09-3.66,7.34c1.35,2.94,4.26,2.5,7.07,1.89s5.54-1.4,6.54,0.8
		c1.06,2.3-0.79,3.88-2.72,4.76c-2.42,1.11-5.2,0.97-6.43-1.72l-2.02,0.92c1.79,3.9,5.61,4.26,9.19,2.62
		c2.91-1.34,5.63-4.23,4.07-7.64c-1.44-3.13-4.4-2.86-7.22-2.27c-2.84,0.59-5.53,1.47-6.44-0.5c-0.96-2.08,0.54-3.55,2.33-4.37
		c2.2-1,4.17-0.72,5.46,1.46L87.92,28.61z M99.12,38.13l2.25-0.64L97.1,22.46l5.64-1.6l-0.54-1.9L88.67,22.8l0.54,1.89l5.64-1.6
		L99.12,38.13z M107.51,28.62l5.89-0.88l-4.11-7.68l-0.04,0.01L107.51,28.62z M107.72,18.15l2.56-0.38l9.39,16.39l-2.56,0.38
		l-2.68-4.96l-7.36,1.1l-1.17,5.53l-2.39,0.36L107.72,18.15z M121.99,34.41l2.34-0.05l-0.32-15.62l5.86-0.12l-0.04-1.97l-14.07,0.29
		l0.04,1.97l5.86-0.12L121.99,34.41z M130.9,34.39l12.12,1.53l0.25-1.96l-9.8-1.23l0.76-6.04l9.07,1.14l0.25-1.96l-9.08-1.14
		l0.7-5.55l9.73,1.22l0.25-1.96l-12.05-1.51L130.9,34.39z M169.63,26.1l-2.19-0.82L163.5,35.8c-1.09,2.91-3.2,3.93-5.97,2.89
		c-2.91-1.08-3.97-3.3-2.88-6.2l3.94-10.53l-2.19-0.82l-3.94,10.52c-1.64,4.38,0.13,7.29,4.38,8.88c4.1,1.54,7.3,0.24,8.86-3.92
		L169.63,26.1z M165.55,43.59l1.9,1.14l7.25-12.11l0.04,0.02l0.64,16.83l2.2,1.31l9.03-15.09l-1.9-1.14l-7.33,12.24l-0.04-0.02
		l-0.63-17l-2.14-1.28L165.55,43.59z M179.64,52.62l1.85,1.44l10.77-13.9l-1.85-1.44L179.64,52.62z M205.52,52.21l-1.76-1.69
		L189.53,58l-0.03-0.03l6.94-14.48l-1.83-1.76l-7.71,16.99l1.92,1.84L205.52,52.21z M193.62,65.45l7.44,9.69l1.56-1.19l-6.01-7.84
		l4.83-3.71l5.57,7.25l1.56-1.2L203,61.2l4.44-3.4l5.97,7.77l1.56-1.2l-7.39-9.63L193.62,65.45z M213.66,78.3
		c1.04,1.93,2.42,3.31,4.68,2.1c1.52-0.82,2.21-2.25,1.17-4.18l-2.75-5.12l-5.41,2.9L213.66,78.3z M217.38,68.1l3.92,7.29
		c1.56,2.91,0.94,5.57-1.53,6.89c-1.87,1-3.85,1.01-5.37-0.58l-0.04,0.02c0.62,1.99-0.5,3.07-1.94,4.04
		c-1.45,0.95-3.19,1.77-3.78,3.2l-1.24-2.29c0.32-0.92,2.16-1.5,3.52-2.62c1.41-1.03,2.48-2.09,1.41-4.09l-2.71-5.03L203,78.48
		l-1.11-2.06L217.38,68.1z M224.78,97.96c3.62-1.38,4.35-4.52,3.2-7.93c-1.03-3.03-3.54-5.53-6.93-4.39
		c-3.06,1.04-2.92,3.98-2.6,6.84c0.32,2.86,0.82,5.65-1.46,6.43c-2.4,0.81-3.79-1.19-4.47-3.2c-0.85-2.52-0.43-5.27,2.37-6.21
		l-0.71-2.1c-4.06,1.38-4.81,5.15-3.55,8.88c1.03,3.03,3.63,6.03,7.18,4.83c3.27-1.11,3.3-4.08,3.01-6.95
		c-0.3-2.89-0.9-5.65,1.15-6.35c2.17-0.73,3.48,0.9,4.11,2.77c0.77,2.28,0.28,4.22-2.01,5.28L224.78,97.96z M213.4,104.48l0.5,2.29
		l17.19-3.75l-0.5-2.29L213.4,104.48z M215.02,113.56l0.26,2.33l15.52-1.77l0.66,5.83l1.96-0.23l-1.59-13.98l-1.96,0.23l0.66,5.83
		L215.02,113.56z M232.95,137.06l0.1-2.66l-8.18-5.46l8.56-4.96l0.11-2.79l-10.65,6.41l-7.19-0.27l-0.09,2.34l7.19,0.27
		L232.95,137.06z"/>
	<path fill="#143B87" d="M37.7,159.39l0.57,1.32l-8.8,3.79l2.26,5.24l-1.11,0.48l-2.83-6.56L37.7,159.39z M45.16,174.39l-0.7-1.25
		l-6.02,3.35c-1.66,0.93-3.06,0.56-3.94-1.02c-0.92-1.66-0.54-3.12,1.12-4.05l6.02-3.35l-0.7-1.25l-6.02,3.35
		c-2.51,1.4-2.83,3.46-1.48,5.89c1.31,2.35,3.32,3.01,5.69,1.69L45.16,174.39z M36.78,181.32l0.93,1.32l5.36-0.11l-1.98,4.93
		l1.01,1.43l2.35-6.29l6.34-0.1l-0.92-1.31l-5.06,0.12l1.9-4.62l-0.99-1.41l-2.25,5.92L36.78,181.32z M46.42,194.19l0.95,0.98
		l6.42-6.26l0.02,0.02l-4.07,8.68l0.85,0.87l8.77-3.85l0.02,0.02l-6.42,6.26l0.95,0.98l7.72-7.53l-1.37-1.4l-8.87,3.88l4.12-8.76
		l-1.37-1.41L46.42,194.19z M56.46,204.05l5.81,4.73l0.77-0.94l-4.7-3.82l2.35-2.89l4.35,3.53l0.76-0.93l-4.35-3.54l2.17-2.66
		l4.66,3.79l0.76-0.94l-5.77-4.69L56.46,204.05z M64.37,210.33l1.14,0.74l4.73-7.24l0.02,0.02l-0.01,10.32l1.32,0.86l5.89-9.04
		l-1.14-0.74l-4.78,7.32l-0.03-0.02l0.03-10.42l-1.28-0.84L64.37,210.33z M76.53,217.7l1.27,0.66l4.39-8.51l3.19,1.65l0.55-1.08
		l-7.66-3.95l-0.56,1.08l3.2,1.65L76.53,217.7z M82.73,220.69l1.31,0.58l4.3-9.89l-1.31-0.57L82.73,220.69z M96.57,217.82
		c0.7-2.27-0.53-3.8-2.62-4.54c-1.86-0.65-4.01-0.39-4.73,1.68c-0.66,1.87,0.82,2.91,2.31,3.84c1.5,0.92,3.04,1.74,2.55,3.13
		c-0.51,1.47-2,1.38-3.22,0.94c-1.54-0.54-2.71-1.78-2.1-3.49l-1.28-0.45c-0.87,2.48,0.66,4.27,2.94,5.06
		c1.85,0.65,4.28,0.53,5.04-1.63c0.7-1.99-0.73-3.13-2.22-4.08c-1.51-0.94-3.07-1.7-2.63-2.95c0.47-1.32,1.75-1.34,2.89-0.94
		c1.4,0.49,2.15,1.46,1.79,2.97L96.57,217.82z M115.28,229.21l7.13,0.45l0.08-1.2l-5.7-0.37l0.61-9.56l-1.43-0.09L115.28,229.21z
		 M132.76,218.62l-1.44,0.05l0.24,6.88c0.07,1.9-0.89,2.98-2.7,3.04c-1.9,0.06-3.02-0.93-3.09-2.84l-0.24-6.88l-1.44,0.05l0.24,6.88
		c0.1,2.87,1.79,4.09,4.57,4c2.69-0.1,4.19-1.59,4.1-4.3L132.76,218.62z M135.11,229.24l1.6-0.22l2.34-4.83l3.49,4.02l1.73-0.25
		l-4.52-4.96l2.8-5.69l-1.58,0.23l-2.2,4.56l-3.25-3.8l-1.7,0.24l4.24,4.69L135.11,229.24z M150.1,221.1
		c0.63,2.08,2.34,3.94,4.85,3.18c2.52-0.76,2.92-3.25,2.29-5.33s-2.33-3.93-4.85-3.18C149.88,216.54,149.48,219.03,150.1,221.1
		 M148.73,221.52c-0.84-2.8,0.04-5.91,3.32-6.9c3.28-0.99,5.72,1.12,6.57,3.92s-0.03,5.9-3.31,6.9
		C152.02,226.43,149.58,224.32,148.73,221.52 M164.46,215.63c1.23-0.53,2.15-1.31,1.53-2.75c-0.42-0.97-1.26-1.46-2.49-0.93
		l-3.27,1.41l1.48,3.45L164.46,215.63z M158.43,212.82l4.66-2.01c1.86-0.8,3.45-0.29,4.13,1.3c0.51,1.19,0.41,2.4-0.64,3.25
		l0.01,0.03c1.24-0.28,1.85,0.47,2.36,1.4c0.5,0.94,0.91,2.04,1.76,2.48l-1.47,0.63c-0.55-0.24-0.8-1.4-1.41-2.29
		c-0.56-0.91-1.15-1.63-2.42-1.08l-3.22,1.39l1.82,4.23l-1.32,0.57L158.43,212.82z M173.6,216.35l3.13-1.77
		c1.08-0.61,1.39-1.65,0.81-2.68c-0.69-1.22-1.87-1.01-2.92-0.41l-2.85,1.61L173.6,216.35z M167.64,208.72l3.41-1.92
		c0.83-0.46,1.92-1.08,2.68-1.06c0.82,0.02,1.69,0.42,2.21,1.33c0.56,1,0.46,2.05-0.21,2.9l0.02,0.02c1.29-0.42,2.41,0.09,3.07,1.25
		c0.78,1.38,0.54,3.25-1.33,4.31l-4.53,2.56L167.64,208.72z M171.17,212.05l2.5-1.41c1.42-0.8,1.71-1.64,1.15-2.63
		c-0.73-1.3-1.76-0.97-2.84-0.36l-2.5,1.41L171.17,212.05z M182.46,212.46l1.2-0.8l-5.99-8.96l-1.19,0.8L182.46,212.46z
		 M187.53,199.26c-1.52-1.81-3.49-1.61-5.23-0.26c-1.55,1.2-2.49,3.16-1.15,4.89c1.21,1.56,2.89,0.89,4.48,0.13s3.11-1.61,4.02-0.44
		c0.95,1.23,0.07,2.43-0.96,3.23c-1.29,1-2.96,1.31-4.07-0.12l-1.08,0.83c1.61,2.07,3.95,1.76,5.85,0.27
		c1.55-1.2,2.76-3.31,1.36-5.12c-1.29-1.67-3.03-1.09-4.63-0.35c-1.61,0.76-3.09,1.66-3.9,0.61c-0.86-1.11-0.18-2.2,0.77-2.93
		c1.17-0.91,2.39-1.02,3.47,0.1L187.53,199.26z M201.16,180.01l-0.59,0.78c1.13,1.2,0.65,2.5-0.23,3.68l0.82,0.61l1.66-2.23
		l6.16,4.58l0.77-1.04L201.16,180.01z M209.15,174.33c-1.12-0.69-2.49-0.63-3.23,0.6c-0.8,1.29-0.06,2.42,1.06,3.11
		c1.01,0.62,2.39,0.44,3.04-0.62C210.71,176.29,210.23,175,209.15,174.33 M210.84,180.25c0.94,0.47,1.88,0.06,2.42-0.81
		c0.83-1.34,0.06-2.72-2.26-4.23l-0.04,0.01c0.52,0.88,0.51,1.99-0.04,2.88c-1.14,1.85-3.02,2.12-4.82,1.01
		c-1.77-1.08-2.21-3.06-1.13-4.82c1.04-1.7,2.83-2.56,6.28-0.44c3.15,1.94,4.33,3.97,2.97,6.18c-0.94,1.53-2.4,2.14-4.06,1.32
		L210.84,180.25z M213.54,169.07c-0.64,1.28-0.03,2.46,1.17,3.07c1.19,0.59,2.5,0.33,3.12-0.92c0.63-1.24-0.02-2.42-1.15-2.99
		C215.49,167.63,214.2,167.76,213.54,169.07 M212.42,166.35c-0.92-0.33-1.78-0.02-2.23,0.89c-0.98,1.96,1.03,3.36,2.47,4.14
		l0.04-0.01c-0.61-0.98-0.58-1.98-0.06-3.02c0.92-1.84,2.8-2.26,4.57-1.38c1.4,0.7,2.83,2.39,1.62,4.81c-1.42,2.84-4.24,2-6.25,1
		c-2.64-1.32-4.74-3.37-3.37-6.09c0.79-1.58,2.17-2.12,3.79-1.48L212.42,166.35z M216.65,163.5c1.49,0.59,4.02,1.57,4.83-0.47
		c0.8-2.03-1.72-3.04-3.21-3.63c-1.48-0.58-4.01-1.57-4.82,0.47C212.66,161.91,215.18,162.92,216.65,163.5 M216.17,164.77
		c-2.21-0.87-4.99-2.2-3.76-5.31c1.23-3.12,4.17-2.19,6.38-1.32c2.19,0.86,4.98,2.19,3.75,5.31
		C221.3,166.57,218.36,165.64,216.17,164.77 M108.08,222.38c0-0.97-0.78-1.75-1.75-1.75s-1.75,0.78-1.75,1.75s0.78,1.75,1.75,1.75
		S108.08,223.34,108.08,222.38 M197.76,193.95c0-0.97-0.78-1.75-1.75-1.75s-1.75,0.78-1.75,1.75s0.78,1.75,1.75,1.75
		S197.76,194.91,197.76,193.95"/>
</g>
</svg>
