<?xml version="1.0" encoding="UTF-8"?>
<svg xmlns="http://www.w3.org/2000/svg" xmlns:xlink="http://www.w3.org/1999/xlink" width="587px" height="169px" viewBox="0 0 586 169" version="1.1">
<defs>
<radialGradient id="radial0" gradientUnits="userSpaceOnUse" cx="52.4" cy="3.4" fx="52.4" fy="3.4" r="59.4" gradientTransform="matrix(2.344,0,0,2.347222,0,0)">
<stop offset="0" style="stop-color:rgb(34.509804%,71.764706%,86.666667%);stop-opacity:1;"/>
<stop offset="1" style="stop-color:rgb(7.45098%,13.72549%,33.72549%);stop-opacity:1;"/>
</radialGradient>
</defs>
<g id="surface1">
<path style=" stroke:none;fill-rule:nonzero;fill:url(#radial0);" d="M 130.328125 83.089844 C 130.328125 87.003906 129.9375 90.835938 129.15625 94.59375 C 128.53125 98.347656 127.511719 102.027344 126.105469 105.625 C 124.855469 109.222656 123.214844 112.667969 121.183594 115.953125 C 119.152344 119.238281 116.886719 122.289062 114.386719 125.105469 C 111.105469 128.707031 107.589844 132.070312 103.839844 135.199219 C 100.089844 138.171875 96.105469 140.832031 91.886719 143.179688 C 87.820312 145.683594 83.523438 147.796875 78.992188 149.519531 C 74.460938 151.238281 69.851562 152.570312 65.164062 153.507812 C 60.320312 152.414062 55.632812 151.003906 51.097656 149.285156 C 46.722656 147.5625 42.425781 145.527344 38.207031 143.179688 C 33.988281 140.832031 29.925781 138.09375 26.019531 134.964844 C 22.269531 131.992188 18.753906 128.707031 15.46875 125.105469 C 12.96875 122.289062 10.78125 119.238281 8.90625 115.953125 C 6.875 112.667969 5.234375 109.222656 3.984375 105.625 C 2.578125 102.027344 1.5625 98.347656 0.9375 94.59375 C 0.3125 90.835938 0 87.003906 0 83.089844 L 0 70.417969 L 43.128906 70.417969 L 43.128906 83.089844 C 43.128906 88.960938 45.472656 94.59375 49.691406 98.816406 C 53.675781 102.808594 59.304688 105.15625 65.164062 105.15625 C 71.023438 105.15625 76.414062 102.808594 80.632812 98.816406 C 84.617188 94.59375 86.960938 88.960938 86.960938 83.089844 L 86.960938 45.066406 L 0 45.066406 L 0 2.113281 L 130.328125 2.113281 Z M 130.328125 83.089844 "/>
<path style=" stroke:none;fill-rule:evenodd;fill:rgb(7.45098%,13.72549%,33.72549%);fill-opacity:1;" d="M 535.605469 24.878906 L 548.261719 24.878906 L 548.261719 31.6875 L 548.730469 31.6875 C 549.667969 30.4375 550.761719 29.261719 552.011719 28.167969 C 553.105469 27.070312 554.433594 26.132812 555.996094 25.351562 C 557.402344 24.722656 558.964844 24.175781 560.683594 23.707031 C 562.246094 23.394531 563.808594 23.316406 565.371094 23.472656 C 577.796875 23.472656 582.953125 32.15625 582.953125 43.894531 L 582.953125 76.519531 L 569.59375 76.519531 L 569.59375 49.058594 C 569.59375 42.71875 569.59375 34.035156 560.917969 34.035156 C 552.480469 34.035156 548.964844 44.597656 548.964844 51.402344 L 548.964844 76.519531 L 535.605469 76.519531 Z M 527.398438 51.167969 C 526.695312 57.742188 523.414062 63.84375 518.492188 68.304688 C 513.570312 72.765625 507.242188 75.347656 500.445312 75.347656 C 493.878906 75.347656 487.316406 72.765625 482.394531 68.304688 C 477.472656 63.84375 474.425781 57.742188 473.488281 51.167969 C 473.488281 33.800781 485.207031 23.472656 500.445312 23.472656 C 515.679688 23.472656 527.398438 33.800781 527.398438 51.167969 Z M 513.335938 49.527344 C 513.335938 41.546875 508.882812 34.269531 500.445312 34.269531 C 491.769531 34.269531 487.550781 40.839844 487.550781 49.527344 C 487.550781 57.976562 490.363281 67.367188 500.445312 67.367188 C 510.523438 67.367188 513.335938 57.273438 513.335938 49.527344 Z M 464.582031 35.679688 C 463.644531 35.363281 462.707031 35.050781 461.769531 34.738281 C 460.832031 34.425781 459.816406 34.191406 458.722656 34.035156 C 457.78125 33.878906 456.765625 33.722656 455.671875 33.566406 C 454.734375 33.566406 453.71875 33.566406 452.625 33.566406 C 448.875 33.566406 444.890625 31.21875 444.890625 39.433594 C 444.890625 47.648438 468.097656 42.25 468.097656 61.027344 C 468.097656 73.234375 457.078125 77.929688 446.53125 77.929688 C 445.28125 77.929688 443.953125 77.929688 442.546875 77.929688 C 441.296875 77.769531 440.046875 77.613281 438.796875 77.457031 C 437.390625 77.144531 436.0625 76.832031 434.8125 76.519531 C 433.5625 76.363281 432.3125 76.050781 431.0625 75.582031 L 432.234375 64.546875 C 433.171875 65.175781 434.1875 65.644531 435.28125 65.957031 C 436.21875 66.425781 437.234375 66.816406 438.328125 67.128906 C 439.578125 67.445312 440.75 67.679688 441.84375 67.835938 C 442.9375 67.992188 444.03125 68.070312 445.125 68.070312 C 448.640625 68.070312 454.03125 66.660156 454.03125 61.730469 C 454.03125 51.402344 430.828125 58.445312 430.828125 39.667969 C 430.828125 28.636719 440.4375 23.472656 450.984375 23.472656 C 452.234375 23.472656 453.484375 23.550781 454.734375 23.707031 C 455.828125 23.863281 457 24.019531 458.253906 24.175781 C 459.503906 24.332031 460.675781 24.488281 461.769531 24.644531 C 463.019531 24.957031 464.191406 25.273438 465.285156 25.585938 Z M 395.433594 25.117188 L 407.152344 25.117188 L 407.152344 36.851562 L 407.386719 36.851562 C 408.089844 31.921875 413.714844 23.707031 421.453125 23.707031 C 421.765625 23.707031 422.15625 23.707031 422.625 23.707031 C 422.9375 23.707031 423.25 23.707031 423.5625 23.707031 C 423.875 23.707031 424.1875 23.785156 424.5 23.941406 C 424.96875 24.097656 425.359375 24.253906 425.671875 24.410156 L 425.671875 37.789062 C 425.203125 37.632812 424.65625 37.476562 424.03125 37.320312 C 423.5625 37.164062 423.09375 37.007812 422.625 36.851562 C 422 36.851562 421.453125 36.851562 420.980469 36.851562 C 420.511719 36.695312 419.964844 36.695312 419.339844 36.851562 C 408.792969 36.851562 408.792969 50.230469 408.792969 57.742188 L 408.792969 76.753906 L 395.433594 76.753906 Z M 384.886719 74.171875 C 383.476562 74.796875 382.070312 75.425781 380.664062 76.050781 C 379.257812 76.519531 377.773438 76.988281 376.210938 77.457031 C 374.648438 77.769531 373.085938 78.007812 371.523438 78.164062 C 370.117188 78.320312 368.632812 78.320312 367.070312 78.164062 C 350.195312 78.164062 340.347656 66.425781 340.347656 51.402344 C 340.347656 36.148438 345.035156 23.707031 364.257812 23.707031 C 383.476562 23.707031 388.636719 37.085938 388.636719 55.160156 L 353.007812 55.160156 C 353.007812 57.039062 353.398438 58.757812 354.179688 60.324219 C 355.117188 62.042969 356.210938 63.53125 357.460938 64.785156 C 358.867188 66.035156 360.507812 66.972656 362.382812 67.601562 C 364.101562 68.226562 365.898438 68.460938 367.773438 68.304688 C 369.179688 68.148438 370.664062 67.992188 372.226562 67.835938 C 373.632812 67.523438 375.117188 67.128906 376.679688 66.660156 C 378.085938 66.347656 379.492188 65.878906 380.898438 65.253906 C 382.304688 64.625 383.632812 63.921875 384.886719 63.140625 Z M 375.976562 45.769531 C 375.507812 39.199219 372.460938 33.800781 364.960938 33.800781 C 357.460938 33.800781 353.710938 38.964844 353.007812 45.769531 Z M 312.222656 34.738281 L 302.140625 34.738281 L 302.140625 25.117188 L 312.222656 25.117188 L 312.222656 17.839844 C 312.222656 7.511719 318.082031 0.234375 328.628906 0.234375 C 329.410156 0.234375 330.191406 0.234375 330.972656 0.234375 C 331.753906 0.390625 332.613281 0.46875 333.550781 0.46875 C 334.332031 0.625 335.113281 0.78125 335.894531 0.9375 C 336.675781 0.9375 337.457031 1.09375 338.238281 1.410156 L 337.300781 12.441406 C 336.832031 12.128906 336.363281 11.8125 335.894531 11.5 C 335.425781 11.34375 334.957031 11.1875 334.488281 11.03125 C 334.019531 10.875 333.472656 10.796875 332.847656 10.796875 C 332.378906 10.640625 331.910156 10.5625 331.441406 10.5625 C 326.988281 10.5625 325.582031 14.316406 325.582031 18.542969 L 325.582031 25.117188 L 337.300781 25.117188 L 337.300781 34.738281 L 325.582031 34.738281 L 325.582031 76.753906 L 312.222656 76.753906 Z M 273.777344 34.738281 L 263.933594 34.738281 L 263.933594 25.117188 L 273.777344 25.117188 L 273.777344 17.839844 C 273.777344 7.511719 279.640625 0.234375 290.1875 0.234375 C 291.125 0.234375 291.984375 0.3125 292.765625 0.46875 C 293.546875 0.46875 294.40625 0.46875 295.34375 0.46875 C 296.125 0.625 296.90625 0.78125 297.6875 0.9375 C 298.46875 1.09375 299.328125 1.25 300.265625 1.410156 L 298.859375 12.441406 C 298.390625 12.128906 297.921875 11.894531 297.453125 11.734375 C 297.140625 11.421875 296.75 11.1875 296.28125 11.03125 C 295.8125 10.875 295.34375 10.796875 294.875 10.796875 C 294.40625 10.640625 293.859375 10.640625 293.234375 10.796875 C 288.546875 10.796875 287.140625 14.554688 287.140625 18.542969 L 287.140625 25.117188 L 298.859375 25.117188 L 298.859375 34.738281 L 287.140625 34.738281 L 287.140625 76.988281 L 273.777344 76.988281 Z M 256.667969 73.9375 C 255.261719 74.71875 253.855469 75.347656 252.449219 75.816406 C 251.042969 76.441406 249.558594 76.910156 247.996094 77.222656 C 246.589844 77.535156 245.105469 77.769531 243.542969 77.929688 C 241.980469 78.085938 240.417969 78.164062 238.855469 78.164062 C 221.976562 78.164062 212.132812 66.425781 212.132812 51.167969 C 212.132812 36.148438 217.289062 23.707031 236.039062 23.707031 C 255.027344 23.707031 260.417969 37.085938 260.417969 54.925781 L 224.789062 54.925781 C 224.945312 56.804688 225.414062 58.601562 226.195312 60.324219 C 226.976562 62.042969 228.070312 63.53125 229.476562 64.785156 C 230.882812 65.878906 232.445312 66.738281 234.164062 67.367188 C 235.882812 67.992188 237.679688 68.226562 239.558594 68.070312 C 241.121094 68.070312 242.605469 67.914062 244.011719 67.601562 C 245.574219 67.445312 247.058594 67.128906 248.464844 66.660156 C 249.871094 66.191406 251.277344 65.644531 252.683594 65.019531 C 254.089844 64.390625 255.417969 63.6875 256.667969 62.90625 Z M 247.761719 45.769531 C 247.527344 39.199219 244.246094 33.566406 236.742188 33.566406 C 229.242188 33.566406 225.492188 38.730469 224.789062 45.769531 Z M 173.457031 64.546875 C 173.925781 64.863281 174.472656 65.097656 175.097656 65.253906 C 175.722656 65.253906 176.269531 65.332031 176.738281 65.488281 C 177.363281 65.488281 177.988281 65.566406 178.613281 65.722656 C 179.082031 65.722656 179.628906 65.722656 180.253906 65.722656 C 189.160156 65.722656 189.160156 58.445312 189.160156 53.28125 L 189.160156 2.347656 L 203.226562 2.347656 L 203.226562 60.089844 C 203.226562 67.367188 198.535156 78.164062 184.003906 78.164062 C 183.066406 78.164062 182.207031 78.085938 181.425781 77.929688 C 180.488281 77.929688 179.550781 77.847656 178.613281 77.691406 C 177.832031 77.691406 176.972656 77.613281 176.035156 77.457031 C 175.097656 77.144531 174.238281 76.910156 173.457031 76.753906 Z M 173.457031 64.546875 "/>
<path style=" stroke:none;fill-rule:evenodd;fill:rgb(7.45098%,13.72549%,33.72549%);fill-opacity:1;" d="M 180.253906 102.105469 L 173.457031 102.105469 L 173.457031 99.289062 L 190.097656 99.289062 L 190.097656 102.105469 L 183.300781 102.105469 L 183.300781 121.351562 L 180.253906 121.351562 Z M 193.378906 97.644531 L 195.957031 97.644531 L 195.957031 107.738281 C 196.269531 107.269531 196.660156 106.875 197.128906 106.5625 C 197.441406 106.25 197.832031 105.9375 198.300781 105.625 C 198.769531 105.46875 199.238281 105.3125 199.707031 105.15625 C 200.175781 105 200.644531 104.921875 201.113281 104.921875 C 205.570312 104.921875 207.445312 107.738281 207.445312 111.726562 L 207.445312 121.585938 L 204.164062 121.585938 L 204.164062 113.136719 C 204.164062 109.378906 203.460938 107.738281 200.878906 107.269531 C 198.066406 107.035156 195.957031 110.085938 195.957031 114.308594 L 195.957031 121.585938 L 193.378906 121.585938 Z M 219.632812 104.6875 C 220.726562 104.6875 221.820312 104.921875 222.914062 105.390625 C 223.851562 105.859375 224.710938 106.484375 225.492188 107.269531 C 226.273438 108.207031 226.820312 109.144531 227.132812 110.085938 C 227.445312 111.179688 227.601562 112.277344 227.601562 113.371094 C 227.601562 114.464844 227.445312 115.484375 227.132812 116.421875 C 226.664062 117.519531 226.039062 118.457031 225.257812 119.238281 C 224.632812 120.019531 223.773438 120.648438 222.679688 121.117188 C 221.742188 121.429688 220.726562 121.585938 219.632812 121.585938 C 218.539062 121.742188 217.445312 121.585938 216.351562 121.117188 C 215.414062 120.804688 214.554688 120.257812 213.773438 119.472656 C 212.992188 118.535156 212.367188 117.597656 211.898438 116.65625 C 211.585938 115.5625 211.429688 114.464844 211.429688 113.371094 C 211.273438 112.277344 211.429688 111.179688 211.898438 110.085938 C 212.210938 108.988281 212.757812 108.050781 213.539062 107.269531 C 214.320312 106.328125 215.257812 105.703125 216.351562 105.390625 C 217.445312 104.921875 218.539062 104.6875 219.632812 104.6875 Z M 219.632812 119.238281 C 223.148438 119.238281 224.554688 116.1875 224.554688 113.371094 C 224.554688 110.554688 222.679688 107.269531 219.632812 107.269531 C 218.851562 107.269531 218.148438 107.425781 217.523438 107.738281 C 216.898438 108.050781 216.273438 108.519531 215.648438 109.144531 C 215.179688 109.773438 214.867188 110.476562 214.710938 111.257812 C 214.554688 111.882812 214.476562 112.589844 214.476562 113.371094 C 214.476562 114.152344 214.554688 114.855469 214.710938 115.484375 C 214.867188 116.265625 215.179688 116.96875 215.648438 117.597656 C 216.273438 118.066406 216.898438 118.457031 217.523438 118.769531 C 218.148438 119.082031 218.851562 119.238281 219.632812 119.238281 Z M 231.585938 105.15625 L 234.398438 105.15625 L 234.398438 107.503906 C 234.710938 107.035156 235.023438 106.640625 235.335938 106.328125 C 235.648438 106.015625 236.039062 105.703125 236.507812 105.390625 C 236.976562 105.234375 237.445312 105.078125 237.914062 104.921875 C 238.542969 104.765625 239.089844 104.6875 239.558594 104.6875 C 240.027344 104.6875 240.496094 104.765625 240.964844 104.921875 C 241.433594 105.078125 241.824219 105.3125 242.136719 105.625 C 242.605469 105.9375 242.996094 106.25 243.308594 106.5625 C 243.621094 107.035156 243.855469 107.503906 244.011719 107.972656 C 244.324219 107.503906 244.636719 107.035156 244.949219 106.5625 C 245.417969 106.25 245.808594 105.9375 246.121094 105.625 C 246.589844 105.46875 247.058594 105.3125 247.527344 105.15625 C 248.152344 105 248.699219 104.84375 249.167969 104.6875 C 253.152344 104.6875 254.558594 107.503906 254.558594 111.023438 L 254.558594 121.351562 L 251.511719 121.351562 L 251.511719 111.726562 C 251.511719 109.851562 251.277344 107.269531 248.699219 107.269531 C 246.355469 107.269531 244.714844 110.320312 244.714844 113.371094 L 244.714844 121.351562 L 241.667969 121.351562 L 241.667969 111.726562 C 241.667969 109.851562 241.199219 107.269531 238.855469 107.269531 C 236.507812 107.269531 234.398438 110.320312 234.398438 113.371094 L 234.398438 121.351562 L 231.585938 121.351562 Z M 260.417969 106.5625 C 260.730469 106.25 261.121094 106.015625 261.589844 105.859375 C 262.058594 105.546875 262.449219 105.3125 262.761719 105.15625 C 263.230469 105 263.699219 104.921875 264.167969 104.921875 C 264.636719 104.765625 265.105469 104.6875 265.574219 104.6875 C 270.496094 104.6875 272.136719 107.269531 272.136719 111.726562 L 272.136719 121.351562 L 269.324219 121.351562 L 269.324219 119.238281 C 269.011719 119.707031 268.699219 120.097656 268.386719 120.414062 C 268.074219 120.726562 267.683594 120.960938 267.214844 121.117188 C 266.902344 121.273438 266.511719 121.429688 266.042969 121.585938 C 265.574219 121.742188 265.105469 121.742188 264.636719 121.585938 C 261.121094 121.585938 258.777344 120.414062 258.777344 116.890625 C 258.777344 113.371094 262.761719 111.257812 266.042969 111.257812 L 269.089844 111.257812 C 269.089844 108.207031 268.386719 106.796875 265.339844 106.796875 C 264.871094 106.796875 264.402344 106.875 263.933594 107.035156 C 263.464844 107.035156 263.074219 107.113281 262.761719 107.269531 C 262.292969 107.425781 261.902344 107.660156 261.589844 107.972656 C 261.121094 108.128906 260.730469 108.363281 260.417969 108.675781 Z M 269.089844 113.605469 L 267.214844 113.605469 C 265.574219 113.605469 261.824219 113.605469 261.824219 116.890625 C 261.824219 117.203125 261.902344 117.519531 262.058594 117.832031 C 262.214844 118.144531 262.371094 118.457031 262.527344 118.769531 C 262.839844 118.925781 263.152344 119.082031 263.464844 119.238281 C 263.777344 119.238281 264.167969 119.238281 264.636719 119.238281 C 265.105469 119.394531 265.652344 119.394531 266.277344 119.238281 C 266.902344 119.082031 267.449219 118.769531 267.917969 118.300781 C 268.230469 117.832031 268.542969 117.359375 268.855469 116.890625 C 269.011719 116.265625 269.089844 115.640625 269.089844 115.015625 Z M 275.890625 118.066406 L 279.640625 119.238281 C 281.046875 119.238281 282.6875 118.769531 282.6875 117.125 C 282.6875 115.484375 275.890625 114.308594 275.890625 109.851562 C 275.890625 109.066406 275.96875 108.363281 276.125 107.738281 C 276.4375 107.113281 276.828125 106.484375 277.296875 105.859375 C 277.921875 105.390625 278.546875 105.078125 279.171875 104.921875 C 279.953125 104.609375 280.65625 104.53125 281.28125 104.6875 L 285.03125 105.390625 L 285.03125 108.207031 C 284.875 108.050781 284.640625 107.894531 284.328125 107.738281 C 284.171875 107.582031 283.9375 107.503906 283.625 107.503906 C 283.3125 107.347656 283.078125 107.269531 282.921875 107.269531 C 282.609375 107.113281 282.296875 107.035156 281.984375 107.035156 C 280.578125 107.035156 279.40625 107.738281 279.40625 109.144531 C 279.40625 110.554688 286.203125 111.726562 286.203125 116.890625 C 286.203125 117.519531 286.046875 118.144531 285.734375 118.769531 C 285.421875 119.394531 285.03125 119.941406 284.5625 120.414062 C 283.9375 120.882812 283.3125 121.195312 282.6875 121.351562 C 282.0625 121.664062 281.359375 121.742188 280.578125 121.585938 C 280.265625 121.585938 279.953125 121.585938 279.640625 121.585938 C 279.171875 121.585938 278.78125 121.585938 278.46875 121.585938 C 278 121.429688 277.609375 121.351562 277.296875 121.351562 C 276.984375 121.195312 276.59375 121.039062 276.125 120.882812 Z M 296.515625 118.535156 L 298.15625 118.535156 C 301.4375 118.535156 301.90625 117.125 301.90625 114.308594 L 301.90625 99.054688 L 305.1875 99.054688 L 305.1875 115.71875 C 305.1875 118.769531 303.78125 121.585938 298.859375 121.585938 L 296.515625 121.585938 Z M 323.003906 120.648438 C 322.535156 120.804688 322.066406 120.960938 321.597656 121.117188 C 321.285156 121.273438 320.894531 121.351562 320.425781 121.351562 C 319.957031 121.507812 319.488281 121.585938 319.019531 121.585938 C 318.707031 121.585938 318.316406 121.585938 317.847656 121.585938 C 316.597656 121.742188 315.425781 121.585938 314.332031 121.117188 C 313.238281 120.804688 312.300781 120.179688 311.519531 119.238281 C 310.734375 118.457031 310.1875 117.519531 309.875 116.421875 C 309.5625 115.328125 309.484375 114.152344 309.640625 112.902344 C 309.484375 111.960938 309.5625 110.945312 309.875 109.851562 C 310.1875 108.910156 310.734375 108.050781 311.519531 107.269531 C 312.300781 106.484375 313.160156 105.859375 314.097656 105.390625 C 315.035156 104.921875 316.050781 104.6875 317.144531 104.6875 C 322.300781 104.6875 323.941406 108.910156 323.941406 114.074219 L 312.691406 114.074219 C 312.691406 114.699219 312.769531 115.328125 312.925781 115.953125 C 313.238281 116.578125 313.628906 117.125 314.097656 117.597656 C 314.566406 118.066406 315.113281 118.457031 315.738281 118.769531 C 316.363281 119.082031 317.066406 119.238281 317.847656 119.238281 C 318.316406 119.238281 318.707031 119.160156 319.019531 119.003906 C 319.488281 119.003906 319.957031 118.925781 320.425781 118.769531 C 320.894531 118.613281 321.285156 118.457031 321.597656 118.300781 C 322.066406 118.144531 322.535156 117.988281 323.003906 117.832031 Z M 320.894531 111.726562 C 320.894531 111.101562 320.816406 110.554688 320.660156 110.085938 C 320.503906 109.457031 320.191406 108.910156 319.722656 108.441406 C 319.410156 108.128906 318.941406 107.816406 318.316406 107.503906 C 317.847656 107.347656 317.300781 107.269531 316.675781 107.269531 C 314.097656 107.269531 312.925781 109.617188 312.691406 111.726562 Z M 330.035156 107.503906 L 326.285156 107.503906 L 326.285156 105.15625 L 330.035156 105.15625 L 330.035156 103.746094 C 330.035156 99.992188 330.738281 97.175781 335.191406 97.175781 L 337.300781 97.175781 L 337.300781 99.523438 L 335.894531 99.523438 C 333.082031 99.523438 332.847656 101.398438 332.847656 103.277344 L 332.847656 105.15625 L 337.300781 105.15625 L 337.300781 107.503906 L 332.847656 107.503906 L 332.847656 121.351562 L 330.035156 121.351562 Z M 341.753906 107.503906 L 338.003906 107.503906 L 338.003906 105.15625 L 341.753906 105.15625 L 341.753906 103.746094 C 341.753906 99.992188 342.691406 97.175781 346.910156 97.175781 L 349.023438 97.175781 L 349.023438 99.523438 L 347.613281 99.523438 C 344.800781 99.523438 344.566406 101.164062 344.566406 103.277344 L 344.566406 105.15625 L 349.023438 105.15625 L 349.023438 107.503906 L 344.566406 107.503906 L 344.566406 121.351562 L 341.753906 121.351562 Z M 364.257812 120.414062 C 363.945312 120.726562 363.554688 120.960938 363.085938 121.117188 C 362.773438 121.273438 362.382812 121.351562 361.914062 121.351562 C 361.445312 121.507812 360.976562 121.585938 360.507812 121.585938 C 360.039062 121.585938 359.648438 121.585938 359.335938 121.585938 C 358.085938 121.742188 356.914062 121.585938 355.820312 121.117188 C 354.726562 120.648438 353.789062 120.019531 353.007812 119.238281 C 352.226562 118.457031 351.679688 117.519531 351.367188 116.421875 C 350.898438 115.328125 350.742188 114.152344 350.898438 112.902344 C 350.898438 111.804688 351.054688 110.789062 351.367188 109.851562 C 351.679688 108.753906 352.226562 107.816406 353.007812 107.035156 C 353.632812 106.25 354.492188 105.703125 355.585938 105.390625 C 356.523438 104.921875 357.539062 104.6875 358.632812 104.6875 C 363.789062 104.6875 365.429688 108.910156 365.429688 114.074219 L 354.179688 114.074219 C 354.179688 114.699219 354.257812 115.328125 354.414062 115.953125 C 354.726562 116.578125 355.117188 117.125 355.585938 117.597656 C 356.054688 118.066406 356.601562 118.457031 357.226562 118.769531 C 357.851562 119.082031 358.554688 119.238281 359.335938 119.238281 C 359.648438 119.082031 360.039062 119.003906 360.507812 119.003906 C 360.976562 119.003906 361.445312 118.925781 361.914062 118.769531 C 362.382812 118.613281 362.773438 118.457031 363.085938 118.300781 C 363.554688 118.144531 363.945312 117.988281 364.257812 117.832031 Z M 362.382812 111.492188 C 362.382812 110.867188 362.304688 110.242188 362.148438 109.617188 C 361.992188 109.144531 361.679688 108.675781 361.210938 108.207031 C 360.898438 107.738281 360.429688 107.425781 359.804688 107.269531 C 359.335938 106.957031 358.789062 106.796875 358.164062 106.796875 C 355.351562 106.796875 354.414062 109.378906 354.179688 111.492188 Z M 369.414062 104.921875 L 372.226562 104.921875 L 372.226562 107.503906 C 372.382812 107.191406 372.617188 106.796875 372.929688 106.328125 C 373.242188 106.015625 373.554688 105.703125 373.867188 105.390625 C 374.179688 105.234375 374.570312 105.078125 375.039062 104.921875 C 375.507812 104.609375 375.976562 104.453125 376.445312 104.453125 L 378.320312 104.453125 L 378.320312 107.269531 L 376.679688 107.269531 C 374.335938 107.269531 372.460938 109.617188 372.460938 113.839844 L 372.460938 121.117188 L 369.414062 121.117188 Z M 380.429688 118.066406 L 384.179688 119.003906 C 385.589844 119.003906 387.230469 118.535156 387.230469 116.890625 C 387.230469 115.25 380.195312 114.074219 380.195312 109.617188 C 380.195312 108.832031 380.351562 108.128906 380.664062 107.503906 C 380.820312 106.875 381.210938 106.328125 381.835938 105.859375 C 382.460938 105.234375 383.085938 104.84375 383.710938 104.6875 C 384.492188 104.53125 385.199219 104.453125 385.824219 104.453125 L 389.808594 105.15625 L 389.808594 107.972656 C 389.496094 107.816406 389.261719 107.660156 389.105469 107.503906 C 388.792969 107.347656 388.480469 107.269531 388.167969 107.269531 C 388.011719 107.113281 387.777344 107.035156 387.464844 107.035156 C 387.152344 107.035156 386.839844 106.957031 386.527344 106.796875 C 385.355469 106.796875 383.945312 107.503906 383.945312 108.910156 C 383.945312 110.320312 390.746094 111.492188 390.746094 116.65625 C 390.746094 117.28125 390.589844 117.910156 390.277344 118.535156 C 389.964844 119.160156 389.574219 119.707031 389.105469 120.179688 C 388.636719 120.648438 388.011719 121.039062 387.230469 121.351562 C 386.605469 121.507812 385.980469 121.507812 385.355469 121.351562 C 384.886719 121.351562 384.492188 121.351562 384.179688 121.351562 C 383.710938 121.351562 383.320312 121.351562 383.007812 121.351562 C 382.539062 121.351562 382.148438 121.273438 381.835938 121.117188 C 381.523438 120.960938 381.210938 120.804688 380.898438 120.648438 Z M 400.824219 104.6875 C 401.917969 104.6875 403.011719 104.921875 404.105469 105.390625 C 405.199219 105.859375 406.136719 106.484375 406.917969 107.269531 C 407.699219 108.050781 408.246094 108.988281 408.558594 110.085938 C 409.027344 111.023438 409.183594 112.117188 409.027344 113.371094 C 409.027344 115.484375 408.324219 117.597656 406.683594 119.238281 C 405.277344 120.648438 403.167969 121.585938 400.824219 121.585938 C 398.714844 121.585938 396.605469 120.648438 394.964844 119.238281 C 393.558594 117.597656 392.621094 115.484375 392.621094 113.371094 C 392.621094 112.117188 392.777344 111.023438 393.089844 110.085938 C 393.558594 108.988281 394.183594 108.050781 394.964844 107.269531 C 395.746094 106.484375 396.683594 105.859375 397.777344 105.390625 C 398.714844 104.921875 399.730469 104.6875 400.824219 104.6875 Z M 400.824219 119.238281 C 401.605469 119.082031 402.308594 118.847656 402.933594 118.535156 C 403.558594 118.222656 404.105469 117.832031 404.574219 117.359375 C 405.042969 116.734375 405.433594 116.109375 405.746094 115.484375 C 405.902344 114.699219 405.980469 113.996094 405.980469 113.371094 C 406.136719 112.589844 406.058594 111.804688 405.746094 111.023438 C 405.589844 110.398438 405.199219 109.773438 404.574219 109.144531 C 404.105469 108.519531 403.558594 108.050781 402.933594 107.738281 C 402.308594 107.425781 401.605469 107.191406 400.824219 107.035156 C 397.777344 107.035156 396.136719 110.085938 396.136719 113.371094 C 396.136719 116.421875 397.542969 119.238281 400.824219 119.238281 Z M 413.246094 104.921875 L 416.058594 104.921875 L 416.058594 107.738281 C 416.214844 107.269531 416.527344 106.875 416.996094 106.5625 C 417.464844 106.09375 417.933594 105.78125 418.402344 105.625 C 418.871094 105.3125 419.339844 105.078125 419.808594 104.921875 C 420.277344 104.765625 420.824219 104.6875 421.453125 104.6875 C 425.671875 104.6875 427.3125 107.503906 427.3125 111.492188 L 427.3125 121.117188 L 424.265625 121.117188 L 424.265625 112.902344 C 424.265625 109.144531 423.5625 107.503906 421.21875 107.035156 C 418.636719 106.796875 416.058594 109.851562 416.058594 114.074219 L 416.058594 121.117188 L 413.246094 121.117188 Z M 458.488281 112.195312 C 458.488281 118.535156 455.4375 121.585938 449.8125 121.585938 C 444.421875 121.585938 441.375 118.535156 441.375 112.195312 L 441.375 99.289062 L 444.421875 99.289062 L 444.421875 111.960938 C 444.421875 116.1875 445.828125 118.769531 449.8125 118.769531 C 454.03125 118.769531 455.4375 116.1875 455.4375 111.960938 L 455.4375 99.289062 L 458.488281 99.289062 Z M 463.878906 104.921875 L 466.691406 104.921875 L 466.691406 107.503906 C 467.003906 107.035156 467.316406 106.640625 467.628906 106.328125 C 468.097656 106.015625 468.566406 105.703125 469.035156 105.390625 C 469.503906 105.078125 469.972656 104.84375 470.441406 104.6875 C 471.066406 104.53125 471.613281 104.453125 472.082031 104.453125 C 476.300781 104.453125 477.941406 107.269531 477.941406 111.492188 L 477.941406 121.117188 L 475.363281 121.117188 L 475.363281 112.667969 C 475.363281 108.910156 474.191406 107.269531 471.847656 106.796875 C 469.503906 106.5625 466.691406 109.617188 466.691406 113.839844 L 466.691406 121.117188 L 463.878906 121.117188 Z M 486.613281 101.398438 L 483.097656 101.398438 L 483.097656 97.878906 L 486.613281 97.878906 Z M 483.566406 104.921875 L 486.613281 104.921875 L 486.613281 121.117188 L 483.566406 121.117188 Z M 498.804688 121.117188 L 495.523438 121.117188 L 489.660156 104.921875 L 493.175781 104.921875 L 497.164062 118.300781 L 501.617188 104.921875 L 504.664062 104.921875 Z M 519.664062 120.414062 C 519.351562 120.570312 519.039062 120.726562 518.726562 120.882812 C 518.257812 121.039062 517.867188 121.195312 517.554688 121.351562 C 517.085938 121.351562 516.617188 121.429688 516.148438 121.585938 C 515.835938 121.585938 515.445312 121.585938 514.976562 121.585938 C 513.882812 121.585938 512.710938 121.429688 511.460938 121.117188 C 510.367188 120.648438 509.429688 120.019531 508.648438 119.238281 C 507.867188 118.300781 507.242188 117.28125 506.773438 116.1875 C 506.460938 115.09375 506.304688 113.996094 506.304688 112.902344 C 506.304688 111.804688 506.460938 110.789062 506.773438 109.851562 C 507.085938 108.753906 507.632812 107.816406 508.414062 107.035156 C 509.039062 106.25 509.898438 105.625 510.992188 105.15625 C 511.929688 104.84375 512.945312 104.6875 514.039062 104.6875 C 519.429688 104.6875 521.070312 108.675781 521.070312 113.839844 L 509.585938 113.839844 C 509.585938 114.621094 509.742188 115.328125 510.054688 115.953125 C 510.367188 116.578125 510.757812 117.125 511.226562 117.597656 C 511.695312 118.066406 512.242188 118.457031 512.867188 118.769531 C 513.648438 118.925781 514.351562 119.003906 514.976562 119.003906 C 515.445312 119.003906 515.835938 119.003906 516.148438 119.003906 C 516.617188 118.847656 517.085938 118.691406 517.554688 118.535156 C 517.867188 118.535156 518.257812 118.457031 518.726562 118.300781 C 519.039062 118.144531 519.351562 117.910156 519.664062 117.597656 Z M 518.023438 111.492188 C 518.023438 110.867188 517.945312 110.320312 517.789062 109.851562 C 517.632812 109.222656 517.398438 108.753906 517.085938 108.441406 C 516.617188 107.972656 516.148438 107.660156 515.679688 107.503906 C 515.054688 107.191406 514.507812 107.035156 514.039062 107.035156 C 513.414062 107.035156 512.867188 107.191406 512.398438 107.503906 C 511.773438 107.660156 511.304688 107.972656 510.992188 108.441406 C 510.523438 108.910156 510.132812 109.378906 509.820312 109.851562 C 509.664062 110.320312 509.585938 110.867188 509.585938 111.492188 Z M 525.054688 104.921875 L 527.867188 104.921875 L 527.867188 107.738281 C 528.023438 107.269531 528.257812 106.875 528.570312 106.5625 C 528.882812 106.25 529.195312 105.9375 529.507812 105.625 C 529.820312 105.3125 530.210938 105.078125 530.679688 104.921875 C 531.152344 104.765625 531.621094 104.6875 532.089844 104.6875 L 533.964844 104.6875 L 533.964844 107.503906 L 532.324219 107.503906 C 529.507812 107.503906 527.867188 109.851562 527.867188 113.839844 L 527.867188 121.117188 L 525.054688 121.117188 Z M 536.074219 118.066406 C 536.386719 118.222656 536.699219 118.378906 537.011719 118.535156 C 537.324219 118.691406 537.636719 118.769531 537.949219 118.769531 C 538.261719 118.925781 538.574219 119.003906 538.886719 119.003906 C 539.199219 119.160156 539.511719 119.238281 539.824219 119.238281 C 541.230469 119.238281 542.636719 118.769531 542.636719 117.125 C 542.636719 115.25 535.839844 114.308594 535.839844 109.851562 C 535.839844 105.390625 538.183594 104.6875 541.464844 104.6875 L 544.980469 105.390625 L 544.980469 108.207031 C 544.824219 108.050781 544.589844 107.894531 544.277344 107.738281 C 544.121094 107.582031 543.886719 107.425781 543.574219 107.269531 C 543.261719 107.269531 542.949219 107.191406 542.636719 107.035156 C 542.480469 107.035156 542.246094 107.035156 541.933594 107.035156 C 540.292969 107.035156 538.886719 107.738281 538.886719 109.144531 C 538.886719 110.554688 545.917969 111.492188 545.917969 116.65625 C 545.917969 121.820312 543.339844 121.585938 540.292969 121.585938 C 539.824219 121.585938 539.433594 121.585938 539.121094 121.585938 C 538.652344 121.585938 538.261719 121.507812 537.949219 121.351562 C 537.636719 121.351562 537.246094 121.273438 536.777344 121.117188 C 536.464844 121.117188 536.152344 121.039062 535.839844 120.882812 Z M 552.714844 101.398438 L 549.667969 101.398438 L 549.667969 98.113281 L 552.714844 98.113281 Z M 549.667969 104.6875 L 552.714844 104.6875 L 552.714844 120.882812 L 549.667969 120.882812 Z M 566.777344 107.269531 L 562.324219 107.269531 L 562.324219 116.1875 C 562.324219 116.5 562.324219 116.8125 562.324219 117.125 C 562.480469 117.4375 562.714844 117.753906 563.027344 118.066406 C 563.183594 118.378906 563.417969 118.613281 563.730469 118.769531 C 564.042969 118.925781 564.355469 119.003906 564.667969 119.003906 L 566.777344 119.003906 L 566.777344 121.351562 L 564.433594 121.351562 C 561.386719 121.351562 559.277344 119.941406 559.277344 116.890625 L 559.277344 107.269531 L 555.761719 107.269531 L 555.761719 104.6875 L 559.277344 104.6875 L 559.277344 101.398438 L 562.324219 100.226562 L 562.324219 104.6875 L 566.777344 104.6875 Z M 569.125 125.578125 L 570.53125 125.578125 C 573.34375 125.578125 574.046875 121.820312 574.046875 121.585938 C 574.046875 121.429688 573.96875 121.273438 573.8125 121.117188 C 573.8125 120.960938 573.8125 120.804688 573.8125 120.648438 C 573.8125 120.492188 573.8125 120.335938 573.8125 120.179688 C 573.8125 120.019531 573.734375 119.863281 573.578125 119.707031 L 568.1875 104.6875 L 571.234375 104.6875 L 575.6875 118.066406 L 580.140625 104.6875 L 583.1875 104.6875 L 577.09375 121.117188 C 576.15625 124.167969 574.984375 128.160156 571 128.160156 L 568.890625 128.160156 Z M 569.125 125.578125 "/>
<path style=" stroke:none;fill-rule:evenodd;fill:rgb(7.45098%,13.72549%,33.72549%);fill-opacity:1;" d="M 175.566406 152.804688 L 177.207031 152.804688 L 177.207031 158.203125 L 183.769531 158.203125 L 183.769531 152.804688 L 185.410156 152.804688 L 185.410156 165.949219 L 183.769531 165.949219 L 183.769531 160.082031 L 177.207031 160.082031 L 177.207031 165.949219 L 175.566406 165.949219 Z M 194.550781 152.804688 C 195.488281 152.804688 196.347656 152.960938 197.128906 153.273438 C 197.910156 153.585938 198.613281 154.054688 199.238281 154.683594 C 199.707031 155.308594 200.097656 156.011719 200.410156 156.792969 C 200.722656 157.578125 200.878906 158.4375 200.878906 159.375 C 200.878906 160.160156 200.800781 161.019531 200.644531 161.957031 C 200.332031 162.742188 199.863281 163.445312 199.238281 164.070312 C 198.613281 164.851562 197.910156 165.402344 197.128906 165.714844 C 196.347656 166.027344 195.488281 166.183594 194.550781 166.183594 C 193.769531 166.183594 192.910156 166.027344 191.972656 165.714844 C 191.191406 165.402344 190.488281 164.929688 189.863281 164.304688 C 189.238281 163.679688 188.769531 162.898438 188.457031 161.957031 C 188.144531 161.175781 188.066406 160.316406 188.222656 159.375 C 188.066406 158.4375 188.144531 157.578125 188.457031 156.792969 C 188.769531 155.855469 189.238281 155.074219 189.863281 154.445312 C 190.488281 153.820312 191.269531 153.351562 192.207031 153.039062 C 192.988281 152.726562 193.769531 152.648438 194.550781 152.804688 Z M 198.769531 159.375 C 198.769531 156.792969 196.894531 154.445312 194.550781 154.445312 C 192.207031 154.445312 190.097656 156.792969 190.097656 159.375 C 190.097656 162.191406 192.207031 164.539062 194.550781 164.539062 C 196.894531 164.539062 198.769531 162.191406 198.769531 159.375 Z M 203.460938 152.804688 L 206.742188 152.804688 L 210.726562 163.835938 L 214.945312 152.804688 L 217.992188 152.804688 L 217.992188 165.949219 L 216.351562 165.949219 L 216.351562 154.917969 L 211.898438 165.949219 L 210.023438 165.949219 L 205.570312 154.917969 L 205.570312 165.949219 L 203.460938 165.949219 Z M 221.742188 152.804688 L 229.007812 152.804688 L 229.007812 154.445312 L 223.382812 154.445312 L 223.382812 158.203125 L 228.539062 158.203125 L 228.539062 159.847656 L 223.382812 159.847656 L 223.382812 164.539062 L 229.007812 164.539062 L 229.007812 165.714844 L 221.742188 165.714844 Z M 243.074219 152.804688 C 243.855469 152.804688 244.636719 152.960938 245.417969 153.273438 C 246.355469 153.585938 247.136719 154.054688 247.761719 154.683594 C 248.386719 155.308594 248.855469 156.011719 249.167969 156.792969 C 249.480469 157.734375 249.558594 158.59375 249.402344 159.375 C 249.558594 160.316406 249.480469 161.253906 249.167969 162.191406 C 248.855469 162.976562 248.386719 163.757812 247.761719 164.539062 C 247.136719 165.167969 246.433594 165.636719 245.652344 165.949219 C 244.714844 166.261719 243.855469 166.417969 243.074219 166.417969 C 242.136719 166.417969 241.277344 166.261719 240.496094 165.949219 C 239.714844 165.480469 239.011719 164.929688 238.386719 164.304688 C 237.757812 163.679688 237.289062 162.898438 236.976562 161.957031 C 236.820312 161.175781 236.742188 160.316406 236.742188 159.375 C 236.742188 158.59375 236.898438 157.8125 237.210938 157.027344 C 237.523438 156.246094 237.914062 155.542969 238.386719 154.917969 C 239.011719 154.289062 239.714844 153.820312 240.496094 153.507812 C 241.277344 153.039062 242.136719 152.804688 243.074219 152.804688 Z M 247.527344 159.609375 C 247.527344 156.792969 245.417969 154.683594 243.074219 154.683594 C 240.730469 154.683594 238.855469 156.792969 238.855469 159.609375 C 238.855469 162.429688 240.730469 164.539062 243.074219 164.539062 C 245.417969 164.539062 247.527344 162.429688 247.527344 159.609375 Z M 251.980469 152.804688 L 259.011719 152.804688 L 259.011719 154.683594 L 253.855469 154.683594 L 253.855469 158.4375 L 258.777344 158.4375 L 258.777344 160.082031 L 253.855469 160.082031 L 253.855469 165.949219 L 251.980469 165.949219 Z M 272.839844 154.917969 L 270.496094 154.917969 C 269.324219 154.917969 268.386719 155.386719 268.386719 156.558594 C 268.386719 157.96875 273.777344 158.4375 273.777344 162.898438 C 273.777344 167.355469 271.667969 166.652344 269.089844 166.652344 L 266.277344 166.652344 L 266.277344 164.539062 L 269.089844 165.246094 C 270.027344 165.246094 271.433594 165.007812 271.433594 163.132812 C 271.433594 161.488281 266.042969 161.253906 266.042969 157.027344 C 266.042969 152.804688 267.683594 153.507812 270.027344 153.507812 L 272.839844 153.507812 Z M 276.59375 152.804688 L 278.234375 152.804688 L 278.234375 165.949219 L 276.59375 165.949219 Z M 281.75 152.804688 L 285.5 152.804688 C 286.4375 152.804688 287.296875 152.882812 288.078125 153.039062 C 289.015625 153.351562 289.796875 153.820312 290.421875 154.445312 C 291.203125 155.074219 291.75 155.855469 292.0625 156.792969 C 292.53125 157.578125 292.765625 158.4375 292.765625 159.375 C 292.765625 163.835938 289.953125 165.949219 285.5 165.949219 L 281.75 165.949219 Z M 283.859375 164.539062 L 285.5 164.539062 C 286.125 164.695312 286.828125 164.617188 287.609375 164.304688 C 288.234375 164.148438 288.78125 163.835938 289.25 163.367188 C 289.875 162.742188 290.265625 162.113281 290.421875 161.488281 C 290.734375 160.863281 290.8125 160.160156 290.65625 159.375 C 290.65625 158.75 290.578125 158.125 290.421875 157.5 C 290.109375 156.871094 289.71875 156.324219 289.25 155.855469 C 288.78125 155.386719 288.234375 155.074219 287.609375 154.917969 C 286.984375 154.605469 286.359375 154.445312 285.734375 154.445312 L 283.859375 154.445312 Z M 295.34375 152.804688 L 298.15625 152.804688 L 304.015625 163.601562 L 304.015625 152.804688 L 305.65625 152.804688 L 305.65625 165.949219 L 303.3125 165.949219 L 297.453125 155.386719 L 297.453125 165.949219 L 295.34375 165.949219 Z M 309.40625 152.804688 L 316.675781 152.804688 L 316.675781 154.683594 L 311.046875 154.683594 L 311.046875 158.4375 L 315.972656 158.4375 L 315.972656 160.082031 L 311.046875 160.082031 L 311.046875 164.539062 L 316.675781 164.539062 L 316.675781 165.949219 L 309.40625 165.949219 Z M 323.472656 160.785156 L 318.316406 152.804688 L 320.425781 152.804688 L 324.644531 158.671875 L 328.394531 152.804688 L 330.269531 152.804688 L 325.113281 160.785156 L 325.113281 165.949219 L 323.472656 165.949219 Z M 338.003906 152.804688 L 339.644531 152.804688 L 339.644531 158.671875 L 345.503906 152.804688 L 347.847656 152.804688 L 341.753906 159.140625 L 348.085938 165.949219 L 345.503906 165.949219 L 339.644531 159.847656 L 339.644531 165.949219 L 338.003906 165.949219 Z M 350.195312 152.804688 L 352.304688 152.804688 L 352.304688 165.949219 L 350.195312 165.949219 Z M 355.820312 152.804688 L 358.867188 152.804688 L 362.851562 163.835938 L 367.070312 152.804688 L 370.117188 152.804688 L 370.117188 165.949219 L 368.007812 165.949219 L 368.007812 154.917969 L 364.023438 165.949219 L 361.914062 165.949219 L 357.695312 154.917969 L 357.695312 165.949219 L 355.820312 165.949219 Z M 373.632812 152.804688 L 376.679688 152.804688 L 380.664062 163.835938 L 384.886719 152.804688 L 387.933594 152.804688 L 387.933594 165.949219 L 385.824219 165.949219 L 385.824219 154.917969 L 381.835938 165.949219 L 379.726562 165.949219 L 375.507812 154.917969 L 375.507812 165.949219 L 373.632812 165.949219 Z M 391.449219 152.804688 L 398.949219 152.804688 L 398.949219 154.445312 L 393.324219 154.445312 L 393.324219 158.203125 L 398.246094 158.203125 L 398.246094 159.847656 L 393.324219 159.847656 L 393.324219 164.304688 L 398.949219 164.304688 L 398.949219 165.714844 L 391.449219 165.714844 Z M 401.996094 152.804688 L 403.636719 152.804688 L 403.636719 164.539062 L 409.261719 164.539062 L 409.261719 165.949219 L 401.996094 165.949219 Z M 416.761719 152.804688 L 419.808594 152.804688 L 423.796875 163.835938 L 428.015625 152.804688 L 431.0625 152.804688 L 431.0625 165.949219 L 428.953125 165.949219 L 428.953125 154.917969 L 424.96875 165.949219 L 422.859375 165.949219 L 418.871094 154.917969 L 418.871094 165.949219 L 416.761719 165.949219 Z M 434.578125 152.804688 L 442.078125 152.804688 L 442.078125 154.445312 L 436.6875 154.445312 L 436.6875 158.4375 L 441.375 158.4375 L 441.375 160.082031 L 436.6875 160.082031 L 436.6875 164.539062 L 442.078125 164.539062 L 442.078125 165.949219 L 434.578125 165.949219 Z M 445.125 152.804688 L 448.875 152.804688 C 449.8125 152.804688 450.671875 152.960938 451.453125 153.273438 C 452.390625 153.585938 453.171875 154.054688 453.796875 154.683594 C 454.421875 155.152344 454.890625 155.855469 455.203125 156.792969 C 455.515625 157.578125 455.671875 158.4375 455.671875 159.375 C 455.828125 160.316406 455.75 161.175781 455.4375 161.957031 C 455.125 162.898438 454.578125 163.679688 453.796875 164.304688 C 453.171875 164.929688 452.46875 165.402344 451.6875 165.714844 C 450.75 165.871094 449.8125 165.949219 448.875 165.949219 L 445.125 165.949219 Z M 446.765625 164.539062 L 448.875 164.539062 C 451.921875 164.539062 453.796875 162.664062 453.796875 159.375 C 453.796875 158.75 453.71875 158.125 453.5625 157.5 C 453.25 156.871094 452.9375 156.324219 452.625 155.855469 C 452.15625 155.386719 451.609375 155.074219 450.984375 154.917969 C 450.515625 154.605469 449.96875 154.445312 449.34375 154.445312 L 446.765625 154.445312 Z M 458.957031 152.804688 L 460.597656 152.804688 L 460.597656 165.949219 L 458.957031 165.949219 Z M 473.253906 155.152344 C 473.097656 154.996094 472.863281 154.917969 472.550781 154.917969 C 472.394531 154.761719 472.160156 154.683594 471.847656 154.683594 C 471.691406 154.527344 471.457031 154.445312 471.144531 154.445312 C 470.988281 154.445312 470.753906 154.445312 470.441406 154.445312 C 469.816406 154.445312 469.191406 154.527344 468.566406 154.683594 C 467.941406 154.996094 467.394531 155.386719 466.925781 155.855469 C 466.457031 156.324219 466.066406 156.871094 465.753906 157.5 C 465.441406 158.125 465.285156 158.75 465.285156 159.375 C 465.285156 160.003906 465.441406 160.628906 465.753906 161.253906 C 466.066406 161.878906 466.457031 162.429688 466.925781 162.898438 C 467.394531 163.523438 467.941406 163.914062 468.566406 164.070312 C 469.191406 164.382812 469.816406 164.539062 470.441406 164.539062 C 470.753906 164.539062 470.988281 164.539062 471.144531 164.539062 C 471.457031 164.539062 471.691406 164.460938 471.847656 164.304688 C 472.160156 164.304688 472.394531 164.226562 472.550781 164.070312 C 472.863281 164.070312 473.097656 163.992188 473.253906 163.835938 L 473.253906 165.949219 L 470.441406 165.949219 C 469.503906 165.949219 468.644531 165.792969 467.863281 165.480469 C 466.925781 165.167969 466.144531 164.695312 465.519531 164.070312 C 464.894531 163.289062 464.425781 162.507812 464.113281 161.722656 C 463.800781 160.785156 463.644531 159.847656 463.644531 158.90625 C 463.644531 158.125 463.800781 157.265625 464.113281 156.324219 C 464.582031 155.542969 465.128906 154.839844 465.753906 154.210938 C 466.378906 153.585938 467.082031 153.117188 467.863281 152.804688 C 468.800781 152.492188 469.660156 152.335938 470.441406 152.335938 L 473.253906 152.335938 Z M 479.816406 152.804688 L 481.925781 152.804688 L 487.316406 165.949219 L 485.207031 165.949219 L 483.800781 162.898438 L 477.707031 162.898438 L 476.300781 165.949219 L 474.191406 165.949219 Z M 480.988281 154.917969 L 478.175781 161.019531 L 483.566406 161.019531 Z M 489.660156 152.804688 L 491.769531 152.804688 L 491.769531 164.539062 L 497.164062 164.539062 L 497.164062 165.949219 L 489.660156 165.949219 Z M 513.570312 155.386719 C 513.414062 155.230469 513.257812 155.074219 513.101562 154.917969 C 512.789062 154.761719 512.554688 154.683594 512.398438 154.683594 C 512.085938 154.683594 511.851562 154.683594 511.695312 154.683594 C 511.382812 154.527344 511.148438 154.527344 510.992188 154.683594 C 510.210938 154.527344 509.507812 154.605469 508.882812 154.917969 C 508.257812 155.074219 507.710938 155.386719 507.242188 155.855469 C 506.773438 156.324219 506.382812 156.871094 506.070312 157.5 C 505.914062 158.125 505.835938 158.75 505.835938 159.375 C 505.835938 160.160156 505.914062 160.863281 506.070312 161.488281 C 506.382812 162.113281 506.773438 162.664062 507.242188 163.132812 C 507.710938 163.601562 508.257812 163.992188 508.882812 164.304688 C 509.507812 164.460938 510.210938 164.539062 510.992188 164.539062 C 511.148438 164.539062 511.382812 164.539062 511.695312 164.539062 C 511.851562 164.539062 512.085938 164.539062 512.398438 164.539062 C 512.554688 164.382812 512.789062 164.304688 513.101562 164.304688 C 513.257812 164.148438 513.414062 163.992188 513.570312 163.835938 L 513.570312 165.949219 L 510.992188 165.949219 C 510.054688 165.949219 509.117188 165.792969 508.179688 165.480469 C 507.398438 165.167969 506.695312 164.695312 506.070312 164.070312 C 505.289062 163.445312 504.742188 162.664062 504.429688 161.722656 C 504.117188 160.941406 503.960938 160.082031 503.960938 159.140625 C 503.960938 158.203125 504.195312 157.34375 504.664062 156.558594 C 504.976562 155.621094 505.445312 154.839844 506.070312 154.210938 C 506.695312 153.742188 507.476562 153.351562 508.414062 153.039062 C 509.195312 152.726562 510.054688 152.570312 510.992188 152.570312 L 513.570312 152.570312 Z M 521.773438 153.039062 C 522.710938 153.039062 523.570312 153.195312 524.351562 153.507812 C 525.132812 153.820312 525.835938 154.289062 526.460938 154.917969 C 526.929688 155.542969 527.320312 156.246094 527.632812 157.027344 C 527.945312 157.8125 528.101562 158.59375 528.101562 159.375 C 528.101562 160.316406 528.023438 161.175781 527.867188 161.957031 C 527.554688 162.898438 527.085938 163.679688 526.460938 164.304688 C 525.835938 164.929688 525.132812 165.480469 524.351562 165.949219 C 523.570312 166.261719 522.710938 166.417969 521.773438 166.417969 C 520.992188 166.417969 520.132812 166.261719 519.195312 165.949219 C 518.414062 165.636719 517.710938 165.167969 517.085938 164.539062 C 516.460938 163.757812 515.992188 162.976562 515.679688 162.191406 C 515.367188 161.253906 515.289062 160.316406 515.445312 159.375 C 515.289062 158.59375 515.367188 157.8125 515.679688 157.027344 C 515.992188 156.089844 516.460938 155.308594 517.085938 154.683594 C 517.710938 154.054688 518.492188 153.585938 519.429688 153.273438 C 520.210938 152.960938 520.992188 152.882812 521.773438 153.039062 Z M 525.992188 159.609375 C 525.992188 156.792969 524.117188 154.683594 521.773438 154.683594 C 519.429688 154.683594 517.320312 156.792969 517.320312 159.609375 C 517.320312 162.429688 519.429688 164.773438 521.773438 164.773438 C 524.117188 164.773438 525.992188 162.429688 525.992188 159.609375 Z M 530.679688 153.039062 L 532.792969 153.039062 L 532.792969 164.773438 L 538.417969 164.773438 L 538.417969 165.949219 L 530.679688 165.949219 Z M 540.292969 153.039062 L 542.167969 153.039062 L 542.167969 164.773438 L 547.558594 164.773438 L 547.558594 166.183594 L 540.292969 166.183594 Z M 549.902344 153.039062 L 557.167969 153.039062 L 557.167969 154.917969 L 552.011719 154.917969 L 552.011719 158.671875 L 556.933594 158.671875 L 556.933594 160.316406 L 552.011719 160.316406 L 552.011719 164.773438 L 557.167969 164.773438 L 557.167969 166.183594 L 549.902344 166.183594 Z M 570.53125 155.386719 C 570.21875 155.230469 569.90625 155.152344 569.59375 155.152344 C 569.28125 154.996094 568.96875 154.917969 568.65625 154.917969 C 568.34375 154.761719 568.03125 154.683594 567.71875 154.683594 C 567.402344 154.683594 567.089844 154.683594 566.777344 154.683594 C 566.152344 154.683594 565.527344 154.839844 564.902344 155.152344 C 564.277344 155.308594 563.730469 155.621094 563.261719 156.089844 C 562.636719 156.558594 562.246094 157.105469 562.089844 157.734375 C 561.777344 158.359375 561.621094 158.984375 561.621094 159.609375 C 561.621094 160.238281 561.777344 160.863281 562.089844 161.488281 C 562.246094 162.113281 562.558594 162.742188 563.027344 163.367188 C 563.652344 163.835938 564.277344 164.148438 564.902344 164.304688 C 565.527344 164.617188 566.152344 164.773438 566.777344 164.773438 L 568.890625 164.773438 L 568.890625 160.550781 L 566.074219 160.550781 L 566.074219 159.375 L 570.53125 159.375 L 570.53125 165.714844 C 570.21875 165.871094 569.90625 166.027344 569.59375 166.183594 C 569.28125 166.339844 568.96875 166.417969 568.65625 166.417969 C 568.34375 166.417969 568.03125 166.417969 567.71875 166.417969 C 567.402344 166.574219 567.089844 166.574219 566.777344 166.417969 C 565.839844 166.574219 564.980469 166.496094 564.199219 166.183594 C 563.261719 165.714844 562.480469 165.167969 561.855469 164.539062 C 561.230469 163.914062 560.761719 163.132812 560.449219 162.191406 C 559.980469 161.410156 559.824219 160.550781 559.980469 159.609375 C 559.980469 158.671875 560.136719 157.8125 560.449219 157.027344 C 560.761719 156.246094 561.230469 155.542969 561.855469 154.917969 C 562.636719 154.289062 563.417969 153.820312 564.199219 153.507812 C 564.980469 153.195312 565.839844 153.039062 566.777344 153.039062 L 570.53125 153.742188 Z M 574.28125 153.039062 L 581.546875 153.039062 L 581.546875 154.683594 L 575.921875 154.683594 L 575.921875 158.4375 L 581.078125 158.4375 L 581.078125 160.316406 L 575.921875 160.316406 L 575.921875 164.773438 L 581.546875 164.773438 L 581.546875 166.183594 L 574.28125 166.183594 Z M 574.28125 153.039062 "/>
<path style="fill:none;stroke-width:0.7;stroke-linecap:butt;stroke-linejoin:miter;stroke:rgb(34.509804%,71.764706%,86.666667%);stroke-opacity:1;stroke-miterlimit:4;" d="M 74.00044 61.299186 L 248.400171 61.299186 " transform="matrix(2.344,0,0,2.347222,0,0)"/>
<path style=" stroke:none;fill-rule:nonzero;fill:rgb(7.45098%,13.72549%,33.72549%);fill-opacity:1;" d="M 115.558594 143.179688 L 117.199219 143.179688 L 120.949219 152.101562 L 124.699219 143.179688 L 126.105469 143.179688 L 126.105469 153.507812 L 125.167969 153.507812 L 125.167969 144.121094 L 121.417969 153.507812 L 120.714844 153.507812 L 116.496094 144.121094 L 116.496094 153.507812 L 115.558594 153.507812 Z M 109.933594 143.882812 L 107.355469 143.882812 L 107.355469 143.179688 L 114.152344 143.179688 L 114.152344 143.882812 L 111.105469 143.882812 L 111.105469 153.507812 L 109.933594 153.507812 Z M 109.933594 143.882812 "/>
</g>
</svg>
