<?xml version="1.0" encoding="utf-8"?>
<svg xmlns="http://www.w3.org/2000/svg" width="250px" height="233px">
<path fill="#613393" d="M3.59,120c0.28,0,0.45,0.1,0.66,0.6l3.22,8.01c0,0,0.01,0.03,0.01,0.09c0.04-0.09,0.09-0.17,0.09-0.17l3.4-8.11c0.05-0.13,0.14-0.41,0.51-0.41l0.54,0.05l0.31,0.02l0.36-0.02l0.6-0.05c0.31,0,0.59,0.04,0.59,0.37c0,0.35-0.3,0.42-0.53,0.5c-0.41,0.12-0.87,0.25-0.84,1.37l0.24,7.38c0.05,1.31,0.53,1.46,0.92,1.58c0.22,0.07,0.5,0.16,0.5,0.5c0,0.46-0.37,0.46-0.87,0.46l-1.26-0.08l-1.21,0.05c0,0-0.43,0.02-0.54,0.02c0,0-0.4,0.03-0.61-0.15c-0.11-0.1-0.11-0.27-0.11-0.27c0-0.31,0.23-0.4,0.42-0.5c0.28-0.11,0.63-0.27,0.63-1.18c0-0.06,0-0.11,0-0.19l-0.22-5.06c0,0-0.01-0.13-0.02-0.27c-0.1,0.22-0.21,0.47-0.21,0.47l-2.81,6.67c-0.07,0.21-0.18,0.49-0.5,0.49c-0.31,0-0.42-0.3-0.52-0.58c0,0-2.61-6.59-2.77-7.03c-0.01,0.16-0.15,4.59-0.15,4.59c-0.05,1.8,0.56,1.95,1,2.07c0.24,0.06,0.52,0.15,0.52,0.51c0,0-0.01,0.19-0.09,0.27c-0.22,0.19-0.43,0.15-0.43,0.15l-1.5-0.08l-1.1,0.06l-0.35,0.02c-0.31,0-0.44-0.2-0.44-0.41c0-0.32,0.25-0.45,0.47-0.56c0.33-0.17,0.75-0.38,0.79-1.39l0.21-6.7c0.05-1.71-0.53-1.95-0.96-2.12c-0.24-0.1-0.52-0.21-0.52-0.57c0-0.2,0.14-0.41,0.34-0.41l0.27,0.03l0.61,0.03C2.22,120.07,3.58,120,3.59,120 M13.85,126.52c0,1.99,1.07,5.75,5.11,5.75c3.12,0,4.83-2.52,4.83-3.35c0-0.2-0.23-0.34-0.38-0.34c-0.19,0-0.35,0.17-0.63,0.5c-0.55,0.64-1.48,1.68-3,1.68c-2.76,0-3.8-3.36-3.8-5.49c0-2.13,1.11-4.41,3.16-4.41c2,0,3.16,2.06,3.56,2.95c0.15,0.36,0.29,0.67,0.59,0.67h0.09c0,0,0.1,0,0.17-0.11c0.14-0.22,0.1-0.6,0.1-0.6l0-0.01l-0.27-3.17c0-0.11-0.09-0.26-0.34-0.26c-0.21,0-0.3,0.2-0.36,0.35c-0.04,0.07-0.1,0.2-0.14,0.2l-0.59-0.25c-0.61-0.3-1.52-0.77-2.74-0.77C15.27,119.86,13.85,123.83,13.85,126.52 M26.55,120c-0.01,0-1.38,0.07-1.38,0.07l-0.6-0.03L24.3,120c-0.2,0-0.35,0.21-0.35,0.41c0,0.35,0.28,0.46,0.52,0.57c0.42,0.18,1.01,0.42,0.96,2.12l-0.2,6.7c-0.04,1.01-0.45,1.22-0.79,1.39c-0.22,0.11-0.47,0.24-0.47,0.56c0,0.2,0.14,0.41,0.44,0.41l0.36-0.02l1.1-0.06l1.5,0.08c0,0,0.25,0.04,0.43-0.15c0.1-0.1,0.09-0.27,0.09-0.27c0-0.37-0.3-0.46-0.53-0.51c-0.45-0.12-1.05-0.27-0.99-2.07c0,0,0.13-4.43,0.13-4.59c0.17,0.42,2.77,7.03,2.77,7.03c0.1,0.28,0.21,0.58,0.52,0.58c0.32,0,0.42-0.28,0.51-0.49l2.79-6.67c0,0,0.12-0.25,0.23-0.47c0.01,0.14,0.02,0.27,0.02,0.27l0.22,5.06c0,0.08,0,0.13,0,0.19c0,0.91-0.35,1.07-0.63,1.18c-0.19,0.09-0.42,0.19-0.42,0.5c0,0,0,0.15,0.11,0.27c0.11,0.12,0.61,0.15,0.61,0.15c0.11,0,0.54-0.02,0.54-0.02l1.21-0.05l1.26,0.08c0.51,0,0.87,0,0.87-0.46c0-0.33-0.27-0.43-0.49-0.5c-0.4-0.11-0.88-0.27-0.92-1.58l-0.24-7.38c-0.04-1.11,0.42-1.25,0.83-1.37c0.24-0.08,0.53-0.16,0.53-0.5c0-0.33-0.28-0.37-0.59-0.37l-0.6,0.05l-0.35,0.02l-0.3-0.02L34.45,120c-0.38,0-0.48,0.28-0.52,0.41l-3.4,8.11c0,0-0.05,0.09-0.09,0.17c-0.01-0.05-0.01-0.09-0.01-0.09l-3.22-8.01C27.01,120.11,26.82,120,26.55,120 M222.99,120.06l-0.59,0.02l-0.56-0.02l-0.98-0.05c-0.01,0-0.34,0.11-0.34,0.11l-0.12,0.33c0,0.29,0.3,0.38,0.56,0.47c0.35,0.1,0.57,0.18,0.57,0.46c0,0.25-0.09,0.46-0.54,1.15l-1.22,1.74l-0.08,0.12c0,0-0.11,0.15-0.13,0.19c0-0.05-0.09-0.19-0.09-0.19l-1.41-2.57l-0.18-0.49c0-0.22,0.15-0.31,0.4-0.42c0.2-0.11,0.45-0.25,0.45-0.52v-0.06c0,0-0.01-0.1-0.09-0.19c-0.1-0.13-0.39-0.13-0.39-0.13l-0.48,0.02l-1.4,0.05l-1.48-0.05l-0.49-0.02c-0.14,0-0.51,0-0.51,0.41c0,0.32,0.2,0.4,0.4,0.5c0.35,0.15,0.97,0.43,1.9,2.02l1.58,2.73c0.08,0.12,0.43,0.81,0.43,0.81l-0.26,0.41c0,0-0.12,0.18-0.12,0.19l-2.45,3.41c-0.32,0.44-0.71,0.64-1,0.79c-0.26,0.12-0.5,0.25-0.5,0.53v0.09c0,0,0,0.1,0.12,0.17c0.12,0.08,0.45,0.09,0.45,0.09c0.17,0,0.85-0.04,0.85-0.04l0.72-0.03l0.54,0.03l1.01,0.04c0.37,0,0.56-0.13,0.56-0.36c0-0.4-0.4-0.48-0.71-0.54c-0.42-0.09-0.62-0.16-0.62-0.49c0-0.16,0.11-0.53,0.47-1.08l1.41-2.11c0,0,0.07-0.09,0.13-0.18c0.07,0.1,0.14,0.22,0.14,0.22l1.48,2.37l0.33,0.87c0,0.2-0.1,0.27-0.34,0.36c-0.2,0.09-0.47,0.19-0.47,0.54c0,0,0.01,0.2,0.11,0.29c0.09,0.09,0.43,0.11,0.43,0.11c0.06,0,1.17-0.04,1.17-0.04l0.6-0.03l0.96,0.04l0.43,0.03c0.52,0,0.93,0,0.93-0.42c0-0.24-0.17-0.33-0.38-0.45c-0.28-0.18-0.78-0.47-1.35-1.4l-2.24-3.65l-0.12-0.2l-0.27-0.57l0.32-0.53l0.13-0.19l1.77-2.53c0.66-0.96,1.25-1.2,1.62-1.33c0.22-0.09,0.44-0.18,0.44-0.42c0-0.29-0.16-0.44-0.49-0.44L222.99,120.06z M231.45,120.06l-0.6,0.02l-0.55-0.02l-0.98-0.05c-0.01,0-0.25,0.01-0.34,0.11c-0.09,0.1-0.12,0.33-0.12,0.33c0,0.29,0.29,0.38,0.55,0.47c0.36,0.1,0.56,0.18,0.56,0.46c0,0.25-0.08,0.46-0.53,1.15l-1.22,1.74l-0.09,0.12c0,0-0.1,0.15-0.13,0.19c-0.01-0.05-0.09-0.19-0.09-0.19l-1.42-2.57l-0.17-0.49c0-0.22,0.15-0.31,0.39-0.42c0.2-0.11,0.46-0.25,0.46-0.52v-0.1c0,0-0.02-0.1-0.09-0.15c-0.12-0.12-0.4-0.13-0.4-0.13l-0.49,0.02l-1.39,0.05l-1.48-0.05l-0.49-0.02c-0.14,0-0.5,0-0.5,0.41c0,0.32,0.19,0.4,0.4,0.5c0.34,0.15,0.97,0.43,1.9,2.02l1.58,2.73c0.08,0.12,0.43,0.81,0.43,0.81l-0.26,0.41c0,0-0.12,0.18-0.13,0.19l-2.45,3.41c-0.33,0.44-0.71,0.64-0.99,0.79c-0.26,0.12-0.5,0.25-0.5,0.53v0.12c0,0-0.03,0.04,0.09,0.12c0.12,0.07,0.47,0.1,0.47,0.1c0.14,0,0.85-0.04,0.85-0.04l0.72-0.03l0.54,0.03l1.01,0.04c0.37,0,0.55-0.13,0.55-0.36c0-0.4-0.39-0.48-0.7-0.54c-0.44-0.09-0.64-0.16-0.64-0.49c0-0.16,0.13-0.53,0.47-1.08l1.42-2.11c0,0,0.07-0.09,0.13-0.18c0.07,0.1,0.13,0.22,0.13,0.22l1.49,2.37l0.34,0.87c0,0.2-0.12,0.27-0.34,0.36c-0.2,0.09-0.47,0.19-0.47,0.54c0,0,0,0.19,0.1,0.29c0.1,0.1,0.43,0.11,0.43,0.11c0.05,0,1.16-0.04,1.16-0.04l0.61-0.03l0.97,0.04l0.42,0.03c0.52,0,0.94,0,0.94-0.42c0-0.24-0.17-0.33-0.38-0.45c-0.3-0.18-0.79-0.47-1.35-1.4l-2.24-3.65c-0.01,0-0.12-0.2-0.12-0.2l-0.27-0.57l0.32-0.53l0.14-0.19l1.75-2.53c0.66-0.96,1.27-1.2,1.62-1.33c0.23-0.09,0.44-0.18,0.44-0.42c0-0.29-0.16-0.44-0.5-0.44L231.45,120.06z M239.91,120.15l-0.12,0.28c0,0.34,0.36,0.44,0.67,0.52c0.49,0.14,0.99,0.29,0.99,1.1v8.01c0,0.87-0.33,1.05-0.63,1.2c-0.19,0.1-0.42,0.2-0.42,0.54c0,0.21,0.13,0.36,0.32,0.36l1.63-0.07l1.52,0.04l0.71,0.03c0.18,0,0.64,0,0.64-0.41c0-0.32-0.33-0.37-0.57-0.42c-0.48-0.09-1.07-0.19-1.07-1.41v-7.96c0-0.87,0.34-0.97,0.63-1.07c0.2-0.07,0.46-0.15,0.46-0.47c0-0.08,0-0.26-0.19-0.35l-0.5-0.06l-1.17,0.05l-0.71,0.02l-1.65-0.07C240.41,120.02,239.91,120.15,239.91,120.15 M243.69,120.15c-0.09,0.1-0.12,0.28-0.12,0.28c0,0.34,0.36,0.44,0.67,0.52c0.48,0.14,0.99,0.29,0.99,1.1v8.01c0,0.87-0.33,1.05-0.62,1.2c-0.19,0.1-0.42,0.2-0.42,0.54c0,0.21,0.12,0.36,0.33,0.36l1.62-0.07l1.52,0.04l0.72,0.03c0.17,0,0.63,0,0.63-0.41c0-0.32-0.31-0.37-0.57-0.42c-0.49-0.09-1.08-0.19-1.08-1.41v-7.96c0-0.87,0.34-0.97,0.64-1.07c0.2-0.06,0.46-0.15,0.46-0.47c0-0.08-0.01-0.3-0.19-0.35c-0.18-0.05-0.49-0.06-0.49-0.06l-1.17,0.05l-0.71,0.02l-1.66-0.07C244.2,120.02,243.78,120.05,243.69,120.15 M240.02,120.06l-0.6,0.03c0,0-1.25-0.07-1.26-0.07c-0.06,0-0.43,0.03-0.59,0.14c-0.16,0.1-0.18,0.3-0.18,0.3c0,0.35,0.34,0.43,0.6,0.48c0.43,0.1,0.88,0.2,0.88,1.05c0,0.19,0,0.75-0.46,1.92c0,0-2.02,5.13-2.04,5.18c0-0.02-0.02-0.06-0.02-0.06l-1.91-5.41c-0.36-1-0.55-1.79-0.55-2.26c0-0.26,0.14-0.33,0.4-0.41c0.21-0.07,0.48-0.18,0.48-0.48c0,0,0-0.24-0.1-0.34c-0.16-0.12-0.53-0.1-0.53-0.1c-0.08,0-0.4,0.02-0.4,0.02l-1.27,0.05l-1.47-0.07c-0.13,0-0.64,0.05-0.71,0.1c-0.07,0.04-0.15,0.35-0.15,0.35c0,0.24,0.34,0.38,0.35,0.38c0.56,0.17,0.72,0.31,0.96,0.91l3.64,9.71c0.29,0.74,0.45,0.97,0.72,0.97c0.3,0,0.4-0.24,0.55-0.64l3.97-10.02c0.21-0.52,0.48-0.73,0.68-0.86c0.16-0.11,0.33-0.24,0.33-0.48c0,0-0.01-0.22-0.11-0.32c-0.1-0.09-0.45-0.1-0.45-0.1C240.65,120.02,240.02,120.06,240.02,120.06 M7.74,70.03c-0.3,0.2-0.3,0.5-0.3,0.5l-0.09,2.29l-0.69,4.81c0,0-0.04,0.2,0.17,0.42c0.17,0.18,0.36,0.21,0.36,0.21c0.73,0.08,0.95-0.57,1.18-1.25c0.37-1.08,0.82-2.42,3.33-2.15l13.51,1.42c6.59,0.69,9.59,4.18,8.9,10.4c-0.66,6.06-4.63,9.31-10.61,8.68L8.51,93.79c-1.72-0.18-1.85-1.12-1.97-1.95c-0.08-0.52-0.15-1.06-0.73-1.12c0,0-0.22-0.02-0.34,0.1c-0.27,0.23-0.36,0.76-0.4,1.24c-0.01,0.09-0.27,4.01-0.27,4.01l-0.52,3.2c-0.01,0.17-0.01,1.09,0.47,1.13c0.7,0.07,0.95-0.62,1.19-1.31c0.34-0.91,0.69-1.87,1.97-1.73l14.05,1.48c5.47,0.57,12.87-0.01,14.16-11.73c0.42-3.8-0.3-6.84-2.12-9.03c-2.76-3.33-7.21-3.76-8.89-3.92l-13.16-1.38c-2.36-0.25-2.73-1.25-2.99-1.97c-0.16-0.43-0.31-0.84-0.82-0.9C8.14,69.9,7.9,69.91,7.74,70.03 M20.81,34.83l-0.66,1.62L19.2,38.7l-1.74,3.35c-0.16,0.35-0.04,0.65,0.28,0.8c0.54,0.24,0.94-0.26,1.4-0.82c0.9-1.11,2.13-2.64,5.35-1.22l15.96,7.04c0,0,0.17,0.1,0.23,0.13c-0.12,0-0.48,0.12-0.48,0.12l-28.58,8.98l-0.27,0.07c-0.42,0.09-0.99,0.21-1.17,0.62l-0.65,1.79l-0.98,1.7c0,0-0.16,0.35-0.02,0.7c0.05,0.15,0.23,0.26,0.23,0.26c0.54,0.24,0.89-0.21,1.31-0.72c0.92-1.15,2.47-3.08,7.93-0.68L32.09,67c3.45,1.52,3.23,3.05,3.07,4.17c-0.09,0.56-0.16,1.1,0.4,1.34c0.14,0.06,0.58,0.25,0.87-0.39l0.28-0.69l1.21-2.91l1.28-2.51l0.64-1.22l0.03-0.46l-0.42-0.38c-0.5-0.22-0.83,0.26-1.18,0.78c-0.62,0.92-1.4,2.07-3.49,1.15L19.17,59c-0.66-0.29-0.68-0.41-0.69-0.42c0.03-0.06,0.18-0.18,0.86-0.35l26.12-8.05c1.13-0.37,1.6-0.62,1.83-1.05c0.04-0.07,0.06-0.18,0.01-0.3c-0.15-0.32-0.56-0.53-1.58-0.98l-22.1-9.74c-1.65-0.73-1.63-1.67-1.62-2.43c0-0.49,0.02-0.94-0.45-1.15C21.25,34.39,20.96,34.51,20.81,34.83 M33.28,19.48l-2.52,2.97l-3.25,3.28c-0.29,0.31-0.28,0.53,0.07,0.83c0.34,0.31,0.78,0.02,1.29-0.32c0.88-0.58,1.96-1.3,3.35-0.1l15.77,13.94c1,0.88,1.3,1.62,1.3,2.24c0,0.57-0.25,1.05-0.47,1.45c-0.16,0.3-0.31,0.6-0.31,0.86c0,0.16,0.06,0.32,0.22,0.46c0.43,0.38,0.78,0.31,1.3-0.24l0.46-0.56l2.14-2.5l2.08-2.1l1.15-1.14c0.44-0.48,0.61-0.81,0.25-1.13c-0.48-0.41-1.08-0.01-1.72,0.4c-0.92,0.61-1.97,1.31-3.14,0.27L34.69,23.46c-1.39-1.23-0.87-2.24-0.44-3.05c0.26-0.48,0.49-0.93,0.12-1.26C33.97,18.8,33.68,19.06,33.28,19.48 M48.76,10.89 M68.29,2.79L67.65,3.1l-2.32,1.04l-2.65,0.88c-0.31,0.12-0.72,0.36-0.48,0.94c0.2,0.49,0.79,0.39,1.35,0.29c0.78-0.14,1.58-0.29,1.95,0.61c0.34,0.52,0.51,1.44,0.51,2.74l-0.53,18.16l0.01,0.36c0.01,0.37,0.03,0.76-0.18,0.83c-0.25,0.1-0.82-0.48-1.78-1.43l-0.8-0.8L48.88,14.76c-0.31-0.3-0.72-0.81-0.92-1.29c-0.08-0.18-0.1-0.35-0.1-0.51c0-0.48,0.3-0.85,0.57-1.19c0.2-0.24,0.39-0.47,0.39-0.7c0-0.06-0.02-0.13-0.04-0.19c0,0-0.04-0.13-0.27-0.24c-0.29-0.14-0.65,0-0.65,0l-1.08,0.5l-1.96,0.89l-3.68,1.28c-0.44,0.18-0.6,0.54-0.42,0.97c0.19,0.44,0.66,0.4,1.16,0.34c0.76-0.08,1.79-0.19,2.9,0.91l19.39,17.4l0.45,0.46c0.73,0.76,1.57,1.62,2.18,1.39c0.54-0.21,0.52-1.08,0.49-1.99l-0.01-0.88L68.21,6.5c0.03-1.77,0.55-2.24,0.91-2.55c0.23-0.21,0.45-0.4,0.27-0.82c0,0-0.06-0.27-0.35-0.38C68.74,2.62,68.29,2.79,68.29,2.79 M92.1,1.63l-2.44,0.13l-2.21,0.01L76.93,1.89c-0.87,0.02-1.32,0.12-1.49,0.31c-0.17,0.19-0.13,0.39-0.13,0.39c0.01,0.55,0.77,0.67,1.22,0.74l0.2,0.04c2.16,0.26,2.21,2.12,2.25,3.93l0.48,17.93c0.05,1.99-0.03,2.99-1.01,3.44c0,0-1.08,0.5-1.08,0.5c-0.53,0.22-0.8,0.32-0.85,0.74c0,0.03,0.01,0.28,0.16,0.42c0.15,0.14,0.65,0.17,0.65,0.17l3.13-0.16l2.05-0.13l6-0.06l4.45-0.01l0.28,0c1.72-0.03,2.66-0.06,3.96-1.54c1.41-1.56,2.09-2.92,2.06-4.15c0,0-0.03-0.34-0.21-0.52c-0.2-0.22-0.23-0.16-0.31-0.12c-0.17,0.08-0.62,0.4-0.62,0.4c-1.05,0.88-3.83,3.23-11.67,3.42c-1.49,0.03-2.28-0.11-2.69-0.49c-0.42-0.4-0.43-1.07-0.44-2.09l-0.01-0.59l-0.19-6.85l-0.01-0.21c-0.02-0.33-0.04-0.64,0.11-0.81c0,0,0.14-0.13,0.45-0.14c0.31,0,7.01-0.15,7.01-0.15c2.08-0.06,2.37,1.23,2.6,2.25c0.15,0.66,0.29,1.29,0.93,1.27c0.4-0.01,0.63-0.27,0.62-0.71l-0.17-3.23l-0.02-4.14l-0.29-0.79l-0.37-0.15c-0.45,0.01-0.58,0.45-0.71,0.96c-0.25,0.94-0.64,2.36-3.48,2.43l-5.32,0.11c-0.77,0.02-1.2,0.03-1.33-0.1c-0.11-0.1-0.12-0.4-0.13-0.89l-0.2-7.21c-0.03-1.07-0.04-1.66,0.23-1.94c0.32-0.34,1.17-0.36,2.87-0.4l0.65-0.01l0.67-0.02c1.96-0.07,6.04-0.22,7,0.94c0.27,0.36,0.32,0.95,0.37,1.48c0.07,0.73,0.13,1.49,0.86,1.46l0.33-0.14c0.44-0.47,0.62-2.08,0.55-4.93c0-0.47-0.1-0.76-0.26-0.92l-0.35-0.13L92.1,1.63z M115.37,14.66l-1.07,0.03c-1.29,0.03-2.75,0.08-3.1-0.24l-0.2-9.49c-0.01-0.55,0.08-0.9,0.26-1.07c0.25-0.26,0.76-0.27,1.54-0.28h0.2c2.95-0.03,4.99,0.52,6.22,1.69c0.97,0.93,1.48,2.28,1.5,4.02c0.02,1.72-0.42,3.03-1.32,3.94C118.51,14.16,117.15,14.63,115.37,14.66 M131.24,28.63c-0.96-0.16-2.76-0.45-4.79-3.31c0,0-6.9-9.63-7.1-9.91c3.1-1.31,5.18-4.07,5.18-6.98V8.35c-0.03-2.03-0.7-3.67-1.99-4.84c-1.2-1.11-3.58-2.38-8.15-2.15l-3.52,0.13l-3.73,0.13l-2.07-0.08l-0.65-0.05c-0.57,0.01-1.01,0.3-1.01,0.66c0.01,0.64,0.63,0.75,1.3,0.86c1.05,0.17,2.37,0.39,2.4,2.66l0.27,20.42c0.03,1.83-1.11,2.28-2.02,2.64c-0.56,0.21-1.03,0.41-1.03,0.89c0,0.34,0.26,0.6,0.6,0.59l4.83-0.21l4.43,0.08l0.44,0.02c0.14,0,0.64-0.04,0.76-0.14c0.12-0.1,0.13-0.37,0.13-0.37c-0.01-0.65-0.73-0.8-1.49-0.97c-1.21-0.27-2.59-0.56-2.62-2.54l-0.11-8.46l0-0.18c0,0,0.01-0.44,0.09-0.57c0.08-0.13,0.41-0.21,0.83-0.22l0.71-0.01c3.18-0.04,3.18-0.04,3.88,1.09l0.59,0.91l4.79,6.96c2.13,2.94,4.44,4.35,7.07,4.32c2.83-0.03,2.91-0.46,2.91-0.66v-0.02C132.17,28.78,131.76,28.72,131.24,28.63 M111.01,4.95 M134.35,22.92L134.35,22.92z M138.15,2.87c-1.8,1.39-2.91,3.44-2.91,5.87c0,5.78,5.06,6.91,9.23,8.39c3.59,1.27,6.77,2.95,6.77,5.74c0,3.89-3.47,5.63-6.99,5.63c-5.46,0-7.96-3.92-8.38-5.56l-0.08-0.36c-0.14-0.64-0.23-1.09-0.84-1.09c-0.19,0-0.35,0.07-0.46,0.21c-0.14,0.16-0.2,0.4-0.2,0.7c0,0.17,0.02,0.34,0.06,0.54l1,5.19c0.19,0.9,4.24,2.35,7.04,2.35c8.5,0,11.62-4.78,11.62-8.76c0-6.49-4.74-7.34-9.13-8.95c-3.57-1.29-6.87-2.98-6.87-5.29c0-3.56,3.55-4.63,6-4.63c3.6,0,6.6,2.15,7.52,4.8c0.14,0.42,0.43,1.31,0.99,1.31c0,0,0.3-0.01,0.46-0.18c0.16-0.16,0.14-0.61,0.14-0.61l-0.59-5.47c-0.05-0.6-0.47-0.81-0.65-0.71c-0.18,0.09-0.56,0.28-0.56,0.28l-0.27,0.17L150.5,2.2c-0.82-0.4-2.51-1.24-6.14-1.24C141.96,0.96,139.74,1.64,138.15,2.87 M161.16,2.02c-0.15,0.12-0.2,0.46-0.2,0.46v0.04c0,0.41,0.48,0.56,1.06,0.73c0.98,0.3,2.19,0.65,2.19,2.25c0,0.05,0,0.11-0.01,0.16c0,0-1.23,20.32-1.23,20.32c-0.15,2.42-1.46,2.67-2.43,2.84c-0.55,0.1-1.07,0.2-1.1,0.73c0,0.03,0,0.06,0,0.09c0,0.48,0.28,0.7,1,0.73l0.74,0l3.34,0.08l2.96,0.27l1.64,0.16c0,0,0.59,0.07,0.9-0.14c0.1-0.07,0.16-0.37,0.16-0.37c0.03-0.6-0.66-0.81-1.39-1.02c-1.08-0.32-2.29-0.68-2.2-2.17l1.31-21.31c0.1-1.77,1.24-1.99,2.15-2.16c0.53-0.11,1.05-0.21,1.08-0.68c0.03-0.52-0.35-0.58-0.93-0.61l-3.95-0.07l-4.64-0.43C161.59,1.92,161.31,1.89,161.16,2.02 M177,3.95l-0.07,0.18l-1.52,3.58c0,0.02-0.08,0.32,0.06,0.54c0.11,0.16,0.32,0.25,0.32,0.25c0.58,0.15,0.83-0.29,1.04-0.61l0.1-0.16l0.16-0.24c1.19-1.69,1.47-2.09,3.76-1.49l6.61,1.74c0.14,0.04,0.23,0.35-0.17,1.5l-0.06,0.17l-5.8,19.87c-0.38,1.3-1.61,1.37-2.59,1.43c-0.69,0.04-1.3,0.08-1.43,0.54c0,0-0.09,0.36,0.01,0.55c0.11,0.2,0.44,0.29,0.44,0.29l0.24,0.04l5.36,1.27l3.24,1.02c0,0,0.14,0.1,0.42-0.03c0.18-0.09,0.28-0.41,0.28-0.41c0.18-0.6-0.37-0.88-0.93-1.17c-0.89-0.44-1.98-1-1.43-2.86l5.68-19.49l0.16-0.55c0.15-0.6,0.25-0.95,0.41-1.04c0.14-0.08,0.49,0.01,1.03,0.16l6.16,1.62c2.43,0.64,2.25,1.68,2.1,2.53c-0.1,0.52-0.12,1.14,0.51,1.28c0.29,0.07,0.52-0.04,0.52-0.04c0.27-0.17,0.33-0.54,0.39-0.81l0.68-3.11c0.25-0.99,0.03-1.34-0.97-1.62l-1.19-0.28l-10.75-2.7l-7.18-1.99l-4.29-1.2C177.5,2.52,177.18,3.45,177,3.95 M207.08,12.65c-0.27,0.31-0.02,0.67,0.29,1.08c0.4,0.55,0.95,1.31,0.78,2.42l-1.21,12.81c0-0.01-0.02,0.19-0.02,0.19c-0.06,0.55-0.16,1.39-0.58,1.86l-6.47,7.35c-1.08,1.22-2.06,0.75-2.93,0.32c-0.57-0.27-1.1-0.54-1.46-0.11c0,0-0.13,0.24-0.13,0.45c0,0.27,0.3,0.54,0.3,0.54l0.52,0.39l2.43,1.83l2.37,2.08l1.02,0.91c0.36,0.3,0.86,0.71,1.23,0.28c0.39-0.45,0.06-0.93-0.3-1.45c-0.56-0.83-1.27-1.86,0.1-3.42l6.54-7.43c0.25-0.28,0.49-0.34,1.02-0.47l0.87-0.22l10.26-2.97l0.66-0.2c0.97-0.31,1.88-0.61,2.89-0.42l0.25,0.06c0.37,0.12,0.88,0.27,1.17-0.07c0,0,0.15-0.28,0.15-0.49c0-0.22-0.2-0.4-0.2-0.4l-2.86-2.14l-2.21-2.02c-0.22-0.18-0.8-0.65-1.31-0.07c-0.35,0.4,0.05,0.88,0.48,1.38c0.69,0.82,1.14,1.44,0.51,2.15c-0.61,0.68-1.32,0.89-1.84,1.02l-0.21,0.06l-7.73,2.39c-0.73,0.22-0.92,0.19-0.98,0.15c-0.12-0.11-0.15-0.4-0.09-0.93l0.7-9.36c0.05-0.56,0.12-1.21,0.48-1.62c0.37-0.42,0.97-0.28,1.54-0.13c0.49,0.11,0.95,0.23,1.21-0.08c0,0,0.16-0.09,0.12-0.34c-0.04-0.39-0.48-0.69-0.48-0.69l-0.57-0.4l-1.75-1.3l-2.56-2.24l-0.95-0.85C207.83,12.27,207.33,12.38,207.08,12.65 M227.83,72.8c-3.64,0.3-6.94-0.61-9.29-2.57c-2.06-1.71-3.31-4.15-3.53-6.87c-0.69-8.23,6.41-13.27,13.43-13.84c3.49-0.28,6.82,0.66,9.14,2.58c2.05,1.7,3.25,4.1,3.5,6.91C241.72,66.93,234.85,72.24,227.83,72.8 M243.51,59.9c-0.36-4.39-2.32-8.26-5.51-10.91c-2.99-2.47-6.84-3.65-10.87-3.33c-9.17,0.74-14.85,7.18-14.12,16c0.39,4.81,2.29,8.75,5.47,11.4c3.01,2.5,6.94,3.63,11.38,3.27C238.35,75.63,244.21,68.58,243.51,59.9 M242.91,79.79c-0.31,2.11-2.09,2.11-3.97,2.11h-18.86c-2.91,0-3.34-1.22-3.67-2.13c-0.17-0.46-0.32-0.9-0.83-0.9c-0.16,0-0.52,0.15-0.52,0.58l0.06,1.13l0.14,3.18l-0.18,4.5l-0.01,0.28c0,0.27,0,1.08,0.73,1.08c0.45,0,0.55-0.5,0.69-1.08c0.25-1.14,0.61-2.7,3.07-2.7h8.27l0.29-0.01c0.3-0.02,0.62-0.02,0.71,0.1c0.09,0.11,0.14,0.39,0.14,0.49v5.8c0,2.03-1.28,2.28-2.32,2.48c-0.65,0.13-1.29,0.25-1.29,0.88c0,0.4,0.26,0.62,0.71,0.62l3.23-0.08l4.14,0.08c0.45,0,0.94-0.2,0.94-0.62c0-0.44-0.4-0.58-0.84-0.71c-0.84-0.28-2.08-0.68-2.08-3.47v-4.15c0-0.75,0-1.17,0.13-1.31c0.11-0.1,0.4-0.1,0.89-0.1h7.46l0.71-0.01c0.76,0,1.21-0.02,1.42,0.18c0.28,0.27,0.27,1.04,0.27,2.6v0.63l0,0.67c0.01,1.86,0.08,5.34-1.09,6.24c-0.37,0.27-0.97,0.3-1.49,0.33c-0.72,0.03-1.48,0.09-1.48,0.81c0,0.43,0.63,0.83,5.2,0.83c0.26,0,1.07,0,1.07-0.6l-0.09-3.53l-0.08-2.39l0.05-1.56l0.12-10.17c0-1.2-0.33-1.45-0.84-1.45C243.41,78.42,243.07,79.11,242.91,79.79 M33.01,163.38c-1.04,1.29-2.55,2.07-4.34,2.27c-1.59,0.16-4.26,0.46-5.06-6.23c-0.2-1.72-0.28-2.64-0.06-2.89c0.1-0.14,0.29-0.15,0.63-0.16l0.43-0.03l6.77-0.72l0.49-0.06c1.05-0.12,1.69-0.19,2.06,0.1c0.31,0.25,0.49,0.79,0.62,1.8C34.81,159.71,34.25,161.87,33.01,163.38 M15.13,169.53c-0.71,0.09-2.56,0.14-4.15-1.09c-1.31-1.03-2.11-2.67-2.36-4.87c-0.6-5.34,0.1-5.41,2.67-5.68c0,0,9.17-1.05,9.33-1.07c0.17-0.03,0.29,0.04,0.29,0.04c0.3,0.22,0.53,1.1,0.7,2.61C22.65,168.69,17.56,169.26,15.13,169.53 M36.58,159.07l-0.61-4.47l-0.31-2.18l-0.15-2.24l-0.06-1.12c-0.05-0.45-0.1-0.9-0.37-1.08c-0.28-0.17-0.53-0.13-0.53-0.13c-0.41,0.06-0.51,0.55-0.64,1.2c-0.23,1.14-0.56,2.7-2.53,2.93l-20.56,2.32c-2.97,0.33-3.42-0.83-3.62-1.34c-0.03-0.07-0.11-0.27-0.11-0.27c-0.3-0.65-0.52-1.13-1.03-1.08c0,0-0.16,0.01-0.29,0.16c-0.27,0.26-0.19,1.11-0.19,1.12l0.81,5.77l0.45,5.46c0.36,3.27,1.62,5.74,3.72,7.38c2.17,1.69,4.85,2.08,6.47,1.9c5.47-0.61,6.37-4.82,6.76-6.61c0,0,0.2-0.71,0.22-0.77c0.01,0.09,0.21,0.3,0.21,0.3c0.8,1,2.67,3.31,6.14,2.93C32.07,169.05,37.56,167.74,36.58,159.07 M91.48,217.35c0,8.84,6.23,14.56,15.87,14.56c5.05,0,7.28-1.24,9.45-2.43c1.08-0.59,2.2-1.21,3.65-1.66l0.12-0.02l0.01-7.47c0-1.63,0.79-2.06,1.43-2.41c0.37-0.2,0.72-0.39,0.72-0.79l-0.15-0.37c-0.23-0.21-0.65-0.18-0.96-0.17l-0.2,0.01h-7.08c-0.13-0.01-0.84,0.02-0.98,0.19c-0.14,0.16-0.17,0.43-0.17,0.43c0,0.56,0.66,0.67,1.36,0.79c1.07,0.17,1.82,0.38,1.82,1.27v5.92c0,3.16-4.18,4.57-8.32,4.57c-8.39,0-12.15-6.67-12.15-13.29c0-5.63,2.92-12.21,11.13-12.21c7.42,0,10.45,4.16,11.9,6.16c0.55,0.77,0.89,1.22,1.25,1.22c0.63,0,0.63-0.67,0.63-0.9l-0.43-5.3c0-0.01,0-0.22,0-0.22s-0.06-0.58-0.19-0.71c-0.12-0.13-0.44-0.14-0.44-0.14c-0.31,0-0.51,0.21-0.68,0.43c-0.15,0.15-0.27,0.29-0.42,0.29c-0.3,0-0.71-0.21-1.27-0.53c-1.53-0.82-4.09-2.22-9.36-2.22C98.59,202.36,91.48,208.82,91.48,217.35 M163.64,202.31l-5.11,0.73l-3.98,0.32l-0.67,0.04c-0.4,0.04-0.68,0.39-0.62,0.84c0.08,0.66,0.67,0.64,1.24,0.61c1.03-0.06,2.32-0.15,2.66,2.81l2.24,19.17c0.33,2.85-0.96,3.38-1.91,3.78c-0.48,0.2-0.93,0.39-0.88,0.86c0,0,0.13,0.28,0.22,0.4c0.08,0.1,0.44,0.2,0.7,0.16c0.26-0.04,1.9-0.28,1.9-0.28l3.01-0.43l2.93-0.24l1.63-0.1c0.68-0.08,1.1-0.21,1.21-0.4c0.11-0.19,0.1-0.4,0.1-0.4c-0.06-0.58-0.7-0.61-1.34-0.65c-1.28-0.06-3.22-0.16-3.67-3.9l-2.36-20.21c-0.07-0.66,0.29-0.75,1.35-0.97l0.57-0.12c1.72-0.39,3.93,0.14,5.78,1.39c1.76,1.19,2.9,2.86,3.13,4.56c0.32,2.45-1.45,5.22-5.49,5.76l-2.09,0.19c0,0-0.28,0.03-0.4,0.03c-0.11,0.01-0.46,0.13-0.58,0.32c-0.09,0.13-0.15,0.27-0.13,0.41c0.08,0.94,3.2,0.97,3.45,0.93c9.39-1.04,9.11-7.61,8.96-8.91C174.89,203.98,170.58,201.53,163.64,202.31 M41.89,186.38c-0.41,1.27-1.42,2.31-3,3.12c-3.95,1.99-6.14-0.14-7.28-2.29l-0.51-0.91c-0.56-1.02-1.19-2.17-1.19-2.69c0-0.06,0-0.1,0.01-0.14l8.59-4.43c0.5-0.25,0.85-0.34,1.09-0.25c0.35,0.09,0.58,0.55,0.94,1.21l0.09,0.19C42,182.75,42.41,184.78,41.89,186.38 M43.3,180.39l-1.69-3.01l-1.81-3.24l-0.85-1.82l-0.24-0.59c-0.27-0.5-0.73-0.76-1.07-0.58c-0.58,0.3-0.4,0.89-0.2,1.51c0.32,1,0.71,2.22-1.36,3.29l-18.52,9.4c-1.65,0.84-2.57,0.06-3.31-0.58c-0.45-0.39-0.84-0.72-1.28-0.49c0,0-0.23,0.16-0.32,0.35c-0.09,0.19,0.04,0.43,0.04,0.43l2.37,4.12l1.93,3.93l0.17,0.38c0.06,0.13,0.26,0.56,0.47,0.6c0.2,0.03,0.39-0.06,0.39-0.06c0.6-0.3,0.41-1,0.21-1.74c-0.31-1.17-0.66-2.51,1.14-3.43l7.68-3.91l0.16-0.08l0.55-0.18c0.2,0.06,0.39,0.27,0.58,0.64l0.33,0.61c1.47,2.76,1.47,2.76,0.75,3.89l-0.57,0.91l-4.2,7.31c-1.74,3.2-1.99,5.84-0.78,8.12c0.73,1.39,1.29,2.14,1.67,2.26l0.07,0.02c0,0,0.1,0.01,0.2-0.03c0.2-0.1,0.28-0.25,0.28-0.44c0-0.19-0.07-0.41-0.14-0.64c-0.13-0.42-0.32-1-0.32-1.8c0-0.96,0.27-2.23,1.19-3.88c0,0,5.7-10.38,5.86-10.67c2.61,2.15,6.09,2.71,8.77,1.35c1.84-0.92,3.03-2.24,3.53-3.89C45.48,186.93,45.56,184.27,43.3,180.39 M50.55,191.02c-0.07,0.1-0.1,0.19-0.1,0.29c0,0.28,0.28,0.59,0.58,0.93c0.45,0.51,0.98,1.13,0.98,1.9c0,0.4-0.13,0.81-0.48,1.31l-12.34,16.49c-1.46,1.97-2.71,1.49-3.62,1.12c-0.52-0.2-1.02-0.41-1.34,0.04c-0.34,0.45-0.23,0.79,0.4,1.23l0.61,0.38l2.78,1.84l2.33,1.8l1.31,1.01c0,0,0.49,0.4,0.84,0.36c0.1-0.02,0.18-0.03,0.32-0.22c0.37-0.51-0.1-1.04-0.6-1.62c-0.73-0.83-1.56-1.79-0.66-2.99l12.94-17.3c1.08-1.45,2.15-1.03,3.03-0.7c0.51,0.21,0.99,0.39,1.27,0.01c0.32-0.43,0.03-0.68-0.44-1.02l-3.29-2.15l-3.68-2.84C51.04,190.64,50.82,190.68,50.55,191.02 M218.78,163.45L218.78,163.45L218.78,163.45z M215.85,149.56l-0.09,1.07l-0.95,10.94l-0.81,7.29l-0.5,4.32c-0.09,0.79,0.91,0.96,1.45,1.05l0.19,0.02l3.88,0.87c0.02,0,0.33,0.04,0.54-0.15c0.13-0.13,0.2-0.36,0.2-0.36c0.06-0.56-0.44-0.74-0.8-0.89l-0.18-0.07c0.01,0-0.27-0.12-0.27-0.12c-1.9-0.86-2.35-1.06-2.12-3.36l0.65-6.67c0.03-0.14,0.32-0.29,1.53-0.1l0.19,0.04l21.1,2.26c1.36,0.14,1.65,1.31,1.89,2.26c0.15,0.65,0.29,1.23,0.78,1.29c0,0,0.39,0.08,0.57-0.1c0.19-0.18,0.2-0.48,0.2-0.48l0-0.24l0.39-5.4l0.49-3.3c0,0,0.01-0.25-0.1-0.4c-0.11-0.16-0.47-0.19-0.47-0.19c-0.63-0.07-0.82,0.5-1.02,1.1c-0.3,0.92-0.68,2.07-2.66,1.85l-20.68-2.21l-0.58-0.05c-0.63-0.07-1.01-0.1-1.12-0.24c-0.11-0.12-0.07-0.46-0.01-1.01l0.62-6.22c0.23-2.46,1.33-2.45,2.21-2.45c0.54,0,1.15,0.01,1.22-0.7c0,0-0.01-0.35-0.14-0.5c-0.2-0.22-0.59-0.23-0.88-0.23l-3.26-0.15C216.28,148.29,215.95,148.54,215.85,149.56 M208.25,212.79c-0.45,2.61-1.94,4.91-4.22,6.49c-6.88,4.76-14.94,1.37-19.01-4.25c-1.66-2.28-2.54-4.86-2.54-7.33c0-0.58,0.04-1.13,0.14-1.69c0.45-2.57,1.93-4.81,4.28-6.46c6.63-4.58,14.78-1.51,18.87,4.1C207.88,206.58,208.77,209.82,208.25,212.79 M207.82,200.16c-4.94-6.8-14.14-8.12-21.39-3.09c-3.67,2.54-6.08,6.17-6.78,10.21c-0.66,3.76,0.27,7.61,2.62,10.83c5.34,7.33,13.89,8.84,21.27,3.71c4.02-2.78,6.52-6.38,7.21-10.42C211.43,207.59,210.41,203.7,207.82,200.16 M146.93,202.8l-3.64,0.2l-2.41,0.11l-2.2,0.01l-10.52,0.11c-0.89,0.02-1.31,0.1-1.51,0.31l-0.14,0.39c0.02,0.54,0.78,0.67,1.23,0.74l0.2,0.03c2.16,0.27,2.21,2.13,2.25,3.93l0.48,17.94c0.05,2-0.02,2.98-1,3.44c-0.01,0-1.09,0.5-1.09,0.5c-0.51,0.21-0.78,0.32-0.84,0.74c0.01,0.61,0.62,0.6,0.81,0.59l3.12-0.17l2.06-0.12l6.01-0.06l4.44-0.02h0.28c1.73-0.03,2.66-0.06,3.96-1.55c1.41-1.55,2.09-2.92,2.05-4.14c0,0-0.09-0.41-0.2-0.52c-0.11-0.1-0.22-0.2-0.39-0.13c-0.13,0.06-0.56,0.4-0.56,0.4c-1.05,0.88-3.84,3.23-11.68,3.44c-1.48,0.02-2.27-0.12-2.69-0.51c-0.4-0.4-0.41-1.07-0.43-2.1v-0.58l-0.2-6.85l-0.01-0.21c-0.01-0.33-0.03-0.64,0.12-0.82c0,0,0.28-0.12,0.45-0.13c0.17,0,7.01-0.15,7.01-0.15c2.08-0.05,2.37,1.23,2.6,2.26c0.15,0.66,0.29,1.28,0.93,1.27c0.4-0.01,0.62-0.28,0.61-0.72l-0.16-3.24l-0.01-4.15c0,0,0-0.55-0.3-0.78c-0.1-0.11-0.37-0.14-0.37-0.14c-0.45,0.01-0.57,0.44-0.71,0.95c-0.25,0.95-0.64,2.37-3.49,2.43l-5.32,0.12c-0.77,0.01-1.19,0.02-1.33-0.1c-0.11-0.1-0.12-0.4-0.14-0.89l-0.2-7.22c-0.03-1.07-0.05-1.66,0.22-1.94c0.34-0.33,1.19-0.35,2.89-0.39l0.64-0.02l0.67-0.01c1.96-0.07,6.03-0.21,7.01,0.94c0.27,0.36,0.31,0.94,0.35,1.48c0.07,0.73,0.13,1.49,0.86,1.47l0.34-0.15c0.44-0.47,0.62-2.07,0.55-4.92C147.54,203.6,147.52,202.8,146.93,202.8 M82.96,218.65c-2.92,9.61-10.11,9.08-14.12,7.91c-2.28-0.67-5.05-1.89-5.96-3.35c-0.19-0.32,0.26-1.75,0.46-2.38l0.12-0.42l5.06-17.4c0.48-1.7,0.55-1.96,4.59-0.94c4.07,1.05,7.27,3.32,9,6.34C83.81,211.34,84.1,214.89,82.96,218.65 M86.52,208.1c-2.16-3.64-6.04-6.46-10.39-7.57l-5.23-1.29l-3.84-0.92l-3.81-0.96c-0.37-0.1-0.81,0-0.92,0.37c-0.13,0.48,0.35,0.72,0.87,0.99c0.95,0.49,2.27,1.17,1.55,3.67l-5.57,19.47c-0.68,2.37-2.02,2.41-2.99,2.43c-0.49,0.01-0.96,0.03-1.08,0.43c0,0-0.04,0.29,0.01,0.41c0.1,0.22,0.42,0.3,0.42,0.3l4.82,1.06l3.5,0.97l2.96,0.84c11.1,2.93,18.18-0.78,21.04-11.02C88.72,214.23,88.26,211.05,86.52,208.1 M217.78,189.03l-0.17,0.24l-0.58,0.9c-0.69,1.09-1.46,2.31-1.93,2.42l-7.82-4.84c-0.46-0.29-0.71-0.57-0.78-0.87c-0.01-0.06-0.01-0.12-0.01-0.18c0-0.44,0.31-0.95,0.74-1.61c1.41-2.14,3.11-3.45,4.93-3.82c1.48-0.3,3.02,0.05,4.55,1.03c1.34,0.86,2.14,1.82,2.35,2.86C219.38,186.69,218.42,188.1,217.78,189.03 M240.36,184.07l-0.14-0.16c-0.39-0.24-0.68,0.05-1.03,0.43c-0.67,0.71-1.93,2.01-5.52,2.08c0,0-12.12,0.27-12.49,0.28c0.1-0.56,0.17-1.12,0.17-1.66c0-2.64-1.21-5.04-3.35-6.38c-1.79-1.13-3.57-1.51-5.32-1.11c-1.62,0.36-4.03,1.59-6.35,5.36l-1.84,2.93l-2,3.14l-1.22,1.66l-0.4,0.5c-0.35,0.53-0.27,1.01,0,1.2c0.56,0.34,1.01-0.1,1.46-0.58c0.75-0.78,1.66-1.73,3.64-0.47l17.68,11.22c1.59,1.01,1.34,2.18,1.14,3.14c-0.11,0.58-0.23,1.05,0.2,1.34c0.21,0.12,0.38,0.1,0.48,0.09c0.1,0,0.24-0.07,0.36-0.26c0.12-0.2,2.51-4.08,2.51-4.08l2.54-3.58l0.27-0.37c0.07-0.1,0.3-0.52,0.28-0.67c-0.02-0.18-0.21-0.33-0.21-0.33c-0.57-0.37-1.11,0.15-1.67,0.68c-0.9,0.86-1.92,1.83-3.65,0.73l-7.33-4.66c0,0-0.17-0.1-0.17-0.1l-0.43-0.4c-0.05-0.19,0.05-0.46,0.28-0.81l0.39-0.59c1.74-2.63,1.74-2.63,3.12-2.58l1.1,0.02l8.67-0.03c3.72-0.1,6.23-1.2,7.68-3.37c0.59-0.91,1.3-2.08,1.19-2.57L240.36,184.07z M187.55,88.13c-0.59,1.82-2.2,3.01-4.63,3.45c0-0.01-1.08,0.04-1.08,0.04l-0.72-0.01l-13.89-0.05l-0.1-5.97c2.58-0.92,9.72-3.45,13.39-4.68l0,0.01c2.83-0.78,4.66,0.53,5.5,1.37c1.14,1.16,1.78,2.74,1.78,4.27C187.79,87.09,187.72,87.63,187.55,88.13 M166.94,75.3l10.9-6.52c0.03-0.03,0.06-0.05,0.11-0.09c1.94-0.82,3.57-0.16,4.41,0.37c1.67,1.03,2.78,2.93,2.78,4.7c0,0.09,0,0.19,0,0.28c-0.11,1.69-1.22,3.05-3.19,3.95c-1.43,0.45-10.92,3.77-14.86,5.15L166.94,75.3z M166.72,63.44l0.01,0.01c0.85-0.95,3.2-3.58,4.05-4.28c2.77-1.88,5.25-0.54,6.51,1.19c0.65,0.9,1.04,1.99,1.04,3.07c0,1.2-0.51,2.38-1.65,3.28c-0.11,0.06-0.25,0.1-0.37,0.17l0.04,0.07c-1.03,0.61-6.7,4.01-9.48,5.66L166.72,63.44z M166.5,50.36c1.09,0.29,2.53,1.06,3.66,2.18c0.69,0.68,1.74,2.02,1.7,3.63c-0.83,0.21-1.67,0.58-2.52,1.16c-0.65,0.52-1.74,1.67-2.67,2.7L166.5,50.36z M162.95,60.03c-0.93-1.02-2.02-2.17-2.68-2.7c-0.84-0.58-1.69-0.94-2.52-1.16c-0.04-1.61,1.01-2.95,1.71-3.63c1.12-1.12,2.56-1.9,3.65-2.18L162.95,60.03z M162.74,72.61c-2.77-1.66-8.45-5.05-9.48-5.66l0.03-0.07c-0.11-0.07-0.23-0.11-0.36-0.17c-1.15-0.9-1.65-2.08-1.65-3.28c0-1.08,0.39-2.17,1.05-3.07c1.26-1.73,3.74-3.06,6.51-1.19c0.84,0.7,3.2,3.33,4.04,4.28l0.02-0.01L162.74,72.61z M162.55,83.14c-3.94-1.38-13.44-4.7-14.87-5.15c-1.97-0.9-3.07-2.27-3.18-3.95c-0.01-0.09-0.02-0.19-0.02-0.28c0-1.77,1.11-3.67,2.78-4.7c0.84-0.52,2.48-1.19,4.42-0.37c0.03,0.03,0.07,0.06,0.1,0.09l10.91,6.52L162.55,83.14z M162.4,91.56l-13.89,0.05l-0.72,0.01c0,0-1.08-0.05-1.1-0.04c-2.43-0.44-4.02-1.63-4.63-3.45c-0.16-0.5-0.24-1.03-0.24-1.57c0-1.52,0.63-3.11,1.78-4.27c0.83-0.84,2.67-2.15,5.49-1.37l0-0.01c3.68,1.23,10.82,3.76,13.41,4.68L162.4,91.56z M187.72,80.67c-0.81-0.82-1.75-1.42-2.78-1.82c1.53-1.22,2.43-2.83,2.55-4.67c0.18-2.7-1.37-5.55-3.86-7.09c-1.09-0.68-2.28-1.05-3.48-1.11c1.04-2.33,0.51-5.04-0.92-6.98c-1.13-1.56-2.92-2.77-4.98-3.01c-0.03-1.77-0.84-3.54-2.39-5.08c-1.97-1.97-4.36-3.13-7.05-3.13c-2.68,0-5.07,1.16-7.04,3.13c-1.55,1.54-2.36,3.31-2.39,5.08c-2.06,0.23-3.86,1.44-4.99,3.01c-1.42,1.94-1.96,4.64-0.93,6.98c-1.19,0.06-2.37,0.43-3.47,1.11c-2.49,1.54-4.03,4.39-3.85,7.09c0.12,1.84,1.01,3.44,2.55,4.67c-1.03,0.39-1.97,0.99-2.78,1.82c-2.14,2.17-2.99,5.45-2.1,8.17c0.87,2.64,3.17,4.43,6.54,5.02l1.61,0.09l0.51-0.01l13.88-0.06c-0.02,0.4-0.06,2.11,0,3.48c0.18,3.57-1.43,7.46-5.15,8.37c-0.61,0.14-5.17,1-6.27,1.25c-2.37,0.83-2.2,1.49-1.52,1.49h30.77c0.68,0,0.85-0.65-1.52-1.49c-1.09-0.25-5.66-1.11-6.25-1.25c-3.73-0.91-5.33-4.8-5.16-8.37c0.06-1.37,0.01-3.08,0-3.48l13.88,0.06l0.52,0.01l1.61-0.09c3.37-0.59,5.67-2.38,6.53-5.02C190.7,86.13,189.86,82.84,187.72,80.67 M200.67,102.22c0,4.88-5.5,10.19-10.07,10.19h-50.58c-3.89,0-10.31-4.48-10.31-10.6v-48.5c0-4.63,5.92-9.43,12.35-9.43h22.83c16.74,0,35.78,12.24,35.78,35.5V102.22z M200.67,153.09c0,23.25-19.04,35.5-35.78,35.5h-22.83c-6.43,0-12.35-4.82-12.35-9.44v-48.5c0-6.11,6.43-10.59,10.31-10.59h50.58c4.57,0,10.07,5.3,10.07,10.18V153.09z M109.38,188.59H86.54c-9.64,0-20.04-4.07-27.13-11.96c1.71-0.64,3.21-1.63,4.07-2.29c1.25,1.06,3.94,2.91,7.82,2.98c3.84,0.09,6.45-1.84,7.72-3.04c1.29,1.22,3.95,3.24,7.39,3.24c3.69,0,6.63-1.99,8.01-3.12c1.29,1.19,4.04,3.24,7.67,3.24c3.16,0,6.18-2.11,7.6-3.25c1.27,1.19,3.98,3.27,7.46,3.33c1.93,0.06,3.49-0.46,4.57-0.99v2.4C121.73,183.77,115.81,188.59,109.38,188.59 M50.77,130.23c0-4.87,5.49-10.18,10.06-10.18h50.58c3.89,0,10.31,4.48,10.31,10.59v32.34c-0.43,0.32-1.73,1.14-4.04,1.09c-3.83-0.09-7.13-3.19-7.17-3.22l-0.74-0.7l-0.77,0.67c-0.04,0.03-3.54,3.07-6.69,3.15c-3.14,0.08-7.11-3.14-7.15-3.17l-0.8-0.65l-0.72,0.72c-0.03,0.04-3.18,3.2-7.25,3.2c-3.72,0-6.5-3.28-6.54-3.31l-0.88-1.06l-0.86,1.09c-0.1,0.13-2.53,3.17-6.78,3.08c-4.33-0.08-6.95-2.93-6.98-2.95l-0.74-0.81l-0.83,0.72c-0.03,0.03-3.22,2.8-6.15,2.97c-1.76,0.09-3.4-0.17-4.51-0.41c-0.88-3.16-1.37-6.58-1.37-10.28V130.23z M50.73,79.35c0-23.26,19.03-35.5,35.78-35.5h22.84c6.43,0,12.35,4.8,12.35,9.44v48.49c0,6.12-6.43,10.6-10.32,10.6H60.79c-4.57,0-10.07-5.3-10.07-10.18V79.35z M121.73,174.19c-0.54,0.39-2.18,1.39-4.52,1.32c-3.75-0.07-6.58-3.33-6.6-3.35l-0.77-0.91l-0.86,0.82c-0.03,0.03-3.55,3.35-6.88,3.35c-3.94,0-6.75-3.24-6.77-3.27l-0.8-0.93l-0.86,0.87c-0.03,0.04-3.18,3.19-7.25,3.19c-3.72,0-6.5-3.27-6.54-3.31l-0.88-1.06l-0.86,1.1c-0.1,0.13-2.53,3.17-6.78,3.09c-4.33-0.08-6.95-2.93-6.98-2.96l-0.74-0.83l-0.83,0.72c-0.03,0.03-2.39,2.07-4.91,2.75c-2.05-2.64-3.74-5.66-4.97-9.03c1.11,0.18,2.45,0.31,3.86,0.22c2.73-0.16,5.41-1.91,6.71-2.87c1.25,1.05,3.94,2.9,7.82,2.97c3.84,0.08,6.45-1.83,7.72-3.03c1.29,1.21,3.95,3.22,7.39,3.22c3.78,0,6.78-2.08,8.11-3.19c1.47,1.06,4.8,3.18,7.86,3.09c2.98-0.07,5.97-2.06,7.35-3.09c1.35,1.08,4.37,3.11,7.9,3.19c1.78,0.05,3.13-0.34,4.09-0.76V174.19z M163.84,36.15h-38.42H87.33c-14.65,0-45.02,9.77-45.02,44v35.71v36.31c0,34.22,30.37,43.99,45.02,43.99h38.09h38.42c14.65,0,45.01-9.77,45.01-43.99v-36.31V80.15C208.86,45.92,178.49,36.15,163.84,36.15 M87.92,94.45c0.12-0.09,3.03-2.58,4.04-5.05l0.03-0.09l0.02-0.08c0.08-0.28,0.1-0.59,0.1-0.9c0-3.54-4.54-7.98-7.44-10.19c-3.19-2.43-4.9-4.9-5.24-7.56c-0.04-0.32-0.07-0.65-0.07-0.98c0-2.55,1.23-5.33,3.74-8.46c3.22-4.04,4.3-7.09,4.3-9.24c0-0.24-0.03-0.44-0.04-0.66c1,0.54,1.9,1.64,1.9,3.89c0,0.98-1.21,2.67-2.19,4.31c-1.56,2.56-3.38,5.39-3.38,8.98c0,3.2,3.34,6.25,6.58,9.18l0.54,0.5c4.67,4.57,4.89,6.57,4.89,9.99c0,2.53-1.57,4.21-2.95,5.69c-1.06,1.12-2.06,2.18-2.06,3.49c0,0.08,0.01,0.16,0.01,0.24c0.2,1.45,1.25,2.46,2.52,2.46h10.38c-2.89,2.46-8.94,6.43-17.92,6.05c-8.78-0.36-13.9-3.86-16.31-6.07h8.08c1.37,0,2.84-1.31,3.86-3.43c0.32-0.72,0.68-1.82,0.68-2.48c0-2.74-2.26-4.55-4.49-6.54c-1.45-1.29-3.72-3.45-4.56-4.88c-1.28-1.96-1.4-2.93-1.4-4.49c0-2.16,0.87-3.81,1.68-4.94c0.9,2.83,2.95,7.67,7.1,10.35c5.16,3.56,5.72,6.23,5.72,7.76c0,0.52-0.16,1.45-0.17,1.48l-0.68,3.3L87.92,94.45z M84.41,49.86c0.03,0.06,0.32,0.71,0.32,1.86c0,1.67-0.61,4.4-3.5,8c-2.83,3.54-4.23,6.79-4.23,9.88c0,0.42,0.02,0.85,0.08,1.27c0.42,3.29,2.42,6.27,6.14,9.1c3.74,2.85,6.64,6.03,6.64,7.92c0,0.1-0.01,0.19-0.03,0.28c-0.28,0.65-0.78,1.31-1.31,1.88c-0.42-2.27-2.05-5.13-6.84-8.43c-5.12-3.3-6.69-10.99-6.71-11.07l-0.38-1.94l-1.54,1.28c-0.08,0.06-7.33,6.21-1.76,14.75c1.01,1.69,2.64,3.15,4.22,4.56c2.87,2.57,4.58,4.26,3.66,6.36c-0.76,1.57-1.57,2.03-1.73,2.05H64.49l1.22,1.8c0.23,0.34,5.82,8.33,19.9,8.9c14.06,0.59,21.53-8.41,21.84-8.8l1.52-1.88H93.24c0-0.01-0.13-0.15-0.17-0.41c-0.03-0.33,0.78-1.2,1.43-1.9c1.52-1.62,3.57-3.82,3.57-7.25c0-3.82-0.27-6.43-5.61-11.65c-0.04-0.03-0.57-0.52-0.57-0.52c-2.74-2.48-5.84-5.3-5.84-7.48c0-2.95,1.68-5.71,3.16-8.16c1.21-1.99,2.25-3.72,2.25-5.34c0-4.96-3.86-6.58-5.91-6.74l-2.03-0.16L84.41,49.86z M91.1,67.39c0-1.62,0.79-3.55,1.38-4.62c0.91,1.75,2.48,4.31,4.6,6.1l0.61,0.51c2.33,1.95,5.73,5.07,5.73,7.4c0,2.27-0.79,3.16-1.49,4.38c-1.45-4.35-7.61-8.98-8.25-9.56C92.39,70.43,91.1,68.71,91.1,67.39 M90.89,72.27c2.69,2.92,6.51,5.37,8.2,8.44c1.86,3.32,0.8,3.47,2.12,5.56c1.35-1.49,4.41-5.35,4.77-9.4c0.12-3.64-3.82-6.93-6.63-9.29l-0.61-0.5c-3-2.53-4.86-7.27-5.58-9.62C88.82,63.29,86.87,67.93,90.89,72.27 M106.31,132.85c-4.27,0.99-8.26,1.92-10.37,4.24c-1.17,1.65-2.28,2.53-3.28,2.66c-0.19,0.03-0.36,0.02-0.52,0c-0.61-0.35-1.19-0.78-1.75-1.27c-0.07-0.14-0.13-0.26-0.16-0.4c-0.02-0.16-0.03-0.4,0.23-0.75c2.74-4.13,10.37-5.46,16.61-5.37c0.82,0.02,1.57,0.03,2.27,0.03C108.56,132.31,107.59,132.62,106.31,132.85 M97.4,144.9c-1.8,0.08-3.85,0.57-5.79,1.8c-2.5,1.49-5.44,1.46-9.2-0.1c-2.91-1.2-5.32-1.09-6.74-0.81c-0.05-0.26-0.08-0.54-0.08-0.86c0-0.43,0.14-1,0.24-1.53c0.14,0.04,0.28,0.09,0.39,0.13c0.75,0.38,4.84,0.93,7.06,0.06l2.03-0.8l-1.79-1.24c-1.96-1.34-3.62-3.66-4.34-4.65l-0.16-0.23l-0.4-0.41c-1.69-1.81-3.81-4.08-9.74-3.62c-1.77,0.13-3.18-0.04-4.35-0.31c0.9-0.16,1.84-0.35,2.83-0.62c3.06-0.8,10.67-2.12,15.4,2.88l0.08,0.07l0.09,0.07c1.43,1.05,2.57,2.22,3.68,3.35c0.64,0.66,1.28,1.31,1.94,1.91c0.52,0.72,1.17,1.19,1.29,1.26c0.2,0.17,0.75,0.54,1.56,0.73c1.07,0.56,2.3,0.96,3.77,1.14C96.34,143.56,97.02,144.31,97.4,144.9 M112.87,129.55c-0.02,0-2.46,0.18-5.73,0.07c-3.35-0.05-14.55,0.25-18.62,6.37c-0.1,0.13-0.18,0.25-0.25,0.4c-1.13-1.18-2.32-2.37-3.84-3.5c-3.96-4.11-10.39-5.37-17.67-3.45c-3.27,0.87-6.5,1.07-6.53,1.07l-2.85,0.18l2.14,1.85c0.14,0.11,3.38,2.85,9.56,2.38c4.78-0.36,6.26,1.21,7.81,2.87c0,0,0.23,0.24,0.3,0.33c0.03,0.05,0.07,0.1,0.07,0.1c0.54,0.74,1.58,2.16,2.91,3.49c-1.3,0-2.6-0.18-2.94-0.3c-0.43-0.22-1.64-0.63-2.58-0.47l-0.72,0.13l-0.2,0.7c-0.71,2.43-0.65,4.67,0.19,6.01l0.5,0.8l0.91-0.3c0.45-0.18,2.88-0.89,6.16,0.47c4.46,1.85,8.19,1.82,11.39-0.08c2.73-1.73,5.64-1.6,6.91-1.26l2.04,0.55l-0.59-1.99c-0.29-0.98-0.89-1.42-1.45-1.63c-0.46-0.9-1.53-2.53-3.74-3.41l-0.16-0.06l-0.17-0.01c-0.02,0-0.04-0.01-0.06-0.01c0.74-0.58,1.46-1.35,2.16-2.32c1.52-1.67,5.32-2.55,9-3.39c5.71-1.04,7.09-3.64,7.23-3.94l0.85-1.79L112.87,129.55z M190.43,154.47c0,0.02-0.02,0.06-0.06,0.06h-9.06c-0.04,0-0.08-0.03-0.08-0.06v-0.96c0-0.03,0.03-0.07,0.08-0.07h9.06c0.03,0,0.06,0.03,0.06,0.07V154.47z M182.15,167.86v-11.49c0-0.04,0.03-0.07,0.07-0.07h7.13c0.05,0,0.08,0.03,0.08,0.07v11.49c0,0.04-0.03,0.07-0.08,0.07h-7.13C182.18,167.92,182.15,167.9,182.15,167.86 M190.43,170.83c0,0.03-0.02,0.07-0.06,0.07h-9.06c-0.04,0-0.08-0.03-0.08-0.07v-0.96c0-0.03,0.03-0.06,0.08-0.06h9.06c0.03,0,0.06,0.02,0.06,0.06V170.83z M175.09,145.7c-2.11,0-3.84,0.63-5.11,1.89c-2.13,2.11-2.2,4.29-2.2,4.44h-7.11c0-0.14-0.06-2.33-2.2-4.44c-1.28-1.25-3-1.89-5.11-1.89c-2.28,0-4.05,0.64-5.28,1.91c-1.72,1.77-1.65,4.17-1.64,4.43l-7.42,0.01c-0.03,0-0.07-0.02-0.07-0.07v-7.91c0-0.04,0.04-0.07,0.07-0.07h50.39c0.04,0,0.07,0.02,0.07,0.07v7.91c0,0.05-0.03,0.07-0.07,0.07l-7.42-0.01c0.02-0.26,0.08-2.66-1.64-4.43C179.14,146.34,177.36,145.7,175.09,145.7 M168.86,154.47c0,0.02-0.03,0.06-0.07,0.06h-9.13c-0.03,0-0.07-0.03-0.07-0.06v-0.96c0-0.03,0.03-0.07,0.07-0.07h9.13c0.04,0,0.07,0.03,0.07,0.07V154.47z M160.5,167.86v-11.49c0-0.04,0.02-0.07,0.07-0.07h7.32c0.03,0,0.07,0.03,0.07,0.07v11.49c0,0.04-0.03,0.07-0.07,0.07h-7.32C160.53,167.92,160.5,167.9,160.5,167.86 M168.86,170.83c0,0.03-0.03,0.07-0.07,0.07h-9.13c-0.03,0-0.07-0.03-0.07-0.07v-0.96c0-0.03,0.03-0.06,0.07-0.06h9.13c0.04,0,0.07,0.02,0.07,0.06V170.83z M147.21,154.47c0,0.02-0.03,0.06-0.07,0.06h-9.07c-0.04,0-0.07-0.03-0.07-0.06v-0.96c0-0.03,0.03-0.07,0.07-0.07h9.07c0.04,0,0.07,0.03,0.07,0.07V154.47z M139.02,167.86v-11.49c0-0.04,0.03-0.07,0.07-0.07h7.14c0.04,0,0.08,0.03,0.08,0.07v11.49c0,0.04-0.04,0.07-0.08,0.07h-7.14C139.05,167.92,139.02,167.9,139.02,167.86 M147.21,170.83c0,0.03-0.03,0.07-0.07,0.07h-9.07c-0.04,0-0.07-0.03-0.07-0.07v-0.96c0-0.03,0.03-0.06,0.07-0.06h9.07c0.04,0,0.07,0.02,0.07,0.06V170.83z M138.05,141.22c0-0.03,0.03-0.06,0.07-0.06h52.2c0.05,0,0.08,0.03,0.08,0.06v0.97c0,0.03-0.03,0.06-0.08,0.06h-52.2c-0.04,0-0.07-0.02-0.07-0.06V141.22z M189.43,137.32v2.15c0,0.03-0.03,0.07-0.07,0.07h-50.28c-0.03,0-0.06-0.04-0.06-0.07v-2.15c0-0.03,0.03-0.06,0.06-0.06h50.28C189.4,137.27,189.43,137.29,189.43,137.32 M138.05,134.35c0-0.03,0.03-0.07,0.07-0.07h52.2c0.05,0,0.08,0.04,0.08,0.07v0.88c0,0.04-0.03,0.08-0.08,0.08h-52.2c-0.04,0-0.07-0.03-0.07-0.08V134.35z M147.38,131.2c0-0.07,0.06-0.13,0.14-0.13h6.42c0.06,0,0.13-0.05,0.13-0.12v-1.81c0-0.08,0.07-0.14,0.13-0.14h20.06c0.08,0,0.13,0.06,0.13,0.14v1.81c0,0.07,0.06,0.12,0.13,0.12h6.42c0.08,0,0.13,0.06,0.13,0.13v1.01c0,0.09-0.06,0.15-0.13,0.15h-33.43c-0.08,0-0.14-0.06-0.14-0.15V131.2z M193.08,137.62c0.11-0.1,0.2-0.3,0.2-0.45v-5.18c0-0.14-0.12-0.26-0.27-0.26h-8.96c-0.16,0-0.27-0.12-0.27-0.28v-2.26c0-0.15-0.13-0.27-0.28-0.27h-6.73c-0.15,0-0.27-0.12-0.27-0.28v-1.85c0-0.16-0.12-0.27-0.28-0.27h-24.01c-0.15,0-0.27,0.11-0.27,0.27v1.85c0,0.16-0.12,0.28-0.27,0.28h-6.73c-0.16,0-0.27,0.11-0.27,0.27v2.26c0,0.15-0.13,0.28-0.28,0.28h-8.95c-0.16,0-0.28,0.11-0.28,0.26v5.18c0,0.15,0.09,0.35,0.19,0.45l0.51,0.52c0.1,0.09,0.2,0.3,0.2,0.45c0,0.15-0.09,0.35-0.2,0.45l-0.51,0.48c-0.1,0.11-0.19,0.31-0.19,0.45v3.82c0,0.15,0.1,0.36,0.19,0.46l0.51,0.48c0.11,0.1,0.2,0.29,0.2,0.44l-0.01,5.36c0,0.15-0.09,0.34-0.2,0.45l-0.5,0.46c-0.1,0.11-0.19,0.31-0.19,0.45v4.41c0,0.12,0.1,0.33,0.19,0.44l0.49,0.45c0.11,0.1,0.2,0.3,0.2,0.43l-0.01,9.06c0,0.15-0.08,0.36-0.19,0.46l-0.49,0.45c-0.1,0.1-0.19,0.31-0.19,0.45v4.59c0,0.16,0.11,0.27,0.28,0.27l14.22,0.01c0.15,0,0.29-0.1,0.29-0.26v-4.62c0-0.14-0.1-0.35-0.19-0.47l-0.53-0.57c-0.1-0.11-0.19-0.31-0.19-0.46l0.01-8.9c0-0.14,0.1-0.34,0.2-0.44l0.5-0.46c0.11-0.1,0.21-0.31,0.21-0.44v-4.41c0-0.13-0.1-0.34-0.21-0.45l-0.19-0.17c-0.1-0.1-0.17-0.3-0.12-0.44c0,0,0.21-0.96,0.78-1.54c0.69-0.71,1.8-1.06,3.29-1.06c2.54,0,4.02,2.4,4.02,2.4c0.07,0.13,0.05,0.31-0.07,0.4l-0.43,0.41c-0.12,0.11-0.2,0.31-0.2,0.45v4.41c0,0.12,0.08,0.33,0.2,0.44l0.49,0.45c0.11,0.1,0.21,0.3,0.21,0.43l-0.01,9.06c0,0.15-0.1,0.36-0.2,0.46l-0.48,0.45c-0.12,0.1-0.2,0.31-0.2,0.45v4.59c0,0.16,0.11,0.27,0.26,0.27h14.27c0.15,0,0.26-0.11,0.26-0.27v-4.59c0-0.14-0.08-0.35-0.19-0.45l-0.49-0.45c-0.1-0.1-0.19-0.3-0.19-0.46l-0.01-9.06c0-0.14,0.08-0.34,0.19-0.43l0.5-0.45c0.11-0.1,0.19-0.31,0.19-0.44v-4.41c0-0.13-0.08-0.34-0.19-0.45l-0.44-0.41c-0.11-0.09-0.13-0.27-0.06-0.4c0,0,1.47-2.4,4.03-2.4c1.48,0,2.57,0.35,3.27,1.06c0.57,0.58,0.8,1.54,0.8,1.54c0.03,0.14-0.03,0.34-0.14,0.44l-0.19,0.17c-0.11,0.11-0.19,0.31-0.19,0.45v4.41c0,0.12,0.08,0.33,0.19,0.44l0.51,0.46c0.1,0.1,0.19,0.3,0.19,0.44l0.01,8.9c0,0.14-0.08,0.34-0.18,0.46l-0.53,0.57c-0.1,0.12-0.18,0.33-0.18,0.47v4.62c0,0.16,0.13,0.26,0.27,0.26l14.23-0.01c0.14,0,0.27-0.11,0.27-0.27v-4.59c0-0.14-0.09-0.35-0.2-0.45l-0.49-0.45c-0.1-0.1-0.19-0.3-0.19-0.46l-0.01-9.06c0-0.14,0.1-0.34,0.2-0.43l0.49-0.45c0.11-0.1,0.2-0.31,0.2-0.44v-4.41c0-0.13-0.09-0.34-0.2-0.45l-0.5-0.46c-0.1-0.1-0.2-0.3-0.2-0.45l0-5.36c0-0.15,0.09-0.35,0.2-0.44l0.51-0.48c0.11-0.1,0.2-0.3,0.2-0.46v-3.82c0-0.14-0.09-0.34-0.2-0.45l-0.51-0.48c-0.11-0.1-0.2-0.3-0.2-0.45c0-0.15,0.09-0.36,0.2-0.45L193.08,137.62z"/></svg>