<?xml version="1.0" encoding="utf-8"?>
<!-- Generator: Adobe Illustrator 16.0.0, SVG Export Plug-In . SVG Version: 6.00 Build 0)  -->
<!DOCTYPE svg PUBLIC "-//W3C//DTD SVG 1.1//EN" "http://www.w3.org/Graphics/SVG/1.1/DTD/svg11.dtd">
<svg version="1.1" id="Layer_1" xmlns="http://www.w3.org/2000/svg" xmlns:xlink="http://www.w3.org/1999/xlink" x="0px" y="0px"
	 width="61.67px" height="72px" viewBox="0 0 61.67 72" enable-background="new 0 0 61.67 72" xml:space="preserve">
<path fill="#CC0000" d="M27.91,24.18c-0.15-0.11-0.32-0.17-0.42-0.2c-0.01,0-0.13,0-0.3,0.01c-0.08,0.01-0.44,0.02-0.88-0.01
	c-0.44-0.04-0.53,0.03-0.54,0.13c0,0.08,0.06,0.14,0.25,0.13c0.22-0.01,0.22,0.27,0.22,0.42c0,0.15,0.02,2.27,0.02,2.51
	c0,0.25-0.12,0.46-0.3,0.46c-0.17,0-0.27-0.22-0.31-0.34c-0.04-0.12-0.67-2.62-0.81-3c-0.12-0.33-0.35-0.23-0.53-0.23
	c-0.09,0-0.3,0-0.47-0.01c-0.19-0.01-0.29,0.02-0.29,0.12c0,0.18,0.28,0.18,0.28,0.18c0.1,0.03,0.2,0.57,0.14,0.63
	c-0.06,0.05-0.25,0.02-0.24,0.16c0,0.09,0.11,0.14,0.16,0.16c0.04,0.02-0.02,0.21-0.02,0.21s-1.19,5.01-1.21,5.07
	c-0.02,0.06-0.06,0.45-0.34,0.52c-0.26,0.07-0.33,0.07-0.33,0.18c0,0.06,0.06,0.13,0.23,0.12c0.17-0.01,0.94-0.02,1.02-0.02
	c0.14,0.01,0.29-0.01,0.31-0.12c0.01-0.1-0.07-0.14-0.3-0.14c-0.23,0-0.16-0.24-0.14-0.32c0.02-0.08,0.17-0.83,0.21-1
	c0.04-0.17,0.16-0.26,0.39-0.26c0.08,0,0.36-0.02,0.66-0.03c0.33-0.01,0.65-0.02,0.78-0.01c0.22,0.02,0.33,0.14,0.4,0.35
	c0.03,0.1,0.18,0.72,0.2,0.87c0.01,0.11-0.07,0.29-0.24,0.33c-0.15,0.03-0.29,0.02-0.29,0.17c0,0.08,0.03,0.12,0.26,0.13
	c0.23,0.01,1.34,0,1.63,0c0.29,0,0.29-0.1,0.29-0.16c0-0.05-0.06-0.14-0.28-0.14c-0.42,0-0.48-0.29-0.57-0.6
	c-0.11-0.4-0.35-1.17-0.52-1.8c-0.05-0.19-0.19-0.57-0.15-0.63c0.07-0.09,0.41-0.04,0.41-0.04s0.63,0.1,1.34-0.13
	c0.37-0.12,0.64-0.31,0.84-0.52c0.27-0.29,0.44-0.65,0.42-1.18C28.85,24.93,28.19,24.38,27.91,24.18 M25.11,29.1
	c-0.21,0-1.3,0.03-1.38,0.04c-0.09,0-0.24,0.03-0.2-0.23c0.04-0.26,0.75-3.32,0.75-3.32s0.95,3.22,0.98,3.31
	C25.27,28.98,25.31,29.1,25.11,29.1 M27.9,27.13c-0.23,0.38-0.48,0.45-0.52,0.46c-0.04,0.01-0.41,0.18-0.42-0.24l-0.05-2.63
	c0,0,0-0.21,0-0.27c0-0.05-0.01-0.28,0.3-0.16c0.32,0.12,0.56,0.37,0.7,0.7c0.14,0.33,0.18,0.68,0.2,0.93
	C28.11,26.17,28.12,26.75,27.9,27.13"/>
<path fill="#CC0000" d="M30.7,23.96h-0.79c-0.08,0-0.19,0.06-0.18,0.13c0.01,0.06,0.03,0.15,0.22,0.15s0.4,0.05,0.38,0.57
	s0,5.62,0,5.73c0,0.11,0.03,0.4-0.24,0.43c-0.27,0.04-0.35,0.06-0.36,0.18c0,0.12,0.1,0.17,0.26,0.17c0.16,0,0.77,0,0.77,0
	s0.77,0,0.83,0c0.06,0,0.18-0.05,0.18-0.14c0-0.09-0.05-0.19-0.29-0.2c-0.24-0.01-0.35-0.18-0.33-0.53c0.01-0.35,0.01-2.48,0-2.58
	c0-0.1,0.04-0.39,0.34-0.38c0.29,0,0.99,0,1.05,0c0.31,0.03,0.38-0.07,0.4,0.51c0,0,0.02,2.54,0.02,2.64c0,0.1-0.08,0.33-0.27,0.34
	c-0.19,0.01-0.31,0.03-0.31,0.17c0,0.15,0.18,0.16,0.31,0.16c0.13,0,0.73-0.02,0.79-0.02h0.7c0.07,0,0.2-0.06,0.18-0.16
	c-0.01-0.11-0.08-0.16-0.29-0.16c-0.22,0-0.33-0.21-0.32-0.32c0-0.11-0.02-5.92-0.02-6.06c0-0.13,0.13-0.33,0.37-0.32
	c0.24,0.01,0.35,0.12,0.36,0.38c0.01,0.26,0.06,4.7,0.06,4.84c0,0.15-0.09,0.82,0.92,1.64c0.2,0.16,0.28,0.09,0.53-0.06
	c0.23-0.14,0.67-0.45,0.71-0.48c0,0,0,0,0,0s0,0.25,0,0.31c0,0.08-0.04,0.35,0.25,0.35c0,0,0.92,0.01,0.94,0.01
	c0.03,0,0.28,0,0.28-0.14c0-0.15-0.15-0.17-0.25-0.17c-0.1,0-0.32-0.04-0.34-0.23c-0.02-0.19,0-0.64,0-0.64s-0.06-5.53-0.06-5.67
	c0-0.13-0.02-0.49-0.29-0.49c0,0-0.77,0-0.83,0c-0.06,0-0.24,0.01-0.26,0.15c-0.01,0.14,0.17,0.18,0.3,0.19
	c0.13,0,0.23,0.15,0.22,0.43c0,0.27,0.03,5.54,0.03,5.54l-0.56,0.38c0,0-0.72-0.11-0.79-1.39c-0.06-1.04-0.01-4.65-0.01-4.75
	c0-0.11,0.04-0.46-0.32-0.49c0,0-1.03-0.03-1.23-0.03c-0.2,0-1.22-0.01-1.28-0.01c-0.05,0-0.29,0.01-0.28,0.15
	c0.01,0.13,0.16,0.17,0.32,0.17c0.16,0,0.4,0,0.36,0.52c-0.04,0.52,0.02,1.82,0.02,1.94c0,0.11-0.03,0.36-0.29,0.36
	c-0.27,0-1.19,0.02-1.21,0.02c-0.02,0-0.31,0.06-0.29-0.25c0.02-0.31,0-2.15,0-2.28c0-0.12,0.05-0.37,0.36-0.34
	c0.22,0.02,0.24-0.1,0.24-0.13c0-0.04,0.03-0.14-0.29-0.14C31.12,23.95,30.7,23.96,30.7,23.96"/>
<path fill="#CC0000" d="M38.32,27.15c-0.04,0.06-0.32,0.51-0.34,0.56c-0.03,0.04-0.05,0.19,0.06,0.23c0.08,0.04,0.16,0.03,0.26-0.09
	c0.05-0.06,0.09-0.16,0.16-0.23c0,0,0.33,0.18,0.45,0.22c0.12,0.04,0.27,0.12,0.41-0.08c0.14-0.2,0.33-0.6,0.35-0.67
	c0.03-0.07,0.06-0.17-0.05-0.23c-0.11-0.05-0.2-0.01-0.25,0.08c-0.05,0.09-0.06,0.11-0.07,0.13c-0.02,0.02-0.05,0.12-0.2,0.02
	c-0.16-0.1-0.32-0.16-0.35-0.16C38.72,26.93,38.5,26.83,38.32,27.15"/>
<path fill="#CC0000" d="M38.21,35.71c-0.03,0.06-0.32,0.52-0.34,0.56c-0.02,0.04-0.05,0.19,0.06,0.24c0.08,0.03,0.16,0.02,0.26-0.09
	c0.05-0.06,0.09-0.16,0.16-0.23c0,0,0.33,0.18,0.45,0.22c0.12,0.04,0.28,0.12,0.41-0.07c0.13-0.2,0.33-0.6,0.35-0.67
	c0.03-0.07,0.06-0.17-0.05-0.23c-0.11-0.06-0.19-0.01-0.25,0.08c-0.05,0.09-0.06,0.11-0.08,0.13c-0.02,0.02-0.05,0.12-0.2,0.02
	c-0.16-0.1-0.32-0.16-0.34-0.17C38.6,35.5,38.38,35.41,38.21,35.71"/>
<path fill="#CC0000" d="M31.51,36.6c-0.04,0-0.19,0.03-0.24-0.1c-0.05-0.13-1.26-3.54-1.29-3.61c-0.03-0.07-0.09-0.16,0.02-0.16
	c0.11,0,0.15-0.09,0.15-0.14c0-0.05-0.06-0.13-0.16-0.13c-0.1,0-0.83,0.02-0.88,0.02c-0.06,0-0.18,0.01-0.18,0.13
	c0,0.11,0.13,0.14,0.19,0.14c0.06,0,0.05,0.07,0.04,0.09c-0.01,0.03-0.59,2.3-1.06,3.4c-0.21,0.49-0.37-0.07-0.39-0.2
	c0,0-0.69-2.95-0.7-3.05c-0.02-0.1-0.09-0.3,0.16-0.29c0.12,0.01,0.14-0.08,0.14-0.1c0-0.03,0.01-0.17-0.32-0.16
	c-0.33,0.01-0.51-0.02-0.57,0.38c0,0-0.15,1.51-0.4,2.46c-0.25,0.95-0.5,2.13-0.5,2.13s-1.02-4.51-1.03-4.54
	c-0.01-0.04-0.06-0.17,0.07-0.15c0,0,0.14-0.02,0.13-0.13c0-0.11-0.08-0.14-0.24-0.14c-0.15,0.01-0.51-0.01-0.51-0.01h-0.56
	c-0.03,0-0.11,0.05-0.12,0.14c0,0.1,0.1,0.14,0.16,0.14c0.05-0.01,0.16-0.03,0.21,0.16c0.04,0.19,0.28,1.02,0.27,1.13
	c0,0.11-1.03,4.61-1.06,4.72c-0.03,0.11-0.11,0.66-0.36,0.67c-0.25,0.01-0.29,0.07-0.31,0.14c-0.01,0.07-0.01,0.2,0.36,0.18
	s0.85,0.01,1.07,0.02c0.22,0,0.28-0.06,0.28-0.14c0-0.07-0.03-0.19-0.29-0.17c-0.25,0.02-0.42-0.19-0.34-0.43
	c0.08-0.25,0.9-4.07,0.9-4.07l0.99,3.97l0.01,0.64c0,0,0.11,0.22,0.23,0.21c0.13-0.01,0.31-1.1,0.31-1.1l0.9-3.77
	c0,0,0.93,3.69,0.97,3.87c0.04,0.18,0.11,0.61-0.23,0.64c-0.3,0.02-0.39,0.02-0.39,0.17c0,0.12,0.1,0.13,0.17,0.13
	c0.07,0,0.89-0.02,1.01-0.02c0.12,0,0.76,0.02,0.81,0.02c0.06,0,0.18-0.02,0.19-0.13c0-0.11-0.13-0.17-0.32-0.19
	c-0.19-0.01-0.38-0.37-0.46-0.74c0,0-0.32-1.3-0.34-1.38c-0.01-0.08-0.1-0.36,0.19-0.35c0.29,0.01,0.46,0,0.49,0
	c0.03,0,0.12-0.03,0.12-0.1c0-0.08-0.08-0.14-0.15-0.15c-0.07-0.01-0.15-0.04-0.14-0.15c0.01-0.1,0.07-0.41,0.09-0.46
	c0.02-0.05,0.09-0.22,0.28-0.24c0.19-0.02,1.01-0.02,1.06-0.02c0.04,0,0.27,0,0.39,0.35c0.12,0.35,0.11,0.33,0.12,0.37
	c0.01,0.04,0.03,0.11-0.1,0.13c-0.13,0.01-0.26,0.02-0.26,0.14c0,0.13,0.17,0.14,0.31,0.13c0.13-0.01,0.43-0.01,0.47-0.01
	c0.04,0,0.53,0.01,0.61,0.01c0.07,0,0.18-0.04,0.17-0.14C31.66,36.65,31.55,36.61,31.51,36.6 M29.88,35.37c-0.04,0-0.73,0-0.8,0
	c-0.07,0-0.29,0.01-0.22-0.27c0.08-0.28,0.52-1.56,0.52-1.56s0.55,1.25,0.67,1.63C30.12,35.41,29.91,35.36,29.88,35.37"/>
<path fill="#CC0000" d="M31.93,33.73c0,0-0.37-0.75-0.42-0.84c-0.05-0.09-0.07-0.15-0.28-0.16c-0.14-0.01-0.16-0.12-0.16-0.15
	c0-0.03-0.03-0.15,0.23-0.13c0.26,0.01,0.52,0,0.57,0h0.59c0.05,0,0.18,0.01,0.19,0.12s-0.09,0.16-0.13,0.16
	c-0.03,0-0.21,0.02-0.15,0.13c0,0,1.37,2.58,1.57,2.91c0.2,0.34,0.94,1.91,1.01,1.95c0,0,0.07-2.88,0.04-4.66V33
	c0-0.04,0.03-0.26-0.13-0.29c-0.16-0.03-0.25-0.06-0.26-0.16c0-0.1,0.08-0.16,0.23-0.15c0.16,0,0.7,0.02,0.78,0.02
	c0.08,0,0.22,0.02,0.21,0.15c-0.01,0.13-0.13,0.14-0.22,0.16c-0.09,0.02-0.18,0.01-0.18,0.27c0,0.26,0,5.94-0.01,6.1
	c0,0.17-0.06,0.82-0.39,0.23c-0.33-0.59-1.41-2.5-1.45-2.59c-0.03-0.08-1.16-2.14-1.16-2.14s-0.02,4.3,0,4.42
	c0.02,0.12,0.07,0.26,0.25,0.27c0.18,0,0.27,0.05,0.28,0.17c0.01,0.12-0.11,0.16-0.22,0.15c-0.1,0-0.93-0.02-1.08-0.02
	c-0.15,0-0.28-0.03-0.28-0.15c-0.01-0.12,0.07-0.17,0.3-0.17c0.22,0.01,0.27-0.08,0.27-0.35C31.93,38.67,31.93,33.73,31.93,33.73"/>
<path fill="#CC0000" d="M36.86,32.4c0.09,0,0.6-0.01,0.67-0.01c0.07-0.01,0.17,0.05,0.17,0.16c0.01,0.11-0.09,0.19-0.21,0.19
	c-0.12,0.01-0.27-0.01-0.25,0.29c0.01,0.29-0.01,4.88-0.01,4.88s0,0.63,0,0.77c0,0.13,0.01,0.52,0.32,0.54
	c0.32,0.02,0.34,0.11,0.34,0.18c0.01,0.08-0.03,0.19-0.36,0.18c-0.32-0.01-0.95,0-1.12,0c-0.16,0-0.48,0.06-0.48-0.17
	c0-0.16,0.13-0.16,0.21-0.18c0.09-0.01,0.36,0.07,0.36-0.5c0,0-0.02-5.71-0.02-5.8c0-0.09-0.07-0.17-0.21-0.17
	c-0.14,0-0.27-0.02-0.28-0.16c-0.01-0.14,0.08-0.21,0.31-0.2C36.53,32.4,36.86,32.4,36.86,32.4"/>
<path fill="#CC0000" d="M22.56,40.83c0.11-0.05,0.28-0.04,0.48-0.04c0.18,0,3.06-0.03,3.14-0.03c0.08,0,0.5,0.03,0.42,0.28
	c-0.07,0.25-0.31,0.27-0.33,0.27c-0.03,0-0.46-0.15-0.94-0.17c-0.48-0.02-0.54,0.25-0.54,0.31c0,0.06,0,5.71,0.01,5.86
	c0.01,0.15,0.06,0.34,0.36,0.38c0.29,0.03,0.4,0.06,0.42,0.21c0.02,0.15-0.2,0.2-0.46,0.19c-0.27-0.01-1-0.02-1.22-0.01
	c-0.22,0.01-0.54,0.02-0.52-0.17c0.02-0.19,0.23-0.18,0.38-0.21c0.15-0.02,0.26-0.09,0.27-0.42c0.01-0.33-0.02-5.66-0.02-5.73
	c0-0.06,0.05-0.25-0.41-0.33c-0.45-0.08-0.97,0.24-1.26,0.2c-0.25-0.03-0.09-0.28-0.06-0.33C22.31,41.06,22.4,40.89,22.56,40.83"/>
<path fill="#CC0000" d="M28.76,40.67c0.03-0.02,0.1-0.01,0.15-0.01c0.13,0,2.43,0.03,2.63,0.05c0.19,0.02,0.39,0.05,0.32,0.29
	c-0.06,0.24-0.2,0.25-0.28,0.24c-0.08-0.01-0.24-0.1-0.53-0.08c-0.29,0.01-0.24,0.12-0.25,0.13c0,0.02,0.02,5.9,0.02,5.99
	s0.02,0.29,0.23,0.31c0.22,0.01,0.39,0.01,0.42,0.24c0.03,0.23-0.28,0.2-0.31,0.2c-0.02,0-1.09,0-1.2,0c-0.11,0-0.58,0.09-0.57-0.19
	c0.01-0.18,0.19-0.2,0.3-0.21c0.11-0.01,0.3,0.06,0.31-0.38c0,0-0.03-5.74-0.04-5.83c-0.01-0.09-0.06-0.28-0.24-0.3
	c-0.19-0.01-0.44,0-0.62,0.04c-0.18,0.04-0.58,0.15-0.67,0.06c-0.09-0.09-0.04-0.19,0.05-0.33C28.55,40.8,28.67,40.72,28.76,40.67"
	/>
<path fill="#CC0000" d="M32.53,40.67c0,0,1.54-0.02,1.63-0.02c0.08,0,0.38-0.07,0.39,0.15c0,0.23-0.13,0.43-0.22,0.43
	c-0.09,0-0.25-0.16-0.27-0.16c-0.02,0-1.04-0.02-1.1-0.01c-0.06,0.01-0.17,0.01-0.16,0.26c0.01,0.25,0.02,0.62,0.02,0.7
	c0,0.08-0.04,0.22,0.19,0.23c0.23,0.01,0.55,0,0.63,0c0.08,0,0.13-0.05,0.15-0.17c0.02-0.12-0.02-0.34,0.13-0.34
	c0.15,0,0.14,0.16,0.15,0.22c0.01,0.06,0,1-0.02,1.08c-0.02,0.08-0.04,0.13-0.12,0.13c-0.08,0-0.14-0.03-0.14-0.12
	c-0.01-0.08,0.04-0.34-0.19-0.34h-0.63c-0.08,0-0.13,0.05-0.13,0.22v1.63c0,0.07,0.03,0.2,0.18,0.2c0.16,0,0.56-0.01,0.6-0.01
	c0.05,0,0.13-0.04,0.18-0.15c0.05-0.12,0.06-0.25,0.2-0.23c0.15,0.02,0.1,0.21,0.07,0.45c-0.03,0.25-0.04,0.29-0.05,0.43
	c-0.02,0.13-0.04,0.28-0.21,0.26c-0.08-0.01-0.1-0.07-0.09-0.11c0.01-0.05,0.01-0.22-0.12-0.22c0,0-1.34-0.02-1.42-0.01
	c-0.08,0.01-0.43,0.08-0.43-0.11c0-0.18,0.13-0.22,0.2-0.21c0.08,0.01,0.19,0.03,0.2-0.17c0-0.2-0.05-3.48-0.03-3.54
	C32.13,41.06,32.1,40.67,32.53,40.67"/>
<path fill="#CC0000" d="M33.89,46.72c-0.12,0.62-0.22,0.87-0.47,0.87c-0.25,0.01-0.34,0.08-0.34,0.23s0.19,0.16,0.32,0.16
	c0.13,0,0.86,0,1.07,0.01c0.21,0.01,0.24-0.12,0.24-0.15c0-0.03,0.02-0.17-0.25-0.2c-0.33-0.03-0.27-0.34-0.26-0.4
	c0.01-0.06,0.84-4.2,0.84-4.2s1.08,4.04,1.09,4.06c0.01,0.02,0.01,0.32,0,0.38c0,0.06,0.05,0.19,0.17,0.29
	c0.12,0.11,0.15-0.03,0.16-0.09c0.01-0.07,0.06-0.5,0.06-0.52s0.78-4.25,0.78-4.25s1.18,4.05,1.24,4.33
	c0.06,0.28-0.27,0.31-0.36,0.32c-0.09,0.01-0.27,0.03-0.27,0.2c0,0.17,0.37,0.14,0.56,0.13c0.19-0.01,1.23-0.01,1.23-0.01
	c0.24-0.01,0.26-0.13,0.26-0.17c0-0.04-0.05-0.17-0.22-0.17c-0.26,0-0.3-0.18-0.32-0.27c-0.02-0.08-1.52-5.48-1.6-5.88
	c-0.09-0.4,0.12-0.49,0.23-0.64c0.1-0.14-0.05-0.18-0.07-0.18c-0.02,0-0.19-0.03-0.44,0.01c-0.25,0.04-0.29,0.36-0.3,0.44
	c-0.01,0.08-0.83,4.38-0.83,4.38s-0.54-2.36-0.58-2.47c-0.03-0.12-0.41-1.74-0.58-2.03s-0.3-0.26-0.42-0.16
	c-0.13,0.1-0.11,0.21-0.08,0.29c0.03,0.08,0.14,0.55,0.14,0.77L33.89,46.72"/>
<path fill="#CC0000" d="M29.63,45.42c-0.17,0-0.2-0.18-0.22-0.23c-0.01-0.05-1.52-4.17-1.55-4.24c-0.03-0.07-0.08-0.22-0.32-0.25
	c-0.24-0.03-0.59,0.01-0.62,0.01c-0.03,0-0.16,0.06-0.14,0.16c0.01,0.08,0.12,0.14,0.2,0.14c0.08,0,0.13,0.01,0.07,0.17
	c-0.06,0.15-1.33,4.08-1.4,4.17c-0.07,0.09-0.08,0.21-0.25,0.21c-0.16,0-0.3,0-0.31,0.15c-0.01,0.15,0.13,0.16,0.22,0.16
	c0.09,0,0.79,0.01,0.91,0.01c0.12,0,0.32,0.02,0.32-0.12c0-0.15-0.1-0.17-0.17-0.18c-0.07-0.01-0.28,0.02-0.23-0.18
	c0.05-0.2,0.3-1.01,0.31-1.05c0.01-0.04,0.03-0.18,0.28-0.18c0.25,0,1.26-0.01,1.32-0.01c0.06,0,0.2-0.01,0.3,0.2
	c0.1,0.21,0.29,0.83,0.32,0.89c0.03,0.07,0.06,0.15-0.09,0.17c-0.15,0.03-0.26,0.07-0.24,0.19c0.02,0.12,0.13,0.17,0.32,0.16
	c0.19-0.01,0.96,0,1.03-0.01c0.07-0.01,0.15-0.07,0.15-0.14C29.85,45.55,29.81,45.43,29.63,45.42 M28.01,43.8H26.9
	c-0.08,0-0.2-0.05-0.16-0.2c0.03-0.15,0.53-1.9,0.62-1.9c0.09,0,0.7,1.7,0.74,1.87C28.15,43.75,28.07,43.8,28.01,43.8"/>
<path fill="#CC0000" d="M18.07,54.82c0.79-0.73,1.72-0.61,1.72-0.61C18.81,53.93,18.07,54.82,18.07,54.82 M23.14,55.36
	c0,0-0.12,0-0.33,0.01C22.92,55.37,23.02,55.36,23.14,55.36 M19.76,56.32c1.22-0.74,2.48-0.91,3.06-0.95
	C20.5,55.43,19.76,56.32,19.76,56.32 M45.95,53.51c-0.51-0.38-1.2-0.09-1.2-0.09C45.28,53.31,45.95,53.51,45.95,53.51 M16.08,53.48
	c0,0,0.68-0.2,1.2-0.09C17.28,53.38,16.59,53.09,16.08,53.48 M44.2,52.09c-0.4,0.71-0.98,0.99-0.98,0.99
	C43.97,52.9,44.2,52.09,44.2,52.09 M21.01,53.22c0,0-0.86-0.9-1.1-1.62C19.91,51.6,19.96,52.46,21.01,53.22 M28.32,56.4
	c-0.05-0.03-1.85-2.68-1.8-5.39c0,0-0.43,2.85,1.73,5.39H28.32z M17.84,52.06c0,0,0.22,0.81,0.98,0.98
	C18.82,53.04,18.23,52.76,17.84,52.06 M22.95,50.92c0,0-0.07,2.59,1.57,3.6C24.52,54.52,23.21,53.43,22.95,50.92 M43.96,54.85
	c0,0-0.73-0.89-1.72-0.61C42.25,54.24,43.17,54.13,43.96,54.85 M35.52,51.05c0.06,2.71-1.75,5.36-1.8,5.39h0.06
	C35.94,53.89,35.52,51.05,35.52,51.05 M38.9,55.4c0.12,0,0.22,0.01,0.33,0.01C39.02,55.4,38.9,55.4,38.9,55.4 M39.22,55.41
	c0.58,0.04,1.84,0.21,3.06,0.95C42.28,56.36,41.54,55.46,39.22,55.41 M39.09,50.96c-0.26,2.51-1.57,3.6-1.57,3.6
	C39.15,53.54,39.09,50.96,39.09,50.96 M48.55,54.53l0.19-0.04l-0.12-0.15c-1.63-2.13-2.91-2.21-3.32-2.18
	c0.03-0.15,0.07-0.3,0.07-0.47c0-0.86-0.36-1.84-0.38-1.89l-0.07-0.17c0,0-1,0.93-1.34,1.24c0-0.03,0.01-0.07,0.01-0.11
	c0-0.9-0.6-1.42-0.62-1.44l-0.07-0.06l-0.08,0.06c-0.79,0.58-1.7,1.55-2.11,1.99c-0.01-0.38-0.08-0.93-0.23-1.39
	c-0.24-0.76-0.98-1.19-1.01-1.21l-0.08-0.05l-0.07,0.06c-0.99,0.97-1.86,2.28-2.17,2.78c-0.34-2.15-2.01-3.05-2.03-3.06l-0.09-0.04
	l-0.06,0.07c-0.02,0.02-1.45,1.72-2.19,3.83c-0.21,0.59-0.31,1.24-0.31,1.9c0,0.75,0.13,1.54,0.4,2.32l0,0
	c0,0.03-0.12,0.22-0.12,0.23c-0.01,0-0.51,0.3-0.51,0.3c0-0.02-1.15-0.08-1.15-0.08s-1.32,0.06-1.34,0.06
	c0-0.02-0.53-0.35-0.54-0.36c0-0.02-0.14-0.25-0.14-0.25c0.29-0.71,0.4-1.42,0.4-2.12c0-2.57-1.62-4.82-2.22-5.57l-0.32-0.38
	l-0.08,0.06c-1.57,0.95-1.96,2.34-2.05,2.99c-0.77-1.27-2.08-2.65-2.14-2.71l-0.08-0.08l-0.06,0.05l-0.6,0.48
	c-0.53,0.68-0.63,1.46-0.63,1.97c0,0.07,0.01,0.06,0.01,0.12c-0.66-0.82-2.08-1.91-2.14-1.96l-0.08-0.06L19,49.29
	c-0.5,0.48-0.59,1.14-0.59,1.53c-0.35-0.34-0.99-0.89-1.23-1.09l-0.13-0.12l-0.06,0.17c-0.29,0.81-0.37,1.44-0.37,1.87
	c0,0.21,0.02,0.37,0.03,0.49c-1.44-0.12-3.24,2.05-3.31,2.15l-0.12,0.15l0.19,0.05c1.28,0.33,2.11,0.34,2.57,0.32
	c-0.42,0.34-1.6,1.3-1.6,1.3l0.24,0.06c1.18,0.27,2.59,0.18,3.19,0.14c-0.16,0.18-0.41,0.48-0.89,1.06l-0.15,0.18l0.26,0.01
	l1.53,0.13c1.15,0.12,2.27-0.06,2.91-0.19c-0.86,0.68-1.63,1.46-1.64,1.47l-0.15,0.16c0,0,0.87,0.19,1.23,0.27
	c0,0.04-0.06,3.42-0.06,3.42v0.2l0.18-0.09c2.16-1.13,5.29-1.83,6.33-2.05c-0.32,0.33-0.87,0.9-0.87,0.9
	c-0.15,0.13-0.61,0.55-0.61,0.87c0,0.05,0.01,0.11,0.04,0.16c0.21,0.32,1.01,0.05,1.25-0.04c0,0,1.5-0.61,1.5-0.61
	c0.04,0,0.07,0,1.77-1.67c0,0.03,0.56,0.04,0.56,0.04c0,0,0.61,0.01,0.61,0.01c0,0.01,1.63,1.55,1.63,1.55
	c0.04,0.03,1.57,0.64,1.57,0.64c0.22,0.14,1.02,0.57,1.27,0.23c0.04-0.06,0.05-0.12,0.05-0.19c0-0.28-0.31-0.66-0.6-0.97
	c-0.03-0.04-0.55-0.56-0.89-0.9c3.24,0.6,6.3,2.07,6.33,2.08l0.18,0.09v-3.62c-0.01-0.01-0.03-0.02-0.04-0.04
	c0.34-0.09,1.13-0.3,1.13-0.3l-0.08-0.14c-0.14-0.24-1.15-1.06-1.72-1.5c0.58,0.08,1.78,0.24,1.78,0.24c0,0,2.99-0.15,2.99-0.15
	l-0.17-0.19c0,0-0.64-0.75-0.89-1.04c1.3,0.09,3.08-0.15,3.16-0.17l0.27-0.04c0,0-1.17-0.98-1.58-1.32c0.09,0.01,0.2,0.02,0.2,0.02
	C46.79,54.91,48.48,54.55,48.55,54.53 M18.01,57.03c0,0,1.5-1.81,3.03-2.29c0.64-0.2,1.2-0.03,1.62,0.07
	c0.29,0.06,0.91,0.29,1.08,0.24c-0.51-0.25-0.47-0.23-0.56-0.26c-1.15-0.45-1.1-0.35-1.88-0.56c-0.02-0.01-0.51-0.12-0.81-0.05
	c-0.34,0.07-0.4,1.93-4.57,1.49c0,0,1.26-1.03,1.86-1.4c0.63-0.39,1.37-0.46,1.9-0.32c0.4,0.11,0.57,0.17,0.66,0.08
	c0,0,0.06-0.03,0.04-0.02c-0.8-0.19-1.26-0.24-1.26-0.24s-1.22-0.17-1.3-0.17c-0.09-0.01-0.45,0.11-1.12,0.46
	c-0.68,0.34-2.24,0.03-2.24,0.03c2.22-2.41,3.11-0.94,3.28-0.81c0.16,0.13,0.64,0.17,0.64,0.17c0.21,0.02,0.49,0.05,0.49,0.05
	c0.23-0.03,0-0.14-0.07-0.18c-0.07-0.03-0.56-0.07-1.18-0.64c-0.61-0.58-0.21-1.99-0.21-1.99c2.58,2.3,1.6,2.2,1.71,2.6
	c0.05,0.2,0.13,0.25,0.46,0.32c1.54,0.36,1.58,0.31,1.58,0.31c0.12-0.12-0.3-0.3-0.3-0.3s-1.02-0.08-1.41-1.13
	c-0.63-1.72-0.21-2.41-0.21-2.41c3.46,2.91,2.23,3.52,2.33,3.76c0.03,0.09,0.06,0.15,0.22,0.26c0.04,0.03,0.15,0.06,0.15,0.06
	c0.94,0.25,1.84,0.54,2.69,0.88c0.08,0.02-0.01-0.03-0.01-0.03c-0.25-0.21-0.59-0.41-0.59-0.41s-1.14-0.59-1.62-1.83
	c-0.99-2.54,0.17-3.35,0.17-3.35c3.63,3.94,2.28,5.27,2.49,5.65c0.03,0.05,0.07,0.11,0.11,0.16c0,0,0.04,0.05,0.09,0.07
	c1.03,0.43,1.98,0.92,2.87,1.42c0.18,0.12,0.05,0,0.05,0c-0.03-0.04-0.06-0.06-0.09-0.09c-0.38-0.3-1.86-1.35-2.38-2.82
	c-1.11-3.16,1.15-4.65,1.15-4.65c3.38,4.4,1.59,6.92,1.68,7.38c0.03,0.17,0.16,0.35,0.28,0.55c0.02,0.03,0.11,0.09,0.11,0.09
	l-0.64,0.06c-1.26-0.78-2.48-1.4-3.59-1.88c-0.07-0.04-0.13-0.03-0.13-0.03c-0.24-0.01-0.5-0.01-0.61,0.02
	C23.74,55.43,23.02,57.5,18.01,57.03 M22.06,53.71c0,0,0.08-0.2,0.08-0.26l0.2,0.34L22.06,53.71z M25.5,54.89l0.05-0.21
	c0,0,0.13,0.25,0.17,0.32C25.76,55.07,25.5,54.89,25.5,54.89 M25.65,56.39c-0.06-0.02-0.84-0.11-1.15-0.11
	c-0.3,0-0.94,0.14-0.94,0.14c0.13-0.09,0.58-0.6,0.58-0.6l0.37,0.02L25.65,56.39z M20.73,58.8c0,0,1.92-1.85,3.27-2.1
	c1.55-0.28,2.96,0.45,3.79,0.71c0,0-1.47,0.2-2.96,0.63c-1.19,0.34-2.74,0.97-2.74,0.97C21.71,58.94,21.15,58.89,20.73,58.8
	 M28.5,61.67c0,0-1.85,0.64-1.91,0.67c-0.05,0.03,1.62-1.63,1.77-1.72c0,0,1.27-0.24,1.44-0.21L28.5,61.67z M35.44,62.41l-1.85-0.75
	l-1.26-1.25c0,0,1.03,0.07,1.49,0.23C33.88,60.67,35.3,62.24,35.44,62.41 M31.05,59.94c-4.67-0.08-9.64,2.11-9.64,2.11l0-2.25
	c0,0,4.2-2.23,9.62-2.29c5.4-0.06,9.54,2.27,9.54,2.27l0.02,2.3C40.15,61.93,35.66,60.02,31.05,59.94 M41.35,58.82
	c-0.37,0.08-0.97,0.14-1.31,0.21c0,0-1.07-0.49-2.73-0.99c-1.47-0.45-2.92-0.64-2.92-0.64c0.89-0.27,2.03-0.92,3.65-0.64
	C39.4,56.99,41.35,58.82,41.35,58.82 M36.34,56.42l1.18-0.55l0.32,0.02c0,0,0.39,0.51,0.58,0.6C38.43,56.48,37.37,56.25,36.34,56.42
	 M41.71,54.07c0.09,0.08,0.27,0.02,0.67-0.08c0.53-0.14,1.26-0.07,1.9,0.32c0.6,0.37,1.86,1.4,1.86,1.4
	c-4.17,0.43-4.23-1.42-4.57-1.49c-0.31-0.07-0.8,0.04-0.82,0.05c-0.79,0.21-0.73,0.11-1.88,0.56c-0.09,0.04-0.05,0.02-0.56,0.27
	c0.17,0.05,0.79-0.18,1.08-0.24c0.43-0.1,0.98-0.27,1.63-0.07c1.53,0.48,3.02,2.29,3.02,2.29c-5.01,0.47-5.73-1.61-5.94-1.66
	c-0.11-0.03-0.38-0.03-0.61-0.02c0,0-0.05-0.01-0.12,0.03c-1.11,0.48-2.33,1.09-3.59,1.87l-0.64-0.06c0,0,0.1-0.06,0.11-0.09
	c0.12-0.2,0.25-0.38,0.28-0.55c0.08-0.46-1.71-2.97,1.68-7.38c0,0,2.25,1.48,1.14,4.64c-0.52,1.47-2,2.52-2.38,2.82
	c-0.03,0.02-0.06,0.05-0.08,0.09c0,0-0.13,0.12,0.05,0c0.89-0.5,1.84-0.99,2.87-1.42c0.05-0.02,0.09-0.07,0.09-0.07
	c0.04-0.05,0.08-0.11,0.11-0.16c0.22-0.39-1.14-1.72,2.49-5.66c0,0,1.16,0.81,0.17,3.36c-0.48,1.24-1.62,1.83-1.62,1.83
	s-0.34,0.2-0.59,0.41c0,0-0.09,0.05-0.01,0.03c0.86-0.34,1.75-0.64,2.69-0.89c0,0,0.11-0.03,0.15-0.06
	c0.16-0.11,0.18-0.17,0.22-0.26c0.09-0.24-1.14-0.85,2.33-3.76c0,0,0.43,0.7-0.21,2.42c-0.39,1.05-1.41,1.13-1.41,1.13
	s-0.42,0.17-0.3,0.29c0,0,0.04,0.06,1.58-0.31c0.32-0.08,0.4-0.12,0.46-0.32c0.1-0.4-0.88-0.3,1.7-2.6c0,0,0.41,1.41-0.21,1.99
	c-0.61,0.58-1.1,0.61-1.17,0.64c-0.08,0.03-0.3,0.15-0.07,0.18c0,0,0.29-0.04,0.49-0.06c0,0,0.48-0.04,0.65-0.17
	c0.17-0.13,1.07-1.6,3.28,0.81c0,0-1.56,0.32-2.24-0.03c-0.68-0.35-1.04-0.46-1.12-0.45c-0.09,0-1.3,0.17-1.3,0.17
	s-0.46,0.06-1.26,0.24C41.66,54.04,41.71,54.07,41.71,54.07 M36.51,54.93l-0.23,0.11l0.18-0.34L36.51,54.93z M39.93,53.75
	l-0.28,0.06l0.2-0.32L39.93,53.75z M42.13,51.63c-0.24,0.72-1.1,1.62-1.1,1.62C42.08,52.5,42.13,51.63,42.13,51.63"/>
<path fill="#CC0000" d="M18.79,39.49c0.38-0.17,1.15-1.51,1.15-1.51s-0.17-0.08-0.48-0.55c-0.31-0.48-1.13-4.68-1.15-4.78
	c-0.02-0.1-0.09-2.24-0.09-2.81c0-0.57-0.06-3.61,0.04-4.44c0.1-0.82-0.27-1.51-0.27-1.51l-1.36,0.13C15.91,24.18,16.04,23,16.04,23
	l0.42,0.09c0.32-0.14,0.4-0.71,0.59-1.97c0.19-1.26,0.12-2.35,0.08-2.93c-0.04-0.57-0.82-0.4-0.82-0.4c-0.63,0.02-2.85,0.5-2.85,0.5
	c-0.31,1.24,0.94,3.86,0.94,3.86s-1.36,2.14-1.39,2.2c-0.04,0.06-2.41,0.65-2.71,0.67c-0.31,0.02-0.69,1.14-1.05,2.2
	c-0.36,1.05-1.53,5.89-1.53,5.89l0.74,1.13l0.21,4.76l2.04-0.14l0.17,0.61l0.71,0.27c0.13,0.34-1.26,6.16-1.26,6.16
	s-0.44,0.63,0.38,4.28c0.82,3.65,0.46,3.89,0.46,3.89s1.45,1.4,1.99,1.8c0.54,0.4,0.71,0.21,0.84,0.12c0.13-0.1,0.31-0.29,0.59-0.5
	c0.29-0.21,0.11-0.38,0.11-0.38s-0.46-0.21-1.05-1.04c-0.59-0.82-0.57-1.28-0.84-3.06c-0.27-1.78,0.9-5.04,0.9-5.04
	c0.8-0.19,0.99-1.59,1.11-1.99c0.11-0.4,0.71-1.43,0.71-1.43c-0.21,1.97,1.28,7.66,1.28,7.66l1.93,1.61l0.14-2.18
	c0,0-0.56-3.99-0.38-4.24C18.66,45.15,18.79,39.49,18.79,39.49 M16.22,33.77c0.08-0.38,0.14-3.63,0.14-3.63s0.25-1.19,0.51-2.33
	c0.07-0.32-0.31-1.87-0.5-2.39c0,0,0.2-0.48,0.43-0.68c0,0,0.49,0.07,0.58,0.27c0.24,0.59,0.31,2.53,0.2,3.08
	c-0.11,0.54,0.02,1.34,0.03,1.63c0,0-0.34,3.52-0.38,3.6l-0.45,0.76C16.76,34.06,16.11,34.26,16.22,33.77 M14.74,19.02
	c0.16-0.16,1.95-0.27,1.95-0.27s0.11,2.57-0.31,3.67c0,0-1.12-0.12-1.33-0.75C15.05,21.67,14.58,19.17,14.74,19.02 M14.94,22.36
	l0.06,0.1c-0.1,0.79,1.07,2.01,0.85,2.1c-0.09,0.04-0.63-0.34-0.96-0.34c-0.5,0-1.05-0.02-1.05-0.02L14.94,22.36z M9.22,38.28
	c-0.05-0.09-0.2-3.02-0.2-3.02l1.56,2.97C10.58,38.23,9.28,38.37,9.22,38.28 M11.34,39.15c0,0-0.18-0.46-0.24-0.54
	c-0.06-0.08-0.15-0.34-0.13-0.54c0.02-0.2-2.55-4.81-2.53-4.99c0.02-0.18,1.77-7.41,2.23-7.52c0.46-0.12,1.31-0.06,1.61-0.14
	c0.3-0.08,1.21-0.65,1.41-0.65c0.23,0,0.56-0.01,0.89-0.06c0.24-0.03,1.17,0.58,1.23,0.8c0.16,0.49,0.3,1.42,0.33,2.09
	c0.01,0.4-0.71,6.52-0.73,6.53c-0.38,0.19-0.71,0.16-1.08,0.02c0,0-0.19-1.6-0.63-1.59c-1.03,0.02-0.95-0.7-0.99-1.02
	c-0.1-0.99-0.31-1.35-0.24-1.57c0.32-0.94,0.22-2.07,0.06-2.33c-0.16-0.26-2.35,4.39-2.51,4.44c-0.15,0.06-0.79,0.1-0.79,0.1
	s2.05,5.36,2.16,5.51c0.07,0.1,0.68,0.95,0.68,0.95c0.25,0.33,1.53,0.08,1.4,0.28c-0.13,0.2-0.98,0.58-0.98,0.58
	S11.39,39.41,11.34,39.15 M13.13,33.69c-0.09-0.15-2.03-0.04-2.26-0.08c-0.23-0.04-0.33-0.48-0.33-0.48s2.26-0.03,2.66-0.03
	c0.4,0,0.38,0.39,0.38,0.39s0.14,4.24,0.14,4.36c0,0.11-0.02,0.34-0.07,0.4c-0.06,0.05-0.08-0.26-0.1-0.32
	c-0.02-0.05-0.19-3.6-0.19-3.85C13.37,33.84,13.23,33.84,13.13,33.69 M13.13,38.24c0,0-0.67-0.17-0.74-0.23
	c-0.07-0.06-0.47-0.6-0.51-0.66c-0.03-0.05-0.76-2.45-0.99-3.28l1.97-0.02C12.95,34.11,13.13,38.24,13.13,38.24 M10.45,32.69
	c-0.27,0-0.11-0.31-0.11-0.31l0.86-1.49c0.15-0.21,0.15-0.02,0.15-0.02s0.15,1.36,0.15,1.59c0,0.23-0.17,0.21-0.17,0.21
	S10.72,32.69,10.45,32.69 M13.99,55.06c0.41,0.31-0.37,0.52-0.5,0.44c-0.13-0.08-1.62-1.34-1.67-1.68c0,0-0.21-0.63-0.02-0.7
	c0.1-0.04,0.27,0.55,0.82,0.24C12.71,53.31,12.99,54.29,13.99,55.06 M18.18,51.26l-0.8-0.77c0,0-0.3-3.18-0.57-4.54
	c-0.27-1.35,0.38-2.44,0.16-4.32c-0.1-0.85-0.87-1.95-0.85-2.15c0.05-0.51,0.67-0.84,0.67-0.84s-0.79-0.6-0.84-0.11
	c-0.06,0.49-0.83,3.02-0.94,3.18c-0.11,0.16-0.74,1.8-0.81,1.98c-0.1,0.27,0.01,1.22-0.82,1.64c-0.12,0.06-0.36,0.63-0.43,0.78
	c-1.09,2.38-0.58,6.35-0.69,6.63c-0.11,0.27-0.47-0.04-0.47-0.04c-0.31-2.33-0.82-4.6-0.72-6.25c0.08-1.28,0.29-1.92,0.36-2.46
	c0.17-1.24,0.9-3.29,0.9-3.29s0.04-0.16,0.39-0.43c0.21-0.17,0.65-0.38,0.81-0.48c0.16-0.11,0.35-0.89,0.81-0.85
	c0.42,0.04,0.06-3.33,0.06-3.33V34.6c0,0,0.56-0.01,0.72-0.01s0.7-0.04,0.7-0.04s0.82-0.17,1.04-0.22c0.21-0.05,0.51,1.47,0.55,1.63
	C17.66,36.86,18,39.1,18,39.1s-0.03,2.28-0.03,2.5c0,0.14-0.14,2.38-0.07,2.74c0.05,0.27-0.1,1.17-0.1,1.38
	c0,0.22,0.53,4.39,0.53,4.39L18.18,51.26z M17.94,34.79c-0.07-0.47-0.18-1.19-0.17-1.63c0.03-1.12,0-1.53,0-1.53
	s0.38,4.58,1.45,6.47c0,0-0.14,0.24-0.39,0.47C18.68,38.69,18.25,36.97,17.94,34.79"/>
<path fill="#CC0000" d="M54.15,44.03c-1.15-0.78-2.98-2.24-2.98-2.29s0.34-5.89,0.36-5.98c0.02-0.1-0.27-2.83-0.27-2.83l2.35-1.83
	c-1.01-5.26-2.04-6.77-2.04-6.77c-0.46,0.06-1.51,0.06-1.51,0.06c-0.98-0.29-1.09-1.01-1.09-1.01c0.97-0.67,1.01-1.43,1.01-1.43
	c-1.11-0.82-1.03-2.79-1.05-2.89c-0.02-0.09-1.8-0.61-1.8-0.61s-1.43-0.46-1.97,0.15c-0.53,0.61-0.27,0.95-0.27,0.95
	c0.19,2.52,1.07,3.44,1.07,3.44c0.46,0.08,0.99-0.13,0.99-0.13s0.04,0.08-0.02,0.72c-0.06,0.65,0,0.9-0.42,1.09
	c-0.42,0.19-1.74,0.57-1.74,0.57l-0.5,3.46c-0.5,3.46-1.05,4.23-1.05,4.23h-0.31c-0.69,0-0.57,0.46-0.57,0.46l-0.58,5.77l0.71,0.13
	l1.61,0.02c-0.4,1.83-0.63,5.29-0.67,6.65c-0.06,1.87,0.9,2.18,0.9,2.18c0.15,0.46,0.25,1.19,0.29,1.58
	c0.02,0.16,0.03,0.26,0.03,0.26l-0.18,2.43l1.23-0.04c0-0.08,0.77-3.96,0.77-3.96c1.78-0.06,3.34-0.69,3.34-0.69
	c0.53,1.43,0.21,4.4,0.21,4.4s-0.5,0.5-0.75,1.13c-0.25,0.63-0.52,0.92-0.52,0.92l-0.32,0.25c0.29,0.5,0.63,0.57,0.76,0.57
	c0.15,0,0.5-0.08,0.73-0.17c0.23-0.09,0.59-0.63,1.22-1.3c0.63-0.67,0.46-0.88,0.46-0.88c-0.27-0.61-0.31-1.15-0.31-1.15
	c0.84-3.38,1.01-5.98,1.01-5.98L54.15,44.03 M47.49,24.44c-0.16,0.06-0.14-0.63-0.08-1.01c0.01-0.08,0-0.59,0-0.59
	c0.13-0.04,0.28,0.03,0.57,0.25C49.62,24.31,47.79,24.32,47.49,24.44 M46.28,22.5c0,0-0.8-1.24-0.83-3.17c0,0,1.37-0.33,2.07,0.37
	c0,0-0.15,0.99,0.38,0.46c0.2-0.2,0.31,0.25,0.36,0.4c0.07,0.22,0,0.66-0.12,0.72c-0.17,0.09-0.36-0.26-0.38,0.15
	c-0.01,0.42-0.29,0.73-0.33,0.73C47.39,22.16,46.38,22.63,46.28,22.5 M46.62,25.36c0.4-0.14,1.09-0.29,1.09-0.29s2.93-0.19,3.32-0.1
	c0.4,0.08,1.93,4.87,1.87,5.61c-0.06,0.74-3.97,3.21-3.97,3.21s-0.44,0.34-0.53,0.36c-0.08,0.03-0.24,0.46-0.38,0.63
	c-0.14,0.17-0.71,0.4-0.82,0.43c-0.11,0.02-0.48-0.07-0.43-0.21c0.06-0.14,0.52-0.74,1.38-1.49c0.94-0.8,1.95-1.82,2.49-2.09
	c0.37-0.18,0.98-0.55,0.98-0.66c0-0.11-1.6-4.13-1.68-4.24c-0.09-0.12-0.33-0.39-0.48-0.16c-0.14,0.23-0.26,1.17-0.09,1.45
	c0.17,0.29,0.98,1.19,1.07,1.48c0.14,0.41,0.07,1.29-0.12,1.45c-0.11,0.09-0.96,1.04-1.21,1.21c-0.19,0.13-2.13,1.89-2.39,2
	c-0.15,0.07-0.74,0.01-0.74-0.03c0-0.25,0.27-0.71,0.25-1.47c-0.06-2.51,0.03-2.68-0.74-3.42c-0.35-0.34-0.31-1.27-0.08-1.66
	C46,26.38,46.22,25.5,46.62,25.36 M45.42,25.69c0.05-0.06,0.89-0.38,0.73-0.27c-0.6,0.41-1.17,1.84-1.17,1.84
	C45.19,26.14,45.37,25.74,45.42,25.69 M44.64,30.89c0.13-0.71,0.18-0.93,0.21-2.28c0-0.01,0,0.53,0.37,0.92
	c0.25,0.26,0.55,0.32,0.3,1.83c-0.02,0.14-0.14,1.65-0.25,1.63c-0.2-0.03-1.13-0.17-1.13-0.17S44.57,31.23,44.64,30.89 M42.53,38.64
	l-0.21-0.05c0,0,0.37-4.42,0.5-4.79c0.14-0.37,0.18,0.02,0.18,0.02L42.53,38.64z M43.05,38.75l0.55-5.17l1.45,0.06l-0.72,5.14
	L43.05,38.75z M45.45,51.77c0,0,0.18,0.56,0,0.41c-0.18-0.15-0.66,0.05-0.56-0.1c0.1-0.15,0.13-1.63,0.13-1.63
	c0.03-0.43,0.01-1.69-0.02-1.88c0-0.02,0.95-0.07,0.89,0C45.85,48.62,45.59,50.82,45.45,51.77 M49.64,46.81
	c-0.61,0.09-1.76-1.62-2.01-3.43c-0.36-2.57-0.32-3.76-0.32-3.76c-0.05-0.32-0.45,2.27-0.3,3.76c0.25,2.48,1.09,3.59,1.09,3.59
	c-0.37,0.2-1.17,0.34-1.57,0.34c-0.72,0.02-1.71,0.06-1.71,0.06c-2.08-0.6,1.18-12.8,1.29-12.83c0.17-0.03,0.34-0.12,0.29,0
	c-0.1,0.21-0.09,0.28-0.16,0.6c-0.08,0.31,0.54,0.49,0.68,0.57c0.13,0.08,1.01-0.04,1.11-0.08c0.18-0.06,1.04-0.58,1.14-0.73
	c0.11-0.16,1.47,0.91,1.47,0.91c0.51,0.48-0.3,3.91-0.25,5.21c0.05,1.31-0.36,0.43-0.36,0.43c-1.44-4.58-1.4-4.45-1.4-4.45
	c0.4,2.77,0.62,3.44,0.67,4.78c0.05,1.34,1.27,1.61,1.55,1.74c0.29,0.13,1.25,0.21,1.57,0.23c0.31,0.03,0.58,0.18,0.24,0.58
	C52.31,44.73,50.17,46.74,49.64,46.81 M50.85,51.15c-0.13,0.55-0.16,0.94,0.12,0.98c0.19,0.02,0.23,0.48,0.12,0.64
	c-0.14,0.18-0.41,0.34-0.55,0.48c-0.13,0.13-0.53,1.07-0.77,1.09c-0.24,0.03-0.72-0.03-0.53-0.14c0.19-0.11,1.32-2.08,1.29-2.3
	c-0.03-0.21,0.12-1.68,0.14-2.03c0.05-0.75-0.16-2.26-0.16-2.26c0.54,0,1.2-1.24,1.17-0.78C51.65,47.29,51.06,50.28,50.85,51.15"/>
<g>
	<path fill="#CC0000" d="M44.84,35.89c0,0-0.4,2.85-1.53,2.89c0,0,0.89,0.32,1.17,0.32C44.75,39.1,44.84,35.89,44.84,35.89"/>
	<path fill="#CC0000" d="M54.75,4.12C56.35,4.74,34.66-5.3,8.4,3.91c0,0-8.51,8.31-8.4,32.06C0.1,58.2,8.05,69.1,8.05,69.1
		s22.52,6.52,46.17,0c0,0,7.44-9.17,7.44-33.33S54.75,4.12,54.75,4.12 M53.51,67.88c-22.12,6.42-44.64,0-44.64,0
		s-7.27-10.7-7.56-31.9C1.02,13.86,9.28,5.09,9.28,5.09C34.66-3.47,53.92,5.3,53.92,5.3s6.64,9.37,6.41,30.68
		C60.08,59.32,53.51,67.88,53.51,67.88"/>
	<path fill="#CC0000" d="M58.29,35.98c0.2-20.77-6.13-28.92-6.13-28.92c-21.78-8.24-41.7-0.19-41.7-0.19s-7.65,7.6-7.54,29.11
		c0.11,20.13,7.26,29.58,7.26,29.58c23.97,5.91,41.6,0.05,41.6,0.05C58.86,53.08,58.29,35.98,58.29,35.98 M51.4,65.02
		c0,0-16.85,5.71-40.82,0c0,0-6.63-8.54-7.05-29.02C3.11,15.36,10.79,7.47,10.79,7.47s19.48-7.83,40.99,0.16
		c0,0,5.98,7.81,5.9,28.35C57.68,35.98,57.9,54.46,51.4,65.02"/>
</g>
<g>
	<polygon fill="#CC0000" points="22.4,15.96 22.81,9.91 26.49,15.05 28.15,8.9 31.03,14.9 33.92,8.85 35.57,15.05 39.24,9.89 
		39.8,15.8 43.74,11.18 42.78,17.99 41.71,18.08 42.89,12.96 38.55,17.98 38.77,11.38 34.71,17.06 33.74,10.43 31.05,17 
		28.31,10.45 27.31,17.06 23.21,11.38 23.46,17.92 19.09,12.85 20.37,18.01 19.28,18.04 18.27,11.12 	"/>
	<polygon fill="#CC0000" points="24.43,51.16 25.13,51.16 24.98,51.91 24.77,51.84 	"/>
	<polygon fill="#CC0000" points="20.84,21.78 20.84,51.65 21.35,51.65 21.67,51.17 21.67,22.55 40.34,22.55 40.34,49.43 
		40.66,51.65 41.14,51.67 41.14,21.78 	"/>
	<polygon fill="#CC0000" points="36.97,51.16 37.57,51.16 37.09,52.12 36.97,51.65 	"/>
	<polygon fill="#CC0000" points="28.54,51.17 33.46,51.17 33.26,51.93 28.72,51.93 	"/>
	<path fill="#CC0000" d="M24.43,19.23c0,0.32-0.26,0.58-0.58,0.58c-0.32,0-0.58-0.26-0.58-0.58c0-0.32,0.26-0.58,0.58-0.58
		C24.17,18.65,24.43,18.91,24.43,19.23"/>
	<path fill="#CC0000" d="M20.83,20.18c0,0.32-0.26,0.58-0.58,0.58c-0.32,0-0.58-0.26-0.58-0.58c0-0.32,0.26-0.58,0.58-0.58
		C20.57,19.6,20.83,19.86,20.83,20.18"/>
	<path fill="#CC0000" d="M28.02,18.62c0,0.32-0.26,0.58-0.58,0.58c-0.32,0-0.58-0.26-0.58-0.58c0-0.32,0.26-0.58,0.58-0.58
		C27.76,18.04,28.02,18.3,28.02,18.62"/>
	<path fill="#CC0000" d="M31.62,18.49c0,0.32-0.26,0.58-0.58,0.58s-0.58-0.26-0.58-0.58s0.26-0.58,0.58-0.58
		S31.62,18.17,31.62,18.49"/>
	<path fill="#CC0000" d="M35.21,18.61c0,0.32-0.26,0.58-0.58,0.58c-0.32,0-0.58-0.26-0.58-0.58c0-0.32,0.26-0.58,0.58-0.58
		C34.95,18.04,35.21,18.29,35.21,18.61"/>
	<path fill="#CC0000" d="M38.8,19.23c0,0.32-0.26,0.58-0.58,0.58c-0.32,0-0.58-0.26-0.58-0.58c0-0.32,0.26-0.58,0.58-0.58
		C38.54,18.65,38.8,18.91,38.8,19.23"/>
	<path fill="#CC0000" d="M42.4,20.19c0,0.32-0.26,0.58-0.58,0.58c-0.32,0-0.58-0.26-0.58-0.58c0-0.32,0.26-0.58,0.58-0.58
		C42.14,19.61,42.4,19.87,42.4,20.19"/>
</g>
</svg>