<?xml version="1.0" encoding="UTF-8" standalone="no"?>
<svg xmlns:rdf="http://www.w3.org/1999/02/22-rdf-syntax-ns#" xmlns="http://www.w3.org/2000/svg" xml:space="preserve" height="56.243" viewBox="0 0 252 56.24253" width="252" version="1.1" xmlns:cc="http://creativecommons.org/ns#" xmlns:dc="http://purl.org/dc/elements/1.1/"><g transform="matrix(1.25 0 0 -1.25 -368.77 480.83)"><g style="" transform="matrix(1.8422 0 0 1.8422 -331.75 -303.65)"><g fill-rule="evenodd"><path d="m345.69 373.14-0.278-0.631c-0.356-0.805-0.57-1.809-0.658-3.051-0.098 0.049-0.291 0.217-0.291 0.217l-0.133-0.637c-0.067-0.356-0.151-1.131-0.151-1.131l-0.011-0.52s0.015-0.544 0.019-0.545c0.027-0.413 0.076-0.779 0.153-1.096-0.328-0.26-0.655-0.533-0.974-0.827l-0.02-0.018s-0.015-0.017-0.023-0.029l-0.078-0.066-0.05-0.054-0.006-0.007-0.054-0.044-0.359-0.366-0.021-0.023-0.032-0.031-0.02-0.019-0.064-0.07-0.02-0.022c-0.005-0.004-0.008-0.008-0.008-0.008l-0.046-0.047-0.233-0.259c-0.146-0.158-0.385-0.455-0.385-0.455l-0.45-0.635 0.625-0.196s0.032-0.009 0.038-0.011c-0.425-0.671-0.807-1.393-1.136-2.159l-0.297-0.694 0.889 0.047 0.167 0.007 0.143 0.007c0.022 0 0.049 0 0.073 0.002-0.017-0.126-0.034-0.25-0.042-0.393v-0.012-0.302-0.013c0.053-1.007 0.389-1.808 1.09-2.594l0.009-0.011 0.066-0.067 0.182-0.181c0.41-0.393 0.894-0.67 1.321-0.914l1.124-0.62 0.207-0.115 2.811-1.556 6.18-3.406-0.348 1.116c-0.202 0.653-0.395 1.379-0.438 2.247l-0.002 0.017c-0.007 0.1-0.007 0.249 0 0.352l0.002 0.01v0.008c0.019 0.459 0.119 0.794 0.3 0.995 0.003 0.005 0.034 0.039 0.034 0.039l0.038 0.031c0.069 0.067 0.171 0.113 0.322 0.145 0.057 0.013 0.166-0.002 0.272-0.017 0 0 0.27-0.026 0.317-0.031h0.108c0.01 0 0.042-0.009 0.042-0.009h0.471s0.098 0.009 0.101 0.009c1.207 0.054 2.223 0.412 3.176 1.121 0.014-0.044 0.23-0.725 0.23-0.725 0.071-0.002 0.495 0.288 0.633 0.45 0.002 0 0.014 0.006 0.014 0.006l0.074 0.074c0.71 0.748 1.143 1.729 1.285 2.913l0.004 0.028v1.272l-0.002 0.027c-0.109 1.003-0.478 1.843-1.127 2.57l-0.018 0.018s-0.019 0.017-0.025 0.021c0 0.002-0.079 0.091-0.079 0.091s-0.018 0.013-0.035 0.027c-0.014 0.019-0.029 0.038-0.029 0.038l-0.056 0.049-0.018 0.015 0.019-0.023-0.02 0.023-0.04 0.041c-0.276 0.247-0.591 0.437-0.921 0.6v0.031l-0.003 0.012c-0.056 1.073-0.544 1.732-0.906 2.133l-0.007 0.008-0.04 0.034-0.059 0.062-0.021 0.02c-0.49 0.477-1.103 0.77-1.639 1.006-0.532 0.236-1.096 0.449-1.641 0.656l-0.104 0.041c-1.113 0.425-2.283 0.893-3.292 1.44-0.897 0.487-1.819 1.105-2.818 1.891-0.777 0.612-1.387 1.133-1.92 1.638-0.001 0-0.148 0.139-0.148 0.139s-0.39 0.364-0.385 0.36c-0.202 0.225-0.558 0.536-0.558 0.536" fill="#fff"/><path d="m7.2227 2.0293c-0.4675 1.0575-0.69961 2.3473-0.78711 3.7773-0.0075 0.04375 0.010238 0.10156-0.00977 0.13281v0.046875c-0.005 0.0575 0.012186 0.13328-0.00781 0.17578v0.068359 0.22461 0.35938c-0.005 0-0.00906-0.000315-0.00781-0.00781-0.1475-0.15875-0.27609-0.3725-0.43359-0.53125-0.01375-0.01625-0.04375-0.059453-0.0625-0.033203-0.08875 0.45125-0.14328 0.93766-0.17578 1.4414-0.005 0.0375 0.00969 0.096094-0.00781 0.12109v0.050781 0.11133c-0.00375 0.0275 0.012185 0.073984-0.00781 0.083984v0.125 0.23633 0.11328c0.02 0.0125 0.00406 0.057734 0.00781 0.083984v0.10547c0.035 0.64375 0.11656 1.2359 0.28906 1.7422-0.52125 0.39875-1.0179 0.81656-1.4941 1.2578-0.04 0.0525-0.099141 0.09297-0.15039 0.13672-0.0275 0.03625-0.058203 0.06836-0.095703 0.09961h-0.00781c-0.14375 0.1575-0.30297 0.29773-0.44922 0.45898-0.03 0.0375-0.068672 0.07492-0.10742 0.10742-0.04875 0.04625-0.083672 0.10524-0.13867 0.14648-0.2575 0.305-0.5675 0.60359-0.8125 0.93359-0.00875 0.015-0.048437 0.03609-0.023437 0.05859 0.26625 0.0775 0.54586 0.1407 0.81836 0.2207-0.70125 0.995-1.3059 2.0932-1.8184 3.2832 0.12375 0 0.22602-0.01867 0.35352-0.01367 0.02875-0.02125 0.092812-0.0048 0.13281-0.0098h0.054687c0.17625-0.01375 0.40703-0.01375 0.58203 0 0.1 0.0025 0.19773 0.0045 0.27148 0.0332-0.105 0.31375-0.15844 0.67531-0.17969 1.0703v0.3457c0.0675 1.3 0.56789 2.1598 1.2129 2.8848 0.09875 0.09875 0.19367 0.19617 0.29492 0.29492 0.4475 0.4275 0.98805 0.74008 1.5293 1.0488 0.54875 0.31125 1.1038 0.61422 1.6562 0.91797 3.3125 1.825 6.6404 3.6891 9.9629 5.4941-0.28-0.895-0.52188-1.8326-0.57812-2.9551-0.01-0.15875-0.01-0.3757 0-0.5332 0.02875-0.68875 0.18914-1.2377 0.52539-1.6152 0.035-0.04 0.07094-0.08008 0.11719-0.11133 0.17875-0.17625 0.40875-0.27664 0.6875-0.33789 0.285-0.06125 0.5889 0.04398 0.91016 0.05273 0.04625 0.0038 0.10938-0.01293 0.14062 0.0059h0.0625 0.37891 0.06445c0.0325-0.01875 0.10023-0.0021 0.14648-0.0059 1.7388-0.07375 2.9213-0.665 3.9238-1.4688 0.1425-0.11375 0.26461-0.24375 0.41211-0.34375 0.09875 0.3225 0.20523 0.63805 0.30273 0.9668 0.0175 0.0225 0.02883-0.02484 0.04883-0.02734 0.0325-0.03875 0.06617-0.07172 0.10742-0.10547 0.77-0.81625 1.2767-1.8929 1.4492-3.3066v-1.5273c-0.13625-1.245-0.61117-2.1521-1.2637-2.8809-0.0475-0.0425-0.08641-0.09367-0.12891-0.13867-0.0275-0.02125-0.04766-0.04266-0.06641-0.06641-0.045-0.04375-0.09266-0.07875-0.12891-0.125-0.39-0.34375-0.84234-0.62844-1.3711-0.83594 0.005-0.0725 0.01133-0.14094 0.01758-0.21094v-0.16602c-0.055-1.04-0.46172-1.7245-0.98047-2.3008-0.05-0.04125-0.09352-0.08586-0.13477-0.13086-0.51625-0.50375-1.185-0.83438-1.875-1.1406-0.69375-0.305-1.4268-0.58117-2.1543-0.85742-1.43-0.545-2.9-1.1397-4.1875-1.8359-1.2962-0.7025-2.4835-1.533-3.6035-2.418-0.8444-0.667-1.6614-1.3408-2.4389-2.0808-0.2262-0.2138-0.4516-0.4237-0.6816-0.6387-0.0237-0.0238-0.0511-0.0674-0.0898-0.0586zm78.312 1.8574c-1.4325 0-2.207 0.87273-2.207 1.8027 0 0.50375 0.22016 0.84625 0.37891 1.0312 0.30875 0.36125 0.71984 0.54094 1.0898 0.71094l0.39844 0.1582c0.42875 0.17625 0.96484 0.3857 0.96484 1.002 0 0.4225-0.33258 0.95898-1.2051 0.95898-0.59625 0-1.1684-0.23922-1.6621-0.57422v1.0742c0.73 0.29 1.357 0.35156 1.752 0.35156 1.4562 0 2.3379-0.84563 2.3379-1.8906 0-0.43-0.15906-0.79109-0.35156-1.0273-0.28-0.36125-0.68367-0.54289-1.0449-0.71289l-0.441-0.1859c-0.456-0.1825-1.022-0.4309-1.022-0.9921 0-0.38875 0.29148-0.86328 1.084-0.86328 0.77375 0 1.2552 0.3718 1.459 0.5293v-1.0469c-0.20375-0.08875-0.74875-0.32617-1.5312-0.32617zm39.324 0c-2.055 0-3.2949 1.5305-3.2949 3.2793 0 1.8412 1.2833 3.2461 3.332 3.2461 2.0375 0 3.2715-1.5116 3.2715-3.2891 0-1.785-1.2998-3.2363-3.3086-3.2363zm-27.623 0.15039v0.88867h1.8984v5.3281h1.1523v-5.3281h1.8906v-0.88867h-4.9414zm34.625 0v6.2168h1.1582v-2.7187h2.1894v-0.88867h-2.1894v-1.7305h2.5332v-0.87891h-3.6914zm-101.15 0.00781v3.8496c0 0.52 0.02922 1.3202 0.73047 1.9102 0.4225 0.35125 1.082 0.60742 1.9707 0.60742 0.94125 0 1.9088-0.28297 2.3926-1.0742 0.30625-0.4925 0.33398-0.99359 0.33398-1.4336v-3.8594h-1.1523v3.7891c0 0.89875-0.33312 1.7168-1.5469 1.7168-1.1625 0-1.5664-0.72312-1.5664-1.6094v-3.8965h-1.1621zm9.7891 0v6.209h1.1426l-0.03516-4.4844 4.043 4.4844h0.40625v-6.209h-1.127l0.0332 3.8496-3.3809-3.8496h-1.082zm10.588 0v6.209h1.1562v-6.209h-1.1562zm5.0508 0 2.4688 6.209h1.0723l2.5078-6.209h-1.1504l-1.8398 4.8555-1.7871-4.8555h-1.2715zm9.8984 0v6.209h3.5352l0.50977-0.88672h-2.8906v-1.9102h2.1445v-0.87891h-2.1445v-1.6523h2.4883v-0.88086h-3.6426zm8.2715 0v6.209h1.1426v-2.6641c0.5275 0 0.58992 0.00109 0.95117-0.035156l1.6426 2.6992h1.293l-1.807-2.9454c0.274-0.1588 0.983-0.5707 0.983-1.5645 0-0.6412-0.349-1.3929-1.289-1.6191-0.302-0.0712-0.591-0.0801-0.873-0.0801h-2.0391zm17.428 0v6.209h1.1602v-6.209h-1.1602zm14.039 0 2.2617 3.8613v2.3477h1.1699v-2.3477l2.252-3.8613h-1.1875l-1.5996 2.8047-1.6191-2.8047h-1.2773zm19.09 0.7051c1.1888 0 2.0625 0.99445 2.0625 2.4082 0 1.1525-0.70062 2.3672-2.0469 2.3672-1.3 0-2.0918-1.0738-2.0918-2.375 0-1.3712 0.86242-2.4004 2.0762-2.4004zm-49.416 0.14062h0.7832c0.5875 0 1.1055 0.24562 1.1055 0.92188 0 0.4475-0.26391 0.84422-0.81641 0.94922-0.20125 0.03875-1.0723 0.027344-1.0723 0.027344v-1.8984z" transform="matrix(.8 0 0 -.8 340.07 373.95)"/><path d="m359.47 361.4c0.552-0.63 0.94-1.425 0.982-2.561v-0.172c-0.008-0.53-0.118-0.964-0.316-1.31-0.189 0.544-0.494 0.975-0.864 1.338-0.019 0.025-0.039 0.046-0.064 0.063-0.517 0.447-1.14 0.785-2.045 0.84-0.044 0.012-0.134 0.012-0.176 0-0.514-0.02-0.87-0.195-1.155-0.445-0.029-0.024-0.054-0.049-0.079-0.078-0.314-0.342-0.659-1.111-0.378-1.744 0.228-0.524 0.775-0.79 1.493-0.826 0.037-0.012 0.12-0.012 0.157 0 0.845 0.043 1.469 0.306 2.066 0.598 0.026-0.006-0.023-0.035-0.034-0.046-0.025-0.018-0.047-0.042-0.066-0.067-0.705-0.647-1.554-1.148-2.857-1.198-0.021-0.004-0.058 0.007-0.066-0.008h-0.073c-0.044-0.004-0.108 0.008-0.144-0.005h-0.106c-0.031 0.013-0.092 0.001-0.135 0.005-1.43 0.071-2.333 0.664-2.379 2.117v0.144c0.015 0.711 0.286 1.21 0.681 1.553 0.393 0.342 0.927 0.581 1.579 0.657 0.127 0.532 0.37 0.987 0.696 1.33 0.323 0.34 0.76 0.604 1.404 0.622h0.162c0.715-0.019 1.17-0.303 1.558-0.649 0.052-0.056 0.105-0.107 0.159-0.158" fill="#fdb913"/><path d="m16.25 12.887c-0.165 0.085-0.32117 0.18328-0.45117 0.30078-0.0475 0.055-0.10305 0.1082-0.1543 0.1582-0.245 0.29125-0.43898 0.63023-0.45898 1.1465v0.16797c0.02 0.51625 0.21398 0.86039 0.45898 1.1504 0.05625 0.055 0.11281 0.10531 0.16406 0.16406 0.265 0.2275 0.63102 0.4393 1.1035 0.4668 0.61875 0.035 1.0936-0.20125 1.4023-0.5 0.02625-0.0325 0.05859-0.06109 0.08984-0.08984 0.135-0.13625 0.24438-0.29562 0.32812-0.48437-0.11625-0.145-0.23438-0.28422-0.35938-0.41797-0.19625 0.395-0.50219 0.68695-1.0547 0.7207-0.01125 0.01375-0.07648 0.01375-0.08398 0-0.6875-0.065-1.055-0.4482-1.1562-1.0957-0.01375-0.04375-0.01375-0.14516 0-0.19141 0.03-0.28875 0.13875-0.50094 0.28125-0.67969 0.035-0.05375 0.08047-0.09867 0.13672-0.13867 0.0975-0.06875 0.19211-0.1457 0.31836-0.18945-0.173-0.177-0.361-0.341-0.565-0.488zm1.2754 1.2012c-0.0875 0.09125-0.14234 0.23828-0.12109 0.39453 0.0475 0.35 0.51188 0.53461 0.79688 0.28711-0.095-0.13-0.21031-0.23906-0.32031-0.35156-0.0325-0.025-0.06148-0.05148-0.08398-0.08399-0.03125-0.0425-0.07367-0.07078-0.10742-0.11328-0.05625-0.035-0.09531-0.13281-0.16406-0.13281zm3.9102 4.5312c-0.02625 0.02125-0.0868 0.0042-0.12305 0.01172-0.15375 0.0025-0.30672 0.02156-0.41797 0.07031 0.11875 0.32625 0.22117 0.67422 0.26367 1.0742 0.23875-0.02375 0.465-0.06492 0.71875-0.07617-0.0175-0.42125-0.12734-0.75383-0.24609-1.0801h-0.19531zm0.65625 0.04102c0.0575 0.27 0.12117 0.53375 0.13867 0.84375 0.02 0.01625 0.0041 0.06359 0.0078 0.08984v0.08203c0.09875 0.005 0.21648-0.0097 0.30274 0.0078 0.12 0.01125 0.24688 0.01414 0.35938 0.02539-0.0225-0.3225-0.08375-0.61188-0.1875-0.85938-0.1875-0.0825-0.39359-0.14945-0.62109-0.18945zm-1.5566 0.17969c-0.44625 0.2275-0.70672 0.64211-0.76172 1.2559 0.3375-0.0975 0.68531-0.18242 1.0391-0.26367-0.05375-0.3675-0.15609-0.69094-0.27734-0.99219zm2.666 0.30078c0.01625 0.205 0.04672 0.39094 0.04297 0.61719 0.26625 0.06 0.53156 0.11859 0.75781 0.21484-0.0675-0.15625-0.18172-0.27102-0.29297-0.38476-0.08625-0.07125-0.16242-0.14602-0.23242-0.22852-0.08375-0.0825-0.16664-0.165-0.27539-0.21875zm-0.54102 0.97461c-0.14625 0.015-0.33859-0.01797-0.46484 0.01953-0.055 0.39375-0.16453 0.73102-0.30078 1.041 0.305-0.04375 0.56992-0.12891 0.82617-0.22266 0.0875-0.245 0.14328-0.51961 0.17578-0.81836-0.0675-0.0175-0.14883-0.01953-0.23633-0.01953zm-0.7832 0.01953c-0.255 0.01375-0.46969 0.05984-0.71094 0.08984-0.03375 0.37875-0.1493 0.67648-0.2793 0.95898 0.1025 0.0125 0.1943 0.03445 0.31055 0.0332h0.34375c0.0675 0.005 0.11258-0.01031 0.17383-0.0078 0.07125-0.34125 0.13461-0.68422 0.16211-1.0742zm1.3047 0.03906c-0.03 0.2625-0.12852 0.45914-0.19727 0.68164 0.3375-0.13375 0.65812-0.27797 0.92188-0.48047-0.21875-0.08625-0.45086-0.16367-0.72461-0.20117zm-2.377 0.13477c-0.3175 0.06875-0.63016 0.14445-0.91016 0.25195 0.18875 0.2975 0.48133 0.4868 0.86133 0.5918 0.03125-0.22 0.05164-0.45297 0.05664-0.69922 0-0.04875 0.0011-0.09453-0.0039-0.14453h-0.0039z" transform="matrix(.8 0 0 -.8 340.07 373.95)" fill="#fff"/></g><path d="m7.7207 3.8887c-0.16375 0.645-0.28547 1.38-0.29297 2.1562v0.39453c0.01125 1.3725 0.40703 2.5366 0.95703 3.4004-0.67375-0.07-1.2181-0.32977-1.5469-0.72852-0.02-0.025-0.049609-0.085-0.068359-0.0625 0.13625 1.525 0.86461 2.4988 1.6309 3.3613-0.81375-0.13125-1.4061-0.55906-1.9648-0.97656-0.5325 0.38125-1.0288 0.79758-1.5 1.2363-0.06875 0.075-0.13719 0.14875-0.21094 0.21875-0.0425 0.05875-0.16375 0.14086-0.15625 0.19336 0.2675 0.08 0.54641 0.15242 0.78516 0.26367-0.7575 0.8525-1.4951 1.7317-2.0488 2.793 0.0325 0.0075 0.040156-0.01102 0.066406-0.0098h0.082031c0.1925-0.0012 0.41508 0.005 0.58008 0 0.02875 0.005 0.07875-0.01023 0.09375 0.0098 0.0875 0.0025 0.1875-0.0048 0.25 0.02148-0.22375 0.6925-0.37961 1.4838-0.31836 2.3438 0.08875 1.225 0.64961 2.0746 1.4121 2.6309 0.2575 0.18875 0.54586 0.3293 0.84961 0.49805 2.88 1.615 5.7552 3.2602 8.6289 4.8477-0.19125-0.53125-0.34984-1.137-0.37109-1.8145-0.0087-0.0425-0.0087-0.13969 0-0.17969 0.02-0.8925 0.37125-1.4517 0.96875-1.7617-0.92625-0.045-1.6084-0.33125-2.1309-0.78125-0.05375-0.04375-0.10274-0.09078-0.14648-0.14453-0.0575-0.085-0.1657-0.17367-0.18945-0.26367 0.13375 0.0175 0.29703 0.04016 0.42578 0.03516h0.2793c0.605-0.0125 1.1552-0.17812 1.5215-0.45312 0.0175-0.0125 0.05703-0.03234 0.05078-0.05859-1.1125-0.0975-1.9456-0.51906-2.4219-1.2266 0.87125 0.1375 1.8048-0.0557 2.291-0.43945-0.66375-0.27875-1.2401-0.64094-1.7363-1.0859-0.06875-0.06-0.13476-0.12586-0.19726-0.19336 0-0.0087-0.01125-0.01758 0-0.01758 0.08375-0.0063 0.17703 0.02039 0.26953 0.02539 0.685 0.03 1.3479-0.07742 1.8379-0.26367-1.1162-0.4725-1.9797-1.1887-2.1172-2.6387-0.0175-0.01-0.0016-0.05562-0.0078-0.07813 0.0062-0.86625 0.34297-1.4592 0.76172-1.918 0.42-0.4625 0.99352-0.81938 1.6973-0.98438-0.4575-0.7725-1.2414-1.2619-2.0352-1.6719 1.4738 0.1925 2.7639 0.56117 3.5352 1.4512 0.02875 0.0225 0.05898 0.05078 0.08398 0.08203 0.32125 0.3325 0.61938 0.7625 1.0781 1.0312 0.4225 0.24875 1.3203 0.37102 1.5391-0.14648 0.07625-0.18 0.07101-0.46438 0.0098-0.67188 0.2825 0.24375 0.50422 0.6375 0.41797 1.1562-0.075 0.43375-0.35578 0.77812-0.55078 1.0469 0.48375-0.4575 1.1628-0.75867 2.0391-0.79492 0.02-0.01875 0.07437-0.0035 0.10938-0.0098 0.0175 0.015 0.04984-0.0088 0.08984 0 0.03125 0.0062 0.08672-0.009 0.10547 0.0098 0.06875-0.005 0.11164 0.01156 0.18164 0.0078 0.04875-0.8475-0.29594-1.3738-0.67969-1.8125-0.05-0.04125-0.09812-0.08672-0.14062-0.13672-0.46875-0.45875-1.0948-0.72094-1.7148-0.99219-1.907-0.8184-3.947-1.49-5.742-2.4013-1.2-0.61-2.293-1.3188-3.342-2.0801-0.914-0.6637-1.8113-1.3707-2.635-2.1132-0.1175-0.105-0.2295-0.2222-0.3633-0.3047zm39.685 9.2933c-4.4588 0-7.1582 3.0333-7.1582 6.8633 0 3.915 2.6812 6.8613 7.2324 6.8613 4.5475 0 7.0469-3.33 7.0469-6.9375 0-3.66-2.6073-6.7871-7.1211-6.7871zm33.305 0.002c-3.33 0-4.7363 2.1802-4.7363 4.0664 0 2.4225 2.0895 3.3471 3.0508 3.7559l0.74219 0.29102c0.70125 0.31625 1.498 0.66766 1.498 1.6289 0 0.4475-0.20641 0.87391-0.50391 1.1289-0.29375 0.24375-0.77508 0.42383-1.4238 0.42383-0.68125 0-1.4759-0.21766-2.1797-0.53516-0.63-0.2975-0.96195-0.55086-1.2207-0.75586v2.9219c1.775 0.73875 3.3664 0.79492 3.8477 0.79492 3.1238 0 4.8984-1.9432 4.8984-4.1582 0-2.4625-1.8861-3.3316-2.8086-3.7578l-0.94336-0.38867c-0.79875-0.37-1.5938-0.7182-1.5938-1.627 0-0.53625 0.35469-1.4043 1.7422-1.4043 1.1475 0 2.089 0.42102 2.959 1.166v-2.7949c-1.09-0.52-2.1106-0.75586-3.3281-0.75586zm-49.967 0.33203v13.057h7.918l1.5195-2.6113h-6.0156v-10.445h-3.4219zm25.295 0v8.1348c0 0.9075 0.03328 2.7574 1.6445 4.0137 0.71875 0.575 2.0528 1.2402 4.2891 1.2402 2.1262 0 4.327-0.53508 5.3633-2.4238 0.5725-1.0512 0.61133-2.2741 0.61133-3.0879v-7.877h-3.3848v7.709c0 1.7762-0.46336 3.1992-2.5371 3.1992-2.2512 0-2.5859-1.6088-2.5859-3.4551v-7.4531h-3.4004zm14.15 0v13.055h3.4199v-13.055h-3.4199zm15.078 0 6.7012 14.543 6.7773-14.543h-3.418l-3.2188 7.0039-3.125-7.0039h-3.7168zm14.854 0v13.055h3.4219v-13.055h-3.4219zm6.0254 0v13.057h7.918l1.5156-2.6113h-6.0098v-10.445h-3.4238zm10.461 0v13.057h7.9141l1.5176-2.6113h-6.0117v-10.445h-3.4199zm10.477 0v13.057h7.9688l1.4805-2.5918h-6.0469v-2.8496h4.3476v-2.5488h-4.3476v-2.4941h5.0664v-2.5723h-8.4688zm-79.678 2.1816c2.1825 0 3.5137 1.8698 3.5137 4.3848 0 1.9762-1.0912 4.2324-3.5137 4.2324-2.2175 0-3.5527-1.8841-3.5527-4.2891 0-2.4762 1.4077-4.3281 3.5527-4.3281z" transform="matrix(.8 0 0 -.8 340.07 373.95)" fill="#ad0000"/></g></g></svg>
