<?xml version="1.0" encoding="UTF-8"?> <svg xmlns="http://www.w3.org/2000/svg" width="176.007" height="64" viewBox="0 0 176.007 64"><g id="Raggruppa_3020" data-name="Raggruppa 3020" transform="translate(7375.7 -9.682)"><g id="Raggruppa_3018" data-name="Raggruppa 3018" transform="translate(-7295.223 24.784)"><path id="Tracciato_647" data-name="Tracciato 647" d="M96.36,61.969a5.716,5.716,0,0,0,3.487-.925,4.931,4.931,0,0,0,1.926-4.142,4.612,4.612,0,0,0-1.234-3.313c-.963-1.021-1.829-1.291-3.949-1.291H91.7v.424l1.445.578v7.667l-1.445.56v.442Zm-1.5-8.823h1.56a2.913,2.913,0,0,1,2.659,1.174,4.412,4.412,0,0,1,.771,2.756,4.1,4.1,0,0,1-1.079,3.082,3.059,3.059,0,0,1-2.543.943H94.857Z" transform="translate(-91.312 -28.366)" fill="#00366a"></path><path id="Tracciato_648" data-name="Tracciato 648" d="M108.121,61.97v-.443l1.445-.559V53.3l-1.445-.577V52.3h4.6v.424l-1.446.577v7.668l1.446.559v.443Z" transform="translate(-96.825 -28.366)" fill="#00366a"></path><path id="Tracciato_649" data-name="Tracciato 649" d="M131.223,60.363v-.481l-2-.675V54.892h1.349c2.852,0,4.643-1.465,4.643-3.8a3.285,3.285,0,0,0-1.117-2.621,4.77,4.77,0,0,0-3.448-.963h-4.874v.482l1.619.675V59.207l-1.619.675v.481Zm-2-12.079h1.33a2.352,2.352,0,0,1,2.138.848,3.316,3.316,0,0,1,.6,2.023,3.179,3.179,0,0,1-.6,2,2.892,2.892,0,0,1-2.581.983h-.887Z" transform="translate(-102.75 -26.759)" fill="#00366a"></path><path id="Tracciato_650" data-name="Tracciato 650" d="M141.889,61.97v-.443l1.445-.559V53.3l-1.445-.577V52.3h4.6v.424l-1.446.577v7.668l1.446.559v.443Z" transform="translate(-108.161 -28.366)" fill="#00366a"></path><path id="Tracciato_651" data-name="Tracciato 651" d="M152.326,61.573V59.281h.6l.752,1.734a5.185,5.185,0,0,0,1.291.174c1.271,0,1.964-.54,1.964-1.542,0-.693-.25-1-1.252-1.638l-1.5-.925c-1.349-.848-1.752-1.407-1.752-2.467,0-1.6,1.212-2.639,3.139-2.639a13.716,13.716,0,0,1,2.562.309l.23.058V54.58h-.6l-.732-1.657a9.272,9.272,0,0,0-1.118-.077c-1.29,0-1.965.462-1.965,1.33,0,.577.194.808,1.2,1.426l1.6,1.02c1.637,1,2,1.523,2,2.7,0,1.655-1.349,2.735-3.429,2.735a12.913,12.913,0,0,1-2.794-.442Z" transform="translate(-111.665 -28.258)" fill="#00366a"></path><path id="Tracciato_652" data-name="Tracciato 652" d="M170.172,58.086l1.022,2.833L170,61.477v.444h4.354v-.444l-1.291-.558-3.314-8.767h-1.117l-3.68,8.767-1.291.558v.444h3.564v-.444l-1.174-.558,1.06-2.833Zm-1.406-4.123.173.5.251.674L170,57.412h-2.621Z" transform="translate(-115.47 -28.316)" fill="#00366a"></path><path id="Tracciato_653" data-name="Tracciato 653" d="M91.117,17.479V17h5.066v.482l-1.618.674v7.707c0,2.311,1,3.332,3.236,3.332,2.35,0,3.392-1,3.392-3.236v-7.8l-1.618-.674V17h4.507v.482l-1.638.674v7.379c0,1.965-.5,3.062-1.772,3.853a5.544,5.544,0,0,1-3.2.751c-3.256,0-4.74-1.291-4.74-4.123v-7.86Z" transform="translate(-91.117 -16.515)" fill="#00366a"></path><path id="Tracciato_654" data-name="Tracciato 654" d="M110.5,31.453V31.01l1.445-.559V22.783l-1.445-.577v-.424H113.4l5.338,6.916V22.783l-1.446-.577v-.424h3.834v.424l-1.426.577V31.55h-.79l-6.011-7.9v6.8l1.426.559v.443Z" transform="translate(-97.623 -18.121)" fill="#00366a"></path><path id="Tracciato_655" data-name="Tracciato 655" d="M129.391,31.453V31.01l1.445-.559V22.783l-1.445-.577v-.424H134v.424l-1.445.577v7.668L134,31.01v.443Z" transform="translate(-103.965 -18.121)" fill="#00366a"></path><path id="Tracciato_656" data-name="Tracciato 656" d="M142.313,31.549l-3.391-8.765-1.194-.578v-.424h4.219v.424l-1.194.578,2.023,5.7c.1.27.173.5.347,1.06l2.677-6.762-1.175-.578v-.424h3.447v.424l-1.232.578-3.6,8.765Z" transform="translate(-106.764 -18.121)" fill="#00366a"></path><path id="Tracciato_657" data-name="Tracciato 657" d="M156.953,26.848v3.834h3.217l.9-1.426h.579l-.232,2.2h-7.628v-.444l1.445-.558V22.783l-1.445-.578v-.424h7.571v2.2h-.6l-.695-1.541h-3.12v3.738H159.5l.521-1.234h.578V28.1h-.578l-.521-1.252Z" transform="translate(-112.158 -18.121)" fill="#00366a"></path><path id="Tracciato_658" data-name="Tracciato 658" d="M172.322,26.849l3.391,4.6h2.428V31.01L177,30.451l-2.851-3.814c1.541-.521,2.273-1.349,2.273-2.562a2.124,2.124,0,0,0-.906-1.792,3.421,3.421,0,0,0-2.33-.5H168.6v.424l1.445.578v7.667l-1.445.559v.443h4.6V31.01l-1.444-.559v-3.6Zm-.558-4.412h1.1c1.155,0,1.732.6,1.732,1.812a1.7,1.7,0,0,1-1.772,1.926h-1.059Z" transform="translate(-117.129 -18.121)" fill="#00366a"></path><path id="Tracciato_659" data-name="Tracciato 659" d="M185.389,31.056V28.764h.6l.751,1.734a5.185,5.185,0,0,0,1.291.174c1.271,0,1.966-.54,1.966-1.542,0-.693-.251-1-1.253-1.637l-1.5-.925c-1.349-.848-1.752-1.407-1.752-2.467,0-1.6,1.214-2.639,3.139-2.639a13.71,13.71,0,0,1,2.562.309l.232.058v2.235h-.6l-.732-1.657a9.272,9.272,0,0,0-1.117-.077c-1.291,0-1.966.462-1.966,1.33,0,.577.194.808,1.2,1.426l1.6,1.02c1.637,1,2,1.523,2,2.7,0,1.655-1.349,2.735-3.429,2.735a12.914,12.914,0,0,1-2.794-.442Z" transform="translate(-122.764 -18.014)" fill="#00366a"></path><path id="Tracciato_660" data-name="Tracciato 660" d="M197.916,31.453V31.01l1.445-.559V22.783l-1.445-.577v-.424h4.6v.424l-1.444.577v7.668l1.444.559v.443Z" transform="translate(-126.969 -18.121)" fill="#00366a"></path><path id="Tracciato_661" data-name="Tracciato 661" d="M209.69,30.451V22.533h-2.1l-.753,1.638h-.6V21.783h8.612v2.388h-.578l-.654-1.638H211.4v7.918l1.54.559v.443h-4.8V31.01Z" transform="translate(-129.764 -18.121)" fill="#00366a"></path><path id="Tracciato_662" data-name="Tracciato 662" d="M223.2,16.271h-2.639l3.7,2.793h.964Zm2.138,9.5,1.022,2.833-1.194.558V29.6h4.354v-.444l-1.291-.558-3.314-8.767H223.8l-3.68,8.767-1.289.558V29.6h3.564v-.444l-1.176-.558,1.06-2.833Zm-1.406-4.123.173.5.251.674.809,2.274h-2.621Z" transform="translate(-133.989 -16.271)" fill="#00366a"></path></g><path id="Tracciato_774" data-name="Tracciato 774" d="M.012.61,64.421,0l-.012,1.192L0,1.8Z" transform="translate(-7315.735 73.421) rotate(-81.655)" fill="#00366a"></path><g id="Raggruppa_3070" data-name="Raggruppa 3070" transform="translate(-7375.7 13.798)"><path id="Tracciato_115" data-name="Tracciato 115" d="M47.322,128.637l.794-2.386-1.391-.18.072-.218a6.333,6.333,0,0,0,1.46-.13,2.485,2.485,0,0,0,.642-.178l.217.072-1.082,3.256.732.527-.063.188-2.311-.769.063-.188Z" transform="translate(-27.968 -75.682)" fill="#00366a"></path><path id="Tracciato_116" data-name="Tracciato 116" d="M56.9,132.423l.131-1.123.282.033.2.819a3.322,3.322,0,0,0,.528.1,1.427,1.427,0,0,0,1-.145,1.048,1.048,0,0,0,.471-.758,1,1,0,0,0-.989-1.142l-.259-.031.041-.353.094.011c.746.088,1.155-.2,1.231-.859.07-.6-.239-.952-.883-1.027a4.923,4.923,0,0,0-.609-.031l-.462.885-.275-.032.127-1.092a6.823,6.823,0,0,1,1.505-.071c.974.114,1.52.624,1.437,1.331-.074.635-.592,1.045-1.4,1.126.852.147,1.346.682,1.264,1.382-.1.88-.954,1.353-2.171,1.211a8.351,8.351,0,0,1-1.145-.213Z" transform="translate(-34.303 -76.916)" fill="#00366a"></path><path id="Tracciato_117" data-name="Tracciato 117" d="M72.92,132.57l.668-.07-.125-1.172.74-.079-.054-.512-.74.079-.356-3.366-.315.034L70.347,131.4l.027.252L72.8,131.4ZM71,131.072l.128-.212.385-.63.415-.728.485-.84.072-.134.252,2.358Z" transform="translate(-42.407 -76.831)" fill="#00366a"></path><path id="Tracciato_118" data-name="Tracciato 118" d="M83.852,130.335l-.366-1.07.27-.092.533.654a3.244,3.244,0,0,0,.521-.137,1.433,1.433,0,0,0,.844-.564,1.054,1.054,0,0,0,.1-.886,1,1,0,0,0-1.386-.6l-.246.084L84,127.382l.091-.031c.71-.243.954-.677.74-1.306a.858.858,0,0,0-1.24-.545,4.817,4.817,0,0,0-.564.234l-.034,1-.262.09-.357-1.04a6.833,6.833,0,0,1,1.328-.713c.927-.317,1.64-.093,1.87.579a1.365,1.365,0,0,1-.775,1.62,1.294,1.294,0,0,1,1.736.7c.287.838-.276,1.632-1.436,2.03a8.446,8.446,0,0,1-1.126.3Z" transform="translate(-49.659 -75.31)" fill="#00366a"></path><path id="Tracciato_119" data-name="Tracciato 119" d="M26.714,119.093a1.139,1.139,0,1,1,1.594-.135,1.133,1.133,0,0,1-1.594.135" transform="translate(-15.873 -70.591)" fill="#00366a"></path><path id="Tracciato_120" data-name="Tracciato 120" d="M15.315,101.29l-.172.108-.606-.427-3.767,2.374.122.73-.172.108-1.144-1.819.172-.108.609.434,3.768-2.372L14,99.581l.172-.108Z" transform="translate(-5.773 -59.965)" fill="#00366a"></path><path id="Tracciato_121" data-name="Tracciato 121" d="M9.34,91.275l-.19.073-.511-.537-4.157,1.6-.021.74-.19.073-.481-1.253,2.6-4.172L3.185,89.025l-.021.74-.19.073-.653-1.7.19-.073.514.545,4.689-1.8.087.228L4.786,91.81,8.48,90.394l.018-.748.19-.073Z" transform="translate(-1.4 -52.33)" fill="#00366a"></path><path id="Tracciato_122" data-name="Tracciato 122" d="M5.3,72.015l-1.2.041L4.1,71.763l1-.433a3.81,3.81,0,0,0,.02-.6c-.027-.756-.341-1.145-.91-1.126-.4.014-.581.159-.929.732l-.485.815a1.878,1.878,0,0,1-.618.746,1.258,1.258,0,0,1-.686.211A1.422,1.422,0,0,1,0,70.591c0-.138.012-.383.027-.611.019-.18.039-.327.06-.426l.062-.344L.17,69.1l1.156-.041.01.3-.963.416-.006.065c-.008.212-.015.269-.01.416.028.813.292,1.187.829,1.168.375-.013.533-.14.871-.713l.516-.881c.316-.531.363-.6.585-.761a1.46,1.46,0,0,1,.814-.264c.9-.031,1.5.625,1.54,1.683a4.711,4.711,0,0,1-.1.98l-.091.46Z" transform="translate(0 -41.475)" fill="#00366a"></path><path id="Tracciato_123" data-name="Tracciato 123" d="M.235,56.149l-.2-.038.395-2.1.2.039.153.724,3.2.6c.96.181,1.462-.156,1.636-1.083.183-.975-.152-1.486-1.08-1.66L1.3,52.018.9,52.637.7,52.6l.351-1.872.2.037L1.4,51.5l3.064.576a1.658,1.658,0,0,1,1.462,1.036A2.34,2.34,0,0,1,5.987,54.5c-.254,1.352-.905,1.867-2.081,1.646L.642,55.529Z" transform="translate(-0.022 -30.58)" fill="#00366a"></path><path id="Tracciato_124" data-name="Tracciato 124" d="M10,41.784,9.815,41.7l-.6.661-1.669-.732.228-.522c.485-1.1.222-2.045-.679-2.441a1.388,1.388,0,0,0-1.2-.012,2.013,2.013,0,0,0-.958,1.171L4.1,41.713l.187.082.536-.512L8.9,43.072l-.014.741.187.082ZM4.988,40.51l.226-.515a1,1,0,0,1,.691-.684,1.406,1.406,0,0,1,.884.112,1.351,1.351,0,0,1,.673.571A1.221,1.221,0,0,1,7.4,41.16l-.151.344Z" transform="translate(-2.474 -23.224)" fill="#00366a"></path><path id="Tracciato_125" data-name="Tracciato 125" d="M13.644,29.707l3.142.076.764-1.055-.166-.119-.609.342L14,28.962a1.4,1.4,0,0,0-.363-1.871,1.23,1.23,0,0,0-1.082-.212c-.369.106-.569.272-.946.793l-1.3,1.786.165.119.632-.386,3.6,2.613-.171.721.164.12L15.973,30.9l-.166-.119-.636.393-1.7-1.232Zm-2.209-1.239.334-.462a.926.926,0,0,1,1.427-.181,1.026,1.026,0,0,1,.331,1.486l-.321.441Z" transform="translate(-6.219 -16.175)" fill="#00366a"></path><path id="Tracciato_126" data-name="Tracciato 126" d="M23.111,18.146l1.471,1.665L25.93,18.62l-.221-.989.2-.177.739,1.02-2.916,2.576L23.6,20.9l.324-.666L20.973,16.9l-.7.239-.135-.153,2.891-2.555.809.915-.2.178-.88-.417-1.311,1.158L22.9,17.9l1.1-.975-.278-.732.183-.162,1.18,1.335-.183.161-.687-.359Z" transform="translate(-12.14 -8.697)" fill="#00366a"></path><path id="Tracciato_127" data-name="Tracciato 127" d="M36.672,8.751l-.319-4.386,1.388-.68.089.183-.5.56,1.962,4,.746-.049.091.182-1.93.947-.09-.183.5-.561-1.767-3.6.342,4.892-.145.071-3.63-3.277,1.767,3.6.746-.049.089.183-1.636.8-.089-.182.489-.556-1.962-4-.739.044-.089-.183L33.422,5.8Z" transform="translate(-19.28 -2.222)" fill="#00366a"></path><path id="Tracciato_128" data-name="Tracciato 128" d="M56.088,5.294l-.566.373.028.2,3.629-.491-.03-1.261-.291.039-.373.946-1.621.22L56.576,3.2l1.307-.176.372.68.249-.034L58.265,1.9l-.251.034-.175.763-1.307.176L56.227.626,57.808.412l.5.836.282-.038L58.426,0,55.232.432l-1.9,5.236-.566.373.027.2L54.557,6l-.027-.2-.645-.216.65-1.994,1.3-.175Zm-1.4-2.086L55.473.761l.312,2.3Z" transform="translate(-31.808)" fill="#00366a"></path><path id="Tracciato_129" data-name="Tracciato 129" d="M79.325,6.974a2.8,2.8,0,0,0,1.912,0,2.831,2.831,0,0,0,1.6-1.946,2.668,2.668,0,0,0-.108-1.961,2.407,2.407,0,0,0-1.8-1.284L78.6,1.12l-.055.2.579.462L77.9,6.059l-.736.086-.055.2Zm.576-5.1.837.24A1.7,1.7,0,0,1,82.05,3.207a2.6,2.6,0,0,1-.005,1.682,2.487,2.487,0,0,1-1.122,1.584,1.755,1.755,0,0,1-1.568.127l-.743-.212Z" transform="translate(-46.484 -0.675)" fill="#00366a"></path><path id="Tracciato_130" data-name="Tracciato 130" d="M91.369,11.658l.095-.18.738.067L94.273,7.6,93.8,7.032l.095-.179,1.9,1-.095.179-.745-.069L92.886,11.9l.48.573-.095.18Z" transform="translate(-55.08 -4.131)" fill="#00366a"></path><path id="Tracciato_131" data-name="Tracciato 131" d="M104.045,18.943l-.965,1.188-.1-.041a6.1,6.1,0,0,1-1.508-.88,2.417,2.417,0,0,1-1.061-1.817,2.8,2.8,0,0,1,.7-1.924,2.712,2.712,0,0,1,4.137-.393,5.566,5.566,0,0,1,1.036,1.073l.067.086-.764.941-.24-.194.346-1.008a2.854,2.854,0,0,0-.469-.454,2.167,2.167,0,0,0-1.756-.641,2.561,2.561,0,0,0-1.679,1.048,2.016,2.016,0,0,0,.184,3.129,4.871,4.871,0,0,0,.625.445l.847-1.043-.355-.646.127-.158,1.667,1.355-.129.158Z" transform="translate(-60.527 -8.618)" fill="#00366a"></path><path id="Tracciato_132" data-name="Tracciato 132" d="M108.975,26.579l.164-.12.632.386,3.6-2.615-.171-.72.164-.119.789,1.087-1.435,4.7,2.78-2.016-.17-.721.164-.12,1.071,1.475-.164.12-.637-.393L111.7,30.474l-.142-.2,1.678-5.392-3.2,2.323.176.727-.166.119Z" transform="translate(-65.694 -14.1)" fill="#00366a"></path><path id="Tracciato_133" data-name="Tracciato 133" d="M117.47,40.645l.185-.085.546.5,4.042-1.865-.027-.741.185-.085.9,1.951-.185.086-.549-.509-4.042,1.866.031.747-.184.085Z" transform="translate(-70.814 -23.131)" fill="#00366a"></path><path id="Tracciato_134" data-name="Tracciato 134" d="M121.783,49.665l4.414-1.2-.322-1.186-1.033-.107-.077-.283,1.288-.35,1.182,4.353-1.288.349-.074-.275.836-.616L126.4,49.2l-4.414,1.2-.051.9-.2.053-.648-2.387.2-.054Z" transform="translate(-72.995 -28.055)" fill="#00366a"></path><path id="Tracciato_135" data-name="Tracciato 135" d="M125.857,64.418l-1.655.669-.331-.6-.2.01.1,2.066.2-.011.27-.632,4.872-2.023-.021-.455-5.059-1.8-.331-.611-.2.01.087,1.781.2-.011.27-.632,1.713.536Zm2.334-.913c-.256.086-.384.134-.72.264l-1.3.512-.072-1.455Z" transform="translate(-74.449 -36.789)" fill="#00366a"></path><path id="Tracciato_136" data-name="Tracciato 136" d="M123.355,77.837l4.514.743.2-1.213-.895-.526.048-.29,1.316.218-.732,4.449L126.489,81l.046-.281,1.017-.212.193-1.173-4.514-.743-.42.8-.2-.033.4-2.442.2.034Z" transform="translate(-73.913 -46.147)" fill="#00366a"></path><path id="Tracciato_137" data-name="Tracciato 137" d="M120.614,87.194l.192.066.049.739,4.214,1.439.49-.555.193.066-.7,2.034-.192-.066-.046-.747L120.6,88.731l-.492.562-.192-.066Z" transform="translate(-72.291 -52.563)" fill="#00366a"></path><path id="Tracciato_138" data-name="Tracciato 138" d="M117.625,94.972l1.056.562-.138.259-1.079-.123a3.626,3.626,0,0,0-.319.513c-.355.668-.278,1.161.225,1.43.352.188.583.153,1.17-.17l.828-.463a1.862,1.862,0,0,1,.908-.336,1.243,1.243,0,0,1,.7.16,1.422,1.422,0,0,1,.53,2.053c-.065.123-.2.327-.331.516a4.226,4.226,0,0,1-.263.34l-.226.267-.074.089-1.02-.544.141-.266,1.042.123.039-.054c.113-.18.147-.225.216-.355.382-.718.34-1.175-.134-1.427-.33-.176-.532-.145-1.111.182l-.888.505c-.539.3-.612.336-.886.366a1.456,1.456,0,0,1-.836-.178,1.515,1.515,0,0,1-.491-2.227,4.736,4.736,0,0,1,.574-.8l.308-.353Z" transform="translate(-70.173 -57.252)" fill="#00366a"></path><path id="Tracciato_139" data-name="Tracciato 139" d="M109.451,117.362a1.14,1.14,0,1,1,.047-1.6,1.132,1.132,0,0,1-.047,1.6" transform="translate(-64.835 -69.564)" fill="#00366a"></path><path id="Tracciato_140" data-name="Tracciato 140" d="M65.237,73.832a.279.279,0,0,0,.013.06.4.4,0,0,0-.006.06.473.473,0,0,0,.147.307l.083.108a.74.74,0,0,0,.376.3.43.43,0,0,0,.317-.006.305.305,0,0,1,.2-.016l.1.066.164.1a.4.4,0,0,0,.332-.062l.176-.069.192-.013.257-.021.067-.01c.2-.03.4-.058.464-.158l.021-.1L68,74.23l-.049-.031-.214-.095-.054-.015-.119-.054-.246-.073-.224.062-.15.051-.286-.017-.054-.01-.153-.07-.247-.094a.678.678,0,0,0-.353.091l-.1.05-.085.027c-.129.005-.155-.009-.24-.166.019-.038.11-.208.11-.208l.328-.409.005,0,0,0h0c0-.006.005-.015.01-.021a.144.144,0,0,0,.039-.079.078.078,0,0,0-.023-.055c-.053-.057-.124-.009-.147.008-.074.052-.515.437-.515.71" transform="translate(-39.327 -44.059)" fill="#00366a"></path><path id="Tracciato_141" data-name="Tracciato 141" d="M60.166,66.366l-.143.033a.831.831,0,0,0,.086-.86,1.675,1.675,0,0,1,.172.077,1.074,1.074,0,0,1,.129.124,1.12,1.12,0,0,1,.27.548c0,.017,0,.031,0,.047a1.077,1.077,0,0,0-.51.03m-.557-.481a.109.109,0,1,1,.1-.108.105.105,0,0,1-.1.108m-1.072.475a3.328,3.328,0,0,1-.305-.21.918.918,0,0,1,.029-.131c.008-.015.016-.029.023-.044l.143-.227a2.378,2.378,0,0,1,.2-.194l.043-.023a.823.823,0,0,0,.115.908.791.791,0,0,1-.249-.079m1.744.569.169-.018-.019.021c-.074.068-.133.121-.109.193a.108.108,0,0,0,.1.072.225.225,0,0,0,.207-.109l.05-.054.128-.087.183-.136.188-.264a.886.886,0,0,0,.062-.4l-.07-.349-.014-.041-.028-.092-.11-.268c-.077-.134-.272-.435-.4-.362a.159.159,0,0,0-.077.152v.024l-.071.03a.5.5,0,0,1-.357-.108,1.142,1.142,0,0,0-.388-.159,1.99,1.99,0,0,0-.777.007,1.182,1.182,0,0,0-.639.312.908.908,0,0,0-.3.384l-.128.425,0-.007a.123.123,0,0,0,.042.114.128.128,0,0,0,.066.025c.03.079.142.158.426.337a2.222,2.222,0,0,0,.834.168l.006,0h.064v-.013l.021,0h.011c.016,0,.029,0,.044,0a.781.781,0,0,0,.182-.023l.341-.027.326-.072a.769.769,0,0,1,.4-.042,2.03,2.03,0,0,1-.077.22v0a.125.125,0,0,0-.138-.108l-.16.017-.307.046-.443.108a.123.123,0,0,0,.058.239l.443-.108Z" transform="translate(-34.886 -39.145)" fill="#00366a"></path><path id="Tracciato_142" data-name="Tracciato 142" d="M58.656,62.466a2.72,2.72,0,0,1,1.009-.062l.2.013.336.044.395.136.236.091a.12.12,0,0,0,.156-.071.127.127,0,0,0-.072-.16l-.227-.087-.427-.147-.385-.051-.182-.013a3.025,3.025,0,0,0-1.088.067.123.123,0,0,0,.054.24" transform="translate(-35.269 -37.459)" fill="#00366a"></path><path id="Tracciato_143" data-name="Tracciato 143" d="M68.332,83.752l0,0a.7.7,0,0,1-.287.169l-.071.021a.783.783,0,0,1-.465.012l-.2-.048-.325-.056-.084,0c-.163-.007-.213-.01-.237.058l-.017.051.046.042.112.1a.96.96,0,0,0,.769.321l.157-.015.187,0,.24.105.233.131-.044-.188-.071-.324a.071.071,0,0,1,0-.016c0-.091.058-.15.164-.228l0,0Z" transform="translate(-40.172 -50.488)" fill="#00366a"></path><path id="Tracciato_144" data-name="Tracciato 144" d="M67.135,80.439h0l-.033-.064c-.057-.132-.082-.211-.029-.287l-.11-.117c-.008.006-.014.016-.022.022h0a.327.327,0,0,0-.131.282.793.793,0,0,0,.019.153.509.509,0,0,1-.185-.02l-.293-.141-.258-.248-.1-.111a.325.325,0,0,0-.248-.083l-.082-.005a1.282,1.282,0,0,0-.237.025l-.052,0c.006,0,.01.007.017.008l-.012,0,0-.008-.193.053-.053-.009-.074-.017-.083-.015-.182-.017-.3.1-.2.162-.091.089-.088.085-.212.147a.623.623,0,0,1-.336.013l-.182-.049a.472.472,0,0,0-.02-.353l-.025-.076-.16.033a1.638,1.638,0,0,1,.013.17.28.28,0,0,1-.046.16l-.047.058a.412.412,0,0,1-.264.125.485.485,0,0,1-.117-.024l-.065.151a.444.444,0,0,0,.181.038.543.543,0,0,0,.406-.1.709.709,0,0,0,.282.2.99.99,0,0,0,.527.057l.084-.006.277-.04.339-.034.171.043.247.052.227-.075a.248.248,0,0,1,.167-.047l.211.058.046.015a.13.13,0,0,0,.068,0l.317.048a.927.927,0,0,0,.7-.149l.041-.049a.464.464,0,0,0,.251.122.385.385,0,0,0,.38-.143l.09-.131-.253,0c-.159.005-.237,0-.279-.072" transform="translate(-37.771 -48.119)" fill="#00366a"></path><path id="Tracciato_145" data-name="Tracciato 145" d="M50.005,57.557c-.017,0,.017,0,0,0" transform="translate(-30.142 -34.697)" fill="#00366a"></path><path id="Tracciato_146" data-name="Tracciato 146" d="M75.011,66.767a.853.853,0,0,1-.3.075.833.833,0,0,0,.3-.637.842.842,0,0,0-.056-.3,1.8,1.8,0,0,1,.207.168.832.832,0,0,1,.188.379,1.077,1.077,0,0,1,.013.108l-.351.2m-.554-.547a.109.109,0,1,1,.1-.11.106.106,0,0,1-.1.11m-.9.473-.191-.051a.874.874,0,0,0-.4-.036,1.15,1.15,0,0,1,.178-.5,1.017,1.017,0,0,1,.071-.091l.123-.1a1.134,1.134,0,0,1,.183-.129.829.829,0,0,0,.043.913ZM74.929,65.4a1.867,1.867,0,0,0-.614-.112,2.163,2.163,0,0,0-.917.113,1.35,1.35,0,0,0-.556.331l-.1.093a.749.749,0,0,0-.29.448,1.033,1.033,0,0,0,0,.432l.037.188.221-.315c-.006.055-.012.11-.014.174l-.006.171.164-.05a.592.592,0,0,1,.431,0l.226.06.3.07.521.085h.133a1.329,1.329,0,0,0,.639-.1l.515-.3-.008-.066V66.62l.068-.053c.119-.093-.023-.522-.138-.7a.9.9,0,0,0-.618-.465" transform="translate(-43.664 -39.356)" fill="#00366a"></path><path id="Tracciato_147" data-name="Tracciato 147" d="M74.425,69.785l-.2-.076-.4-.121-.52.016-.131.018a.123.123,0,0,0-.106.138.121.121,0,0,0,.136.1l.135-.018.454-.015.333.1.213.083a.118.118,0,0,0,.154-.072.127.127,0,0,0-.075-.16" transform="translate(-44.051 -41.95)" fill="#00366a"></path><path id="Tracciato_148" data-name="Tracciato 148" d="M56.884,32.064a1.209,1.209,0,0,1-.378.879,1.112,1.112,0,0,1-.767.314,1.321,1.321,0,0,1-.567-.224.328.328,0,0,0-.489.246.94.94,0,0,1-.93.953,1.06,1.06,0,0,1-.9-.5.327.327,0,0,0-.6.175,1.107,1.107,0,0,1-1.019,1.175,1.056,1.056,0,0,1-.889-.5.327.327,0,1,0-.551.352,1.705,1.705,0,0,0,1.44.8,1.679,1.679,0,0,0,1.551-1.166,1.687,1.687,0,0,0,.968.321,1.51,1.51,0,0,0,1.462-1.1,1.31,1.31,0,0,0,.524.122,1.764,1.764,0,0,0,1.057-.355,1.855,1.855,0,0,0,.591-.754,14.8,14.8,0,0,1,.662,1.978c0,.006,0,.012,0,.019a1.156,1.156,0,0,1-.471.81,1.232,1.232,0,0,1-.722.255.969.969,0,0,1-.556-.22.328.328,0,0,0-.5.2,1.192,1.192,0,0,1-1.1.95,1.107,1.107,0,0,1-1.107-.7.327.327,0,0,0-.416-.2.33.33,0,0,0-.114.068.323.323,0,0,0-.151.238,1.165,1.165,0,0,1-1.144,1.075,1.149,1.149,0,0,1-1-.6.329.329,0,0,0-.444-.129.319.319,0,0,0-.079.067l0-.006a.357.357,0,0,0-.291-.145.331.331,0,0,0-.273.148.431.431,0,0,1-.112.133c-.121-.014-.161-.05-.175-.067a.669.669,0,0,1-.086-.413,2.863,2.863,0,0,1,.029-.387,1.458,1.458,0,0,0,.014-.2,1.473,1.473,0,0,0-.069-.416,1.261,1.261,0,0,0,.15-.647,1.529,1.529,0,0,0-.2-.526.413.413,0,0,0-.071-.086,6,6,0,0,0,.746-.957,3.6,3.6,0,0,0,.519-1.555l.027-.183a3.1,3.1,0,0,1,.189-.61A2.7,2.7,0,0,1,53.539,28.8c.016,0,.1.014.166.022l.042.005a5.576,5.576,0,0,1,3.112,2.884Zm1.74,6.236v0a1.327,1.327,0,0,1-.32.827,1.16,1.16,0,0,1-.857.46,1.078,1.078,0,0,1-1.012-.913.327.327,0,0,0-.635-.022c-.132.463-.481.961-.933.961A1.014,1.014,0,0,1,53.8,38.61a.327.327,0,0,0-.625-.135.9.9,0,0,1-1.667-.029.3.3,0,0,0-.02-.056,1.09,1.09,0,0,1-.035-.119.327.327,0,0,0-.641.133,1.467,1.467,0,0,0,.065.215,18.858,18.858,0,0,1-.37,4.267,3.732,3.732,0,0,0-2.7,1.9c.014-.02-.28.384-.28.384a.276.276,0,0,0-.02.031,1.379,1.379,0,0,1-.946.8h-.089a.588.588,0,0,1-.209-.015c.047-.074.1-.151.147-.235a8.559,8.559,0,0,0,1.054-3.36.859.859,0,0,0,.177-.048.9.9,0,0,0,.6.263.871.871,0,0,0,.645-.277.906.906,0,0,0,.228-.507,1.45,1.45,0,0,0,.554-.28,1.027,1.027,0,0,0,.371-.8c0-.027,0-.054,0-.081l-.1-.351-.065-.2c-.035-.109-.087-.26-.2-.287s-.192-.058-.273.026l-.216.224c-.025.036-.068.095-.11.147A.184.184,0,0,1,49,40.089c0-.069.058-.158.171-.329a2.136,2.136,0,0,0,.409-1.02l.039-.371.019-.2a.916.916,0,0,0,.541-.249.969.969,0,0,0,.272-.59,1.777,1.777,0,0,0,2.915-.411,1.876,1.876,0,0,0,1.33.521,1.772,1.772,0,0,0,1.575-1.064,1.323,1.323,0,0,0,.58.139,1.867,1.867,0,0,0,.913-.247,1.91,1.91,0,0,0,.526-.437,20.563,20.563,0,0,1,.333,2.466m.066,1.736c0,.4-.01.807-.031,1.216a19.649,19.649,0,0,1-2.131,8.316,14.359,14.359,0,0,1-.771,1.282c-.005.006-1.339,2.076-1.339,2.076a11.033,11.033,0,0,1-1.54,1.755c-.005,0-.048.053-.054.058l-.166.158-.226.185-.426.255a1.441,1.441,0,0,1-.5.188,1.2,1.2,0,0,1-.33-.016.282.282,0,0,0-.051,0,1.14,1.14,0,0,1-.987-.59l-.035-.141a1.785,1.785,0,0,1-.081-.493c0-.058.006-.123.013-.194a17.679,17.679,0,0,0,2-2.423.322.322,0,0,0,.1-.077,25.317,25.317,0,0,0,2.194-3.055,10.863,10.863,0,0,0,.706-1.589c.3-.8.555-1.629.72-2.186a19.43,19.43,0,0,0,.718-4.865,1.546,1.546,0,0,0,.976.354,1.681,1.681,0,0,0,.927-.3,2.039,2.039,0,0,0,.314-.26c0,.116,0,.23,0,.347M51.8,43.645a1.87,1.87,0,0,1,.936,1.042c.753,1.3.628,3-.191,4.8a.453.453,0,0,0-.039.031.9.9,0,0,1-.684.317.808.808,0,0,1-.908-.62v-.029a.328.328,0,0,0-.449-.3l-.079.031a.87.87,0,0,1-.326.063.929.929,0,0,1-.9-.857.263.263,0,0,0,.046-.149.384.384,0,0,0-.062-.2.363.363,0,0,0-.348-.147l-.254.037a.943.943,0,0,1-.92-.962,4.383,4.383,0,0,1,.236-.845l0-.008c.066-.092.131-.192.2-.307l.286-.394A3.173,3.173,0,0,1,50.7,43.523l.012.006a.328.328,0,0,0,.17-.014,2.186,2.186,0,0,1,.927.131m.676-.376a1.706,1.706,0,0,0-.44-.235,2.293,2.293,0,0,0-.861-.171,20.089,20.089,0,0,0,.36-3.423,1.53,1.53,0,0,0,.809.237,1.483,1.483,0,0,0,.76-.218,19.652,19.652,0,0,1-.628,3.809m.834,1.1A4.67,4.67,0,0,0,53,43.829a.4.4,0,0,0,.023-.044,20.675,20.675,0,0,0,.713-3.912,1.737,1.737,0,0,0,1.132.4,1.347,1.347,0,0,0,.95-.417,18.713,18.713,0,0,1-.692,4.718c-.161.547-.416,1.363-.706,2.145A10.4,10.4,0,0,1,53.76,48.2c-.049.085-.106.177-.166.273a5.151,5.151,0,0,0-.28-4.1m-4.038,6.461a.328.328,0,0,0-.427-.005c-.112.095-.112.095-.328.095a.869.869,0,0,1-.847-.886.93.93,0,0,1,.053-.311.325.325,0,0,0,.017-.083l.005-.053a.327.327,0,0,0-.562-.255c-.122.126-.189.147-.477.147a.868.868,0,0,1-.848-.886.893.893,0,0,1,.375-.735.328.328,0,0,0-.379-.535,1.551,1.551,0,0,0-.651,1.269,1.523,1.523,0,0,0,1.5,1.54,2.49,2.49,0,0,0,.324-.021,1.514,1.514,0,0,0,1.487,1.462h.032a1.735,1.735,0,0,0-.016.2,1.522,1.522,0,0,0,1.351,1.525q-.155.164-.315.327a.321.321,0,0,0-.141.142c-.293.29-.6.576-.918.858a.3.3,0,0,0-.115.068.814.814,0,0,1-.551.216.857.857,0,0,1-.836-.874,1.186,1.186,0,0,1,.24-.557.328.328,0,0,0-.394-.5l-.1.043a.375.375,0,0,0-.05.027c-.037.025-.037.025-.127.022l-.118,0a.7.7,0,0,1-.685-.716.66.66,0,0,1,.158-.429.331.331,0,0,0,.069-.173l.007-.076a.327.327,0,0,0-.59-.225.588.588,0,0,1-.478.247.62.62,0,0,1-.6-.633.66.66,0,0,1,.02-.159.355.355,0,0,0,.115-.234.616.616,0,0,1,.13-.133.327.327,0,0,0-.379-.533,1.284,1.284,0,0,0-.419.512l-.071.059h0a.965.965,0,0,1-.527.157,1.022,1.022,0,0,1-1-1.043,1.772,1.772,0,0,1,.234-.66,5.5,5.5,0,0,0,1.156-.66l.489-.329a6.7,6.7,0,0,0,1.007-.759,7,7,0,0,0,.772-.78.933.933,0,0,0,.61.137l.131,0a.356.356,0,0,0,.088-.012,2.906,2.906,0,0,0,.286-.1,1.015,1.015,0,0,0-.017.161,1.6,1.6,0,0,0,1.575,1.615h0a1.567,1.567,0,0,0,1.516,1.315,1.518,1.518,0,0,0,.294-.055,1.447,1.447,0,0,0,1.469.915,1.419,1.419,0,0,0,.212-.017,14.525,14.525,0,0,1-1.313,1.881.34.34,0,0,0-.1.066.823.823,0,0,1-.587.247.869.869,0,0,1-.847-.886,1.936,1.936,0,0,1,.062-.4l.081-.126a.325.325,0,0,0-.058-.423M45.445,56.9a23.991,23.991,0,0,1-4.671,2.261,12.021,12.021,0,0,1-6.719.7c-.033-.015-.058-.043-.095-.046l-.033,0a.883.883,0,0,1-.856-.9.92.92,0,0,1,.961-.835c.324.018.676.018,1.049,0a22.33,22.33,0,0,0,10.024-3.145l.3-.185.964-.624a1.516,1.516,0,0,0,1.086,1.387A23.11,23.11,0,0,1,45.445,56.9m.585.4c.3-.188.587-.379.868-.577a.566.566,0,0,1,.042.16.58.58,0,0,1-.237.47c-.218-.013-.444-.031-.674-.054m1.9.72a.914.914,0,0,1,.942.835.884.884,0,0,1-.854.9l-.034,0c-.037,0-.061.031-.094.046a11.183,11.183,0,0,1-5.875-.423c.236-.1.472-.2.708-.3a25.477,25.477,0,0,0,2.4-1.227,18.122,18.122,0,0,0,1.989.176c.3.008.572.006.817-.006M34.495,55.462a1.517,1.517,0,0,0,1.085-1.415c.225.159.454.314.685.467a1.02,1.02,0,0,0-.154,1.13c-.178.021-.358.041-.544.059a1.15,1.15,0,0,0-.554.149c-.176-.128-.349-.259-.519-.39m-.949-.809a.346.346,0,0,0-.117-.068c-.492-.433-.95-.878-1.375-1.327a1.45,1.45,0,0,0,1.327-1.734c.015,0,.026.006.042.006a1.517,1.517,0,0,0,1.489-1.47,2.04,2.04,0,0,0,.323.029,1.524,1.524,0,0,0,1.5-1.541,1.554,1.554,0,0,0-.651-1.269.327.327,0,1,0-.378.535.9.9,0,0,1,.374.735.869.869,0,0,1-.847.886.627.627,0,0,1-.529-.18.327.327,0,0,0-.511.4s.014.02.027.041a.917.917,0,0,1,.05.29.869.869,0,0,1-.848.886.608.608,0,0,1-.453-.161.322.322,0,0,0-.449.038.334.334,0,0,0,.027.462l.112.105a.936.936,0,0,1,.094.415.868.868,0,0,1-.848.885.822.822,0,0,1-.586-.246.321.321,0,0,0-.106-.071,14.733,14.733,0,0,1-1.245-1.767.3.3,0,0,0-.052-.11,1.792,1.792,0,0,0,.2.018,1.448,1.448,0,0,0,1.391-.863,1.524,1.524,0,0,0,.384.073,1.572,1.572,0,0,0,1.53-1.39,1.6,1.6,0,0,0,1.55-1.611,1.327,1.327,0,0,0-.012-.158c.088.033.18.066.281.093a.315.315,0,0,0,.088.013,1.612,1.612,0,0,0,.689-.158,3.974,3.974,0,0,0,.753.826,4.26,4.26,0,0,0,1.38.834l.446.191.658.339a6.082,6.082,0,0,0,.754.37,2.4,2.4,0,0,1,.288.741,1.023,1.023,0,0,1-1,1.043.335.335,0,0,0-.079.01,1.846,1.846,0,0,1-.928-.187h0l-.157-.131a1.287,1.287,0,0,0-.419-.512.328.328,0,0,0-.38.534.622.622,0,0,1,.133.131.339.339,0,0,0,.112.234.671.671,0,0,1,.02.159.62.62,0,0,1-.6.633.59.59,0,0,1-.477-.247.328.328,0,0,0-.59.225l.008.079a.333.333,0,0,0,.068.171.654.654,0,0,1,.158.429.7.7,0,0,1-.684.717.611.611,0,0,1-.261-.07l-.11-.086,0-.005c-.005-.005-.012-.006-.017-.011-.076-.059-.154-.118-.228-.178a.328.328,0,1,0-.411.511c.062.05.127.1.19.147l.019.03a.3.3,0,0,0,.046.047.892.892,0,0,1,.228.579.857.857,0,0,1-.836.873.812.812,0,0,1-.55-.216m-1.7-.1-.026.052a1.181,1.181,0,0,1-.994.645,1.311,1.311,0,0,1-.759-.149c-.046-.021-.095-.045-.148-.073,0,0-.36-.215-.407-.245l-.213-.174-.188-.182-.044-.046a10.948,10.948,0,0,1-1.544-1.762l-1.33-2.063a12.116,12.116,0,0,1-.7-1.188,19.455,19.455,0,0,1-2.07-8.051c-.02-.409-.031-.815-.031-1.215,0-.134,0-.267,0-.4a1.881,1.881,0,0,0,.31.295,1.544,1.544,0,0,0,.931.311,1.56,1.56,0,0,0,1.043-.409,18.5,18.5,0,0,0,.651,4.921l.4,1.156c0-.006.175.518.175.518s.421.965.421.965l.265.589a18.186,18.186,0,0,0,1.8,2.766,16.856,16.856,0,0,0,2.609,3.321,1.313,1.313,0,0,1-.16.416m-2.86-15.023a1.469,1.469,0,0,0,.753.213,1.523,1.523,0,0,0,.835-.256,23.149,23.149,0,0,0,.331,3.323,2.512,2.512,0,0,0-1.018.18,1.616,1.616,0,0,0-.307.151,22.588,22.588,0,0,1-.595-3.611m-.811,8.213c-.061-.133-.254-.564-.254-.564l-.4-.9-.175-.516-.388-1.125a17.716,17.716,0,0,1-.623-4.652,1.318,1.318,0,0,0,.881.353,1.731,1.731,0,0,0,1.139-.407,23.847,23.847,0,0,0,.677,3.723,4.694,4.694,0,0,0-.415.686,4.828,4.828,0,0,0-.446,3.4m4.627.339,0,0a.935.935,0,0,1-.91.91.876.876,0,0,1-.287-.054l-.069-.064a.327.327,0,0,0-.545.2.8.8,0,0,1-.875.713.828.828,0,0,1-.666-.273.3.3,0,0,0-.037-.029c-.84-1.828-.97-3.542-.22-4.832a4.13,4.13,0,0,1,.362-.607.321.321,0,0,0,.148-.172,1.115,1.115,0,0,1,.419-.274,2.216,2.216,0,0,1,.949-.136,2.65,2.65,0,0,1,2.489,1.568.355.355,0,0,0,.037.067l.287.394a3.083,3.083,0,0,0,.294.437,3.279,3.279,0,0,1,.14.721.943.943,0,0,1-.921.962l-.155-.029a.628.628,0,0,0-.236-.006l-.041.014a.335.335,0,0,0-.2.2.325.325,0,0,0-.018.107.354.354,0,0,0,.049.18M23.816,35.792a1.8,1.8,0,0,0,.493.521,1.623,1.623,0,0,0,.923.274,1.509,1.509,0,0,0,.562-.11,1.781,1.781,0,0,0,1.594,1.036,1.843,1.843,0,0,0,1.334-.557,1.753,1.753,0,0,0,2.766.587.9.9,0,0,0,.218.353.914.914,0,0,0,.541.249l.018.2.04.371a2.125,2.125,0,0,0,.409,1.019c.112.171.17.26.17.329a.181.181,0,0,1-.073.122c-.041-.052-.085-.11-.109-.145l-.218-.225c-.081-.084-.16-.051-.272-.024s-.165.176-.2.286l-.065.2-.1.352c0,.027,0,.054,0,.081a1.028,1.028,0,0,0,.367.8,1.448,1.448,0,0,0,.557.281A.9.9,0,0,0,33,42.3a.871.871,0,0,0,.645.277.922.922,0,0,0,.68-.342l.058-.079a.891.891,0,0,0,.266.077c.031,0,.058,0,.086.006a5.963,5.963,0,0,0,.758,3.266c.066.133.128.254.19.371a.986.986,0,0,1-.315.066,1.378,1.378,0,0,1-.928-.789.149.149,0,0,0-.019-.032l-.284-.39a3.257,3.257,0,0,0-2.562-1.884,21.134,21.134,0,0,1-.346-4.231,1.428,1.428,0,0,0,.042-.142.327.327,0,0,0-.641-.133.929.929,0,0,1-.894.751.919.919,0,0,1-.829-.549.327.327,0,0,0-.625.135,1.014,1.014,0,0,1-1.064,1.007c-.452,0-.8-.5-.934-.962a.327.327,0,0,0-.635.022,1.078,1.078,0,0,1-1.012.914,1.028,1.028,0,0,1-.856-.54,2.178,2.178,0,0,1-.3-.892.2.2,0,0,0-.007-.019,20.491,20.491,0,0,1,.343-2.416m.894-2.947a1.815,1.815,0,0,0,.556.763,1.7,1.7,0,0,0,1.08.373,1.748,1.748,0,0,0,.506-.081,1.486,1.486,0,0,0,1.479,1.056,1.668,1.668,0,0,0,.967-.321A1.682,1.682,0,0,0,30.852,35.8a1.706,1.706,0,0,0,1.441-.8.327.327,0,1,0-.551-.352,1.06,1.06,0,0,1-.89.5,1.106,1.106,0,0,1-1.02-1.174.327.327,0,0,0-.6-.175,1.06,1.06,0,0,1-.9.5.886.886,0,0,1-.941-.879.327.327,0,0,0-.489-.245,1.111,1.111,0,0,1-.555.15A1.057,1.057,0,0,1,25.553,33a1.437,1.437,0,0,1-.351-.889s.016-.29.017-.319A5.63,5.63,0,0,1,28.3,28.9l.037-.012.183-.025a2.7,2.7,0,0,1,2.931,1.879,3.206,3.206,0,0,1,.19.619s.025.173.025.173a3.615,3.615,0,0,0,.518,1.556,5.6,5.6,0,0,0,.606.819.343.343,0,0,0-.131.128,1.567,1.567,0,0,0-.2.527,1.262,1.262,0,0,0,.15.647,1.462,1.462,0,0,0-.068.416,1.592,1.592,0,0,0,.013.2,2.953,2.953,0,0,1,.03.387.667.667,0,0,1-.087.414c-.014.017-.054.053-.174.067a.459.459,0,0,1-.112-.134.329.329,0,0,0-.274-.149.358.358,0,0,0-.29.144.327.327,0,0,0-.329.164,1.144,1.144,0,0,1-1,.605,1.176,1.176,0,0,1-1.149-1.2.327.327,0,0,0-.645-.077,1.1,1.1,0,0,1-1.136.8,1.159,1.159,0,0,1-1.114-.9.327.327,0,0,0-.5-.2.864.864,0,0,1-.543.171.932.932,0,0,1-.727-.308,2.034,2.034,0,0,1-.427-.894c0-.008-.006-.012-.008-.018a14.636,14.636,0,0,1,.64-1.869m6.38-6.465a8.193,8.193,0,0,1,1.642-1.251.332.332,0,0,0,.094-.033.9.9,0,0,1,.388-.121.856.856,0,0,1,.147,0,.89.89,0,0,1,.5.215.966.966,0,0,1,.329.67.824.824,0,0,1-.18.531.327.327,0,0,0,.456.449.8.8,0,0,1,.388-.131.812.812,0,0,1,.593.2.889.889,0,0,1,.3.612,1.86,1.86,0,0,1-.144.456.33.33,0,0,0,.072.372.323.323,0,0,0,.37.054l.087-.044a1.591,1.591,0,0,1,.414-.17.825.825,0,0,1,.647.193.669.669,0,0,1,.2.527.971.971,0,0,1-.376.78l-.106.012a2.441,2.441,0,0,0-1.441.8l0-.031a1.017,1.017,0,0,0-.18-.566.47.47,0,0,0-.03-.051c0,.006,0,.011.008.015-.39-.761-1.662-.984-2.2-1.043l-.658.01-.338.01a.676.676,0,0,0-.086.008,1.892,1.892,0,0,1-1.149-.106,1.269,1.269,0,0,1-.492-.718,1.031,1.031,0,0,1-.02-.2,2.236,2.236,0,0,1,.764-1.445M33.5,23.31a.529.529,0,0,1,.3-.422,10.778,10.778,0,0,1,4.345-.57,24.868,24.868,0,0,0-3.284,1.052l-.039.008c.006,0,.013,0,.019,0q-.572.231-1.093.479a.473.473,0,0,1-.249-.476c0-.026,0-.05,0-.07m4.386,1.726a.351.351,0,0,0,.323.207h.34a.592.592,0,0,1,.449.729c-.008.077-.1.174-.189.268l-.074.079a.313.313,0,0,0-.03.362.356.356,0,0,0,.348.175l.263-.025a.474.474,0,0,1,.43.575s-.018.041-.04.1c-.239.09-.467.183-.68.28a.116.116,0,0,1,0-.02,1.233,1.233,0,0,0-.421-.854,1.179,1.179,0,0,0-.668-.273.669.669,0,0,0,.032-.14c0-.018,0-.035,0-.053a1.37,1.37,0,0,0-.444-.952,1.14,1.14,0,0,0-.7-.268,1.593,1.593,0,0,0,.057-.359c0-.036,0-.073,0-.11a1.574,1.574,0,0,0-.442-.99,1.281,1.281,0,0,0-.1-.1,1.164,1.164,0,0,0-.133-.1q.564-.191,1.173-.365h.006a.912.912,0,0,1,.591.2.729.729,0,0,1,.085.076.782.782,0,0,1,.185.622.948.948,0,0,1-.145.4.312.312,0,0,0-.12.152c-.01.01-.017.02-.027.03a.321.321,0,0,0-.067.359m1.17-2.261q.672-.147,1.333-.257h.01a.305.305,0,0,0,.174-.03c2.964-.47,5.68-.375,7.25.278a.528.528,0,0,1,.293.42c0,.014,0,.027,0,.039a.545.545,0,0,1-.491.554h-.083l-.29-.04a18.8,18.8,0,0,0-2.414-.186,24.563,24.563,0,0,0-2.547.1,22.645,22.645,0,0,0-3.418.619c.005-.031.017-.062.021-.094a1.828,1.828,0,0,0,.011-.185,1.424,1.424,0,0,0-.189-.71,1.3,1.3,0,0,0-.168-.239,1.631,1.631,0,0,0-.133-.119q.315-.077.64-.149m8.513,1.787.092.043c-.027.014-.054.023-.081.037,0-.027-.006-.054-.012-.081m.734,9.363-.047-.095-.008-.167a1.981,1.981,0,0,0-.116-.7l-.081-.193c-.26-.641-.477-1.155-1.126-1.37-.005-.016-.011-.033-.017-.049-.052-.214-.117-.483-.13-.537.008-.071.017-.175.017-.175.011-.157.016-.187.065-.247a.344.344,0,0,0,.047-.079c.138-.325.843-.617,1.713-.712l.56.015.368.01a2.479,2.479,0,0,0,.895.014,4.072,4.072,0,0,0-.423.8,3.852,3.852,0,0,0-.225.742c0,.01-.028.2-.028.2a3.012,3.012,0,0,1-.442,1.33A7.77,7.77,0,0,1,48.3,33.925m.257,1a.64.64,0,0,0,.147-.018.651.651,0,0,1-.056.113h0v0a.629.629,0,0,1-.1.109A1.041,1.041,0,0,0,48.558,35a.466.466,0,0,0,.006-.057c0-.006,0-.013,0-.019m.225,2.146-.008-.014a2.573,2.573,0,0,1-.156-.266c-.035-.068-.066-.14-.1-.212-.012-.029-.025-.056-.037-.085-.083-.2-.155-.415-.221-.621l.049,0a.528.528,0,0,0,.13-.011.914.914,0,0,0,.235-.055,3.632,3.632,0,0,0-.032.445,1.262,1.262,0,0,0,.234.826.888.888,0,0,0,.658.311.536.536,0,0,0,.212-.036c-.013.032-.01.086-.031.107a.369.369,0,0,1-.283.069l-.044-.008a.937.937,0,0,1-.608-.446m.2,1.045a.254.254,0,0,0-.2.037l-.076.056a.088.088,0,0,1-.034-.077,1.185,1.185,0,0,1,.033-.21,1.418,1.418,0,0,0,.279.155c0,.011,0,.022,0,.038m-.436,2.845a2.691,2.691,0,0,0,.038-.319,1.67,1.67,0,0,0,.206.185l.354.093a.535.535,0,0,0,.2-.081c-.089.31-.536.39-.541.39a.365.365,0,0,0-.327.331c-.006.223-.049.29-.067.309a.234.234,0,0,1-.161.078.2.2,0,0,1-.094-.032,2.374,2.374,0,0,0,.391-.955m.008-1.449c-.027.044-.054.088-.08.137-.011-.042-.022-.083-.033-.124l.014,0a.877.877,0,0,0,.1-.01m-.864-1.466a.311.311,0,0,0-.1-.226.3.3,0,0,0-.227-.08l-.177.016a1.075,1.075,0,0,1-.5-.018l-.029-.016a.417.417,0,0,1-.073-.23.589.589,0,0,0,.242-.056.624.624,0,0,0,.317-.52c0-.036.005-.071.005-.1A.57.57,0,0,0,47,36.4a1.011,1.011,0,0,0,.2.02,1.242,1.242,0,0,0,.517-.12,5.129,5.129,0,0,0,.458,1.018l-.022.109c-.011.053-.022.105-.029.137l-.008.035a2.452,2.452,0,0,0-.084.543.708.708,0,0,0,.339.642.727.727,0,0,0,.206.064.618.618,0,0,1-.452-.044c-.029-.012-.058-.025-.058-.025-.23-.121-.341-.339-.369-.729m-.663-5.824a2.743,2.743,0,0,1,.417.791s.073.18.077.191H47.5a.256.256,0,0,0-.251.161l-.058.147c0,.014-.014.04-.022.064a4.891,4.891,0,0,1-.138-1.274s0-.056,0-.081M46.643,34a.326.326,0,0,0,.021.034.7.7,0,0,0,.223.221l.034.018a.579.579,0,0,0,.321.069.482.482,0,0,0,.286-.135.836.836,0,0,0,.119-.141.2.2,0,0,0,.015.02l.113.216.047.163c.005.017.008.031.014.048.019.072.035.135.048.194l.01.052a1.171,1.171,0,0,1,.017.166s0,.011,0,.015a1,1,0,0,1-.019.145c-.006.032-.005.062-.015.1a.02.02,0,0,0,0,.007s0,0,0,0l-.088.2s-.125.161-.126.162a.827.827,0,0,1-.225.154.761.761,0,0,1-.121.041.522.522,0,0,1-.12.014c-.114,0-.243-.037-.378-.321a.1.1,0,0,1,0-.021c.019-.131.041-.286.041-.286a2.624,2.624,0,0,0-.025-.355c0-.021-.006-.044-.009-.064a1.932,1.932,0,0,0-.068-.3.015.015,0,0,0,0-.01,1.73,1.73,0,0,0-.226-.47c.012-.033.025-.064.034-.089a1.171,1.171,0,0,0,.077.153m-12.757,4.7-.062.041a.669.669,0,0,1-.514.07.753.753,0,0,0,.209-.065.71.71,0,0,0,.34-.642,2.412,2.412,0,0,0-.085-.544l-.049-.232-.01-.049a5.081,5.081,0,0,0,.469-1.052.946.946,0,0,0,.505.154,1.071,1.071,0,0,0,.2-.02.569.569,0,0,0-.159.416.964.964,0,0,0,.006.1.62.62,0,0,0,.317.52.582.582,0,0,0,.242.056.507.507,0,0,1-.055.2l-.02.027c-.1.083-.383.049-.521.033l-.181-.015a.294.294,0,0,0-.226.078.32.32,0,0,0-.1.226.825.825,0,0,1-.306.689m-.555.785a1.239,1.239,0,0,0,.26,0,4.184,4.184,0,0,0-.089.429,1.288,1.288,0,0,0-.171-.428m-.24,1.308a1.164,1.164,0,0,0,.383-.46,2.651,2.651,0,0,0,.046.456v0a2.434,2.434,0,0,0,.369.922l-.054.075a.319.319,0,0,1-.2.123.236.236,0,0,1-.161-.079c-.018-.019-.061-.086-.066-.308a.366.366,0,0,0-.327-.332c-.006,0-.433-.079-.534-.384a.523.523,0,0,0,.193.074Zm.084-2.906a1.321,1.321,0,0,1,.032.211.086.086,0,0,1-.034.076l-.074-.055a.255.255,0,0,0-.2-.037.388.388,0,0,0,0-.041,1.427,1.427,0,0,0,.28-.155m.064-1.674a3.437,3.437,0,0,0-.033-.445.909.909,0,0,0,.235.055.541.541,0,0,0,.131.012l.033,0h.015c-.066.206-.138.419-.221.622-.011.025-.022.049-.033.074-.033.074-.065.15-.1.221a2.555,2.555,0,0,1-.155.265.067.067,0,0,0-.008.015.938.938,0,0,1-.608.445l-.048.008a.359.359,0,0,1-.28-.069c-.02-.02-.018-.075-.032-.107a.565.565,0,0,0,.213.036A.885.885,0,0,0,33,37.048a1.263,1.263,0,0,0,.234-.826m.214-1.06a.481.481,0,0,1-.218-.168c-.025-.035-.021-.073-.039-.11a.553.553,0,0,0,.182.006,1.807,1.807,0,0,0,.075.272m1.2-3.655a2.341,2.341,0,0,0-.818,1.233l-.08.194a1.951,1.951,0,0,0-.116.7l-.005.1c-.018.023-.034.045-.05.068a6.188,6.188,0,0,1-.824-1.032,3,3,0,0,1-.442-1.329l-.027-.187a3.808,3.808,0,0,0-.226-.751,4.138,4.138,0,0,0-.539-.965,2.4,2.4,0,0,0,.543-.044l.367-.01L33,29.475c.868.095,1.572.387,1.71.712a.336.336,0,0,0,.047.077c.049.06.054.091.065.248,0,0,.01.106.017.178-.015.067-.126.552-.187.816m.2.707c0,.039,0,.064,0,.064a4.9,4.9,0,0,1-.138,1.273l-.033-.081a.258.258,0,0,0-.253-.162.485.485,0,0,0-.1.011.709.709,0,0,1,.03-.133l.082-.2a2.746,2.746,0,0,1,.417-.791c0,.007,0,.01,0,.017m1.31,2.1a.882.882,0,0,1-.015.154.26.26,0,0,0-.024-.1.255.255,0,0,1,.039-.051Zm1.779-3.944a2.564,2.564,0,0,0-.212.554,1.206,1.206,0,0,0-.036.175l-.017.133c0,.032-.026.216-.026.216a3.177,3.177,0,0,1-.246,1.116c-.121-.032-.176-.064-.176-.19a1.1,1.1,0,0,1,.022-.19l-.03-.336c-.01-.1-.065-.112-.151-.168s-.191.014-.287.047l-.032.012a1.589,1.589,0,0,0-.235.105c-.023.013-.043.027-.065.04a1.323,1.323,0,0,0-.138.1c-.02.016-.041.034-.06.052a1.389,1.389,0,0,0-.113.124l-.04.05a1.2,1.2,0,0,0-.114.2c-.005.013-.01.027-.014.041a1.335,1.335,0,0,0-.06.193c-.006.027-.012.055-.016.084a1.576,1.576,0,0,0-.022.185c0,.031-.006.062-.006.094s0,.035,0,.054c0,.05.006.1.01.155,0,.034,0,.067.005.1a3.24,3.24,0,0,0,.051.336c0,.015.01.027.013.042a.706.706,0,0,0-.309.227s0,.006,0,.006a1.226,1.226,0,0,0-.11.169c-.008.015-.016.029-.023.044a1.938,1.938,0,0,0-.1.229l-.124.428c-.177.662-.3.941-.588.941-.154,0-.29-.152-.376-.278l-.043-.069-.161-.338-.039-.1c0-.01-.005-.017-.008-.026s-.015-.044-.021-.066,0-.016-.006-.023a.483.483,0,0,1-.015-.065s0-.005,0-.008a.446.446,0,0,1-.005-.072v-.019c0-.022,0-.045,0-.069s0-.018,0-.027.005-.036.007-.053a.307.307,0,0,0,.02-.116l.022-.123a.378.378,0,0,1,.112-.175h0a.5.5,0,0,1,.049-.037.525.525,0,0,0,.581.242c.622-.135.676-1.057.693-1.86,0-.054,0-.107,0-.159l.01-.384.035-.2a1.822,1.822,0,0,1,1.457-1.349h.02a.322.322,0,0,0,.226-.019,3.778,3.778,0,0,1,.687.034m2.248-2.348c.13-.046.267-.089.405-.133.292.087.576.179.846.278a.312.312,0,0,0,.32.123,9.461,9.461,0,0,1,1.222.575l.025.014a5.2,5.2,0,0,1,.662.442c.006.037.015.075.024.114a1.674,1.674,0,0,0-1.9-.218.446.446,0,0,0-.05.008,1.974,1.974,0,0,0-.585.331.985.985,0,0,0-.413-.464,1.872,1.872,0,0,0-2.424.688,2.9,2.9,0,0,0-.466-.082,1.49,1.49,0,0,0,.187-.589,4.537,4.537,0,0,1,.492-.336.329.329,0,0,0,.181-.1c0-.005.007-.012.012-.017a9.038,9.038,0,0,1,1.093-.5.315.315,0,0,0,.366-.137m2.569-.669a1.235,1.235,0,0,0-.166.537c0,.014,0,.028,0,.042-.212-.1-.437-.192-.671-.282l-.046-.111c.1-.025.2-.05.307-.073.193-.042.385-.077.579-.112m2.472-.887-.2.013a14.81,14.81,0,0,0-3,.348c-.524.114-1.019.245-1.483.387a.333.333,0,0,0-.157.041,1.083,1.083,0,0,0-.359-.76,23.5,23.5,0,0,1,2.924-.559,17.673,17.673,0,0,1,2.249-.127.326.326,0,0,0,.139.091.246.246,0,0,1,.165.25.277.277,0,0,1,0,.034c0,.079-.031.224-.289.283m-3.729,6.6c.044.01.089.018.134.024a1.058,1.058,0,0,0,.149.329l.014.018a.7.7,0,0,0,.107.116c.013.011.025.023.038.032a.63.63,0,0,0,.178.094.327.327,0,0,0,.353-.1.452.452,0,0,1,.222-.162.479.479,0,0,1,.061-.008c.013,0,.027-.005.04-.005a.519.519,0,0,1,.093.013.14.14,0,0,1,.114.088l.033.107.021.249c0,.188-.371.437-.651.437a.957.957,0,0,1-.915-1.07l.008-.161m-.644-1.533.006-.049c.011-.079.031-.232.037-.289a1.105,1.105,0,0,0,.207-.284c0,.038,0,.079.007.123,0,.013,0,.025,0,.039,0,.041.008.082.013.123,0,.015,0,.027,0,.041a2.686,2.686,0,0,0,.061.326c0,.014.007.027.012.041.011.037.023.073.037.107,0,.013.01.026.015.039a.706.706,0,0,0,.064.116.327.327,0,0,0,.557-.046.647.647,0,0,1,.1-.167.74.74,0,0,1,.231.054c.034.015.132.068.132.068a.194.194,0,0,1,.064.085l.006.016a.451.451,0,0,1,.014.068.252.252,0,0,1,0,.04.7.7,0,0,1-.006.137c-.012.088-.046.352-.51.338a1.4,1.4,0,0,1-.57-.137.818.818,0,0,1-.435-.485Zm-1.333,1.786a3.644,3.644,0,0,0,.114-.57c.034-.029.069-.064.1-.064.24,0,.343.071.362.1l-.012-.026a.353.353,0,0,0,.247.206.327.327,0,0,0,.3-.079.609.609,0,0,0,.105-.188,1.369,1.369,0,0,0,.126.1c0,.065-.008.124-.011.178l0,.035c0,.054-.005.1-.008.139a.843.843,0,0,1-.421.474.879.879,0,0,1-.367.075.624.624,0,0,1-.531-.377m-.3.7a1.289,1.289,0,0,0,.321.214.136.136,0,0,1-.048.013.664.664,0,0,1-.327-.149c.018-.025.036-.051.054-.078m1.044-2.091c-.014.067-.027.134-.043.2a1.336,1.336,0,0,0-.4-.082.94.94,0,0,1,.392-.416ZM36.706,33.8a.647.647,0,0,1-.132-.278,2.4,2.4,0,0,1-.052-.46.826.826,0,0,1,.105-.436.818.818,0,0,0,.628.572.621.621,0,0,0,.518-.089c.377-.261.451-.906.53-1.589l.021-.183c0-.03.019-.156.019-.156a1.972,1.972,0,0,1,.278-.691c.086-.141.868-1.365,1.8-.832.157.089.222.285.194.579l-.033.211v0a.512.512,0,0,1-.187.317c-.014.014-.286.164-.286.164a1.76,1.76,0,0,0-1.1,1.6h0L39,32.615c0,.016,0,.028,0,.028a2.922,2.922,0,0,1-.124.6,1.53,1.53,0,0,1-.375.638,1.25,1.25,0,0,1-.956.325,1.264,1.264,0,0,1-.833-.408m.014,1.218a.086.086,0,0,1-.014-.041.478.478,0,0,1,.013-.095,2.153,2.153,0,0,0,.056-.223,2.023,2.023,0,0,0,.344.133.332.332,0,0,0-.135.07.763.763,0,0,1-.265.155m-.529.37a.626.626,0,0,0,.216.223.6.6,0,0,0,.456.042.69.69,0,0,1-.149.2.454.454,0,0,1-.472.058l-.071-.043a2.632,2.632,0,0,0,.024-.357c0-.038,0-.081-.005-.121m8.559-2.143a.623.623,0,0,0,.518.088.816.816,0,0,0,.628-.571A.825.825,0,0,1,46,33.2a2.385,2.385,0,0,1-.052.461l-.072.178,0,.005a1.044,1.044,0,0,1-.564.428l-.328.073a1.232,1.232,0,0,1-1.312-.913s.011.04.013.045l-.052-.157-.012-.038a.044.044,0,0,0,0-.013l-.09-.489c-.01-.091-.022-.18-.036-.262a1.748,1.748,0,0,0-.743-1.266s-.15-.081-.228-.126c-.008,0-.011-.01-.018-.014l-.091-.045c-.265-.128-.41-.2-.475-.484a1.532,1.532,0,0,1-.029-.161c0-.02,0-.039,0-.06s-.005-.063-.006-.091c0-.01,0-.018,0-.027a.825.825,0,0,1,.025-.193c.022-.039.106-.183.133-.227l.04-.029a1.24,1.24,0,0,1,1.547.479,2.285,2.285,0,0,1,.535,1.044l.041.339c.079.684.153,1.328.529,1.59m1.019-1.375-.032-.01c-.1-.034-.2-.1-.287-.047s-.14.066-.15.167l-.03.335a1.128,1.128,0,0,1,.021.187c0,.126-.054.162-.176.193a3.215,3.215,0,0,1-.246-1.114l-.042-.351a1.439,1.439,0,0,0-.04-.2.035.035,0,0,1,0-.012,2.745,2.745,0,0,0-.27-.641h.243l.155,0a1.648,1.648,0,0,1,1.375,1.178l.055.223s0,.006,0,.011l.02.138s.008.27.01.355a1.3,1.3,0,0,0-.608-.417m-.723,3.121.129-.029a.3.3,0,0,1,0,.042.075.075,0,0,1-.014.04.5.5,0,0,1-.12-.053m.434.647a.714.714,0,0,0,.357-.643.85.85,0,0,0-.037-.228,1.675,1.675,0,0,0,.317-.216,1.412,1.412,0,0,1,.066.251c0,.01,0,.02,0,.03.006.041.012.082.015.126s.008.115.008.176l-.038.268s0,0,0,.006a.742.742,0,0,1-.283.379l-.241.147a.455.455,0,0,1-.472-.057.743.743,0,0,1-.15-.2.6.6,0,0,0,.458-.042m-.259-7.951c-.025-.006-.052-.019-.077-.022a1.3,1.3,0,0,0-1,.285,1.375,1.375,0,0,0-.4.612c-.12-.081-.249-.159-.384-.238a.593.593,0,0,1,.083-.8.524.524,0,0,1,.386-.131l.254.076a.359.359,0,0,0,.377-.1.368.368,0,0,0,.076-.22c.174-.009.349-.018.523-.019l.246-.015.026,0a1.566,1.566,0,0,0-.122.495c0,.013,0,.026,0,.04s.007.03.008.044m.905-1.836.247.025.208.006a1.051,1.051,0,0,0,.207-.037c0,.033-.015.065-.017.1s0,.062,0,.091a1.029,1.029,0,0,0,.029.147,1.462,1.462,0,0,0-.627.1.97.97,0,0,0,0-.183,1.039,1.039,0,0,0-.047-.249M39.2,24.865a20.8,20.8,0,0,1,7.4-.55.25.25,0,0,0,.041.024.455.455,0,0,1,.294.4.449.449,0,0,1-.4.489l-.083,0-.687-.072a19.023,19.023,0,0,0-2.879.126,23.794,23.794,0,0,0-3.229.639c0-.022,0-.043,0-.065a1.233,1.233,0,0,0-.458-.99m-2.8,2.615a1.534,1.534,0,0,0-.523-1.062,1.468,1.468,0,0,0-1.06-.36,1.063,1.063,0,0,0,.029-.147c0-.03,0-.06,0-.093a1.613,1.613,0,0,0-.553-1.118,1.522,1.522,0,0,0-.143-.1,1.611,1.611,0,0,0-.164-.1.306.306,0,0,0,.11-.089c.305-.143.627-.285.966-.421-.005,0-.008.006-.014.006l.233-.051a.838.838,0,0,1,.379.064.861.861,0,0,1,.248.147.93.93,0,0,1,.316.645.949.949,0,0,1-.18.626.323.323,0,0,0,0,.366.351.351,0,0,0,.357.14l.333-.069a.5.5,0,0,1,.352.123.718.718,0,0,1,.22.5.662.662,0,0,1-.137.3l-.058.093a.315.315,0,0,0,.039.362.357.357,0,0,0,.377.1l.253-.077a.533.533,0,0,1,.388.132.581.581,0,0,1,.2.4.6.6,0,0,1-.087.352c-.114.066-.225.133-.328.2a1.283,1.283,0,0,0-.309-.451,1.482,1.482,0,0,0-1.166-.368c-.029,0-.055.018-.084.024,0-.015.01-.032.01-.045s0-.028,0-.039M34.757,41.3a.628.628,0,0,0,.269.156.254.254,0,0,1-.037.079.3.3,0,0,1-.259.05.355.355,0,0,1-.2-.112,1.528,1.528,0,0,1-.365-.793,2.008,2.008,0,0,1-.035-.371A3.2,3.2,0,0,1,34.3,39.4l.063-.234a1.366,1.366,0,0,0,.43-.751c0-.007,0-.015.006-.022s.03,0,.043,0l.06,0h.112l.071,0a.425.425,0,0,0,.055-.005c.019,0,.039,0,.058-.006s.066-.012.1-.019a.056.056,0,0,1,.016,0c.008.09.023.193.023.268a1.083,1.083,0,0,1-.325.828l-.346.494a1.862,1.862,0,0,0-.156.7.852.852,0,0,0,.251.642m7.327,10.611c-.3.19-.667.388-1.073.59a12.418,12.418,0,0,1-1.149-.639,5.849,5.849,0,0,1-.581-.418l.031,0-.013,0a.3.3,0,0,0,.075-.01,1.675,1.675,0,0,0,1.58-1.688,1.608,1.608,0,0,0-.129-.541c.127.016.26.029.408.033a3.577,3.577,0,0,0,.419-.012,1.559,1.559,0,0,0-.093.479,1.689,1.689,0,0,0,1.278,1.649,6.681,6.681,0,0,1-.752.558m-4.657.324a1.274,1.274,0,0,0,.771-.846l.063.051a9.952,9.952,0,0,0,1.255.979c.268.165.508.3.749.435q-.584.265-1.263.537l-.708-.416a4.66,4.66,0,0,1-.778-.659Zm.524,1.3.276.164c-.4.153-.823.307-1.266.462a.249.249,0,0,0-.033.01c-.306-.2-.607-.4-.9-.6a1.356,1.356,0,0,0,.769-1.015l.264.237a5.121,5.121,0,0,0,.892.747m6.936-.7.263-.237a1.349,1.349,0,0,0,.8,1.022l-.89.576-.3.185a21.668,21.668,0,0,1-9.513,3.038.565.565,0,0,1-.071-.87.307.307,0,0,0,.086-.073.579.579,0,0,1,.336-.114,18.235,18.235,0,0,0,8.4-2.779,5.209,5.209,0,0,0,.892-.748m-.458-.468a4.663,4.663,0,0,1-.778.659A17.325,17.325,0,0,1,36.9,55.538a.361.361,0,0,1,.013-.688l.014,0a.4.4,0,0,0,.07-.021l.16-.049a29.671,29.671,0,0,0,5.266-2.311,9.963,9.963,0,0,0,1.257-.977l.062-.053a1.274,1.274,0,0,0,.772.846Zm2.187-10.206a.838.838,0,0,0,.2.145,7.967,7.967,0,0,1-.968,3.11c-.08.133-.156.248-.23.357a.316.316,0,0,0-.064.091,5.463,5.463,0,0,1-.886.949,6.3,6.3,0,0,1-.923.7l-.51.341a3.05,3.05,0,0,1-1.78.734l.228-.041.309-.064a.136.136,0,0,0,.11-.147.109.109,0,0,0-.129-.1l-.358.073-.256.049-.213-.047-.415-.075c-.067-.012-.108.034-.121.1a.143.143,0,0,0,.121.144l.344.065.2.044a.154.154,0,0,0-.023,0,3.022,3.022,0,0,1-.937-.162l-.005,0a5.073,5.073,0,0,1-.739-.357l-.7-.362-.471-.2a3.637,3.637,0,0,1-1.2-.728,4.157,4.157,0,0,1-1.117-1.557,5.348,5.348,0,0,1-.675-3.172c.018-.016.036-.032.051-.047a1.258,1.258,0,0,0,.274-.975.33.33,0,0,0-.216-.237.359.359,0,0,0-.308.039.232.232,0,0,1-.046-.162,1.169,1.169,0,0,1,.095-.42s.255-.355.255-.355a1.9,1.9,0,0,0,.431-1.82s-.037-.1-.071-.193a1.8,1.8,0,0,0,.07-.849.33.33,0,0,0-.478-.236.44.44,0,0,1-.075.023h0l.056-.022a1.039,1.039,0,0,0,.481-.3l.018.011a1.1,1.1,0,0,0,1.219-.16,1.16,1.16,0,0,0,.33-1.377.329.329,0,0,0-.091-.1c.035,0,.07.01.1.012a2,2,0,0,0,1.188-.306,1.323,1.323,0,0,0,.811.333,1.451,1.451,0,0,0,1.3-.743A1.478,1.478,0,0,0,41.01,34a1.461,1.461,0,0,0,2.49.413,1.793,1.793,0,0,0,.925.531c-.009.012-.022.019-.029.033a1.16,1.16,0,0,0,.33,1.379,1.1,1.1,0,0,0,1.218.16l.017-.012a1.043,1.043,0,0,0,.482.305l.058.023h0a.367.367,0,0,1-.077-.023.329.329,0,0,0-.477.235,1.461,1.461,0,0,0,.216,1.09l-.032.091a3.913,3.913,0,0,0-.046.561,1.689,1.689,0,0,0,.477,1.259l.262.368a1.161,1.161,0,0,1,.087.4.238.238,0,0,1-.046.165.362.362,0,0,0-.308-.039.325.325,0,0,0-.215.237,1.252,1.252,0,0,0,.272.975m.8-2.021c-.006-.015-.352-.509-.352-.509a1.082,1.082,0,0,1-.325-.829,3.4,3.4,0,0,1,.032-.374,2.127,2.127,0,0,0,.32,0,1.312,1.312,0,0,0,.623.908c.03.11.063.235.063.235.025.089.05.177.072.264.006.027.013.054.02.082.016.07.029.14.041.211,0,.025.01.051.013.077a1.927,1.927,0,0,1,.019.287c0,.01,0,.019,0,.027a1.989,1.989,0,0,1-.033.329,1.749,1.749,0,0,1-.274.69.7.7,0,0,1-.127.138.327.327,0,0,1-.164.076.309.309,0,0,1-.259-.049.254.254,0,0,1-.037-.078.653.653,0,0,0,.27-.156.857.857,0,0,0,.249-.644,1.843,1.843,0,0,0-.15-.683M48.4,25.1a.88.88,0,0,1,.386.12.289.289,0,0,0,.05.018c1.543.921,2.452,1.91,2.452,2.711a.985.985,0,0,1-.02.2,1.282,1.282,0,0,1-.491.719,1.911,1.911,0,0,1-1.151.106.541.541,0,0,0-.085-.01l-.34-.01-.655-.01c-.545.059-1.816.282-2.205,1.044,0-.005,0-.01.006-.015a.314.314,0,0,0-.033.056.872.872,0,0,0-.117.227,1.974,1.974,0,0,0-1.271-.531l-.152-.006-.282,0a1.764,1.764,0,0,1-.194-.662.862.862,0,0,1,.267-.614.653.653,0,0,1,.5-.135,1.7,1.7,0,0,1,.411.171l.085.044a.323.323,0,0,0,.37-.055.332.332,0,0,0,.073-.372,1.733,1.733,0,0,1-.145-.458.879.879,0,0,1,.3-.61.809.809,0,0,1,.983-.068.328.328,0,0,0,.457-.45.817.817,0,0,1-.181-.531.968.968,0,0,1,.329-.669.885.885,0,0,1,.651-.22m5.505,3.09a.3.3,0,0,0-.047-.01l-.216-.029a2.635,2.635,0,0,0-.63-.05,2.908,2.908,0,0,0-1.134.28c.01-.033.023-.065.031-.1a2.011,2.011,0,0,0-.305-1.436A8.009,8.009,0,0,0,48.3,24.192a1.223,1.223,0,0,0,.472-.966c0-.027,0-.055,0-.083a1.218,1.218,0,0,0-.392-.807.326.326,0,0,0-.123-.107l-.027-.01h.006L48.19,22.2a1.093,1.093,0,0,0-.4-.153s-.029-.012-.029-.012l.006.006c-.017,0-.033-.011-.051-.013a16.293,16.293,0,0,0-7.339-.175,14.623,14.623,0,0,0-6.493.3c-.01,0-.02.006-.031.008s0,0,.006-.006-.025.01-.029.012a1.115,1.115,0,0,0-.4.153l-.044.017h.006l-.027.01a.316.316,0,0,0-.121.107,1.209,1.209,0,0,0-.393.807c0,.037,0,.074,0,.111a1.236,1.236,0,0,0,.264.8c-1.935,1.025-3.189,2.211-3.4,3.321a1.679,1.679,0,0,0,0,.66c.008.04.026.079.037.118a2.823,2.823,0,0,0-.741-.11,2.728,2.728,0,0,0-.586.054l-.192.024a.292.292,0,0,0-.046.01,6.242,6.242,0,0,0-3.525,3.253.263.263,0,0,0-.066.126,19.251,19.251,0,0,0-1.814,9.719,20.109,20.109,0,0,0,2.145,8.324,12.636,12.636,0,0,0,.728,1.242c0-.005,1.33,2.063,1.33,2.063a11.611,11.611,0,0,0,1.67,1.9l-.044-.046.31.3.193.157c.013.011.041.032.053.04l.444.265a2.089,2.089,0,0,0,1.245.305,1.428,1.428,0,0,0,.223-.018,1.85,1.85,0,0,0,1.333-.984l.031-.062c.039-.079.069-.141.095-.2a22.6,22.6,0,0,0,2.006,1.663,1.214,1.214,0,0,0-.183.628,1.242,1.242,0,0,0,.1.492c-.137,0-.274,0-.4-.01h0a1.792,1.792,0,0,0-.373.042,1.475,1.475,0,0,0-.813,2.515,1.553,1.553,0,0,0,.718.413c.021.013.035.036.06.043a6.732,6.732,0,0,0,.747.176,13.548,13.548,0,0,0,6.658-.858.237.237,0,0,0,.041.025,12.25,12.25,0,0,0,7.158.623c.018-.006.039-.009.057-.015a.094.094,0,0,0,.038-.024L48.5,60.3a1.479,1.479,0,0,0,.157-.064,1.479,1.479,0,0,0-.232-2.777,1.7,1.7,0,0,0-.513-.085c-.131.008-.274.01-.42.011a1.241,1.241,0,0,0,.1-.492,1.383,1.383,0,0,0-.154-.552,22.429,22.429,0,0,0,1.967-1.64c.017.081.037.158.058.239l.046.185a.353.353,0,0,0,.031.081,1.807,1.807,0,0,0,1.175.906,2.529,2.529,0,0,0,1.609-.2l.46-.275c.014-.01.041-.03.053-.041l.209-.17.306-.3c-.006.006-.048.053-.054.058a11.536,11.536,0,0,0,1.665-1.9c0-.006,1.338-2.075,1.338-2.075a14.972,14.972,0,0,0,.8-1.335,20.3,20.3,0,0,0,2.208-8.591,19.264,19.264,0,0,0-1.81-9.711v-.006a.287.287,0,0,0-.12-.216,6.171,6.171,0,0,0-3.474-3.164" transform="translate(-13.709 -12.984)" fill="#00366a"></path><path id="Tracciato_149" data-name="Tracciato 149" d="M73.762,62.691l.17-.091.282-.144a1.925,1.925,0,0,1,.988-.143,1.591,1.591,0,0,1,.483.1l.3.09a.117.117,0,0,0,.147-.084.128.128,0,0,0-.088-.155l-.28-.084a1.787,1.787,0,0,0-.553-.117,2.149,2.149,0,0,0-1.1.163l-.3.155-.162.088a.123.123,0,0,0-.052.167.121.121,0,0,0,.164.051" transform="translate(-44.358 -37.412)" fill="#00366a"></path></g></g></svg> 