<svg xmlns="http://www.w3.org/2000/svg" xmlns:svg="http://www.w3.org/2000/svg" width="532.1426532450171" height="187.91953509119762" viewBox="0 0 396.36041 139.83899" version="1.1" id="svg1">
  <defs id="defs1"/>
  <g id="layer1" transform="translate(83.872916,-112.97708)">
    <g id="group-MC0" transform="matrix(0.26458333,0,0,0.26458333,-84.225694,112.62427)">
      <path id="path2" d="m 0,0 v -45.187 c 0,-20.724 -8.72,-30.804 -31.257,-30.804 -21.405,0 -30.918,10.08 -30.918,30.804 V 0 h 15.063 v -45.3 c 0,-12.345 4.076,-17.667 15.855,-17.667 12.004,0 16.194,5.322 16.194,17.667 V 0 Z" style="fill:#c1192c;fill-opacity:1;fill-rule:nonzero;stroke:none" transform="matrix(1.3333333,0,0,-1.3333333,790.1204,88.678667)"/>
      <path id="path3" d="M 0,0 -1.585,7.701 -33.862,50.51 V 0 h -15.062 v 74.632 h 14.496 L -1.585,30.465 V 74.632 H 13.477 V 0 Z" style="fill:#c1192c;fill-opacity:1;fill-rule:nonzero;stroke:none" transform="matrix(1.3333333,0,0,-1.3333333,872.5696,188.18787)"/>
      <path id="path4" d="m 683.195,331.881 h 15.062 v -74.632 h -15.062 z" style="fill:#c1192c;fill-opacity:1;fill-rule:nonzero;stroke:none" transform="matrix(1.3333333,0,0,-1.3333333,0,531.18667)"/>
      <path id="path5" d="M 0,0 H 16.082 L -4.417,-74.632 H -27.293 L -47.905,0 h 16.082 l 15.402,-60.815 h 1.472 z" style="fill:#c1192c;fill-opacity:1;fill-rule:nonzero;stroke:none" transform="matrix(1.3333333,0,0,-1.3333333,1008.7748,88.678667)"/>
      <path id="path6" d="M 0,0 V 74.632 H 46.999 V 61.948 H 15.063 V 43.715 H 38.052 V 31.257 H 15.063 V 12.797 H 47.339 V 0 Z" style="fill:#c1192c;fill-opacity:1;fill-rule:nonzero;stroke:none" transform="matrix(1.3333333,0,0,-1.3333333,1040.9401,188.18787)"/>
      <path id="path7" d="M 0,0 H -11.891 V -24.009 H 7.475 c 5.436,5.096 6.115,6.908 6.115,13.477 C 13.59,-2.831 7.701,0 0,0 M 3.624,-36.354 H -11.891 V -61.948 H -26.954 V 12.684 H 0.34 c 16.421,0 28.652,-6.455 28.652,-22.876 0,-11.212 -2.265,-14.95 -11.212,-22.424 L 31.257,-61.948 H 15.176 Z" style="fill:#c1192c;fill-opacity:1;fill-rule:nonzero;stroke:none" transform="matrix(1.3333333,0,0,-1.3333333,1154.3444,105.59013)"/>
      <path id="path8" d="m 0,0 c -8.268,0 -19.479,1.699 -28.2,3.284 l 2.039,13.251 c 8.154,-1.586 21.291,-3.397 26.388,-3.397 8.04,0 12.344,2.717 12.344,7.361 0,5.322 -2.945,6.682 -18.573,11.438 -16.195,4.87 -22.538,11.098 -22.538,22.31 0,14.949 9.967,22.764 26.048,22.764 7.701,0 19.932,-1.698 28.426,-3.398 l -1.925,-13.25 c -7.361,1.585 -21.065,3.624 -26.274,3.624 -7.248,0 -11.099,-2.831 -11.099,-7.814 0,-4.757 2.152,-6.455 16.195,-10.646 C 21.971,39.751 27.746,35.108 27.746,22.99 27.746,5.55 16.874,0 0,0" style="fill:#c1192c;fill-opacity:1;fill-rule:nonzero;stroke:none" transform="matrix(1.3333333,0,0,-1.3333333,1244.6452,190.0004)"/>
      <path id="path9" d="m 974.822,331.881 h 15.063 v -74.632 h -15.063 z" style="fill:#c1192c;fill-opacity:1;fill-rule:nonzero;stroke:none" transform="matrix(1.3333333,0,0,-1.3333333,0,531.18667)"/>
      <path id="path10" d="M 0,0 V -61.495 H -15.063 V 0 h -21.97 V 13.137 H 19.252 V 0 Z" style="fill:#c1192c;fill-opacity:1;fill-rule:nonzero;stroke:none" transform="matrix(1.3333333,0,0,-1.3333333,1382.5111,106.1944)"/>
      <path id="path11" d="m 0,0 h -0.793 l -9.853,-34.314 h 21.178 z m 13.816,29.332 -3.284,-10.419 -27.86,6.342 3.398,13.251 z m 4.078,-89.468 -4.531,13.137 H -13.93 l -4.19,-13.137 h -15.402 l 23.329,74.632 H 9.966 l 24.462,-74.632 z" style="fill:#c1192c;fill-opacity:1;fill-rule:nonzero;stroke:none" transform="matrix(1.3333333,0,0,-1.3333333,1453.4844,108.0068)"/>
      <path id="path12" d="m 0,0 v -48.358 h 15.289 c 11.665,0 18.46,8.607 18.46,24.916 C 33.749,-7.135 27.407,0 14.723,0 Z m -15.063,13.137 h 30.465 c 21.517,0 33.975,-11.778 33.975,-36.579 0,-24.803 -12.004,-38.053 -32.39,-38.053 h -32.05 z" style="fill:#c1192c;fill-opacity:1;fill-rule:nonzero;stroke:none" transform="matrix(1.3333333,0,0,-1.3333333,727.304,232.86107)"/>
      <path id="path13" d="m 607.881,236.881 h 15.062 v -74.632 h -15.062 z" style="fill:#c1192c;fill-opacity:1;fill-rule:nonzero;stroke:none" transform="matrix(1.3333333,0,0,-1.3333333,0,531.18667)"/>
      <path id="path14" d="m 0,0 c -8.268,0 -19.479,1.699 -28.2,3.284 l 2.039,13.251 c 8.154,-1.586 21.291,-3.397 26.388,-3.397 8.04,0 12.344,2.717 12.344,7.361 0,5.322 -2.945,6.682 -18.573,11.438 -16.195,4.87 -22.538,11.098 -22.538,22.31 0,14.949 9.967,22.764 26.048,22.764 7.701,0 19.932,-1.698 28.426,-3.398 l -1.925,-13.25 c -7.361,1.585 -21.065,3.624 -26.274,3.624 -7.248,0 -11.099,-2.831 -11.099,-7.814 0,-4.757 2.152,-6.455 16.195,-10.646 C 21.971,39.751 27.746,35.108 27.746,22.99 27.746,5.55 16.874,0 0,0" style="fill:#c1192c;fill-opacity:1;fill-rule:nonzero;stroke:none" transform="matrix(1.3333333,0,0,-1.3333333,920.73893,316.66707)"/>
      <path id="path15" d="m 731.892,236.881 h 15.062 v -74.632 h -15.062 z" style="fill:#c1192c;fill-opacity:1;fill-rule:nonzero;stroke:none" transform="matrix(1.3333333,0,0,-1.3333333,0,531.18667)"/>
      <path id="path16" d="M 0,0 V 74.632 H 46.999 V 61.948 H 15.063 V 43.715 H 38.052 V 31.257 H 15.063 V 12.797 H 47.339 V 0 Z" style="fill:#c1192c;fill-opacity:1;fill-rule:nonzero;stroke:none" transform="matrix(1.3333333,0,0,-1.3333333,1016.7773,314.85453)"/>
      <path id="path17" d="M 0,0 -1.585,7.701 -33.862,50.51 V 0 h -15.062 v 74.632 h 14.496 L -1.585,30.465 V 74.632 H 13.477 V 0 Z" style="fill:#c1192c;fill-opacity:1;fill-rule:nonzero;stroke:none" transform="matrix(1.3333333,0,0,-1.3333333,1159.4752,314.85453)"/>
      <path id="path18" d="m 0,0 h -0.793 l -9.853,-34.314 h 21.178 z m 17.894,-60.136 -4.531,13.137 H -13.93 l -4.19,-13.137 h -15.402 l 23.329,74.632 H 9.966 l 24.462,-74.632 z" style="fill:#c1192c;fill-opacity:1;fill-rule:nonzero;stroke:none" transform="matrix(1.3333333,0,0,-1.3333333,1229.9961,234.67347)"/>
      <path id="path19" d="m 0,0 h 7.021 v -63.986 h 15.403 v -8.381 h -43.828 v 8.381 h 18.913 v 52.208 l -16.422,-10.419 -4.303,7.134 z" style="fill:#c1192c;fill-opacity:1;fill-rule:nonzero;stroke:none" transform="matrix(1.3333333,0,0,-1.3333333,737.72267,345.0316)"/>
      <path id="path20" d="m 0,0 -1.359,7.701 23.216,26.048 c 7.928,8.833 12.231,14.27 12.231,21.064 0,7.928 -5.322,10.08 -13.816,10.08 -3.964,0 -13.364,-2.152 -19.593,-3.964 l -1.812,8.154 c 6.456,2.038 16.761,4.417 21.971,4.417 14.269,0 22.99,-5.097 22.99,-17.78 0,-9.854 -4.757,-16.082 -13.93,-26.048 L 10.306,8.494 H 45.527 V 0 Z" style="fill:#c1192c;fill-opacity:1;fill-rule:nonzero;stroke:none" transform="matrix(1.3333333,0,0,-1.3333333,785.59307,441.5212)"/>
      <path id="path21" d="m 0,0 h -33.635 l -0.453,7.248 21.97,48.924 H -1.699 L -23.556,8.493 H 0 v 18.12 H 9.4 V 8.493 h 8.267 V 0 H 9.4 V -16.195 H 0 Z" style="fill:#c1192c;fill-opacity:1;fill-rule:nonzero;stroke:none" transform="matrix(1.3333333,0,0,-1.3333333,903.67773,419.92747)"/>
      <path id="path22" d="m 0,0 c 0,-22.65 4.417,-28.652 14.949,-28.652 10.646,0 15.176,6.002 15.176,28.765 0,22.991 -4.077,28.766 -15.176,28.766 C 3.964,28.879 0,23.104 0,0 m 39.864,0.113 c 0,-28.425 -8.38,-37.373 -24.915,-37.373 -16.421,0 -24.689,8.834 -24.689,37.26 0,28.879 8.041,37.373 24.689,37.373 17.441,0 24.915,-8.381 24.915,-37.26" style="fill:#c1192c;fill-opacity:1;fill-rule:nonzero;stroke:none" transform="matrix(1.3333333,0,0,-1.3333333,950.33987,393.35187)"/>
      <path id="path23" d="m 0,0 c 0,109.461 88.736,198.197 198.197,198.197 109.461,0 198.197,-88.736 198.197,-198.197 0,-109.461 -88.736,-198.197 -198.197,-198.197 C 88.736,-198.197 0,-109.461 0,0" style="fill:#c1192c;fill-opacity:1;fill-rule:nonzero;stroke:none" transform="matrix(1.3333333,0,0,-1.3333333,1.3333333,265.59613)"/>
      <path id="path24" d="m 0,0 -0.206,0.118 c -0.276,0.157 -0.748,0.29 -1.117,0.364 -0.28,0.069 -0.668,0.108 -1.081,0.344 l -1.101,0.63 c -0.413,0.236 -0.644,0.55 -0.811,0.737 -0.251,0.281 -0.605,0.62 -0.88,0.777 l -0.207,0.118 c -2.271,1.299 -4.439,2.538 -8.613,1.545 -5.546,-1.395 -9.952,-3.671 -13.748,-10.312 -1.771,-3.097 -0.734,-5.196 1.774,-5.762 -1.078,-2.444 -2.371,-4.626 -5.105,-4.297 0.94,1.244 -0.225,2.96 -1.907,2.415 -1.529,-0.678 -1.893,-3.073 0.172,-4.253 2.89,-1.653 7.104,0.048 8.928,4.118 0.763,1.574 2.489,5.153 3.728,7.32 2.617,4.577 4.205,6.317 7.047,7.615 2.518,1.209 5.797,0.795 6.977,-0.975 0,0 0.265,-0.334 0.029,-0.747 l -12.118,-21.198 c -0.433,-0.757 -2.33,-0.083 -2.365,-0.063 l -0.61,-1.067 c -0.314,-0.551 0.192,-1.023 0.467,-1.18 l 0.207,-0.119 c 0.275,-0.157 0.747,-0.29 1.116,-0.363 0.246,-0.05 0.634,-0.089 1.047,-0.325 l 1.101,-0.629 c 0.413,-0.237 0.644,-0.551 0.846,-0.758 0.251,-0.28 0.604,-0.619 0.879,-0.777 l 0.207,-0.118 c 0.275,-0.158 0.939,-0.354 1.273,0.231 l 0.591,1.032 c -0.035,0.02 -1.578,1.313 -1.146,2.071 l 12.118,21.197 c 0.217,0.379 0.625,0.374 0.659,0.354 2.124,-0.118 4.144,-2.734 4.38,-5.517 0.324,-3.107 -0.37,-5.359 -2.986,-9.936 -1.24,-2.168 -3.447,-5.471 -4.416,-6.926 -2.582,-3.638 -1.909,-8.132 0.981,-9.784 2.065,-1.181 3.943,0.348 3.752,2.01 -0.383,1.726 -2.453,1.859 -3.048,0.419 -1.671,2.188 -0.447,4.41 1.112,6.578 1.76,-1.874 4.095,-1.702 5.866,1.395 3.796,6.641 3.522,11.593 1.91,17.079 C 4.439,-2.538 2.271,-1.298 0,0 m -25.631,140.14 0.436,0.176 c 0.253,0.102 6.255,2.58 12.285,9.868 3.519,4.253 6.321,9.278 8.328,14.935 2.496,7.035 3.762,15.072 3.762,23.887 v 1.166 h -49.622 v -1.166 c 0,-8.815 1.266,-16.852 3.762,-23.887 2.007,-5.657 4.809,-10.682 8.328,-14.935 6.03,-7.288 12.032,-9.766 12.285,-9.868 z M 30.988,-12.75 c -0.765,0.612 -1.77,1.383 -3.889,2.044 -5.751,1.796 -13.291,-3.864 -15.595,-11.243 l -0.426,-1.362 c -2.304,-7.378 0.675,-16.324 6.427,-18.12 2.119,-0.661 3.724,-0.706 4.701,-0.637 1.277,0.099 3.485,0.655 4.607,-1.605 l 1.485,1.696 c -0.554,0.754 -1.072,1.622 -1.16,2.272 -0.118,0.951 -0.035,1.216 0.922,4.281 0.733,-0.977 2.282,-0.671 2.684,0.615 0.248,0.795 -0.351,2.601 -1.637,3.003 -1.892,0.591 -2.629,-1.505 -3.386,-3.926 -1.489,-4.768 -2.304,-4.721 -6.807,-3.315 -4.276,1.336 -3.854,9.468 -2.567,13.592 l 0.709,2.271 c 2.163,6.924 5.607,11.039 9.24,9.905 4.502,-1.406 4.981,-3.466 3.256,-8.99 -0.756,-2.421 -1.343,-4.564 0.549,-5.155 1.287,-0.402 2.807,0.743 3.055,1.538 0.402,1.286 -0.698,2.419 -1.857,2.033 0.958,3.065 1.761,5.638 2.399,6.353 0.443,0.484 1.362,0.903 2.247,1.208 l -0.256,2.24 c -2.209,-1.221 -3.708,0.493 -4.701,1.302 m 55.83,-32.722 -10.066,14.372 6.466,10.543 c 0.57,0.81 1.162,0.908 1.754,1.005 l -0.006,1.546 -0.405,0.265 c -0.324,0.229 -0.722,0.296 -1.508,0.034 -0.51,-0.173 -0.867,-0.184 -1.822,-0.054 -0.757,0.096 -1.112,0.046 -1.464,-0.123 l -0.352,-0.169 0.01,-1.665 c 0.877,-0.133 1.636,-0.308 1.416,-0.909 l -5.293,-8.685 -5.633,8.04 -0.041,0.039 -0.208,0.311 c -0.214,0.509 0.612,0.772 1.439,0.955 l -0.09,1.663 -0.361,0.147 c -0.361,0.149 -0.719,0.178 -1.468,0.036 -0.631,-0.138 -1.02,-0.387 -1.693,-0.408 -1.545,-0.046 -1.705,-0.011 -2.026,0.099 l -0.759,0.175 c -0.795,0.095 -1.193,0.123 -1.503,-0.124 l -0.388,-0.289 0.086,-1.544 c 0.676,-0.059 1.353,-0.158 2.059,-1.208 l 8.203,-11.731 -7.715,-12.564 c -0.641,-1.09 -1.311,-1.229 -1.982,-1.328 l 0.006,-1.546 0.405,-0.266 c 0.324,-0.228 0.722,-0.296 1.508,-0.034 0.51,0.174 0.869,0.105 1.825,-0.025 0.756,-0.096 1.111,-0.046 1.463,0.123 l 0.352,0.169 -0.012,1.745 c -0.957,0.169 -1.676,0.346 -1.223,1.113 l 0.037,0.081 0.038,0.04 6.541,10.705 7.25,-10.371 0.04,-0.039 0.207,-0.271 c 0.215,-0.549 -0.61,-0.812 -1.437,-0.995 l 0.089,-1.663 0.361,-0.148 c 0.362,-0.148 0.719,-0.177 1.469,-0.035 0.63,0.138 1.019,0.387 1.692,0.407 1.546,0.047 1.705,0.011 2.026,-0.098 l 0.759,-0.175 c 0.796,-0.095 1.193,-0.123 1.503,0.124 l 0.388,0.289 -0.086,1.544 c -0.596,0.062 -1.233,0.122 -1.851,0.897 m -26.639,25.514 -0.618,2.167 c -1.979,-1.564 -3.738,-0.118 -4.85,0.518 -0.854,0.479 -1.971,1.076 -4.17,1.383 -5.967,0.833 -12.482,-5.982 -13.552,-13.637 l -0.197,-1.413 c -1.069,-7.656 3.33,-15.995 9.297,-16.828 2.198,-0.307 3.79,-0.089 4.742,0.138 1.244,0.307 3.332,1.216 4.807,-0.831 l 1.188,1.915 c -0.669,0.654 -1.322,1.425 -1.514,2.052 -0.272,0.919 -0.234,1.194 0.21,4.374 0.883,-0.844 2.361,-0.29 2.547,1.045 0.116,0.824 -0.77,2.509 -2.105,2.695 -1.963,0.275 -2.348,-1.913 -2.699,-4.426 -0.691,-4.946 -1.503,-5.033 -6.175,-4.381 -4.436,0.62 -5.347,8.712 -4.75,12.991 l 0.329,2.356 c 1.004,7.184 3.73,11.806 7.499,11.28 4.672,-0.652 5.48,-2.607 4.679,-8.338 -0.351,-2.513 -0.579,-4.722 1.384,-4.996 1.335,-0.187 2.648,1.191 2.763,2.016 0.186,1.334 -1.084,2.272 -2.164,1.702 0.444,3.18 0.817,5.85 1.33,6.659 0.357,0.55 1.196,1.114 2.019,1.559 m -135.314,113.831 1.162,0.255 c 0.658,0.144 0.668,0.836 0.6,1.146 l -0.051,0.233 c -0.068,0.309 -0.286,0.748 -0.478,1.071 -0.137,0.255 -0.369,0.569 -0.471,1.034 l -0.272,1.239 c -0.102,0.464 -0.023,0.846 0.003,1.096 0.04,0.374 0.054,0.864 -0.014,1.174 l -0.051,0.232 c -0.068,0.31 -0.367,0.934 -0.986,0.798 l -1.201,-0.263 c 0.009,-0.039 0.085,-2.052 -0.766,-2.238 l -23.85,-5.234 c -0.852,-0.187 -1.625,1.672 -1.634,1.711 l -1.2,-0.263 c -0.62,-0.136 -0.63,-0.828 -0.562,-1.138 l 0.051,-0.232 c 0.068,-0.31 0.286,-0.749 0.479,-1.072 0.128,-0.215 0.359,-0.53 0.461,-0.995 l 0.272,-1.239 c 0.102,-0.464 0.024,-0.847 0.006,-1.135 -0.04,-0.374 -0.054,-0.864 0.014,-1.174 l 0.051,-0.232 c 0.068,-0.31 0.367,-0.934 1.025,-0.79 l 1.162,0.256 c -0.009,0.038 -0.085,2.051 0.767,2.238 l 23.849,5.233 c 0.852,0.187 1.626,-1.672 1.634,-1.711 m -28.614,11.955 24.336,1.995 c 0.87,0.071 1.387,-1.875 1.39,-1.915 l 1.185,0.097 c 0.672,0.055 0.775,0.74 0.749,1.056 l -0.019,0.237 c -0.026,0.316 -0.184,0.78 -0.331,1.126 -0.102,0.27 -0.289,0.613 -0.328,1.087 l -0.104,1.264 c -0.038,0.474 0.091,0.843 0.15,1.086 0.09,0.366 0.169,0.849 0.143,1.165 l -0.019,0.237 c -0.214,2.608 -0.418,5.097 -3.597,7.978 -4.288,3.785 -8.656,6.132 -16.281,5.507 -3.556,-0.291 -4.701,-2.334 -3.749,-4.722 -2.625,-0.494 -5.156,-0.661 -6.43,1.78 1.557,-0.072 2.313,1.86 0.912,2.938 -1.424,0.878 -3.605,-0.176 -3.41,-2.546 0.272,-3.319 4.057,-5.833 8.446,-5.035 1.729,0.26 5.657,0.861 8.146,1.065 5.255,0.431 7.588,0.105 10.265,-1.505 2.421,-1.393 3.935,-4.331 3.142,-6.306 0,0 -0.126,-0.407 -0.6,-0.446 l -24.336,-1.995 c -0.869,-0.071 -1.387,1.875 -1.39,1.915 l -1.225,-0.1 c -0.632,-0.052 -0.735,-0.737 -0.709,-1.053 l 0.02,-0.237 c 0.026,-0.316 0.183,-0.781 0.33,-1.126 0.099,-0.231 0.286,-0.574 0.325,-1.048 l 0.103,-1.264 c 0.039,-0.474 -0.089,-0.843 -0.146,-1.125 -0.089,-0.366 -0.169,-0.85 -0.143,-1.166 l 0.019,-0.237 c 0.026,-0.316 0.239,-0.974 0.911,-0.919 l 1.185,0.097 c -0.003,0.039 0.191,2.044 1.06,2.115 m 49.711,105.963 -1.046,0.645 c -0.021,-0.034 -1.364,-1.534 -2.107,-1.076 l -20.784,12.817 c -0.742,0.458 -0.005,2.332 0.016,2.366 l -1.047,0.645 c -0.539,0.333 -1.028,-0.157 -1.194,-0.427 l -0.125,-0.202 c -0.167,-0.27 -0.315,-0.738 -0.401,-1.104 -0.057,-0.244 -0.11,-0.631 -0.359,-1.036 l -0.666,-1.08 c -0.25,-0.404 -0.572,-0.625 -0.785,-0.819 -0.289,-0.242 -0.64,-0.584 -0.806,-0.854 l -0.125,-0.202 c -0.167,-0.27 -0.385,-0.927 0.188,-1.281 l 1.013,-0.624 c 0.02,0.034 1.364,1.533 2.107,1.076 l 20.783,-12.817 c 0.743,-0.458 0.006,-2.332 -0.015,-2.366 l 1.012,-0.624 c 0.574,-0.354 1.063,0.136 1.229,0.406 l 0.125,0.203 c 0.166,0.27 0.315,0.737 0.401,1.103 0.078,0.278 0.13,0.665 0.38,1.07 l 0.666,1.079 c 0.25,0.405 0.572,0.625 0.764,0.787 0.288,0.241 0.64,0.583 0.806,0.853 l 0.125,0.202 c 0.166,0.27 0.385,0.927 -0.155,1.26 M -59.579,59.397 c -0.16,0.274 -0.503,0.624 -0.786,0.872 -0.189,0.165 -0.506,0.393 -0.747,0.803 l -0.641,1.094 c -0.241,0.411 -0.284,0.798 -0.356,1.078 -0.078,0.368 -0.216,0.839 -0.376,1.112 l -0.121,0.205 c -0.16,0.274 -0.638,0.775 -1.219,0.434 l -1.026,-0.601 c 0.02,-0.034 0.715,-1.925 -0.038,-2.366 L -85.955,49.68 c -0.753,-0.441 -2.063,1.089 -2.083,1.123 l -1.026,-0.601 c -0.581,-0.341 -0.377,-1.003 -0.217,-1.276 l 0.121,-0.206 c 0.16,-0.273 0.503,-0.623 0.786,-0.871 0.209,-0.199 0.526,-0.427 0.767,-0.837 l 0.641,-1.095 c 0.24,-0.41 0.284,-0.798 0.336,-1.043 0.078,-0.368 0.216,-0.839 0.376,-1.112 l 0.12,-0.205 c 0.161,-0.274 0.638,-0.775 1.186,-0.454 l 1.059,0.621 c -0.02,0.034 -0.714,1.924 0.038,2.365 l 21.067,12.349 c 0.41,0.24 0.748,-0.021 0.748,-0.021 1.783,-1.162 2.232,-4.436 1.05,-6.967 -1.267,-2.856 -2.989,-4.463 -7.538,-7.129 -2.155,-1.263 -5.715,-3.028 -7.279,-3.807 -4.051,-1.869 -5.706,-6.101 -4.022,-8.974 1.202,-2.052 3.593,-1.662 4.254,-0.125 0.528,1.687 -1.201,2.833 -2.435,1.88 -0.359,2.73 1.809,4.047 4.241,5.151 0.608,-2.446 2.635,-3.555 5.782,-1.711 6.6,3.869 8.828,8.299 10.163,13.86 0.947,4.185 -0.316,6.34 -1.639,8.597 z m -6.957,8.56 1.118,0.406 c 0.634,0.23 0.553,0.917 0.444,1.215 l -0.081,0.224 c -0.108,0.298 -0.382,0.705 -0.616,0.999 -0.169,0.234 -0.439,0.515 -0.602,0.962 l -0.433,1.193 c -0.162,0.447 -0.135,0.836 -0.141,1.086 -0.01,0.376 -0.061,0.864 -0.169,1.162 l -0.081,0.224 c -0.109,0.298 -0.488,0.878 -1.084,0.661 l -1.155,-0.42 c 0.014,-0.037 0.355,-2.022 -0.465,-2.319 l -22.951,-8.333 c -0.447,-0.162 -0.732,0.156 -0.732,0.156 -1.543,1.464 -1.392,4.766 0.228,7.041 1.762,2.579 3.747,3.848 8.702,5.648 2.348,0.852 6.168,1.944 7.848,2.427 4.322,1.105 6.715,4.968 5.578,8.098 -0.811,2.236 -3.233,2.284 -4.161,0.893 -0.824,-1.565 0.669,-3.005 2.055,-2.291 -0.141,-2.749 -2.512,-3.653 -5.103,-4.298 -0.131,2.567 -2.023,3.947 -5.376,2.729 -7.191,-2.611 -10.184,-6.565 -12.503,-11.793 -1.146,-2.65 -1.539,-4.354 0.138,-8.974 0.108,-0.298 0.382,-0.704 0.616,-0.999 0.155,-0.196 0.426,-0.478 0.589,-0.925 l 0.433,-1.192 c 0.162,-0.448 0.135,-0.837 0.155,-1.124 0.01,-0.376 0.06,-0.864 0.169,-1.163 l 0.081,-0.223 c 0.108,-0.298 0.487,-0.877 1.12,-0.647 l 1.118,0.406 c -0.014,0.037 -0.355,2.022 0.465,2.319 l 22.952,8.333 c 0.819,0.297 1.831,-1.444 1.844,-1.481 m 297.083,41.574 2.233,6.219 0.622,4.637 -4.597,0.616 -0.621,-4.636 0.516,-6.588 -6.219,2.233 -4.636,0.621 -0.616,-4.596 4.636,-0.621 6.588,0.516 -2.233,-6.22 -0.622,-4.635 4.597,-0.616 0.621,4.636 -0.517,6.588 6.22,-2.233 4.636,-0.622 0.616,4.596 -4.636,0.622 z m -0.163,-40.284 c -4.409,1.986 -8.355,-2.235 -10.865,-4.234 -2.716,-2.167 -5.797,-4.083 -8.905,-2.682 -1.446,0.651 -4.843,2.182 -3.071,6.21 1.157,2.565 4.747,4.165 8.325,2.552 2.602,-1.173 4.165,-1.66 4.947,0.075 0.553,1.228 -0.4,2.876 -1.159,3.218 -1.228,0.553 -2.485,-0.402 -2.242,-1.598 -2.927,1.319 -4.011,1.808 -4.643,2.527 -0.428,0.498 -0.733,1.461 -0.93,2.376 l -2.253,0.016 c 0.945,-2.34 -0.937,-3.622 -1.859,-4.511 -0.7,-0.684 -1.586,-1.589 -2.498,-3.613 -1.874,-4.156 -2.327,-10.082 3.274,-12.606 4.12,-1.857 9.132,1.449 13.014,5.047 3.713,3.414 6.841,1.96 7.817,1.52 1.59,-0.716 3.558,-2.908 2.239,-5.835 -1.124,-2.494 -3.319,-4.374 -8.595,-1.996 -2.313,1.043 -4.369,1.883 -5.184,0.076 -0.554,-1.229 0.4,-2.876 1.159,-3.218 1.228,-0.554 2.485,0.402 2.242,1.598 2.927,-1.319 5.384,-2.427 6.017,-3.147 0.427,-0.497 0.732,-1.46 0.929,-2.375 l 2.253,-0.016 c -0.945,2.34 0.937,3.621 1.859,4.511 0.7,0.684 1.587,1.589 2.499,3.613 1.466,3.252 1.231,9.967 -4.37,12.492 m -112.761,-109.135 -12.444,12.372 4.505,11.519 c 0.419,0.898 0.984,1.098 1.55,1.298 l -0.28,1.521 -0.444,0.19 c -0.36,0.168 -0.764,0.164 -1.491,-0.232 -0.471,-0.261 -0.821,-0.335 -1.784,-0.375 -0.762,-0.039 -1.102,-0.151 -1.419,-0.38 l -0.317,-0.228 0.304,-1.637 c 0.886,0.024 1.664,-0.015 1.554,-0.646 l -3.678,-9.482 -6.964,6.921 -0.047,0.031 -0.259,0.269 c -0.3,0.464 0.466,0.868 1.248,1.194 l -0.381,1.621 -0.383,0.082 c -0.381,0.082 -0.739,0.047 -1.451,-0.224 -0.596,-0.247 -0.935,-0.561 -1.595,-0.7 -1.513,-0.318 -1.676,-0.312 -2.011,-0.261 l -0.778,0.039 c -0.8,-0.046 -1.196,-0.089 -1.458,-0.387 l -0.33,-0.353 0.357,-1.505 c 0.675,0.061 1.359,0.083 2.239,-0.825 l 10.144,-10.101 -5.378,-13.728 c -0.439,-1.186 -1.074,-1.441 -1.717,-1.657 l 0.279,-1.521 0.445,-0.19 c 0.359,-0.168 0.764,-0.164 1.49,0.232 0.472,0.261 0.837,0.257 1.801,0.298 0.762,0.038 1.103,0.15 1.419,0.379 l 0.317,0.229 -0.32,1.714 c -0.972,-0.002 -1.711,0.046 -1.401,0.881 l 0.023,0.086 0.03,0.047 4.55,11.69 8.966,-8.93 0.048,-0.031 0.251,-0.23 c 0.307,-0.503 -0.458,-0.907 -1.24,-1.233 l 0.381,-1.621 0.382,-0.082 c 0.382,-0.082 0.739,-0.047 1.452,0.224 0.596,0.247 0.935,0.561 1.594,0.699 1.513,0.319 1.676,0.312 2.011,0.261 l 0.778,-0.038 c 0.8,0.046 1.196,0.089 1.458,0.387 l 0.331,0.353 -0.357,1.505 c -0.598,-0.045 -1.235,-0.098 -1.98,0.555 m 87.573,82.722 1.067,-5.045 5.046,1.067 -1.067,5.046 z m 40.696,124.752 -0.053,0.232 c -0.072,0.309 -0.295,0.745 -0.491,1.066 -0.139,0.253 -0.374,0.565 -0.481,1.029 l -0.285,1.235 c -0.107,0.464 -0.033,0.848 -0.009,1.097 0.036,0.375 0.045,0.865 -0.027,1.173 l -0.053,0.232 c -0.588,2.55 -1.15,4.983 -4.712,7.375 -4.79,3.125 -9.452,4.816 -16.906,3.096 -3.476,-0.802 -4.314,-2.989 -3.028,-5.214 -2.525,-0.868 -5.006,-1.4 -6.619,0.832 1.551,0.154 2.02,2.175 0.478,3.039 -1.536,0.663 -3.541,-0.695 -3.007,-3.012 0.749,-3.245 4.858,-5.185 9.086,-3.762 1.673,0.508 5.473,1.669 7.906,2.231 5.137,1.185 7.493,1.201 10.375,-0.006 2.597,-1.028 4.519,-3.717 4.02,-5.785 0,0 -0.065,-0.422 -0.529,-0.528 l -23.793,-5.491 c -0.85,-0.196 -1.643,1.655 -1.652,1.694 l -1.197,-0.277 c -0.618,-0.142 -0.621,-0.835 -0.55,-1.143 l 0.054,-0.232 c 0.071,-0.309 0.294,-0.746 0.49,-1.067 0.131,-0.214 0.365,-0.526 0.472,-0.989 l 0.286,-1.236 c 0.106,-0.464 0.032,-0.847 0.017,-1.135 -0.035,-0.375 -0.044,-0.865 0.027,-1.174 l 0.054,-0.232 c 0.071,-0.309 0.377,-0.929 1.034,-0.778 l 1.158,0.267 c -0.008,0.039 -0.107,2.05 0.743,2.246 l 23.793,5.49 c 0.425,0.099 0.698,-0.204 0.707,-0.243 1.355,-1.64 0.805,-4.9 -1.078,-6.961 -2.063,-2.347 -4.187,-3.366 -9.324,-4.552 -2.433,-0.561 -6.358,-1.183 -8.084,-1.458 -4.425,-0.574 -7.268,-4.119 -6.519,-7.363 0.535,-2.318 2.932,-2.659 4.023,-1.39 1.007,1.452 -0.301,3.063 -1.762,2.522 0.472,2.712 2.935,3.322 5.586,3.648 -0.182,-2.563 1.53,-4.162 5.006,-3.36 7.454,1.72 10.904,5.282 13.84,10.191 2.154,3.711 1.592,6.144 1.004,8.693 m -351.356,-20.364 c 0.197,2.37 2.03,2.893 2.419,2.781 1.047,-0.325 4.938,-1.365 7.295,-1.72 1.649,-0.257 2.374,-1.59 2.233,-3.289 l -0.28,-3.358 c -0.105,-1.264 -1.359,-1.995 -2.623,-1.889 -4.03,0.335 -9.399,3.208 -9.044,7.475 m 14.435,-2.435 c 0.142,1.699 1.076,2.894 2.745,2.875 2.384,-0.04 6.393,0.342 7.48,0.491 0.401,0.046 2.123,-0.774 1.926,-3.144 -0.355,-4.266 -7.943,-6.061 -10.155,-5.877 -1.264,0.105 -2.384,0.993 -2.275,2.297 z m -3.185,-11.032 2.015,-0.167 c 7.861,-0.654 15.497,4.597 15.987,10.483 0.283,3.398 -1.38,4.928 -1.38,4.928 0.122,0.03 1.87,0.958 2.028,2.854 0.053,0.632 -0.191,1.05 -0.191,1.05 l -1.738,0.145 c -0.083,-0.987 -0.54,-1.705 -1.03,-1.863 -0.613,-0.188 -5.093,-1.446 -12.994,-0.789 -8.493,0.708 -12.704,2.688 -13.276,2.975 -0.458,0.237 -0.791,1.02 -0.708,2.008 l -1.739,0.145 c 0,0 -0.309,-0.372 -0.362,-1.004 -0.157,-1.896 1.413,-3.102 1.528,-3.15 0,0 -1.892,-1.235 -2.175,-4.633 -0.49,-5.885 6.173,-12.327 14.035,-12.982 m 299.834,57.938 c 0.141,-0.284 0.459,-0.658 0.724,-0.925 0.176,-0.178 0.476,-0.427 0.688,-0.853 l 0.562,-1.138 c 0.211,-0.426 0.227,-0.816 0.279,-1.1 0.052,-0.372 0.157,-0.851 0.297,-1.135 l 0.106,-0.213 c 0.14,-0.285 0.581,-0.818 1.185,-0.519 l 1.066,0.527 c -0.018,0.036 -0.577,1.97 0.205,2.357 l 21.884,10.831 c 0.781,0.387 1.98,-1.231 1.998,-1.266 l 1.066,0.527 c 0.604,0.299 0.446,0.973 0.306,1.257 l -0.105,0.214 c -0.141,0.284 -0.459,0.658 -0.724,0.925 -0.194,0.213 -0.494,0.463 -0.705,0.889 l -0.563,1.137 c -0.211,0.426 -0.227,0.816 -0.261,1.064 -0.052,0.373 -0.157,0.852 -0.297,1.136 l -0.106,0.213 c -0.14,0.284 -0.581,0.818 -1.15,0.537 l -1.101,-0.546 c 0.018,-0.035 0.577,-1.97 -0.205,-2.356 l -21.884,-10.832 c -0.426,-0.211 -0.744,0.074 -0.744,0.074 -1.696,1.283 -1.914,4.582 -0.556,7.022 1.464,2.76 3.296,4.242 8.021,6.58 2.238,1.108 5.914,2.618 7.53,3.285 4.172,1.578 6.121,5.683 4.644,8.667 -1.055,2.132 -3.467,1.911 -4.235,0.425 -0.645,-1.646 0.999,-2.911 2.296,-2.048 0.167,-2.748 -2.09,-3.909 -4.593,-4.839 -0.433,2.484 -2.378,3.733 -5.646,2.115 -6.857,-3.393 -9.391,-7.655 -11.115,-13.108 -1.24,-4.108 -0.132,-6.347 1.028,-8.691 z m -58.656,-220.596 -14.447,9.959 2.383,12.137 c 0.252,0.959 0.773,1.256 1.294,1.554 l -0.546,1.447 -0.471,0.108 c -0.383,0.1 -0.78,0.025 -1.425,-0.494 -0.418,-0.341 -0.749,-0.476 -1.69,-0.687 -0.742,-0.174 -1.058,-0.345 -1.328,-0.626 l -0.271,-0.281 0.59,-1.558 c 0.868,0.182 1.64,0.282 1.643,-0.358 l -1.93,-9.985 -8.085,5.571 -0.052,0.021 -0.303,0.22 c -0.377,0.402 0.304,0.936 1.016,1.396 l -0.664,1.528 -0.391,0.013 c -0.389,0.012 -0.735,-0.086 -1.388,-0.479 -0.542,-0.35 -0.82,-0.719 -1.445,-0.973 -1.431,-0.582 -1.594,-0.605 -1.932,-0.614 l -0.772,-0.1 c -0.78,-0.189 -1.162,-0.301 -1.366,-0.641 l -0.262,-0.407 0.618,-1.417 c 0.654,0.18 1.323,0.324 2.351,-0.413 l 11.779,-8.134 -2.848,-14.467 c -0.221,-1.245 -0.801,-1.609 -1.395,-1.936 l 0.546,-1.447 0.471,-0.108 c 0.383,-0.1 0.781,-0.025 1.425,0.494 0.418,0.341 0.778,0.402 1.72,0.614 0.742,0.173 1.058,0.344 1.329,0.625 l 0.27,0.281 -0.62,1.631 c -0.956,-0.175 -1.692,-0.26 -1.535,0.617 l 0.007,0.089 0.022,0.051 2.397,12.314 10.412,-7.192 0.052,-0.022 0.287,-0.182 c 0.394,-0.439 -0.288,-0.974 -1,-1.434 l 0.664,-1.527 0.39,-0.013 c 0.39,-0.012 0.736,0.085 1.389,0.479 0.543,0.349 0.82,0.719 1.444,0.973 1.433,0.582 1.594,0.605 1.933,0.614 l 0.773,0.1 c 0.779,0.189 1.161,0.301 1.365,0.641 l 0.263,0.406 -0.619,1.418 c -0.581,-0.151 -1.198,-0.317 -2.048,0.194 m -4.777,217.909 c 0,-0.568 0.005,-1.133 0.016,-1.695 -3.512,1.22 -7.088,2.27 -10.637,3.108 -1.639,0.381 -3.43,0.726 -5.098,0.94 -2.48,0.281 -4.714,0.205 -6.661,-0.054 l 1.163,-2.216 c 1.567,0.153 3.321,0.17 5.237,-0.047 1.746,-0.164 3.485,-0.459 5.188,-0.82 3.651,-0.754 7.274,-1.742 10.867,-2.831 0.098,-2.404 0.295,-4.745 0.589,-7.017 -5.388,1.861 -10.842,3.497 -16.351,4.984 -0.953,0.252 -1.936,0.517 -2.92,0.755 l 1.435,-2.734 c 3.399,-0.823 7.42,-1.859 10.429,-2.607 2.535,-0.641 5.076,-1.272 7.618,-1.9 0.627,-4.167 1.589,-8.097 2.886,-11.753 2.007,-5.657 4.809,-10.682 8.329,-14.935 6.03,-7.288 12.032,-9.766 12.284,-9.868 l 0.436,-0.176 0.437,0.176 c 0.252,0.102 6.254,2.58 12.284,9.868 3.52,4.253 6.322,9.278 8.329,14.935 2.496,7.035 3.761,15.072 3.761,23.887 v 1.166 h -49.621 z m 52.776,-139.512 1.068,-5.046 5.045,1.068 -1.067,5.046 z m 7.272,182.258 6.937,5.019 c 1.96,1.417 3.539,-0.767 4.051,-1.474 1.835,-2.537 0.63,-5.267 -1.447,-7.063 -2.929,-2.511 -5.284,-2.502 -7.948,0.708 -0.785,0.949 -1.283,1.909 -1.593,2.81 m 2.558,-7.053 c 0,0 5.097,-4.679 10.044,-1.101 4.496,3.253 3.465,9.209 1.072,12.518 -2.393,3.308 -4.453,3.383 -5.476,4.796 -1.022,1.413 -0.684,2.636 -0.684,2.636 l -2.07,-0.519 0.146,-2.096 -19.913,-14.404 c -0.707,-0.512 -2.157,0.885 -2.18,0.917 l -0.964,-0.697 c -0.546,-0.395 -0.279,-1.034 -0.094,-1.291 l 0.14,-0.192 c 0.186,-0.257 0.561,-0.573 0.866,-0.792 0.227,-0.179 0.565,-0.375 0.843,-0.76 l 0.744,-1.028 c 0.279,-0.385 0.359,-0.768 0.435,-1.006 0.112,-0.359 0.295,-0.814 0.481,-1.071 l 0.139,-0.193 c 0.186,-0.257 0.709,-0.71 1.223,-0.338 l 0.996,0.72 c -0.024,0.032 -0.896,1.847 -0.189,2.358 l 9.924,7.179 c 0.989,-1.975 1.569,-4.197 1.021,-6.551 -0.548,-2.353 -2.351,-5.272 -3.082,-6.29 -2.244,-3.189 -2.552,-4.047 -2.692,-5.274 -0.206,-1.812 0.322,-3.827 1.373,-4.535 0.948,-0.635 1.784,-0.912 2.908,-0.099 1.285,0.93 0.868,2.047 0.566,2.465 -0.465,0.642 -1.961,1.223 -2.658,-0.113 -0.009,-0.055 -0.634,1.891 1.291,4.505 0,0 0.68,-0.535 1.502,-0.723 1.966,-0.486 3.068,0.898 3.501,1.652 0.629,1.091 2.131,3.547 0.787,9.327 m -30.912,-237.586 -15.984,7.239 0.193,12.367 c 0.077,0.988 0.537,1.373 0.997,1.758 l -0.793,1.328 -0.483,0.022 c -0.395,0.031 -0.773,-0.114 -1.315,-0.739 -0.351,-0.41 -0.653,-0.6 -1.541,-0.975 -0.7,-0.302 -0.98,-0.527 -1.197,-0.852 l -0.216,-0.325 0.857,-1.428 c 0.821,0.333 1.564,0.569 1.681,-0.061 l -0.13,-10.169 -8.944,4.048 -0.055,0.012 -0.337,0.162 c -0.443,0.33 0.133,0.976 0.752,1.555 l -0.925,1.385 -0.386,-0.056 c -0.386,-0.057 -0.708,-0.215 -1.281,-0.717 -0.473,-0.44 -0.68,-0.854 -1.25,-1.214 -1.306,-0.827 -1.461,-0.878 -1.793,-0.948 l -0.742,-0.235 c -0.733,-0.324 -1.089,-0.502 -1.23,-0.873 l -0.186,-0.446 0.86,-1.285 c 0.612,0.293 1.245,0.553 2.387,0.009 l 13.035,-5.915 -0.237,-14.741 c 0.003,-1.266 -0.503,-1.727 -1.03,-2.154 l 0.794,-1.327 0.483,-0.022 c 0.395,-0.032 0.773,0.113 1.315,0.738 0.351,0.41 0.695,0.534 1.583,0.909 0.7,0.302 0.98,0.526 1.197,0.852 l 0.216,0.324 -0.899,1.495 c -0.91,-0.341 -1.619,-0.556 -1.62,0.335 l -0.009,0.088 0.013,0.055 0.174,12.543 11.523,-5.23 0.055,-0.013 0.315,-0.128 c 0.465,-0.363 -0.111,-1.009 -0.73,-1.588 l 0.924,-1.386 0.386,0.057 c 0.387,0.057 0.709,0.214 1.282,0.717 0.472,0.44 0.68,0.853 1.249,1.214 1.306,0.827 1.462,0.878 1.793,0.947 l 0.742,0.236 c 0.734,0.323 1.09,0.502 1.231,0.872 l 0.186,0.447 -0.86,1.285 c -0.545,-0.251 -1.123,-0.523 -2.05,-0.172 m -37.226,184.158 c -2.757,0.862 -5.519,1.782 -8.259,2.722 -0.164,0.056 -0.332,0.115 -0.497,0.172 0.201,-0.729 0.379,-1.464 0.533,-2.205 2.571,-0.701 5.177,-1.313 7.949,-1.822 0.726,-0.113 0.947,0.913 0.274,1.133 m -82.874,51.74 c -3.9,-1.804 -13.134,-6.075 -13.134,-6.075 -3.703,-1.727 -6.737,-4.622 -8.635,-8.24 L 16.755,179.615 c -2.236,-4.647 -3.396,-9.738 -3.396,-14.894 l -10e-4,-1.102 C 9.867,161.042 7.101,157.411 5.601,152.991 3.632,147.185 4.225,141.128 6.774,136.05 c 1.583,-3.154 2.599,-6.573 2.765,-10.099 0.05,-1.051 0.175,-2.105 0.379,-3.153 h -40.602 v -7.289 l 5.053,-7.289 V 44.673 l -5.053,-7.289 v -7.288 h 47.751 v -0.001 c -1.362,-5.695 -3.676,-10.963 0.601,-14.23 1.979,-1.512 5.66,-1.358 7.843,-1.098 2.513,0.299 5.034,0.528 7.557,0.723 l 3.626,0.28 c 2.775,-1.755 6.22,-3.644 12.512,-4.772 C 55.92,9.792 63.203,9.801 70.768,10.96 H 70.61 c 5.86,0.867 9.393,4.481 12.702,7.466 0,0 0.405,-0.691 0.405,-0.691 0,0 1.294,-2.533 3.986,-2.533 0.888,0 1.649,0.184 2.212,0.384 0.729,0.258 1.507,0.326 2.27,0.2 1.799,-0.297 5.255,-0.33 7.983,2.876 1.513,-1.447 2.836,-2.76 4.517,-2.892 l 3.625,-0.28 c 2.524,-0.195 5.045,-0.424 7.558,-0.723 2.183,-0.26 5.864,-0.414 7.843,1.098 4.276,3.267 1.964,8.534 0.601,14.227 l 0.013,0.004 h 47.725 v 7.288 l -5.052,7.289 v 63.547 h 0.006 l 5.052,7.289 v 7.289 h -22.543 c -1.184,3.786 -2.594,7.292 -4.194,10.452 0.078,0.007 0.156,0.011 0.234,0.011 0.741,0 1.513,-0.313 2.242,-0.925 0.102,-0.101 0.214,-0.157 0.328,-0.157 0.109,0 0.219,0.051 0.322,0.161 0.319,0.338 0.434,1.1 0.255,1.703 -0.475,1.603 -1.161,3.055 -2,4.246 -1.415,2.016 -3.195,3.133 -5.026,3.133 -0.452,0 -0.907,-0.072 -1.361,-0.212 l -10e-4,0.004 c -1.086,1.378 -3.493,3.604 -3.493,3.604 0.019,0.366 0.028,0.734 0.028,1.104 0,7.21 -3.468,13.61 -8.827,17.623 v 1.176 c 0,5.156 -1.161,10.247 -3.396,14.894 l -15.257,29.081 -0.03,0.057 c -1.678,3.198 -4.268,5.826 -7.441,7.55 l -13.424,7.295 c 7.976,5.602 13.189,14.87 13.189,25.357 0,17.103 -13.865,30.968 -30.968,30.968 -17.103,0 -30.968,-13.865 -30.968,-30.968 0,-10.862 5.594,-20.416 14.056,-25.944 m 77.602,-57.595 c -0.742,0.151 -1.482,0.318 -2.219,0.492 0.013,-0.396 0.022,-0.791 0.022,-1.187 v -0.458 c 0.662,-0.093 1.326,-0.174 1.991,-0.239 0.748,-0.075 1.483,-0.133 2.256,-0.151 0.291,-0.007 0.548,0.203 0.591,0.498 0.049,0.325 -0.184,0.626 -0.509,0.665 -0.7,0.106 -1.429,0.241 -2.132,0.38 m 65.103,88.666 c 0.171,-0.165 0.176,-0.389 -0.153,-0.732 l -6.282,-6.554 -5.435,-0.171 -0.113,5.325 c 4.579,3.573 9.121,4.875 11.983,2.132 m -20.9,-6.049 c -1.289,-1.345 -5.069,-4.257 -7.24,-3.658 1.213,0.979 0.499,2.927 -1.265,2.805 -1.648,-0.287 -2.582,-2.521 -0.865,-4.167 3.892,-3.731 11.174,1.918 16.084,7.04 l 0.176,-5.659 5.38,0.113 -8.421,-8.785 c -0.604,-0.63 -2.281,0.485 -2.31,0.512 l -0.823,-0.859 c -0.466,-0.486 -0.089,-1.067 0.14,-1.286 l 0.171,-0.165 c 0.229,-0.219 0.655,-0.463 0.995,-0.624 0.255,-0.134 0.622,-0.267 0.966,-0.596 l 0.916,-0.878 c 0.343,-0.329 0.49,-0.69 0.608,-0.912 0.175,-0.333 0.436,-0.748 0.665,-0.968 l 0.172,-0.164 c 0.228,-0.22 0.825,-0.572 1.263,-0.114 l 0.851,0.888 c -0.029,0.027 -1.213,1.656 -0.609,2.286 l 16.898,17.628 c 0.603,0.629 2.281,-0.485 2.31,-0.512 l 0.85,0.887 c 0.439,0.458 0.062,1.038 -0.167,1.258 l -0.172,0.164 c -0.228,0.22 -0.654,0.463 -0.994,0.624 -0.227,0.108 -0.594,0.24 -0.937,0.569 l -0.916,0.878 c -0.343,0.329 -0.491,0.69 -0.637,0.94 -0.175,0.332 -0.436,0.748 -0.665,0.967 l -0.172,0.165 c -4.55,4.361 -16.265,4.17 -22.547,-2.384 -2.825,-2.947 -1.632,-5.025 0.295,-5.993 m -45.138,30.606 c 0.507,1.163 1.71,1.936 2.909,1.413 l 3.088,-1.348 c 1.562,-0.682 2.391,-1.952 1.834,-3.526 -0.805,-2.243 -1.737,-6.161 -1.947,-7.237 -0.086,-0.395 -1.417,-1.76 -3.597,-0.809 -3.923,1.712 -3.175,9.473 -2.287,11.507 m 2.965,6.794 c 1.617,3.706 6.069,7.861 9.992,6.149 2.18,-0.951 2.084,-2.856 1.853,-3.187 -0.646,-0.886 -2.885,-4.234 -3.982,-6.35 -0.775,-1.478 -2.27,-1.734 -3.833,-1.052 l -3.088,1.347 c -1.162,0.508 -1.449,1.931 -0.942,3.093 m -2.426,-20.523 c 3.125,-1.363 5.11,-0.283 5.11,-0.283 -0.011,-0.125 0.304,-2.079 2.048,-2.84 0.581,-0.253 1.055,-0.158 1.055,-0.158 l 0.698,1.599 c -0.909,0.396 -1.441,1.061 -1.432,1.576 0.02,0.64 0.275,5.286 3.445,12.552 3.409,7.811 6.643,11.157 7.098,11.607 0.372,0.357 1.221,0.419 2.129,0.023 l 0.698,1.598 c 0,0 -0.253,0.413 -0.834,0.666 -1.744,0.762 -3.39,-0.336 -3.474,-0.429 0,0 -0.558,2.19 -3.683,3.553 -5.413,2.362 -13.659,-1.867 -16.814,-9.097 l -0.809,-1.853 c -3.155,-7.229 -0.648,-16.152 4.765,-18.514 M 29.395,287.361 c 3.385,-0.784 6.8,-2.01 7.631,-5.316 0.386,-1.538 1.295,-5.151 -2.963,-6.263 -2.73,-0.686 -6.212,1.136 -7.169,4.943 -0.696,2.767 -1.284,4.295 -3.129,3.831 -1.307,-0.328 -2.007,-2.098 -1.804,-2.906 0.329,-1.307 1.858,-1.699 2.645,-0.765 0.783,-3.114 1.073,-4.267 0.901,-5.21 -0.124,-0.644 -0.691,-1.481 -1.286,-2.203 l 1.387,-1.777 c 1.247,2.194 3.421,1.514 4.69,1.343 0.971,-0.124 2.231,-0.257 4.383,0.284 4.422,1.111 9.349,4.434 7.851,10.393 -1.101,4.383 -6.805,6.26 -12.036,7.07 -4.981,0.792 -5.783,4.146 -6.044,5.184 -0.425,1.692 0.071,4.595 3.185,5.378 2.652,0.667 5.489,0.113 6.9,-5.499 0.619,-2.461 1.237,-4.595 3.159,-4.111 1.307,0.328 2.006,2.098 1.804,2.906 -0.329,1.307 -1.858,1.699 -2.645,0.765 -0.783,3.114 -1.44,5.728 -1.268,6.671 0.124,0.644 0.69,1.481 1.285,2.203 l -1.386,1.777 c -1.247,-2.194 -3.421,-1.514 -4.69,-1.343 -0.972,0.124 -2.231,0.257 -4.384,-0.284 -3.46,-0.87 -8.579,-5.222 -7.081,-11.181 1.179,-4.69 6.938,-5.163 10.064,-5.89 m 131.191,-58.624 c -0.127,0.297 -0.47,0.434 -0.767,0.307 -6.639,-3.005 -12.957,-6.65 -18.898,-10.838 0,-10e-4 0,-0.002 -0.001,-0.003 l -0.004,0.002 c -8.768,-6.381 -16.711,-13.791 -23.664,-22.029 l 1.485,-2.831 c 1.549,1.032 3.31,1.738 5.178,2.042 1.966,0.32 4.353,0.529 7.026,0.405 4.475,-0.234 9.043,-1.275 13.384,-2.36 2.915,-0.76 5.856,-1.551 8.704,-2.533 0.274,-0.1 0.585,0.017 0.721,0.284 0.146,0.286 0.031,0.637 -0.256,0.783 -0.718,0.364 -1.408,0.657 -2.138,0.959 -6.434,2.596 -13.342,4.66 -20.307,5.196 -3.996,0.184 -7.368,-0.312 -9.784,-0.872 l 0.029,0.032 c 2.093,2.354 4.898,3.953 7.987,4.564 1.82,0.359 4.004,0.654 6.394,0.701 4.329,0.097 8.563,-0.699 12.798,-1.582 2.278,-0.51 4.652,-1.062 6.831,-1.835 0.296,-0.106 0.637,0.042 0.749,0.36 0.096,0.275 -0.044,0.582 -0.303,0.717 -1.266,0.664 -2.549,1.145 -3.849,1.615 -4.761,1.649 -9.727,2.769 -14.79,3.043 -0.493,0.014 -0.987,0.019 -1.481,0.013 -3.136,-0.061 -5.913,-0.513 -8.056,-1.007 l 0.015,0.015 c 2.527,2.474 5.718,4.157 9.185,4.853 1.104,0.221 2.334,0.422 3.665,0.571 3.376,0.362 7.094,0.101 10.459,-0.372 2.245,-0.339 4.535,-0.797 6.664,-1.572 0.676,-0.235 1.099,0.7 0.488,1.058 -2.129,1.172 -4.446,1.874 -6.792,2.427 -3.524,0.784 -7.451,1.085 -11.077,0.776 -1.87,-0.209 -3.542,-0.512 -4.97,-0.835 0.011,0.009 0.022,0.018 0.033,0.027 2.496,2.089 5.497,3.493 8.697,4.088 1.88,0.36 3.786,0.529 5.694,0.681 3.428,0.295 6.919,0.195 10.347,-0.038 0.719,-0.057 0.888,0.965 0.199,1.149 -0.462,0.115 -0.926,0.225 -1.391,0.331 -4.705,1.049 -10.233,1.092 -15.24,0.195 5.395,3.87 11.043,7.443 16.792,10.778 0.253,0.145 0.362,0.461 0.244,0.735 m -0.891,53.456 -13.494,-20.35 c -0.482,-0.726 -2.33,0.072 -2.364,0.094 l -0.657,-0.992 c -0.372,-0.561 0.102,-1.066 0.366,-1.241 l 0.198,-0.131 c 0.265,-0.176 0.727,-0.34 1.09,-0.438 0.275,-0.087 0.66,-0.152 1.056,-0.415 l 1.057,-0.701 c 0.397,-0.263 0.607,-0.592 0.761,-0.789 0.231,-0.297 0.562,-0.659 0.826,-0.834 l 0.199,-0.131 c 0.264,-0.176 0.913,-0.416 1.264,0.112 l 0.679,1.025 c -0.033,0.022 -1.488,1.414 -1.006,2.141 l 13.494,20.35 c 0.263,0.397 0.681,0.31 0.681,0.31 2.111,-0.259 3.954,-3.003 4.005,-5.795 0.118,-3.122 -0.723,-5.323 -3.637,-9.717 -1.38,-2.081 -3.802,-5.232 -4.865,-6.619 -2.817,-3.459 -2.443,-7.988 0.332,-9.828 1.982,-1.314 3.958,0.087 3.877,1.758 -0.268,1.747 -2.325,2.017 -3.014,0.619 -1.523,2.294 -0.154,4.43 1.545,6.49 1.632,-1.986 3.974,-1.969 5.945,1.004 4.228,6.376 4.282,11.335 3.037,16.916 -0.656,2.813 -1.352,4.416 -5.449,7.133 -0.264,0.175 -0.726,0.339 -1.089,0.437 -0.242,0.066 -0.627,0.13 -1.023,0.393 l -1.058,0.701 c -0.396,0.263 -0.606,0.593 -0.793,0.812 -0.232,0.296 -0.563,0.658 -0.827,0.833 l -0.198,0.132 c -0.265,0.175 -0.914,0.415 -1.286,-0.146 l -0.657,-0.992 c 0.033,-0.022 1.487,-1.414 1.005,-2.141 m -62.021,-3.826 0.383,-2.221 c 2.136,1.343 3.729,-0.283 4.767,-1.034 0.797,-0.568 1.844,-1.28 3.997,-1.821 4.421,-1.111 10.334,-0.512 11.831,5.447 1.101,4.383 -3.038,8.732 -7.264,11.919 -4.015,3.052 -3.137,6.387 -2.876,7.425 0.424,1.691 2.235,4.016 5.348,3.234 2.653,-0.667 4.891,-2.496 3.481,-8.108 -0.618,-2.461 -1.082,-4.633 0.84,-5.116 1.307,-0.328 2.761,0.901 2.963,1.708 0.329,1.307 -0.834,2.376 -1.968,1.925 0.782,3.114 1.439,5.728 2.035,6.478 0.414,0.508 1.309,0.979 2.174,1.333 l -0.382,2.221 c -2.135,-1.343 -3.729,0.284 -4.767,1.035 -0.797,0.567 -1.844,1.28 -3.997,1.821 -3.46,0.869 -10.027,-0.547 -11.524,-6.505 -1.178,-4.691 3.673,-7.83 6.084,-9.947 2.612,-2.291 5.041,-4.986 4.211,-8.292 -0.386,-1.538 -1.294,-5.152 -5.571,-4.118 -2.729,0.686 -4.937,3.937 -3.981,7.743 0.695,2.768 0.899,4.393 -0.946,4.856 -1.307,0.328 -2.76,-0.9 -2.963,-1.708 -0.328,-1.307 0.833,-2.375 1.968,-1.925 -0.782,-3.113 -1.071,-4.267 -1.668,-5.016 -0.414,-0.509 -1.309,-0.979 -2.175,-1.334 M -64.75,228.846 c -1.076,-0.24 -1.481,-1.347 -1.12,-2.214 0.626,-1.294 2.717,-1.383 3.766,-0.246 1.816,1.996 -2.689,5.693 -3.365,6.306 -1.676,1.394 -2.727,2.114 -3.21,3.393 -0.519,1.359 -0.039,2.867 0.773,3.842 0.862,1.036 1.567,1.326 2.115,0.87 l 18.62,-15.489 c 0.67,-0.558 -0.323,-2.309 -0.349,-2.34 l 0.915,-0.76 c 0.518,-0.432 1.071,-0.015 1.274,0.229 l 0.152,0.183 c 0.203,0.244 0.415,0.685 0.552,1.036 0.117,0.264 0.223,0.639 0.527,1.005 l 0.811,0.975 c 0.305,0.366 0.654,0.539 0.867,0.671 0.32,0.198 0.716,0.488 0.919,0.732 l 0.152,0.183 c 0.202,0.243 0.512,0.862 0.024,1.268 l -0.945,0.786 c -0.025,-0.03 -1.567,-1.326 -2.237,-0.768 l -18.62,15.489 c -0.548,0.456 -0.392,1.202 0.47,2.238 0.811,0.975 2.207,1.723 3.638,1.46 1.345,-0.242 2.244,-1.145 3.92,-2.539 0.727,-0.552 5.181,-4.31 6.813,-2.161 0.928,1.239 0.459,3.278 -0.926,3.658 -0.919,0.197 -1.934,-0.403 -1.974,-1.504 -1.599,0.867 -7.348,5.546 -7.639,7.18 l -1.325,0.638 -13.918,-16.73 0.869,-1.187 c 1.66,0.012 7.308,-4.789 8.451,-6.204 m -36.362,-55.591 c 0.789,3.031 3.662,3.84 6.369,3.381 3.801,-0.662 5.293,-2.484 4.512,-6.582 -0.232,-1.209 -0.656,-2.205 -1.154,-3.017 l -8.286,2.157 c -2.34,0.609 -1.661,3.218 -1.441,4.061 m -0.912,-7.75 23.784,-6.192 c 0.844,-0.22 0.69,-2.228 0.68,-2.266 l 1.151,-0.299 c 0.652,-0.17 0.975,0.442 1.055,0.749 l 0.06,0.23 c 0.08,0.307 0.085,0.797 0.06,1.172 -0.007,0.289 -0.071,0.674 0.049,1.135 l 0.32,1.227 c 0.12,0.461 0.363,0.766 0.5,0.976 0.205,0.315 0.44,0.745 0.519,1.053 l 0.06,0.23 c 0.08,0.307 0.097,0.999 -0.517,1.159 l -1.189,0.309 c -0.01,-0.038 -0.855,-1.866 -1.699,-1.647 l -11.854,3.086 c 0.895,2.02 2.24,3.882 4.404,4.957 2.164,1.075 5.562,1.542 6.813,1.626 3.887,0.299 4.746,0.608 5.781,1.281 1.529,0.994 2.747,2.684 2.625,3.945 -0.114,1.136 -0.433,1.956 -1.776,2.306 -1.534,0.399 -2.131,-0.634 -2.26,-1.132 -0.2,-0.768 0.304,-2.291 1.778,-1.979 0.049,0.028 -1.054,-1.692 -4.296,-1.872 0,0 -0.021,0.866 -0.398,1.62 -0.876,1.825 -2.646,1.794 -3.503,1.649 -1.242,-0.209 -4.092,-0.614 -7.695,-5.329 0,0 0.365,6.909 -5.543,8.447 -5.371,1.399 -9.309,-3.188 -10.338,-7.139 -1.028,-3.951 0.225,-5.588 -0.215,-7.276 -0.439,-1.688 -1.598,-2.206 -1.598,-2.206 l 1.719,-1.266 z m 13.206,26.163 c 4.402,-2 8.361,2.209 10.877,4.201 2.723,2.159 5.81,4.065 8.913,2.655 1.444,-0.656 4.836,-2.197 3.052,-6.219 -1.164,-2.563 -4.76,-4.151 -8.332,-2.528 -2.598,1.181 -4.16,1.673 -4.947,-0.059 -0.558,-1.227 0.39,-2.877 1.148,-3.221 1.227,-0.558 2.487,0.393 2.247,1.591 2.923,-1.328 4.006,-1.82 4.636,-2.542 0.426,-0.499 0.728,-1.463 0.922,-2.379 l 2.254,-0.022 c -0.939,2.342 0.947,3.618 1.872,4.504 0.702,0.683 1.591,1.585 2.51,3.606 1.886,4.15 2.357,10.075 -3.236,12.617 -4.115,1.869 -9.137,-1.422 -13.03,-5.008 -3.723,-3.403 -6.847,-1.94 -7.821,-1.497 -1.588,0.721 -3.55,2.92 -2.222,5.842 1.132,2.491 3.333,4.364 8.602,1.97 2.31,-1.05 4.363,-1.896 5.183,-0.092 0.558,1.228 -0.39,2.878 -1.148,3.222 -1.227,0.558 -2.487,-0.394 -2.247,-1.591 -2.924,1.328 -5.378,2.443 -6.008,3.165 -0.426,0.498 -0.728,1.463 -0.922,2.378 l -2.253,0.023 c 0.938,-2.343 -0.948,-3.619 -1.873,-4.505 -0.702,-0.682 -1.591,-1.585 -2.509,-3.606 -1.476,-3.247 -1.262,-9.963 4.332,-12.505 m 68.459,79.205 c -1.09,0.161 -1.864,-0.728 -1.837,-1.667 0.122,-1.432 2.042,-2.263 3.43,-1.576 2.408,1.216 -0.478,6.278 -0.889,7.093 -1.067,1.901 -1.791,2.949 -1.786,4.316 0.002,1.455 0.99,2.691 2.096,3.312 1.175,0.659 1.938,0.678 2.287,0.056 l 11.852,-21.122 c 0.427,-0.76 -1.127,-2.041 -1.162,-2.061 l 0.582,-1.037 c 0.33,-0.587 0.995,-0.396 1.272,-0.241 l 0.207,0.117 c 0.277,0.155 0.633,0.491 0.886,0.77 0.203,0.205 0.437,0.518 0.852,0.75 l 1.106,0.621 c 0.415,0.233 0.804,0.269 1.05,0.316 0.369,0.071 0.842,0.2 1.119,0.355 l 0.207,0.117 c 0.277,0.155 0.787,0.623 0.476,1.176 l -0.601,1.072 c -0.035,-0.02 -1.938,-0.678 -2.364,0.082 l -11.852,21.122 c -0.35,0.622 0.063,1.263 1.239,1.922 1.106,0.621 2.676,0.82 3.919,0.063 1.17,-0.707 1.687,-1.871 2.754,-3.773 0.48,-0.776 3.297,-5.877 5.59,-4.454 1.309,0.826 1.601,2.899 0.442,3.748 -0.788,0.513 -1.95,0.315 -2.381,-0.699 -1.184,1.381 -4.88,7.807 -4.567,9.436 l -1.01,1.07 -18.978,-10.649 0.387,-1.419 c 1.554,-0.583 5.113,-7.086 5.674,-8.816 m -18.522,-2.224 c 0.182,0.154 0.405,0.134 0.711,-0.23 l 5.841,-6.949 -0.414,-5.422 -5.306,0.46 c -3.061,4.935 -3.867,9.591 -0.832,12.141 m 3.768,-21.427 c 1.199,-1.427 3.688,-5.497 2.859,-7.591 -0.843,1.311 -2.855,0.81 -2.924,-0.956 0.108,-1.67 2.23,-2.838 4.05,-1.308 4.127,3.468 -0.707,11.315 -5.272,16.747 l 5.646,-0.433 0.465,5.361 7.829,-9.316 c 0.561,-0.667 -0.727,-2.216 -0.757,-2.241 l 0.765,-0.911 c 0.434,-0.515 1.052,-0.203 1.294,10e-4 l 0.182,0.153 c 0.243,0.204 0.531,0.601 0.727,0.921 0.162,0.24 0.333,0.59 0.697,0.896 l 0.971,0.816 c 0.364,0.306 0.74,0.415 0.973,0.507 0.349,0.139 0.79,0.354 1.033,0.558 l 0.182,0.153 c 0.243,0.204 0.656,0.758 0.248,1.244 l -0.79,0.941 c -0.031,-0.026 -1.778,-1.028 -2.339,-0.36 l -15.71,18.693 c -0.561,0.667 0.727,2.216 0.757,2.241 l -0.79,0.941 c -0.408,0.485 -1.026,0.173 -1.269,-0.031 l -0.182,-0.153 c -0.243,-0.204 -0.53,-0.601 -0.727,-0.921 -0.131,-0.214 -0.302,-0.565 -0.666,-0.871 l -0.971,-0.816 c -0.365,-0.306 -0.74,-0.414 -1.003,-0.532 -0.35,-0.139 -0.79,-0.354 -1.033,-0.558 l -0.182,-0.153 c -4.825,-4.055 -5.893,-15.723 -0.053,-22.672 2.627,-3.125 4.821,-2.162 5.99,-0.35 m 37.475,46.436 c 0.037,0.014 2.013,0.404 2.331,-0.408 l 8.898,-22.738 c 0.318,-0.812 -1.398,-1.867 -1.435,-1.881 l 0.434,-1.108 c 0.245,-0.627 0.931,-0.529 1.226,-0.414 l 0.221,0.087 c 0.296,0.116 0.695,0.4 0.984,0.64 0.229,0.176 0.504,0.453 0.947,0.626 l 1.181,0.463 c 0.443,0.173 0.833,0.156 1.084,0.168 0.375,0.019 0.861,0.082 1.157,0.198 l 0.221,0.086 c 0.295,0.116 0.865,0.509 0.634,1.1 l -0.448,1.144 c -0.037,-0.015 -2.013,-0.405 -2.33,0.408 l -8.898,22.739 c -0.318,0.812 1.397,1.866 1.434,1.88 l -0.447,1.145 c -0.232,0.59 -0.917,0.493 -1.212,0.377 l -0.222,-0.087 c -0.295,-0.115 -0.695,-0.399 -0.983,-0.64 -0.193,-0.161 -0.468,-0.438 -0.91,-0.611 l -1.182,-0.463 c -0.443,-0.173 -0.833,-0.156 -1.12,-0.183 -0.376,-0.019 -0.862,-0.082 -1.157,-0.197 l -0.221,-0.087 c -0.296,-0.115 -0.866,-0.509 -0.62,-1.136 z" style="fill:#ffffff;fill-opacity:1;fill-rule:nonzero;stroke:none" transform="matrix(1.3333333,0,0,-1.3333333,171.3436,439.21133)"/>
      <path id="path25" d="m 0,0 c -0.157,0.95 -0.282,1.902 -0.344,2.842 -0.201,2.301 0.291,4.581 1.4,6.598 l 0.654,1.323 -2.12,0.971 c 0,0 -0.575,-1.358 -0.575,-1.358 -1.7,-3.621 -1.509,-6.903 -0.616,-10.693 z m -34.125,-49.252 c 1.812,-6.269 3.523,-12.189 5.731,-16.64 2.61,-5.259 5.695,-7.816 9.431,-7.816 v 2.332 c -6.339,0 -9.537,11.061 -12.922,22.772 -4.438,15.354 -9.468,32.758 -23.521,32.758 v -2.332 c 5.501,0 9.786,-3.08 13.486,-9.692 3.341,-5.973 5.606,-13.806 7.795,-21.382 M 9.45,-64.437 C 6.426,-74.616 0.053,-90.25 -13.131,-106.922 l 1.829,-1.446 C 2.144,-91.365 8.637,-75.399 11.715,-65 c 3.349,11.313 3.502,18.513 3.507,18.814 l -2.332,0.039 c -0.001,-0.072 -0.162,-7.256 -3.44,-18.29 m -61.369,89.605 -2.092,-1.029 c 0.592,-1.089 1.474,-2.614 1.81,-3.817 0.425,-1.324 0.686,-2.716 0.749,-4.107 h 1.632 c 0.064,2.363 -0.304,4.698 -1.192,6.906 z m 21.109,91.624 c 0.207,0.189 0.506,0.462 0.905,0.69 0.005,-0.098 0.018,-0.196 0.048,-0.294 0.196,-0.622 0.858,-0.967 1.48,-0.772 0.605,0.19 0.944,0.822 0.783,1.429 0.794,-0.148 1.13,-0.518 1.148,-0.539 l 0.718,0.596 c -0.035,0.042 -0.87,1.033 -2.845,0.928 -1.478,-0.08 -2.416,-0.937 -2.866,-1.35 l -0.047,-0.043 0.628,-0.689 z M 6.015,2.146 7.638,2.32 C 7.627,2.869 7.54,4.287 7.561,4.816 7.586,5.538 7.914,6.198 8.277,6.805 L 9.118,8.316 7.027,9.347 6.342,7.758 C 5.906,6.842 5.604,5.836 5.666,4.814 5.702,4.171 5.935,2.802 6.015,2.146 m -61.699,21.168 -2.092,-1.029 0.844,-1.516 c 0.782,-1.376 1.174,-2.98 1.283,-4.554 h 1.632 c 0.063,1.725 -0.186,3.454 -0.796,5.074 -0.124,0.294 -0.73,1.7 -0.871,2.025 M 1.637,1.676 1.899,0.377 3.509,0.646 3.333,1.96 C 3.068,3.949 3.493,5.994 4.532,7.71 L 5.873,9.997 3.824,11.109 C 3.096,9.61 1.947,7.65 1.661,5.997 1.361,4.572 1.353,3.098 1.637,1.676 m -5.878,-79.26 c 5.075,7.162 9.079,16.001 10.986,24.25 l -2.272,0.525 c -4.038,-17.474 -16.587,-33.925 -23.367,-33.925 -6.782,0 -19.333,16.451 -23.371,33.925 l -2.272,-0.525 c 1.906,-8.249 5.911,-17.088 10.988,-24.251 5.172,-7.296 10.513,-11.48 14.655,-11.48 4.142,0 9.483,4.184 14.653,11.481 m 85.55,62.142 -4.497,-6.488 H 64.153 c -0.63,4.26 -1.518,8.367 -2.649,12.246 h 19.805 z m -0.006,-78.854 v -5.759 H 35.66 c -0.151,0.701 -0.281,1.404 -0.375,2.104 -0.003,0.026 -0.003,0.054 -0.006,0.08 h 0.003 c -10e-4,0.005 -0.003,0.019 -0.006,0.039 -0.046,0.603 0.145,1.344 0.589,2.254 4.414,0.507 8.72,2.725 12.602,6.475 -0.018,-1.225 -0.169,-2.492 -0.449,-3.689 -0.162,-0.598 -0.158,-1.269 0.013,-1.843 0.323,-1.088 1.088,-1.475 1.698,-1.475 0.434,0 0.849,0.185 1.169,0.523 0.957,1.009 1.793,2.403 2.487,4.142 0.45,1.124 0.815,2.347 1.095,3.636 H 76.806 Z M 16.475,-5.111 c -0.952,0.286 -1.897,0.511 -2.834,0.681 l -1.38,2.604 h 2.488 z M 22.459,3.106 22.455,-7.77 c -0.859,0.53 -1.759,1.01 -2.705,1.438 l -1.756,3.343 c 1.377,2.368 2.872,4.407 4.465,6.095 m -5.731,-3.684 -0.242,0.461 c -0.202,0.383 -0.599,0.623 -1.033,0.623 h -4.404 c -0.162,0.342 -0.247,0.569 -0.231,0.736 0.027,0.297 0.352,0.792 0.966,1.474 3.259,3.616 6.926,5.686 10.672,6.043 L 22.46,6.353 C 20.394,4.526 18.473,2.202 16.728,-0.578 m 16.694,-113.946 c -1.223,-0.935 -3.774,-1.25 -6.997,-0.867 -2.288,0.272 -4.705,0.504 -7.606,0.727 l -0.865,0.067 c 5.798,6.01 8.53,18.94 8.122,38.537 -0.337,16.166 -2.781,31.173 -2.805,31.323 l -2.301,-0.379 c 0.024,-0.148 2.444,-15.013 2.775,-31.017 0.372,-17.994 -1.988,-30.351 -6.853,-36.158 -1.193,-1.423 -3.347,-1.542 -4.706,-0.275 -0.214,0.2 -0.431,0.408 -0.654,0.621 l -0.139,0.133 c -2.2,2.104 -5.214,4.986 -10.59,4.305 -3.129,-0.397 -5.5,-2.363 -7.853,-4.517 v 0 c -0.268,-0.242 -0.536,-0.487 -0.808,-0.735 -3.071,-2.802 -6.246,-5.699 -11.283,-6.443 -0.08,-0.012 -0.158,-0.032 -0.232,-0.059 -7.374,-1.093 -14.369,-1.064 -20.797,0.09 -6.188,1.111 -9.487,2.962 -12.094,4.61 -0.004,0.003 -0.008,0.004 -0.012,0.007 l 0.028,0.042 c -6.553,4.289 -9.775,17.569 -9.319,38.404 0.35,15.99 2.789,30.842 2.814,30.991 l -2.301,0.382 c -0.024,-0.15 -2.488,-15.144 -2.843,-31.298 -0.433,-19.64 2.303,-32.581 8.134,-38.566 l -0.839,-0.065 c -2.901,-0.223 -5.318,-0.455 -7.606,-0.727 -3.224,-0.384 -5.774,-0.068 -6.997,0.867 -2.872,2.193 -2.187,5.412 -0.832,10.481 0.498,1.866 1.014,3.796 1.279,5.784 0.003,0.015 0.004,0.031 0.006,0.047 0.369,1.485 3.48,14.544 2.128,27.844 l -2.32,-0.236 c 0.898,-8.831 -0.284,-17.752 -1.204,-22.852 -0.704,1.189 -1.597,2.407 -2.512,3.654 -1.689,2.303 -3.437,4.685 -3.783,6.703 -0.368,2.143 0.44,6.296 1.184,9.674 0.012,0.053 0.019,0.106 0.023,0.159 0.402,1.819 0.866,3.772 1.358,5.838 1.883,7.912 4.017,16.88 4.307,25.011 0.059,1.635 0.142,3.283 0.263,4.927 0.006,0.032 0.011,0.064 0.013,0.097 0.427,5.616 1.247,10.228 2.507,14.096 0.027,0.071 0.045,0.144 0.057,0.217 2.363,7.107 6.647,12.918 14.464,15.523 1.639,0.547 3.348,0.912 5.081,1.089 h 8.826 V 1.46 h -1.532 V 14.6 c 0,1.048 0.373,2.076 1.1,2.832 0.826,0.859 1.955,1.29 3.143,1.208 1.95,-0.135 3.522,-1.706 3.656,-3.656 0.071,-1.023 -0.245,-2.016 -0.887,-2.797 -3.851,-4.683 -4.625,-11.12 -1.972,-16.399 l 1.133,-2.256 h 7.708 V 1.46 h -2.411 c -0.273,1.984 0.322,4.058 1.665,5.69 1.934,2.352 2.884,5.328 2.673,8.379 -0.259,3.752 -2.285,7.037 -5.244,9.03 4.286,0.977 8.939,2.158 13.647,3.465 9.851,2.736 19.118,5.807 25.04,8.291 L 8.608,35.066 C 5.952,29.379 3.692,23.488 1.858,17.43 0.728,16.816 -0.336,16.238 -1.28,15.723 -2.09,15.257 -2.782,14.587 -3.272,13.793 L -4.419,11.842 C -4.896,11.02 -5.388,10.203 -5.841,9.366 -6.336,8.382 -6.588,7.271 -6.564,6.171 -6.529,5.044 -6.465,3.936 -6.339,2.814 h 1.632 c 0.084,0.745 0.14,1.49 0.178,2.235 0.047,0.679 0.011,1.359 0.168,2.02 0.134,0.607 0.408,1.176 0.742,1.696 0.392,0.633 0.781,1.269 1.165,1.907 l 1.144,1.888 c 0.301,0.468 0.714,0.862 1.196,1.138 5.02,2.716 12.15,6.601 17.159,9.312 1.725,0.985 4.07,0.574 5.644,-0.529 1.083,-0.764 1.623,-1.866 2.154,-3.105 0.163,-0.388 0.331,-0.792 0.508,-1.203 L 18.76,16.641 C 16.963,16.224 15.438,15.126 14.47,13.554 14.32,13.31 14.138,13.086 13.94,12.878 l -3.172,-3.345 1.691,-1.604 3.053,3.218 c 0.291,0.307 0.73,0.84 0.953,1.2 0.639,1.03 1.642,1.749 2.823,2.023 l 7.123,1.656 c 0.167,-0.287 0.343,-0.571 0.537,-0.847 1.875,-2.693 4.722,-4.361 7.713,-5.551 C 36.387,8.94 38.2,8.621 39.969,8.688 47.939,-1.831 52.686,-19 52.686,-37.416 c 0,-16.13 -3.537,-31.083 -9.784,-41.713 -0.198,1.615 -0.545,3.467 -0.987,5.521 3.244,2.545 7.857,8.687 6.325,12.976 -0.173,0.485 -0.491,1.21 -0.916,2.108 1.709,6.582 2.578,13.68 2.578,21.108 0,1.64 -0.044,3.267 -0.13,4.877 0,0.004 0,0.008 -10e-4,0.012 0,10e-4 0,10e-4 0,0.002 -0.587,11.004 -3.148,21.219 -7.362,29.169 C 37.453,5.996 30.78,11.146 23.62,11.146 18.793,11.146 14.102,8.771 10.052,4.277 8.027,2.029 8.235,0.92 9.148,-0.912 l 0.129,-0.261 h 0.002 c 0.005,-0.011 0.009,-0.022 0.015,-0.033 l 1.519,-2.866 C 3.2,-3.527 -3.803,-6.269 -9.68,-8.57 c -3.763,-1.475 -7.014,-2.748 -9.451,-2.748 v -2.331 c 2.878,0 6.318,1.347 10.302,2.907 7.142,2.798 16.03,6.28 25.313,3.185 14.321,-4.773 16.783,-20.301 17.303,-34.86 0.291,-8.131 2.425,-17.099 4.307,-25.01 1.635,-6.871 3.047,-12.805 2.565,-15.614 -0.347,-2.025 -2.093,-4.418 -3.78,-6.731 -0.793,-1.087 -1.605,-2.203 -2.276,-3.29 -1.37,10.137 -4.262,34.045 -3.41,49.623 0.396,7.218 -0.618,13.658 -2.93,18.624 -1.04,2.235 -2.333,4.1 -3.82,5.546 l 0.008,0.008 c -5.517,5.516 -11.383,7.815 -17.936,7.03 -5.582,-0.67 -10.726,-3.474 -15.265,-5.947 -3.793,-2.067 -7.376,-4.019 -10.136,-4.025 v 0.009 c -2.755,0 -6.219,1.859 -10.23,4.012 -1.726,0.926 -3.511,1.885 -5.385,2.77 l -0.997,-2.108 c 1.82,-0.86 3.579,-1.804 5.28,-2.717 4.283,-2.299 7.982,-4.284 11.32,-4.288 v -0.01 c 3.356,0 7.021,1.997 11.264,4.31 6.958,3.791 14.632,7.972 22.904,4.568 -4.418,0.041 -8.162,-1.665 -11.388,-5.173 -3.28,-3.567 -5.672,-8.602 -7.985,-13.472 -3.929,-8.272 -7.64,-16.085 -15.225,-17.385 l 0.394,-2.298 c 8.778,1.504 12.926,10.237 16.937,18.683 4.565,9.61 8.877,18.689 19.451,17.136 7.469,-1.096 12.162,-11.436 11.411,-25.146 -1.075,-19.64 3.71,-52.218 4.088,-54.752 0.006,-0.065 0.013,-0.131 0.021,-0.195 0.266,-1.988 0.781,-3.918 1.28,-5.784 1.355,-5.069 2.04,-8.288 -0.832,-10.481 m -30.628,0.145 c -0.955,0.157 -1.941,0.07 -2.85,-0.252 -0.593,-0.211 -1.206,-0.318 -1.822,-0.318 -1.739,0 -2.709,1.488 -2.908,1.828 1.886,1.68 3.694,3.023 5.882,3.3 3.719,0.471 5.899,-1.09 7.831,-2.869 -2.2,-1.963 -4.731,-1.921 -6.133,-1.689 m -76.238,14.324 h -45.655 v 5.759 l 4.497,6.487 h 35.712 c 0.708,-1.133 1.535,-2.261 2.35,-3.372 1.82,-2.48 3.701,-5.045 3.471,-6.77 -0.093,-0.7 -0.223,-1.403 -0.375,-2.104 m -45.655,84.613 v 5.758 h 38.496 c 0.405,-1.699 1.004,-3.353 1.796,-4.946 0.647,-1.302 1.497,-2.605 2.488,-3.85 l -2.391,-3.45 h -35.892 z m 42.165,-27.539 v 19.521 l 2.197,3.169 c 1.067,-1.113 2.238,-2.147 3.47,-3.047 -1.159,-3.806 -1.915,-8.214 -2.336,-13.62 -0.464,-0.815 -1.75,-3.128 -3.331,-6.023 m -6.894,-18.494 c 0.934,2.614 6.58,13.084 9.929,19.179 -0.001,-0.013 -0.001,-0.025 -0.002,-0.038 -0.282,-7.899 -2.388,-16.748 -4.245,-24.554 -0.348,-1.463 -0.681,-2.864 -0.99,-4.211 -2.806,2.57 -5.6,7.08 -4.692,9.624 m 3.087,-22.018 c 0.113,-0.659 0.325,-1.321 0.607,-1.984 h -33.912 v 61.215 h 34.78 v -23.021 c -2.95,-5.486 -6.052,-11.433 -6.758,-13.407 -1.531,-4.289 3.082,-10.433 6.326,-12.978 -1.074,-5.007 -1.376,-7.882 -1.043,-9.825 m -1.024,88.75 c -2.522,5.024 -2.916,10.722 -1.111,16.044 1.375,4.053 3.915,7.532 7.345,10.063 0,0 0,10e-4 0.001,10e-4 3.883,2.86 8.524,4.299 13.194,4.123 -0.002,-0.051 -0.005,-0.102 -0.005,-0.153 0,-1.701 0.87,-3.284 2.291,-4.206 0.234,-0.361 0.512,-0.687 0.823,-0.971 l -5.798,-2.866 c -3.229,-1.662 -5.234,-4.949 -5.234,-8.578 0,-3.743 2.219,-7.18 5.582,-8.747 0.436,-1.005 1.012,-1.953 1.722,-2.816 1.343,-1.633 1.939,-3.707 1.666,-5.691 h -2.412 v -7.928 h 5.876 c -5.627,-2.632 -9.664,-7.105 -12.29,-13.6 -0.125,-0.31 -0.246,-0.624 -0.364,-0.942 -2.635,2.056 -4.912,4.746 -6.24,7.417 -1.297,2.61 -2.023,5.397 -2.158,8.283 -0.166,3.524 -1.138,7.08 -2.888,10.567 m 9.981,42.518 15.247,29.063 c 1.769,3.373 4.645,6.117 8.093,7.724 l 8.174,3.781 18.992,-18.992 c 1.616,-1.616 1.616,-4.246 0,-5.861 L -39.486,45.281 c -0.288,1.263 -1.058,2.383 -2.164,3.1 -0.921,1.421 -2.504,2.291 -4.206,2.291 -1.702,0 -3.285,-0.87 -4.206,-2.291 -1.421,-0.922 -2.291,-2.505 -2.291,-4.206 0,-1.81 0.99,-3.469 2.533,-4.351 v -0.525 h -1.673 c -0.882,1.543 -2.541,2.534 -4.351,2.534 -1.702,0 -3.285,-0.871 -4.206,-2.291 -0.69,-0.448 -1.25,-1.053 -1.643,-1.751 -4.647,0.29 -9.289,-0.862 -13.344,-3.3 0.153,4.583 1.269,9.154 3.253,13.284 m 38.581,43.855 v -7.056 l -4.812,4.812 2.705,1.251 c 0.003,0.001 0.005,0.003 0.007,0.004 v 0 z m -15.487,26.01 c 0,16.432 13.369,29.801 29.802,29.801 16.433,0 29.802,-13.369 29.802,-29.801 0,-9.456 -4.513,-18.364 -12.106,-23.978 l -3.992,2.219 c -0.127,0.07 -0.254,0.151 -0.379,0.243 1.684,0.803 2.833,2.514 2.833,4.507 0,1.473 -0.649,2.811 -1.681,3.731 1.745,1.169 2.874,3.157 2.874,5.396 0,0.226 -0.013,0.452 -0.038,0.677 3.953,2.879 3.123,6.79 2.551,8.397 -0.162,0.455 -0.241,0.973 -0.241,1.583 0,3.926 -1.767,6.41 -3.615,7.819 l 3.327,5.973 -1.965,1.247 c -0.208,-0.29 -0.484,-0.533 -0.842,-0.741 -0.336,-0.194 -0.722,-0.336 -1.136,-0.411 -0.821,-0.166 -1.626,-0.069 -2.392,0.288 -0.185,0.093 -0.376,0.193 -0.525,0.302 -0.178,0.131 -0.344,0.27 -0.485,0.406 -0.132,0.13 -0.26,0.281 -0.38,0.449 l -0.015,0.02 c -0.114,0.154 -0.217,0.321 -0.303,0.491 -0.187,0.376 -0.306,0.758 -0.353,1.133 -0.048,0.391 -0.018,0.768 0.089,1.119 0,0 0,0 0,0 0,0.001 0,0.001 0,0.001 l -2.23,0.682 c -0.107,-0.351 -0.292,-0.678 -0.553,-0.976 -0.255,-0.293 -0.57,-0.548 -0.902,-0.731 -0.398,-0.215 -0.773,-0.352 -1.125,-0.409 -0.245,-0.043 -0.435,-0.063 -0.602,-0.063 -0.183,-0.002 -0.386,0.015 -0.626,0.049 -0.192,0.031 -0.383,0.081 -0.565,0.149 l -0.033,0.012 c -0.183,0.062 -0.359,0.141 -0.512,0.228 -0.383,0.224 -0.687,0.469 -0.932,0.751 -0.389,0.444 -0.845,1.17 -0.805,2.107 l -2.33,0.102 c -0.016,-0.37 -0.113,-0.735 -0.289,-1.087 -0.17,-0.345 -0.41,-0.667 -0.69,-0.931 -0.607,-0.568 -1.35,-0.897 -2.14,-0.953 -0.823,-0.051 -1.608,0.168 -2.277,0.641 -0.68,0.474 -1.134,1.133 -1.278,1.855 l -2.288,-0.447 c 0.177,-0.917 -0.168,-1.709 -0.48,-2.198 -0.465,-0.708 -1.111,-1.216 -1.868,-1.471 -0.771,-0.259 -1.602,-0.255 -2.394,0.009 -0.392,0.135 -0.749,0.325 -1.055,0.563 -0.313,0.245 -0.557,0.533 -0.726,0.855 l -2.067,-1.081 c 0.335,-0.641 0.389,-1.446 0.153,-2.269 -0.232,-0.813 -0.7,-1.516 -1.352,-2.03 -0.655,-0.515 -1.439,-0.81 -2.336,-0.877 -0.43,-0.033 -0.841,-0.001 -1.234,0.097 -0.39,0.094 -0.726,0.252 -1.001,0.472 l -1.674,-1.592 4.765,-6.631 c -0.416,-1.079 -0.631,-2.204 -0.631,-3.353 0,-1.519 0.382,-3.003 1.126,-4.417 -10e-4,-0.021 -0.002,-0.042 -0.002,-0.063 0,-4.343 2.454,-8.184 6.147,-10.07 -0.319,-0.872 -0.489,-1.798 -0.489,-2.734 0,-2.767 1.441,-5.289 3.715,-6.719 -0.036,-0.018 -0.072,-0.036 -0.109,-0.052 l -6.148,-2.896 c -8.147,5.572 -12.993,14.72 -12.993,24.607 M -4.593,84.574 v 8.311 l 2.917,-1.622 10e-4,10e-4 c 0.003,-0.002 0.006,-0.005 0.009,-0.006 L 0.768,89.935 Z M -12.216,76.951 -18.167,71 c -0.272,-0.272 -0.515,-0.565 -0.731,-0.874 -0.215,0.307 -0.457,0.6 -0.731,0.874 l -5.951,5.951 z m -16.39,16.845 c 1.788,0.782 2.917,2.611 2.813,4.56 -0.027,0.515 -0.071,1.208 -0.129,2.07 1.06,-0.761 2.203,-1.424 3.438,-1.975 0.776,-0.347 1.607,-0.521 2.437,-0.521 0.818,0 1.635,0.169 2.395,0.507 3.991,1.777 7.083,4.689 9.237,8.673 -0.246,-3.182 -0.526,-6.934 -0.623,-8.754 -0.085,-1.59 0.714,-3.12 2.114,-4.128 V 82.242 l -2.96,-2.959 h -18.028 l -2.959,2.959 v 10.487 z m -1.885,10.799 c 0.146,-0.04 0.294,-0.077 0.443,-0.111 0.509,-0.681 1.055,-1.319 1.637,-1.917 0.144,-1.978 0.242,-3.435 0.29,-4.335 0.006,-0.108 0.003,-0.214 -0.006,-0.32 -1.648,1.002 -2.696,2.805 -2.696,4.788 0,0.649 0.115,1.29 0.332,1.895 m -2.304,17.866 c 0.285,0.202 0.584,0.391 0.896,0.563 1.025,0.568 2.003,1.242 2.908,2.001 1.571,1.32 2.881,2.864 3.918,4.598 1.569,-1.273 3.33,-2.274 5.259,-2.975 2.043,-0.743 4.153,-1.112 6.254,-1.112 0.76,0 1.518,0.05 2.272,0.147 -0.226,-2.087 0.347,-4.838 3.293,-6.744 0.028,-1.047 0.345,-2.941 1.922,-5.065 l -0.003,-10e-4 c 0.027,-0.033 0.027,-0.065 0.027,-0.076 0,-0.066 -0.053,-0.12 -0.119,-0.12 v 0 c -1.245,0.027 -2.355,-0.738 -2.752,-1.902 -1.841,-5.396 -5.098,-9.167 -9.68,-11.207 -0.926,-0.413 -1.994,-0.408 -2.932,0.011 -4.71,2.107 -8.006,5.996 -9.796,11.564 -1.433,4.415 -1.504,8.672 -1.467,10.318 m -3.52,-5.255 c 0.205,1.041 0.624,2.028 1.221,2.919 0.111,-2.264 0.482,-5.416 1.547,-8.699 0.421,-1.308 0.922,-2.529 1.494,-3.672 -2.679,1.569 -4.428,4.48 -4.428,7.75 0,0.572 0.056,1.144 0.166,1.702 m 3.771,10.412 c 1.428,0.91 3.058,1.648 4.825,2.201 -0.784,-1.111 -1.711,-2.117 -2.772,-3.008 -0.79,-0.664 -1.644,-1.251 -2.538,-1.747 -1.987,-1.101 -3.558,-2.695 -4.555,-4.566 0.203,2.654 1.974,5.166 5.04,7.12 m 27.637,1.769 c -0.22,0.086 -0.431,0.156 -0.628,0.211 -3.793,2.411 -8.793,3.739 -14.117,3.739 -5.326,0 -10.35,-1.333 -14.146,-3.753 -1.813,-1.155 -3.248,-2.498 -4.276,-3.965 l -2.179,3.032 c 0.089,0.003 0.179,0.008 0.268,0.015 1.345,0.101 2.59,0.574 3.602,1.371 1.04,0.819 1.784,1.934 2.151,3.22 0.056,0.197 0.102,0.393 0.138,0.59 0.183,-0.083 0.373,-0.159 0.567,-0.225 1.287,-0.43 2.631,-0.434 3.886,-0.011 1.256,0.423 2.319,1.253 3.081,2.414 0.105,0.165 0.202,0.333 0.289,0.504 0.146,-0.125 0.3,-0.243 0.46,-0.356 1.103,-0.778 2.404,-1.144 3.771,-1.058 1.339,0.093 2.576,0.638 3.581,1.579 0.143,0.134 0.279,0.276 0.406,0.423 0.111,-0.153 0.229,-0.303 0.356,-0.448 0.411,-0.472 0.905,-0.874 1.522,-1.236 0.288,-0.164 0.595,-0.302 0.912,-0.412 0.324,-0.119 0.661,-0.207 1.017,-0.263 0.373,-0.054 0.684,-0.08 0.984,-0.076 0.391,0.001 0.753,0.056 0.98,0.095 0.597,0.098 1.217,0.319 1.854,0.662 0.174,0.096 0.344,0.202 0.508,0.317 0.07,-0.181 0.149,-0.361 0.238,-0.541 0.148,-0.293 0.32,-0.572 0.513,-0.832 0.197,-0.275 0.412,-0.528 0.646,-0.757 0.223,-0.215 0.468,-0.421 0.732,-0.615 0.294,-0.215 0.594,-0.374 0.874,-0.514 l 0.025,-0.012 c 1.081,-0.507 2.255,-0.692 3.408,-0.544 z m -1.061,-0.874 0.009,0.013 -0.005,-0.02 z m -13.05,0.326 c -1.365,0.496 -2.634,1.165 -3.795,1.992 1.033,0.113 2.089,0.174 3.161,0.174 4.048,0 7.871,-0.821 11.011,-2.34 -3.367,-1.109 -6.977,-1.061 -10.377,0.174 m 12.731,-8.204 c -3.122,1.725 -2.848,4.381 -2.544,5.536 1.002,0.273 1.988,0.633 2.949,1.081 0.427,-0.163 1.175,-0.509 1.928,-1.151 1.421,-1.213 2.203,-2.903 2.335,-5.029 -0.904,-0.467 -2.829,-1.226 -4.668,-0.437 m 0.741,-2.606 c 0.325,-0.046 0.645,-0.067 0.959,-0.067 1.232,0 2.347,0.316 3.196,0.658 0.048,-0.195 0.104,-0.385 0.17,-0.571 0.533,-1.495 0.696,-3.515 -1.111,-5.219 -0.288,0.53 -0.649,1.033 -1.081,1.492 -1.373,1.457 -1.921,2.78 -2.133,3.707 m 0.484,-17.398 c 0,-1.117 -0.676,-2.067 -1.648,-2.465 0.001,0.022 -0.001,0.043 0,0.066 0.057,1.065 0.178,2.805 0.317,4.704 0.797,-0.465 1.331,-1.329 1.331,-2.305 m -1.097,5.409 c 0.168,2.183 0.329,4.215 0.42,5.345 0.46,0.082 0.875,0.292 1.208,0.593 0.366,-0.575 0.663,-1.319 0.663,-2.22 0,-1.619 -0.921,-3.032 -2.291,-3.718 M -18.898,37.541 c -3.781,0 -7.481,0.064 -11.013,0.189 -0.395,0.724 -0.968,1.351 -1.678,1.812 -0.922,1.42 -2.505,2.291 -4.207,2.291 -1.81,0 -3.468,-0.991 -4.35,-2.534 h -1.746 v 0.525 c 0.443,0.253 0.838,0.572 1.179,0.938 l 0.003,-0.003 21.081,21.082 c 0.274,0.274 0.516,0.567 0.731,0.874 0.216,-0.309 0.459,-0.602 0.731,-0.874 L 5.101,38.573 C -1.144,37.913 -9.707,37.541 -18.898,37.541 M -37.103,26.549 c -1.644,0.113 -3.27,-0.108 -4.789,-0.642 v 5.465 h 1.746 c 0.882,-1.543 2.54,-2.534 4.35,-2.534 1.702,0 3.285,0.87 4.206,2.291 1.422,0.922 2.292,2.505 2.292,4.206 0,0.014 -0.002,0.027 -0.002,0.04 3.349,-0.11 6.841,-0.166 10.402,-0.166 6.585,0 12.859,0.19 18.211,0.541 -5.107,-1.795 -11.235,-3.707 -17.618,-5.479 -5.8,-1.611 -11.512,-3.027 -16.543,-4.103 -0.727,0.197 -1.481,0.327 -2.255,0.381 m -15.475,3.51 c 0.429,0.37 0.798,0.811 1.085,1.313 h 1.673 v -2.421 c -0.536,0.477 -1.195,0.807 -1.917,0.946 z m 20.081,-30.071 0.234,-0.86 h 1.92 v -3.264 h -3.938 l -0.488,0.971 c -2.238,4.456 -1.575,9.9 1.69,13.871 1.022,1.243 1.524,2.819 1.412,4.438 -0.214,3.105 -2.716,5.607 -5.822,5.822 -1.767,0.12 -3.45,-0.473 -4.737,-1.674 -1.288,-1.203 -1.998,-2.835 -1.998,-4.597 V -0.872 h 1.532 v -3.264 h -6.328 v 3.264 h 1.532 V 15.064 H -49.82 V 1.46 h -1.532 v -5.879 c -1.241,-0.221 -2.464,-0.529 -3.653,-0.926 -0.173,-0.057 -0.345,-0.118 -0.516,-0.179 l 0.661,1.312 c 2.653,5.279 1.879,11.716 -1.972,16.399 -0.603,0.733 -0.884,1.647 -0.884,2.877 h -2.332 c 0,-1.775 0.463,-3.201 1.415,-4.358 3.265,-3.971 3.929,-9.415 1.69,-13.87 l -0.49,-0.972 h -3.936 v 3.264 h 1.921 l 0.234,0.86 c 0.803,2.959 0.078,6.19 -1.94,8.644 -1.554,1.889 -2.317,4.282 -2.148,6.737 0.03,0.854 0.176,1.707 0.436,2.528 0.088,0.296 0.219,0.598 0.436,0.818 0.628,0.674 1.867,0.614 2.477,-0.062 0.524,-0.535 0.53,-1.412 0.576,-2.132 h 1.633 c 0.01,0.391 0,0.783 -0.033,1.172 -0.071,2.198 -2.132,3.787 -4.288,3.393 -1.139,-0.183 -2.191,-0.998 -2.663,-2.063 -0.488,-1.102 -0.78,-2.289 -0.9,-3.494 -0.051,-0.732 -0.033,-1.46 0.048,-2.176 -1.461,1.362 -2.347,3.3 -2.347,5.361 0,2.752 1.521,5.244 3.953,6.496 l 5.784,2.859 c 0.665,0.32 1.43,0.42 2.154,0.28 l 3.859,-0.742 c 0.489,-0.094 0.911,-0.397 1.157,-0.831 0.599,-0.98 1.563,-2.394 1.987,-3.449 0.5,-1.159 0.814,-2.452 0.9,-3.702 h 1.633 c 0.032,1.829 -0.326,3.63 -1.014,5.308 h 0.026 v 8.77 h -5.56 l -0.28,-0.765 c -0.386,-1.058 -1.397,-1.768 -2.516,-1.768 -0.967,0 -1.864,0.528 -2.34,1.378 l -0.161,0.286 -0.286,0.161 c -0.85,0.476 -1.378,1.373 -1.378,2.34 0,0.968 0.528,1.864 1.377,2.341 l 0.287,0.16 0.161,0.287 c 0.476,0.85 1.373,1.378 2.34,1.378 1.119,0 2.13,-0.71 2.516,-1.768 l 0.28,-0.765 h 5.56 v 4.411 l -0.766,0.28 c -1.057,0.386 -1.767,1.397 -1.767,2.516 0,0.967 0.528,1.864 1.377,2.34 l 0.287,0.161 0.161,0.286 c 0.476,0.851 1.373,1.378 2.34,1.378 0.967,0 1.864,-0.527 2.34,-1.378 l 0.161,-0.286 0.287,-0.161 c 0.849,-0.476 1.377,-1.373 1.377,-2.34 0,-1.119 -0.71,-2.13 -1.767,-2.516 l -0.766,-0.28 v -4.411 h 5.633 l 0.279,0.765 c 0.386,1.058 1.397,1.768 2.516,1.768 0.968,0 1.864,-0.528 2.341,-1.378 l 0.16,-0.287 0.287,-0.16 c 0.85,-0.477 1.378,-1.373 1.378,-2.341 0,-0.967 -0.528,-1.864 -1.378,-2.34 l -0.287,-0.161 -0.16,-0.286 c -0.477,-0.85 -1.373,-1.378 -2.341,-1.378 -1.119,0 -2.13,0.71 -2.516,1.768 l -0.28,0.765 h -5.632 V 22.149 l 1.725,0.943 c 1.585,0.866 3.396,1.258 5.235,1.131 4.722,-0.326 8.528,-4.132 8.854,-8.854 0.169,-2.455 -0.593,-4.848 -2.148,-6.737 -2.018,-2.454 -2.743,-5.685 -1.939,-8.644 m 35.402,88.786 8.854,-4.811 c 2.98,-1.62 5.389,-4.064 6.964,-7.068 L 26.06,62.911 C 19.662,55.038 14.153,46.445 9.674,37.298 L -16.518,63.49 c -0.783,0.782 -1.214,1.823 -1.214,2.93 0,1.107 0.431,2.148 1.214,2.931 z M 28.301,57.266 c 0.209,0.049 0.426,0.096 0.647,0.141 l 2.133,-4.066 C 26.97,53.834 23.472,53.079 20.994,52.19 l 0.022,0.032 c 1.715,2.53 4.308,4.346 7.285,5.044 M 32.433,50.763 34,47.775 c 0.618,-1.285 1.149,-2.614 1.596,-3.973 -1.801,0.638 -3.628,1.3 -5.313,1.933 -5.588,2.015 -10.447,0.947 -13.599,-0.349 l 0.018,0.032 c 1.439,2.434 3.75,4.243 6.474,5.001 2.432,0.677 5.637,1.085 9.257,0.344 m 3.861,-9.39 c 0.502,-2.029 0.816,-4.103 0.93,-6.186 -0.595,0.158 -1.189,0.318 -1.78,0.489 -2.794,0.81 -5.87,1.861 -8.575,2.928 -5.976,2.283 -10.949,1.111 -14.073,-0.277 l 0.017,0.033 c 1.405,2.744 3.89,4.79 6.867,5.591 2.62,0.705 6.025,0.956 9.812,-0.409 2.328,-0.782 4.567,-1.507 6.802,-2.169 M 37.74,31.296 c 5.313,-3.978 8.36,-10.062 8.36,-16.69 0,-0.224 -0.01,-0.447 -0.017,-0.67 -2.675,-3.088 -6.853,-3.621 -10.601,-2.125 -2.489,0.985 -5.074,2.456 -6.619,4.697 -1.24,1.71 -1.764,4.056 -2.99,5.955 -2.018,3.137 -6.637,4.424 -9.936,2.599 -0.307,-0.164 -1.159,-0.632 -1.474,-0.799 -2.66,-1.446 -6.259,-3.392 -9.66,-5.236 0.687,2.126 1.423,4.231 2.216,6.311 0.822,2.157 2.516,3.881 4.669,4.715 0.02,0.008 0.04,0.015 0.06,0.023 3.386,1.291 7.01,1.042 10.771,-0.739 0.432,-0.182 0.846,-0.36 1.204,-0.513 1.26,-0.547 2.626,-1.036 3.94,-1.456 2.696,-0.832 5.503,-1.411 8.344,-1.339 0.541,0.024 1.085,0.067 1.622,0.162 0.434,0.081 1.053,0.151 0.997,0.762 -0.039,0.344 -0.375,0.568 -0.709,0.498 -0.607,-0.07 -1.267,-0.048 -1.887,-0.007 -1.956,0.155 -3.938,0.631 -5.807,1.231 -1.894,0.611 -3.777,1.376 -5.575,2.23 -0.318,0.151 -0.734,0.352 -1.131,0.54 -5.429,2.57 -9.848,1.859 -12.599,0.81 C 10.457,32.079 10.03,31.888 9.632,31.69 l 0.005,0.013 c 1.063,2.401 3.088,4.245 5.582,5.068 2.69,0.887 6.44,1.327 10.818,-0.346 1.66,-0.595 3.453,-1.177 5.242,-1.69 v -10e-4 c 2.321,-0.763 4.519,-1.955 6.461,-3.437 z m 8.304,-92.713 c 0.467,-1.305 -0.054,-3.351 -1.427,-5.613 -0.894,-1.472 -2.087,-2.922 -3.275,-4.015 -0.305,1.322 -0.635,2.71 -0.979,4.157 -1.858,7.807 -3.963,16.655 -4.245,24.554 -0.002,0.034 -0.003,0.067 -0.004,0.101 3.347,-6.094 8.995,-16.566 9.93,-19.184 m 1.326,18.007 c -0.273,-4.089 -0.828,-8.05 -1.661,-11.846 -1.826,3.585 -4.269,8.134 -6.293,11.846 z m 0.125,9.656 c 0,-0.003 0,-0.006 0,-0.009 0.023,-0.566 0.04,-1.132 0.052,-1.698 0.002,-0.096 0.004,-0.191 0.006,-0.287 0.01,-0.558 0.017,-1.114 0.017,-1.668 0,-1.231 -0.027,-2.451 -0.075,-3.662 H 38.14 c -1.111,2.022 -1.969,3.561 -2.326,4.187 -0.085,1.085 -0.184,2.129 -0.296,3.137 z m -1.777,14.146 c 0.82,-3.758 1.376,-7.724 1.651,-11.815 h -7.911 z m -10.68,8.218 V 3.165 c 1.59,-1.684 3.091,-3.727 4.476,-6.109 z m -0.136,-5.236 5.943,11.213 c 1.631,-3.256 2.985,-6.886 4.041,-10.786 l -8.067,-15.224 h -1.597 c -0.579,4.058 -1.423,7.489 -2.574,10.542 z M 24.787,8.759 C 27.533,8.501 30.204,7.331 32.706,5.328 V -15.79 l -1.235,-2.331 c -1.72,3.583 -3.936,6.471 -6.685,8.699 l 0.006,15.303 z m 25.811,-94.966 v 0 c 0,10e-4 0,0.002 0,0.004 0,0 0,0.001 0,0.001 0,0.001 -10e-4,0.001 -10e-4,0.002 -0.261,1.669 -0.753,3.016 -1.463,4.004 -0.007,0.009 -0.014,0.019 -0.021,0.029 -0.04,0.052 -0.08,0.102 -0.121,0.151 1.174,1.832 2.276,3.828 3.294,5.965 0.16,-0.844 0.283,-1.695 0.365,-2.535 0.05,-0.492 0.089,-1.041 0.115,-1.632 v 0 c 0,0 0,-10e-4 0,-10e-4 0.169,-3.708 -0.394,-7.484 -1.546,-10.361 -0.213,-0.532 -0.441,-1.028 -0.682,-1.481 0.323,1.982 0.349,4.057 0.06,5.854 m 13.768,39.58 c -1.041,2.704 -2.589,4.236 -4.334,4.24 0.077,1.67 0.115,3.335 0.115,4.97 0,1.553 -0.034,3.124 -0.101,4.693 0.311,-0.3 0.609,-0.634 0.888,-0.997 0.774,-0.99 1.493,-2.374 2.079,-4.004 0,0 0,0 0,0 0.68,-1.894 1.126,-4.059 1.288,-6.263 0.067,-0.887 0.087,-1.773 0.065,-2.639 m 2.261,2.813 c -0.173,2.335 -0.639,4.642 -1.351,6.684 -0.013,4.378 -0.288,8.689 -0.807,12.868 H 76.251 V -85.477 H 54.88 c 0.209,1.621 0.288,3.309 0.23,5.013 4.525,7.694 7.757,17.818 9.237,28.844 0.1,-0.02 0.201,-0.03 0.302,-0.03 0.902,0 1.622,0.765 1.792,1.904 0.275,1.841 0.339,3.892 0.186,5.932 M 48.862,10.261 C 48.119,9.788 47.393,9.162 46.691,8.383 46.332,7.984 46.292,7.392 46.594,6.948 48.462,4.2 50.157,1.02 51.633,-2.504 c 0.183,-0.437 0.61,-0.716 1.075,-0.716 0.041,0 0.081,0.002 0.122,0.006 0.511,0.054 0.927,0.436 1.024,0.941 0.083,0.435 0.184,0.812 0.301,1.129 0.272,0.697 0.627,1.227 1.034,1.559 4.396,-9.106 7.051,-20.554 7.633,-32.768 -0.016,0.02 -0.03,0.042 -0.046,0.061 -0.995,1.295 -2.21,2.316 -3.511,2.954 -0.374,0.183 -0.816,0.153 -1.162,-0.079 -0.345,-0.231 -0.542,-0.629 -0.515,-1.044 0.151,-2.316 0.228,-4.656 0.228,-6.956 0,-2.166 -0.07,-4.387 -0.206,-6.6 -0.029,-0.472 0.231,-0.916 0.657,-1.122 0.426,-0.205 0.935,-0.132 1.287,0.185 0.116,0.104 0.225,0.178 0.324,0.218 0.05,0.011 0.099,0.017 0.148,0.017 0.65,0 1.664,-1.16 2.387,-3.375 -1.069,-10.586 -3.774,-20.454 -7.71,-28.246 -0.236,1.43 -0.57,2.858 -0.992,4.209 -0.147,0.468 -0.571,0.795 -1.061,0.817 -0.488,0.022 -0.942,-0.266 -1.129,-0.719 -1.466,-3.544 -3.151,-6.744 -5.01,-9.515 -0.358,-0.533 -0.217,-1.255 0.315,-1.615 0.152,-0.103 0.292,-0.237 0.425,-0.409 0.414,-0.582 0.737,-1.427 0.947,-2.461 -3.306,-3.627 -6.961,-5.97 -10.709,-6.887 0.401,0.576 0.831,1.167 1.273,1.774 1.847,2.53 3.755,5.146 4.195,7.711 0.005,0.024 0.008,0.049 0.011,0.073 7.659,11.09 12.05,27.822 12.05,45.946 0,18.332 -4.629,35.522 -12.447,46.5 1.749,0.479 3.376,1.386 4.734,2.746 0.459,-0.444 1.033,-1.013 1.557,-1.569 m 2.235,-1.476 c 0.339,0.103 0.674,0.155 0.996,0.155 1.432,0 2.878,-0.936 4.073,-2.638 0.729,-1.036 1.34,-2.31 1.771,-3.697 -0.749,0.391 -1.538,0.561 -2.304,0.49 C 55.594,3.092 55.557,3.085 55.52,3.078 L 55.519,3.079 C 55.514,3.078 55.509,3.077 55.504,3.076 55.486,3.072 55.467,3.066 55.449,3.062 54.324,2.825 53.356,2.11 52.633,0.987 c -1.1,2.334 -2.299,4.501 -3.582,6.475 0.684,0.636 1.38,1.087 2.046,1.323 M 82.475,-7.353 H 60.787 c -0.808,2.488 -1.72,4.872 -2.731,7.13 0.157,-0.052 0.321,-0.079 0.486,-0.079 0.436,0 0.852,0.188 1.168,0.525 0.716,0.755 0.774,1.999 0.527,2.835 -0.506,1.708 -1.254,3.294 -2.164,4.585 -1.642,2.34 -3.766,3.629 -5.98,3.629 -0.306,0 -0.616,-0.026 -0.927,-0.079 -0.893,1.018 -2.12,2.205 -2.743,2.795 0.006,0.206 0.008,0.412 0.008,0.618 0,7.173 -3.209,13.772 -8.826,18.198 v 0.143 0 0.458 c 0,0.257 -0.005,0.514 -0.011,0.772 -0.003,0.137 -0.007,0.276 -0.011,0.413 0,10e-4 0,0.002 0,0.002 -0.07,2.031 -0.316,4.058 -0.732,6.052 v 0.001 c -0.076,0.364 -0.158,0.727 -0.245,1.089 -0.003,0.012 -0.006,0.024 -0.009,0.036 -0.087,0.36 -0.18,0.719 -0.278,1.076 -0.001,0.001 -0.001,0.002 -0.001,0.003 v 0 c -0.564,2.048 -1.306,4.046 -2.225,5.955 -0.006,0.012 -0.012,0.025 -0.018,0.036 l -0.642,1.223 v 0 l -1.434,2.734 v 0 l -2.61,4.976 v 0 l -1.163,2.216 -1.07,2.04 -1.485,2.831 H 27.67 l -6.852,13.061 -0.03,0.058 c -1.791,3.414 -4.528,6.192 -7.916,8.033 L 1.047,92.437 c 7.671,6.078 12.199,15.366 12.199,25.203 0,17.718 -14.415,32.133 -32.134,32.133 -17.718,0 -32.133,-14.415 -32.133,-32.133 0,-10.202 4.782,-19.676 12.892,-25.738 l -11.297,-5.225 c -3.912,-1.824 -7.17,-4.933 -9.176,-8.756 L -73.858,48.84 c -0.007,-0.011 -0.013,-0.024 -0.018,-0.036 -2.298,-4.775 -3.512,-10.1 -3.512,-15.398 l -10e-4,-0.524 c -3.576,-2.781 -6.23,-6.515 -7.695,-10.832 -2.007,-5.918 -1.569,-12.253 1.235,-17.839 1.603,-3.194 2.492,-6.434 2.642,-9.63 0.031,-0.65 0.09,-1.294 0.174,-1.934 h -39.232 c -0.644,0 -1.166,-0.522 -1.166,-1.165 v -7.289 c 0,-0.237 0.073,-0.469 0.208,-0.664 l 4.845,-6.989 v -62.818 l -4.845,-6.99 c -0.135,-0.194 -0.208,-0.426 -0.208,-0.664 v -7.288 c 0,-0.644 0.522,-1.166 1.166,-1.166 h 46.255 c -0.093,-0.353 -0.187,-0.706 -0.28,-1.055 -1.273,-4.761 -2.588,-9.684 1.669,-12.936 2.212,-1.69 5.946,-1.656 8.689,-1.329 2.255,0.268 4.641,0.497 7.509,0.718 l 3.242,0.25 c 2.743,-1.712 6.253,-3.589 12.599,-4.728 3.436,-0.617 7.022,-0.925 10.734,-0.925 3.626,0 7.372,0.294 11.212,0.883 0.084,0.013 0.164,0.034 0.24,0.064 5.362,0.914 8.824,3.968 11.864,6.738 0.651,-0.919 2.169,-2.574 4.654,-2.574 0.882,0 1.757,0.152 2.602,0.451 0.538,0.191 1.123,0.243 1.69,0.149 1.871,-0.309 5.282,-0.36 8.213,2.38 1.321,-1.23 2.65,-2.271 4.387,-2.408 l 3.626,-0.28 c 2.868,-0.221 5.254,-0.45 7.509,-0.718 2.742,-0.327 6.476,-0.361 8.689,1.329 4.257,3.252 2.941,8.175 1.669,12.936 -0.094,0.349 -0.187,0.702 -0.28,1.055 h 46.242 c 0.644,0 1.166,0.522 1.166,1.166 v 7.288 c 0,0.238 -0.072,0.47 -0.208,0.664 l -4.845,6.99 v 62.809 l 4.852,6.998 c 0.135,0.195 0.207,0.427 0.207,0.664 v 7.289 c 0,0.643 -0.522,1.165 -1.166,1.165 m -197.688,18.715 c 1.445,0.699 6.26,3.314 11.017,9.104 2.948,3.588 6.212,8.851 8.502,16.202 h -39.036 c 2.29,-7.351 5.554,-12.614 8.502,-16.202 2.955,-3.597 5.91,-5.934 7.869,-7.261 1.437,-0.974 2.563,-1.562 3.146,-1.843 M 91.046,46.47 c 0.891,0.674 1.425,1.778 1.426,2.893 v 10e-4 c 0,1.976 -1.601,3.577 -3.577,3.577 h -0.204 c -2.148,0 -3.76,-1.873 -3.551,-4.01 0.024,-0.251 0.037,-0.505 0.037,-0.762 0,-0.303 -0.018,-0.601 -0.052,-0.894 -0.248,-2.164 -2.094,-3.791 -4.272,-3.791 l -0.991,4.909 c -0.293,1.486 -1.21,2.702 -2.702,2.702 h -1.847 c -1.492,0 -2.702,-1.21 -2.702,-2.702 h 2.36 L 73.98,43.484 c -2.178,0 -4.024,1.627 -4.272,3.791 -0.034,0.293 -0.051,0.591 -0.051,0.894 0,0.257 0.012,0.511 0.037,0.762 0.208,2.137 -1.404,4.01 -3.552,4.01 h -0.204 c -1.976,0 -3.577,-1.601 -3.577,-3.577 v -0.002 c -0.019,-1.696 1.264,-3.263 2.929,-3.587 0.546,-0.106 1.117,-0.099 1.656,0.044 -0.49,-0.331 -1.1,-0.548 -1.773,-0.615 -0.97,-0.086 -1.965,0.183 -2.812,0.72 v -6.773 c 2.335,-0.439 4.811,0.8 6.534,2.47 -0.635,-1.139 -1.476,-2.207 -2.561,-3.079 -1.125,-0.905 -2.501,-1.538 -3.973,-1.723 v -5.515 0 c 2.427,0.951 4.55,2.509 6.182,4.487 0.954,1.156 1.74,2.455 2.321,3.859 h 0.007 c 0.671,-0.516 1.404,-0.957 2.187,-1.305 0,0 -0.59,-1.674 -1.646,-3.984 -0.643,-1.406 -1.459,-3.047 -2.419,-4.688 L 70.04,29.061 68.479,26.389 C 67.497,26.54 66.48,26.094 65.948,25.185 l 2.697,-1.577 0.245,-0.142 1.361,-0.796 c 0.532,0.909 0.421,2.015 -0.192,2.795 l 1.561,2.671 0.88,-0.515 c 1.174,2.007 2.143,4.002 2.87,5.634 l -2.383,-12.166 4.43,-2.607 4.425,2.587 -2.379,12.186 c 0.727,-1.632 1.696,-3.627 2.87,-5.634 l 0.88,0.515 1.561,-2.671 C 84.162,24.685 84.05,23.579 84.582,22.67 l 1.361,0.796 0.868,0.507 2.074,1.212 c -0.532,0.909 -1.549,1.355 -2.53,1.204 l -1.562,2.672 1.047,0.612 c -0.96,1.641 -1.776,3.282 -2.419,4.688 -1.056,2.31 -1.646,3.984 -1.646,3.984 0.784,0.348 1.516,0.789 2.187,1.305 h 0.007 c 0.581,-1.404 1.367,-2.703 2.321,-3.859 1.632,-1.978 3.755,-3.536 6.182,-4.487 v 0 5.515 c -2.837,0.332 -5.23,2.407 -6.534,4.802 0.941,-0.902 2.019,-1.628 3.156,-2.076 1.134,-0.451 2.319,-0.592 3.378,-0.394 v 6.785 c -1.359,-0.878 -3.079,-1.079 -4.585,-0.117 1.08,-0.288 2.28,-0.038 3.159,0.651 m -111.759,59.272 c 1.354,0.215 2.697,0.574 3.826,1.43 l -0.146,0.612 c -0.626,0.132 -1.216,0.174 -1.804,0.183 -1.781,-0.018 -3.556,-0.179 -5.119,-1.164 l 0.035,-0.629 c 1.05,-0.505 2.103,-0.568 3.208,-0.432 m -0.847,4.19 c 1.513,0.286 1.501,1.659 1.501,1.659 l -3.368,-0.698 c 0,0 0.264,-1.264 1.867,-0.961 m -4.754,10.169 c 0.255,-0.051 0.619,-0.131 0.872,-0.172 l 0.381,1.587 c -2.166,0.768 -4.658,0.499 -6.612,-0.707 -0.283,-0.177 -0.522,-0.344 -0.77,-0.523 l 0.464,-0.862 c 0.582,0.232 1.083,0.436 1.627,0.574 1.321,0.355 2.706,0.373 4.038,0.103 m 9.132,2.242 c 1.286,0.351 2.524,0.354 3.88,0.2 l 0.187,0.961 c -2.848,1.037 -6.106,0.465 -8.435,-1.483 l 0.91,-1.355 c 1.084,0.69 2.196,1.361 3.458,1.677 m 0.302,-1.495 c -2.169,-0.351 -2.675,-1.857 -2.695,-1.92 l 0.888,-0.284 c 0.003,0.007 0.225,0.613 1.052,1.008 -10e-4,-0.022 -0.004,-0.043 -0.004,-0.066 0,-0.715 0.58,-1.295 1.296,-1.295 0.716,0 1.296,0.58 1.296,1.295 0,0.107 -0.017,0.209 -0.042,0.308 0.571,-0.108 1.019,-0.289 1.255,-0.398 l 0.392,0.847 c -0.634,0.294 -1.924,0.75 -3.438,0.505" style="fill:#c1192c;fill-opacity:1;fill-rule:nonzero;stroke:none" transform="matrix(1.3333333,0,0,-1.3333333,290.78507,264.12347)"/>
    </g>
    <g id="group-MC1" transform="matrix(0.26458333,0,0,0.26458333,-84.225694,112.62427)">
      <g id="group-MC2"/>
    </g>
    <g id="group-MC3" transform="matrix(0.26458333,0,0,0.26458333,-84.225694,112.62427)">
      <g id="group-MC4"/>
    </g>
    <g id="group-MC5" transform="matrix(0.26458333,0,0,0.26458333,-84.225694,112.62427)">
      <g id="group-MC6"/>
    </g>
  </g>
</svg>