<?xml version="1.0" encoding="UTF-8" standalone="no"?>
<svg xmlns:rdf="http://www.w3.org/1999/02/22-rdf-syntax-ns#" xmlns="http://www.w3.org/2000/svg" xml:space="preserve" height="138.32" viewBox="0 0 137.62454 138.32286" width="137.62" version="1.1" xmlns:cc="http://creativecommons.org/ns#" xmlns:dc="http://purl.org/dc/elements/1.1/"><g transform="matrix(1.25 0 0 -1.25 -488.07 434.19)"><g style=""><path d="m458.4 342.21c4.781-0.398 10.092 1.262 13.545-2.058 3.718-4.382 8.1-10.358 14.342-11.487 5.776-2.39 3.784-10.158 6.706-14.607 3.054-4.116 6.971-6.905 6.506-12.615-1.46-5.644-2.722-11.952-0.332-17.529 1.063-6.175-4.515-9.163-6.839-14.342-0.796-5.178-2.456-10.557-7.037-13.213-5.445-2.191-10.093-7.037-13.545-11.486-3.852-3.519-9.96-2.324-14.94-3.519-4.05-1.726-7.569-4.98-12.748-3.519-5.843 2.988-12.349 4.78-19.321 3.984-8.83 0.199-10.889 11.951-18.923 13.744-7.835 2.39-4.249 12.15-9.229 16.864-3.453 3.652-5.909 8.366-4.781 13.546 2.191 4.248 1.328 9.76-0.531 13.876-1.66 7.304 5.91 10.358 8.167 15.603 0.465 6.175 3.32 11.952 8.764 14.674 4.316 1.859 8.566 4.249 10.823 8.1 3.519 4.449 9.959 5.777 15.603 4.183 3.984 0.996 7.503 3.187 11.487 4.117 4.648-0.133 8.233-2.789 12.283-4.316"/><path d="m491.99 309.87c7.038-16.467 2.457-36.784-8.897-49.399-8.233-9.561-19.786-15.138-32.069-16.865-20.052-1.859-37.979 6.906-48.271 23.704-8.697 14.607-8.631 37.248 1.793 50.992 10.358 15.139 28.816 24.501 48.735 21.845 17.462-2.922 32.136-13.877 38.709-30.277" fill="#fff"/><path d="m479.58 308.15c6.44-11.154 4.183-27.289-3.054-37.315-8.433-11.553-23.372-18.06-38.511-15.138-12.283 1.992-24.3 12.35-27.62 24.101-4.914 14.342 0.199 30.278 11.022 39.506 10.092 8.765 26.691 12.018 39.704 6.043 8.101-3.121 14.409-9.628 18.459-17.197"/><path d="m67.727 24.549c-0.165 0.996-0.995 2.323-2.407 1.826 1.244 0.497 1.493 1.741 0.994 2.986 1.08-1.078 1.826-0.995 2.989 0-0.249-0.581-0.58-3.069 0.996-2.986h-1.162c-0.747-0.333-1.162-1.079-1.41-1.826zm11.97 0.972l-1.328 1.577c-0.497 0-1.163-0.746-1.41-0.166 1.492 0.747 0.332 2.158 0.166 2.988 1.245-1.329 2.324 0.082 2.986 0.746 0.583-0.497-0.247-0.912 0-1.576 0.168-0.664 0.914-0.748 1.412-0.996l-1.412-0.748c-0.497-0.664 0.084-1.327-0.414-1.825zm-23.904 1.411v1.41c-0.083 0.83-1.079 0.581-1.576 1.162h0.416c1.411-0.084 1.245 1.577 1.826 2.158v-0.166c0.415-1.41 1.576-0.83 2.572-0.996l-0.83-0.996c-0.082-0.664 0.085-1.329 0.582-1.826-0.912 0.25-2.325 0.497-2.99-0.746zm35.525 2.738c-0.831 1.494-1.911 0.997-2.99 0.416 0.748 0.83 0.333 2.323-0.828 2.572 0 0.249-0.083 0.498 0.166 0.664 1.826-1.161 1.411 1.161 2.656 1.576v-0.414c-0.415-1.577 1.243-1.744 2.323-1.578l-1.577-1.576c0.083-0.581 0.748-1.245 0.25-1.66zm-22.207 1.314c-13.376 0.122-24.687 6.622-32.82 17.442-6.224 8.135-7.137 20.501-5.395 31.041 3.735 11.454 10.957 21.083 22.161 25.563 10.872 5.48 26.806 3.65 36.267-2.82 11.286-5.895 18.016-17.181 19.086-29.88 1.33-0.665 2.83-0.665 3.57 0.83 0.09-0.664-0.16-1.327 0.25-1.826 0.58-0.084 1-0.416 1.58-0.582-1.08-0.083-2.49-1.161-1.58-2.406-0.75 0.83-1.91 1.245-2.99 0.582l0.59 1.99c-0.42 0.331-0.75 0.914-1.25 0.996-0.41-3.236 0.08-6.887-0.33-10.125 1.16-1.079 2.74-0.83 3.57 0-1.25-1.327 0.41-2.241 1.41-2.822h-1.25c-0.91-0.249-0.99-1.244-1.16-1.99-0.08 0.082-0.25 0.248-0.41 0.248 0.16 1.576-1.75 0.913-2.41 1.328l0.58 0.414c1 0.746 0 1.909-0.33 2.406-0.75-2.24-1.74-4.397-2.24-6.805-4.98-12.532-17.432-21.662-31.043-23.238-1.992-0.249-3.945-0.363-5.856-0.346zm-24.437 1.342c0.165 1.08 0.331 2.324-0.996 2.74h0.996c0.83 0.249 1.079 1.077 1.162 1.825 0-1.328 1.41-1.742 2.656-1.825-0.914-0.416-1.743-1.413-0.996-2.574l-1.66 0.83c-0.249-0.581-0.831-0.497-1.162-0.996zm53.781 4.979c0.58 1.66-0.83 1.91-1.826 2.574 0.415 0.581 1.327 0.165 1.826 0.58 0.415 0.581-0.085 1.411 0.414 1.992l1.161-1.576c0.58 0 1.33-0.083 1.83 0.166l-1.25-1.576 0.83-1.578c-1.33 0.663-2.072 0.496-2.985-0.582zm-59.758 1.578c-0.497 1.329-1.493 0.995-2.572 0.746 0.664 0.664 0.746 2.242-0.25 2.822 1.245-1.079 2.159 0.58 2.822 0.83v-0.996c0.167-0.996 1.163-0.663 1.826-0.996-1.327 0-1.742-1.576-1.826-2.406zm67.563 7.387c-0.09 1.327-1.33 2.075-2.41 2.158 0.33 0.166 0.75 0.165 1 0.58 1.41 0.497-0.17 1.577 0.41 2.242 0.33 0 0.5-0.417 0.75-0.666 0.74-1.328 1.74 0.001 2.4 0.416l-0.58-1.992c0.17-0.499 0.67-0.996 1.16-1.162-1.16-0.415-2.49 0.166-2.73-1.576zm-74.367 1.162l-0.581 1.41c-0.582 0.664-1.162-0.498-1.744 0.166l0.58 0.582c0.913 0.664 0 1.494 0 2.24 1.079-1.576 2.159 0 2.989 0.166-1.079-0.996 0.166-2.406 0.996-2.738h-0.996c-0.83-0.249-1.078-1.164-1.244-1.826zm-4.733 10.789c0.166 1.327-0.995 1.992-2.24 1.992 1.66-0.166 1.412 1.908 1.412 2.738 0.664-1.327 1.826-1.161 2.988-0.58l-0.416-0.582c-0.581-0.83 0.333-1.743 0.83-2.24-1.411 0.249-2.075-0.25-2.574-1.328zm-0.994 11.121v1.412c-0.249 0.995-1.494 0.496-1.826 1.16h0.83c0.912 0.333 1.079 1.33 0.996 2.242 0.581-0.747 1.66-1.66 2.738-0.996-0.233-0.464-1.02-2.002-0.185-2.814-0.911 0.481-2.141 0.067-2.553-1.004zm2.553 1.004c0.006-0.004 0.013-0.005 0.019-0.008l0.166-0.166c-0.078 0.05-0.125 0.115-0.185 0.174zm79.281 9.787l0.41 1.576c-0.24 0.83-1.07 0.745-1.57 1.16 0.91 0.415 2.49 0.666 2.4 2.242-0.16-1.576 1.75-2.075 2.74-1.826-1.33-0.249-1.66-1.826-0.99-2.822-0.75 1.162-2.24 0.499-2.99-0.33zm-77.684 0.746l-0.748 0.83c-0.83 0.581-1.578-0.249-2.242-0.58v0.33c1.578 1.162-0.415 1.743-0.746 2.822 1.328-0.912 2.075 0.664 2.74 1.41v-0.414c0-1.08 1.16-1.66 2.239-1.41-0.249-0.499-1.077-0.582-1.409-1.162 0-0.581-0.082-1.327 0.166-1.826zm73.284 8.383c0.75 1.327-0.25 2.073-1.16 2.572 0.16 0.331 0.58 0.166 0.83 0.25 1.24-0.249 1.08 1.244 1.33 1.99 0.41-1.245 1.49-1.826 2.65-1.826-0.33-0.331-0.66-0.664-0.99-0.83-0.34-0.498 0.33-1.161 0.33-1.742-0.83 0.664-2.24 0.582-2.99-0.414zm-68.471 1.576l-0.83 0.996c-0.581 0.415-1.329 0-1.992-0.166 1.162 0.996 0.498 2.158-0.164 2.988l1.576-0.416c0.663 0.415 0.662 1.161 1.16 1.576-0.083-1.492 0.831-1.991 1.992-2.406l-1.326-0.746c-0.996-0.499 0.248-1.329-0.416-1.826zm66.481 3.818l-0.75 1.162c1.25 0.58 1.49 2.572 2.16 3.569l0.58-0.748-0.75-0.58c-0.16-0.995 0.92-1.244 1.41-1.661 0.5 0.25 0.25 0.747 0.58 0.997 0.42-0.499 0.84-0.499 0.75-1.163-1.33 0.083-2.74-0.746-3.98-1.576zm0.41 1.162c0.33 0.249 1.41-0.083 1 0.83-0.08 0.249-0.42 0.166-0.58 0.166l-0.42-0.996zm-63.26 1.317c-0.976-0.114-2.013 0.259-2.469 1.256 0.166 0.995-0.415 2.239 0.58 2.819 0.913 0.42 2.408 1.08 3.238 0 0.249-0.83 1.161-1.325 0.746-2.403-0.207-0.955-1.12-1.558-2.095-1.672zm-0.207 0.603c0.95-0.051 1.431 0.683 1.72 1.481-0.082 1.081-0.912 1.661-1.742 1.991-0.663-0.16-1.411-0.5-1.66-1.16-0.249-1.078 0.499-1.826 1.246-2.239 0.156-0.042 0.3-0.065 0.436-0.073zm60.482 0.073l-0.996 0.996c1.329 0.497 2.571 1.323 2.571 2.983 0.67 0 0.91-0.66 1-0.99-1.08-0.25-2.326-1.662-2.575-2.989zm-2.793 2.419c-0.786 0.09-1.501 0.84-1.937 1.4 1.245 0.66 1.66 1.91 2.324 3.15 0.499 0.25 0.665-0.41 0.996-0.58-0.083-0.08-0.167-0.25-0.332-0.17-0.583-0.16-0.914-0.49-0.998-0.99 0.084-0.42 0.499-0.75 0.998-0.67 0.912-0.08 1.328 2.08 1.992 0.42-1.162-0.08-1.992-1.41-2.242-2.41-0.27-0.14-0.539-0.18-0.801-0.15zm-53.394 0.15c-0.498 1.5-1.08 2.66-2.325 3.41 0.249 0.41 0.665 0.58 1.163 0.58-0.415-0.75 0.414-1.58 0.996-1.99 0.581 0.82-0.165 1.49 0 2.4 0.665-0.25 1.576-0.75 2.156-0.58v0.17c-0.415 0.41-0.414 1.49-1.326 1.24v0.42c0.497-0.17 0.663 1.07 1.162 0.33-0.166-0.92 0.664-1.91 1.41-2.74 0.166-0.42 1.081 0.17 0.748-0.58-0.996-0.75-2.076 0.5-3.154 0.75-0.332 0.08-0.416-0.25-0.416-0.58-0.167-0.92 1.246-2.74-0.414-2.83zm53.547 0.42c0.187 0 0.358 0.1 0.482 0.41 0.166 0.58-0.581 0.83-0.83 1.16-0.498-0.08-0.664-0.66-0.58-1.16 0.258-0.1 0.615-0.4 0.928-0.41zm-3.729 1.85c-0.759-0.11-1.786 1.3-2.346 1.55l0.582 0.58c0-0.33-0.167-0.74 0.164-0.99 1.079 0.74 1.995 1.99 1.829 3.4 0.497 0.16 0.829-0.33 1.162-0.58l-0.748-0.58c-0.165-1.17-1.66-1.99-0.83-2.99l0.83 0.33c-0.166-0.48-0.39-0.68-0.643-0.72zm-44.59 1.14c-0.249 0.91-0.995 2.98-2.24 3.4-0.084 0.58 0.663 0.58 0.994 0.83-0.497-1.41 0.83-1.49 1.246-2.41 0.995 1.16-0.332 2.82 0.58 3.74 0.664-1.17 1.826-2.49 2.823-3.32-0.249-0.67-0.913-0.25-1.245-0.67 0 0.25 0 0.5 0.248 0.67l-1.41 1.57c-0.663-1.16 0.498-3.23-0.996-3.81zm40.004 1.24l-1.412 1c0.914 0.83 0.914 2.9 0.832 3.98l0.828-0.41-0.662-0.83c0.166-0.75 1.41-1.33 2.24-0.75v0.75l1.162-0.42c-0.912-1-2.905-1.66-2.988-3.32zm-0.414 1.16c0.415 0.08 0.664 0.58 0.996 0.83 0.249 0.5-0.333 0.33-0.582 0.58h-0.166l-0.248-1.41zm-34.799 0.51c-0.069 0.01-0.143 0.03-0.226 0.07 0 1.25-0.582 2.99-1.827 3.57 0.249 0.5 0.748 0.25 0.997 0.67 0.416-0.92 0.746-3.16 2.24-3.66-0.509 0-0.699-0.69-1.184-0.65zm30.451 0.49c-0.715 0.06-1.463 0.45-1.795 0.99 0.83 0.92 1.66 2.66 1.577 3.82l1.246-0.83c-0.582-0.16-1.33-0.33-0.998-1.16 0.166-0.17 0.251-0.5 0.584-0.42 0.662 0 1.076-0.74 0.994-1.41-0.208-0.79-0.892-1.05-1.608-0.99zm0.153 0.57c0.362 0 0.687 0.05 0.875 0.42 0.33 0.75-0.582 1.08-0.998 1.17-0.415-0.25-1.078-1.33-0.248-1.58 0.124 0 0.25-0.01 0.371-0.01zm-26.2 0.82c-0.154-0.01-0.314 0-0.48 0.02-0.249 1.16-1.744 2.57-2.574 3.4l1.246 0.33c0-0.16 0.001-0.5-0.248-0.58l0.414-0.41c0.581 0.16 1.327-0.34 1.576 0.41 0.581 0.5-0.248 1-0.414 1.25 0.499 0 1.161 0.74 1.41 0.16-0.249-0.91-0.416-2.9 0.248-3.98-0.311-0.37-0.714-0.56-1.178-0.6zm18.532 0.51c-0.135 0.01-0.275 0.04-0.42 0.09-1.245 0.33-1.91 1.66-1.66 2.99 0.415 1.08 1.492 1.99 2.82 1.57 1.494-0.33 1.91-2.07 1.412-3.4-0.509-0.51-1.208-1.33-2.152-1.25zm0.129 0.66c0.138-0.01 0.275 0 0.408 0.02 0.636 0.09 1.168 0.49 1.199 1.24 0.333 1.16-0.332 1.57-1.162 2.15-1.245 0.5-1.992-0.74-2.24-1.57-0.182-1.14 0.828-1.8 1.795-1.84zm-5.118 0.01c-0.753 0.03-1.562 0.47-1.822 0.42 0.331 1.32 0.994 2.9 0.164 4.15 0.415 0 0.914 0.16 1.246-0.17l-0.664-1.41c0.084-0.58 0.747-0.66 1.244-0.58 0.83 0.33 0.415 1.24 0.747 1.82 0.25-0.08 0.913 0.09 0.83-0.25-0.83-0.66-0.995-2.24-0.58-3.4-0.281-0.47-0.712-0.59-1.165-0.58zm-13.699 0.06c0.101-0.01 0.215 0.04 0.34 0.19 0 0.33-0.083 0.75-0.414 1-0.084-0.17-0.251-0.25-0.416-0.25 0-0.32 0.187-0.91 0.49-0.94zm7.311 0.36c0.499 1.16 0.748 3.15-0.248 4.15h1.576v-0.34h-0.332c-0.415-0.24-0.166-0.66-0.248-0.99 0.249-0.67 0.911-0.33 1.41-0.42 0.664-0.25 0.913-0.91 0.83-1.57-0.415-1.25-1.992-0.67-2.988-0.83zm5.56 0.16c0.499 0.17 1.164-0.25 1.412 0.42 0.083 0.58-0.249 0.58-0.664 0.83h-0.582l-0.166-1.25zm-4.017 0.24c0.377 0.03 0.718 0.22 0.781 0.59 0.249 0.66-0.331 0.83-0.746 1h-0.416v-1.58c0.124-0.02 0.255-0.03 0.381-0.01z" transform="matrix(.8 0 0 -.8 390.45 347.35)" fill="#fff"/><path d="m72.559 33.902c-0.33 4.149-0.912 8.466-0.995 12.368 0.167-4.233 1.245-8.301 0.995-12.368zm-6.971 0.166l1.826 14.194-1.41-14.194h-0.416zm17.512 2.243c-1.412 3.485-3.484 7.552-4.397 11.121 1.659-3.652 3.235-7.553 4.397-11.121zm-7.553 0.164l-1.824 9.795c0.912-3.154 1.493-6.642 1.824-9.795zm3.154 0.416c-0.497 3.403-1.992 6.639-2.572 9.711l2.988-9.711h-0.416zm-9.545 0.58l0.416 9.545v-8.963l-0.416-0.582zm-9.711 0.832c1.079 4.232 2.74 8.381 3.737 12.697h0.414c-1.162-3.984-2.407-8.133-3.569-12.117l-0.582-0.58zm26.893 0.33c-1.744 3.404-4.399 6.725-5.229 9.961 1.494-3.32 4.068-6.557 5.229-9.961zm-30.293 1.412l5.725 12.531c-1.909-4.15-3.236-8.714-5.725-12.531zm7.717 2.406c0.248 2.49 1.079 4.815 1.66 7.139l-1.66-7.139zm-10.291 0.582l6.556 11.203c-1.992-3.817-4.065-7.8-6.556-11.203zm34.609 0.248c-1.577 1.825-3.153 3.985-4.564 6.309 1.411-1.743 3.485-3.819 4.564-6.309zm4.565 0.166c-1.412 1.827-3.569 3.487-5.145 5.811 1.825-1.411 3.982-3.818 5.145-5.811zm1.412 3.985c-0.664 0.165-1.412 0.829-1.578 1.41 0.665-0.084 1.328-0.83 1.578-1.41zm-21.137 0.146c-5.348 0.086-8.101 4.842-12.313 7.82-3.651-1.328-7.801-1.077-10.955 1.163-3.403-3.237-7.883-6.224-12.531-7.719-2.739 4.897-5.229 9.878-5.976 15.521-2.24 16.683 5.976 31.288 19.503 38.677 10.375 6.06 26.477 6.06 36.852 0 14.28-7.97 22.74-23.075 19.75-40.255 1-8.465-8.547-9.546-13.775-12.533-4.399-2.158-8.383 3.403-12.118-0.248-2.49 0.415-3.983-1.412-5.974-2.158-0.882-0.197-1.699-0.28-2.463-0.268zm-19.863 0.848c1.161 1.577 2.156 3.902 3.982 4.98l-3.982-4.98zm-3.571 0.83c0.83 1.744 3.321 3.32 4.151 4.15-1.079-1.327-2.822-3.154-4.151-4.15zm50.924 57.364l-4.174 3.01 0.659 0.91 0.962-0.69 2.253 7.84-0.983 0.71 0.738 1.03 3.225-2.33-0.74-1.02-1 0.72-0.69-2.32 2.93-2.11 1.94 1.42-1.01 0.73 0.73 1.02 3.21-2.31-0.75-1.02-0.91 0.66-6.69-4.64 0.96-0.7-0.66-0.91zm-1.373 2.38l3.553 2.64-2.32 1.68-1.342-4.25 0.109-0.07z" transform="matrix(.8 0 0 -.8 390.45 347.35)"/><path d="m71.564 48.428c-0.83 0.415-0.084-0.001-0.414 0.58-0.665 0.249-1.909-0.498-1.992 0.582l2.821 0.248c-1.079 0.331-2.406 0.166-3.569 0.166l0.748 0.416c-0.206 0.136-0.44 0.185-0.685 0.199 0.29 0.033 0.573 0.095 0.933 0.215v0.166c-3.237-0.498-2.491 1.742-4.648 1.826 0.499 0 1.079-0.166 1.41 0.166-1.743 0.083-2.241 0.582-3.568 1.412l0.166 0.164-0.746 0.416c0.166 0 0.497 0.001 0.58 0.248-3.403 0.998-5.477 4.234-8.797 6.973l1.826 2.572c1.161-0.746 2.821-0.249 4.148-0.416 3.238 1.827 6.31-2.571 9.381 0.416 3.485-2.738 7.551 0 11.369 0-0.083-0.746 0.167-1.577-0.166-2.242l-0.996 0.83-0.248-0.164c-1.826 1.743-3.154-1.412-5.394-0.666-0.914 1.163-3.32 0.25-4.731 0.416v-0.166c-2.822-0.249-4.814-1.162-7.553-0.83l-0.83-0.58 0.166-0.166c-0.25-0.083-0.583 0.081-0.748-0.25 1.245 0 2.49-0.747 3.735-0.166v0.416h0.996v-0.416c0.166-0.249 0.415-0.248 0.664-0.248 0.082 0.249 0.498 0.331 0.332 0.664 2.656-0.913 3.487 1.659 5.81 0.58 2.49-2.075 6.141 1.661 7.801-1.576 1.578-0.249 2.075 0.248 3.569 0.996 0.498 1.079-1.161 2.24 0.416 2.986v-0.248c0.332-0.746 1.161-0.249 1.742-0.416 1.66 0.581 3.652 1.412 4.98 1.66l-0.166-0.248 4.399-0.166-1.244 0.414c0.996 0 2.073-0.166 2.986 0.166-0.24 0.088-0.503 0.141-0.779 0.172 1.188-0.036 2.359-0.037 3.351 0.41-0.166 0.332-0.579 0.166-0.994 0.249l0.248 0.167c-0.331 1.41-2.491 0.664-3.568 0.581l0.326-0.182c-0.298-0.034-0.545-0.139-0.74-0.399 0.165-0.083 0.346-0.136 0.539-0.167h-1.535l0.166 5.562c0.663-0.249 2.736-0.666 3.982-0.25v0.25h1.826c1.131 1.567 2.971 1.234 4.781 0.994-1.02 0.005-2.01-0.031-2.79-0.248l0.17-0.166c1.49-0.136 3.81 0.271 4.96-0.166h-3.41c1.16-0.129 2.27-0.482 3.42-0.002 0.25-0.096 0.47-0.219 0.59-0.412-3.24-0.084-5.81 0.164-8.965-0.25 2.905-0.332 5.975-0.084 8.965-0.166l-10.709-0.166v-0.248l2.572-0.166c-0.247-0.084-0.662 0.165-0.828-0.25l0.248-0.166-4.564-0.166c3.568-0.748 8.221-0.248 12.281-0.414l-3.32-0.25c0.4-0.256 0.87-0.359 1.37-0.397l-8.339-0.183c3.652-0.415 7.639 0.081 11.289-0.416-0.33 0-0.83 0.166-1.16-0.166 0.12-0.25 0.76-0.217 0.97-0.186l-0.81-0.644-9.709 0.248-0.58-0.414c2.906-0.332 6.059-0.166 9.129-0.166-1.58-0.249-3.32-1.411-5.561-1.245l0.416-0.414-2.822-0.168 1.826-0.414c-0.166-0.082-0.248-0.165-0.248-0.414l-4.98-0.168c0.331-0.331 0.995-0.166 1.41-0.166l-1.41-0.414c0.828-0.331 1.823-0.167 2.818-0.25-0.005-0.106 0.018-0.792 0.584-0.58-0.333-0.746 0.496-0.912 0.58-1.576l0.416 0.414-0.166 0.166h0.748c0.029 0 0.049 0.009 0.074 0.012-0.189-0.16-0.357-0.351-0.49-0.592h-0.332c-0.83-1.079 0.58-1.328 0.996-1.992 0-0.415 0.083-0.914-0.416-1.162 0.416-0.333-0.166-1.494 0.746-1.244 1.079 1.493 3.491 0.497 4.231 1.576-0.58-1.992-3.067-0.331-3.565-2.573-2.159-2.075-2.657 1.827-4.648 0.997-0.249-2.657-2.241-4.399-4.151-5.977-1.825-0.249-2.739 0.498-4.398 0.58 0.58 0.084 1.329-0.081 1.826 0.25-1.991-0.082-3.07 0.912-4.98 0.996-1.992 1.66-4.979 2.241-6.225 4.399-2.406 0.498-4.398 3.319-6.557 3.568v-0.58h-0.414c-0.082-1.909-2.824-2.159-3.736-3.652 1.66-0.913 3.239 0.995 4.566-0.166 0.25 0.082 0.166 0.415 0.166 0.582 0.664 0.165 1.66-0.334 1.825 0.414 2.906 0.165 4.648-2.49 7.138-3.403-0.995-0.663-2.489-1.495-2.738-2.574-1.163-1.245-3.071-3.235-5.395-2.986zm34.436 23.734c0 0.001 0 0.001-0.01 0.002h0.02c0-0.001-0.01-0.001-0.01-0.002zm-35.432-21.908l2.157 0.166h-2.987l0.83-0.166zm-15.105 4.73c-0.415 0.747-1.411 0.248-1.992 0.414-1.494 0.665-2.076 1.163-2.823 1.827l2.823 4.15c1.495-1.577 2.988-3.073 4.564-4.566-0.83-0.58-1.66-1.411-2.572-1.825zm16.682 0c0.417 0.243 0.426 0.354 0.339 0.446 0.233 0.157 0.536 0.193 0.868 0.185-0.285 0.026-0.556 0.079-0.793 0.199v0.416h-0.995c0.333 0 0.416-0.415 0.831-0.25-0.339-0.338-0.032-0.424 0.089-0.55-0.143-0.098-0.259-0.239-0.339-0.446zm2.205 0.559c0.214-0.011 0.423-0.01 0.617 0.021-0.415 0.042-0.852 0.022-1.268 0.032 0.215-0.018 0.436-0.042 0.651-0.053zm18.711 2.43h1.41l-1.826 0.248 0.416-0.248zm-14.112 0.58l2.408 0.248h-2.654l0.246-0.248zm4.401 0c-0.167 0.415-0.831 0.165-1.246 0.248 0.333-0.331 0.831-0.165 1.246-0.248zm0.332 0h4.398l-1.742 0.414c0.165 0.332 0.579 0.167 0.994 0.25h-2.24c0.331-0.083 0.83 0.082 0.996-0.25l-2.406-0.414zm5.81 0h4.979c0.413 0.996-0.829 0.499-1.41 0.664l0.248-0.25c-1.412-0.664-2.242 0.665-3.985 0.25 0.249-0.083 0.582 0.082 0.748-0.25l-0.58-0.414zm8.916 3.627c0.07 0.173 0.045 0.415 0.045 0.605-0.049 0.098-0.12 0.15-0.201 0.178 0.504-0.019 1.015-0.055 1.365 0.236l-0.748 0.334c1.161-0.415 1.581 0.912 2.741 0.414-0.46-1.17-2.081-1.07-3.202-1.767zm-4.758 0.289c0.6-0.029-0.072 0.752 0.655 0.896h-0.996v-0.83c0.145-0.041 0.256-0.062 0.341-0.066zm-3.994 0.316h0.416v0.58l-0.416-0.58zm-41.828 2.158v0.366c0.223-0.1 0.378-0.051 0.483 0.078-0.165-0.137-0.34-0.272-0.483-0.444zm0.483 0.444c0.007 0.006 0.014 0.013 0.021 0.019-0.006-0.008-0.015-0.011-0.021-0.019zm0.021 0.019c0.247 0.342 0.221 1.114 0.324 1.114 0.213-0.584-0.023-0.859-0.324-1.114zm-0.504-0.097c-0.052 0.023-0.117 0.072-0.178 0.113l0.178 0.101v-0.214zm-0.178 0.113l-0.404-0.229v0.58l0.248-0.25c0.061-0.051 0.103-0.065 0.156-0.101zm-9.16-0.293c-0.747 0-1.453 0.104-1.951 0.394 1.495 0.25 2.989 0.5 4.15-0.164-0.663-0.125-1.452-0.23-2.199-0.23zm52.578 0.228l-0.582 25.067h1.826l-0.83-25.067h-0.414zm-45.814 0.166c-0.177 0.639-0.059 1.013 0.178 1.272-0.046-0.407 0.043-0.693 0.236-1.272h-0.414zm0.178 1.272c0.013 0.117 0.035 0.24 0.072 0.389 0.092-0.031 0.162-0.091 0.225-0.161-0.109-0.067-0.213-0.136-0.297-0.228zm0.297 0.228c0.176 0.11 0.354 0.213 0.544 0.299-0.489-0.39 0.21-0.976-0.023-1.547-0.202 0.338-0.246 0.943-0.521 1.248zm0.544 0.299c0.089 0.071 0.212 0.137 0.393 0.194-0.116-0.073-0.257-0.132-0.393-0.194zm35.416-1.383c-0.497 0.83 1.079 1.079 0.25 1.827-0.582 0.166-0.998-0.251-1.412-0.416-0.581 0.912-1.825-0.747-1.576 0.996 0.996 0.665 2.656 0.414 3.735 0.166 0.248-0.997-0.333-1.826-0.166-2.573h-0.831zm-41.166 0.415v7.386h0.332l-0.166-7.386h-0.166zm36.237 0.441c-0.117 0-0.194 0.037-0.215 0.141 0.497 0.581 1.907-0.332 1.824 0.83-0.165 0.083-0.25 0.248-0.416 0.166-0.664 0.248-1.244 0.332-0.994 0.996h0.58c1.245 0 0.83-1.162 0.83-1.992-0.56 0.186-1.259-0.141-1.609-0.141zm-10.592 0.141l-1.16 0.248 4.728-0.248h-3.568zm7.803 0.414c-0.333 0.831-1.576-0.083-1.576 0.996 0.331 1.078 2.073 0.415 3.152 0.582 0.83-1.66-1.328-0.747-1.576-1.578zm-26.477 0.166c-0.497 0.166-0.746 1.08-0.664 1.412 0.499-0.332 0.748-0.747 0.664-1.412zm17.514 0.414v0.998h0.166v-0.998h-0.166zm-1.246 0.002l0.25 0.996v-0.582l-0.25-0.414zm26.558 0c-1.66 0.415-3.153 1.492-4.398 2.406-0.415 0.912-2.489-0.25-1.99 0.996l-22.909 0.414 0.415 0.582c1.991-0.581 2.075 1.661 3.32 2.574 0.082-0.498-0.083-1.163 0.25-1.578 0.166-1.079 1.409-0.664 2.156-0.83 1.578 0.913 0.332 2.823 0.996 3.984h0.582v-1.328c-0.415-1.908 0.58-2.988 2.24-2.988 2.49 0.748 0.913 4.234 1.411 5.977-3.652 2.821-8.383 4.48-12.782 6.14 0.167 0.249 1.745-0.416 2.825-0.166 1.161-0.25 2.323-1.079 3.318-1.41 0.415 0.995 2.656-0.416 2.988 0.994 0.166-0.331-0.166-0.58-0.332-0.83 0.499-0.58 1.328-0.912 2.324-0.746v-0.414c0.83 0.249 0.664-1.245 1.411-0.58 0.753 0.602 0.271 1.529-0.258 2.133 1.471-0.293 3.005-0.461 4.656-0.393v-0.414l1.412-0.166c-0.581-0.084-1.329 0.165-1.826-0.166 0.522-0.29 1.084-0.255 1.658-0.236-0.103-0.026-0.196-0.073-0.248-0.178 0.415-0.83 1.162-0.084 0.996-0.996-0.166 0-0.497 0-0.58-0.25l0.58-0.33-1.162-0.83 0.996-1.162c-0.249 0-0.498-0.002-0.664-0.25 1.495-0.415 2.075-1.659 3.236-2.407-0.415 0-0.911 0.166-1.244-0.166 3.735-0.747 5.479-6.142 10.209-3.57 0.415-1.41-0.083-2.405 0.414-3.816zm-12.533 13.955c0.223 0.056 0.521-0.014 0.748-0.014-0.251 0.025-0.5 0.022-0.748 0.014zm-5.9 1.375c-0.096 0.019-0.19 0.04-0.285 0.06l0.128 0.129c0.054-0.053 0.103-0.128 0.157-0.189zm-0.285 0.06l-0.452-0.453c0 0.25 0.082 0.5-0.168 0.582 0.204-0.048 0.413-0.085 0.62-0.129zm27.433-14.976l2.245 0.166h-3.407l1.162-0.166zm-46.129 0.06c-1.192-0.073-1.582 0.987-2.672 1.35l4.399-0.248c-0.331-0.498-0.912-0.415-1.162-0.996-0.208-0.062-0.394-0.095-0.565-0.106zm15.244 0.096c-0.902-0.01-1.774 0.094-2.396 0.426l4.98-0.168c-0.747-0.125-1.681-0.248-2.584-0.258zm-7.437 0.248c-0.768-0.01-1.433 0.053-1.682 0.426h3.985v-0.416c-0.664 0.083-1.535 0-2.303-0.01zm37.328 0.592l3.819 0.166h-5.813l1.994-0.166zm-19.34 0.166v0.664c0.249 0 0.498 0.001 0.664-0.248 0-0.25-0.415-0.334-0.664-0.416zm1.826 0v0.664h0.166c0.167-0.166 0.248-0.248 0.248-0.414-0.248 0-0.331-0.084-0.414-0.25zm-31.703 0.416v0.83h0.248v-0.83h-0.248zm-3.156 0.248l-0.174 0.598c0.079-0.137 0.14-0.326 0.174-0.598zm-0.174 0.598c-0.497 0.863-1.721-0.517-1.65 1.56 0.248 0.084 0.664-0.166 0.83 0.166-0.249 0.498-0.747 0.414-1.162 0.414-0.083 1.494 1.328-0.165 1.992 0.582 0.079-0.792 0.904-0.389 0.98-1.215-0.188 0.151-1.124 0.161-1.396-0.113l0.406-1.394zm0.99 1.507c0.041-0.032 0.058-0.069 0.014-0.113 0 0.046-0.01 0.074-0.014 0.113zm3.584-1.773c0 0.664-0.166 1.493 0.166 1.992 0.997 0 2.076 0.167 2.989-0.166-0.249-0.665 0.496-0.913 0.248-1.578-0.747-0.331-2.24-0.164-3.403-0.248zm4.149 0v1.992h0.582c0.249-0.581 0.663-1.328 0.248-1.992h-0.83zm24.844 1.6c0.801-0.061 1.372 0.403 1.88 1.056l-0.58 0.332c0.027 0.134 0.093 0.186 0.172 0.215-0.293-0.015-0.59 0.004-0.836 0.199l1.412 0.416c-0.996 0.167-2.406-0.333-3.154 0.414-0.664-0.996 0.249-1.824 0.748-2.572 0.125-0.031 0.243-0.052 0.358-0.06zm-4.108 0.166c1.128 0.05 1.86 1.513 1.424 2.882-0.166 1.245-1.742 1.576-2.82 1.991-0.25-1.41-0.416-3.238 0.166-4.399 0.435-0.352 0.854-0.491 1.23-0.474zm30.137 0.339c-0.47 0.013-0.95 0.071-1.44 0.135 0.94-0.004 1.9-0.04 2.77 0-0.42-0.115-0.87-0.147-1.33-0.135zm-19 0.301c-2.325 3.486-7.058 4.068-6.393 9.379-0.665 1.245-2.656 0.747-3.32 1.992 0 0.581 0.829 1.328 0 1.826-1.079 0.582-0.58 2.49-0.414 3.569l5.146 0.166v0.416c1.743 0 3.237 0.083 4.233-0.166-0.333-1.576-0.333-3.487 0-4.981 0.747 0 1.66-0.164 2.324 0.168 0.996 1.577-1.33 5.809 1.99 5.145l0.416-14.276-3.982-3.238zm-5.192 0.815c0.076-0.006 0.149-0.005 0.211 0.015-0.07 0-0.16-0.007-0.238-0.013 0.009-0.001 0.018-0.002 0.027-0.002zm-24.107 0.763c-8.796-0.083-16.101 0.25-24.648 0.416 8.878 0.167 16.183-0.251 24.648-0.416zm-13.557 0.93c-0.631-0.028-1.113 0.772-0.386 1.062 0.663 0.249 0.499-0.581 0.664-0.996-0.094-0.041-0.187-0.062-0.278-0.066zm-3.955 0.066l0.248 0.83c0.332-0.166 0.084-0.581 0.166-0.83h-0.414zm13.196 0l-0.664 1.245 0.996-1.245h-0.332zm-4.399 0.248c-0.074 0.312-0.192 0.659-0.305 1 0.139-0.32 0.255-0.649 0.305-1zm-0.305 1c-0.55 1.273-1.587 2.389-1.521 3.981 0.204-0.682 1.004-2.414 1.521-3.981zm-7.248-0.834c-0.166 1.578-2.156 2.076-1.41 3.819 0.01 0.107-0.014 0.2-0.052 0.287 0.106-0.087 0.248-0.14 0.466-0.121-0.248-1.245 0.746-2.572 0.996-3.985zm-1.462 4.106c-0.082 0.067-0.144 0.153-0.184 0.258 0.079-0.077 0.141-0.163 0.184-0.258zm-0.184 0.258c-0.461 0.448-1.347 0.634-0.346 1.197 0.254-0.253 0.2-0.816 0.346-1.197zm49.519-4.018c0.675-0.039 0.928 0.724 0.928 1.233v1.41h-1.41c-0.249-0.748-0.498-1.993 0.166-2.575 0.114-0.041 0.22-0.062 0.316-0.068zm-4.427 0.067c0.459 0.007 0.895 0.086 0.957 0.584-0.25 0.663 0.498 2.074-0.58 1.992h-0.664l-0.166-2.575c0.145 0 0.3-0.004 0.453-0.001zm1.953 0.001h0.996c0.332 0.748 0.166 1.743 0.166 2.575h-1.162v-2.575zm-49.797 0.999c-1.678 0.138-0.663 1.334-0.791 2.304 0.326-0.756 0.722-1.422 0.791-2.304zm-0.791 2.304c-0.072 0.168-0.145 0.337-0.205 0.518 0.131-0.158 0.181-0.336 0.205-0.518zm19.299-1.31l-1.162 2.408c0.248 0.332 0.997 0.082 0.748 0.746l0.58-0.746-0.332-0.416c-0.499-0.665 0-1.411 0.166-1.992zm38.426 0v12.119l1.412-0.166v-10.955l-1.412-0.998zm-49.797 0.168c-0.215 0.175-0.321 0.374-0.364 0.582l0.364-0.582zm-0.364 0.582l-0.05 0.082c0.017 0.026 0.024 0.052 0.037 0.078 0.002-0.054 0.002-0.107 0.013-0.16zm-0.013 0.16c-0.006 0.128 0.009 0.256 0.043 0.385 0.023-0.129 0.02-0.257-0.043-0.385zm0.043 0.385c-0.157 0.856-1.882 1.669-0.828 1.529l1.578-0.25c-0.234-0.28-0.615-0.771-0.75-1.279zm12.773-0.371c-0.176-0.032-0.405 0.031-0.654 0.072 0 0.166-0.083 0.498 0.166 0.582 0.25 0 0.665 0.166 0.83-0.166-0.041-0.332-0.165-0.457-0.342-0.488zm-5.053 0.074l-0.58 1.99 0.746-0.164-0.166-1.826zm32.534 1.113c0.137-0.018 0.302-0.005 0.5 0.047l0.248 2.822c-0.582 0-1.328 0.084-1.41-0.58 0.072-0.509-0.301-2.162 0.662-2.289zm2.601 0.039c0.836 0.163 0.409 1.524 0.553 2.25v0.58h-1.244c-0.248-0.83-0.415-2.075 0.25-2.822 0.176-0.031 0.322-0.031 0.441-0.008zm-51.068 0.008l-0.582 2.656 0.582-1.66v-0.996zm45.812 0h0.83l0.166 2.822h-0.996v-2.822zm7.489 0.174c0.761-0.07 1.132 0.585 1.06 1.238-0.167 0.58 0.499 1.825-0.58 1.576-0.83 0.333-1.078-0.582-0.996-1.162l0.166-1.576c0.125-0.042 0.241-0.066 0.35-0.076zm-36.205 0.656l0.416 0.83 0.248-0.83h-0.664zm-3.153 0.416c-0.664 0-0.418 0.911-0.168 1.16 0-0.415 0.749-0.995 0.168-1.16zm1.824 0.414l-0.828 2.158c0.415-0.082 1.078 0.167 1.41-0.166 0.083-0.83-0.167-1.493-0.582-1.992zm46.397 0.166l-0.25 8.549c0.996 0.249 2.406 0.084 3.236-0.166-0.747-2.905 1.915-8.632-2.986-8.383zm-59.012 0.58c-1.577 0.748-0.496 2.49-1.326 3.57 0.249-0.166 0.415-0.498 0.746-0.332-0.664-1.161 0.331-2.158 0.58-3.238zm8.217 0c-0.499 0.581-0.829 1.495-0.414 2.242 0.331-0.332 0.414-1.326 1.16-1.244v-0.998h-0.746zm8.758 0.399c-1.206-0.051-2.388 0.307-3.197 1.179h6.142c-0.249-0.581-1.247-0.332-1.744-0.996-0.394-0.104-0.799-0.167-1.201-0.183zm-9.754 0.017c-0.086 0.046-0.152 0.096-0.209 0.151 0.066-0.051 0.119-0.103 0.209-0.151zm-0.209 0.151c-0.843 0.648 0.137 1.486-0.787 2.255 1.7-0.076 0.022-1.52 0.787-2.255zm-4.19 0.431l-0.166 1.824 0.332-0.414-0.166-1.41zm25.999 0.217c-0.773 0.088-1.457 1.147-1.514 1.775 0.249 0.165 0.331 0.497 0.58 0.414v-0.414c0.249-0.663 1.495-1.992 1.992-1.162-0.337-0.492-0.707-0.653-1.058-0.613zm-1.522 0.002c-0.159 0.051-0.097 0.298-0.408 0.361h0.416c0.082-0.083 0.248-0.167 0.248-0.332-0.124-0.041-0.203-0.046-0.256-0.029zm-21.656 0.029c-0.995 0.58-1.908 0.996-0.994 2.158 0.663-0.415 1.244-1.66 0.994-2.158zm29.631 0l-0.166 0.582 0.414-0.416-0.248-0.166zm2.074 0.156c-0.482-0.004-1.181 0.581-1.492 0.84-0.25 0.084-0.25 0.581 0 0.748 0.663-0.25 1.077-1.495 1.99-0.748 0-0.622-0.209-0.837-0.498-0.84zm28.385 0.176c-1.08 0.167-2.16 0.168-3.15 0.416l0.16 5.229c1.25-1.744 2.41-3.57 2.99-5.645zm-22.52 0.59c1.005 0.074 0.152 1.746 0.443 2.399h-0.996v-2.325c0.228-0.062 0.41-0.084 0.553-0.074zm-32.59 0.074c-0.172 0.138-0.21 0.346-0.195 0.549l0.195-0.549zm-0.195 0.549l-0.219 0.613h0.58c-0.194-0.048-0.34-0.325-0.361-0.613zm29.41-0.549h0.83c0.331 0.582 0.166 1.411 0.166 2.159-0.166 0.331-0.581 0.166-0.996 0.166v-2.325zm-7.221 0.094c-0.726-0.01-1.328 0.197-1.328 1.068l3.569-0.166-0.166-0.664c-0.499 0-1.349-0.227-2.075-0.238zm-8.937 0.016c-0.173 0.007-0.347 0.027-0.524 0.058v1.16c1.245 0.58 2.49-0.083 3.735-0.166v-0.416c-0.871-0.218-1.998-0.689-3.211-0.636zm-10.522 0.043c-0.107-0.012-0.231-0.006-0.377 0.015l0.166 1.16c0.249-0.332 1.162 0.165 0.831-0.582-0.125-0.374-0.297-0.559-0.62-0.593zm46.432 0.013c1.411-0.083 0.581 1.826 0.83 2.823h-0.994l0.164-2.823zm-14.771 0.002h1.244c-0.249 0.829 0.5 2.323-0.58 2.407h-0.416l-0.248-2.407zm-37.182 1.576l0.164 0.995v-0.58l-0.164-0.415zm26.891 0c0.082-0.083 0.332 0.996 1.162 0.581v-0.581h-1.162zm-11.206 0.415l-0.58 0.58 0.83-0.414-0.25-0.166zm-19.503 0.414l0.58 1.744c-1.163 0.415-2.986 0.248-4.149-0.582v0.83c0.083 0.166-0.25 0.498-0.416 0.414 1.163 0.332 1.246 1.578 2.158 1.578 0.415-0.166 0.747 0.167 0.664 0.582h5.561c-1.576-1.08-3.32-0.582-5.229-0.416-0.331-0.084-0.747-0.499-0.582-0.996 1.578-0.166 3.073-0.498 4.817-0.414 0.83 0.166 0.911 0.913 1.99 0.664 0.748 1.079 1.493-0.499 2.158-0.25 1.41-0.415 2.823 0.831 4.233 1.246 0.581 0.581 1.494-1.245 1.992 0h1.578c0.995 1.327 3.816 0.58 5.559 1.326l0.582-0.746 0.248 0.166c0.332 0.166 0.498-0.166 0.748-0.416 2.49 0.499 3.9-1.659 6.39-1.16 1.744-0.581 4.149-0.249 5.809 0.83-0.166 0.082-0.248 0.248-0.414 0.166l0.166 0.58h-0.582c-0.083-0.082-0.249-0.166-0.166-0.416h-1.658c-1.329-0.497-1.993-0.497-3.321 0l0.996 0.83-0.416 0.582c-0.731-0.488-1.643 0.185-2.57 0.248h3.983l0.164-0.664c1.08 0.084 2.242-0.081 3.156 0.25v0.166c2.24 0.084 5.228 0.83 7.635 0l-4.233-0.166c0.249-0.331 1.244-0.166 0.994-0.25l-3.568-0.33c2.572-0.415 5.312-0.166 7.969-0.25l-5.563-0.166v-0.25l-2.406-0.33c0.58-0.415 1.079-0.166 1.41-0.83-0.58-0.084-1.245 0.166-1.576-0.166l0.166-0.25c-0.499-0.581-0.165-0.746-1.576-0.58-2.408-1.163-5.312 0.665-7.553-0.83v0.414c-1.161 0.332-3.32 0.249-4.398 0-3.072 0.332-6.642-0.748-9.795 0.248-2.573-0.249-5.975 0.749-7.385-1.658v1.41c-1.909 0.166-3.569-0.831-4.15-2.158zm26.726 6.39h-0.137c0.046 0 0.091 0.003 0.137 0zm-0.137 0c-0.288 0-0.577-0.058-0.861-0.248v-0.166h-1.992c0.082 0.084 0.25 0.165 0.166 0.414h2.687zm-9.554-3.662c0.456 0.01 1.016 0.136 1.306 0.26-0.665 0.166-1.411 0.581-1.992 0.166-0.124-0.332 0.229-0.436 0.686-0.426zm3.299 0.676l2.738 0.166v0.414l-2.738-0.248v-0.332zm34.277 0.33c-0.913 0.082-1.91-0.081-2.656 0.25 0.415 0 0.913-0.167 1.246 0.166-1.245 0.332-2.657 0.166-3.985 0.248h5.561c-0.415-0.082-0.913 0.084-1.162-0.248 0.249-0.333 0.581-0.416 0.996-0.416zm-46.676 0.541c-0.279 0.019-0.548 0.063-0.797 0.125 0.333 0.497 1.244-0.25 1.244 0.58l1.991-0.25c-0.685-0.373-1.602-0.513-2.438-0.455zm40.699 0.123c-1.776 0.236-4.186 0.179-6.566 0.156 0.915-0.01 1.818 0.014 2.666 0.166 0.904-0.293 2.799 0.066 3.9-0.322zm-3.9 0.322c-0.254 0.083-0.444 0.207-0.498 0.426l0.582-0.416c-0.027-0.005-0.057-0.005-0.084-0.01zm-2.666-0.166c-0.957-0.009-1.909-0.012-2.813 0.012 0.914 0.041 1.869-0.001 2.813-0.012zm-24.143 2.17c-0.415 1.161-1.99-0.5-2.82 0.662-0.664 0.997-1.162 2.574-0.332 3.737 2.656-1.163 3.235 2.153 5.975 0.996 0.746-1.247 2.905-0.25 2.988-1.992-1.163-2.158-3.238-3.403-5.811-3.403zm34.168 0.233c-0.164 0.004-0.325 0.015-0.47 0.015l0.332 0.414c-0.052 0.052-0.105 0.13-0.176 0.166h1.586c-0.25-0.56-0.778-0.607-1.272-0.595zm-0.314 0.595h-0.156c0.063 0.032 0.112 0.023 0.156 0zm-8.787 0.83l-2.324 1.993 2.738-1.993h-0.414zm-29.465 0.332c-1.494 0-0.332 1.496-0.996 2.409-0.166 1.078 0.997 0.331 1.412 0.83-0.664-0.83-0.332-2.076-0.416-3.239zm2.574 3.239l0.662 2.153c0-0.74-0.081-1.74-0.662-2.153zm2.822 1.163v1.82h0.166v-1.82h-0.166zm11.825 1.08c-1.298 0.05-2.301 0.54-2.446 2.32l6.555-0.16c0.912-0.34 0.665-1.42 1.162-2-1.447 0.42-3.603-0.23-5.271-0.16zm-15.643 0.74l-0.582 0.42h0.582c0.249 0.08 0.248 0.33 0.248 0.58h0.416c-0.249-0.33-0.331-0.91-0.664-1zm9.762 0.3c-0.82-0.01-1.505 0.24-1.795 1.12-0.996 0.33-1.245-0.75-1.992-1l-0.166 1c0.166 0 0.499-0.09 0.582 0.16-0.083 0.25-0.416 0.17-0.582 0.17 0.083 0.41-0.166 1.16 0.166 1.24-0.415-0.99 1.328-0.5 1.992-0.58-0.333-0.08-0.748 0.08-0.996-0.25 0.702-0.12 1.402-0.31 2.047-0.39-0.564 0.03-1.119 0.04-1.631-0.19l1.826-0.41c0.746-0.75 2.156-0.25 3.152-0.42-0.83-0.17-1.784-0.44-2.603-0.45zm-0.744 1.47c0.258-0.01 0.514-0.02 0.775-0.02-0.245-0.03-0.506-0.01-0.775 0.02zm15.548-1.19l0.581 0.17-0.249 0.25h0.665v-0.42h-0.997zm-25.314 0.83l0.748 0.34-0.166 0.25h0.58l-0.166-0.25 0.416-0.34h-1.412z" transform="matrix(.8 0 0 -.8 390.45 347.35)" fill="#fff"/><path d="m61.646 11.141l-3.927 0.853 0.267 1.233 1.233-0.268-1.328 3.459-2.817-2.561 1.233-0.265-0.268-1.233-4.043 0.877 0.266 1.231 1.203-0.26 3.824 3.496 0.705 3.246-1.32 0.285 0.267 1.233 4.147-0.899-0.268-1.232-1.347 0.293-0.705-3.248 1.843-4.723 1.305-0.285-0.27-1.232zm16.073 0.255c-2.486 0.054-4.455 1.747-4.887 4.372-0.494 3 1.294 5.475 4.293 5.968 2.986 0.49 5.489-1.292 5.98-4.277 0.49-2.985-1.307-5.492-4.293-5.982-0.373-0.062-0.738-0.088-1.093-0.081zm0.148 1.356c0.239-0.012 0.484 0 0.731 0.041 1.975 0.325 3.223 2.243 2.869 4.395-0.353 2.136-2.148 3.555-4.123 3.23-1.976-0.325-3.223-2.243-2.873-4.379 0.31-1.882 1.724-3.204 3.396-3.287zm8.795 0.619l-0.453 1.176 1.189 0.459-2.712 7.045-1.19-0.457-0.453 1.176 3.82 1.47 0.451-1.176-1.216-0.47 1.187-3.086 3.047 1.172 0.453-1.174-3.045-1.174 1.071-2.781 3.529 1.357-0.635 1.649 1.162 0.447 1.088-2.822-7.293-2.811zm-36.371 0.488l-7.516 3.176 1.491 3.526 1.148-0.487-1-2.363 1.914-0.807 2.938 6.953-1.215 0.512 0.488 1.162 3.826-1.615-0.49-1.162-1.217 0.514-2.937-6.954 1.912-0.808 1 2.363 1.146-0.484-1.488-3.526zm-9.258 4.229l-3.187 1.894 0.644 1.084 0.944-0.56 3.857 6.488-0.943 0.561 0.642 1.084 3.188-1.895-0.643-1.084-0.943 0.561-3.858-6.489 0.944-0.56-0.645-1.084zm-5.519 3.353l-0.981 0.77 0.412 0.525c-0.857 0.014-1.629 0.279-2.257 0.774-1.19 0.935-1.76 2.514-0.606 3.984 0.523 0.664 1.111 0.957 1.652 1.024 2.208 0.263 4.27-2.226 5.489-0.674 0.595 0.758 0.45 1.797-0.354 2.429-0.759 0.597-1.699 0.599-2.869 0.141l-0.551-0.699-0.98 0.769 2.254 2.87 0.98-0.772-0.514-0.652c0.984 0.076 1.84-0.18 2.563-0.748 1.434-1.127 1.728-2.962 0.676-4.303-0.505-0.641-1.265-1.082-2.014-1.172-1.646-0.197-3.466 1.402-4.568 1.27-0.293-0.035-0.59-0.198-0.801-0.467-0.476-0.606-0.272-1.428 0.533-2.059 0.723-0.569 1.476-0.688 2.402-0.398l0.432 0.549 0.981-0.77-1.879-2.391zm68.266 0.422l-0.84 0.948 1.09 0.949-4.983 5.674-1.082-0.948-0.83 0.948 3.115 2.728 0.83-0.947-1.096-0.957 4.776-5.442 0.02 0.018-2.08 9.617 1.19 1.045 5.88-6.701 1.11 0.978 0.83-0.947-3.11-2.728-0.83 0.947 1.06 0.93-4.33 4.939-0.02-0.019 1.88-8.762-2.58-2.27zm-75.481 6.711c-0.692 0.073-1.432 0.483-2.192 1.326l-3.117 3.461 0.936 0.844 0.924-1.025 5.609 5.054-0.924 1.024 0.936 0.844 2.808-3.118-0.933-0.843-0.875 0.968-2.567-2.312 0.963-1.07 5.033 1.462 1.459-1.621-0.937-0.843-0.822 0.914-3.914-1.131c0.65-1.23 0.476-2.365-0.483-3.229-0.567-0.511-1.212-0.777-1.904-0.705zm0.094 1.485c0.266 0.024 0.529 0.143 0.777 0.367 0.496 0.446 0.892 1.202-0.061 2.26l-1.142 1.267-2.104-1.896 1.231-1.368c0.403-0.447 0.855-0.671 1.299-0.63zm84.837 0.556l-1 0.762 0.79 1.039-6.01 4.564-0.79-1.041-1.01 0.764 5.05 6.651 2.47-1.874-0.75-0.992-1.47 1.112-2.59-3.412 2.62-1.993 2.26 2.977 1.01-0.762-2.26-2.976 2.38-1.813 2.6 3.416-1.41 1.067 0.75 0.992 2.41-1.83-5.05-6.651zm-91.703 4.731l-4.349 7.129 1.076 0.656 0.68-1.113 6.443 3.931-0.68 1.113 1.076 0.657 4.35-7.127-2.646-1.615-0.649 1.064 1.568 0.959-2.232 3.658-2.809-1.717 1.948-3.189-1.076-0.656-1.95 3.189-2.556-1.558 2.232-3.661 1.506 0.92 0.65-1.062-2.582-1.578zm98.093 3.883l-1.14 0.546 0.54 1.123-6.57 6.895 0.61 1.269 9.47-0.865 0.53 1.108 1.14-0.545-1.68-3.489-1.13 0.545 0.51 1.057-7.19 0.67 4.99-5.242 0.51 1.056 1.13-0.546-1.72-3.582zm-103.52 5.236l-1.315 3.642 1.188 0.426 0.396-1.101 5.512 4.65-7.231 0.121 0.397-1.101-1.186-0.43-1.349 3.74 1.187 0.428 0.422-1.172 9.525-0.145 0.479-1.324-7.258-6.148 0.418-1.158-1.185-0.428zm99.848 7.258l-1.22 0.316 0.99 3.848 1.22-0.315-0.31-1.191 2.41 0.191 0.91 3.504-2.03 1.289-0.31-1.209-1.22 0.317 0.96 3.734 0.17 4.594c0.13 3.617 2.08 5.191 5.32 5.07 2.42-0.09 4.89-1.414 4.74-5.312l-0.17-4.729-1.26 0.049 0.05 1.361-7.54 0.283-0.06-1.363-0.84 0.031 0.83-0.212-0.28-1.092 6.76-4.545 0.3 1.148 1.09-0.281-1.28-4.982-1.1 0.281 0.3 1.148-8.13-0.756-0.3-1.177zm4.32 2.916l4.44 0.295 0.03 0.128-3.76 2.348-0.71-2.771zm-108.03 1.781l-0.695 3.641 1.236 0.236 0.207-1.078 7.414 1.418-0.205 1.078 1.237 0.236 0.699-3.64-1.241-0.239-0.205 1.08-7.416-1.42 0.207-1.078-1.238-0.234zm-1.183 5.619l-0.135 4.137 1.26 0.039 0.046-1.408 6.565 0.214v0.03l-7.969 4.103-0.111 3.438 1.26 0.041 0.046-1.438 7.545 0.248-0.047 1.438 1.26 0.041 0.135-4.137-1.26-0.041-0.047 1.453-7.234-0.236 0.002-0.029 8.752-4.493 0.051-1.587-8.907-0.29 0.047-1.482-1.259-0.041zm115.2 2.715l0.06 1.807c0.1 2.563-1.43 3.69-3.58 3.771-2.12 0.079-3.86-0.732-3.96-3.52l-0.07-1.777 7.55-0.281zm-8.5 7.633l-0.68 3.916 1.24 0.217 0.22-1.213 2.11 1.164-0.62 3.566-2.38 0.34 0.22-1.229-1.25-0.214-0.67 3.884 1.24 0.217 0.19-1.109 8.04-1.358-0.21 1.17 1.11 0.194 0.89-5.071-1.11-0.193-0.21 1.168-7.09-4.035 0.21-1.197-1.25-0.217zm-105.6 2.174l-1.24 0.218 0.689 3.885 1.243-0.221-0.205-1.154 5.621-1c1.387-0.246 2.119 0.226 2.381 1.701 0.2 1.124-0.129 2.073-1.545 2.324l-5.739 1.02-0.205-1.152-1.242 0.218 0.691 3.885 1.243-0.221-0.223-1.24 5.695-1.013c1.694-0.302 3.01-1.288 2.502-4.151-0.281-1.576-1.18-3.329-3.736-2.875l-5.709 1.016-0.221-1.24zm109.58 2.478l3.93 2.1-0.03 0.131-4.39 0.587 0.49-2.818zm-14.67 23.101l-0.86 0.89 0.48 0.47c-0.85 0.13-1.58 0.5-2.14 1.07-1.05 1.09-1.4 2.73-0.06 4.03 0.61 0.59 1.23 0.8 1.78 0.79 2.22-0.04 3.93-2.78 5.34-1.41 0.7 0.67 0.69 1.72-0.02 2.45-0.67 0.7-1.6 0.83-2.82 0.53l-0.64-0.62-0.87 0.9 2.62 2.54 0.87-0.9-0.6-0.58c0.99-0.05 1.8-0.42 2.44-1.09 1.27-1.31 1.31-3.16 0.09-4.35-0.59-0.57-1.4-0.9-2.16-0.89-1.65 0.03-3.24 1.86-4.35 1.88-0.29 0-0.61-0.12-0.86-0.35-0.55-0.54-0.46-1.38 0.25-2.12 0.64-0.66 1.37-0.88 2.33-0.72l0.5 0.49 0.87-0.9-2.19-2.11zm-71.797 4.86l-0.767 1 1.058 0.81-4.603 5.98-1.059-0.81-0.767 1 5.853 4.5 2.858-3.71-1.104-0.85-2.092 2.71-2.49-1.92 4.602-5.98 1.011 0.78 0.77-1-3.27-2.51zm8.174 5.85l-0.517 1 1.052 0.55-5.99 5.55-1.078-0.57-0.582 1.12 3.527 1.83 0.58-1.11-1.091-0.57 1.75-1.67 3.213 1.67-0.395 2.37-1.107-0.57-0.58 1.12 3.5 1.81 0.582-1.11-1-0.52 1.132-8.07 1.053 0.54 0.52-1-4.569-2.37zm49.688 0.81l-1.184 0.51 0.444 1.02c-1.32-0.39-2.425-0.34-3.747 0.24-3.373 1.46-3.545 4.61-2.613 6.76 0.784 1.81 3.068 4.39 7 2.68 2.408-1.04 4.233-3.32 2.69-6.66l-3.377 1.46 0.502 1.16 1.673-0.73c0.349 1.4-0.475 2.86-2.011 3.53-1.974 0.85-4.051-0.02-4.948-2.09-0.902-2.08-0.194-4.1 1.737-4.94 1.347-0.58 2.928-0.33 3.967 0.61l1.181-0.52-1.314-3.03zm-47.981 1.35l0.117 0.06-0.763 4.37-2.539-1.32 3.185-3.11zm7.239 1.92c-1.093 0.02-2.109 0.59-2.524 1.93-0.249 0.81-0.155 1.46 0.1 1.94 1.036 1.97 4.256 2.25 3.674 4.13-0.285 0.92-1.222 1.39-2.2 1.09-0.921-0.28-1.459-1.05-1.748-2.28l0.262-0.85-1.189-0.36-1.077 3.48 1.19 0.37 0.244-0.8c0.497 0.86 1.194 1.41 2.072 1.69 1.743 0.53 3.42-0.27 3.924-1.89 0.241-0.78 0.171-1.66-0.182-2.33-0.773-1.46-3.121-2.05-3.64-3.03-0.136-0.26-0.174-0.6-0.072-0.93 0.227-0.73 1.018-1.03 1.996-0.73 0.878 0.27 1.406 0.82 1.693 1.75l-0.205 0.67 1.189 0.36 0.899-2.9-1.19-0.37-0.197 0.64c-0.497-0.7-1.157-1.18-1.922-1.42-0.361-0.11-0.733-0.17-1.097-0.16zm30.664 0.86l-8.182 1.67 0.254 1.24 1.277-0.26 1.514 7.39-1.277 0.27 0.252 1.23 8.179-1.67-0.621-3.04-1.219 0.25 0.368 1.8-4.2 0.86-0.658-3.23 3.66-0.75-0.254-1.23-3.66 0.75-0.601-2.94 4.199-0.85 0.353 1.72 1.221-0.24-0.605-2.97zm-8.371 1.79l-3.87 0.04 0.012 1.26 1.172-0.01-2.434 6.79-2.638-6.73 1.172-0.02-0.014-1.26-3.975 0.05 0.014 1.26 1.246-0.02 3.459 8.88 1.408-0.02 3.231-8.94 1.23-0.02-0.013-1.26z" transform="matrix(.8 0 0 -.8 390.45 347.35)"/></g></g></svg>
